<svg width="230" height="60" viewBox="0 0 230 60" fill="none" xmlns="http://www.w3.org/2000/svg">
<rect x="-0.000244141" width="230" height="60" fill="#A0CFFB"/>
<path d="M78.0225 41V17.7273H82.9429V36.9432H92.9202V41H78.0225ZM103.974 41.3409C102.209 41.3409 100.683 40.9659 99.3946 40.2159C98.1143 39.4583 97.1257 38.4053 96.4287 37.0568C95.7318 35.7008 95.3833 34.1288 95.3833 32.3409C95.3833 30.5379 95.7318 28.9621 96.4287 27.6136C97.1257 26.2576 98.1143 25.2045 99.3946 24.4545C100.683 23.697 102.209 23.3182 103.974 23.3182C105.739 23.3182 107.262 23.697 108.542 24.4545C109.83 25.2045 110.823 26.2576 111.52 27.6136C112.217 28.9621 112.565 30.5379 112.565 32.3409C112.565 34.1288 112.217 35.7008 111.52 37.0568C110.823 38.4053 109.83 39.4583 108.542 40.2159C107.262 40.9659 105.739 41.3409 103.974 41.3409ZM103.997 37.5909C104.8 37.5909 105.47 37.3636 106.008 36.9091C106.546 36.447 106.951 35.8182 107.224 35.0227C107.504 34.2273 107.645 33.322 107.645 32.3068C107.645 31.2917 107.504 30.3864 107.224 29.5909C106.951 28.7955 106.546 28.1667 106.008 27.7045C105.47 27.2424 104.8 27.0114 103.997 27.0114C103.186 27.0114 102.504 27.2424 101.951 27.7045C101.406 28.1667 100.993 28.7955 100.713 29.5909C100.44 30.3864 100.304 31.2917 100.304 32.3068C100.304 33.322 100.44 34.2273 100.713 35.0227C100.993 35.8182 101.406 36.447 101.951 36.9091C102.504 37.3636 103.186 37.5909 103.997 37.5909ZM123.576 47.9091C122.008 47.9091 120.664 47.6932 119.542 47.2614C118.429 46.8371 117.542 46.2576 116.883 45.5227C116.224 44.7879 115.796 43.9621 115.599 43.0455L120.076 42.4432C120.213 42.7917 120.429 43.1174 120.724 43.4205C121.02 43.7235 121.41 43.9659 121.895 44.1477C122.387 44.3371 122.986 44.4318 123.69 44.4318C124.743 44.4318 125.611 44.1742 126.292 43.6591C126.982 43.1515 127.326 42.2992 127.326 41.1023V37.9091H127.122C126.91 38.3939 126.592 38.8523 126.167 39.2841C125.743 39.7159 125.198 40.0682 124.531 40.3409C123.864 40.6136 123.069 40.75 122.145 40.75C120.834 40.75 119.641 40.447 118.565 39.8409C117.497 39.2273 116.645 38.2917 116.008 37.0341C115.379 35.7689 115.065 34.1705 115.065 32.2386C115.065 30.2614 115.387 28.6098 116.031 27.2841C116.675 25.9583 117.531 24.9659 118.599 24.3068C119.675 23.6477 120.853 23.3182 122.133 23.3182C123.111 23.3182 123.929 23.4848 124.588 23.8182C125.247 24.1439 125.777 24.553 126.179 25.0455C126.588 25.5303 126.902 26.0076 127.122 26.4773H127.304V23.5455H132.111V41.1705C132.111 42.6553 131.747 43.8977 131.02 44.8977C130.292 45.8977 129.285 46.6477 127.997 47.1477C126.717 47.6553 125.243 47.9091 123.576 47.9091ZM123.679 37.1136C124.459 37.1136 125.118 36.9205 125.656 36.5341C126.201 36.1402 126.618 35.5795 126.906 34.8523C127.201 34.1174 127.349 33.2386 127.349 32.2159C127.349 31.1932 127.205 30.3068 126.917 29.5568C126.629 28.7992 126.213 28.2121 125.667 27.7955C125.122 27.3788 124.459 27.1705 123.679 27.1705C122.883 27.1705 122.213 27.3864 121.667 27.8182C121.122 28.2424 120.709 28.8333 120.429 29.5909C120.148 30.3485 120.008 31.2235 120.008 32.2159C120.008 33.2235 120.148 34.0947 120.429 34.8295C120.717 35.5568 121.129 36.1212 121.667 36.5227C122.213 36.9167 122.883 37.1136 123.679 37.1136ZM143.849 41.3409C142.084 41.3409 140.558 40.9659 139.27 40.2159C137.989 39.4583 137.001 38.4053 136.304 37.0568C135.607 35.7008 135.258 34.1288 135.258 32.3409C135.258 30.5379 135.607 28.9621 136.304 27.6136C137.001 26.2576 137.989 25.2045 139.27 24.4545C140.558 23.697 142.084 23.3182 143.849 23.3182C145.614 23.3182 147.137 23.697 148.417 24.4545C149.705 25.2045 150.698 26.2576 151.395 27.6136C152.092 28.9621 152.44 30.5379 152.44 32.3409C152.44 34.1288 152.092 35.7008 151.395 37.0568C150.698 38.4053 149.705 39.4583 148.417 40.2159C147.137 40.9659 145.614 41.3409 143.849 41.3409ZM143.872 37.5909C144.675 37.5909 145.345 37.3636 145.883 36.9091C146.421 36.447 146.826 35.8182 147.099 35.0227C147.379 34.2273 147.52 33.322 147.52 32.3068C147.52 31.2917 147.379 30.3864 147.099 29.5909C146.826 28.7955 146.421 28.1667 145.883 27.7045C145.345 27.2424 144.675 27.0114 143.872 27.0114C143.061 27.0114 142.379 27.2424 141.826 27.7045C141.281 28.1667 140.868 28.7955 140.588 29.5909C140.315 30.3864 140.179 31.2917 140.179 32.3068C140.179 33.322 140.315 34.2273 140.588 35.0227C140.868 35.8182 141.281 36.447 141.826 36.9091C142.379 37.3636 143.061 37.5909 143.872 37.5909Z" fill="black"/>
</svg>
