<svg width="132" height="107" viewBox="0 0 132 107" fill="none" xmlns="http://www.w3.org/2000/svg">
<path d="M26.272 6.90042C26.5823 6.28276 26.7354 5.59814 26.7179 4.90718C26.7003 4.21622 26.5127 3.54023 26.1716 2.93909L24.094 15.107C24.5176 15.1471 24.9446 15.0841 25.3386 14.9235C25.7326 14.7628 26.0819 14.5093 26.3567 14.1844C26.6316 13.8596 26.8238 13.4731 26.9169 13.058C27.0101 12.6428 27.0015 12.2113 26.8919 11.8001C27.5428 11.0245 28.0623 10.0688 28.0345 9.05768C28.0068 8.04658 27.2797 7.01469 26.272 6.90042Z" fill="#E0E0E0"/>
<path d="M26.4348 5.20717C26.9646 3.70089 26.234 1.93492 24.9459 0.9896C23.6577 0.0442825 21.9402 -0.166944 20.3682 0.116998C19.1285 0.342073 17.8265 0.975745 17.3937 2.15999C16.483 1.70638 14.8798 1.90029 14.021 2.45086C13.5937 2.73114 13.2442 3.11496 13.0051 3.56661C12.7659 4.01825 12.6449 4.52305 12.6533 5.03403C11.9961 5.22032 11.3984 5.57365 10.9184 6.0596C10.4384 6.54555 10.0925 7.14754 9.91427 7.80694C9.73608 8.46634 9.73174 9.16064 9.90165 9.82222C10.0716 10.4838 10.4099 11.0901 10.8838 11.582C9.77577 12.8978 10.2675 15.4291 11.3617 16.7553C12.4559 18.0815 13.9483 18.3239 15.645 18.6113C17.9685 19.006 20.4686 18.7602 22.4839 17.5378C23.9294 16.6589 25.0482 15.3318 25.6701 13.7586C26.292 12.1853 26.383 10.452 25.9293 8.82223C25.747 8.33896 25.6464 7.82876 25.6315 7.31249C25.6765 6.55762 26.182 5.92048 26.4348 5.20717Z" fill="#E0E0E0"/>
<path d="M19.8698 25.606C18.8614 25.7295 17.8447 25.4528 17.0381 24.8352C16.2314 24.2175 15.6991 23.3083 15.5552 22.3026L13.7581 9.71567C13.166 6.34992 14.6272 3.19886 18.0103 2.69677L18.3254 2.66907C19.8569 2.5294 21.3849 2.97228 22.6043 3.90933C23.8238 4.84639 24.6451 6.20874 24.9045 7.72461C25.4032 10.6471 25.9156 13.8813 26.0368 15.4603C26.2861 18.7291 23.0658 19.529 23.0658 19.529C23.0658 19.529 23.1524 20.2838 23.2805 21.2395C23.3479 21.7488 23.3136 22.2664 23.1797 22.7623C23.0457 23.2582 22.8148 23.7226 22.5002 24.1287C22.1855 24.5348 21.7935 24.8744 21.3468 25.128C20.9 25.3816 20.4074 25.5441 19.8975 25.606H19.8698Z" fill="#FFBF9D"/>
<path d="M23.038 19.5289C21.5325 19.6853 20.0144 19.3925 18.675 18.6875C18.675 18.6875 19.9182 21.056 23.1523 20.4742L23.038 19.5289Z" fill="#FF9A6C"/>
<path d="M20.1603 14.5599C20.241 14.4391 20.3577 14.3467 20.4938 14.2959C20.6299 14.245 20.7786 14.2383 20.9187 14.2766C21.0589 14.3149 21.1835 14.3963 21.2748 14.5093C21.3661 14.6223 21.4196 14.7611 21.4277 14.9062C21.4423 15.0427 21.4175 15.1805 21.3561 15.3033C21.2947 15.426 21.1994 15.5286 21.0814 15.5987C20.9086 15.6872 20.7111 15.7152 20.5204 15.6784C20.3731 15.663 20.2352 15.5984 20.1292 15.4949C20.0607 15.4144 20.0137 15.3179 19.9925 15.2144C19.9713 15.1109 19.9766 15.0037 20.008 14.9027C20.0529 14.7343 20.1427 14.5811 20.2677 14.4595" fill="#FF9A6C"/>
<path d="M24.1668 11.5509C24.1786 11.6723 24.1424 11.7934 24.0661 11.8885C23.9897 11.9836 23.8793 12.0451 23.7582 12.0599C23.6992 12.0703 23.6388 12.0686 23.5804 12.0551C23.522 12.0416 23.467 12.0165 23.4185 11.9813C23.3701 11.9461 23.3292 11.9015 23.2983 11.8501C23.2674 11.7988 23.2472 11.7418 23.2388 11.6825C23.2262 11.5609 23.262 11.4393 23.3385 11.344C23.415 11.2487 23.526 11.1874 23.6474 11.1735C23.7064 11.1631 23.7669 11.1647 23.8253 11.1783C23.8836 11.1918 23.9387 11.2169 23.9871 11.2521C24.0356 11.2873 24.0765 11.3319 24.1073 11.3832C24.1382 11.4346 24.1584 11.4916 24.1668 11.5509Z" fill="#263238"/>
<path d="M24.333 9.39357C24.2776 9.45936 23.9037 9.23082 23.4016 9.27584C22.8995 9.32085 22.5532 9.62211 22.4944 9.5494C22.4355 9.47668 22.4943 9.41089 22.664 9.27931C22.8675 9.10851 23.1194 9.0056 23.3843 8.98497C23.6452 8.96223 23.9067 9.02155 24.1322 9.15465C24.295 9.25853 24.3573 9.36587 24.333 9.39357Z" fill="#263238"/>
<path d="M19.5751 11.6478C19.5869 11.7696 19.5509 11.8912 19.4746 11.9868C19.3983 12.0825 19.2878 12.1447 19.1665 12.1603C19.1076 12.1702 19.0473 12.1682 18.9891 12.1545C18.9309 12.1408 18.876 12.1156 18.8277 12.0805C18.7793 12.0453 18.7385 12.0009 18.7075 11.9498C18.6765 11.8987 18.6559 11.842 18.6471 11.7829C18.6399 11.6636 18.6779 11.5459 18.7537 11.4535C18.8295 11.361 18.9373 11.3006 19.0557 11.2842C19.1727 11.2641 19.293 11.291 19.3903 11.3591C19.4876 11.4272 19.554 11.531 19.5751 11.6478Z" fill="#263238"/>
<path d="M19.513 9.94423C19.461 10.01 19.0836 9.78148 18.5815 9.8265C18.0794 9.87151 17.7331 10.1728 17.6743 10.1001C17.6154 10.0273 17.695 9.95808 17.8439 9.82996C18.0473 9.65896 18.2992 9.55602 18.5642 9.53563C18.8252 9.51122 19.0872 9.57066 19.3121 9.7053C19.4749 9.80919 19.5372 9.89922 19.513 9.94423Z" fill="#263238"/>
<path d="M21.549 13.5212C21.8051 13.4144 22.074 13.3411 22.3488 13.3031C22.477 13.2788 22.5947 13.2407 22.6085 13.1507C22.6098 13.0178 22.5686 12.888 22.4908 12.7802L22.0233 11.8349C21.3758 10.4948 20.891 9.38329 20.9465 9.35905C21.0019 9.33481 21.5732 10.3979 22.2207 11.7448C22.38 12.0738 22.5289 12.3924 22.6709 12.6936C22.7657 12.8415 22.805 13.0182 22.7817 13.1923C22.7679 13.2393 22.7432 13.2823 22.7094 13.3179C22.6757 13.3534 22.634 13.3804 22.5878 13.3966C22.5188 13.4233 22.4466 13.4408 22.3731 13.4485C22.1023 13.5058 21.8256 13.5302 21.549 13.5212Z" fill="#263238"/>
<path d="M17.4179 8.71143C17.456 8.57292 17.9616 8.59369 18.5468 8.47596C19.132 8.35823 19.5856 8.15739 19.6825 8.27166C19.7206 8.32706 19.6479 8.46211 19.4678 8.61793C19.2262 8.80394 18.9437 8.92975 18.6437 8.98498C18.3455 9.04687 18.0367 9.03618 17.7434 8.95381C17.5184 8.87763 17.4006 8.78068 17.4179 8.71143Z" fill="#E0E0E0"/>
<path d="M22.0095 7.82149C22.1064 7.71761 22.4423 7.8665 22.8578 7.91152C23.2734 7.95653 23.6335 7.91152 23.7027 8.03617C23.7304 8.0985 23.6647 8.20585 23.5019 8.29934C23.283 8.40929 23.0364 8.45155 22.7934 8.42071C22.5504 8.38987 22.3221 8.28734 22.1376 8.12621C22.0026 7.99116 21.9645 7.86997 22.0095 7.82149Z" fill="#E0E0E0"/>
<path d="M14.2324 12.1499C14.1736 12.1291 11.9263 11.6859 12.1963 13.9124C12.4664 16.1389 14.6479 15.4083 14.6445 15.346C14.641 15.2836 14.2324 12.1499 14.2324 12.1499Z" fill="#FFBF9D"/>
<path d="M13.8617 14.5841C13.8617 14.5841 13.8271 14.6153 13.7648 14.6534C13.6766 14.7038 13.5726 14.7187 13.4739 14.6949C13.3194 14.621 13.1873 14.5074 13.0911 14.3656C12.995 14.2238 12.9383 14.059 12.9268 13.8881C12.8961 13.697 12.9103 13.5014 12.9683 13.3168C12.9792 13.2429 13.0079 13.1728 13.052 13.1124C13.096 13.0521 13.1541 13.0034 13.2211 12.9705C13.2644 12.953 13.3125 12.9513 13.3569 12.9659C13.4013 12.9805 13.4391 13.0103 13.4635 13.0502C13.5016 13.109 13.4947 13.154 13.5051 13.1575C13.5154 13.161 13.5501 13.1125 13.5051 13.0259C13.4872 12.9711 13.4504 12.9244 13.4012 12.8943C13.3336 12.8572 13.2548 12.8461 13.1796 12.8632C13.0908 12.8933 13.011 12.9453 12.9475 13.0142C12.884 13.0832 12.8388 13.167 12.816 13.2579C12.7451 13.4624 12.7249 13.681 12.7571 13.8951C12.7709 14.0959 12.8441 14.288 12.9674 14.4471C13.0908 14.6062 13.2586 14.725 13.4497 14.7884C13.5112 14.7983 13.5742 14.7944 13.634 14.777C13.6939 14.7597 13.7492 14.7293 13.7959 14.688C13.8652 14.6395 13.8686 14.5876 13.8617 14.5841Z" fill="#FF9A6C"/>
<path d="M21.8815 15.0932C21.8503 15.1659 21.3863 15.0066 20.8011 14.9893C20.2159 14.972 19.7381 15.0759 19.7104 14.9893C19.6827 14.9027 20.1605 14.6707 20.8115 14.6984C21.4625 14.7262 21.9196 15.0309 21.8815 15.0932Z" fill="#263238"/>
<path d="M19.2636 15.3147C19.2636 15.3321 19.1978 15.3321 19.1147 15.2836C19.0624 15.2514 19.0171 15.2091 18.9814 15.1591C18.9458 15.1092 18.9204 15.0526 18.9069 14.9927C18.8935 14.9338 18.8922 14.8727 18.9029 14.8132C18.9136 14.7537 18.9362 14.697 18.9693 14.6464C19.0212 14.5668 19.0732 14.5426 19.087 14.5564C19.1009 14.5703 18.99 14.7503 19.042 14.9685C19.0939 15.1866 19.2774 15.2801 19.2636 15.3147Z" fill="#FF9A6C"/>
<path d="M17.965 11.6721C17.965 11.7067 17.8022 11.7967 17.5667 11.7829C17.3313 11.769 17.1651 11.6651 17.1824 11.6305C17.1997 11.5959 17.3659 11.6305 17.5737 11.6305C17.7814 11.6305 17.9546 11.6305 17.965 11.6721Z" fill="#FF9A6C"/>
<path d="M18.0969 11.8557C18.0969 11.8937 17.9515 11.9318 17.7922 12.0115C17.6329 12.0911 17.5152 12.1881 17.484 12.1604C17.4528 12.1327 17.5394 11.9838 17.7299 11.8903C17.9203 11.7968 18.1004 11.8176 18.0969 11.8557Z" fill="#FF9A6C"/>
<path d="M25.2265 11.3154C25.2577 11.3362 25.185 11.4712 25.0222 11.5405C24.8595 11.6097 24.7106 11.5716 24.7175 11.5405C24.7244 11.5093 24.8387 11.4781 24.9668 11.4227C25.095 11.3673 25.185 11.2842 25.2265 11.3154Z" fill="#FF9A6C"/>
<path d="M25.2576 11.7516C25.2576 11.7897 25.133 11.8313 24.9702 11.8209C24.8075 11.8105 24.6828 11.7551 24.6897 11.717C24.6967 11.6789 24.8248 11.6754 24.9771 11.6858C25.1295 11.6962 25.2541 11.7135 25.2576 11.7516Z" fill="#FF9A6C"/>
<path d="M18.9936 15.4844C18.9936 15.5225 18.8066 15.4844 18.7166 15.2871C18.6266 15.0897 18.6889 14.9408 18.7166 14.9408C18.7443 14.9408 18.7581 15.0828 18.8308 15.2213C18.9036 15.3598 19.0109 15.4394 18.9936 15.4844Z" fill="#FF9A6C"/>
<path d="M17.2207 21.0906C17.281 20.9315 17.2942 20.7584 17.2588 20.592C17.2384 20.5113 17.1993 20.4366 17.1446 20.3739C17.0786 20.3014 17.0028 20.2385 16.9195 20.1869C16.8073 20.1219 16.7225 20.0186 16.6806 19.896C16.6702 19.8268 16.6738 19.7563 16.691 19.6885C16.7083 19.6207 16.7389 19.5571 16.781 19.5013C16.8483 19.4142 16.8891 19.3096 16.8987 19.2C16.8833 19.1044 16.8311 19.0187 16.7533 18.9611C16.6771 18.8918 16.5905 18.8295 16.5178 18.7533C16.4446 18.6822 16.3981 18.5881 16.3862 18.4867C16.3862 18.4163 16.4003 18.3467 16.4276 18.2818C16.455 18.217 16.4951 18.1583 16.5455 18.1093C16.6113 18.04 16.6529 18.0123 16.6598 18.0192C16.6667 18.0261 16.639 18.0677 16.5871 18.1404C16.5115 18.2394 16.4746 18.3625 16.4832 18.4867C16.5005 18.6321 16.6598 18.736 16.8295 18.8745C16.8847 18.9153 16.9308 18.9671 16.9648 19.0267C16.9988 19.0864 17.0199 19.1525 17.0268 19.2208C17.02 19.3572 16.973 19.4885 16.8918 19.5982C16.8263 19.6803 16.7953 19.7846 16.8052 19.8891C16.8389 19.9829 16.9037 20.0623 16.9887 20.1142C17.0787 20.1747 17.1592 20.2482 17.2277 20.3323C17.2873 20.4094 17.3276 20.4996 17.3454 20.5955C17.3747 20.7315 17.3602 20.8734 17.3038 21.0006C17.2623 21.0595 17.2207 21.0941 17.2207 21.0906Z" fill="#FF9A6C"/>
<path d="M18.114 20.959C18.111 20.8215 18.0766 20.6865 18.0136 20.5643C17.9582 20.45 17.8647 20.3254 17.7816 20.1626C17.7328 20.0769 17.6999 19.983 17.6846 19.8856C17.6701 19.7751 17.6894 19.6628 17.74 19.5636C17.785 19.4701 17.8162 19.3973 17.792 19.3316C17.7597 19.2618 17.708 19.2029 17.6431 19.1619C17.5716 19.1134 17.5045 19.059 17.4422 18.9991C17.3878 18.9376 17.3517 18.862 17.3383 18.781C17.328 18.7244 17.3295 18.6663 17.3426 18.6103C17.3557 18.5543 17.3802 18.5016 17.4145 18.4555C17.463 18.3932 17.508 18.3759 17.5115 18.3828C17.5149 18.3897 17.4907 18.4209 17.4595 18.4832C17.4201 18.57 17.4103 18.6673 17.4318 18.7602C17.4561 18.8814 17.5634 18.961 17.7158 19.058C17.8073 19.1126 17.8789 19.1952 17.9201 19.2935C17.9353 19.3519 17.9382 19.4128 17.9287 19.4724C17.9192 19.532 17.8974 19.589 17.8647 19.6397C17.8294 19.7168 17.8137 19.8014 17.8192 19.8861C17.8246 19.9707 17.851 20.0526 17.8958 20.1245C17.9686 20.2769 18.0517 20.4154 18.1036 20.54C18.1499 20.6407 18.169 20.7517 18.159 20.8621C18.1452 20.9244 18.1209 20.959 18.114 20.959Z" fill="#FF9A6C"/>
<path d="M20.0945 8.51408C20.0737 8.48292 20.2053 8.35479 20.2192 8.14357C20.233 7.93234 20.1326 7.7973 20.1603 7.75575C20.188 7.7142 20.2226 7.75575 20.2746 7.83539C20.338 7.92908 20.3675 8.0417 20.3581 8.15447C20.3486 8.26725 20.3008 8.37339 20.2226 8.45522C20.1603 8.51408 20.1049 8.51408 20.0945 8.51408Z" fill="#FF9A6C"/>
<path d="M21.4244 8.30636C21.4244 8.30636 21.3689 8.32713 21.2962 8.30636C21.2085 8.25565 21.1394 8.17821 21.0989 8.08538C21.0584 7.99254 21.0487 7.88918 21.0712 7.79042C21.0919 7.71424 21.13 7.67961 21.1439 7.68653C21.1577 7.69346 21.1439 7.86313 21.2235 8.0328C21.3032 8.20248 21.4347 8.26827 21.4244 8.30636Z" fill="#FF9A6C"/>
<path d="M19.5752 12.5204C19.5752 12.5585 19.3606 12.5932 19.1009 12.659C18.8412 12.7247 18.6334 12.7975 18.6161 12.7628C18.5988 12.7282 18.7892 12.5966 19.0662 12.5274C19.3432 12.4581 19.5752 12.4824 19.5752 12.5204Z" fill="#FF9A6C"/>
<path d="M25.1504 5.94469C24.9566 5.39777 24.6499 4.89775 24.2502 4.47716C23.8505 4.05657 23.3667 3.72482 22.8304 3.50349C21.7743 3.03256 20.268 2.39543 19.1114 2.43352C17.8661 2.50613 16.6504 2.84251 15.5448 3.42038C14.2948 4.11292 13.4499 5.63998 13.0205 7.00428C12.5912 8.36858 13.1867 9.86101 13.4291 11.2703L13.7754 12.6173C13.9381 13.0709 14.6065 13.1437 15.0012 12.8666C15.3668 12.5484 15.6206 12.1211 15.7249 11.6478C16.4174 9.52513 16.8884 7.27783 16.6114 5.06863C17.6737 5.77198 18.8431 6.29822 20.0741 6.62685C20.3591 6.72367 20.6639 6.74748 20.9605 6.6961C21.1065 6.66351 21.2381 6.5845 21.3355 6.47089C21.4329 6.35728 21.4908 6.21519 21.5007 6.06589C21.9925 6.66489 22.6002 7.15838 23.2874 7.51676C23.7168 7.73837 24.2397 7.90112 24.6725 7.68643C24.8152 7.60629 24.9383 7.49544 25.033 7.3619C25.1276 7.22835 25.1913 7.07545 25.2196 6.91425C25.2756 6.59024 25.2518 6.25747 25.1504 5.94469Z" fill="#E0E0E0"/>
<path d="M9.96973 9.60483C9.96973 9.57713 10.4476 9.60484 11.1955 9.49749C11.6327 9.42849 12.0611 9.31239 12.4733 9.15122C12.9767 8.94624 13.4553 8.68487 13.8999 8.37211C14.7104 7.80312 15.3874 7.06466 15.884 6.20793C16.2684 5.55001 16.4069 5.09293 16.4311 5.10332C16.4154 5.21416 16.3852 5.32245 16.3411 5.42536C16.2408 5.71215 16.1169 5.99012 15.9706 6.2564C15.4879 7.1425 14.8064 7.90462 13.9795 8.48292C13.5268 8.8023 13.0374 9.0662 12.5217 9.26895C12.0996 9.43624 11.6591 9.55248 11.2094 9.61522C10.9088 9.65595 10.6053 9.67101 10.3021 9.66024C10.1896 9.65406 10.0782 9.63548 9.96973 9.60483Z" fill="white"/>
<path d="M24.1737 7.33676C24.1737 7.33676 24.2569 7.33676 24.4023 7.29521C24.6113 7.24194 24.8003 7.12881 24.9459 6.96971C25.0607 6.8531 25.1446 6.70969 25.1899 6.55248C25.2353 6.39527 25.2407 6.22924 25.2056 6.06941C25.1555 5.8653 25.0468 5.68025 24.8931 5.53694C24.7393 5.39363 24.5471 5.2983 24.34 5.2626H24.2603L24.2915 5.18988C24.4647 4.74355 24.5104 4.25786 24.4235 3.78705C24.3367 3.31623 24.1208 2.87881 23.7998 2.5236C23.2616 1.94093 22.5313 1.57206 21.7429 1.48479C21.1012 1.412 20.4513 1.4854 19.8419 1.69949C19.4287 1.84324 19.0318 2.03009 18.6577 2.25697C18.525 2.34869 18.3875 2.43308 18.2456 2.50976C18.2456 2.50976 18.2768 2.47513 18.3391 2.42319C18.4014 2.37125 18.5019 2.29853 18.63 2.21196C18.998 1.96459 19.3945 1.76231 19.8108 1.60945C20.4321 1.37487 21.0999 1.28947 21.7602 1.36014C22.58 1.44004 23.3424 1.81688 23.9037 2.41972C24.2411 2.79071 24.4677 3.24894 24.5577 3.74232C24.6477 4.2357 24.5975 4.74443 24.4127 5.21066L24.3677 5.12756C24.5974 5.16811 24.8099 5.27599 24.9782 5.43752C25.1465 5.59904 25.263 5.80692 25.313 6.03478C25.3478 6.20951 25.3381 6.39019 25.2849 6.56021C25.2316 6.73023 25.1365 6.88414 25.0083 7.0078C24.8481 7.16888 24.6429 7.27755 24.4196 7.31945C24.361 7.32698 24.3016 7.32698 24.243 7.31945C24.1945 7.34369 24.1737 7.34022 24.1737 7.33676Z" fill="white"/>
<path d="M19.8074 13.0606C20.0505 13.0205 20.2848 12.9385 20.4999 12.8183C20.738 12.6668 20.925 12.4472 21.0366 12.188C21.1023 12.0299 21.1376 11.8607 21.1405 11.6894C21.1405 11.499 21.1405 11.2981 21.1405 11.0938L21.2167 11.17H18.3773H16.961L17.0476 11.0834C17.031 11.3677 17.0415 11.653 17.0788 11.9353C17.1317 12.1702 17.2467 12.3866 17.4118 12.562C17.5768 12.7374 17.7859 12.8654 18.0172 12.9325C18.2084 12.9883 18.4066 13.0163 18.6058 13.0156L19.4819 13.0433C19.5879 13.0384 19.694 13.0489 19.797 13.0745C19.6933 13.0953 19.5876 13.1046 19.4819 13.1022L18.6058 13.1299C18.3958 13.1446 18.1848 13.1294 17.9791 13.0849C17.7204 13.0162 17.485 12.879 17.2979 12.6876C17.1108 12.4962 16.9788 12.2578 16.916 11.9976C16.8705 11.7033 16.8542 11.4052 16.8675 11.1077V11.0211H18.3773H21.2167H21.2963V11.0973C21.2963 11.3051 21.2963 11.5024 21.2963 11.6963C21.2899 11.8846 21.2451 12.0696 21.1648 12.24C21.0391 12.5199 20.8266 12.7518 20.5588 12.9014C20.3907 12.9965 20.2041 13.0544 20.0117 13.071C19.9435 13.08 19.8743 13.0765 19.8074 13.0606Z" fill="#263238"/>
<path d="M24.7796 12.9775C25.0233 12.9395 25.258 12.8573 25.4722 12.7351C25.7104 12.5832 25.8965 12.3621 26.0054 12.1015C26.0711 11.9433 26.1064 11.7741 26.1093 11.6028C26.1093 11.4158 26.1093 11.215 26.1093 11.0107L26.189 11.0903H23.6785H22.2623L22.3488 11.0038C22.3385 11.2682 22.3443 11.533 22.3661 11.7967C22.4075 12.0272 22.5077 12.2431 22.657 12.4235C22.7826 12.5724 22.9381 12.6932 23.1136 12.7779C23.289 12.8627 23.4803 12.9094 23.675 12.9152L24.4818 12.9394C24.5797 12.937 24.6776 12.9474 24.7727 12.9706C24.6775 12.9935 24.5796 13.0028 24.4818 12.9983L23.675 13.026C23.4606 13.0288 23.2482 12.9847 23.0526 12.8967C22.857 12.8088 22.683 12.6792 22.5427 12.517C22.3684 12.3206 22.2489 12.0817 22.1965 11.8244C22.1653 11.5521 22.1549 11.2777 22.1653 11.0038V10.938H23.6716H26.182H26.2617V11.0176C26.2617 11.2254 26.2617 11.4228 26.2617 11.6167C26.2526 11.8636 26.1804 12.104 26.0518 12.315C25.9233 12.5259 25.7428 12.7004 25.5276 12.8217C25.3596 12.92 25.1712 12.9781 24.977 12.9914C24.911 13.0007 24.8437 12.996 24.7796 12.9775Z" fill="#263238"/>
<path d="M22.3248 11.3604C22.3005 11.4088 22.0478 11.3154 21.7292 11.3604C21.4106 11.4054 21.1821 11.53 21.1509 11.492C21.1198 11.4539 21.3345 11.2184 21.7119 11.1803C22.0893 11.1422 22.3525 11.3223 22.3248 11.3604Z" fill="#263238"/>
<path d="M16.909 11.1735C16.4114 11.4574 15.8747 11.6662 15.3161 11.7933C14.7743 11.9786 14.2088 12.0858 13.6367 12.1119C14.1686 11.9113 14.7135 11.7471 15.2676 11.6202C15.8043 11.4354 16.3526 11.2861 16.909 11.1735Z" fill="#263238"/>
<path d="M10.2745 100.688C10.2745 100.688 8.16575 105.536 8.94139 106.024C9.71704 106.512 19.7589 106.024 19.7589 106.024L16.7082 101.578L10.2745 100.688Z" fill="#FFBF9D"/>
<path d="M16.7082 105.2H8.94141V106.377H16.7082V105.2Z" fill="#9DB9F6"/>
<path d="M31.307 46.5103H10.8493L8.6228 63.5225L9.94555 101.103L16.684 102.017L21.511 68.8481L24.527 101.134L31.3139 101.823L34.4407 61.2025L31.307 46.5103Z" fill="#FFBF9D"/>
<path d="M20.8599 102.914C20.1979 102.421 19.4362 102.079 18.6281 101.912C17.82 101.744 16.9851 101.756 16.1818 101.945C15.2325 102.189 14.3777 102.711 13.7267 103.444C13.1937 104.09 12.751 104.805 12.4109 105.57L12.4524 106.38L22.0545 106.318C22.205 105.696 22.1723 105.044 21.9603 104.44C21.7484 103.836 21.3662 103.306 20.8599 102.914Z" fill="#9DB9F6"/>
<path d="M24.7138 100.688C24.7138 100.688 22.6016 105.536 23.3772 106.024C24.1528 106.512 34.1947 106.024 34.1947 106.024L31.144 101.578L24.7138 100.688Z" fill="#FFBF9D"/>
<path d="M31.1441 105.2H22.8647V106.377H31.1441V105.2Z" fill="#9DB9F6"/>
<path d="M35.2959 102.914C34.6341 102.421 33.8724 102.079 33.0642 101.911C32.2561 101.744 31.4211 101.755 30.6178 101.945C29.6689 102.19 28.8143 102.712 28.1628 103.444C27.6298 104.09 27.1871 104.805 26.8469 105.57L26.8885 106.38L36.4905 106.318C36.641 105.696 36.6083 105.043 36.3964 104.44C36.1844 103.836 35.8022 103.306 35.2959 102.914Z" fill="#9DB9F6"/>
<path d="M27.3177 93.3503C27.3177 93.3503 27.2208 93.2845 27.2034 93.0906C27.2099 92.8267 27.3009 92.5718 27.4631 92.3634C27.5583 92.2266 27.6319 92.076 27.6813 91.9167C27.7059 91.8325 27.7076 91.7431 27.6863 91.658C27.665 91.5728 27.6215 91.4948 27.5601 91.432C27.432 91.2796 27.2415 91.1619 27.0857 90.961C27.002 90.854 26.9546 90.7229 26.9507 90.5871C26.9564 90.4499 26.9969 90.3165 27.0684 90.1993C27.2057 90.0155 27.3218 89.8169 27.4147 89.6071C27.4636 89.4121 27.4337 89.2056 27.3316 89.0323C27.1515 88.6861 26.8606 88.3813 26.7983 88.0351C26.7691 87.9034 26.7818 87.7658 26.8345 87.6417C26.8873 87.5175 26.9775 87.4129 27.0926 87.3425C27.2727 87.249 27.3835 87.3183 27.3766 87.3217C27.2884 87.3283 27.2029 87.3556 27.1273 87.4014C27.0351 87.4724 26.9664 87.5695 26.93 87.68C26.8936 87.7904 26.8911 87.9093 26.923 88.0212C26.9888 88.319 27.2692 88.5822 27.4805 88.9735C27.6049 89.1816 27.6422 89.4305 27.5843 89.666C27.4887 89.8905 27.3654 90.1023 27.2173 90.2962C27.1555 90.378 27.1221 90.4777 27.1221 90.5802C27.1221 90.6826 27.1555 90.7823 27.2173 90.8641C27.3419 91.0303 27.5324 91.155 27.6778 91.3316C27.7522 91.4164 27.804 91.5186 27.8282 91.6288C27.8524 91.739 27.8483 91.8536 27.8163 91.9618C27.7574 92.1339 27.6708 92.2953 27.5601 92.4396C27.4009 92.6252 27.2976 92.8521 27.2623 93.0941C27.2623 93.2568 27.335 93.3503 27.3177 93.3503Z" fill="#FF9A6C"/>
<path d="M28.9938 93.3503C28.9938 93.3503 28.8968 93.2845 28.8795 93.0906C28.886 92.8261 28.9783 92.5708 29.1427 92.3634C29.2352 92.2251 29.3086 92.0748 29.3608 91.9167C29.3839 91.8321 29.3846 91.7428 29.3627 91.6578C29.3408 91.5728 29.2972 91.495 29.2362 91.432C29.1115 91.2796 28.9176 91.1619 28.7618 90.961C28.678 90.854 28.6307 90.7229 28.6267 90.5871C28.6325 90.4499 28.673 90.3165 28.7445 90.1993C28.8817 90.0155 28.9979 89.8169 29.0907 89.6071C29.1396 89.4121 29.1098 89.2056 29.0076 89.0323C28.8276 88.6861 28.5402 88.3813 28.4744 88.0351C28.4457 87.9034 28.4586 87.766 28.5113 87.642C28.5641 87.5179 28.654 87.4133 28.7687 87.3425C28.9488 87.249 29.0596 87.3183 29.0526 87.3217C28.9644 87.3283 28.879 87.3556 28.8033 87.4014C28.7119 87.473 28.6438 87.5701 28.6074 87.6804C28.5711 87.7907 28.5681 87.9093 28.599 88.0212C28.6683 88.319 28.9453 88.5822 29.1565 88.9735C29.281 89.1816 29.3183 89.4305 29.2604 89.666C29.1648 89.8905 29.0415 90.1023 28.8934 90.2962C28.8316 90.378 28.7981 90.4777 28.7981 90.5802C28.7981 90.6826 28.8316 90.7823 28.8934 90.8641C29.018 91.0303 29.2085 91.155 29.3539 91.3316C29.4298 91.4155 29.4824 91.5178 29.5067 91.6283C29.531 91.7388 29.5261 91.8537 29.4924 91.9618C29.4334 92.1339 29.3469 92.2953 29.2362 92.4396C29.077 92.6252 28.9737 92.8521 28.9384 93.0941C28.9245 93.2568 28.9938 93.3503 28.9938 93.3503Z" fill="#FF9A6C"/>
<path d="M11.9294 89.9569C11.9294 89.9569 11.8324 89.8911 11.8151 89.6937C11.8221 89.4303 11.9144 89.1763 12.0783 88.97C12.1721 88.8324 12.2456 88.6819 12.2964 88.5233C12.3195 88.4386 12.3202 88.3494 12.2983 88.2644C12.2765 88.1794 12.2329 88.1015 12.1718 88.0385C12.0471 87.8862 11.8532 87.7684 11.6974 87.5676C11.6132 87.4595 11.5658 87.3272 11.5624 87.1901C11.5681 87.0541 11.6086 86.9217 11.6801 86.8058C11.8166 86.6215 11.9327 86.423 12.0264 86.2137C12.0753 86.0186 12.0454 85.8121 11.9433 85.6389C11.7632 85.2926 11.4758 84.9879 11.41 84.6416C11.3785 84.5074 11.3899 84.3666 11.4428 84.2392C11.4956 84.1119 11.5871 84.0043 11.7043 83.9317C11.8844 83.8417 11.9952 83.911 11.9883 83.9144C11.9011 83.9208 11.8168 83.9482 11.7424 83.9941C11.6493 84.0644 11.5796 84.1612 11.5425 84.2718C11.5055 84.3824 11.5027 84.5017 11.5346 84.6139C11.6852 84.9496 11.8721 85.2678 12.0921 85.5627C12.2155 85.7712 12.2528 86.0197 12.196 86.2552C12.0996 86.4794 11.9764 86.691 11.829 86.8854C11.7672 86.9672 11.7338 87.0669 11.7338 87.1694C11.7338 87.2719 11.7672 87.3716 11.829 87.4533C11.9536 87.6195 12.1441 87.7442 12.2895 87.9208C12.3654 88.0047 12.4181 88.107 12.4423 88.2175C12.4666 88.328 12.4617 88.443 12.428 88.551C12.3691 88.7231 12.2825 88.8845 12.1718 89.0288C12.0126 89.2144 11.9093 89.4414 11.874 89.6833C11.8775 89.8634 11.9467 89.9465 11.9294 89.9569Z" fill="#FF9A6C"/>
<path d="M13.5919 89.9569C13.5919 89.9569 13.4915 89.8911 13.4742 89.6937C13.4811 89.4303 13.5735 89.1763 13.7373 88.97C13.8326 88.8332 13.9061 88.6825 13.9555 88.5233C13.9793 88.4387 13.9803 88.3493 13.9584 88.2641C13.9365 88.179 13.8925 88.1012 13.8308 88.0385C13.7062 87.8862 13.5123 87.7684 13.3564 87.5676C13.2722 87.4595 13.2249 87.3272 13.2214 87.1901C13.2267 87.0535 13.2686 86.9208 13.3426 86.8058C13.4781 86.6209 13.5941 86.4225 13.6889 86.2137C13.714 86.1172 13.7197 86.0166 13.7054 85.9179C13.6911 85.8192 13.6572 85.7243 13.6058 85.6389C13.4257 85.2926 13.1383 84.9879 13.076 84.6416C13.043 84.5077 13.0535 84.3668 13.1057 84.2393C13.158 84.1117 13.2494 84.004 13.3668 83.9317C13.5469 83.8417 13.6612 83.911 13.6508 83.9144C13.5636 83.9208 13.4793 83.9482 13.4049 83.9941C13.3118 84.0644 13.2421 84.1612 13.2051 84.2718C13.168 84.3824 13.1652 84.5017 13.1972 84.6139C13.3477 84.9496 13.5346 85.2678 13.7547 85.5627C13.878 85.7712 13.9153 86.0197 13.8585 86.2552C13.762 86.4786 13.64 86.6901 13.495 86.8854C13.4326 86.967 13.3988 87.0667 13.3988 87.1694C13.3988 87.272 13.4326 87.3718 13.495 87.4533C13.6196 87.6195 13.8101 87.7442 13.9555 87.9208C14.0311 88.0049 14.0838 88.107 14.1087 88.2174C14.1335 88.3277 14.1297 88.4426 14.0975 88.551C14.0374 88.7233 13.9497 88.8847 13.8378 89.0288C13.6786 89.2144 13.5753 89.4414 13.54 89.6833C13.5426 89.7767 13.5601 89.869 13.5919 89.9569Z" fill="#FF9A6C"/>
<path d="M24.4265 21.2568L13.6748 21.4161L13.9899 24.3421C13.9899 24.3421 16.2233 26.2535 16.4484 26.3332C16.6735 26.4128 21.8641 27.3096 21.8641 27.3096C21.8641 27.3096 27.5568 24.865 27.4806 24.8857C27.4044 24.9065 24.4265 21.2568 24.4265 21.2568Z" fill="#FFBF9D"/>
<path d="M34.444 53.7612C33.5714 49.5264 32.9724 43.7956 32.9724 43.7956L32.4564 29.0826L27.5844 22.2888L27.1273 21.3261L24.281 21.056H24.3918C24.3918 21.0768 24.1737 21.1634 24.184 21.3123C23.8828 22.0048 23.5365 24.1828 20.7594 24.7542C17.5564 25.4121 15.7108 23.1787 14.8486 22.2403C14.6408 21.8455 14.2842 21.3157 14.2842 21.3157C14.1768 21.3469 12.2066 21.662 12.2066 21.662L7.91282 28.4316L9.05205 38.7366C9.05205 38.7366 5.72093 48.2382 5.24308 51.784C4.68558 55.8804 4.34277 80.0743 4.34277 80.0743L34.8388 79.4649C34.8388 79.4649 35.3166 57.9961 34.444 53.7612Z" fill="#9DB9F6"/>
<path d="M9.32213 39.5122C9.32517 39.5479 9.32517 39.5838 9.32213 39.6195L9.29789 39.9243C9.27365 40.2082 9.23903 40.5995 9.19055 41.1016C9.10052 42.1404 8.96894 43.6086 8.80619 45.4265C8.49109 49.0797 8.11364 54.1317 7.72582 59.7136C7.338 65.2955 7.06099 70.3545 6.88785 74.018C6.80475 75.8394 6.73896 77.318 6.69394 78.3533C6.67317 78.8554 6.65586 79.2502 6.64201 79.5341C6.64201 79.6622 6.642 79.7626 6.62469 79.8423C6.62886 79.8768 6.62886 79.9117 6.62469 79.9462C6.61957 79.9106 6.61957 79.8744 6.62469 79.8388V79.5341C6.62469 79.2502 6.62469 78.8416 6.62469 78.3533C6.64892 77.3145 6.69047 75.8429 6.76319 74.0111C6.90516 70.3441 7.17872 65.2851 7.54923 59.6998C7.91974 54.1144 8.3318 49.0658 8.68153 45.4161C8.85467 43.5878 9.01049 42.1127 9.12476 41.0947C9.18708 40.596 9.2321 40.2013 9.26673 39.9208C9.28404 39.7961 9.29789 39.6957 9.30828 39.6161C9.30853 39.581 9.31319 39.5461 9.32213 39.5122Z" fill="#263238"/>
<path d="M34.967 78.6788H4.33594V80.0674H34.967V78.6788Z" fill="#E0E0E0"/>
<g opacity="0.3">
<path d="M16.303 49.4051C17.2483 50.8145 18.9658 51.5416 20.6556 51.7217C22.3999 51.8675 24.1553 51.6397 25.8046 51.0534L25.8531 51.0361C28.6856 50.0712 31.1202 48.1978 32.7785 45.707L32.9863 45.4023L33.2667 44.3877L16.303 49.4051Z" fill="black"/>
</g>
<path d="M17.5947 44.9278C17.6639 44.907 19.8385 43.8059 20.3822 43.754C20.9258 43.702 25.133 43.6362 25.133 43.6362L26.1233 47.7395C26.1233 47.7395 22.5671 49.322 22.0235 49.4397C21.4798 49.5575 19.1564 50.3158 18.772 50.3054C18.3876 50.295 17.3211 49.8968 17.328 49.6475C17.324 49.58 17.3375 49.5127 17.3673 49.452C17.397 49.3913 17.4419 49.3394 17.4977 49.3012C17.9862 49.3342 18.4767 49.3203 18.9624 49.2597C19.2198 49.1783 19.4719 49.0811 19.7173 48.9688C19.7173 48.9688 15.8529 49.4224 15.5828 49.3151C14.9838 49.1419 15.1431 48.6814 15.1431 48.6814C15.1431 48.6814 14.7033 48.3351 14.6687 48.0581C14.6341 47.7811 14.7968 47.6357 15.0461 47.5318C15.2954 47.4279 16.9887 46.7388 17.4873 46.6176C17.986 46.4964 19.2983 46.3164 19.2983 46.3164C19.2983 46.3164 15.3231 46.6176 15.0808 46.4964C14.8384 46.3752 14.5821 45.9389 14.9942 45.7035C15.4973 45.4052 16.0441 45.1879 16.6147 45.0594L17.5947 44.9278Z" fill="#FFBF9D"/>
<path d="M20.337 47.4418C20.0952 47.5563 19.8437 47.649 19.5855 47.7188C19.1112 47.8677 18.4532 48.0651 17.7122 48.2139C16.9712 48.3628 16.296 48.4806 15.8043 48.5602C15.5401 48.6052 15.2723 48.6249 15.0044 48.6191C15.2619 48.5467 15.5247 48.4946 15.7904 48.4633C16.2787 48.3802 16.947 48.259 17.6845 48.0962C18.4221 47.9335 19.0696 47.7707 19.5578 47.6426C19.8118 47.5549 20.0723 47.4878 20.337 47.4418Z" fill="#FF9A6C"/>
<path d="M20.0633 44.3981C19.2741 44.6385 18.4616 44.7941 17.6394 44.8621C18.4284 44.6208 19.241 44.4652 20.0633 44.3981Z" fill="#FF9A6C"/>
<path d="M25.1641 45.2637C25.1641 45.2637 25.1017 45.2637 25.0013 45.281C24.8598 45.3091 24.7232 45.3581 24.5962 45.4264C24.3986 45.546 24.1726 45.6106 23.9417 45.6134C23.6751 45.5892 23.4154 45.4334 23.2042 45.6134C23.0976 45.7072 22.9816 45.7896 22.8579 45.8593C22.7245 45.9117 22.5781 45.9213 22.4389 45.887C22.1827 45.8281 21.9853 45.7208 21.8087 45.7035C21.7403 45.6929 21.6705 45.6961 21.6033 45.7127C21.5362 45.7294 21.473 45.7592 21.4174 45.8004C21.3412 45.8662 21.3239 45.9251 21.3135 45.9181C21.3031 45.9112 21.3135 45.8524 21.3793 45.7623C21.4362 45.706 21.5048 45.6629 21.5802 45.636C21.6556 45.609 21.7359 45.599 21.8156 45.6065C22.0347 45.6439 22.251 45.696 22.4632 45.7623C22.5785 45.788 22.6988 45.7796 22.8094 45.7381C22.9252 45.6673 23.0352 45.5874 23.1384 45.4992C23.2032 45.4521 23.2777 45.4202 23.3565 45.4057C23.4334 45.3935 23.5117 45.3935 23.5885 45.4057C23.727 45.4334 23.8482 45.4784 23.9625 45.4922C24.1733 45.4902 24.3807 45.4392 24.5685 45.3433C24.7065 45.2782 24.8558 45.2405 25.0082 45.2325C25.062 45.2284 25.116 45.2392 25.1641 45.2637Z" fill="#FF9A6C"/>
<path d="M25.1849 46.0983C25.0706 46.2444 24.909 46.346 24.7278 46.3857C24.5363 46.4453 24.3333 46.4584 24.1357 46.4238C24.0313 46.3993 23.9243 46.3877 23.8171 46.3891C23.7655 46.3968 23.7162 46.416 23.673 46.4454C23.6299 46.4748 23.5939 46.5135 23.5678 46.5588C23.4915 46.6735 23.3756 46.7561 23.2423 46.7908C23.1223 46.815 22.9987 46.815 22.8787 46.7908C22.6983 46.7366 22.5125 46.7018 22.3247 46.6869C22.2046 46.687 22.0887 46.7314 21.9992 46.8116C21.9369 46.8704 21.923 46.9224 21.9126 46.9189C21.9022 46.9155 21.9126 46.8566 21.9577 46.777C21.9998 46.7241 22.0522 46.6803 22.1117 46.6481C22.1712 46.616 22.2366 46.5962 22.3039 46.59C22.4992 46.5898 22.6936 46.6154 22.8822 46.6661C22.9846 46.6951 23.0935 46.6917 23.194 46.6564C23.2944 46.6211 23.3814 46.5555 23.4432 46.4688C23.485 46.4153 23.5326 46.3665 23.5851 46.3233C23.6491 46.2816 23.7235 46.2588 23.7998 46.2575C23.917 46.2566 24.0337 46.2729 24.1461 46.306C24.3264 46.3447 24.5129 46.3447 24.6932 46.306C24.8627 46.251 25.0272 46.1815 25.1849 46.0983Z" fill="#FF9A6C"/>
<path d="M27.0271 22.2437C27.0271 22.2437 31.2066 21.8628 33.4089 27.327C34.929 31.1083 37.6645 38.8578 36.9166 41.7526C36.224 44.3704 25.8359 47.8747 25.8359 47.8747L24.7971 43.6432L30.8153 38.6396L28.3741 29.6366L27.0271 22.2437Z" fill="#FFBF9D"/>
<path d="M26.1856 21.2568C26.1856 21.2568 30.4585 21.1113 32.3665 24.5152C34.2744 27.919 36.7676 35.4746 36.7676 35.4746L30.043 37.206C30.043 37.206 25.822 26.1738 26.0228 26.0526C26.2237 25.9314 26.1856 21.2568 26.1856 21.2568Z" fill="#9DB9F6"/>
<path d="M12.2101 21.6724C12.2101 21.6724 7.17878 22.8047 5.10116 26.811C3.50832 29.8686 0.0698533 39.0898 0.000599311 40.9284C-0.0686547 42.7671 5.88719 48.626 5.88719 48.626L8.65735 46.5103L6.97795 40.3329L10.129 33.0162L12.2101 21.6724Z" fill="#FFBF9D"/>
<path d="M9.60252 106.024C9.51645 106.024 9.43115 106.008 9.35154 105.975C9.27193 105.942 9.1996 105.894 9.13873 105.833C9.07787 105.772 9.02968 105.7 8.99695 105.62C8.96423 105.541 8.94761 105.455 8.94807 105.369C8.94807 104.839 9.02772 52.4488 9.00694 51.6039C9.01423 51.0984 8.91074 50.5975 8.70376 50.1363C8.49678 49.6751 8.19133 49.2648 7.80885 48.9342C7.66742 48.8332 7.57192 48.6801 7.54334 48.5087C7.51477 48.3372 7.55547 48.1615 7.65649 48.02C7.75751 47.8786 7.91058 47.7831 8.08201 47.7545C8.25345 47.726 8.42921 47.7666 8.57064 47.8677C9.11544 48.3171 9.55344 48.8821 9.8529 49.5217C10.1523 50.1613 10.3057 50.8596 10.302 51.5658C10.3262 52.4315 10.2466 103.209 10.2431 105.369C10.2432 105.54 10.1761 105.705 10.0564 105.827C9.93661 105.95 9.77368 106.02 9.60252 106.024Z" fill="#AE7461"/>
<path d="M5.89072 55.4995C5.80436 55.4999 5.71876 55.4832 5.63893 55.4503C5.55909 55.4173 5.48661 55.3688 5.4257 55.3076C5.36479 55.2464 5.31667 55.1736 5.28415 55.0936C5.25163 55.0136 5.23536 54.9279 5.23628 54.8416C5.23628 52.8955 5.23628 49.9349 5.23628 49.7618C5.22969 49.6763 5.24023 49.5904 5.26726 49.5091C5.2943 49.4278 5.33729 49.3527 5.39372 49.2882C5.45016 49.2237 5.5189 49.1711 5.59592 49.1335C5.67293 49.0959 5.75669 49.0741 5.84225 49.0692C6.01499 49.0625 6.18364 49.1229 6.31277 49.2378C6.44191 49.3527 6.52149 49.5132 6.53479 49.6856C6.53479 49.7168 6.53479 49.8103 6.53479 54.8416C6.53573 55.014 6.4686 55.1797 6.348 55.3029C6.22741 55.4261 6.06309 55.4967 5.89072 55.4995Z" fill="#AE7461"/>
<path d="M6.90176 46.1813C6.90176 46.1813 5.94951 47.0124 5.63441 47.2929C5.38856 47.5041 5.10115 48.9931 4.9765 49.6821C4.95803 49.7913 4.96601 49.9033 4.99974 50.0087C5.03348 50.1141 5.09201 50.2099 5.17041 50.2881C5.59632 50.7175 6.46546 51.5347 6.90176 51.5797C7.28953 51.5968 7.67053 51.4739 7.97519 51.2334C7.97519 51.2334 8.57077 51.5797 8.92743 51.2715C9.28409 50.9633 8.43227 49.0484 8.43227 49.0484C8.43227 49.0484 8.086 48.1412 8.99669 48.2001L9.40528 48.8718L10.2052 50.5374C10.2052 50.5374 10.9739 50.4578 11.0708 50.16C11.1678 49.8622 10.8146 48.8718 10.8146 48.8718C10.9251 48.6997 10.998 48.5061 11.0284 48.3038C11.0589 48.1015 11.0462 47.8951 10.9912 47.698C10.7731 47.1232 10.4164 46.0705 9.36373 45.8316C8.31107 45.5927 6.90176 46.1813 6.90176 46.1813Z" fill="#FFBF9D"/>
<path d="M7.91626 51.0014C7.89894 51.0014 7.7362 50.804 7.44187 50.4993C7.05968 50.0996 6.63467 49.7431 6.17452 49.4363C6.0357 49.3469 5.91763 49.2288 5.82825 49.09C5.74996 48.9475 5.7219 48.7829 5.7486 48.6225C5.79965 48.3647 5.91928 48.1255 6.09487 47.93C6.23338 47.7638 6.34765 47.6357 6.42037 47.5422C6.49308 47.4487 6.53118 47.3967 6.54156 47.4002C6.45553 47.6168 6.3312 47.8162 6.17452 47.9889C6.02117 48.1764 5.91968 48.4008 5.88019 48.6398C5.85933 48.7725 5.88502 48.9083 5.9529 49.0242C6.03367 49.1508 6.13978 49.2592 6.26454 49.3428C6.73339 49.6514 7.15752 50.0231 7.52497 50.4474C7.68164 50.612 7.81346 50.7987 7.91626 51.0014Z" fill="#FF9A6C"/>
<path d="M9.67544 47.878C9.70661 47.9022 9.55079 48.0996 9.48153 48.387C9.41228 48.6744 9.4573 48.9203 9.41921 48.9306C9.36283 48.8472 9.32714 48.7516 9.3151 48.6516C9.30305 48.5517 9.315 48.4503 9.34995 48.3558C9.42959 48.0269 9.65467 47.8468 9.67544 47.878Z" fill="#FF9A6C"/>
<path d="M10.9531 106.502H8.49463L8.95171 104.545H10.406L10.9531 106.502Z" fill="#455A64"/>
<path d="M0.869629 36.0945L7.91623 39.8584L11.0638 32.7183L12.3796 21.6377C12.3796 21.6377 7.92661 22.1052 5.45424 26.1981C2.98187 30.291 0.869629 36.0945 0.869629 36.0945Z" fill="#9DB9F6"/>
<path d="M30.2854 38.927C31.0299 35.4643 30.043 31.7038 28.2078 28.6774L30.2854 38.927Z" fill="#9DB9F6"/>
<path d="M28.1938 28.6774C28.2822 28.7858 28.361 28.9016 28.4293 29.0236C28.5747 29.2522 28.7756 29.595 28.9903 30.0278C29.2488 30.5357 29.48 31.057 29.6828 31.5895C29.9255 32.2442 30.1256 32.9139 30.2819 33.5944C30.4286 34.2792 30.5269 34.9734 30.5762 35.672C30.6102 36.2408 30.6033 36.8113 30.5554 37.3791C30.5416 37.5973 30.5162 37.8146 30.4792 38.0301C30.4601 38.1942 30.4324 38.3572 30.3961 38.5184C30.374 38.6574 30.3392 38.7942 30.2922 38.927C30.2972 38.7874 30.3134 38.6484 30.3407 38.5114C30.3701 38.3499 30.3909 38.1869 30.4031 38.0232C30.4238 37.8293 30.4515 37.6146 30.4585 37.3722C30.4962 36.8084 30.4962 36.2427 30.4585 35.679C30.4045 34.9896 30.3039 34.3047 30.1572 33.629C30.0049 32.9539 29.8106 32.2889 29.5755 31.638C29.3538 31.0389 29.1288 30.5091 28.921 30.0728C28.7133 29.6365 28.5332 29.2903 28.4016 29.0548C28.322 28.935 28.2525 28.8087 28.1938 28.6774Z" fill="#263238"/>
<path d="M29.0597 30.2806C29.0135 29.816 29.051 29.3469 29.1705 28.8955C29.2393 28.4403 29.3553 27.9935 29.5168 27.5624C29.4826 28.0218 29.4072 28.4772 29.2917 28.9232C29.1463 29.6712 29.0978 30.2806 29.0597 30.2806Z" fill="#263238"/>
<path d="M8.02034 29.2903C8.06564 29.4014 8.09705 29.5177 8.11384 29.6366C8.16232 29.872 8.22464 30.2114 8.29389 30.6303C8.4324 31.4752 8.58822 32.6422 8.72327 33.9372C8.85831 35.2323 8.94834 36.4096 9.00374 37.2614C9.02798 37.6873 9.04877 38.0301 9.05569 38.2691C9.07229 38.392 9.07229 38.5166 9.05569 38.6396C9.02137 38.527 9.00044 38.4108 8.99336 38.2933C8.96219 38.0163 8.92411 37.6804 8.88256 37.2891C8.79253 36.3957 8.67826 35.2461 8.53629 33.9753C8.39432 32.7045 8.26619 31.5133 8.15884 30.6684C8.11037 30.2772 8.07229 29.9413 8.03766 29.6643C8.01473 29.541 8.0089 29.4151 8.02034 29.2903Z" fill="#263238"/>
<path d="M25.5933 21.146C25.375 22.0001 24.9728 22.7962 24.4147 23.4786C23.8567 24.161 23.1563 24.7133 22.3626 25.0969C21.5278 25.5065 20.6162 25.736 19.687 25.7706C18.7577 25.8052 17.8316 25.644 16.9687 25.2976C16.1057 24.9512 15.3252 24.4272 14.6778 23.7597C14.0304 23.0922 13.5306 22.2961 13.2107 21.423L14.4365 21.2568C14.4365 21.2568 15.8216 24.8372 19.6513 24.7195C23.4811 24.6017 24.2775 21.0629 24.2775 21.0629L25.5933 21.146Z" fill="#E0E0E0"/>
<path d="M13.6749 21.9147C13.6371 21.8727 13.6045 21.8262 13.578 21.7762C13.4946 21.6381 13.4228 21.4933 13.3633 21.3434C13.1453 20.7843 13.0703 20.1797 13.1452 19.5843C13.1896 19.1722 13.3068 18.7712 13.4914 18.4001C13.5397 18.2878 13.6118 18.1874 13.7026 18.1057C13.756 18.0572 13.822 18.0247 13.8931 18.0122C13.9342 18.0074 13.9759 18.012 14.0149 18.0258C14.0539 18.0397 14.0893 18.0623 14.1182 18.0919C14.1988 18.2007 14.2457 18.3307 14.2532 18.4659C14.2705 18.5871 14.2878 18.7082 14.2982 18.8364C14.3386 19.3605 14.2883 19.8876 14.1493 20.3946C14.0906 20.6803 13.9498 20.9426 13.7442 21.1495C13.6243 21.2565 13.4718 21.32 13.3114 21.3295C13.1574 21.3353 13.0039 21.3081 12.8612 21.2499C12.3362 21.0466 11.8384 20.7791 11.3792 20.4534C11.1532 20.3042 10.9603 20.1101 10.8126 19.8831C10.6649 19.6562 10.5654 19.4012 10.5204 19.1342C10.5073 18.9913 10.5494 18.8487 10.6382 18.736C10.6823 18.6777 10.7412 18.6322 10.8088 18.6042C10.8763 18.5762 10.9501 18.5667 11.0225 18.5767C11.1493 18.6005 11.2682 18.6553 11.3688 18.736C11.4623 18.8017 11.5558 18.8641 11.6423 18.9333C11.9679 19.1839 12.2704 19.4632 12.5461 19.7678C12.947 20.2057 13.2881 20.6948 13.5607 21.2222C13.6345 21.3686 13.7004 21.5188 13.7581 21.6723C13.7996 21.7762 13.8169 21.8281 13.81 21.8316C13.8031 21.8351 13.7026 21.6273 13.4983 21.2672C13.2087 20.7603 12.86 20.2896 12.4595 19.8648C12.1832 19.5725 11.882 19.3049 11.5592 19.0649C11.3983 18.9248 11.2128 18.8156 11.0121 18.7429C10.8286 18.7117 10.6659 18.9229 10.6936 19.1342C10.7417 19.3757 10.8372 19.6052 10.9745 19.8097C11.1117 20.0141 11.2881 20.1894 11.4934 20.3253C11.9415 20.6347 12.4237 20.8915 12.9305 21.0906C13.0406 21.145 13.1638 21.1677 13.2861 21.1561C13.4084 21.1445 13.5251 21.099 13.623 21.0248C13.7996 20.8409 13.9198 20.6101 13.9693 20.36C14.1025 19.8708 14.154 19.3631 14.1216 18.8571C14.1216 18.7359 14.0974 18.6182 14.0835 18.5109C14.0807 18.4091 14.0508 18.3099 13.997 18.2235C13.945 18.1681 13.8689 18.1819 13.7927 18.2442C13.7164 18.3122 13.6561 18.3961 13.6161 18.4901C13.4332 18.8435 13.3159 19.2271 13.2698 19.6224C13.1842 20.2037 13.2376 20.7971 13.4256 21.3538C13.5676 21.7069 13.6923 21.9043 13.6749 21.9147Z" fill="#E0E0E0"/>
<g opacity="0.3">
<path d="M8.14827 30.2183L8.08594 29.5084C7.16486 32.102 7.49728 35.5404 9.02087 37.8189C9.06086 35.2582 8.76752 32.7033 8.14827 30.2183Z" fill="black"/>
</g>
<path d="M26.9645 30.7446H26.0815V32.9088H26.9645V30.7446Z" fill="white"/>
<path d="M25.4409 31.3852V32.2682H27.6051V31.3852H25.4409Z" fill="white"/>
<path d="M28.1141 33.3624H24.783V34.3355H28.1141V33.3624Z" fill="white"/>
<path d="M21.5837 76.802C21.5559 76.7511 21.5361 76.6962 21.5249 76.6392C21.4868 76.5077 21.4418 76.3518 21.3898 76.1614C21.2721 75.7424 21.1267 75.1226 20.9604 74.3816C20.5386 72.4147 20.2414 70.4231 20.0705 68.4188C19.9038 66.4126 19.8657 64.3978 19.9563 62.3868C19.9909 61.6146 20.0359 61.0017 20.0809 60.5619C20.1017 60.3646 20.1225 60.2157 20.1363 60.0668C20.1382 60.009 20.1487 59.9518 20.1675 59.8971C20.1759 59.9545 20.1759 60.0128 20.1675 60.0702C20.1675 60.2053 20.1675 60.368 20.1467 60.5654C20.1259 60.9982 20.0982 61.6215 20.0775 62.3902C19.9678 66.4053 20.3046 70.4201 21.0816 74.3608C21.2305 75.1157 21.3587 75.7251 21.4556 76.1475C21.4937 76.3415 21.5283 76.4938 21.556 76.6323C21.5729 76.6874 21.5823 76.7444 21.5837 76.802Z" fill="#263238"/>
<path d="M22.8753 60.5031C22.8936 60.5542 22.903 60.608 22.903 60.6623C22.903 60.7905 22.9307 60.9428 22.9515 61.1263C22.9861 61.528 23.0276 62.1132 23.0727 62.8369C23.1558 64.2809 23.225 66.2788 23.2181 68.4846C23.2112 70.6903 23.1177 72.6918 23.0173 74.1357C22.9688 74.8559 22.9203 75.4411 22.8788 75.8428C22.8788 76.0263 22.8441 76.1891 22.8303 76.3068C22.8283 76.3612 22.8178 76.415 22.7991 76.4661C22.7916 76.4121 22.7916 76.3573 22.7991 76.3033C22.7991 76.1752 22.7991 76.0229 22.8164 75.8393C22.8372 75.4065 22.8649 74.8282 22.8961 74.1288C22.9619 72.6848 23.0311 70.6903 23.045 68.4846C23.0588 66.2788 23.0034 64.2843 22.9515 62.8404C22.9238 62.1478 22.903 61.5626 22.8857 61.1298V60.6658C22.8747 60.6123 22.8712 60.5575 22.8753 60.5031Z" fill="#263238"/>
<path d="M0.793395 36.0565L1.25394 35.0869L8.35593 38.8613L7.91617 39.8585C7.89886 39.8551 0.436737 35.8695 0.793395 36.0565Z" fill="#E0E0E0"/>
<path d="M7.52501 28.5562C7.25421 28.0891 7.02257 27.6003 6.83247 27.0949C6.58472 26.6132 6.3774 26.1117 6.21265 25.5956C6.53863 26.0317 6.80312 26.5106 6.99869 27.0188C7.24263 27.5052 7.41968 28.0223 7.52501 28.5562Z" fill="#263238"/>
<path d="M36.7674 35.4746L36.3519 34.2557L30.5691 35.672L30.4514 37.3722L36.7674 35.4746Z" fill="#E0E0E0"/>
<path d="M75.4661 92.4244L75.6121 92.1737L73.3257 92.6668L75.4661 106.691H76.7332L75.4661 92.4244Z" fill="#6F4439"/>
<path d="M60.3319 79.0613C59.9421 79.1503 59.5958 79.3728 59.3528 79.6903C59.1099 80.0077 58.9855 80.4001 59.0013 80.7995C59.073 82.6231 59.3016 85.8158 60.0261 87.6863C61.0811 90.4134 61.3456 91.4712 63.3675 91.3831C65.3895 91.2949 93.895 91.3831 93.895 91.3831C93.895 91.3831 96.4458 91.4712 97.5009 87.7744C98.5559 84.0776 100.93 69.7422 99.611 67.1914C98.2915 64.6405 92.6609 63.8472 90.1982 64.0235C87.7355 64.1998 83.1655 63.4891 77.1851 70.9653L71.2845 77.684C67.5968 77.7762 63.9276 78.2376 60.3319 79.0613Z" fill="#9DB9F6"/>
<g opacity="0.3">
<path d="M80.0612 67.8663L74.3645 83.8187H63.8085C63.8085 83.8187 62.9821 78.4581 61.4395 78.8438C61.4395 78.8438 69.1746 77.5546 71.2847 77.6951L80.0612 67.8663Z" fill="black"/>
</g>
<g opacity="0.3">
<path d="M83.6008 91.5071C83.6008 91.5071 84.744 90.0058 85.2729 87.2787C85.8018 84.5515 87.1213 78.7391 84.4465 78.8328C84.4465 78.8328 92.2313 79.0779 93.8125 77.8135C95.3937 76.5491 99.837 67.9821 99.837 67.9821C99.837 67.9821 100.261 71.205 99.6001 75.9707C98.9389 80.7363 98.0106 86.4082 97.3963 88.0913C96.9335 89.3667 96.1457 91.1931 93.9034 91.3969C91.5206 91.587 83.6008 91.5071 83.6008 91.5071Z" fill="black"/>
</g>
<path d="M63.7144 91.3555C63.7144 91.3555 64.2377 92.9587 67.5709 92.9587H90.2282C90.2282 92.9587 93.1014 92.8954 93.9085 91.35L63.7144 91.3555Z" fill="#AE7461"/>
<path d="M85.2728 87.2786C85.2699 87.2511 85.2699 87.2234 85.2728 87.196C85.2893 87.1326 85.3059 87.0555 85.3307 86.9563L85.5373 86.0335C85.7906 84.9025 85.96 83.7543 86.0441 82.5984C86.1118 81.8041 86.057 81.0042 85.8816 80.2266C85.7889 79.8011 85.5549 79.4195 85.2177 79.144C84.8651 78.8685 84.3665 78.8685 83.9037 78.9539C83.4223 79.0436 82.973 79.2583 82.6008 79.5765C82.2116 79.9106 81.8843 80.3106 81.6339 80.7582C81.1091 81.7116 80.7619 82.7523 80.6091 83.8297V83.8958H80.3116L68.6565 83.8738L65.1195 83.849L64.1554 83.8352H63.9074C63.9054 83.846 63.8994 83.8556 63.8906 83.8622C63.8818 83.8688 63.8709 83.8719 63.86 83.8709C63.8491 83.8698 63.8389 83.8647 63.8316 83.8566C63.8242 83.8485 63.8201 83.8379 63.8201 83.827C63.8201 83.816 63.8242 83.8054 63.8316 83.7973C63.8389 83.7892 63.8491 83.7841 63.86 83.7831C63.8709 83.7821 63.8818 83.7851 63.8906 83.7917C63.8994 83.7983 63.9054 83.8079 63.9074 83.8187H64.1554L65.1195 83.8022L68.6565 83.7774L80.3281 83.7554H80.5595L80.4824 83.8242C80.6384 82.7258 80.9941 81.6652 81.5319 80.6949C81.7917 80.233 82.1312 79.8208 82.5347 79.4773C82.9285 79.143 83.4036 78.9188 83.912 78.8272C84.0331 78.8053 84.1555 78.7915 84.2784 78.7859H84.4629L84.6475 78.8024C84.7704 78.814 84.8915 78.8399 85.0084 78.8795C85.0662 78.9016 85.1213 78.9346 85.1764 78.9594C85.2324 78.9836 85.2844 79.0161 85.3307 79.0559C85.692 79.3504 85.9418 79.7596 86.0386 80.2156C86.2126 81.0074 86.2618 81.8216 86.1846 82.6287C86.092 83.7883 85.9078 84.9387 85.6337 86.0693C85.5373 86.4687 85.4546 86.7772 85.3968 86.9866L85.3252 87.2207C85.3105 87.2424 85.2929 87.2619 85.2728 87.2786Z" fill="#263238"/>
<path d="M65.574 92.1737L65.72 92.4244L64.4556 106.691H65.72L67.8631 92.6668L65.574 92.1737Z" fill="#AE7461"/>
<path d="M81.6421 92.4244L81.7881 92.1737L79.5017 92.6668L81.6421 106.691H82.9093L81.6421 92.4244Z" fill="#AE7461"/>
<path d="M90.4185 92.4244L90.5646 92.1737L88.2754 92.6668L91.683 106.691H92.9501L90.4185 92.4244Z" fill="#AE7461"/>
<path d="M94.2117 91.3914C94.2117 91.43 87.0743 91.463 78.2758 91.463C69.4773 91.463 62.3372 91.43 62.3372 91.3914C62.3372 91.3528 69.4718 91.317 78.2758 91.317C87.0798 91.317 94.2117 91.3501 94.2117 91.3914Z" fill="#263238"/>
<path d="M79.3999 92.9587C79.3999 93 76.794 93.0303 73.5847 93.0303C70.3755 93.0303 67.7668 93 67.7668 92.9587C67.7668 92.9174 70.37 92.8871 73.5847 92.8871C76.7995 92.8871 79.3999 92.9201 79.3999 92.9587Z" fill="#263238"/>
<path d="M88.3195 92.9587C88.3195 93 86.8402 93.0303 85.0139 93.0303C83.1875 93.0303 81.7083 93 81.7083 92.9587C81.7083 92.9174 83.1848 92.8871 85.0139 92.8871C86.843 92.8871 88.3195 92.9201 88.3195 92.9587Z" fill="#263238"/>
<path d="M127.791 59.1323C125.302 60.4171 123.408 62.6288 122.039 65.0646C120.67 67.5003 119.79 70.1724 118.928 72.8259L118.163 86.5133C121.05 81.6045 123.367 75.8309 123.993 70.1724L122.07 70.0013C123.358 69.8023 124.441 68.869 125.128 67.7647C125.816 66.6604 126.17 65.3819 126.516 64.1251L124.158 64.4704C126.009 63.2237 127.31 61.3123 127.791 59.1323Z" fill="#455A64"/>
<g opacity="0.3">
<path d="M127.791 59.1323C125.302 60.4171 123.408 62.6288 122.039 65.0646C120.67 67.5003 119.79 70.1724 118.928 72.8259L118.163 86.5133C121.05 81.6045 123.367 75.8309 123.993 70.1724L122.07 70.0013C123.358 69.8023 124.441 68.869 125.128 67.7647C125.816 66.6604 126.17 65.3819 126.516 64.1251L124.158 64.4704C126.009 63.2237 127.31 61.3123 127.791 59.1323Z" fill="black"/>
</g>
<path d="M117.728 89.7174C117.728 89.7174 111.462 82.2173 111.534 75.0625H114.066C114.066 75.0625 111.316 73.2552 111.534 72.2411C111.752 71.227 111.823 67.3976 111.823 67.3976L114.138 67.9762C114.138 67.9762 112.402 67.1083 112.187 65.7365C111.973 64.3646 112.691 58 112.691 58C112.691 58 115.513 60.9646 116.381 64.0007C117.248 67.0368 119.526 70.5799 118.869 79.8314C118.213 89.0828 117.728 89.7174 117.728 89.7174Z" fill="#455A64"/>
<path d="M120.904 90.4234C120.904 90.4234 127.689 85.9035 129.197 80.133L127.163 79.5762C127.163 79.5762 129.767 78.7238 129.813 77.8621C129.86 77.0004 130.641 73.9052 130.641 73.9052L128.656 73.8648C128.656 73.8648 130.239 73.5537 130.715 72.4898C131.191 71.426 132 66.1594 132 66.1594C132 66.1594 129.085 67.9263 127.723 70.1754C126.36 72.4245 123.757 74.7794 122.27 82.3634C120.783 89.9475 120.904 90.4234 120.904 90.4234Z" fill="#455A64"/>
<path d="M114.402 64.5356C114.415 64.5599 114.424 64.5862 114.427 64.6134C114.427 64.6756 114.461 64.7503 114.486 64.8436C114.533 65.0583 114.601 65.3569 114.689 65.7333C114.863 66.5048 115.096 67.6277 115.36 69.0183C115.895 71.7993 116.527 75.6629 117.025 79.9526C117.522 84.2424 117.787 88.1526 117.899 90.9834C117.958 92.3988 117.989 93.5436 117.995 94.3337C117.995 94.7194 117.995 95.0243 117.995 95.2451V95.4847C117.999 95.5115 117.999 95.5387 117.995 95.5655C117.993 95.5386 117.993 95.5116 117.995 95.4847C117.995 95.4225 117.995 95.3447 117.995 95.2483C117.995 95.0274 117.974 94.7225 117.958 94.3368C117.933 93.5467 117.886 92.4019 117.815 90.9896C117.672 88.1619 117.386 84.261 116.882 79.9713C116.378 75.6815 115.771 71.8211 115.267 69.0369C115.015 67.6464 114.801 66.5203 114.645 65.7457C114.57 65.3662 114.514 65.0676 114.471 64.8498C114.455 64.7565 114.443 64.6787 114.43 64.6165C114.417 64.5912 114.407 64.5639 114.402 64.5356Z" fill="#263238"/>
<path d="M116.86 94.3057C116.86 94.3057 111.127 87.8042 109.347 83.8722L110.691 83.2967C109.714 83.4584 108.719 83.0385 107.963 82.4039C107.234 81.7326 106.605 80.9594 106.097 80.1081L107.867 79.7971C106.241 79.3317 104.857 78.2591 104 76.8014C106.087 77.1436 107.979 78.2915 109.534 79.7255C110.776 80.9159 111.904 82.2198 112.903 83.6202C113.404 84.2928 113.839 85.0115 114.203 85.7666C115.168 87.7575 116.863 91.9197 116.86 94.3057Z" fill="#455A64"/>
<path d="M129.288 69.9485C129.283 69.9715 129.275 69.9935 129.263 70.0138C129.241 70.0667 129.213 70.1289 129.176 70.2067L128.824 70.9284C128.513 71.5505 128.087 72.4651 127.561 73.5912C126.513 75.8465 125.125 78.9946 123.754 82.5346C122.382 86.0747 121.296 89.3379 120.556 91.7114C120.186 92.8997 119.893 93.864 119.7 94.5328C119.601 94.8439 119.526 95.1114 119.467 95.3012L119.405 95.4972C119.399 95.5214 119.39 95.5445 119.377 95.5656C119.377 95.5656 119.377 95.5407 119.377 95.4941L119.423 95.2919C119.473 95.099 119.542 94.8408 119.626 94.5142C119.803 93.8423 120.077 92.8717 120.434 91.6803C121.147 89.2943 122.22 86.0218 123.592 82.4755C124.964 78.9292 126.367 75.7874 127.446 73.5414C127.984 72.4215 128.435 71.5194 128.756 70.9003L129.129 70.1911C129.169 70.1164 129.204 70.0573 129.229 70.0076C129.253 69.9578 129.284 69.9329 129.288 69.9485Z" fill="#263238"/>
<path d="M117.345 97.093C117.299 96.9419 117.268 96.7866 117.252 96.6295C117.205 96.3184 117.131 95.8984 117.022 95.3665C116.468 92.594 115.464 89.9311 114.048 87.4838C113.774 87.0141 113.547 86.6408 113.385 86.3857C113.294 86.2559 113.214 86.1185 113.146 85.9751C113.254 86.091 113.351 86.2159 113.438 86.3484C113.615 86.5941 113.861 86.9705 114.144 87.4278C114.884 88.6403 115.509 89.9192 116.011 91.2478C116.51 92.576 116.886 93.9475 117.134 95.3447C117.227 95.8829 117.289 96.3184 117.314 96.6232C117.338 96.7787 117.348 96.9358 117.345 97.093Z" fill="#263238"/>
<path d="M124.907 95.5657H112.362V98.1258H124.907V95.5657Z" fill="#9DB9F6"/>
<path d="M113.559 98.1226L114.916 106.733H122.497L123.763 98.1226H113.559Z" fill="#9DB9F6"/>
<path d="M124.139 98.1225C124.139 98.1692 121.766 98.2034 118.851 98.2034C115.936 98.2034 113.562 98.1692 113.562 98.1225C113.562 98.0758 115.936 98.0416 118.851 98.0416C121.766 98.0416 124.139 98.079 124.139 98.1225Z" fill="#263238"/>
</svg>
