<svg width="111" height="122" viewBox="0 0 111 122" fill="none" xmlns="http://www.w3.org/2000/svg">
<path d="M70.8199 29.7064C70.7353 28.0545 70.0332 26.4947 68.8528 25.3361C67.6723 24.1774 66.0997 23.5046 64.4465 23.4508H64.1057C60.4205 23.5476 58.4432 26.7322 58.6368 30.4132L58.7798 42.6805V43.2736L67.2146 45.2467L67.3029 42.1252C67.3029 42.1252 70.8535 41.7045 71.0134 38.1539C71.106 36.4248 70.9756 32.8995 70.8199 29.7064Z" fill="#FFD9B9"/>
<path d="M67.3492 42.0999C65.7066 42.0479 64.1136 41.5252 62.7595 40.5939C62.7595 40.5939 63.765 43.1769 67.303 42.9708L67.3492 42.0999Z" fill="#FFB48A"/>
<path d="M69.7767 33.0677C69.7691 33.199 69.711 33.3223 69.6145 33.4117C69.518 33.5011 69.3907 33.5497 69.2592 33.5473C69.1946 33.5501 69.1302 33.54 69.0696 33.5175C69.009 33.4949 68.9535 33.4605 68.9065 33.4162C68.8594 33.3719 68.8217 33.3186 68.7956 33.2595C68.7695 33.2003 68.7555 33.1366 68.7544 33.0719C68.7577 32.941 68.8117 32.8164 68.9051 32.7246C68.9986 32.6327 69.124 32.5808 69.255 32.5797C69.322 32.5745 69.3894 32.5832 69.4528 32.6054C69.5162 32.6276 69.5743 32.6628 69.6234 32.7087C69.6725 32.7547 69.7115 32.8103 69.7379 32.8721C69.7642 32.9339 69.7775 33.0005 69.7767 33.0677Z" fill="#263238"/>
<path d="M70.0038 31.4144C69.9407 31.4775 69.5831 31.1831 69.0236 31.1662C68.4641 31.1494 68.0728 31.4102 68.0139 31.3387C67.955 31.2672 68.056 31.1915 68.2327 31.0737C68.4722 30.9172 68.7545 30.8392 69.0404 30.8507C69.3226 30.8588 69.595 30.956 69.8187 31.1284C69.9827 31.263 70.0374 31.385 70.0038 31.4144Z" fill="#263238"/>
<path d="M64.9723 33.0004C64.9701 33.1321 64.9165 33.2578 64.823 33.3505C64.7295 33.4433 64.6034 33.4958 64.4717 33.4969C64.3418 33.5014 64.2154 33.4544 64.1201 33.3662C64.0247 33.2779 63.9681 33.1555 63.9626 33.0257C63.9659 32.8936 64.0204 32.768 64.1146 32.6753C64.2088 32.5827 64.3354 32.5303 64.4675 32.5293C64.5317 32.5265 64.5958 32.5365 64.6562 32.5587C64.7165 32.581 64.7718 32.6151 64.8188 32.6589C64.8658 32.7028 64.9035 32.7556 64.9299 32.8142C64.9563 32.8729 64.9707 32.9362 64.9723 33.0004Z" fill="#263238"/>
<path d="M64.6609 31.3429C64.5936 31.406 64.2402 31.1115 63.6765 31.0947C63.1128 31.0779 62.7299 31.3387 62.671 31.2714C62.6121 31.2041 62.7089 31.1242 62.8898 31.0022C63.1299 30.8469 63.4118 30.7691 63.6975 30.7792C63.9804 30.7873 64.2533 30.8861 64.4758 31.0611C64.6315 31.1957 64.6904 31.3135 64.6609 31.3429Z" fill="#263238"/>
<path d="M66.5037 35.4362C66.793 35.3558 67.0912 35.312 67.3914 35.3058C67.5302 35.3058 67.6606 35.2721 67.6901 35.1796C67.7065 35.0345 67.6786 34.8878 67.6101 34.7589C67.4881 34.4181 67.3661 34.0648 67.2315 33.6903C66.878 32.7828 66.5967 31.8488 66.3901 30.897C66.8155 31.7726 67.1687 32.6815 67.4461 33.6146L67.8079 34.6916C67.8868 34.8626 67.9061 35.0552 67.8625 35.2385C67.84 35.2861 67.8071 35.3281 67.7664 35.3616C67.7257 35.3951 67.6781 35.4191 67.627 35.432C67.55 35.4515 67.4707 35.46 67.3914 35.4572C67.0957 35.4862 66.7977 35.4792 66.5037 35.4362Z" fill="#263238"/>
<path d="M64.8923 35.7602C64.9807 35.7602 64.9638 36.3492 65.456 36.7825C65.9482 37.2158 66.5751 37.1737 66.5793 37.2537C66.5835 37.3336 66.432 37.3673 66.1586 37.3631C65.8129 37.3574 65.4805 37.2291 65.2205 37.0013C64.977 36.7855 64.8263 36.4841 64.7998 36.1599C64.7829 35.8991 64.8502 35.756 64.8923 35.7602Z" fill="#263238"/>
<path d="M64.8673 29.2184C64.8126 29.3656 64.2699 29.2773 63.6305 29.332C62.991 29.3867 62.4694 29.5465 62.3684 29.4119C62.3305 29.3488 62.4273 29.21 62.6376 29.0754C62.921 28.9099 63.2381 28.8108 63.5652 28.7853C63.8923 28.7598 64.221 28.8086 64.5265 28.9281C64.7789 29.0291 64.8925 29.1511 64.8673 29.2184Z" fill="#F5F5F5"/>
<path d="M69.8566 29.8326C69.7556 29.9546 69.3854 29.8326 68.9353 29.7947C68.4851 29.7569 68.0939 29.8494 68.0182 29.719C67.9803 29.6559 68.0434 29.5339 68.2159 29.4203C68.4422 29.2841 68.7056 29.2223 68.9689 29.2436C69.2338 29.2547 69.4884 29.3489 69.6967 29.5129C69.8524 29.6475 69.8986 29.7611 69.8566 29.8326Z" fill="#F5F5F5"/>
<path d="M70.5214 28.0784C70.5214 28.0784 69.6801 25.8361 68.6115 25.285C67.3495 24.6161 66.7353 26.017 65.5153 25.6342C64.2953 25.2514 63.0795 24.6119 61.7922 25.5248C60.3787 26.5219 61.0013 27.2749 60.8667 28.8399C60.3198 35.188 59.0998 36.9507 58.8642 33.9428C58.8389 33.6147 57.9345 33.3244 57.8461 31.9319C57.7283 30.1272 57.7283 27.9438 58.17 26.6817C58.5445 25.6174 59.1797 24.8938 60.3071 24.1071C62.0824 22.8703 64.4677 22.9166 66.0832 23.1353C67.6986 23.3541 70.7697 25.3061 70.5214 28.0784Z" fill="#F5F5F5"/>
<path d="M59.0996 33.8503C59.0997 33.7204 59.0735 33.5917 59.0224 33.4722C58.9713 33.3527 58.8965 33.2449 58.8025 33.1552C58.7084 33.0655 58.5972 32.9958 58.4754 32.9504C58.3536 32.905 58.2239 32.8849 58.0941 32.8911C57.4336 32.9332 56.6848 33.2866 56.6848 34.6496C56.6848 37.0686 59.1164 36.5679 59.1206 36.5006C59.1248 36.4333 59.108 34.8642 59.0996 33.8503Z" fill="#FFD9B9"/>
<path d="M58.5946 35.5876C58.5946 35.5876 58.5526 35.6213 58.4811 35.6507C58.3799 35.6917 58.2667 35.6917 58.1655 35.6507C58.0088 35.5515 57.8813 35.4123 57.7963 35.2474C57.7112 35.0825 57.6717 34.8979 57.6817 34.7126C57.6776 34.506 57.7178 34.3008 57.7995 34.111C57.8225 34.0351 57.8636 33.9659 57.9193 33.9095C57.975 33.8531 58.0437 33.811 58.1193 33.7871C58.1674 33.7743 58.2185 33.7786 58.2638 33.7993C58.309 33.82 58.3457 33.8559 58.3675 33.9007C58.3969 33.9722 58.3675 34.0185 58.3969 34.0227C58.4264 34.0269 58.4474 33.9806 58.4306 33.8838C58.4152 33.8244 58.3813 33.7714 58.3338 33.7324C58.3015 33.7069 58.2643 33.6882 58.2245 33.6773C58.1848 33.6665 58.1433 33.6638 58.1024 33.6693C58.0066 33.6916 57.9179 33.7376 57.8444 33.803C57.771 33.8684 57.715 33.9511 57.6817 34.0437C57.5798 34.2532 57.5293 34.4839 57.5345 34.7168C57.5231 34.9324 57.5752 35.1466 57.6843 35.3328C57.7935 35.519 57.955 35.6691 58.1487 35.7643C58.214 35.7822 58.2823 35.7858 58.3491 35.7749C58.4159 35.7641 58.4795 35.7389 58.5357 35.7012C58.5904 35.6507 58.6031 35.5961 58.5946 35.5876Z" fill="#FFB48A"/>
<path d="M64.0513 36.0714C64.0892 36.0714 64.1144 35.819 64.3247 35.6171C64.5351 35.4151 64.7833 35.3857 64.7833 35.3436C64.7833 35.3015 64.716 35.3058 64.6066 35.3184C64.4636 35.3454 64.3319 35.4142 64.228 35.5161C64.1235 35.6187 64.053 35.7508 64.0261 35.8947C64.0092 36.0209 64.0345 36.0714 64.0513 36.0714Z" fill="#FFB48A"/>
<path d="M63.8574 35.4109C63.8911 35.4109 63.9794 35.352 64.1099 35.2973C64.2403 35.2426 64.3623 35.2342 64.3665 35.1921C64.3707 35.1501 64.2277 35.0954 64.0552 35.1921C63.8827 35.2889 63.8238 35.3941 63.8574 35.4109Z" fill="#FFB48A"/>
<path d="M60.7906 40.9767C60.7906 40.9767 60.7569 40.9556 60.7275 40.9094C60.7086 40.8768 60.6987 40.8398 60.6987 40.8021C60.6987 40.7644 60.7086 40.7274 60.7275 40.6948C60.7695 40.6065 60.8831 40.5265 60.963 40.3751C60.9849 40.3313 60.9963 40.2831 60.9963 40.2342C60.9963 40.1852 60.9849 40.137 60.963 40.0932C60.9196 40.0194 60.8703 39.949 60.8158 39.8829C60.6391 39.6347 61.1902 39.4874 61.1313 39.1761C61.13 39.127 61.1189 39.0787 61.0987 39.0339C61.0784 38.9891 61.0495 38.9488 61.0135 38.9153C60.9588 38.869 60.921 38.8648 60.9168 38.8732C60.9901 38.9574 61.0317 39.0645 61.0346 39.1761C61.0268 39.2345 61.0057 39.2903 60.9729 39.3392C60.94 39.3881 60.8964 39.4287 60.8453 39.458C60.7757 39.5095 60.7183 39.5755 60.677 39.6515C60.6482 39.6968 60.6328 39.7493 60.6328 39.803C60.6328 39.8566 60.6482 39.9092 60.677 39.9544C60.7317 40.0385 60.7906 40.0932 60.82 40.1521C60.8336 40.1781 60.8408 40.207 60.8408 40.2363C60.8408 40.2656 60.8336 40.2945 60.82 40.3204C60.7695 40.4382 60.6601 40.535 60.6139 40.6528C60.5909 40.7001 60.5831 40.7533 60.5913 40.8052C60.5996 40.8571 60.6236 40.9052 60.6601 40.943C60.7443 40.9977 60.7906 40.9809 60.7906 40.9767Z" fill="#FFB48A"/>
<path d="M60.0462 40.8337C60.0462 40.8337 60.0462 40.8001 60.0798 40.7496C60.1164 40.6763 60.1647 40.6095 60.2229 40.5519C60.2629 40.5041 60.2995 40.4535 60.3323 40.4004C60.3726 40.3289 60.3874 40.2459 60.3743 40.1648C60.3407 39.9882 60.2019 39.8746 60.1387 39.7442C60.0756 39.6137 60.1387 39.517 60.2481 39.4118C60.302 39.3619 60.3475 39.3037 60.3827 39.2393C60.4134 39.1794 60.4293 39.1131 60.429 39.0458C60.429 38.7934 60.2523 38.7135 60.2481 38.7303C60.3038 38.8246 60.3329 38.9321 60.3323 39.0416C60.3235 39.0981 60.3033 39.1523 60.273 39.2007C60.2426 39.2492 60.2026 39.291 60.1556 39.3235C60.0913 39.3753 60.0384 39.4397 59.9999 39.5128C59.978 39.558 59.9666 39.6076 59.9666 39.6579C59.9666 39.7082 59.978 39.7578 59.9999 39.803C60.0883 39.9713 60.2103 40.0723 60.2313 40.1859C60.2523 40.2995 60.185 40.4004 60.1261 40.4888C60.0685 40.5578 60.0295 40.6403 60.0125 40.7286C60.0041 40.8001 60.0378 40.8379 60.0462 40.8337Z" fill="#FFB48A"/>
<path d="M57.8081 30.796C56.7901 30.1145 56.2095 28.3098 56.3399 27.094C56.5587 25.0578 58.1868 23.3541 60.1261 22.6557C62.0655 21.9574 64.1984 22.1341 66.1588 22.7314C67.9047 23.2615 68.4053 23.7874 70.4498 24.1365C71.0178 24.2333 71.5815 23.8673 72.162 23.8841C72.451 23.8735 72.7359 23.9538 72.9767 24.1138C73.2175 24.2739 73.402 24.5055 73.504 24.776C73.542 25.001 73.5182 25.2322 73.4353 25.4448C73.3523 25.6574 73.2132 25.8435 73.0329 25.9834C72.668 26.2559 72.2558 26.4584 71.8171 26.5807C66.8992 28.2635 62.9616 29.9925 57.825 30.7876" fill="#263238"/>
<path d="M73.2303 25.3944C73.2303 25.3944 73.1799 25.4239 73.0789 25.4659L72.6246 25.6342C72.2333 25.7772 71.657 25.9792 70.9418 26.219C69.5199 26.7028 67.5553 27.3506 65.3677 28.0321C63.1801 28.7136 61.1944 29.2942 59.7515 29.7149C59.0321 29.9168 58.4474 30.0809 58.0393 30.186L57.5723 30.3038C57.5177 30.3205 57.4611 30.3304 57.4041 30.3333C57.4534 30.3034 57.5075 30.2821 57.5639 30.2702L58.0225 30.1229L59.7052 29.6013L65.3046 27.8807L70.8913 26.118L72.5741 25.5837L73.0368 25.4449C73.0989 25.4199 73.164 25.4029 73.2303 25.3944Z" fill="#455A64"/>
<path d="M76.0658 68.7632C76.0658 68.7632 78.7119 69.1839 79.0317 69.2848C79.3514 69.3858 81.2024 71.6449 81.2024 71.6449L81.9554 73.3613L81.7703 74.88C81.7703 74.88 81.581 75.1156 81.3244 74.7496C81.1055 74.35 80.9333 73.9265 80.8112 73.4875L80.1297 72.6461L79.6122 72.339C79.6122 72.339 79.6585 73.5632 79.3219 73.6937C78.9854 73.8241 78.0052 73.8199 77.8916 73.6179L77.7738 73.4202C77.7738 73.4202 77.0671 74.1438 76.6884 74.0344C76.59 74.0183 76.4982 73.9746 76.4237 73.9083C76.3493 73.842 76.2952 73.7559 76.2677 73.66C76.1779 73.7693 76.0638 73.8563 75.9346 73.9139C75.8054 73.9716 75.6645 73.9985 75.5231 73.9923L75.4011 73.9629C75.2424 73.9213 75.0993 73.8343 74.9895 73.7124C74.8796 73.5906 74.8077 73.4393 74.7827 73.2772L76.0658 68.7632Z" fill="#FFD9B9"/>
<path d="M77.2058 71.9141C77.1908 72.2569 77.0879 72.5901 76.9071 72.8817C76.7487 73.184 76.5296 73.4504 76.2634 73.6641C76.4161 73.3719 76.589 73.0908 76.7809 72.8228C77.0417 72.339 77.1595 71.9015 77.2058 71.9141Z" fill="#FFB48A"/>
<path d="M78.5397 71.7039C78.5293 72.0257 78.4534 72.342 78.3168 72.6336C78.2119 72.942 78.0241 73.2156 77.7741 73.4245C77.7362 73.395 77.9886 73.0501 78.1948 72.5831C78.2816 72.2797 78.3971 71.9853 78.5397 71.7039Z" fill="#FFB48A"/>
<path d="M79.427 71.4556C79.5683 71.7014 79.6437 71.9797 79.6458 72.2633C79.6932 72.545 79.67 72.8341 79.5784 73.1047C79.5289 72.834 79.5035 72.5595 79.5027 72.2843C79.456 72.0105 79.4307 71.7334 79.427 71.4556Z" fill="#FFB48A"/>
<path d="M67.1558 44.5694L58.9103 40.5686C58.9103 40.5686 52.1793 43.7785 51.1065 49.218C50.0338 54.6575 50.1768 75.1871 51.4725 76.9834L53.6012 79.5875L54.1439 82.2294L72.5616 80.0586L72.3345 77.383L72.507 73.9039L67.1558 44.5694Z" fill="#F06359"/>
<path d="M72.3429 77.3663C72.3429 77.4126 68.136 77.9427 62.9615 78.5527C57.7871 79.1627 53.5591 79.6254 53.5549 79.5792C53.5507 79.5329 57.7618 79.0028 62.9405 78.3928C68.1192 77.7828 72.3387 77.3243 72.3429 77.3663Z" fill="#263238"/>
<path d="M55.8813 82.0695C55.667 81.1897 55.5611 80.2869 55.5658 79.3813C55.6965 79.8165 55.7755 80.2655 55.8014 80.7191C55.8798 81.1647 55.9067 81.6178 55.8813 82.0695Z" fill="#263238"/>
<path d="M57.9974 81.8214C57.8638 81.3882 57.7833 80.9404 57.7576 80.4878C57.6765 80.0411 57.651 79.5861 57.6819 79.1332C57.8125 79.5671 57.893 80.0145 57.9217 80.4668C58.0003 80.9137 58.0257 81.3684 57.9974 81.8214Z" fill="#263238"/>
<path d="M60.1133 81.5731C59.9827 81.1392 59.9022 80.6917 59.8735 80.2395C59.7949 79.7925 59.7695 79.3378 59.7978 78.8849C59.9309 79.3182 60.0114 79.7659 60.0376 80.2185C60.1187 80.6652 60.1441 81.1202 60.1133 81.5731Z" fill="#263238"/>
<path d="M62.2295 81.3248C62.0991 80.891 62.02 80.4434 61.9939 79.9912C61.9151 79.5443 61.8883 79.0897 61.9139 78.6366C62.047 79.0699 62.1275 79.5177 62.1537 79.9702C62.2349 80.4169 62.2603 80.8719 62.2295 81.3248Z" fill="#263238"/>
<path d="M64.3497 81.0851C64.2164 80.6504 64.1359 80.2012 64.1099 79.7473C64.0315 79.3017 64.0047 78.8486 64.03 78.3969C64.1665 78.8293 64.2471 79.2775 64.2698 79.7304C64.3485 80.1774 64.3753 80.6319 64.3497 81.0851Z" fill="#263238"/>
<path d="M66.4661 80.8243C66.2518 79.9444 66.1458 79.0417 66.1505 78.1361C66.2815 78.5714 66.3619 79.0203 66.3903 79.4739C66.4664 79.9197 66.4918 80.3728 66.4661 80.8243Z" fill="#263238"/>
<path d="M68.5819 80.5761C68.4488 80.1428 68.3683 79.6951 68.3421 79.2426C68.261 78.7959 68.2355 78.3409 68.2663 77.8879C68.3994 78.3213 68.4799 78.769 68.5061 79.2215C68.5872 79.6682 68.6127 80.1232 68.5819 80.5761Z" fill="#263238"/>
<path d="M70.6981 80.328C70.5674 79.8941 70.487 79.4466 70.4583 78.9944C70.3822 78.5471 70.3568 78.0927 70.3825 77.6398C70.5156 78.0731 70.5961 78.5208 70.6223 78.9734C70.7035 79.42 70.7289 79.875 70.6981 80.328Z" fill="#263238"/>
<path d="M67.7277 47.6656C67.7493 47.7216 67.7662 47.7793 67.7782 47.8381C67.8034 47.9728 67.8413 48.1368 67.8834 48.343C67.9759 48.8057 68.0979 49.4368 68.2494 50.2066C68.5523 51.78 68.9603 53.9549 69.3978 56.3613C69.8354 58.7676 70.2098 60.9258 70.4916 62.5244C70.622 63.2984 70.7272 63.9295 70.8071 64.3964C70.8366 64.6026 70.8618 64.7708 70.8829 64.9055C70.8894 64.9656 70.8894 65.0262 70.8829 65.0864C70.861 65.029 70.8441 64.9699 70.8324 64.9097C70.8071 64.7792 70.7693 64.611 70.7272 64.4048C70.6347 63.9421 70.5127 63.3153 70.3612 62.5454C70.0667 60.9468 69.6629 58.7844 69.2169 56.3865C68.771 53.9886 68.405 51.822 68.1232 50.2276C67.9927 49.4536 67.8834 48.8183 67.8076 48.3556L67.7445 47.8508C67.7321 47.7899 67.7265 47.7278 67.7277 47.6656Z" fill="#263238"/>
<path d="M57.7743 44.2075C57.7743 44.2075 52.684 46.1343 52.4189 50.0341C52.1539 53.9338 53.8451 66.5335 55.5404 68.6285C57.2358 70.7235 74.7575 74.354 74.7575 74.354L76.4192 67.4968L63.4788 61.8302C63.4788 61.8302 62.2168 50.2023 60.9084 47.2154C59.6001 44.2286 57.7743 44.2075 57.7743 44.2075Z" fill="#F06359"/>
<path d="M61.2366 47.1819L61.3375 47.4301C61.4365 47.6702 61.5208 47.916 61.5899 48.1663C61.8601 49.1238 62.0764 50.0957 62.2378 51.0775C62.6921 53.6226 63.1507 57.3121 63.5419 61.8303L63.5041 61.7756L76.4529 67.4296L76.5118 67.4549V67.5222C75.9775 69.7308 75.4222 72.0235 74.85 74.3752V74.4551H74.7743L73.2514 74.127C70.7273 73.5759 68.2452 72.9953 65.8725 72.3937C63.4999 71.7922 61.2197 71.1611 59.0911 70.4333C58.0407 70.1019 57.026 69.6664 56.0621 69.1334C55.9485 69.0577 55.8391 68.9735 55.7297 68.8936C55.6244 68.8052 55.531 68.7034 55.4521 68.5907C55.3019 68.3725 55.1737 68.14 55.0693 67.8966C54.8703 67.4245 54.6989 66.9413 54.556 66.4494C54.057 64.6609 53.6637 62.8446 53.3781 61.0099C52.9382 58.3628 52.6335 55.695 52.4652 53.0168C52.4105 52.0661 52.4021 51.3341 52.4105 50.825C52.4189 50.316 52.4526 50.0636 52.4526 50.0636C52.4526 50.0636 52.4526 50.1267 52.4526 50.2571C52.4526 50.3875 52.4526 50.5768 52.4526 50.825C52.4526 51.3257 52.4736 52.0619 52.5367 53.0126C52.6629 54.9057 52.9364 57.6402 53.5001 61.0057C53.7931 62.8345 54.1906 64.645 54.6906 66.4284C54.8342 66.9132 55.0055 67.3894 55.2039 67.8545C55.3046 68.0893 55.4287 68.3134 55.5741 68.5234C55.6482 68.6246 55.7328 68.7177 55.8265 68.8011C55.9317 68.8768 56.0369 68.9567 56.1462 69.0282C57.1023 69.5462 58.1069 69.969 59.1457 70.2903C61.2744 71.0139 63.5503 71.6323 65.923 72.2381C68.2957 72.8439 70.7609 73.416 73.2977 73.9713L74.8122 74.2952L74.7196 74.3541C75.2918 72.0025 75.8471 69.7266 76.4024 67.5011L76.4444 67.5937L63.4536 61.8934H63.4199V61.8555C63.0413 57.3415 62.5786 53.6521 62.1579 51.1069C62.0023 50.1268 61.7973 49.1552 61.5437 48.1957C61.4796 47.9432 61.401 47.6946 61.3081 47.4511C61.266 47.2702 61.2366 47.1819 61.2366 47.1819Z" fill="#263238"/>
<path d="M59.638 44.645C59.2933 44.5325 58.9421 44.4412 58.5863 44.3716C57.7233 44.2286 56.8375 44.3291 56.0285 44.6618C55.2399 45.0419 54.5577 45.6114 54.0428 46.3193C53.6474 46.862 53.4917 47.2575 53.4665 47.2449C53.4413 47.2322 53.4665 47.1397 53.559 46.963C53.6649 46.7141 53.7945 46.476 53.9461 46.252C54.4503 45.5031 55.1462 44.9031 55.9612 44.5146C56.7976 44.1661 57.7195 44.0767 58.6073 44.258C58.8735 44.3088 59.1331 44.3892 59.3814 44.4978C59.4746 44.5319 59.5614 44.5817 59.638 44.645Z" fill="#263238"/>
<path d="M73.8446 66.5504C73.8867 66.5504 73.445 68.1826 72.856 70.1725C72.267 72.1623 71.758 73.7652 71.7159 73.7525C71.6739 73.7399 72.1114 72.1161 72.7003 70.1262C73.2893 68.1364 73.8025 66.5377 73.8446 66.5504Z" fill="#263238"/>
<path d="M75.0393 73.1468C74.535 73.1062 74.0368 73.0088 73.5543 72.8565C73.0591 72.7565 72.5756 72.6056 72.1113 72.4064C72.6157 72.4466 73.1139 72.544 73.5964 72.6966C74.0918 72.7958 74.5754 72.9467 75.0393 73.1468Z" fill="#263238"/>
<path d="M75.5904 71.0643C75.0929 70.9922 74.6029 70.8754 74.1264 70.7151C73.6398 70.6057 73.1606 70.4651 72.6919 70.2944C73.197 70.309 73.6967 70.4027 74.1727 70.5721C74.6635 70.6782 75.1395 70.8434 75.5904 71.0643Z" fill="#263238"/>
<path d="M75.8938 69.3604C75.0179 69.1616 74.17 68.855 73.3696 68.4475C74.2455 68.6463 75.0934 68.9529 75.8938 69.3604Z" fill="#263238"/>
<g opacity="0.3">
<path d="M76.4109 67.5011L70.9083 65.0989L67.1558 44.5694L58.9103 40.5686C58.9103 40.5686 52.1793 43.7785 51.1065 49.218C50.0338 54.6575 50.1768 75.1871 51.4725 76.9834L53.6012 79.5875L54.1439 82.2294L72.5616 80.0586L72.3345 77.383L72.507 73.9039C73.8742 74.2068 74.7492 74.3877 74.7492 74.3877L76.4109 67.5011Z" fill="black"/>
</g>
<path d="M101.509 99.5955L102.948 106.638C102.948 106.638 110.588 107.546 110.979 108.821L97.4453 112.094L94.7571 101.215L101.509 99.5955Z" fill="#F06359"/>
<g opacity="0.3">
<path d="M101.509 99.5955L102.948 106.638C102.948 106.638 110.588 107.546 110.979 108.821L97.4453 112.094L94.7571 101.215L101.509 99.5955Z" fill="black"/>
</g>
<path d="M98.615 107.063C98.4936 107.134 98.4028 107.248 98.3601 107.382C98.3174 107.517 98.3258 107.662 98.3837 107.791C98.4507 107.913 98.5622 108.006 98.6952 108.049C98.8282 108.092 98.9726 108.082 99.0988 108.022C99.2267 107.947 99.3221 107.827 99.3664 107.685C99.4107 107.544 99.4008 107.391 99.3386 107.256C99.2563 107.135 99.1302 107.05 98.9867 107.019C98.8432 106.989 98.6934 107.015 98.5688 107.092" fill="#263238"/>
<path d="M97.4454 112.094L97.1846 111.038L110.297 108.261C110.297 108.261 110.966 108.379 111 108.821L97.4454 112.094Z" fill="#263238"/>
<path d="M103.15 106.516C103.15 106.583 102.838 106.692 102.565 106.987C102.292 107.281 102.186 107.597 102.119 107.584C102.052 107.572 102.056 107.164 102.397 106.823C102.737 106.482 103.15 106.453 103.15 106.516Z" fill="#263238"/>
<path d="M104.715 106.747C104.744 106.806 104.484 106.987 104.328 107.324C104.172 107.66 104.177 107.967 104.109 107.98C104.042 107.992 103.911 107.631 104.109 107.218C104.307 106.806 104.698 106.701 104.715 106.747Z" fill="#263238"/>
<path d="M105.931 108.27C105.876 108.295 105.703 107.988 105.788 107.584C105.872 107.18 106.141 106.962 106.183 107.012C106.225 107.063 106.082 107.298 106.019 107.631C105.956 107.963 105.998 108.245 105.931 108.27Z" fill="#263238"/>
<path d="M102.645 104.951C102.645 105.014 102.304 104.997 101.938 105.115C101.572 105.233 101.307 105.418 101.257 105.371C101.206 105.325 101.434 105.018 101.867 104.888C102.3 104.757 102.666 104.888 102.645 104.951Z" fill="#263238"/>
<path d="M99.4982 101.615L100.045 108.766C100.045 108.766 107.508 110.617 107.739 111.934L93.882 113.487L92.5779 102.355L99.4982 101.615Z" fill="#F06359"/>
<path d="M95.691 108.661C95.5618 108.716 95.4576 108.817 95.3986 108.945C95.3395 109.072 95.3298 109.217 95.3712 109.351C95.4223 109.482 95.5212 109.588 95.6479 109.648C95.7745 109.708 95.9193 109.718 96.0528 109.675C96.1887 109.616 96.2978 109.508 96.3591 109.373C96.4205 109.238 96.4297 109.085 96.3851 108.943C96.319 108.812 96.2042 108.711 96.065 108.663C95.9259 108.615 95.7735 108.624 95.6405 108.687" fill="#263238"/>
<path d="M93.8821 113.503L93.7559 112.426L107.121 111.307C107.121 111.307 107.769 111.509 107.748 111.951L93.8821 113.503Z" fill="#263238"/>
<path d="M100.26 108.686C100.26 108.754 99.9317 108.821 99.6204 109.078C99.3091 109.334 99.166 109.637 99.1029 109.616C99.0398 109.595 99.1029 109.195 99.4732 108.893C99.8434 108.59 100.268 108.623 100.26 108.686Z" fill="#263238"/>
<path d="M101.783 109.124C101.804 109.187 101.522 109.334 101.324 109.65C101.126 109.965 101.097 110.268 101.03 110.277C100.962 110.285 100.874 109.902 101.126 109.52C101.379 109.137 101.77 109.061 101.783 109.124Z" fill="#263238"/>
<path d="M102.801 110.773C102.742 110.794 102.607 110.466 102.742 110.075C102.876 109.684 103.162 109.503 103.209 109.557C103.255 109.612 103.07 109.827 102.965 110.15C102.859 110.474 102.868 110.756 102.801 110.773Z" fill="#263238"/>
<path d="M99.9694 107.067C99.9442 107.13 99.6245 107.067 99.2458 107.143C98.8672 107.218 98.5812 107.366 98.5391 107.311C98.497 107.256 98.7578 106.983 99.2038 106.89C99.6497 106.798 99.9694 107.008 99.9694 107.067Z" fill="#263238"/>
<path d="M98.6863 78.4558L104.828 105.426L99.6581 106.583L98.6863 78.4558Z" fill="#263238"/>
<path d="M99.09 80.0881C98.0636 74.4846 94.5508 72.9827 91.9678 72.7681C89.0608 72.5284 53.3486 72.3264 53.3486 72.3264L53.1509 75.1408L75.2623 85.393L89.2207 85.2962L92.7124 108.161L101.038 107.021C101.038 107.021 100.112 85.7127 99.09 80.0881Z" fill="#263238"/>
<path d="M99.2753 80.6646C99.3215 80.6646 99.7548 86.5542 100.243 93.8405C100.731 101.127 101.084 107.025 101.038 107.025C100.992 107.025 100.563 101.135 100.075 93.8489C99.5866 86.5626 99.229 80.6646 99.2753 80.6646Z" fill="#455A64"/>
<path d="M50.3747 54.6197L54.6741 75.1073L44.2747 74.4846L43.8203 56.8157L34.5652 56.7274C34.4138 56.7257 34.2642 56.6943 34.125 56.6348C33.9858 56.5754 33.8597 56.4891 33.7538 56.3809C33.6479 56.2727 33.5644 56.1446 33.508 56.0042C33.4516 55.8637 33.4235 55.7134 33.4251 55.5621C33.4296 55.2571 33.5547 54.9663 33.7731 54.7534C33.9915 54.5405 34.2854 54.4228 34.5904 54.4262L50.3747 54.6197Z" fill="#455A64"/>
<path d="M42.7557 74.4844L43.1259 88.4218L79.6164 88.5354C80.5559 88.5388 81.4587 88.1705 82.1278 87.5109C82.7969 86.8512 83.178 85.9538 83.188 85.0143C83.1984 84.0824 82.8438 83.1834 82.1999 82.5096C81.556 81.8358 80.674 81.4408 79.7426 81.409L76.5874 81.308L76.7557 74.3793C76.7618 74.1385 76.7201 73.8989 76.6328 73.6744C76.5455 73.4499 76.4145 73.2451 76.2474 73.0717C76.0803 72.8982 75.8803 72.7598 75.6592 72.6643C75.4381 72.5689 75.2002 72.5183 74.9593 72.5156L45.0232 72.1791C44.7214 72.1761 44.4221 72.234 44.1432 72.3493C43.8642 72.4646 43.6114 72.635 43.3998 72.8501C43.1881 73.0653 43.022 73.3209 42.9113 73.6017C42.8007 73.8825 42.7477 74.1827 42.7557 74.4844Z" fill="#455A64"/>
<path d="M58.4348 84.0254L56.302 84.0012L56.0583 105.48L58.1911 105.504L58.4348 84.0254Z" fill="#455A64"/>
<path d="M86.3907 103.942L56.082 103.599L56.0617 105.391L86.3703 105.734L86.3907 103.942Z" fill="#455A64"/>
<path d="M58.6916 117.723C53.2471 117.692 48.037 115.503 44.2037 111.637C40.3703 107.77 38.2264 102.542 38.242 97.0969C38.2576 91.6523 40.4314 86.4361 44.2868 82.5916C48.1423 78.7472 53.3648 76.5884 58.8094 76.5884C64.254 76.5884 69.4765 78.7472 73.3319 82.5916C77.1874 86.4361 79.3612 91.6523 79.3768 97.0969C79.3924 102.542 77.2485 107.77 73.4151 111.637C69.5818 115.503 64.3717 117.692 58.9272 117.723H58.6916ZM44.9645 83.1592C41.662 86.3879 39.581 90.6617 39.0759 95.2525C38.5708 99.8434 39.673 104.467 42.1946 108.337C44.7163 112.206 48.5014 115.082 52.9052 116.474C57.3091 117.865 62.0593 117.687 66.3466 115.97C70.634 114.252 74.1933 111.102 76.4183 107.054C78.6433 103.007 79.3963 98.3137 78.5491 93.7735C77.7019 89.2333 75.3069 85.1272 71.772 82.1547C68.2371 79.1822 63.781 77.5272 59.1628 77.4715H58.9272C53.7054 77.4539 48.6877 79.4979 44.9645 83.1592Z" fill="#E0E0E0"/>
<path d="M69.0782 97.7234C63.5378 97.6603 59.0532 97.6014 59.0532 97.5972C59.0532 97.593 63.5378 97.6434 69.0782 97.7107L79.1032 97.837C79.1032 97.837 74.6103 97.7907 69.0782 97.7234Z" fill="#E0E0E0"/>
<path d="M68.9226 99.3808L59.0491 97.6307L68.9268 99.3682L78.7962 101.118L68.9226 99.3808Z" fill="#E0E0E0"/>
<path d="M68.5019 100.992L59.0491 97.6266L68.5062 100.963L77.9548 104.307C77.9548 104.307 73.7185 102.835 68.5019 100.992Z" fill="#E0E0E0"/>
<path d="M67.8207 102.506C62.9702 99.8309 59.0452 97.6559 59.0452 97.6517L67.8249 102.494C72.6713 105.169 76.6005 107.344 76.5963 107.349L67.8207 102.506Z" fill="#E0E0E0"/>
<path d="M66.8991 103.891L59.0322 97.673C59.0322 97.673 62.5618 100.45 66.9075 103.882C71.2532 107.315 74.7744 110.113 74.7702 110.113C74.766 110.113 71.2448 107.319 66.8991 103.891Z" fill="#E0E0E0"/>
<path d="M65.7677 105.106C62.032 101.017 59.0115 97.698 59.0115 97.698C59.0115 97.698 62.0446 101.009 65.7761 105.098C69.5076 109.187 72.5324 112.506 72.5072 112.506C72.4819 112.506 69.4992 109.195 65.7677 105.106Z" fill="#E0E0E0"/>
<path d="M64.4506 106.124C61.4301 101.497 58.9817 97.7107 58.9817 97.7107C58.9817 97.7107 61.4343 101.472 64.4506 106.124C67.467 110.777 69.9196 114.538 69.9196 114.538C69.9196 114.538 67.4712 110.765 64.4506 106.124Z" fill="#E0E0E0"/>
<path d="M62.9907 106.911C60.7695 101.838 58.9731 97.7276 58.9731 97.7234C58.9731 97.7192 60.7821 101.834 63.0033 106.907C65.2246 111.981 67.0209 116.091 67.0167 116.091C67.0125 116.091 65.212 111.985 62.9907 106.911Z" fill="#E0E0E0"/>
<path d="M61.4177 107.454C60.0589 102.082 58.9609 97.7317 58.9651 97.7275C58.9693 97.7233 60.0715 102.077 61.4303 107.45C62.7892 112.822 63.8872 117.168 63.8829 117.168C63.8787 117.168 62.7765 112.818 61.4177 107.454Z" fill="#E0E0E0"/>
<path d="M59.7811 107.727C59.3183 102.208 58.9397 97.7318 58.9397 97.7318C58.9397 97.7318 59.3183 102.204 59.7811 107.723C60.2438 113.243 60.6225 117.715 60.6225 117.715C60.6225 117.715 60.2396 113.243 59.7811 107.727Z" fill="#E0E0E0"/>
<path d="M58.115 107.731C58.5357 102.208 58.9017 97.7316 58.9059 97.7358C58.9101 97.74 58.5651 102.208 58.1318 107.731C57.6985 113.255 57.3409 117.723 57.3367 117.723C57.3325 117.723 57.6817 113.247 58.115 107.731Z" fill="#E0E0E0"/>
<path d="M56.4746 107.462C57.804 102.086 58.8851 97.7318 58.8851 97.7318C58.8851 97.7318 57.8166 102.09 56.4872 107.467C55.1578 112.843 54.0767 117.197 54.0767 117.197C54.0767 117.197 55.1452 112.839 56.4746 107.462Z" fill="#E0E0E0"/>
<path d="M54.897 106.932C57.093 101.85 58.8725 97.7276 58.8767 97.7318C58.881 97.736 57.1056 101.855 54.9097 106.941C52.7137 112.027 50.9341 116.141 50.9299 116.141C50.9257 116.141 52.7052 112.014 54.897 106.932Z" fill="#E0E0E0"/>
<path d="M53.4329 106.15C56.4282 101.493 58.8598 97.7358 58.864 97.7358C58.8682 97.7358 56.4408 101.522 53.4413 106.171C50.4418 110.819 48.0145 114.584 48.0103 114.584L53.4329 106.15Z" fill="#E0E0E0"/>
<path d="M52.1119 105.14L58.8429 97.7065C58.8429 97.7065 55.8392 101.043 52.1119 105.149C48.3846 109.254 45.3809 112.582 45.3809 112.582C45.3809 112.582 48.4014 109.246 52.1119 105.14Z" fill="#E0E0E0"/>
<path d="M50.9719 103.929L58.8177 97.6855C58.8177 97.6855 55.3134 100.487 50.9803 103.941C46.6472 107.395 43.1429 110.188 43.1387 110.184L50.9719 103.929Z" fill="#E0E0E0"/>
<path d="M50.0464 102.54C54.8801 99.8351 58.8009 97.6475 58.8051 97.6517L50.0548 102.549L41.3003 107.433C41.3003 107.433 45.2169 105.249 50.0464 102.54Z" fill="#E0E0E0"/>
<path d="M49.3608 101.038L58.7968 97.6517C58.7968 97.6517 54.5899 99.1788 49.365 101.051L39.929 104.437C39.929 104.437 44.1485 102.91 49.3608 101.038Z" fill="#E0E0E0"/>
<path d="M48.9273 99.4356L58.7925 97.6434C58.7925 97.6434 54.3795 98.4554 48.9315 99.4482C43.4836 100.441 39.0664 101.24 39.0664 101.236C39.0664 101.232 43.4836 100.437 48.9273 99.4356Z" fill="#E0E0E0"/>
<path d="M48.7632 97.7781L58.7882 97.6183L48.7632 97.795C43.2312 97.8875 38.7424 97.9591 38.7424 97.9548C38.7424 97.9506 43.2312 97.8707 48.7632 97.7781Z" fill="#E0E0E0"/>
<path d="M48.8727 96.1205C54.3417 96.9198 58.7925 97.5761 58.7925 97.5803L48.8685 96.1331C43.3996 95.3296 38.9487 94.6776 38.9529 94.6734C38.9571 94.6692 43.3953 95.317 48.8727 96.1205Z" fill="#E0E0E0"/>
<path d="M49.2469 94.5009C54.5181 96.1836 58.7923 97.5635 58.7923 97.5677L49.2427 94.5135L39.6973 91.4467C39.6973 91.4467 43.9757 92.8097 49.2469 94.5009Z" fill="#E0E0E0"/>
<path d="M49.8822 92.9613L58.7966 97.5552C58.7966 97.5552 54.8001 95.5064 49.8738 92.9739C44.9475 90.4413 40.9636 88.3884 40.9636 88.3842C40.9636 88.38 44.9602 90.4329 49.8822 92.9613Z" fill="#E0E0E0"/>
<path d="M50.7489 91.5519C55.1956 94.8543 58.7966 97.5341 58.7924 97.5383L50.7489 91.5645L42.7053 85.5781L50.7489 91.5519Z" fill="#E0E0E0"/>
<path d="M51.8551 90.3025C55.7086 94.2822 58.8259 97.5089 58.8259 97.5131C58.8259 97.5173 55.7002 94.2906 51.8467 90.3109C47.9932 86.3312 44.8801 83.1087 44.8801 83.1045C44.8801 83.1003 48.01 86.327 51.8551 90.3025Z" fill="#E0E0E0"/>
<path d="M53.1427 89.2508C56.2979 93.8026 58.8514 97.492 58.8472 97.492C58.843 97.492 56.2852 93.8068 53.1301 89.255C49.9749 84.7031 47.4213 81.0179 47.4255 81.0137C47.4297 81.0095 49.9875 84.6989 53.1427 89.2508Z" fill="#E0E0E0"/>
<path d="M54.5772 88.4178C56.9499 93.424 58.8682 97.4794 58.864 97.4836C58.8598 97.4878 56.9373 93.4282 54.5688 88.422C52.2003 83.4158 50.2778 79.3604 50.282 79.3604C50.2862 79.3604 52.2087 83.4158 54.5772 88.4178Z" fill="#E0E0E0"/>
<path d="M56.1334 87.8162C57.6521 93.1421 58.8763 97.4584 58.8721 97.4626C58.8679 97.4668 57.6395 93.1463 56.1208 87.8204C54.6021 82.4945 53.3779 78.1782 53.3821 78.1782C53.3863 78.1782 54.6189 82.5071 56.1334 87.8162Z" fill="#E0E0E0"/>
<path d="M57.7659 87.509C58.3885 93.0116 58.8891 97.4751 58.8849 97.4751C58.8807 97.4751 58.3759 93.0158 57.7532 87.5132C57.1306 82.0106 56.6384 77.5513 56.6384 77.5513C56.6384 77.5513 57.1433 82.0106 57.7659 87.509Z" fill="#E0E0E0"/>
<path d="M59.4277 87.4585C59.1542 92.9906 58.9313 97.4709 58.9271 97.4709C58.9229 97.4709 59.1416 92.9906 59.4109 87.4585C59.6801 81.9265 59.9073 77.4462 59.9115 77.4462C59.9157 77.4462 59.7011 81.9265 59.4277 87.4585Z" fill="#E0E0E0"/>
<path d="M61.0767 87.6732C59.9072 93.0875 58.9733 97.4752 58.9522 97.4752C58.9312 97.4752 59.8946 93.0833 61.0557 87.6732C62.2168 82.2631 63.1591 77.8754 63.1591 77.8754C63.1591 77.8754 62.2462 82.2631 61.0767 87.6732Z" fill="#E0E0E0"/>
<path d="M62.667 88.1569C60.6224 93.3061 58.9649 97.4751 58.9607 97.4751C58.9565 97.4751 60.6098 93.3019 62.6543 88.1527C64.6989 83.0034 66.3564 78.8386 66.3606 78.8386C66.3648 78.8386 64.7115 83.0161 62.667 88.1569Z" fill="#E0E0E0"/>
<path d="M64.156 88.8973C61.2995 93.6385 58.9774 97.4836 58.9731 97.4794L64.1434 88.8889C67.0041 84.1478 69.3221 80.3069 69.3263 80.3069C69.3305 80.3069 67.0125 84.1562 64.156 88.8973Z" fill="#E0E0E0"/>
<path d="M65.5066 89.8691C61.9139 94.076 58.9985 97.4962 58.9985 97.4962C58.9985 97.4962 61.9013 94.076 65.494 89.8607C69.0866 85.6454 71.9978 82.2336 72.002 82.2336C72.0062 82.2336 69.0951 85.658 65.5066 89.8691Z" fill="#E0E0E0"/>
<path d="M66.6805 91.047C62.4484 94.6229 59.024 97.5214 59.0198 97.5172C59.0156 97.513 62.44 94.6145 66.6721 91.0344C70.9042 87.4543 74.3244 84.5642 74.3286 84.5642C74.3328 84.5642 70.9042 87.4712 66.6805 91.047Z" fill="#E0E0E0"/>
<path d="M67.6437 92.3974C62.8899 95.2413 59.0364 97.5424 59.0364 97.5382C59.0364 97.534 62.8857 95.2286 67.6395 92.3848L76.2425 87.2482C76.2425 87.2482 72.3932 89.5578 67.6437 92.3974Z" fill="#E0E0E0"/>
<path d="M68.376 93.8867L59.0452 97.5509C59.0452 97.5509 63.2184 95.9018 68.3718 93.8741L77.7027 90.2141C77.7027 90.2141 73.5295 91.8632 68.376 93.8867Z" fill="#E0E0E0"/>
<path d="M68.8385 95.4811C63.4242 96.6338 59.0322 97.5635 59.0322 97.5593C59.0322 97.5551 63.42 96.617 68.8385 95.4559L78.6405 93.3777C78.6405 93.3777 74.2696 94.3284 68.8385 95.4811Z" fill="#E0E0E0"/>
<path d="M69.0699 97.1302C63.5336 97.3826 59.0533 97.5846 59.0491 97.5804L69.0657 97.1134L79.0823 96.6506C79.0823 96.6506 74.5977 96.8736 69.0699 97.1302Z" fill="#E0E0E0"/>
<path d="M60.5509 97.6224C60.5476 97.9136 60.458 98.1972 60.2934 98.4375C60.1289 98.6777 59.8968 98.8638 59.6265 98.9722C59.3562 99.0805 59.0598 99.1063 58.7749 99.0462C58.4899 98.9861 58.2292 98.8429 58.0256 98.6347C57.8221 98.4264 57.6849 98.1625 57.6313 97.8762C57.5778 97.59 57.6103 97.2943 57.7248 97.0265C57.8393 96.7588 58.0306 96.531 58.2746 96.372C58.5185 96.213 58.8042 96.1298 59.0953 96.1332C59.2889 96.1348 59.4802 96.1747 59.6582 96.2505C59.8363 96.3264 59.9976 96.4367 60.1328 96.5751C60.2681 96.7135 60.3747 96.8772 60.4464 97.057C60.5182 97.2367 60.5537 97.4289 60.5509 97.6224Z" fill="#455A64"/>
<path d="M85.5482 109.507C84.4149 109.494 83.3031 109.817 82.3535 110.435C81.4039 111.054 80.659 111.941 80.2133 112.983C79.7675 114.025 79.6408 115.176 79.8491 116.29C80.0575 117.404 80.5916 118.431 81.3838 119.241C82.1761 120.052 83.1909 120.609 84.2999 120.843C85.409 121.077 86.5624 120.976 87.6143 120.554C88.6663 120.132 89.5694 119.408 90.2096 118.472C90.8497 117.537 91.1981 116.433 91.2107 115.3C91.2275 113.781 90.6405 112.317 89.5787 111.231C88.5168 110.145 87.0671 109.525 85.5482 109.507ZM85.4304 119.683C84.551 119.673 83.6944 119.403 82.9687 118.906C82.2431 118.409 81.6812 117.708 81.3539 116.892C81.0266 116.075 80.9487 115.18 81.1301 114.32C81.3115 113.459 81.7439 112.672 82.3728 112.057C83.0017 111.442 83.7987 111.028 84.6632 110.866C85.5276 110.704 86.4206 110.803 87.2292 111.148C88.0379 111.494 88.7258 112.072 89.2061 112.808C89.6864 113.545 89.9375 114.408 89.9276 115.287C89.9131 116.466 89.4315 117.591 88.5883 118.415C87.7452 119.24 86.6094 119.696 85.4304 119.683Z" fill="#263238"/>
<path d="M86.2801 114.686L84.9045 114.669L85.2494 84.1268L80.4199 84.0721L80.4368 82.6964L86.6377 82.7637L86.2801 114.686Z" fill="#455A64"/>
<path d="M92.7083 113.331C92.7083 113.179 92.8766 91.106 92.7924 86.9285C92.8012 86.5376 92.7155 86.1503 92.5427 85.7995C92.3698 85.4487 92.1149 85.1447 91.7996 84.9134C89.9275 83.4999 86.0825 83.9459 86.0404 83.9501L85.8511 82.7511C86.032 82.7259 90.344 82.2252 92.6915 84.0132C93.1519 84.3475 93.526 84.7867 93.7828 85.2944C94.0396 85.8022 94.1717 86.3638 94.1681 86.9327C94.2522 91.1396 94.0839 113.209 94.0839 113.36L92.7083 113.331Z" fill="#455A64"/>
<path d="M103.573 112.509L92.5518 112.384L92.5365 113.725L103.558 113.85L103.573 112.509Z" fill="#455A64"/>
<path d="M59.314 74.5055C54.7206 74.4576 50.216 75.7726 46.3698 78.2843C42.5235 80.796 39.5083 84.3917 37.7053 88.6167C35.9022 92.8418 35.3923 97.5066 36.24 102.021C37.0877 106.536 39.2549 110.698 42.4677 113.982C45.6804 117.265 49.7945 119.522 54.2899 120.468C58.7852 121.413 63.46 121.005 67.7232 119.294C71.9864 117.583 75.6467 114.647 78.2414 110.856C80.8361 107.065 82.2486 102.59 82.3004 97.9968C82.3349 94.9447 81.7675 91.9157 80.6307 89.083C79.4939 86.2502 77.81 83.6693 75.6753 81.4877C73.5406 79.3061 70.9968 77.5665 68.1895 76.3685C65.3821 75.1705 62.3661 74.5374 59.314 74.5055ZM58.8008 119.788C46.8785 119.654 37.3457 109.692 37.4635 97.513C37.5812 85.3341 47.3749 75.5909 59.2972 75.7255C71.2195 75.8602 80.7775 85.8221 80.6387 98.022C80.4999 110.222 70.7231 119.902 58.8008 119.788Z" fill="#263238"/>
<path d="M25.9031 110.134L25.5539 117.1C25.5539 117.1 32.5163 119.797 32.5752 121.088L19.0459 120.895L19.1469 110.02L25.9031 110.134Z" fill="#263238"/>
<path d="M19.0459 120.895V119.843L32.041 120.394C32.041 120.394 32.6425 120.668 32.5668 121.088L19.0459 120.895Z" fill="#455A64"/>
<path d="M25.7727 117.033C25.7727 117.1 25.4403 117.125 25.1122 117.336C24.7841 117.546 24.6032 117.815 24.5443 117.79C24.4854 117.765 24.5864 117.369 24.9902 117.138C25.3941 116.907 25.7895 116.974 25.7727 117.033Z" fill="white"/>
<path d="M27.1904 117.643C27.1904 117.706 26.917 117.815 26.6898 118.093C26.4626 118.371 26.3911 118.661 26.328 118.657C26.2649 118.653 26.2228 118.278 26.5131 117.942C26.8034 117.605 27.1904 117.58 27.1904 117.643Z" fill="white"/>
<path d="M27.9646 119.368C27.9057 119.368 27.8173 119.052 27.994 118.69C28.1707 118.329 28.4778 118.194 28.5073 118.249C28.5367 118.303 28.339 118.493 28.2002 118.791C28.0613 119.09 28.0319 119.368 27.9646 119.368Z" fill="white"/>
<path d="M25.6758 115.439C25.6464 115.497 25.3477 115.405 24.9733 115.439C24.5989 115.472 24.3044 115.573 24.2707 115.518C24.2371 115.464 24.5232 115.228 24.9607 115.211C25.3982 115.195 25.7095 115.388 25.6758 115.439Z" fill="white"/>
<path d="M13.6568 110.134L13.3076 117.1C13.3076 117.1 20.27 119.797 20.3289 121.088L6.79956 120.895L6.90052 110.02L13.6568 110.134Z" fill="#263238"/>
<path d="M6.79956 120.895V119.843L19.7946 120.394C19.7946 120.394 20.392 120.668 20.3163 121.088L6.79956 120.895Z" fill="#455A64"/>
<path d="M13.5262 117.033C13.5262 117.1 13.1938 117.125 12.8657 117.336C12.5376 117.546 12.3609 117.815 12.302 117.79C12.2431 117.765 12.344 117.369 12.7227 117.138C13.1013 116.907 13.543 116.974 13.5262 117.033Z" fill="white"/>
<path d="M14.9399 117.643C14.9399 117.706 14.6665 117.815 14.4351 118.093C14.2037 118.371 14.1406 118.661 14.0733 118.657C14.006 118.653 13.9724 118.278 14.2626 117.942C14.5529 117.605 14.9399 117.58 14.9399 117.643Z" fill="white"/>
<path d="M15.7182 119.368C15.6594 119.368 15.571 119.052 15.7477 118.69C15.9244 118.329 16.2315 118.194 16.2609 118.249C16.2904 118.303 16.0927 118.493 15.9538 118.791C15.815 119.09 15.7856 119.368 15.7182 119.368Z" fill="white"/>
<path d="M13.4297 115.439C13.4045 115.497 13.1016 115.405 12.7272 115.439C12.3528 115.472 12.0625 115.573 12.0288 115.518C11.9952 115.464 12.277 115.228 12.7188 115.211C13.1605 115.195 13.4634 115.388 13.4297 115.439Z" fill="white"/>
<path d="M7.75065 50.072C7.58238 50.2782 2.54253 57.8884 2.90432 62.415C3.26611 66.9416 3.45963 68.5402 5.70611 71.1948C5.70611 71.1948 6.66107 85.4519 6.70314 87.2903C6.70314 87.4965 6.15625 90.9671 5.82811 99.6838C5.62618 105.085 5.7019 115.922 5.7019 115.922L15.9877 116.116C15.9877 116.116 16.8712 97.4878 17.3466 96.0617C17.9159 94.2386 18.2896 92.3602 18.4614 90.4581C18.6212 88.4304 20.6784 74.2111 20.6784 74.4719C20.6784 74.7328 23.5096 61.5063 23.7116 58.2839C23.8379 56.4097 23.8379 54.5292 23.7116 52.6551L7.75065 50.072Z" fill="#455A64"/>
<path d="M22.1168 58.8265C22.3187 59.1168 30.4296 87.3997 30.4296 89.3264C30.4296 91.2532 27.6741 115.582 27.6741 115.582L17.628 115.779L19.3739 90.8241L18.3769 85.048L12.4199 69.9243L22.1168 58.8265Z" fill="#455A64"/>
<path d="M23.6693 58.7887C23.673 58.8166 23.673 58.8449 23.6693 58.8728C23.6693 58.9345 23.6609 59.0145 23.6441 59.1126C23.6188 59.3314 23.5852 59.6385 23.5431 60.0255C23.4463 60.8206 23.3454 61.9733 23.1224 63.391C23.0046 64.0978 22.8321 64.8634 22.6554 65.6838C22.4788 66.5041 22.2936 67.3876 22.1001 68.3089C21.7131 70.1599 21.3008 72.2002 20.897 74.3415C20.085 78.6326 19.4877 82.5408 19.109 85.372C18.9197 86.7897 18.7809 87.9382 18.6883 88.7375C18.6421 89.1245 18.6042 89.4316 18.5748 89.6546C18.5748 89.7471 18.5748 89.8271 18.5453 89.8902C18.5159 89.9533 18.5453 89.9701 18.5453 89.9701V89.9196C18.5453 89.8523 18.5453 89.7766 18.5453 89.6798C18.5453 89.4569 18.5916 89.1498 18.6295 88.7627C18.701 87.9634 18.823 86.8107 18.9997 85.3972C19.3446 82.5576 19.9294 78.641 20.7413 74.35C21.162 72.2044 21.5617 70.1683 21.9571 68.3173C22.159 67.3918 22.3497 66.5167 22.5292 65.6922C22.7101 64.8508 22.891 64.1104 23.013 63.4079C23.2612 62.0028 23.379 60.8459 23.4926 60.0424C23.5515 59.6595 23.5978 59.3524 23.6272 59.1295C23.6272 59.0369 23.6609 58.957 23.6693 58.8939C23.6645 58.859 23.6645 58.8236 23.6693 58.7887Z" fill="#263238"/>
<path d="M13.148 3.01379C12.2603 1.91579 9.91289 1.94103 9.31972 2.5931C8.91561 2.37445 8.44284 2.31976 7.99949 2.44039C7.55614 2.56102 7.17625 2.84771 6.93863 3.24096L4.4145 3.64061C3.97901 3.67644 3.55951 3.8211 3.1945 4.0613C3.01606 4.1859 2.88934 4.37143 2.8382 4.58296C2.78706 4.7945 2.81503 5.01744 2.91685 5.20978C2.70484 5.27197 2.51118 5.38493 2.35268 5.53886C2.19418 5.69279 2.0756 5.88304 2.00722 6.09314C1.93885 6.30325 1.92274 6.52685 1.96029 6.74458C1.99784 6.96232 2.08791 7.16761 2.22271 7.34267C2.13373 7.43529 2.06453 7.54505 2.01932 7.66526C1.97411 7.78548 1.95385 7.91364 1.95975 8.04194C1.96565 8.17024 1.99761 8.296 2.05366 8.41156C2.10972 8.52712 2.18871 8.63006 2.28581 8.71412C1.55267 9.50178 0.958119 10.4078 0.527337 11.3939C0.307936 11.7911 0.237805 12.2537 0.329613 12.698C0.357462 12.8052 0.408213 12.905 0.478372 12.9907C0.54853 13.0763 0.636427 13.1457 0.736 13.1941C0.835572 13.2425 0.944455 13.2687 1.05514 13.2709C1.16582 13.2732 1.27568 13.2514 1.37713 13.2071C1.24477 13.3729 1.16289 13.5733 1.14126 13.7844C1.11963 13.9955 1.15916 14.2084 1.25513 14.3976C0.834438 14.3976 0.67037 15.0286 0.943818 15.3526C1.10041 15.4936 1.28421 15.601 1.4839 15.6683C1.68358 15.7356 1.89493 15.7613 2.10492 15.7438C2.52823 15.7099 2.95161 15.8084 3.3165 16.0257C3.30993 16.0765 3.29311 16.1254 3.26708 16.1695C3.24105 16.2136 3.20634 16.252 3.16505 16.2823C2.79442 16.5306 2.53353 16.912 2.43642 17.3475C2.3393 17.7829 2.41342 18.239 2.6434 18.6213L2.7696 18.8191C3.09581 19.2049 3.49642 19.5211 3.94753 19.7488C4.86884 20.2999 5.44098 20.2368 6.4969 20.4513C6.16877 21.1202 7.80524 22.7357 9.86241 21.3558C13.3364 22.5726 16.968 23.2811 20.6447 23.4592C21.2252 23.4929 21.9067 23.4592 22.218 22.946C22.456 23.0054 22.7051 23.0034 22.9421 22.9401C23.179 22.8768 23.396 22.7544 23.5726 22.5842C23.9211 22.2416 24.2059 21.84 24.414 21.3979C24.9262 21.2831 25.3898 21.0115 25.7404 20.621C26.0911 20.2304 26.3112 19.7402 26.3702 19.2187C26.7269 18.9684 27.0275 18.6464 27.2528 18.2734C27.4781 17.9003 27.6231 17.4844 27.6786 17.0522C27.922 16.9801 28.1479 16.8586 28.3421 16.6952C28.5363 16.5317 28.6947 16.3299 28.8073 16.1024C28.9198 15.8749 28.9842 15.6266 28.9963 15.373C29.0084 15.1195 28.9679 14.8662 28.8775 14.629C28.7336 13.4128 28.3896 12.2287 27.8595 11.1247C28.5368 11.0195 28.8355 10.1318 28.5999 9.49239C28.2939 8.87607 27.8142 8.36276 27.22 8.01577C27.7122 8.17563 28.1834 7.57405 28.0908 7.06502C28.0176 6.81632 27.8959 6.58458 27.7328 6.38313C27.5696 6.18169 27.3682 6.01453 27.1401 5.89129C26.5122 5.46589 25.8357 5.11705 25.125 4.85219C24.9357 3.96033 23.8629 2.896 23.0678 2.45848C19.8411 0.700004 17.5358 0.169937 13.1312 3.03062" fill="#263238"/>
<path d="M22.0325 9.86253C21.8979 7.56137 20.3834 4.73434 18.0949 4.96572L10.9432 6.74523C10.6078 6.77891 10.2972 6.93719 10.0729 7.18879C9.84852 7.44039 9.72674 7.767 9.73158 8.10406L9.90827 23.4339C9.9197 24.4024 10.265 25.3373 10.8858 26.0808C11.5066 26.8242 12.3649 27.3307 13.3158 27.5146C15.3352 27.9017 19.0246 28.4233 19.765 26.6438L18.2085 24.6876C18.2589 23.6359 18.3978 21.7428 18.402 21.7428C18.4062 21.7428 21.3468 21.2674 21.9652 17.4391C22.2639 15.5418 22.1798 12.4161 22.0325 9.86253Z" fill="#C0645A"/>
<path d="M21.0022 12.9042C21.0034 13.0326 20.9543 13.1564 20.8655 13.2491C20.7767 13.3418 20.6552 13.3962 20.5268 13.4006C20.4641 13.4057 20.401 13.3982 20.3413 13.3783C20.2816 13.3585 20.2266 13.3268 20.1794 13.2852C20.1323 13.2435 20.094 13.1928 20.067 13.136C20.0399 13.0792 20.0246 13.0175 20.022 12.9547C20.0208 12.8263 20.0699 12.7025 20.1587 12.6097C20.2475 12.517 20.369 12.4626 20.4974 12.4582C20.5598 12.4543 20.6224 12.4626 20.6817 12.4829C20.7409 12.5032 20.7955 12.5349 20.8424 12.5764C20.8893 12.6178 20.9275 12.6681 20.955 12.7243C20.9824 12.7806 20.9984 12.8417 21.0022 12.9042Z" fill="#263238"/>
<path d="M21.3471 11.4865C21.284 11.5496 20.9264 11.2719 20.3837 11.2719C19.841 11.2719 19.4666 11.5327 19.4119 11.4654C19.3572 11.3981 19.4456 11.3224 19.6138 11.2004C19.8412 11.0428 20.1113 10.9584 20.3879 10.9584C20.6646 10.9584 20.9346 11.0428 21.162 11.2004C21.3218 11.3392 21.3765 11.457 21.3471 11.4865Z" fill="#263238"/>
<path d="M16.3154 12.7989C16.3155 12.9265 16.266 13.0492 16.1773 13.1411C16.0886 13.2329 15.9677 13.2867 15.84 13.2911C15.7774 13.2962 15.7143 13.2887 15.6546 13.2688C15.5949 13.249 15.5398 13.2173 15.4926 13.1757C15.4455 13.134 15.4072 13.0833 15.3802 13.0265C15.3531 12.9697 15.3378 12.908 15.3352 12.8451C15.3341 12.7171 15.3833 12.5938 15.4722 12.5018C15.5611 12.4097 15.6826 12.3562 15.8106 12.3529C15.8732 12.3484 15.936 12.3564 15.9955 12.3764C16.0549 12.3965 16.1098 12.4282 16.1568 12.4697C16.2038 12.5113 16.2421 12.5618 16.2693 12.6183C16.2966 12.6748 16.3122 12.7362 16.3154 12.7989Z" fill="#263238"/>
<path d="M16.1474 11.5622C16.0843 11.6253 15.7267 11.3476 15.184 11.3476C14.6413 11.3476 14.2669 11.6084 14.2122 11.5453C14.1575 11.4822 14.2459 11.3981 14.4141 11.2761C14.6415 11.1185 14.9116 11.0341 15.1882 11.0341C15.4648 11.0341 15.7349 11.1185 15.9623 11.2761C16.1221 11.4149 16.1768 11.5327 16.1474 11.5622Z" fill="#263238"/>
<path d="M18.0487 15.4914C18.3223 15.4085 18.6047 15.3577 18.8901 15.34C19.0247 15.34 19.1509 15.3021 19.1761 15.2096C19.1889 15.0637 19.1582 14.9173 19.0878 14.7889C18.9616 14.465 18.827 14.12 18.6923 13.7624C18.3242 12.8889 18.0274 11.9871 17.8047 11.0658C18.2397 11.908 18.6082 12.7829 18.9069 13.6825C19.0359 14.0443 19.1621 14.3892 19.2855 14.7174C19.3684 14.8825 19.3922 15.0711 19.3528 15.2516C19.3328 15.2987 19.3023 15.3406 19.2637 15.3742C19.2251 15.4077 19.1793 15.432 19.1299 15.4452C19.0543 15.4652 18.9766 15.4765 18.8985 15.4788C18.6168 15.5174 18.3314 15.5216 18.0487 15.4914Z" fill="#263238"/>
<path d="M18.3897 21.7681C16.5843 21.788 14.8088 21.306 13.2615 20.3756C13.2615 20.3756 14.4941 23.0133 18.3097 22.6726L18.3897 21.7681Z" fill="#924640"/>
<path d="M16.3915 9.38297C16.3368 9.526 15.8109 9.45869 15.1883 9.53021C14.5657 9.60173 14.0651 9.77 13.9851 9.63959C13.9473 9.57648 14.0356 9.44186 14.2375 9.30304C14.507 9.12973 14.8145 9.02435 15.1336 8.99594C15.4509 8.9597 15.7723 8.99861 16.0717 9.10952C16.2989 9.20207 16.4125 9.31566 16.3915 9.38297Z" fill="#263238"/>
<path d="M21.1658 9.66489C21.0733 9.78269 20.7115 9.66489 20.274 9.66489C19.8365 9.66489 19.462 9.74482 19.3779 9.61862C19.2938 9.49241 19.3779 9.43772 19.563 9.32414C19.779 9.18423 20.0338 9.11648 20.2908 9.13062C20.5492 9.13304 20.8 9.21859 21.006 9.37462C21.1574 9.47979 21.2079 9.606 21.1658 9.66489Z" fill="#263238"/>
<path d="M23.661 11.7851C23.6762 11.1769 23.4799 10.5822 23.1057 10.1024C22.8954 9.84998 22.6177 9.65225 22.4326 9.38301C22.0119 8.79405 22.1297 8.01157 21.9783 7.31743C21.8788 6.86963 21.6744 6.45187 21.3819 6.09859C21.0893 5.7453 20.7169 5.46663 20.2955 5.28551C19.593 4.99524 18.7768 4.99103 18.1205 4.59979C17.6368 4.30951 17.2792 3.83413 16.7785 3.57331C15.8025 3.06848 14.6204 3.52283 13.6528 4.04027C13.4299 4.78068 13.8716 5.44958 14.2965 6.09323C14.5117 6.41528 14.7943 6.68668 15.1248 6.88863C15.4554 7.09057 15.8259 7.21823 16.2106 7.26275C16.808 7.33006 17.5105 7.22909 17.8934 7.68343C18.2762 8.13778 18.1037 8.9455 18.4403 9.46715C18.9241 10.2286 20.123 10.0056 20.8718 10.4978C21.4566 10.8765 21.6712 11.6085 21.9446 12.2479C22.218 12.8873 22.706 13.5689 23.4002 13.5689C23.5564 12.9865 23.6439 12.3879 23.661 11.7851Z" fill="#263238"/>
<path d="M15.062 5.47896C13.3127 5.36908 11.5586 5.59763 9.89591 6.15206C9.38486 6.27743 8.92677 6.56171 8.58757 6.96399C8.35557 7.36138 8.24174 7.81671 8.25943 8.27653C8.20474 9.71108 8.68012 11.4906 9.17653 12.841L10.914 14.0021C12.3065 13.7413 11.7932 11.3349 11.7848 10.136C12.274 9.94064 12.6985 9.61195 13.0101 9.1873C13.3217 8.76265 13.5079 8.25907 13.5475 7.73385C13.9537 7.49662 14.301 7.17054 14.5632 6.78003C14.8255 6.38952 14.996 5.94472 15.062 5.47896Z" fill="#263238"/>
<path d="M10.914 13.4847C10.914 12.6644 9.90019 12.454 9.1766 12.8411C8.75592 13.0556 8.46564 13.5016 8.47406 14.3724C8.47406 16.6988 10.8257 16.1982 10.8257 16.1309C10.8257 16.0636 10.9309 14.4481 10.914 13.4847Z" fill="#C0645A"/>
<path d="M10.1105 15.2557C10.1105 15.2557 10.0684 15.2851 10.0011 15.3188C9.90364 15.3564 9.79567 15.3564 9.6982 15.3188C9.54651 15.2254 9.42272 15.093 9.33982 14.9353C9.25692 14.7777 9.21797 14.6006 9.22703 14.4227C9.21845 14.2234 9.25588 14.0247 9.33641 13.8422C9.3569 13.7693 9.39479 13.7025 9.44683 13.6476C9.49886 13.5926 9.56347 13.5511 9.6351 13.5267C9.68214 13.5138 9.73221 13.5176 9.77672 13.5376C9.82123 13.5575 9.85742 13.5923 9.8791 13.636C9.90855 13.6991 9.8791 13.7496 9.90855 13.7538C9.93799 13.758 9.95482 13.7118 9.93799 13.615C9.92402 13.5583 9.89143 13.508 9.84544 13.472C9.78011 13.4239 9.69875 13.4028 9.61827 13.4131C9.52322 13.4342 9.43496 13.4788 9.36149 13.5427C9.28803 13.6066 9.23169 13.6879 9.19759 13.7791C9.10193 13.9813 9.05579 14.2034 9.06297 14.4269C9.05416 14.6344 9.10648 14.8399 9.21342 15.0179C9.32037 15.1959 9.47723 15.3385 9.66455 15.4282C9.72724 15.4465 9.79334 15.4499 9.8576 15.4382C9.92185 15.4265 9.98251 15.4001 10.0348 15.3609C10.1063 15.3146 10.1189 15.2599 10.1105 15.2557Z" fill="#924640"/>
<path d="M8.899 16.6568C8.77456 16.6543 8.65062 16.6402 8.5288 16.6147C8.38178 16.59 8.23972 16.5417 8.10811 16.4717H8.13756C8.09587 16.667 8.00432 16.8482 7.87184 16.9976C7.73936 17.147 7.57046 17.2596 7.38156 17.3244C7.19266 17.3892 6.9902 17.404 6.79389 17.3674C6.59758 17.3307 6.41409 17.2439 6.26129 17.1153H6.30336C6.26576 17.1657 6.21848 17.208 6.1643 17.2398C6.11011 17.2715 6.05012 17.2922 5.98784 17.3004C5.86123 17.3233 5.73067 17.3071 5.61343 17.2542C5.49201 17.1994 5.39059 17.1082 5.32315 16.9933C5.25782 16.8749 5.22447 16.7415 5.2264 16.6063C5.22948 16.326 5.3324 16.056 5.51667 15.8449C5.70434 15.6287 5.91928 15.4378 6.15612 15.2769V15.3316C6.06385 15.2649 5.98608 15.1802 5.92751 15.0826C5.86894 14.985 5.83078 14.8765 5.81536 14.7637C5.78162 14.5315 5.81672 14.2946 5.91633 14.0822C6.01869 13.87 6.16161 13.6799 6.33701 13.5227C6.51909 13.371 6.71015 13.2306 6.90915 13.102V13.1524C6.83094 13.0588 6.77329 12.9497 6.73995 12.8323C6.70662 12.7149 6.69833 12.5917 6.71563 12.4709C6.74226 12.2204 6.84503 11.984 7.01011 11.7936C7.34094 11.465 7.7403 11.2136 8.17963 11.0574L8.1586 11.0995C8.11141 10.8549 8.12394 10.6026 8.19512 10.3639C8.2663 10.1252 8.39402 9.90716 8.56745 9.72836C8.74088 9.54957 8.95489 9.41525 9.19131 9.33684C9.42773 9.25842 9.67958 9.2382 9.92549 9.27791L9.88763 9.31577C9.86511 9.12155 9.88387 8.92477 9.94268 8.73831C10.0015 8.55185 10.099 8.37991 10.2289 8.23376C10.3588 8.08761 10.518 7.97054 10.6963 7.89021C10.8745 7.80989 11.0678 7.76811 11.2633 7.76764L11.2296 7.79708C11.2448 7.60005 11.3046 7.40906 11.4045 7.23852C11.5043 7.06799 11.6416 6.92237 11.806 6.81267C11.9459 6.70977 12.1055 6.63686 12.2749 6.5985C12.4443 6.56013 12.6198 6.55714 12.7904 6.58971H12.7609C12.7862 6.38015 12.8612 6.17967 12.9797 6.00495C13.08 5.84469 13.2065 5.70247 13.3541 5.58426C13.5825 5.39688 13.8665 5.29037 14.1618 5.28137H14.2502H14.3301C14.3791 5.27844 14.4283 5.27844 14.4773 5.28137C14.552 5.30132 14.6251 5.32663 14.6961 5.3571L14.8223 5.41599L14.8644 5.44123H14.8181L14.6919 5.38654C14.621 5.35803 14.5478 5.33551 14.4731 5.31923C14.4259 5.30955 14.3781 5.30253 14.3301 5.2982H14.2502H14.1618C13.8732 5.30897 13.5964 5.41555 13.3751 5.6011C13.2321 5.72034 13.1098 5.8625 13.0133 6.02178C12.8997 6.19161 12.8289 6.3865 12.8072 6.58971V6.62336H12.782C12.6176 6.5938 12.4489 6.59795 12.2862 6.63555C12.1235 6.67316 11.9701 6.74344 11.8354 6.84212C11.6797 6.94837 11.5497 7.08817 11.455 7.25124C11.3604 7.41431 11.3035 7.59651 11.2885 7.78446V7.81391H11.2591C11.0731 7.81499 10.8895 7.85532 10.7202 7.93226C10.5509 8.0092 10.3997 8.12102 10.2766 8.26041C10.1535 8.39979 10.0612 8.56361 10.0058 8.74112C9.95034 8.91864 9.93302 9.10586 9.95493 9.29053V9.3368H9.90866C9.67388 9.29918 9.4335 9.31881 9.20794 9.39402C8.98237 9.46924 8.77831 9.59781 8.6131 9.7688C8.44788 9.9398 8.32641 10.1482 8.259 10.3762C8.19159 10.6042 8.18023 10.8451 8.2259 11.0785V11.1079H8.20066C7.7705 11.2576 7.37946 11.502 7.05639 11.8231C6.90189 12.0036 6.80516 12.2264 6.77874 12.4625C6.76173 12.5736 6.76869 12.687 6.79917 12.7951C6.82965 12.9032 6.88293 13.0035 6.95543 13.0893L6.98067 13.1188L6.94701 13.144C6.54132 13.3753 6.20335 13.709 5.96681 14.1116C5.87084 14.3101 5.83711 14.533 5.87005 14.7511C5.88179 14.8558 5.91561 14.9568 5.96927 15.0474C6.02294 15.1381 6.09522 15.2163 6.18136 15.2769L6.21922 15.3022L6.18136 15.3316C5.94869 15.4881 5.73668 15.6732 5.55033 15.8827C5.37703 16.083 5.27886 16.3373 5.27267 16.6021C5.26563 16.7255 5.29547 16.8482 5.3584 16.9546C5.42133 17.061 5.5145 17.1462 5.62605 17.1995C5.72723 17.2528 5.84352 17.2702 5.95586 17.2488C6.06821 17.2274 6.16997 17.1685 6.24446 17.0817V17.0564L6.2697 17.0775C6.4287 17.2102 6.62143 17.2963 6.82643 17.326C7.03143 17.3557 7.24065 17.3279 7.4308 17.2457C7.58988 17.1737 7.73027 17.066 7.84114 16.9311C7.95201 16.7961 8.0304 16.6375 8.07025 16.4675V16.4422C8.19291 16.5089 8.32475 16.5571 8.46149 16.5853C8.58032 16.6123 8.70148 16.6278 8.82328 16.6315C9.01745 16.6443 9.21218 16.6171 9.39542 16.5516C9.51057 16.5133 9.60973 16.4379 9.67728 16.3371C9.71514 16.2655 9.72355 16.2235 9.72776 16.2235C9.7298 16.2332 9.7298 16.2432 9.72776 16.2529C9.72202 16.2842 9.71061 16.3141 9.69411 16.3413C9.62792 16.4461 9.52878 16.526 9.41225 16.5684" fill="#455A64"/>
<path d="M1.10771 13.2997C1.07595 13.255 1.04914 13.2071 1.02778 13.1566C0.964705 13.0088 0.930437 12.8503 0.926819 12.6897C0.9213 12.4327 1.0012 12.1812 1.15399 11.9745C1.25544 11.8355 1.38505 11.7194 1.53438 11.6339C1.6837 11.5484 1.84938 11.4953 2.02061 11.4781L1.99958 11.5075C1.94044 11.109 2.03519 10.7029 2.26461 10.3717C2.38861 10.1852 2.5524 10.0286 2.74419 9.91312C2.9506 9.80193 3.16764 9.71172 3.39205 9.64387C3.50318 9.60446 3.60803 9.5492 3.70336 9.47981C3.79989 9.40643 3.87773 9.31131 3.93053 9.20216C4.04412 8.9876 4.0904 8.72257 4.23343 8.49119C4.38368 8.25315 4.60197 8.06572 4.86001 7.95321C5.11804 7.84069 5.40392 7.80828 5.6806 7.86016L5.63853 7.89802C5.61279 7.6143 5.65244 7.32846 5.75443 7.06246C5.85641 6.79646 6.01802 6.55738 6.22684 6.36359C6.43566 6.16981 6.68613 6.02647 6.95899 5.9446C7.23186 5.86273 7.51986 5.84451 7.80087 5.89133L7.763 5.9292C7.74458 5.61932 7.81491 5.31061 7.96573 5.03929C8.11655 4.76796 8.34162 4.54527 8.61453 4.39734C8.88744 4.2494 9.19687 4.18235 9.50654 4.20406C9.8162 4.22577 10.1133 4.33533 10.3629 4.51989H10.325C10.5703 4.31078 10.857 4.15594 11.1664 4.06555C11.4396 3.98075 11.7221 3.92989 12.0078 3.9141C12.471 3.88711 12.9354 3.94267 13.3792 4.07817C13.6657 4.16016 13.9371 4.28803 14.1827 4.45679C14.2462 4.50175 14.3067 4.55094 14.3636 4.60403L14.4225 4.65872C14.4225 4.65872 14.3384 4.5872 14.1701 4.46941C13.9236 4.30884 13.6541 4.18684 13.3708 4.10762C12.9293 3.98262 12.4697 3.93424 12.012 3.96458C11.7262 3.97909 11.4435 4.02999 11.1706 4.11603C10.8716 4.20813 10.5951 4.36143 10.3587 4.56617C10.1192 4.38138 9.83147 4.26973 9.53006 4.24466C9.22865 4.21958 8.92642 4.28214 8.65973 4.42482C8.39305 4.56749 8.17328 4.7842 8.02688 5.04886C7.88047 5.31352 7.81367 5.61485 7.83452 5.91658V5.95865H7.78825C7.51682 5.91027 7.2379 5.92516 6.97317 6.00217C6.70844 6.07919 6.46506 6.21623 6.26194 6.40266C6.05883 6.58909 5.90146 6.81987 5.80209 7.07704C5.70272 7.33421 5.66402 7.61083 5.68901 7.8854V7.93168H5.64274C5.37945 7.88382 5.10789 7.91502 4.86231 8.02134C4.61674 8.12765 4.40815 8.30432 4.26288 8.52905C4.12826 8.74781 4.08198 9.00864 3.96419 9.23581C3.90573 9.35205 3.82243 9.45402 3.72019 9.5345C3.61673 9.60512 3.50515 9.66303 3.38785 9.70698C3.16703 9.77201 2.95291 9.85794 2.7484 9.9636C2.56713 10.0709 2.40967 10.214 2.28564 10.3843C2.06061 10.7031 1.96581 11.0959 2.02061 11.4823V11.5075H1.99537C1.83015 11.5235 1.67005 11.5737 1.52522 11.6548C1.38039 11.7359 1.25398 11.8462 1.15399 11.9787C1.00325 12.1787 0.921999 12.4224 0.922611 12.6728C0.922752 12.8313 0.952722 12.9882 1.01096 13.1356C1.06144 13.2492 1.10771 13.2997 1.10771 13.2997Z" fill="#455A64"/>
<path d="M23.2442 15.037C23.2306 15.0073 23.2235 14.975 23.2235 14.9424C23.2235 14.9097 23.2306 14.8774 23.2442 14.8477C23.2746 14.7732 23.3257 14.709 23.3914 14.6626C23.4782 14.5969 23.579 14.5523 23.6859 14.5322C23.815 14.5048 23.9396 14.4595 24.0561 14.3976C24.1841 14.3107 24.2813 14.1855 24.3338 14.04C24.3953 13.8703 24.4239 13.6903 24.4179 13.5099C24.4179 13.3164 24.4179 13.1145 24.4179 12.8957C24.4879 12.4317 24.6107 11.9772 24.7839 11.5411C24.855 11.294 24.8779 11.0354 24.8512 10.7796C24.839 10.6462 24.7981 10.5169 24.7313 10.4008C24.6645 10.2846 24.5734 10.1842 24.4642 10.1065C24.2112 9.97017 23.9428 9.86426 23.6649 9.79103C23.5136 9.74376 23.3713 9.67122 23.2442 9.57648C23.1204 9.47565 23.026 9.34344 22.9708 9.19365C22.8698 8.89347 22.802 8.58311 22.7688 8.26814C22.7469 8.11298 22.7 7.96239 22.63 7.82221C22.5605 7.68264 22.4465 7.57016 22.3061 7.50248C22.0986 7.43708 21.8838 7.39752 21.6666 7.38469C21.5552 7.37122 21.4471 7.33848 21.3469 7.28793C21.2453 7.2339 21.1597 7.15411 21.0987 7.05655C21.0007 6.86647 20.9286 6.66416 20.8841 6.45497C20.8116 6.16703 20.6511 5.90889 20.4248 5.71659C20.1986 5.52428 19.9179 5.40739 19.6221 5.38222C19.2615 5.35475 18.904 5.46443 18.6208 5.68932L18.5872 5.71456V5.6767C18.4705 5.38456 18.2926 5.12078 18.0654 4.90309C17.8383 4.68541 17.5672 4.51886 17.2704 4.41463C17.0212 4.33155 16.7587 4.29588 16.4964 4.30946C16.2747 4.31966 16.0567 4.36953 15.8527 4.4567C15.564 4.58052 15.3171 4.78502 15.1417 5.04567C15.0949 5.11283 15.0528 5.18311 15.0155 5.25601L14.9861 5.31491L15.0113 5.25601C15.1819 4.88377 15.4805 4.58518 15.8527 4.41463C16.0615 4.32267 16.2853 4.26991 16.5132 4.25898C16.7809 4.2403 17.0497 4.2746 17.3041 4.35994C17.6089 4.46473 17.8878 4.63341 18.1221 4.85469C18.3564 5.07597 18.5408 5.34475 18.6629 5.64304H18.6124C18.9081 5.40653 19.2824 5.29079 19.6599 5.31911C19.8616 5.33445 20.0578 5.39178 20.2361 5.48741C20.4143 5.58304 20.5705 5.71486 20.6948 5.87442C20.8276 6.03812 20.9224 6.22921 20.9725 6.43394C21.0138 6.63746 21.0832 6.83426 21.1786 7.01869C21.2367 7.10495 21.3141 7.17648 21.4046 7.22759C21.4952 7.27871 21.5964 7.30802 21.7003 7.31318C21.9221 7.32705 22.1413 7.36947 22.3523 7.43938C22.5079 7.51306 22.635 7.63572 22.7141 7.78856C22.7871 7.93565 22.8368 8.09318 22.8614 8.25552C22.8941 8.5657 22.959 8.87163 23.0549 9.16841C23.1086 9.3052 23.1953 9.42659 23.3073 9.52179C23.4239 9.61165 23.5547 9.68133 23.6943 9.72793C23.9781 9.7995 24.2511 9.90842 24.5063 10.0519C24.6271 10.1338 24.7266 10.2434 24.7965 10.3716C24.8629 10.5034 24.9056 10.6457 24.9227 10.7923C24.949 11.0569 24.9233 11.3242 24.847 11.579C24.6742 12.0112 24.55 12.4613 24.4768 12.921C24.4768 13.1313 24.4768 13.3416 24.4768 13.5309C24.4797 13.716 24.4483 13.9 24.3843 14.0736C24.326 14.2265 24.2216 14.3573 24.0856 14.4481C23.9651 14.5101 23.8361 14.5541 23.7028 14.5785C23.5999 14.5985 23.5024 14.6401 23.4167 14.7005C23.3543 14.744 23.3049 14.8036 23.2736 14.8729C23.248 14.9236 23.2378 14.9806 23.2442 15.037Z" fill="#455A64"/>
<path d="M27.9263 11.6717L27.9052 11.6254L27.8463 11.495L27.6318 10.9775C27.5392 10.7546 27.4341 10.4769 27.2826 10.1698C27.121 9.81797 26.8664 9.5169 26.5464 9.29898C26.3613 9.1896 26.151 9.10967 25.9364 9.0045C25.8258 8.95063 25.7226 8.88276 25.6293 8.80256C25.5303 8.7172 25.4537 8.60887 25.4063 8.48705C25.3096 8.24305 25.318 7.9696 25.2423 7.71719C25.2099 7.58879 25.1378 7.47392 25.0361 7.38906C24.9266 7.3033 24.8027 7.23776 24.6701 7.19554C24.5315 7.14987 24.3976 7.09069 24.2705 7.01885C24.1351 6.93931 24.029 6.81837 23.9676 6.67388C23.8751 6.37951 23.8241 6.07367 23.8161 5.7652C23.7999 5.61737 23.7541 5.47431 23.6815 5.34451C23.6014 5.21376 23.4729 5.11999 23.3239 5.08368C23.021 5.00375 22.6887 5.08368 22.3521 5.02478C22.1888 4.98463 22.0419 4.895 21.9315 4.76816C21.8255 4.63898 21.7351 4.49778 21.6622 4.34747C21.5915 4.20301 21.5128 4.06257 21.4266 3.92679C21.3444 3.79879 21.2317 3.69325 21.0985 3.61968C20.8191 3.51052 20.5113 3.4972 20.2235 3.58182C19.935 3.65788 19.6334 3.66938 19.34 3.61548C19.0678 3.53283 18.8127 3.40171 18.587 3.22844C18.3805 3.06776 18.1594 2.92691 17.9265 2.80775C17.4888 2.63685 17.0107 2.59738 16.5509 2.69417C16.1705 2.77215 15.8125 2.93461 15.5033 3.16955C15.2726 3.34948 15.0723 3.56539 14.9102 3.80899C14.807 3.9617 14.7183 4.12366 14.6451 4.29279C14.6199 4.35168 14.5989 4.39375 14.582 4.42741V4.46948C14.582 4.46948 14.582 4.46948 14.582 4.4232L14.6325 4.28858C14.7041 4.11628 14.79 3.95024 14.8891 3.79217C15.0521 3.54429 15.2538 3.32415 15.4865 3.1401C15.7953 2.89594 16.1569 2.72738 16.5424 2.6479C17.0122 2.54163 17.503 2.57825 17.9517 2.75307C18.1907 2.87083 18.4176 3.01173 18.6291 3.17376C18.8478 3.34029 19.0942 3.46703 19.3568 3.54817C19.6368 3.59573 19.9237 3.58282 20.1982 3.51031C20.3482 3.48123 20.5 3.46296 20.6526 3.45562C20.8139 3.44823 20.9744 3.4815 21.1195 3.55237C21.263 3.63223 21.3844 3.74642 21.4729 3.88472C21.5613 4.01513 21.637 4.16237 21.7127 4.30541C21.7818 4.44851 21.8679 4.58271 21.9693 4.70506C22.0751 4.82373 22.2145 4.90737 22.369 4.94485C22.6803 5.01216 23.0168 4.91961 23.345 5.00375C23.5092 5.04615 23.6508 5.15009 23.7404 5.29402C23.8201 5.4365 23.8688 5.59419 23.8835 5.75678C23.8922 6.05934 23.9417 6.35933 24.0307 6.64864C24.0861 6.77905 24.182 6.8882 24.3041 6.95995C24.4289 7.03061 24.5599 7.08975 24.6954 7.13664C24.8337 7.1814 24.9632 7.24972 25.0782 7.33857C25.1866 7.43283 25.2642 7.55738 25.3012 7.69616C25.3811 7.9654 25.3685 8.23464 25.461 8.46602C25.5595 8.68661 25.7386 8.86119 25.9617 8.95401C26.1678 9.06339 26.3823 9.14332 26.5716 9.25691C26.8993 9.47953 27.1574 9.79013 27.3163 10.153C27.4677 10.4643 27.5687 10.7419 27.657 10.9691L27.859 11.4866L27.9094 11.6254C27.9161 11.6404 27.9218 11.6559 27.9263 11.6717Z" fill="#455A64"/>
<path d="M25.5791 9.10963H25.6212C25.6636 9.11001 25.7053 9.12008 25.7432 9.13908C25.8092 9.18736 25.8628 9.25073 25.8994 9.32391C25.936 9.39709 25.9545 9.47795 25.9535 9.55977C25.9462 9.6772 25.9236 9.79317 25.8862 9.90473C25.8411 10.0336 25.8142 10.1681 25.8063 10.3044C25.8174 10.4545 25.8666 10.5993 25.9493 10.7251C26.0335 10.8723 26.1386 11.0153 26.2228 11.1836C26.2721 11.2731 26.3003 11.3727 26.3054 11.4747C26.3105 11.5768 26.2923 11.6786 26.2522 11.7726C26.1681 11.9661 26.0166 12.1218 25.9367 12.3195C25.8661 12.5306 25.8781 12.7606 25.9704 12.9631C26.0503 13.1777 26.1681 13.3838 26.2438 13.632C26.2868 13.7535 26.3068 13.8819 26.3027 14.0106C26.2936 14.1445 26.2563 14.275 26.1933 14.3935C26.055 14.6222 25.8959 14.8377 25.718 15.0371C25.5394 15.2342 25.4405 15.4906 25.4403 15.7565C25.4883 16.0315 25.5688 16.2998 25.6801 16.5558C25.7269 16.691 25.7497 16.8334 25.7474 16.9765C25.7361 17.1248 25.6915 17.2686 25.617 17.3972C25.4653 17.6285 25.2859 17.8405 25.0827 18.0282C24.8998 18.21 24.7566 18.4278 24.662 18.6677C24.5852 18.9091 24.4924 19.1452 24.3844 19.3744C24.3251 19.4867 24.24 19.5833 24.1362 19.6563C24.0339 19.7247 23.9198 19.7732 23.7996 19.7993C23.6886 19.8274 23.5791 19.8611 23.4715 19.9003C23.3715 19.9431 23.2781 19.9998 23.1938 20.0686C23.033 20.2075 22.8915 20.3674 22.7731 20.5439C22.6595 20.7122 22.5502 20.8763 22.4324 21.0235C22.2194 21.2948 21.9241 21.4896 21.591 21.5788C21.3432 21.6484 21.083 21.6613 20.8296 21.6167C20.6708 21.587 20.5176 21.5331 20.3752 21.4568C20.3252 21.4297 20.2774 21.3987 20.2322 21.3643C20.4166 21.4765 20.6208 21.5522 20.8338 21.5872C21.0824 21.6265 21.3365 21.6107 21.5784 21.541C21.9009 21.451 22.1857 21.2592 22.3903 20.9941C22.5039 20.8468 22.6091 20.6828 22.7227 20.5145C22.8422 20.3338 22.9835 20.1685 23.1433 20.0223C23.2335 19.9499 23.3325 19.8891 23.4378 19.8414C23.5466 19.8014 23.6575 19.7677 23.7702 19.7404C23.8823 19.714 23.989 19.6684 24.0857 19.6058C24.1817 19.5377 24.2609 19.4485 24.3171 19.345C24.4208 19.1164 24.5107 18.8818 24.5863 18.6424C24.688 18.3929 24.8414 18.1678 25.0364 17.9819C25.2338 17.7968 25.4089 17.5893 25.5581 17.3635C25.6273 17.2469 25.6691 17.1159 25.6801 16.9807C25.6859 16.8377 25.6645 16.695 25.617 16.56C25.5014 16.2994 25.4194 16.0252 25.373 15.7439C25.3634 15.5996 25.3894 15.4551 25.4487 15.3232C25.5091 15.1981 25.5824 15.0797 25.6675 14.9698C25.8434 14.7757 26.0011 14.5659 26.1386 14.343C26.1969 14.2337 26.2313 14.1132 26.2396 13.9896C26.2421 13.8682 26.2236 13.7472 26.1849 13.632C26.1134 13.4007 25.9956 13.2113 25.9157 12.9673C25.8179 12.7511 25.8074 12.5055 25.8862 12.2816C25.9746 12.0713 26.1302 11.9156 26.206 11.7347C26.2443 11.648 26.2624 11.5536 26.2587 11.4588C26.2551 11.3641 26.2298 11.2714 26.1849 11.1878C26.105 11.0238 25.9956 10.8807 25.9157 10.7335C25.8279 10.5961 25.7785 10.4378 25.7726 10.2749C25.7802 10.1314 25.8086 9.98968 25.8568 9.85425C25.8928 9.76235 25.9168 9.66621 25.9283 9.56818C25.9343 9.48784 25.9201 9.40729 25.887 9.33382C25.854 9.26036 25.8031 9.19631 25.739 9.14749C25.6914 9.1174 25.6351 9.10407 25.5791 9.10963Z" fill="#455A64"/>
<path d="M1.14967 13.2281C1.08733 13.2253 1.02537 13.2169 0.964566 13.2029C0.791764 13.1574 0.63002 13.0773 0.489186 12.9673C0.259895 12.7912 0.0980228 12.5417 0.0306374 12.2605C-0.0106535 12.0728 -0.0102028 11.8783 0.0319597 11.6907C0.0741222 11.5032 0.156965 11.3272 0.274634 11.1752C0.42186 11.0079 0.58533 10.8557 0.762634 10.7208C0.952907 10.5786 1.10947 10.3962 1.22118 10.1865C1.31384 9.94989 1.31384 9.68699 1.22118 9.45034C1.14546 9.19793 1.01926 8.94551 0.947738 8.66786C0.801711 8.07288 0.895386 7.44434 1.20856 6.91779C1.38127 6.63802 1.61172 6.39834 1.88451 6.21479C2.15729 6.03124 2.46613 5.90805 2.79035 5.85345L2.76511 5.90393C2.66678 5.74908 2.60625 5.57327 2.58842 5.3907C2.57554 5.20468 2.59693 5.01788 2.65152 4.83959C2.70629 4.65866 2.79322 4.48908 2.90814 4.33898C3.02914 4.19051 3.17082 4.06017 3.32883 3.95194C3.7987 3.65233 4.33137 3.46518 4.88538 3.40505C5.40443 3.33134 5.93129 3.33134 6.45034 3.40505L6.41248 3.4387C6.43663 3.13843 6.54278 2.85057 6.71934 2.60651C6.8959 2.36244 7.13609 2.17154 7.41372 2.05464C7.67948 1.94405 7.96917 1.9035 8.25509 1.93684C8.51659 1.97906 8.77037 2.05987 9.00812 2.17663C9.12177 2.22246 9.24036 2.25494 9.3615 2.2734C9.47694 2.29448 9.59524 2.29448 9.71067 2.2734C9.93118 2.20964 10.1431 2.11923 10.3417 2.00416C10.529 1.89646 10.7299 1.8144 10.9391 1.76016C11.1323 1.71696 11.3303 1.69998 11.528 1.70967C11.8595 1.72649 12.1817 1.82474 12.4662 1.99574C12.8097 2.22095 13.0767 2.54516 13.2318 2.92546C13.252 2.97479 13.2688 3.02538 13.2823 3.07691C13.2823 3.07691 13.2823 3.02643 13.2192 2.92967C13.1577 2.78139 13.0801 2.64031 12.9878 2.50898C12.8387 2.31062 12.6549 2.14099 12.4451 2.00836C12.1649 1.83035 11.8429 1.72882 11.5112 1.71388C11.3177 1.70192 11.1234 1.71894 10.9349 1.76436C10.7291 1.81866 10.5311 1.89926 10.3459 2.00416C10.1458 2.12424 9.93083 2.21758 9.70647 2.2818C9.58577 2.31351 9.46015 2.32208 9.33626 2.30705C9.21048 2.28682 9.0876 2.25151 8.97026 2.20188C8.73715 2.09092 8.48916 2.0144 8.23406 1.9747C7.9637 1.94539 7.6903 1.98445 7.43896 2.08829C7.17422 2.20249 6.94551 2.38651 6.7773 2.62067C6.60909 2.85484 6.5077 3.13033 6.48399 3.41767V3.45553H6.44613C5.93413 3.38183 5.41421 3.38183 4.90221 3.45553C4.36051 3.51249 3.83931 3.6939 3.37932 3.98559C3.22205 4.08982 3.0804 4.21589 2.95863 4.36001C2.85022 4.50458 2.76766 4.66684 2.71463 4.83959C2.65961 5.00764 2.63956 5.18517 2.65573 5.36125C2.67115 5.53327 2.7274 5.69912 2.8198 5.84504L2.84925 5.89131H2.79456C2.49042 5.93928 2.19961 6.05008 1.94066 6.21664C1.6817 6.3832 1.46028 6.60187 1.2905 6.85872C1.12071 7.11558 1.00629 7.40498 0.954523 7.70849C0.902753 8.012 0.914769 8.32297 0.989806 8.62158C1.05712 8.89503 1.18332 9.14324 1.25905 9.40406C1.35566 9.65449 1.35566 9.93191 1.25905 10.1823C1.14212 10.3982 0.97823 10.5851 0.779462 10.7292C0.605784 10.8545 0.443854 10.9953 0.29567 11.1499C0.180467 11.2966 0.0992117 11.467 0.0577488 11.6489C0.0162859 11.8307 0.0156461 12.0195 0.0558776 12.2016C0.110808 12.475 0.259631 12.7206 0.476566 12.8958C0.614129 13.0078 0.772984 13.0908 0.94353 13.1398C1.1076 13.2197 1.14967 13.2239 1.14967 13.2281Z" fill="#263238"/>
<path d="M26.4709 7.55294C26.4718 7.53753 26.4718 7.52207 26.4709 7.50666C26.4709 7.47721 26.4709 7.43093 26.4709 7.37624C26.4709 7.25845 26.4709 7.09018 26.4498 6.87563C26.4288 6.66108 26.4162 6.38763 26.3741 6.08053C26.3274 5.73391 26.2413 5.39375 26.1175 5.06667C25.9659 4.6705 25.7306 4.31174 25.4276 4.01494C25.256 3.8535 25.0601 3.72006 24.847 3.6195C24.615 3.5243 24.3776 3.44283 24.1361 3.3755C23.8762 3.30306 23.6332 3.18012 23.4209 3.0137C23.2085 2.83281 23.0192 2.62654 22.8572 2.3995C22.6889 2.17233 22.529 1.93253 22.3397 1.71798C22.1511 1.49567 21.9228 1.31024 21.6666 1.17109C21.1498 0.915962 20.585 0.772618 20.0091 0.750399C19.47 0.70848 18.9285 0.70848 18.3894 0.750399C17.4758 0.801245 16.5772 1.00458 15.7307 1.35199C15.161 1.58947 14.6328 1.91608 14.1657 2.31957C14.0858 2.39109 14.0101 2.45419 13.9512 2.51308L13.8039 2.66453L13.7114 2.75708L13.6777 2.79074L13.7072 2.75288L13.7913 2.65612L13.9386 2.49626L14.1489 2.29854C14.6124 1.88377 15.1412 1.54832 15.7139 1.30571C16.5639 0.952271 17.4665 0.741892 18.3852 0.683094C18.9272 0.643233 19.4713 0.643233 20.0133 0.683094C20.5991 0.713521 21.1721 0.865375 21.6961 1.12902C21.9596 1.27168 22.1937 1.46296 22.386 1.69274C22.5795 1.91571 22.7394 2.1513 22.9076 2.37847C23.0667 2.60149 23.2517 2.80484 23.4587 2.98426C23.6656 3.14413 23.9012 3.26267 24.1529 3.33343C24.3973 3.40222 24.6374 3.4851 24.8723 3.58164C25.0898 3.68955 25.2886 3.83158 25.4612 4.00232C25.7704 4.3056 26.0088 4.67332 26.1596 5.07929C26.2831 5.41028 26.3664 5.75491 26.4078 6.10577C26.4498 6.41708 26.4625 6.68211 26.4709 6.90087C26.4793 7.11963 26.4709 7.29211 26.4709 7.40569V7.5361C26.4751 7.5361 26.4751 7.55294 26.4709 7.55294Z" fill="#263238"/>
<path d="M15.7014 16.5599C15.7248 16.4077 15.7881 16.2645 15.8849 16.1448C15.9817 16.0251 16.1086 15.9331 16.2525 15.8784C16.4008 15.8275 16.5612 15.8236 16.7117 15.8673C16.8623 15.911 16.9958 16.0001 17.0938 16.1224C17.188 16.2424 17.2392 16.3906 17.2392 16.5431C17.2392 16.6956 17.188 16.8438 17.0938 16.9638C17.0077 17.0871 16.8858 17.1811 16.7447 17.233C16.5636 17.2988 16.3664 17.3062 16.1809 17.2541C16.0244 17.225 15.8847 17.1378 15.7897 17.0101C15.7032 16.8771 15.6716 16.7157 15.7014 16.5599Z" fill="#924640"/>
<path d="M16.0716 15.4576C16.1558 15.4576 16.0716 16.0424 16.4923 16.522C16.913 17.0016 17.5482 17.0352 17.5398 17.1152C17.5314 17.1951 17.3842 17.2077 17.1191 17.1783C16.7863 17.1292 16.4803 16.9673 16.2525 16.7197C16.0327 16.4759 15.9165 16.156 15.9286 15.8278C15.9454 15.5754 16.0296 15.4576 16.0716 15.4576Z" fill="#263238"/>
<path d="M10.4679 17.5612C10.2932 16.9433 10.022 16.3569 9.66437 15.8237L9.51293 15.7438C9.15417 16.1557 8.88358 16.6368 8.71782 17.1573C8.64158 17.4196 8.64616 17.6988 8.73096 17.9584C8.81576 18.2181 8.97685 18.4461 9.1932 18.6129C9.4091 18.7467 9.66575 18.799 9.91679 18.7601C10.1096 18.7372 10.2868 18.6426 10.4132 18.4951C10.4928 18.3539 10.5392 18.1963 10.5487 18.0344C10.5581 17.8726 10.5305 17.7107 10.4679 17.5612Z" fill="#E0E0E0"/>
<path d="M10.0179 21.6334C8.09165 23.3082 6.65406 25.4726 5.85728 27.8975C4.50266 31.9697 6.37473 46.2395 6.37473 46.2395C3.65708 51.4897 2.67688 56.3655 1.94067 63.4877L13.1941 65.3934L14.7128 59.2093L15.2092 65.6963L26.3069 65.3724C26.3069 65.3724 25.3436 57.5644 25.0449 51.6748C24.6999 44.9438 25.5076 38.1581 25.4151 35.9663C25.251 32.239 24.6368 31.9487 19.7526 26.6354L10.0179 21.6334Z" fill="#455A64"/>
<path d="M16.8161 53.812H16.9381L17.3125 53.7825L18.7512 53.6942L23.9762 53.4039H24.0645V53.4965C24.1697 54.6492 24.2833 55.9112 24.4011 57.249C24.46 57.9221 24.5231 58.6121 24.5862 59.3188C24.6156 59.6722 24.6451 60.034 24.6787 60.3916C24.7259 60.7858 24.6239 61.1835 24.3927 61.5064C24.2252 61.7345 23.9982 61.9121 23.7364 62.0196C23.4826 62.1101 23.2149 62.1557 22.9455 62.1542L21.4394 62.2426C20.4466 62.2889 19.4916 62.3267 18.5787 62.3099H18.238H18.0697C18.0044 62.2999 17.9398 62.2859 17.8762 62.2678C17.6557 62.165 17.4784 61.9877 17.3756 61.7672C17.1743 61.3872 17.0324 60.9786 16.9549 60.5556C16.8202 59.8135 16.7372 59.0628 16.7067 58.3091C16.6436 56.9335 16.6772 55.8187 16.7067 55.0488C16.7067 54.666 16.7445 54.3673 16.7572 54.1654C16.7614 54.0624 16.7726 53.9598 16.7908 53.8583C16.8018 53.9603 16.8018 54.0633 16.7908 54.1654C16.7908 54.3883 16.7908 54.6828 16.7908 55.0488C16.7908 55.8187 16.7908 56.9335 16.8623 58.3007C16.9014 59.0452 16.9928 59.7861 17.1358 60.5178C17.206 60.9206 17.3365 61.3106 17.5228 61.6747C17.6071 61.8614 17.7567 62.011 17.9435 62.0953L18.0781 62.1248H18.2422H18.5787C19.4832 62.1248 20.4382 62.0953 21.4226 62.0449L22.9287 61.9523C23.1735 61.9552 23.4169 61.9153 23.648 61.8345C23.8705 61.7478 24.0653 61.6024 24.2118 61.4138C24.4122 61.1352 24.4994 60.7909 24.4558 60.4505C24.4263 60.0887 24.3927 59.7311 24.3632 59.3777C24.3043 58.6709 24.2454 57.9768 24.1865 57.3079C24.0771 55.9659 23.972 54.7039 23.8752 53.547L23.972 53.6353L18.8017 53.8246L17.3377 53.8667H16.9465L16.8161 53.812Z" fill="#263238"/>
<path d="M14.7718 43.1769C14.8307 43.1769 14.8812 46.942 14.8812 51.5906C14.8812 56.2393 14.8307 60.0044 14.7718 60.0044C14.7129 60.0044 14.6582 56.2393 14.6582 51.5906C14.6582 46.942 14.7087 43.1769 14.7718 43.1769Z" fill="#263238"/>
<path d="M26.3069 65.3809C26.2385 65.4 26.1676 65.4085 26.0966 65.4061L25.4866 65.4398L23.1981 65.5365L15.205 65.81H15.1082V65.709C14.9652 63.9001 14.8137 61.9228 14.6497 59.8446L14.8642 59.8657L14.839 59.954C14.2963 61.8765 13.7704 63.7402 13.2951 65.4229L13.2698 65.5113H13.1773L5.09584 64.102L2.76943 63.6813L2.15102 63.5593C2.07883 63.5502 2.00813 63.5319 1.94067 63.5046C2.01412 63.5041 2.08743 63.5111 2.15943 63.5256L2.78205 63.614L5.11687 63.98L13.2109 65.3094L13.0931 65.3851C13.5685 63.7023 14.0902 61.8513 14.6286 59.9161L14.6539 59.8278L14.8221 59.2346L14.8684 59.8488C15.0241 61.9228 15.1755 63.9043 15.3101 65.7174L15.205 65.6207L23.1981 65.4272L25.4908 65.3893H26.1008C26.1691 65.3803 26.2381 65.3775 26.3069 65.3809Z" fill="#263238"/>
<g opacity="0.3">
<path d="M3.24487 63.6981L3.40894 64.6026L13.619 66.9458L14.4646 64.7372L14.7675 66.8575L24.9271 66.2769L24.7042 65.4944L15.2092 65.7048L14.7675 60.0002L13.1942 65.3809L3.24487 63.6981Z" fill="black"/>
</g>
<path d="M42.3354 59.142L43.2987 56.1509L42.3354 53.1514L36.5509 49.5334L34.3423 52.4488C34.3423 52.4488 34.8008 53.2902 35.251 53.9381C35.7011 54.5859 37.4806 54.8341 37.4806 54.8341L38.2631 56.9376L38.2 57.7789L37.8508 58.6582C37.8805 58.7248 37.9256 58.7835 37.9823 58.8294C38.0391 58.8753 38.1058 58.9072 38.1772 58.9223C38.2486 58.9375 38.3225 58.9356 38.393 58.9167C38.4635 58.8979 38.5286 58.8626 38.5828 58.8138C38.932 58.4428 39.205 58.0069 39.3863 57.5307V56.2266L39.8449 57.3372L39.1087 59.0999C39.1087 59.0999 39.4705 59.6384 39.8743 59.2892L40.295 58.9358C40.3355 58.9969 40.3895 59.048 40.4528 59.0849C40.5161 59.1219 40.5871 59.1439 40.6602 59.1492C40.7333 59.1545 40.8067 59.1429 40.8747 59.1154C40.9426 59.0879 41.0034 59.0452 41.0523 58.9905C41.3571 58.7495 41.6388 58.4805 41.8936 58.187C41.8478 58.3727 41.8665 58.5685 41.9468 58.7421C42.0271 58.9156 42.1642 59.0567 42.3354 59.142Z" fill="#C0645A"/>
<path d="M40.1223 53.9381C40.2878 54.1652 40.4289 54.4091 40.543 54.6659C40.665 54.8973 40.808 55.1749 40.9637 55.4862L41.1993 55.9742C41.2904 56.1552 41.3691 56.3422 41.4349 56.5338C41.4287 56.9249 41.3246 57.3081 41.132 57.6486C40.9961 57.9269 40.8341 58.1918 40.6482 58.4395C40.4908 58.6737 40.3179 58.8972 40.1307 59.1084C40.2375 58.8453 40.379 58.5977 40.5514 58.3722C40.7117 58.1212 40.8524 57.8582 40.9721 57.5855C41.1424 57.268 41.236 56.915 41.2456 56.5548C41.1951 56.4033 41.1025 56.2056 41.031 56.0416L40.8038 55.5536L40.421 54.7122C40.2972 54.4642 40.1972 54.205 40.1223 53.9381Z" fill="#924640"/>
<path d="M41.4094 53.488C41.5881 53.6855 41.7434 53.9029 41.8722 54.1359C42.0026 54.342 42.1582 54.586 42.3265 54.8637L42.5874 55.2844C42.6868 55.4466 42.7753 55.6152 42.8524 55.7892C42.8802 56.1556 42.8151 56.5232 42.6631 56.8578C42.5593 57.1297 42.4282 57.3905 42.2718 57.636C42.1477 57.8674 42.0071 58.0895 41.8511 58.3007C41.9262 58.0454 42.0366 57.8018 42.1793 57.5771C42.3166 57.3305 42.4334 57.0731 42.5285 56.8073C42.6608 56.4982 42.7198 56.1627 42.7009 55.8271C42.642 55.6924 42.5369 55.5115 42.4569 55.3685L42.2087 54.9268L41.788 54.178C41.638 53.9619 41.5111 53.7306 41.4094 53.488Z" fill="#924640"/>
<path d="M16.3662 42.4197L22.1885 47.7456L34.5904 52.5457L36.5508 49.5293L25.5288 42.853L21.9782 38.2002L16.3662 42.4197Z" fill="#C0645A"/>
<path d="M14.8095 25.1042C11.0233 21.7134 4.98225 25.0621 5.97507 30.0683C6.08199 30.5984 6.24414 31.1159 6.45887 31.6122C9.02507 37.6071 15.3354 43.3621 15.3354 43.3621L22.9078 37.7501L14.8348 25.1042H14.8095Z" fill="#455A64"/>
<path d="M14.8096 25.104C14.8096 25.104 14.8096 25.104 14.8559 25.1587L14.9737 25.3312L15.4238 26.0085L17.1066 28.5789L22.9962 37.6994L23.0467 37.7751L22.971 37.8298L15.4112 43.4502L15.3397 43.5049L15.2724 43.4418C14.6455 42.857 14.0103 42.2176 13.3709 41.5487C10.8974 39.0276 8.77491 36.1849 7.06053 33.0971C6.8586 32.7437 6.70294 32.3693 6.53046 32.0117C6.36158 31.6588 6.22091 31.293 6.10977 30.9179C5.98568 30.5555 5.90381 30.18 5.86577 29.7989L5.80267 29.2394C5.79006 29.0545 5.79006 28.8689 5.80267 28.684C5.84251 27.9764 6.0242 27.284 6.33694 26.6479C6.64315 26.072 7.04909 25.5549 7.5359 25.1208C8.37107 24.3692 9.41347 23.8868 10.527 23.7368L10.8846 23.6863H11.2338C11.4532 23.6773 11.673 23.69 11.89 23.7241L12.4874 23.8251C12.6683 23.8756 12.8408 23.9429 13.0049 23.9934C13.2986 24.0913 13.5807 24.2211 13.8462 24.3804C14.0465 24.4811 14.2331 24.6069 14.4015 24.7548L14.7255 25.0114C14.797 25.0703 14.8306 25.0998 14.8264 25.104C14.7842 25.0837 14.7446 25.0583 14.7086 25.0283L14.3763 24.7885C14.2041 24.6506 14.0163 24.5334 13.8168 24.4393C13.551 24.287 13.2688 24.1656 12.9754 24.0775C12.8155 24.027 12.6473 23.9639 12.4622 23.9134L11.8774 23.8293C11.6644 23.798 11.4488 23.7882 11.2338 23.7999H10.893L10.5438 23.8545C9.68936 23.9787 8.87642 24.3034 8.17155 24.8021C7.46667 25.3007 6.88989 25.9592 6.48839 26.7236C6.18915 27.3392 6.01743 28.0089 5.98356 28.6925C5.9709 28.8703 5.9709 29.0489 5.98356 29.2267L6.04667 29.7652C6.08522 30.1367 6.16711 30.5024 6.29067 30.8548C6.40403 31.2223 6.54465 31.5809 6.71136 31.9276C6.88384 32.2809 7.03529 32.6469 7.23722 33.0003C8.74749 35.8568 10.9603 38.6838 13.5181 41.4141C14.1449 42.0746 14.7802 42.7182 15.407 43.2946H15.2682L22.8405 37.6952L22.8195 37.8256L17.0182 28.663L15.3902 26.0632L14.9695 25.369L14.8643 25.1881C14.8433 25.162 14.825 25.1338 14.8096 25.104Z" fill="#263238"/>
</svg>
