<svg width="124" height="120" viewBox="0 0 124 120" fill="none" xmlns="http://www.w3.org/2000/svg">
<path d="M68.5078 38.176L69.4761 37.3435C69.6553 37.1885 69.8707 37.0773 70.1039 37.0193C70.3372 36.9614 70.5815 36.9584 70.8163 37.0105L73.0383 37.4975C73.4775 37.5924 73.8866 37.7875 74.2311 38.0664C74.5757 38.3452 74.8456 38.6997 75.0182 39.1L75.2343 39.5994C73.7256 41.0853 70.9546 41.6181 70.9546 41.6181L70.1851 41.8553C70.0285 41.9089 69.8624 41.9319 69.6965 41.9229C69.5306 41.9139 69.3682 41.8732 69.2188 41.803C69.0695 41.7329 68.9362 41.6347 68.8267 41.5144C68.7172 41.394 68.6338 41.2538 68.5813 41.102L68.0712 39.6369C67.9904 39.3787 67.9887 39.1036 68.0661 38.8445C68.1435 38.5854 68.2969 38.3533 68.5078 38.176Z" fill="#EBB376"/>
<path d="M90.7757 25.6104C90.1834 30.0556 89.535 34.5092 88.6574 38.9294C86.7423 43.5078 76.2375 41.0105 72.4419 40.0324C72.1876 39.9595 71.9703 39.7988 71.8315 39.5811C71.6928 39.3634 71.6425 39.1041 71.6901 38.8528C71.7378 38.6015 71.8802 38.3761 72.09 38.2197C72.2997 38.0633 72.562 37.987 72.8266 38.0054C75.2086 38.1886 77.6684 38.3342 80.0503 38.3093C81.1849 38.3109 82.318 38.2288 83.4396 38.0637C84.0279 38.0051 84.5944 37.8171 85.0953 37.5143C85.1298 37.4768 85.0391 37.5143 84.9915 37.6392L84.8921 38.0262C85.3244 33.6975 85.8302 29.373 86.4916 25.0693C86.9887 22.4055 91.0264 22.9258 90.7757 25.6271V25.6104Z" fill="#E9B376"/>
<path d="M90.5293 19.0257C86.9629 19.392 85.3418 21.9392 83.8201 27.6664C85.1515 29.5519 90.3045 30.838 90.3045 30.838C90.3045 30.838 93.3739 22.3305 90.5293 19.0257Z" fill="#69A090"/>
<path opacity="0.6" d="M91.7355 23.5292C91.6706 27.0379 90.3002 30.838 90.3002 30.838C90.3002 30.838 89.7598 30.7048 88.9817 30.4551C87.3649 29.9431 84.7192 28.94 83.8201 27.6664C85.3331 21.9309 86.9629 19.392 90.5337 19.0257C91.4761 20.1204 91.7657 21.7894 91.7355 23.5292Z" fill="white"/>
<path opacity="0.1" d="M91.7355 23.5292C91.6707 27.038 90.3003 30.8381 90.3003 30.8381C90.3003 30.8381 89.7599 30.7049 88.9818 30.4551C88.6186 29.1687 88.6896 27.8044 89.1846 26.5595C89.6796 25.3145 90.573 24.2533 91.7355 23.5292Z" fill="black"/>
<path d="M104.73 61.6091C105.297 63.0659 105.82 64.5227 106.295 65.9836C108.699 73.2966 109.926 81.9914 109.926 81.9914C116.35 94.478 120.859 113.279 120.859 113.279L118.482 114.053L102.863 80.6179L98.2241 69.1011L104.73 61.6091Z" fill="#EBB376"/>
<path d="M120.959 111.526C120.816 111.256 117.444 113.1 117.444 113.1C117.444 113.1 116.359 116.196 114.518 117.641C112.676 119.085 114.444 119.742 116.77 118.656C119.096 117.57 120.868 116.737 122.519 115.967C124.171 115.197 122.455 114.323 120.959 111.526Z" fill="#263238"/>
<path d="M116.044 114.81C115.94 114.87 115.817 114.893 115.698 114.873C115.603 114.852 115.482 114.781 115.434 114.556C115.422 114.502 115.422 114.447 115.434 114.393C115.446 114.339 115.469 114.288 115.503 114.244C115.702 114.032 115.958 113.877 116.242 113.795C115.888 113.795 115.551 113.724 115.451 113.549C115.386 113.441 115.417 113.308 115.538 113.162C115.589 113.097 115.654 113.044 115.729 113.006C115.803 112.968 115.886 112.946 115.97 112.941C116.532 112.908 117.215 113.549 117.267 113.582C117.279 113.591 117.288 113.602 117.293 113.616C117.295 113.625 117.295 113.635 117.293 113.645C117.295 113.656 117.295 113.667 117.293 113.678C117.288 113.691 117.281 113.702 117.271 113.711C116.934 114.145 116.518 114.518 116.044 114.81ZM116.044 114.09C115.898 114.146 115.768 114.236 115.667 114.352C115.649 114.376 115.636 114.403 115.629 114.432C115.623 114.46 115.622 114.49 115.629 114.519C115.659 114.664 115.719 114.677 115.741 114.685C115.97 114.735 116.515 114.269 116.921 113.807C116.62 113.87 116.327 113.965 116.048 114.09H116.044ZM115.832 113.174C115.777 113.201 115.73 113.239 115.693 113.287C115.654 113.328 115.598 113.412 115.624 113.453C115.711 113.603 116.338 113.628 116.947 113.578C116.686 113.334 116.349 113.179 115.987 113.137C115.935 113.139 115.883 113.152 115.836 113.174H115.832Z" fill="#69A090"/>
<path d="M94.3293 61.5174C95.0167 65.8507 96.2672 70.0835 98.0514 74.1164C99.9881 78.4492 102.128 81.6375 103.671 84.9381C106.421 90.7652 113.532 104.588 113.532 104.588L118.287 101.129C118.287 101.129 110.709 83.498 110.182 80.0392C109.849 77.7999 109.529 65.7587 109.343 57.5633C109.244 53.089 109.183 49.755 109.183 49.755L95.5873 39.3038C93.5659 46.5432 93.1374 54.1093 94.3293 61.5174Z" fill="#69A090"/>
<path opacity="0.5" d="M94.3293 61.5174C95.0167 65.8507 96.2672 70.0835 98.0514 74.1164C99.9881 78.4492 102.128 81.6375 103.671 84.9381C106.421 90.7652 113.532 104.588 113.532 104.588L118.287 101.129C118.287 101.129 110.709 83.498 110.182 80.0392C109.849 77.7999 109.529 65.7587 109.343 57.5633C109.244 53.089 109.183 49.755 109.183 49.755L95.5873 39.3038C93.5659 46.5432 93.1374 54.1093 94.3293 61.5174Z" fill="white"/>
<path opacity="0.2" d="M98.0515 74.1165C99.9882 78.4494 102.128 81.6376 103.671 84.9383C106.421 90.7653 113.532 104.588 113.532 104.588L118.287 101.129C118.287 101.129 110.709 83.4981 110.182 80.0394C109.849 77.8001 109.529 65.7589 109.343 57.5635L105.318 49.4264L100.101 51.4451L101.804 57.7549L98.0515 74.1165Z" fill="black"/>
<path d="M103.027 87.4521C99.4432 100.592 92.7079 116.171 92.7079 116.171L90.3735 115.297L97.2125 87.4521H103.027Z" fill="#EBB376"/>
<path d="M93.9447 114.885C94.0095 114.59 90.1923 113.936 90.1923 113.936C90.1923 113.936 87.3046 115.655 84.9313 115.634C82.5579 115.614 83.4787 117.208 85.9904 117.799L92.2025 119.26C93.9836 119.693 93.24 117.969 93.9447 114.885Z" fill="#263238"/>
<path d="M87.9831 114.407C87.8633 114.388 87.7537 114.33 87.6718 114.244C87.6274 114.183 87.6035 114.111 87.6035 114.036C87.6035 113.962 87.6274 113.889 87.6718 113.828C87.698 113.779 87.7346 113.736 87.7793 113.701C87.824 113.667 87.8758 113.642 87.9312 113.628C88.2247 113.589 88.5237 113.628 88.7958 113.741C88.5278 113.512 88.3073 113.258 88.3635 113.062C88.3894 112.937 88.4975 112.854 88.6877 112.817C88.7721 112.799 88.8595 112.799 88.9439 112.817C89.0282 112.835 89.1075 112.87 89.1762 112.921C89.6345 113.241 89.7339 114.169 89.7382 114.203C89.7425 114.215 89.7425 114.228 89.7382 114.24C89.7402 114.245 89.7413 114.25 89.7413 114.255C89.7413 114.26 89.7402 114.265 89.7382 114.269L89.7123 114.294C89.7009 114.297 89.6891 114.297 89.6777 114.294C89.1244 114.429 88.5504 114.467 87.9831 114.407ZM88.4629 113.853C88.3131 113.809 88.1544 113.8 88.0004 113.828C87.9705 113.834 87.9424 113.846 87.9177 113.863C87.8931 113.88 87.8726 113.902 87.8577 113.928C87.7842 114.061 87.8231 114.111 87.8361 114.123C87.9744 114.307 88.7007 114.269 89.3275 114.173C89.0516 114.038 88.7619 113.931 88.4629 113.853ZM88.8952 113.021C88.836 113.004 88.773 113.004 88.7137 113.021C88.6531 113.021 88.558 113.058 88.5451 113.108C88.5148 113.274 88.9774 113.682 89.4875 114.015C89.4475 113.67 89.2963 113.345 89.0552 113.087C89.012 113.055 88.9618 113.032 88.9082 113.021H88.8952Z" fill="#69A090"/>
<path d="M109.983 37.8846C109.983 37.8846 115.252 48.5857 113.389 58.6956C111.526 68.8056 105.897 81.7584 104.38 84.9175C102.863 88.0766 97.2126 106.661 97.2126 106.661L92.3103 105.125C92.3103 105.125 96.6895 86.6448 98.0642 80.2059C98.717 77.1633 104.281 55.5074 104.281 55.5074C104.281 55.5074 94.7441 48.6855 95.4185 38.0262L109.983 37.8846Z" fill="#69A090"/>
<path opacity="0.5" d="M109.983 37.8846C109.983 37.8846 115.252 48.5857 113.389 58.6956C111.526 68.8056 105.897 81.7584 104.38 84.9175C102.863 88.0766 97.2126 106.661 97.2126 106.661L92.3103 105.125C92.3103 105.125 96.6895 86.6448 98.0642 80.2059C98.717 77.1633 104.281 55.5074 104.281 55.5074C104.281 55.5074 94.7441 48.6855 95.4185 38.0262L109.983 37.8846Z" fill="white"/>
<path d="M99.7112 8.28302C100.276 7.94574 100.951 7.824 101.605 7.94171C103.455 8.27885 103.896 10.0228 103.645 11.3173C103.541 11.8429 103.291 12.3316 102.922 12.7316C102.553 13.1317 102.078 13.4282 101.548 13.5898C100.092 13.9394 98.8077 12.645 98.4316 11.6669C98.1924 11.0485 98.1897 10.3682 98.4242 9.74809C98.6587 9.12798 99.115 8.60858 99.7112 8.28302Z" fill="#263238"/>
<path d="M93.7544 46.0841L99.7288 48.0279L100.84 44.5316L102.046 47.7573L112.892 45.3266C111.967 38.9126 108.249 33.8015 107.67 31.8619C106.862 29.1814 106.235 24.0494 106.784 20.7322C106.839 20.3975 106.821 20.0555 106.732 19.7276C106.643 19.3997 106.485 19.093 106.268 18.8266C106.05 18.5602 105.778 18.3398 105.468 18.1793C105.158 18.0188 104.817 17.9215 104.467 17.8936C103.416 17.8145 102.366 17.7728 101.307 17.7728C99.2169 17.7492 97.1281 17.8675 95.0556 18.1266C92.3927 18.5429 89.3795 19.3087 89.3795 19.3087C89.3795 19.3087 88.9472 19.4793 89.1547 22.2222C89.332 24.6363 89.8118 32.1241 94.9259 38.4548L93.7544 46.0841Z" fill="#69A090"/>
<path opacity="0.6" d="M112.875 45.3266L102.029 47.7573L100.818 44.5316L99.7114 48.0278L93.7284 46.0841L94.9129 38.4548C89.7945 32.1157 89.3146 24.6279 89.1417 22.2222C88.9515 19.4668 89.3665 19.3087 89.3665 19.3087C89.3665 19.3087 92.3926 18.5303 95.0382 18.1266C97.1107 17.8676 99.1996 17.7494 101.289 17.7728C102.35 17.7728 103.405 17.813 104.454 17.8935C104.804 17.922 105.145 18.0197 105.454 18.1804C105.763 18.3412 106.035 18.5616 106.252 18.828C106.469 19.0943 106.627 19.4009 106.715 19.7285C106.804 20.0561 106.821 20.3977 106.767 20.7321C106.55 22.2839 106.501 23.8531 106.62 25.4146C106.736 27.5919 107.082 29.7521 107.653 31.8618C107.835 32.3806 108.058 32.8857 108.318 33.3727C109.594 35.8742 112.131 40.1821 112.875 45.3266Z" fill="white"/>
<path d="M99.8064 22.8632C99.8064 22.8632 97.4201 24.8569 96.7241 29.9805L94.0309 22.8174L92.1807 23.3585C92.1807 23.3585 93.6029 16.8655 98.2328 16.7448C102.863 16.6241 102.513 23.3627 102.513 23.3627L99.8064 22.8632Z" fill="#69A090"/>
<path opacity="0.5" d="M99.8064 22.8632C99.8064 22.8632 97.4201 24.8569 96.7241 29.9805L94.0309 22.8174L92.1807 23.3585C92.1807 23.3585 93.6029 16.8655 98.2328 16.7448C102.863 16.6241 102.513 23.3627 102.513 23.3627L99.8064 22.8632Z" fill="white"/>
<path d="M93.106 15.5544C93.106 15.5544 94.8006 16.6116 95.0902 17.3066C95.109 17.3511 95.1235 17.397 95.1334 17.444C95.2173 17.8411 95.275 18.2428 95.3064 18.6469C94.0095 21.3273 96.4952 25.9515 96.4952 25.9515C97.507 23.2218 98.9395 20.6541 100.745 18.3347C98.0255 17.3066 97.5068 12.2912 97.5068 12.2912L96.1882 13.2693L93.106 15.5544Z" fill="#EBB376"/>
<path opacity="0.2" d="M93.106 15.5544C93.106 15.5544 94.8006 16.6116 95.0902 17.3067C95.109 17.3511 95.1235 17.3971 95.1334 17.4441C95.8505 16.9148 96.4224 16.2248 96.7991 15.434C97.1758 14.6433 97.3461 13.7759 97.2949 12.9073L96.1926 13.2694L93.106 15.5544Z" fill="black"/>
<path d="M86.9541 11.2757C86.9288 11.2748 86.9046 11.266 86.8849 11.2507C86.2019 10.6805 84.1182 8.5744 86.0463 5.47772C87.7279 2.78062 91.2339 3.68382 91.2339 3.69214C91.2588 3.70141 91.2793 3.71924 91.2913 3.74219C91.3034 3.76514 91.3062 3.79158 91.2992 3.81641C91.2922 3.84124 91.276 3.8627 91.2535 3.87664C91.2311 3.89059 91.204 3.89603 91.1777 3.89193C91.1431 3.89193 87.8057 3.01786 86.2105 5.58178C84.3646 8.5411 86.3532 10.5514 87.006 11.0967C87.0163 11.106 87.0246 11.1173 87.0302 11.1298C87.0358 11.1424 87.0387 11.1559 87.0387 11.1695C87.0387 11.1832 87.0358 11.1967 87.0302 11.2092C87.0246 11.2217 87.0163 11.233 87.006 11.2424C86.9922 11.2578 86.9742 11.2693 86.9541 11.2757Z" fill="#263238"/>
<path d="M89.8635 3.64625C89.8635 3.64625 87.0708 3.72949 86.3013 6.00205C85.5318 8.27461 86.1025 10.8219 90.2482 13.5731C92.2757 14.9175 97.312 12.2911 97.312 12.2911L97.714 13.4649C98.386 12.9943 98.997 12.448 99.534 11.8375C101.164 9.99776 100.744 3.90015 96.2226 2.70976C91.4889 1.46526 89.8635 3.64625 89.8635 3.64625Z" fill="#263238"/>
<path d="M92.5224 4.40392C88.9689 4.87008 88.087 6.85129 88.3248 10.4058C88.623 14.851 90.0799 17.8436 94.3769 16.3244C100.239 14.2558 98.4146 3.63391 92.5224 4.40392Z" fill="#EBB376"/>
<path d="M90.5943 9.91461C90.3816 10.4623 90.1015 10.9835 89.76 11.4671C89.8842 11.5941 90.042 11.6861 90.2165 11.733C90.3909 11.78 90.5754 11.7801 90.75 11.7335L90.5943 9.91461Z" fill="#D58745"/>
<path d="M92.7253 9.34862C92.7599 9.63165 92.9415 9.84392 93.1576 9.82311C93.3738 9.8023 93.4818 9.55673 93.4516 9.2737C93.4213 8.99067 93.2311 8.78256 93.0193 8.80337C92.8075 8.82419 92.6951 9.06975 92.7253 9.34862Z" fill="#263238"/>
<path d="M93.1016 8.80743L92.4402 8.63678C92.4402 8.63678 92.8163 9.11543 93.1016 8.80743Z" fill="#263238"/>
<path d="M89.0813 9.68575C89.1159 9.96878 89.3018 10.1769 89.5136 10.1561C89.7254 10.1353 89.8378 9.8897 89.8075 9.61083C89.7773 9.33196 89.5871 9.11552 89.3752 9.13633C89.1634 9.15714 89.051 9.40272 89.0813 9.68575Z" fill="#263238"/>
<path d="M89.4573 9.14044L88.7959 8.96979C88.7959 8.96979 89.172 9.4526 89.4573 9.14044Z" fill="#263238"/>
<path d="M94.0396 7.44651C94.0015 7.44596 93.9649 7.43273 93.9358 7.40905C93.7286 7.25872 93.4889 7.15522 93.2344 7.10622C92.98 7.05723 92.7174 7.064 92.466 7.12602C92.4467 7.13104 92.4266 7.13232 92.4068 7.12979C92.3869 7.12727 92.3678 7.12099 92.3505 7.11131C92.3333 7.10164 92.3181 7.08876 92.306 7.07342C92.294 7.05809 92.2851 7.0406 92.2801 7.02197C92.2749 7.00338 92.2736 6.98398 92.2762 6.9649C92.2788 6.94581 92.2854 6.92742 92.2954 6.91078C92.3055 6.89414 92.3188 6.87958 92.3348 6.86794C92.3507 6.85631 92.3688 6.84782 92.3882 6.84299C92.6888 6.76493 93.0042 6.7559 93.309 6.81663C93.6138 6.87735 93.8996 7.00613 94.1433 7.19261C94.1577 7.20617 94.1691 7.22237 94.1769 7.24024C94.1847 7.2581 94.1888 7.27729 94.1888 7.29667C94.1888 7.31605 94.1847 7.33523 94.1769 7.3531C94.1691 7.37097 94.1577 7.38716 94.1433 7.40072C94.116 7.42808 94.0789 7.44444 94.0396 7.44651Z" fill="#263238"/>
<path d="M88.4499 7.79193C88.4185 7.79256 88.3876 7.78376 88.3616 7.76674C88.3356 7.74972 88.3158 7.72533 88.3049 7.69695C88.2939 7.66857 88.2924 7.63762 88.3006 7.60839C88.3088 7.57917 88.3262 7.55312 88.3505 7.53387C88.5462 7.34602 88.7838 7.20345 89.0451 7.11693C89.3065 7.0304 89.5848 7.00219 89.8592 7.03441C89.8993 7.04334 89.934 7.06717 89.9559 7.10071C89.9778 7.13424 89.985 7.17475 89.9759 7.21338C89.9719 7.23223 89.9639 7.25008 89.9524 7.26586C89.941 7.28163 89.9263 7.29499 89.9093 7.30512C89.8923 7.31525 89.8734 7.32194 89.8536 7.32477C89.8338 7.3276 89.8137 7.32653 89.7943 7.3216C89.5685 7.29852 89.3401 7.32386 89.1256 7.39583C88.911 7.46779 88.7157 7.58458 88.5537 7.73782C88.5278 7.76827 88.4905 7.7877 88.4499 7.79193Z" fill="#263238"/>
<path d="M97.2128 9.65658C97.2128 9.65658 95.155 7.0677 95.0988 4.8659C95.0988 4.8659 87.6719 3.02204 88.2988 9.93961C88.2988 9.93961 86.7468 3.92524 92.8292 2.99291C98.9117 2.06057 100.317 10.1228 97.524 13.0946C97.5283 13.0946 98.5096 11.2798 97.2128 9.65658Z" fill="#263238"/>
<path d="M96.7371 10.4557C96.7261 10.2575 96.7556 10.0592 96.8241 9.87209C96.8927 9.68495 96.9988 9.51264 97.1365 9.36499C97.2742 9.21735 97.4407 9.09727 97.6266 9.0116C97.8125 8.92593 98.0141 8.87636 98.2199 8.86572C99.3352 8.83658 100.17 10.9468 97.5066 11.8209C97.1219 11.9499 96.8495 11.6086 96.7371 10.4557Z" fill="#EBB376"/>
<path d="M90.9399 12.7532C91.0918 13.1602 91.2117 13.5776 91.2988 14.0019C91.378 14.0061 91.4573 14.0061 91.5365 14.0019C92.6086 13.9561 93.0885 13.5857 93.296 13.2069C93.3925 13.015 93.4414 12.8041 93.4386 12.5909C93.44 12.4701 93.424 12.3496 93.3911 12.233C92.7421 12.544 92.0318 12.7185 91.3074 12.7449L90.9399 12.7532Z" fill="#263238"/>
<path d="M91.3074 12.7325L91.4198 13.0946C92.4314 13.0488 93.149 12.8865 93.4386 12.5785C93.44 12.4576 93.424 12.3372 93.3911 12.2205C92.7421 12.5315 92.0318 12.7061 91.3074 12.7325Z" fill="white"/>
<path d="M91.5364 13.9894C92.6085 13.9436 93.0883 13.5732 93.2958 13.1944C92.8884 13.2196 92.4889 13.314 92.1157 13.4733C91.8716 13.5832 91.6691 13.7636 91.5364 13.9894Z" fill="#DE5753"/>
<path d="M100.394 7.64617L100.139 2.32688L101.103 0.840976C98.5822 -0.0452808 95.8541 -0.235577 93.2268 0.291563L89.8462 3.62132C89.8462 3.62132 96.3739 2.08964 100.394 7.64617Z" fill="#69A090"/>
<path opacity="0.6" d="M89.8638 3.6463C92.3231 3.17137 94.8775 3.54101 97.0832 4.69101C98.41 5.41859 99.5459 6.42958 100.403 7.64617L100.144 2.32688L101.104 0.840976C98.5825 -0.0452808 95.8544 -0.235577 93.2271 0.291563L89.8638 3.6463Z" fill="white"/>
<path opacity="0.1" d="M97.0789 4.69104C98.4057 5.41862 99.5416 6.42961 100.399 7.6462L100.14 2.32691L101.104 0.841003L97.0789 4.69104Z" fill="black"/>
<path d="M90.0364 31.2251L94.7874 30.9129L94.4502 28.3615L89.6992 28.6737L90.0364 31.2251Z" fill="#69A090"/>
<path opacity="0.5" d="M90.2913 31.0253L94.3766 30.7589L94.0869 28.5613L90.0017 28.8277L90.2913 31.0253Z" fill="white"/>
<path d="M91.9344 27.6704L92.3883 28.9024H91.6274V27.6704H91.9344Z" fill="#263238"/>
<path opacity="0.1" d="M108.314 33.3728C103.265 32.89 103.697 26.3886 103.697 26.3886C104.634 25.9871 105.605 25.6613 106.598 25.4147C106.714 27.592 107.06 29.7522 107.631 31.8619C107.82 32.3812 108.048 32.8862 108.314 33.3728Z" fill="black"/>
<path d="M90.1357 38.1759L91.104 37.3435C91.2834 37.1888 91.4987 37.0778 91.7319 37.0198C91.9651 36.9619 92.2094 36.9587 92.4441 37.0105L94.6705 37.4975C95.1089 37.593 95.5171 37.7884 95.8609 38.0672C96.2046 38.346 96.4739 38.7002 96.6461 39.0999L96.8622 39.5994C95.3535 41.0853 92.5868 41.6181 92.5868 41.6181L91.813 41.8553C91.6564 41.9089 91.4903 41.9319 91.3244 41.9229C91.1584 41.9139 90.996 41.8732 90.8467 41.803C90.6973 41.7329 90.564 41.6347 90.4546 41.5143C90.3451 41.394 90.2616 41.2538 90.2091 41.102L89.7034 39.6369C89.6204 39.3792 89.6172 39.1039 89.6939 38.8445C89.7707 38.5851 89.9242 38.3528 90.1357 38.1759Z" fill="#EBB376"/>
<path d="M109.278 24.3658C110.575 28.9775 111.15 33.7765 110.385 38.5173C109.049 43.6492 97.8479 40.9688 94.0696 40.0073C93.8153 39.9344 93.598 39.7737 93.4592 39.556C93.3205 39.3383 93.2701 39.079 93.3178 38.8277C93.3655 38.5765 93.5079 38.351 93.7176 38.1946C93.9274 38.0382 94.1897 37.9619 94.4543 37.9803C96.8363 38.1635 99.296 38.3091 101.678 38.2842C102.814 38.2856 103.949 38.2035 105.072 38.0386C105.658 37.9792 106.223 37.7913 106.723 37.4892C106.758 37.4517 106.667 37.4892 106.619 37.6141L106.52 38.0011C106.722 34.8466 106.485 31.6803 105.815 28.5863C105.621 27.5457 105.383 26.4302 105.102 25.4313C104.505 22.7925 108.426 21.7811 109.278 24.3575V24.3658Z" fill="#E9B376"/>
<path d="M104.376 18.0352C107.946 18.4015 109.563 20.9488 111.089 26.6759C109.758 28.5614 104.605 29.8475 104.605 29.8475C104.605 29.8475 101.535 21.34 104.376 18.0352Z" fill="#69A090"/>
<path opacity="0.6" d="M104.376 18.0352C107.946 18.4015 109.563 20.9488 111.089 26.6759C109.758 28.5614 104.605 29.8475 104.605 29.8475C104.605 29.8475 101.535 21.34 104.376 18.0352Z" fill="white"/>
<path d="M25.3951 112.354C23.7653 112.354 22.4338 113.919 22.4338 115.847C22.4338 117.774 23.7653 119.334 25.3951 119.334C27.0248 119.334 28.3563 117.77 28.3563 115.847C28.3563 113.924 27.0292 112.354 25.3951 112.354Z" fill="#2E353A"/>
<path d="M25.3948 118.09C24.4956 118.09 23.7305 117.062 23.7305 115.847C23.7305 114.631 24.4956 113.603 25.3948 113.603C26.294 113.603 27.0592 114.627 27.0592 115.847C27.0592 117.066 26.3156 118.09 25.3948 118.09Z" fill="#69A090"/>
<path d="M24.9885 116.013V112.067H27.9238L26.3849 116.23C26.3348 116.364 26.2426 116.48 26.1211 116.562C25.9995 116.644 25.8546 116.688 25.7061 116.687C25.5188 116.687 25.3388 116.617 25.2047 116.491C25.0706 116.365 24.993 116.193 24.9885 116.013Z" fill="#2E353A"/>
<path opacity="0.3" d="M24.9885 116.013V112.067H27.9238L26.3849 116.23C26.3348 116.364 26.2426 116.48 26.1211 116.562C25.9995 116.644 25.8546 116.688 25.7061 116.687C25.5188 116.687 25.3388 116.617 25.2047 116.491C25.0706 116.365 24.993 116.193 24.9885 116.013Z" fill="white"/>
<path d="M35.8261 73.1258H34.0969V67.0531C34.0969 66.3069 34.4048 65.5913 34.9529 65.0636C35.5009 64.5359 36.2442 64.2395 37.0193 64.2395H67.7773V65.9044H37.0279C36.7118 65.9055 36.409 66.0269 36.1855 66.2421C35.962 66.4572 35.8359 66.7488 35.8348 67.0531L35.8261 73.1258Z" fill="#263238"/>
<path d="M52.6211 119.335C43.3829 119.335 35.8652 110.465 35.8652 99.5643C35.8652 88.6635 43.3829 79.7897 52.6211 79.7897C61.8593 79.7897 69.3813 88.6593 69.3813 99.5643C69.3813 110.469 61.8637 119.335 52.6211 119.335ZM52.6211 81.8749C44.5717 81.8749 38.0267 89.8123 38.0267 99.5684C38.0267 109.325 44.5717 117.258 52.6211 117.258C60.6705 117.258 67.2198 109.325 67.2198 99.5684C67.2198 89.8123 60.6705 81.8708 52.6211 81.8708V81.8749Z" fill="#2E353A"/>
<path d="M52.6211 81.6625C44.455 81.6625 37.8105 89.6956 37.8105 99.56C37.8105 109.424 44.455 117.457 52.6211 117.457C60.7872 117.457 67.436 109.429 67.436 99.56C67.436 89.6914 60.7915 81.6625 52.6211 81.6625ZM55.6774 96.48L61.6215 89.1545C62.5779 90.4857 63.3279 91.9439 63.8479 93.4832L56.1443 97.3415C56.0151 97.0418 55.8589 96.7535 55.6774 96.48ZM53.0534 94.6944V84.1765C54.4612 84.2423 55.8373 84.6016 57.0867 85.2295L53.7753 94.8817C53.5432 94.7921 53.3008 94.7293 53.0534 94.6944ZM52.1888 94.6944C51.9633 94.7292 51.7418 94.785 51.5274 94.8609L48.3284 85.1463C49.531 84.5676 50.8459 84.2373 52.1888 84.1765V94.6944ZM49.1627 97.2791L41.4851 93.2834C42.0014 91.8165 42.7289 90.4266 43.6466 89.1545L49.5907 96.48C49.419 96.7337 49.27 97.001 49.1454 97.2791H49.1627ZM48.8904 98.0824C48.8028 98.4323 48.7464 98.7888 48.7218 99.1479H40.4087C40.4402 97.4303 40.7076 95.7243 41.2041 94.0742L48.8904 98.0824ZM48.7218 99.9804C48.7449 100.315 48.7954 100.648 48.8731 100.975L41.1565 104.833C40.7038 103.251 40.4584 101.621 40.426 99.9804H48.7218ZM49.1541 101.783C49.2704 102.083 49.4151 102.373 49.5864 102.648L43.6077 109.974C42.6489 108.644 41.8987 107.185 41.3813 105.645L49.1541 101.783ZM52.2234 104.43V114.952C50.8169 114.887 49.442 114.527 48.1944 113.899L51.5058 104.247C51.7255 104.332 51.9547 104.394 52.1888 104.43H52.2234ZM53.088 104.43C53.3153 104.399 53.5385 104.344 53.7537 104.267L56.9527 113.982C55.7486 114.561 54.4323 114.891 53.088 114.952V104.43ZM56.1357 101.849L63.809 105.845C63.2928 107.312 62.5652 108.702 61.6475 109.974L55.7034 102.648C55.8588 102.393 55.9918 102.126 56.1011 101.849H56.1357ZM56.408 101.042C56.4966 100.694 56.5516 100.338 56.5723 99.9804H64.8335C64.8019 101.692 64.5359 103.393 64.0424 105.037L56.408 101.042ZM56.5723 99.1479C56.5513 98.8114 56.5007 98.4773 56.421 98.149L64.1418 94.2948C64.5934 95.877 64.8374 97.5074 64.8681 99.1479H56.5723ZM61.1158 88.4636L55.1673 95.7932C54.9871 95.609 54.7904 95.4405 54.5794 95.2896L57.8735 85.6458C59.1006 86.4035 60.1852 87.3563 61.0812 88.4636H61.1158ZM47.5891 85.55L50.7838 95.2521C50.5526 95.4102 50.3383 95.5901 50.144 95.789L44.1956 88.4594C45.1273 87.3067 46.2647 86.323 47.5546 85.5542L47.5891 85.55ZM44.1956 110.656L50.0921 103.335C50.2738 103.518 50.472 103.685 50.6844 103.835L47.373 113.483C46.1441 112.724 45.058 111.769 44.161 110.661L44.1956 110.656ZM57.7265 113.57L54.5275 103.868C54.7596 103.711 54.974 103.531 55.1673 103.331L61.1158 110.656C60.1671 111.82 59.0071 112.809 57.692 113.574L57.7265 113.57Z" fill="#69A090"/>
<g opacity="0.2">
<path d="M52.6211 81.6625C44.455 81.6625 37.8105 89.6956 37.8105 99.56C37.8105 109.424 44.455 117.457 52.6211 117.457C60.7872 117.457 67.436 109.429 67.436 99.56C67.436 89.6914 60.7915 81.6625 52.6211 81.6625ZM55.6774 96.48L61.6215 89.1545C62.5779 90.4857 63.3279 91.9439 63.8479 93.4832L56.1443 97.3415C56.0151 97.0418 55.8589 96.7535 55.6774 96.48ZM53.0534 94.6944V84.1765C54.4612 84.2423 55.8373 84.6016 57.0867 85.2295L53.7753 94.8817C53.5432 94.7921 53.3008 94.7293 53.0534 94.6944ZM52.1888 94.6944C51.9633 94.7292 51.7418 94.785 51.5274 94.8609L48.3284 85.1463C49.531 84.5676 50.8459 84.2373 52.1888 84.1765V94.6944ZM49.1627 97.2791L41.4851 93.2834C42.0014 91.8165 42.7289 90.4266 43.6466 89.1545L49.5907 96.48C49.419 96.7337 49.27 97.001 49.1454 97.2791H49.1627ZM48.8904 98.0824C48.8028 98.4323 48.7464 98.7888 48.7218 99.1479H40.4087C40.4402 97.4303 40.7076 95.7243 41.2041 94.0742L48.8904 98.0824ZM48.7218 99.9804C48.7449 100.315 48.7954 100.648 48.8731 100.975L41.1565 104.833C40.7038 103.251 40.4584 101.621 40.426 99.9804H48.7218ZM49.1541 101.783C49.2704 102.083 49.4151 102.373 49.5864 102.648L43.6077 109.974C42.6489 108.644 41.8987 107.185 41.3813 105.645L49.1541 101.783ZM52.2234 104.43V114.952C50.8169 114.887 49.442 114.527 48.1944 113.899L51.5058 104.247C51.7255 104.332 51.9547 104.394 52.1888 104.43H52.2234ZM53.088 104.43C53.3153 104.399 53.5385 104.344 53.7537 104.267L56.9527 113.982C55.7486 114.561 54.4323 114.891 53.088 114.952V104.43ZM56.1357 101.849L63.809 105.845C63.2928 107.312 62.5652 108.702 61.6475 109.974L55.7034 102.648C55.8588 102.393 55.9918 102.126 56.1011 101.849H56.1357ZM56.408 101.042C56.4966 100.694 56.5516 100.338 56.5723 99.9804H64.8335C64.8019 101.692 64.5359 103.393 64.0424 105.037L56.408 101.042ZM56.5723 99.1479C56.5513 98.8114 56.5007 98.4773 56.421 98.149L64.1418 94.2948C64.5934 95.877 64.8374 97.5074 64.8681 99.1479H56.5723ZM61.1158 88.4636L55.1673 95.7932C54.9871 95.609 54.7904 95.4405 54.5794 95.2896L57.8735 85.6458C59.1006 86.4035 60.1852 87.3563 61.0812 88.4636H61.1158ZM47.5891 85.55L50.7838 95.2521C50.5526 95.4102 50.3383 95.5901 50.144 95.789L44.1956 88.4594C45.1273 87.3067 46.2647 86.323 47.5546 85.5542L47.5891 85.55ZM44.1956 110.656L50.0921 103.335C50.2738 103.518 50.472 103.685 50.6844 103.835L47.373 113.483C46.1441 112.724 45.058 111.769 44.161 110.661L44.1956 110.656ZM57.7265 113.57L54.5275 103.868C54.7596 103.711 54.974 103.531 55.1673 103.331L61.1158 110.656C60.1671 111.82 59.0071 112.809 57.692 113.574L57.7265 113.57Z" fill="black"/>
</g>
<path d="M63.8867 80.0518H34.097C33.15 80.0518 32.2418 80.414 31.5721 81.0587C30.9025 81.7035 30.5263 82.5779 30.5263 83.4897V110.365C30.5263 110.773 30.3577 111.165 30.0578 111.454C29.7578 111.743 29.351 111.905 28.9268 111.905H22.3861C22.1568 111.905 21.9369 111.993 21.7747 112.149C21.6126 112.305 21.5215 112.517 21.5215 112.737C21.5215 112.958 21.6126 113.17 21.7747 113.326C21.9369 113.482 22.1568 113.57 22.3861 113.57H28.9311C29.8136 113.569 30.6596 113.231 31.2836 112.63C31.9076 112.029 32.2586 111.215 32.2598 110.365V100.397H63.8867C64.116 100.397 64.3359 100.309 64.4981 100.153C64.6602 99.9967 64.7513 99.7849 64.7513 99.5641V80.8842C64.7513 80.6634 64.6602 80.4517 64.4981 80.2956C64.3359 80.1395 64.116 80.0518 63.8867 80.0518ZM63.0221 98.7317H32.2598V83.4897C32.2598 83.0195 32.4538 82.5685 32.7992 82.236C33.1445 81.9035 33.6129 81.7166 34.1014 81.7166H63.0221V98.7317Z" fill="#2E353A"/>
<path opacity="0.3" d="M63.8867 80.0518H34.097C33.15 80.0518 32.2418 80.414 31.5721 81.0587C30.9025 81.7035 30.5263 82.5779 30.5263 83.4897V110.365C30.5263 110.773 30.3577 111.165 30.0578 111.454C29.7578 111.743 29.351 111.905 28.9268 111.905H22.3861C22.1568 111.905 21.9369 111.993 21.7747 112.149C21.6126 112.305 21.5215 112.517 21.5215 112.737C21.5215 112.958 21.6126 113.17 21.7747 113.326C21.9369 113.482 22.1568 113.57 22.3861 113.57H28.9311C29.8136 113.569 30.6596 113.231 31.2836 112.63C31.9076 112.029 32.2586 111.215 32.2598 110.365V100.397H63.8867C64.116 100.397 64.3359 100.309 64.4981 100.153C64.6602 99.9967 64.7513 99.7849 64.7513 99.5641V80.8842C64.7513 80.6634 64.6602 80.4517 64.4981 80.2956C64.3359 80.1395 64.116 80.0518 63.8867 80.0518ZM63.0221 98.7317H32.2598V83.4897C32.2598 83.0195 32.4538 82.5685 32.7992 82.236C33.1445 81.9035 33.6129 81.7166 34.1014 81.7166H63.0221V98.7317Z" fill="white"/>
<path d="M65.8841 43.9405V70.7658H32.5971C31.7349 70.7658 30.908 71.0956 30.2984 71.6826C29.6887 72.2696 29.3462 73.0657 29.3462 73.8958V87.7892H64.1289C64.6453 87.7898 65.1568 87.6923 65.634 87.5024C66.1113 87.3125 66.545 87.0339 66.9104 86.6826C67.2757 86.3312 67.5656 85.9139 67.7633 85.4546C67.9611 84.9953 68.0628 84.503 68.0628 84.0058V43.9405H65.8841Z" fill="#2E353A"/>
<path opacity="0.3" d="M65.8841 43.9405V70.7658H32.5971C31.7349 70.7658 30.908 71.0956 30.2984 71.6826C29.6887 72.2696 29.3462 73.0657 29.3462 73.8958V87.7892H64.1289C64.6453 87.7898 65.1568 87.6923 65.634 87.5024C66.1113 87.3125 66.545 87.0339 66.9104 86.6826C67.2757 86.3312 67.5656 85.9139 67.7633 85.4546C67.9611 84.9953 68.0628 84.503 68.0628 84.0058V43.9405H65.8841Z" fill="white"/>
<path d="M32.2297 80.8301H78.1917V86.9236H28.9486V84.0101C28.9457 83.5935 29.0285 83.1804 29.1921 82.7947C29.3557 82.409 29.5969 82.0583 29.9019 81.7628C30.2069 81.4672 30.5696 81.2327 30.9691 81.0726C31.3686 80.9125 31.797 80.8301 32.2297 80.8301Z" fill="#263238"/>
<path d="M81.4556 86.0577H28.9097C28.7916 86.0577 28.6747 86.0801 28.5656 86.1236C28.4565 86.1671 28.3574 86.2309 28.2739 86.3113C28.1904 86.3917 28.1241 86.4871 28.0789 86.5922C28.0338 86.6972 28.0105 86.8098 28.0105 86.9235C28.0105 87.0372 28.0338 87.1497 28.0789 87.2548C28.1241 87.3598 28.1904 87.4553 28.2739 87.5356C28.3574 87.616 28.4565 87.6798 28.5656 87.7233C28.6747 87.7668 28.7916 87.7892 28.9097 87.7892H81.4556C81.6878 87.7884 81.9109 87.7014 82.0783 87.5464C82.2457 87.3914 82.3447 87.1802 82.3547 86.9568C82.3594 86.8403 82.3396 86.7242 82.2965 86.6152C82.2534 86.5063 82.1879 86.4069 82.1039 86.323C82.02 86.239 81.9193 86.1722 81.8078 86.1267C81.6964 86.0811 81.5766 86.0577 81.4556 86.0577Z" fill="#2E353A"/>
<path opacity="0.3" d="M81.4556 86.0577H28.9097C28.7916 86.0577 28.6747 86.0801 28.5656 86.1236C28.4565 86.1671 28.3574 86.2309 28.2739 86.3113C28.1904 86.3917 28.1241 86.4871 28.0789 86.5922C28.0338 86.6972 28.0105 86.8098 28.0105 86.9235C28.0105 87.0372 28.0338 87.1497 28.0789 87.2548C28.1241 87.3598 28.1904 87.4553 28.2739 87.5356C28.3574 87.616 28.4565 87.6798 28.5656 87.7233C28.6747 87.7668 28.7916 87.7892 28.9097 87.7892H81.4556C81.6878 87.7884 81.9109 87.7014 82.0783 87.5464C82.2457 87.3914 82.3447 87.1802 82.3547 86.9568C82.3594 86.8403 82.3396 86.7242 82.2965 86.6152C82.2534 86.5063 82.1879 86.4069 82.1039 86.323C82.02 86.239 81.9193 86.1722 81.8078 86.1267C81.6964 86.0811 81.5766 86.0577 81.4556 86.0577Z" fill="white"/>
<path d="M66.6577 44.7313H85.1082V80.5637C85.1082 82.0208 84.507 83.4183 83.4369 84.4486C82.3667 85.4789 80.9153 86.0578 79.4019 86.0578H66.6577V44.7313Z" fill="#263238"/>
<path d="M28.6627 110.502H13.6749C13.0828 110.502 12.6028 110.964 12.6028 111.535V112.117C12.6028 112.687 13.0828 113.149 13.6749 113.149H28.6627C29.2548 113.149 29.7348 112.687 29.7348 112.117V111.535C29.7348 110.964 29.2548 110.502 28.6627 110.502Z" fill="#2E353A"/>
<path opacity="0.2" d="M28.6627 110.502H13.6749C13.0828 110.502 12.6028 110.964 12.6028 111.535V112.117C12.6028 112.687 13.0828 113.149 13.6749 113.149H28.6627C29.2548 113.149 29.7348 112.687 29.7348 112.117V111.535C29.7348 110.964 29.2548 110.502 28.6627 110.502Z" fill="white"/>
<path d="M81.373 98.9773L64.6387 93.2418L81.373 87.5104C81.459 87.4877 81.5391 87.4482 81.6085 87.3943C81.6779 87.3404 81.7349 87.2733 81.7762 87.1973C81.8174 87.1212 81.8419 87.0377 81.8482 86.9521C81.8544 86.8665 81.8423 86.7806 81.8125 86.6997C81.7827 86.6189 81.7359 86.5447 81.675 86.4821C81.6142 86.4194 81.5405 86.3694 81.4587 86.3354C81.3769 86.3013 81.2887 86.2838 81.1996 86.2841C81.1105 86.2843 81.0223 86.3022 80.9407 86.3367L62.7064 92.58L44.4763 86.3367C44.3947 86.3022 44.3066 86.2843 44.2175 86.2841C44.1284 86.2838 44.0401 86.3013 43.9583 86.3354C43.8765 86.3694 43.8029 86.4194 43.742 86.4821C43.6812 86.5447 43.6344 86.6189 43.6046 86.6997C43.5748 86.7806 43.5627 86.8665 43.5689 86.9521C43.5751 87.0377 43.5997 87.1212 43.6409 87.1973C43.6821 87.2733 43.7392 87.3404 43.8086 87.3943C43.8779 87.4482 43.9581 87.4877 44.0441 87.5104L60.7697 93.2418L44.0397 98.9773C43.9538 99 43.8736 99.0395 43.8043 99.0934C43.7349 99.1473 43.6778 99.2144 43.6366 99.2905C43.5953 99.3665 43.5708 99.45 43.5646 99.5356C43.5583 99.6212 43.5705 99.7071 43.6003 99.788C43.6301 99.8689 43.6768 99.943 43.7377 100.006C43.7986 100.068 43.8722 100.118 43.954 100.152C44.0358 100.186 44.124 100.204 44.2132 100.204C44.3023 100.203 44.3904 100.186 44.472 100.151L62.7021 93.9077L80.9364 100.151C81.018 100.186 81.1061 100.203 81.1953 100.204C81.2844 100.204 81.3726 100.186 81.4544 100.152C81.5362 100.118 81.6099 100.068 81.6707 100.006C81.7316 99.943 81.7784 99.8689 81.8082 99.788C81.8379 99.7071 81.8501 99.6212 81.8438 99.5356C81.8376 99.45 81.8131 99.3665 81.7719 99.2905C81.7306 99.2144 81.6735 99.1473 81.6042 99.0934C81.5348 99.0395 81.4546 99 81.3687 98.9773H81.373Z" fill="#2E353A"/>
<path opacity="0.3" d="M81.373 98.9773L64.6387 93.2418L81.373 87.5104C81.459 87.4877 81.5391 87.4482 81.6085 87.3943C81.6779 87.3404 81.7349 87.2733 81.7762 87.1973C81.8174 87.1212 81.8419 87.0377 81.8482 86.9521C81.8544 86.8665 81.8423 86.7806 81.8125 86.6997C81.7827 86.6189 81.7359 86.5447 81.675 86.4821C81.6142 86.4194 81.5405 86.3694 81.4587 86.3354C81.3769 86.3013 81.2887 86.2838 81.1996 86.2841C81.1105 86.2843 81.0223 86.3022 80.9407 86.3367L62.7064 92.58L44.4763 86.3367C44.3947 86.3022 44.3066 86.2843 44.2175 86.2841C44.1284 86.2838 44.0401 86.3013 43.9583 86.3354C43.8765 86.3694 43.8029 86.4194 43.742 86.4821C43.6812 86.5447 43.6344 86.6189 43.6046 86.6997C43.5748 86.7806 43.5627 86.8665 43.5689 86.9521C43.5751 87.0377 43.5997 87.1212 43.6409 87.1973C43.6821 87.2733 43.7392 87.3404 43.8086 87.3943C43.8779 87.4482 43.9581 87.4877 44.0441 87.5104L60.7697 93.2418L44.0397 98.9773C43.9538 99 43.8736 99.0395 43.8043 99.0934C43.7349 99.1473 43.6778 99.2144 43.6366 99.2905C43.5953 99.3665 43.5708 99.45 43.5646 99.5356C43.5583 99.6212 43.5705 99.7071 43.6003 99.788C43.6301 99.8689 43.6768 99.943 43.7377 100.006C43.7986 100.068 43.8722 100.118 43.954 100.152C44.0358 100.186 44.124 100.204 44.2132 100.204C44.3023 100.203 44.3904 100.186 44.472 100.151L62.7021 93.9077L80.9364 100.151C81.018 100.186 81.1061 100.203 81.1953 100.204C81.2844 100.204 81.3726 100.186 81.4544 100.152C81.5362 100.118 81.6099 100.068 81.6707 100.006C81.7316 99.943 81.7784 99.8689 81.8082 99.788C81.8379 99.7071 81.8501 99.6212 81.8438 99.5356C81.8376 99.45 81.8131 99.3665 81.7719 99.2905C81.7306 99.2144 81.6735 99.1473 81.6042 99.0934C81.5348 99.0395 81.4546 99 81.3687 98.9773H81.373Z" fill="white"/>
<path d="M66.9519 47.8988C66.7799 47.8988 66.615 47.833 66.4934 47.716C66.3718 47.5989 66.3035 47.4401 66.3035 47.2745V42.4921C66.3024 41.576 66.6678 40.6947 67.3239 40.0313C67.98 39.3678 68.8763 38.9732 69.8267 38.9293L74.0157 38.7337C74.1877 38.7259 74.3558 38.7843 74.4831 38.8959C74.6103 39.0075 74.6864 39.1633 74.6944 39.3288C74.7024 39.4944 74.6418 39.6563 74.5259 39.7788C74.4099 39.9014 74.2482 39.9746 74.0762 39.9823L69.8915 40.1779C69.2738 40.2058 68.6909 40.4618 68.2642 40.8928C67.8374 41.3239 67.5997 41.8967 67.6004 42.4921V47.2745C67.6004 47.4401 67.532 47.5989 67.4104 47.716C67.2888 47.833 67.1239 47.8988 66.9519 47.8988Z" fill="#263238"/>
<path d="M41.8309 112.354C40.2012 112.354 38.874 113.919 38.874 115.847C38.874 117.774 40.2012 119.334 41.8309 119.334C43.4607 119.334 44.7922 117.77 44.7922 115.847C44.7922 113.924 43.465 112.354 41.8309 112.354Z" fill="#2E353A"/>
<path d="M41.8307 118.09C40.9315 118.09 40.1707 117.062 40.1707 115.847C40.1707 114.631 40.9315 113.603 41.8307 113.603C42.7299 113.603 43.495 114.627 43.495 115.847C43.495 117.066 42.7428 118.09 41.8307 118.09Z" fill="#69A090"/>
<path d="M41.4463 116.013V112.067H44.3816L42.8383 116.23C42.789 116.364 42.6977 116.48 42.5768 116.562C42.456 116.644 42.3117 116.688 42.1639 116.687C41.9765 116.687 41.7966 116.617 41.6625 116.491C41.5284 116.365 41.4508 116.193 41.4463 116.013Z" fill="#2E353A"/>
<path opacity="0.6" d="M41.4463 116.013V112.067H44.3816L42.8383 116.23C42.789 116.364 42.6977 116.48 42.5768 116.562C42.456 116.644 42.3117 116.688 42.1639 116.687C41.9765 116.687 41.7966 116.617 41.6625 116.491C41.5284 116.365 41.4508 116.193 41.4463 116.013Z" fill="white"/>
<path d="M52.6164 63.6901L51.2115 66.0792C51.2115 66.0792 30.5173 66.1083 26.4581 70.0582C22.3988 74.0082 17.0945 86.2908 17.0945 86.2908L24.9882 89.1461L33.7985 77.0091L61.2754 78.7531L63.96 63.3196L52.6164 63.6901Z" fill="#263238"/>
<path opacity="0.2" d="M63.9647 63.3071L61.2802 78.7406L45.4624 77.7375L33.7903 76.9966L30.0941 82.0953L24.9757 89.171L17.0776 86.3158C17.0776 86.3158 22.3819 74.0373 26.4455 70.0832C30.5092 66.1291 51.199 66.1041 51.199 66.1041L52.6039 63.715L63.9647 63.3071Z" fill="white"/>
<path opacity="0.2" d="M45.4621 77.7375L33.79 76.9967L30.0938 82.0954C29.5448 79.2193 28.9483 72.6971 30.5261 70.5078C32.5623 67.6692 45.8641 66.9575 52.0849 67.3612C55.7637 67.5984 51.8212 73.2008 45.4621 77.7375Z" fill="black"/>
<path d="M56.6458 40.3361C55.712 46.0258 54.735 51.6531 52.9972 57.2096C51.9034 60.6185 42.6782 63.482 39.3063 64.481C38.9951 64.5698 38.661 64.5461 38.3667 64.4144C38.0724 64.2826 37.8382 64.052 37.7081 63.7657C37.578 63.4794 37.561 63.1573 37.6602 62.8598C37.7595 62.5623 37.9682 62.3099 38.2471 62.1501C40.4864 60.8682 42.7647 59.5862 44.9089 58.271C46.0242 57.5759 47.9349 56.3689 48.4667 55.6654C48.4363 55.7218 48.4103 55.7802 48.3889 55.8403C48.3889 55.8111 48.4407 55.6238 48.4494 55.5864C49.6252 50.3253 50.3601 44.8396 51.3717 39.5161C52.085 36.2321 57.0391 36.9897 56.6458 40.3486V40.3361Z" fill="#DD8A7D"/>
<path d="M54.8475 35.025C51.8214 35.4412 50.1354 37.7554 48.8904 47.624L56.7582 49.4137C56.7582 49.4137 59.0667 43.4327 58.9802 40.5857C58.8938 37.7388 54.8475 35.025 54.8475 35.025Z" fill="#69A090"/>
<path opacity="0.2" d="M56.7497 49.4137L55.7684 49.189L51.212 48.1526L48.8862 47.624C50.1269 37.7554 51.7913 35.4371 54.839 35.025C54.839 35.025 58.8896 37.7429 58.9761 40.5857C59.0625 43.4285 56.7497 49.4137 56.7497 49.4137Z" fill="white"/>
<path opacity="0.2" d="M55.7683 49.189L51.2119 48.1527C51.6183 46.3712 52.8114 42.1091 55.0723 41.4182C57.3333 40.7273 59.3348 47.5783 55.7683 49.189Z" fill="black"/>
<path d="M40.214 108.75L44.4419 107.76L44.1739 103.785L43.9145 100.143L38.7615 100.796L39.5266 105.008L40.214 108.75Z" fill="#E4897B"/>
<path opacity="0.2" d="M39.5481 105.092L44.191 103.859L43.9273 100.18L38.7656 100.813L39.5481 105.092Z" fill="black"/>
<path d="M44.6018 106.681C44.5802 106.373 39.5266 106.79 39.5266 106.79C39.5266 106.79 36.5005 109.287 33.496 109.92C30.4916 110.552 32.2337 111.868 35.6143 111.755L43.975 111.464C46.3785 111.381 44.8179 109.891 44.6018 106.681Z" fill="#2E353A"/>
<path d="M73.0038 63.5446C73.0038 63.5446 74.9102 76.2434 70.4705 80.8302C66.0308 85.4169 43.4519 78.8281 42.7689 79.1653C42.0858 79.5024 44.4418 102.399 44.4418 102.399L37.8104 103.327C37.8104 103.327 30.6083 79.9228 30.7683 73.1259C30.9282 66.3291 54.977 67.0908 54.977 67.0908L56.3646 63.5446H73.0038Z" fill="#2E353A"/>
<path opacity="0.2" d="M73.0038 63.5446C73.0038 63.5446 74.9102 76.2434 70.4705 80.8302C66.0308 85.4169 43.4519 78.8281 42.7689 79.1653C42.0858 79.5024 44.4418 102.399 44.4418 102.399L37.8104 103.327C37.8104 103.327 30.6083 79.9228 30.7683 73.1259C30.9282 66.3291 54.977 67.0908 54.977 67.0908L56.3646 63.5446H73.0038Z" fill="white"/>
<path d="M73.0948 63.6902C73.6352 52.498 77.0546 36.6609 77.0546 36.6609C67.57 34.4591 54.8345 34.996 54.8345 34.996C52.3531 43.541 52.4007 57.3303 52.6168 63.6735L73.0948 63.6902Z" fill="#69A090"/>
<path opacity="0.2" d="M73.0903 63.6902C73.2675 60.0816 73.7387 55.9901 74.3007 52.1026C74.6206 49.8883 74.9708 47.7406 75.308 45.7844C76.2201 40.5276 77.0372 36.6609 77.0372 36.6609C67.5525 34.4591 54.8214 34.996 54.8214 34.996C52.34 43.541 52.3832 57.3303 52.5993 63.6735L73.0903 63.6902Z" fill="white"/>
<path opacity="0.2" d="M75.3081 45.7928C74.9709 47.749 74.6208 49.8967 74.3009 52.111C73.6615 50.9521 73.2949 49.672 73.2269 48.3614C73.1589 47.0508 73.3913 45.7419 73.9075 44.5275L75.3081 45.7928Z" fill="black"/>
<path d="M69.5456 35.4373C67.7904 36.9731 63.4934 36.4071 63.4934 36.4071C63.4934 36.4071 60.8088 35.6995 61.3708 34.892C62.953 34.6381 63.7182 33.9306 64.0338 33.019C64.2084 32.4568 64.2628 31.8664 64.1937 31.2834C64.1675 30.9569 64.1243 30.6318 64.064 30.3095L69.377 26.5219C68.681 29.0233 67.8164 33.6267 69.5456 35.4373Z" fill="#E4897B"/>
<path opacity="0.2" d="M68.1318 28.9317C67.92 31.9992 65.3003 32.8483 64.0164 33.019C64.191 32.4568 64.2454 31.8663 64.1763 31.2833L68.1318 28.9317Z" fill="black"/>
<path d="M59.9959 18.6551C59.9959 18.6551 58.5348 23.4375 60.96 25.6726C63.3852 27.9077 64.6777 18.8091 64.6777 18.8091L59.9959 18.6551Z" fill="#6F4439"/>
<path d="M68.2486 30.5799C67.5712 31.3108 66.663 31.8069 65.6639 31.992C64.6648 32.177 63.6302 32.0406 62.7196 31.6038C61.532 31.061 60.6043 30.1023 60.1258 28.9234C60.057 28.7602 59.9978 28.5935 59.9485 28.4239C59.045 25.2648 59.3649 19.9871 62.9227 18.4596C63.7066 18.1187 64.568 17.9766 65.425 18.0468C66.2821 18.117 67.1062 18.3971 67.8189 18.8606C68.5317 19.3241 69.1095 19.9555 69.4972 20.6947C69.8849 21.4339 70.0697 22.2564 70.034 23.0838C69.9087 26.6466 70.0297 28.7277 68.2486 30.5799Z" fill="#E4897B"/>
<path d="M64.4535 24.2533C64.4837 24.5405 64.3151 24.7819 64.1163 24.7861C63.9174 24.7902 63.7531 24.5613 63.7445 24.2741C63.7358 23.9869 63.8872 23.7497 64.0817 23.7414C64.2762 23.733 64.4405 23.962 64.4535 24.2533Z" fill="#263238"/>
<path d="M61.068 24.3615C61.0983 24.6487 60.9254 24.8901 60.7309 24.8943C60.5363 24.8984 60.3677 24.6695 60.3548 24.3823C60.3418 24.0951 60.4974 23.8579 60.692 23.8496C60.8865 23.8412 61.0551 24.091 61.068 24.3615Z" fill="#263238"/>
<path d="M62.1488 24.4697C61.821 25.358 61.3671 26.1984 60.8 26.967C61.0111 27.1029 61.2507 27.1923 61.5017 27.229C61.7528 27.2657 62.0091 27.2487 62.2526 27.1793L62.1488 24.4697Z" fill="#DE5753"/>
<path d="M59.7627 23.0089C59.7908 23.025 59.8229 23.0335 59.8556 23.0335C59.8883 23.0335 59.9204 23.025 59.9486 23.0089C60.1286 22.887 60.3355 22.8071 60.553 22.7753C60.7706 22.7435 60.9928 22.7608 61.2022 22.8257C61.2231 22.8352 61.2458 22.8405 61.2689 22.8413C61.292 22.842 61.315 22.8381 61.3365 22.8299C61.358 22.8217 61.3775 22.8094 61.3938 22.7936C61.4101 22.7779 61.4229 22.759 61.4313 22.7383C61.4406 22.7181 61.4456 22.6963 61.4461 22.6743C61.4465 22.6522 61.4424 22.6302 61.4339 22.6097C61.4255 22.5892 61.4129 22.5705 61.3968 22.5547C61.3808 22.5389 61.3617 22.5263 61.3406 22.5177C61.0779 22.4273 60.7965 22.3994 60.5202 22.4363C60.244 22.4733 59.9811 22.574 59.754 22.73C59.7343 22.7411 59.7171 22.7559 59.7035 22.7736C59.6899 22.7913 59.6802 22.8114 59.6749 22.8328C59.6697 22.8543 59.669 22.8765 59.6729 22.8981C59.6769 22.9198 59.6853 22.9405 59.6978 22.9589C59.7163 22.979 59.7383 22.9959 59.7627 23.0089Z" fill="#263238"/>
<path d="M65.0756 22.9298C65.1117 22.9262 65.1461 22.9133 65.175 22.8923C65.1898 22.8752 65.2009 22.8554 65.2076 22.8342C65.2143 22.8129 65.2165 22.7905 65.2141 22.7684C65.2116 22.7463 65.2047 22.7249 65.1935 22.7054C65.1823 22.6859 65.1672 22.6688 65.1491 22.6551C64.9335 22.4826 64.6781 22.3624 64.4043 22.3045C64.1306 22.2465 63.8464 22.2526 63.5755 22.3221C63.5315 22.3372 63.4955 22.3684 63.4753 22.4089C63.455 22.4494 63.4522 22.496 63.4675 22.5385C63.4831 22.5799 63.5149 22.6139 63.556 22.6333C63.597 22.6527 63.6443 22.656 63.6879 22.6426C63.9034 22.5942 64.1276 22.5946 64.3428 22.6437C64.5581 22.6928 64.7586 22.7893 64.9286 22.9256C64.9513 22.9367 64.9762 22.9428 65.0016 22.9435C65.027 22.9442 65.0523 22.9395 65.0756 22.9298Z" fill="#263238"/>
<path d="M67.1507 18.7384L66.9302 20.2992C67.2022 20.429 67.4134 20.6528 67.5216 20.9259C67.6297 21.1991 67.627 21.5014 67.5138 21.7726C66.9691 23.0796 67.717 25.1274 68.7502 25.9557C68.7502 25.9557 68.7891 25.3854 69.2862 25.5394C69.7833 25.6934 69.6018 28.6444 68.6075 30.0471C68.6075 30.0471 70.0989 28.7984 70.9765 25.6851C71.7892 22.8215 71.9189 20.4241 71.3223 19.3003L67.1507 18.7384Z" fill="#6F4439"/>
<path d="M71.707 25.9349C71.5189 26.3388 71.2499 26.703 70.9153 27.0065C70.5807 27.3101 70.1872 27.547 69.7573 27.7039C68.6074 28.1201 67.9287 27.1503 68.1578 26.039C68.374 25.065 69.2213 23.6416 70.4231 23.7123C71.6248 23.7831 72.1652 24.9318 71.707 25.9349Z" fill="#E4897B"/>
<path d="M66.9517 20.3117C66.9517 20.3117 58.5089 21.9266 60.1646 16.8071C60.1646 16.8071 64.8637 14.8925 68.5685 16.0746C72.2733 17.2566 71.4433 21.0068 71.4433 21.0068L66.9517 20.3117Z" fill="#6F4439"/>
<path d="M62.5855 28.9025C62.5585 28.9081 62.5305 28.9081 62.5034 28.9025C62.4671 28.8801 62.441 28.8453 62.4306 28.805C62.4201 28.7648 62.4261 28.7222 62.4472 28.686C62.4775 28.6402 63.1821 27.5789 65.1275 27.5081C65.151 27.5044 65.175 27.5057 65.198 27.5118C65.2209 27.5179 65.2422 27.5288 65.2604 27.5437C65.2785 27.5585 65.2931 27.577 65.3031 27.5978C65.3131 27.6186 65.3183 27.6413 65.3183 27.6642C65.3183 27.6871 65.3131 27.7098 65.3031 27.7306C65.2931 27.7514 65.2785 27.7699 65.2604 27.7847C65.2422 27.7996 65.2209 27.8105 65.198 27.8166C65.175 27.8227 65.151 27.824 65.1275 27.8203C63.3637 27.8827 62.7368 28.8109 62.7109 28.8525C62.6951 28.8692 62.6757 28.8823 62.654 28.8909C62.6323 28.8995 62.609 28.9035 62.5855 28.9025Z" fill="#263238"/>
<path d="M60.3551 29.4603C60.3551 29.4603 61.652 31.1793 63.459 31.2209C65.266 31.2626 68.2705 28.091 70.0083 28.195L70.4881 28.7486C70.4881 28.7486 69.9737 32.6943 70.4881 33.6267C71.0026 34.559 72.7102 35.6037 72.7102 35.6037V35.8701C72.7102 35.8701 68.2661 39.8617 62.9056 38.8294C57.5451 37.7972 58.0985 34.9711 58.0985 34.9711L58.6302 34.6214C58.6302 34.6214 60.2081 33.9014 60.5583 32.8608C60.9084 31.8203 59.9314 29.8016 59.9314 29.8016L60.3551 29.4603Z" fill="#69A090"/>
<path opacity="0.6" d="M60.3551 29.4603C60.3551 29.4603 61.652 31.1793 63.459 31.2209C65.266 31.2626 68.2705 28.091 70.0083 28.195L70.4881 28.7486C70.4881 28.7486 69.9737 32.6943 70.4881 33.6267C71.0026 34.559 72.7102 35.6037 72.7102 35.6037V35.8701C72.7102 35.8701 68.2661 39.8617 62.9056 38.8294C57.5451 37.7972 58.0985 34.9711 58.0985 34.9711L58.6302 34.6214C58.6302 34.6214 60.2081 33.9014 60.5583 32.8608C60.9084 31.8203 59.9314 29.8016 59.9314 29.8016L60.3551 29.4603Z" fill="white"/>
<path opacity="0.1" d="M69.113 28.3572L69.5453 29.0856C69.5453 29.0856 69.3595 32.4986 69.5453 33.5974C69.7312 34.6962 71.4734 36.153 71.4734 36.153V36.8023L71.2443 36.2321C70.6605 35.9155 70.1642 35.4687 69.7971 34.9291C69.43 34.3895 69.2028 33.7729 69.1347 33.1312C69.034 31.8326 69.0994 30.527 69.3292 29.2437L69.113 28.3572Z" fill="black"/>
<path d="M68.2917 30.9752L69.995 30.3884V31.2125L68.2917 31.816V30.9752Z" fill="white"/>
<path d="M70.9115 34.613L70.851 34.6463L69.312 35.4579L69.8048 36.2321L71.4562 35.1915" fill="white"/>
<path d="M38.5282 61.9212L34.9185 62.3374L37.3264 66.1084C37.3264 66.1084 40.3179 65.1136 39.9202 63.5237L38.5282 61.9212Z" fill="#E4897B"/>
<path d="M32.7915 64.3353L34.9357 67.3612L37.3263 66.0917L34.9184 62.3208L32.7915 64.3353Z" fill="#E4897B"/>
<path d="M79.0171 39.82C80.1454 44.0738 82.2853 53.4512 77.8283 56.4147C73.7301 58.7913 66.7874 57.2763 62.4947 56.0234C62.1725 55.9357 61.8967 55.7341 61.7225 55.4588C61.5482 55.1836 61.4885 54.8551 61.5552 54.5392C61.6219 54.2234 61.8101 53.9434 62.0822 53.7556C62.3542 53.5677 62.6899 53.4857 63.0221 53.5261C64.172 53.5802 65.3781 53.6427 66.5453 53.6552C69.2083 53.6552 72.109 53.7634 74.5645 52.881C74.7546 52.8058 74.9334 52.7064 75.0962 52.5855C74.9276 52.6937 75.1481 52.4065 75.2043 51.9819C75.6365 48.4316 74.612 44.5732 73.8425 41.0853C73.1681 37.818 77.9753 36.6401 79.0301 39.8367L79.0171 39.82Z" fill="#DD8A7D"/>
<path d="M77.0542 36.6732C79.7215 37.5057 80.8239 40.569 81.6409 48.7061L74.2573 49.3305C74.2573 49.3305 72.0958 43.5242 72.4848 40.415C72.8739 37.3059 77.0542 36.6732 77.0542 36.6732Z" fill="#69A090"/>
<path opacity="0.2" d="M77.0542 36.6732C79.7215 37.5057 80.8239 40.569 81.6409 48.7061L74.2573 49.3305C74.2573 49.3305 72.0958 43.5242 72.4848 40.415C72.8739 37.3059 77.0542 36.6732 77.0542 36.6732Z" fill="white"/>
<path d="M57.3202 51.0787C55.6126 51.1703 54.9253 54.1837 55.0982 56.5312C55.2711 58.8787 60.0566 58.5457 60.0566 58.5457C60.0566 58.5457 71.0024 60.9057 76.7001 59.5862C82.3978 58.2668 81.6024 50.5876 81.6024 50.5876C81.6024 50.5876 80.7378 50.1713 77.4437 49.9591C74.1496 49.7468 73.847 50.3129 73.847 50.3129C73.847 50.3129 74.2793 51.6739 73.2072 52.1151C72.1351 52.5563 61.4227 50.8623 57.3202 51.0787Z" fill="#69A090"/>
<path opacity="0.6" d="M57.3202 51.0787C55.6126 51.1703 54.9253 54.1837 55.0982 56.5312C55.2711 58.8787 60.0566 58.5457 60.0566 58.5457C60.0566 58.5457 71.0024 60.9057 76.7001 59.5862C82.3978 58.2668 81.6024 50.5876 81.6024 50.5876C81.6024 50.5876 80.7378 50.1713 77.4437 49.9591C74.1496 49.7468 73.847 50.3129 73.847 50.3129C73.847 50.3129 74.2793 51.6739 73.2072 52.1151C72.1351 52.5563 61.4227 50.8623 57.3202 51.0787Z" fill="white"/>
<path d="M57.7005 34.8045C57.7005 34.8045 58.6083 39.2789 61.6257 45.2808C64.8896 51.7821 71.4562 55.5822 71.4562 55.5822L70.008 56.5312C70.008 56.5312 63.8607 52.1151 60.2251 45.6678C58.3857 42.3098 57.116 38.6902 56.4641 34.946L57.7005 34.8045Z" fill="#263238"/>
<path d="M70.3366 56.9266L71.9707 55.8944C71.9707 55.8944 74.5256 56.7268 76.2937 56.5312C78.0618 56.3356 79.3587 56.3065 80.4697 57.3387C79.7407 58.3218 78.769 59.1148 77.6423 59.646C76.5155 60.1771 75.269 60.4298 74.0154 60.3813C69.5671 60.3022 68.1232 59.9859 68.1232 59.9859C68.0751 59.5836 68.1948 59.1794 68.4561 58.8621C68.8927 58.4084 70.3366 56.9266 70.3366 56.9266Z" fill="#69A090"/>
<path d="M70.2892 57.3969C70.2133 57.3972 70.1382 57.3813 70.0695 57.3503C70.0007 57.3194 69.9399 57.2742 69.8915 57.218L69.6234 56.9058C69.5759 56.8533 69.5408 56.7915 69.5207 56.7247C69.5005 56.6578 69.4958 56.5875 69.5067 56.5187C69.5169 56.4502 69.5418 56.3845 69.5797 56.3258C69.6177 56.267 69.6679 56.2165 69.7272 56.1774L71.1322 55.2409C71.2295 55.1763 71.3468 55.1455 71.4648 55.1539C71.5827 55.1622 71.6941 55.2091 71.7806 55.2867L72.1005 55.5739C72.1595 55.6261 72.2048 55.6911 72.2326 55.7634C72.2604 55.8358 72.2699 55.9135 72.2605 55.9901C72.256 56.0641 72.2337 56.136 72.1955 56.2003C72.1572 56.2646 72.104 56.3195 72.04 56.3606L70.5788 57.322C70.4922 57.3744 70.3913 57.4005 70.2892 57.3969ZM69.9693 56.5187C69.9596 56.5256 69.9516 56.5343 69.9456 56.5443C69.9397 56.5544 69.9359 56.5655 69.9347 56.577C69.9283 56.5973 69.9283 56.6191 69.9347 56.6394L70.2027 56.9516C70.2187 56.9656 70.2395 56.9734 70.2611 56.9734C70.2827 56.9734 70.3035 56.9656 70.3194 56.9516L71.7763 55.9943C71.7873 55.9874 71.7965 55.9782 71.8032 55.9674C71.8099 55.9566 71.814 55.9444 71.8152 55.9318C71.8162 55.9196 71.8145 55.9073 71.81 55.8957C71.8055 55.8842 71.7984 55.8738 71.7892 55.8653L71.4693 55.5781C71.454 55.5662 71.435 55.5598 71.4153 55.5598C71.3957 55.5598 71.3766 55.5662 71.3613 55.5781L69.9693 56.5187Z" fill="white"/>
<path d="M19.5459 78.3037L30.5306 83.4898C30.5306 83.4898 17.9507 105.038 15.9016 106.195C13.8525 107.352 0.0622058 102.894 0.00168407 101.246C-0.0588377 99.5975 1.53202 96.6174 1.53202 96.6174L9.51657 97.2792L19.5459 78.3037Z" fill="#69A090"/>
<path opacity="0.6" d="M19.5459 78.3037L30.5306 83.4898C30.5306 83.4898 17.9507 105.038 15.9016 106.195C13.8525 107.352 0.0622058 102.894 0.00168407 101.246C-0.0588377 99.5975 1.53202 96.6174 1.53202 96.6174L9.51657 97.2792L19.5459 78.3037Z" fill="white"/>
<path d="M53.1181 73.1258H51.3889V67.0531C51.3901 66.3065 51.6989 65.5909 52.2476 65.0633C52.7964 64.5358 53.5401 64.2395 54.3156 64.2395H85.1082V65.9044H54.3329C54.016 65.9044 53.7121 66.0253 53.4877 66.2406C53.2632 66.4559 53.1365 66.7481 53.1354 67.0531L53.1181 73.1258Z" fill="#263238"/>
<g opacity="0.4">
<path d="M53.1181 73.1258H51.3889V67.0531C51.3901 66.3065 51.6989 65.5909 52.2476 65.0633C52.7964 64.5358 53.5401 64.2395 54.3156 64.2395H85.1082V65.9044H54.3329C54.016 65.9044 53.7121 66.0253 53.4877 66.2406C53.2632 66.4559 53.1365 66.7481 53.1354 67.0531L53.1181 73.1258Z" fill="white"/>
</g>
<path d="M85.1084 47.8988C84.9364 47.8988 84.7715 47.833 84.6499 47.716C84.5283 47.5989 84.46 47.4401 84.46 47.2745V42.4921C84.4589 41.576 84.8243 40.6947 85.4804 40.0313C86.1365 39.3678 87.0328 38.9732 87.9832 38.9293L92.1722 38.7337C92.2573 38.7298 92.3424 38.7422 92.4226 38.77C92.5028 38.7979 92.5765 38.8406 92.6396 38.8959C92.7026 38.9512 92.7537 39.0179 92.7899 39.0921C92.8262 39.1664 92.8469 39.2469 92.8509 39.3288C92.8549 39.4108 92.842 39.4928 92.8131 39.57C92.7842 39.6472 92.7398 39.7182 92.6824 39.7788C92.625 39.8395 92.5557 39.8887 92.4785 39.9236C92.4014 39.9585 92.3178 39.9785 92.2327 39.9823L88.048 40.1779C87.4302 40.2058 86.8474 40.4618 86.4207 40.8928C85.9939 41.3239 85.7562 41.8967 85.7569 42.4921V47.2745C85.7569 47.4401 85.6885 47.5989 85.5669 47.716C85.4453 47.833 85.2804 47.8988 85.1084 47.8988Z" fill="#263238"/>
<path d="M84.0406 44.9935V70.7658H50.7536C49.8914 70.7658 49.0645 71.0956 48.4548 71.6826C47.8452 72.2696 47.5027 73.0657 47.5027 73.8958V87.7892H82.2854C82.8018 87.7898 83.3133 87.6923 83.7905 87.5024C84.2678 87.3125 84.7015 87.0339 85.0668 86.6826C85.4322 86.3312 85.722 85.9139 85.9198 85.4546C86.1175 84.9953 86.2193 84.503 86.2193 84.0058V44.9935C86.2182 44.7139 86.102 44.446 85.8962 44.2487C85.6904 44.0513 85.4118 43.9405 85.1213 43.9405C84.8338 43.9448 84.5596 44.0576 84.3575 44.2545C84.1555 44.4514 84.0416 44.7167 84.0406 44.9935Z" fill="#2E353A"/>
<path opacity="0.4" d="M84.0406 44.9935V70.7658H50.7536C49.8914 70.7658 49.0645 71.0956 48.4548 71.6826C47.8452 72.2696 47.5027 73.0657 47.5027 73.8958V87.7892H82.2854C82.8018 87.7898 83.3133 87.6923 83.7905 87.5024C84.2678 87.3125 84.7015 87.0339 85.0668 86.6826C85.4322 86.3312 85.722 85.9139 85.9198 85.4546C86.1175 84.9953 86.2193 84.503 86.2193 84.0058V44.9935C86.2182 44.7139 86.102 44.446 85.8962 44.2487C85.6904 44.0513 85.4118 43.9405 85.1213 43.9405C84.8338 43.9448 84.5596 44.0576 84.3575 44.2545C84.1555 44.4514 84.0416 44.7167 84.0406 44.9935Z" fill="white"/>
<path d="M81.1787 80.0518H51.3891C50.442 80.0518 49.5338 80.414 48.8641 81.0587C48.1945 81.7035 47.8183 82.5779 47.8183 83.4897V110.365C47.8183 110.773 47.6498 111.165 47.3498 111.454C47.0498 111.743 46.643 111.905 46.2188 111.905H37.9532C37.7239 111.905 37.504 111.993 37.3419 112.149C37.1797 112.305 37.0886 112.517 37.0886 112.737C37.0886 112.958 37.1797 113.17 37.3419 113.326C37.504 113.482 37.7239 113.57 37.9532 113.57H46.2231C47.1056 113.569 47.9516 113.231 48.5756 112.63C49.1996 112.029 49.5506 111.215 49.5518 110.365V100.397H81.1787C81.408 100.397 81.628 100.309 81.7901 100.153C81.9522 99.9967 82.0433 99.7849 82.0433 99.5641V80.8842C82.0433 80.6634 81.9522 80.4517 81.7901 80.2956C81.628 80.1395 81.408 80.0518 81.1787 80.0518ZM80.3141 98.7317H49.5518V83.4897C49.5518 83.0195 49.7458 82.5685 50.0912 82.236C50.4365 81.9035 50.905 81.7166 51.3934 81.7166H80.3141V98.7317Z" fill="#2E353A"/>
<path opacity="0.6" d="M81.1787 80.0518H51.3891C50.442 80.0518 49.5338 80.414 48.8641 81.0587C48.1945 81.7035 47.8183 82.5779 47.8183 83.4897V110.365C47.8183 110.773 47.6498 111.165 47.3498 111.454C47.0498 111.743 46.643 111.905 46.2188 111.905H37.9532C37.7239 111.905 37.504 111.993 37.3419 112.149C37.1797 112.305 37.0886 112.517 37.0886 112.737C37.0886 112.958 37.1797 113.17 37.3419 113.326C37.504 113.482 37.7239 113.57 37.9532 113.57H46.2231C47.1056 113.569 47.9516 113.231 48.5756 112.63C49.1996 112.029 49.5506 111.215 49.5518 110.365V100.397H81.1787C81.408 100.397 81.628 100.309 81.7901 100.153C81.9522 99.9967 82.0433 99.7849 82.0433 99.5641V80.8842C82.0433 80.6634 81.9522 80.4517 81.7901 80.2956C81.628 80.1395 81.408 80.0518 81.1787 80.0518ZM80.3141 98.7317H49.5518V83.4897C49.5518 83.0195 49.7458 82.5685 50.0912 82.236C50.4365 81.9035 50.905 81.7166 51.3934 81.7166H80.3141V98.7317Z" fill="white"/>
<path d="M45.5272 110.502H31.8407C31.2485 110.502 30.7686 110.964 30.7686 111.535V112.117C30.7686 112.687 31.2485 113.149 31.8407 113.149H45.5272C46.1193 113.149 46.5993 112.687 46.5993 112.117V111.535C46.5993 110.964 46.1193 110.502 45.5272 110.502Z" fill="#2E353A"/>
<path opacity="0.4" d="M45.5272 110.502H31.8407C31.2485 110.502 30.7686 110.964 30.7686 111.535V112.117C30.7686 112.687 31.2485 113.149 31.8407 113.149H45.5272C46.1193 113.149 46.5993 112.687 46.5993 112.117V111.535C46.5993 110.964 46.1193 110.502 45.5272 110.502Z" fill="white"/>
<path d="M81.1529 119.335C71.9146 119.335 64.397 110.465 64.397 99.5643C64.397 88.6635 71.9146 79.7897 81.1529 79.7897C90.3911 79.7897 97.9131 88.6593 97.9131 99.5643C97.9131 110.469 90.3954 119.335 81.1529 119.335ZM81.1529 81.8749C73.1035 81.8749 66.5585 89.8123 66.5585 99.5684C66.5585 109.325 73.1035 117.258 81.1529 117.258C89.2023 117.258 95.7516 109.325 95.7516 99.5684C95.7516 89.8123 89.2023 81.8708 81.1529 81.8708V81.8749Z" fill="#2E353A"/>
<path d="M81.1528 117.462C72.9867 117.462 66.3423 109.433 66.3423 99.5641C66.3423 89.6955 72.9867 81.6666 81.1528 81.6666C89.319 81.6666 95.9677 89.6997 95.9677 99.5641C95.9677 109.428 89.3233 117.462 81.1528 117.462ZM81.1528 84.1639C74.4176 84.1639 68.9361 91.0732 68.9361 99.5641C68.9361 108.055 74.4176 114.964 81.1528 114.964C87.888 114.964 93.3739 108.055 93.3739 99.5641C93.3739 91.0732 87.8924 84.1598 81.1528 84.1598V84.1639Z" fill="#69A090"/>
<path d="M81.1529 104.463C83.3256 104.463 85.0868 102.27 85.0868 99.5642C85.0868 96.8586 83.3256 94.6653 81.1529 94.6653C78.9803 94.6653 77.219 96.8586 77.219 99.5642C77.219 102.27 78.9803 104.463 81.1529 104.463Z" fill="#69A090"/>
<path d="M81.5853 82.9111H80.7207V116.213H81.5853V82.9111Z" fill="#69A090"/>
<path d="M94.6751 99.148H67.6392V99.9804H94.6751V99.148Z" fill="#69A090"/>
<path d="M71.9341 87.5381L71.2529 88.0507L90.3694 111.6L91.0506 111.088L71.9341 87.5381Z" fill="#69A090"/>
<path d="M90.3729 87.5308L71.2522 111.077L71.9333 111.59L91.0541 88.0435L90.3729 87.5308Z" fill="#69A090"/>
<path d="M86.0108 84.1039L75.4915 114.782L76.3125 115.043L86.8318 84.3648L86.0108 84.1039Z" fill="#69A090"/>
<path d="M68.9106 92.7179L68.4993 93.4501L93.4008 106.419L93.8122 105.687L68.9106 92.7179Z" fill="#69A090"/>
<path d="M76.477 84.0177L75.6528 84.2693L85.8142 115.129L86.6383 114.878L76.477 84.0177Z" fill="#69A090"/>
<path d="M93.4751 92.939L68.4258 105.462L68.8242 106.201L93.8735 93.6778L93.4751 92.939Z" fill="#69A090"/>
</svg>
