<svg width="44" height="45" viewBox="0 0 44 45" fill="none" xmlns="http://www.w3.org/2000/svg">
<g clip-path="url(#clip0_227_2256)">
<path fill-rule="evenodd" clip-rule="evenodd" d="M16.5 1.8125H33V21.5C33.0001 21.7488 32.9356 21.9932 32.8131 22.2082C32.6906 22.4232 32.5146 22.6011 32.3029 22.7237C32.0913 22.8464 31.8516 22.9095 31.6083 22.9064C31.3651 22.9034 31.1269 22.8344 30.9183 22.7066L24.75 18.9209L18.5818 22.7094C18.3729 22.8374 18.1345 22.9064 17.891 22.9093C17.6475 22.9122 17.4076 22.8489 17.1959 22.7259C16.9841 22.6028 16.8081 22.4245 16.6859 22.2092C16.5636 21.9938 16.4995 21.749 16.5 21.5V1.8125Z" fill="#03425F"/>
<path d="M8.25 -1H35.75C37.2087 -1 38.6076 -0.407368 39.6391 0.647524C40.6705 1.70242 41.25 3.13316 41.25 4.625V38.375C41.25 39.8668 40.6705 41.2976 39.6391 42.3525C38.6076 43.4074 37.2087 44 35.75 44H8.25C6.79131 44 5.39236 43.4074 4.36091 42.3525C3.32946 41.2976 2.75 39.8668 2.75 38.375V35.5625H5.5V38.375C5.5 39.1209 5.78973 39.8363 6.30546 40.3637C6.82118 40.8912 7.52065 41.1875 8.25 41.1875H35.75C36.4793 41.1875 37.1788 40.8912 37.6945 40.3637C38.2103 39.8363 38.5 39.1209 38.5 38.375V4.625C38.5 3.87908 38.2103 3.16371 37.6945 2.63626C37.1788 2.10882 36.4793 1.8125 35.75 1.8125H8.25C7.52065 1.8125 6.82118 2.10882 6.30546 2.63626C5.78973 3.16371 5.5 3.87908 5.5 4.625V7.4375H2.75V4.625C2.75 3.13316 3.32946 1.70242 4.36091 0.647524C5.39236 -0.407368 6.79131 -1 8.25 -1Z" fill="#03425F"/>
<path d="M2.75 13.0625V11.6562C2.75 11.2833 2.89487 10.9256 3.15273 10.6619C3.41059 10.3982 3.76033 10.25 4.125 10.25C4.48967 10.25 4.83941 10.3982 5.09727 10.6619C5.35513 10.9256 5.5 11.2833 5.5 11.6562V13.0625H6.875C7.23967 13.0625 7.58941 13.2107 7.84727 13.4744C8.10513 13.7381 8.25 14.0958 8.25 14.4688C8.25 14.8417 8.10513 15.1994 7.84727 15.4631C7.58941 15.7268 7.23967 15.875 6.875 15.875H1.375C1.01033 15.875 0.660591 15.7268 0.402728 15.4631C0.144866 15.1994 0 14.8417 0 14.4688C0 14.0958 0.144866 13.7381 0.402728 13.4744C0.660591 13.2107 1.01033 13.0625 1.375 13.0625H2.75ZM2.75 21.5V20.0938C2.75 19.7208 2.89487 19.3631 3.15273 19.0994C3.41059 18.8357 3.76033 18.6875 4.125 18.6875C4.48967 18.6875 4.83941 18.8357 5.09727 19.0994C5.35513 19.3631 5.5 19.7208 5.5 20.0938V21.5H6.875C7.23967 21.5 7.58941 21.6482 7.84727 21.9119C8.10513 22.1756 8.25 22.5333 8.25 22.9062C8.25 23.2792 8.10513 23.6369 7.84727 23.9006C7.58941 24.1643 7.23967 24.3125 6.875 24.3125H1.375C1.01033 24.3125 0.660591 24.1643 0.402728 23.9006C0.144866 23.6369 0 23.2792 0 22.9062C0 22.5333 0.144866 22.1756 0.402728 21.9119C0.660591 21.6482 1.01033 21.5 1.375 21.5H2.75ZM2.75 29.9375V28.5312C2.75 28.1583 2.89487 27.8006 3.15273 27.5369C3.41059 27.2732 3.76033 27.125 4.125 27.125C4.48967 27.125 4.83941 27.2732 5.09727 27.5369C5.35513 27.8006 5.5 28.1583 5.5 28.5312V29.9375H6.875C7.23967 29.9375 7.58941 30.0857 7.84727 30.3494C8.10513 30.6131 8.25 30.9708 8.25 31.3438C8.25 31.7167 8.10513 32.0744 7.84727 32.3381C7.58941 32.6018 7.23967 32.75 6.875 32.75H1.375C1.01033 32.75 0.660591 32.6018 0.402728 32.3381C0.144866 32.0744 0 31.7167 0 31.3438C0 30.9708 0.144866 30.6131 0.402728 30.3494C0.660591 30.0857 1.01033 29.9375 1.375 29.9375H2.75Z" fill="#03425F"/>
</g>
<defs>
<clipPath id="clip0_227_2256">
<rect width="44" height="45" fill="white"/>
</clipPath>
</defs>
</svg>
