<svg width="56" height="53" viewBox="0 0 56 53" fill="none" xmlns="http://www.w3.org/2000/svg">
<g clip-path="url(#clip0_227_2263)">
<path d="M49 3.3125C49.9283 3.3125 50.8185 3.66149 51.4749 4.28271C52.1312 4.90392 52.5 5.74647 52.5 6.625V46.375C52.5 47.2535 52.1312 48.0961 51.4749 48.7173C50.8185 49.3385 49.9283 49.6875 49 49.6875H7C6.07174 49.6875 5.1815 49.3385 4.52513 48.7173C3.86875 48.0961 3.5 47.2535 3.5 46.375V6.625C3.5 5.74647 3.86875 4.90392 4.52513 4.28271C5.1815 3.66149 6.07174 3.3125 7 3.3125H49ZM7 0C5.14348 0 3.36301 0.697989 2.05025 1.94042C0.737498 3.18285 0 4.86794 0 6.625L0 46.375C0 48.1321 0.737498 49.8172 2.05025 51.0596C3.36301 52.302 5.14348 53 7 53H49C50.8565 53 52.637 52.302 53.9497 51.0596C55.2625 49.8172 56 48.1321 56 46.375V6.625C56 4.86794 55.2625 3.18285 53.9497 1.94042C52.637 0.697989 50.8565 0 49 0L7 0Z" fill="#03415F"/>
<path d="M23.989 15.3899C24.1519 15.5438 24.2812 15.7265 24.3694 15.9277C24.4577 16.129 24.5031 16.3447 24.5031 16.5625C24.5031 16.7804 24.4577 16.9961 24.3694 17.1973C24.2812 17.3985 24.1519 17.5813 23.989 17.7352L14.7245 26.5L23.989 35.2649C24.3176 35.5759 24.5022 35.9977 24.5022 36.4375C24.5022 36.8773 24.3176 37.2992 23.989 37.6102C23.6604 37.9212 23.2147 38.0959 22.75 38.0959C22.2852 38.0959 21.8396 37.9212 21.511 37.6102L11.011 27.6727C10.848 27.5188 10.7187 27.336 10.6305 27.1348C10.5422 26.9336 10.4968 26.7179 10.4968 26.5C10.4968 26.2822 10.5422 26.0665 10.6305 25.8652C10.7187 25.664 10.848 25.4813 11.011 25.3274L21.511 15.3899C21.6735 15.2357 21.8666 15.1133 22.0792 15.0298C22.2918 14.9463 22.5198 14.9033 22.75 14.9033C22.9801 14.9033 23.2081 14.9463 23.4207 15.0298C23.6333 15.1133 23.8264 15.2357 23.989 15.3899ZM32.011 15.3899C31.848 15.5438 31.7187 15.7265 31.6305 15.9277C31.5422 16.129 31.4968 16.3447 31.4968 16.5625C31.4968 16.7804 31.5422 16.9961 31.6305 17.1973C31.7187 17.3985 31.848 17.5813 32.011 17.7352L41.2755 26.5L32.011 35.2649C31.6824 35.5759 31.4977 35.9977 31.4977 36.4375C31.4977 36.8773 31.6824 37.2992 32.011 37.6102C32.3396 37.9212 32.7852 38.0959 33.25 38.0959C33.7147 38.0959 34.1604 37.9212 34.489 37.6102L44.989 27.6727C45.1519 27.5188 45.2812 27.336 45.3694 27.1348C45.4577 26.9336 45.5031 26.7179 45.5031 26.5C45.5031 26.2822 45.4577 26.0665 45.3694 25.8652C45.2812 25.664 45.1519 25.4813 44.989 25.3274L34.489 15.3899C34.3264 15.2357 34.1333 15.1133 33.9207 15.0298C33.7081 14.9463 33.4801 14.9033 33.25 14.9033C33.0198 14.9033 32.7918 14.9463 32.5792 15.0298C32.3666 15.1133 32.1735 15.2357 32.011 15.3899Z" fill="#03415F"/>
</g>
<defs>
<clipPath id="clip0_227_2263">
<rect width="56" height="53" fill="white"/>
</clipPath>
</defs>
</svg>
