<svg width="65" height="65" viewBox="0 0 65 65" fill="none" xmlns="http://www.w3.org/2000/svg">
<path d="M29.6643 43.0247L33.1865 39.3359L36.7073 43.0247V58.2293H29.6643V43.0247Z" fill="#546E7A"/>
<path d="M24.0189 39.3496L29.0361 38.4355L29.7172 43.4893L20.7797 55.7906L15.0828 51.6495L24.0189 39.3496Z" fill="#F50057"/>
<path d="M21.6152 33.0537L26.2099 35.2637L23.7913 39.7528L9.3302 44.4504L7.15405 37.7527L21.6152 33.0537Z" fill="#D500F9"/>
<path d="M23.3675 26.551L25.7861 31.0401L21.1914 33.2501L6.73022 28.5511L8.90637 21.8521L23.3675 26.551Z" fill="#29B6F6"/>
<path d="M28.6082 22.3193L27.9271 27.3731L22.9099 26.459L13.9724 14.1578L19.6707 10.0181L28.6082 22.3193Z" fill="#00E5FF"/>
<path d="M35.3355 21.9756L31.8133 25.6643L28.2925 21.9756V6.771H35.3355V21.9756Z" fill="#546E7A"/>
<path d="M40.9797 25.6519L35.9639 26.5659L35.2827 21.5122L44.2189 9.21094L49.9172 13.3506L40.9797 25.6519Z" fill="#F50057"/>
<path d="M43.3861 31.945L38.79 29.735L41.2086 25.2459L55.6697 20.5483L57.8459 27.246L43.3861 31.945Z" fill="#D500F9"/>
<path d="M41.6324 38.4487L39.2139 33.9596L43.8086 31.751L58.2697 36.4486L56.0936 43.1476L41.6324 38.4487Z" fill="#29B6F6"/>
<path d="M36.3918 42.6807L37.0743 37.627L42.0902 38.541L51.0277 50.8423L45.3293 54.982L36.3918 42.6807Z" fill="#00E5FF"/>
</svg>
