<svg width="65" height="65" viewBox="0 0 65 65" fill="none" xmlns="http://www.w3.org/2000/svg">
<path d="M37.9416 32.4513C37.9416 29.5376 35.5055 27.1753 32.5001 27.1753C29.4951 27.1753 27.0586 29.5376 27.0586 32.4513C27.0586 35.3653 29.4951 37.7274 32.5001 37.7274C35.5055 37.7274 37.9416 35.3653 37.9416 32.4513Z" fill="#57C4DC"/>
<path fill-rule="evenodd" clip-rule="evenodd" d="M50.1727 22.656C51.3218 18.1285 52.7662 9.73269 47.6742 6.88626C42.6061 4.05224 36.0108 9.48275 32.5282 12.7424C29.0558 9.51523 22.2753 4.10794 17.1877 6.96341C12.1215 9.80693 13.6838 18.0635 14.8584 22.6194C10.1325 23.9208 2.03125 26.7239 2.03125 32.451C2.03125 38.1619 10.1241 41.2116 14.822 42.5118C13.6431 47.0929 12.159 55.2315 17.2316 58.0688C22.3383 60.9237 29.0977 55.6451 32.6125 52.3498C36.1175 55.6286 42.6493 60.9418 47.7185 58.0966C52.8036 55.2425 51.4792 46.9592 50.3045 42.3769C54.8586 41.0739 62.9688 38.0906 62.9688 32.451C62.9688 26.779 54.824 23.9531 50.1727 22.656ZM49.5954 39.9486C48.8241 37.5814 47.7831 35.064 46.5097 32.4636C47.7252 29.9246 48.7258 27.4397 49.4756 25.0878C52.8854 26.0463 60.3657 28.237 60.3657 32.451C60.3657 36.7047 53.1875 38.9161 49.5954 39.9486ZM46.4141 55.9122C42.6319 58.0348 37.0136 52.9539 34.4252 50.5393C36.1424 48.7183 37.8584 46.6013 39.5332 44.2506C42.4793 43.9973 45.2623 43.5829 47.7864 43.0172C48.6131 46.2585 50.2129 53.78 46.4141 55.9122ZM18.5324 55.8819C14.7498 53.7672 16.4787 46.5047 17.346 43.1301C19.8419 43.6656 22.605 44.0507 25.558 44.2829C27.2437 46.5831 29.0095 48.6974 30.7889 50.5491C28.5905 52.611 22.3326 58.0064 18.5324 55.8819ZM4.63428 32.451C4.63428 28.1816 12.0698 26.0067 15.5574 25.0506C16.3201 27.4554 17.3204 29.9699 18.5275 32.5126C17.3047 35.0931 16.2902 37.6474 15.5205 40.0806C12.195 39.1576 4.63428 36.7232 4.63428 32.451ZM18.4919 9.14781C22.2899 7.01626 28.183 12.2075 30.7042 14.544C28.9339 16.3872 27.1844 18.4856 25.5131 20.7726C22.6472 21.0301 19.9037 21.4437 17.3816 21.9978C16.4354 18.3233 14.698 11.2771 18.4919 9.14781ZM41.3955 23.516C43.3398 23.7538 45.2026 24.0703 46.9517 24.4575C46.4267 26.0894 45.7722 27.7958 45.0013 29.5451C43.8839 27.4895 42.6845 25.4751 41.3955 23.516ZM32.529 16.3477C33.7297 17.6088 34.9322 19.0172 36.1152 20.5451C33.7157 20.435 31.3123 20.4346 28.9128 20.5435C30.0968 19.0297 31.3097 17.6235 32.529 16.3477ZM20.021 29.5433C19.2629 27.8001 18.6143 26.0861 18.0847 24.4309C19.8233 24.0537 21.6775 23.7453 23.6092 23.5113C22.3165 25.4662 21.1191 27.4798 20.021 29.5433ZM23.6647 41.5709C21.6692 41.355 19.7869 41.0623 18.0488 40.6955C18.5868 39.0112 19.2497 37.2602 20.024 35.4794C21.1372 37.5645 22.3529 39.5976 23.6647 41.5709ZM32.6012 48.7327C31.3674 47.4419 30.1366 46.0141 28.9347 44.4785C31.3479 44.5703 33.7657 44.5705 36.1786 44.4661C34.9919 46.0297 33.7937 47.4595 32.6012 48.7327ZM45.0261 35.3888C45.8406 37.1889 46.5272 38.9303 47.0726 40.5862C45.3056 40.9772 43.3981 41.2921 41.3881 41.5259C42.6867 39.5295 43.9053 37.4839 45.0261 35.3888ZM38.0805 41.8318C34.3893 42.0875 30.6751 42.0847 26.9827 41.8527C24.8846 38.8812 23.0169 35.7561 21.4047 32.5118C23.0092 29.2742 24.8633 26.1552 26.9514 23.1883C30.6465 22.9176 34.3643 22.9168 38.0593 23.19C40.1296 26.1566 41.9809 29.2675 43.6225 32.4758C42.0004 35.7118 40.1365 38.8371 38.0805 41.8318ZM46.374 9.07278C50.1731 11.1973 48.4821 18.7429 47.6521 22.024C45.124 21.4583 42.3786 21.0374 39.5044 20.7758C37.8298 18.4641 36.0949 16.3621 34.3533 14.5427C36.9068 12.1558 42.6118 6.96899 46.374 9.07278Z" fill="#57C4DC"/>
</svg>
