<svg width="120" height="177" viewBox="0 0 120 177" fill="none" xmlns="http://www.w3.org/2000/svg">
<path d="M88.7861 165.93C88.7861 165.93 88.8671 171.8 88.8233 171.884C88.7794 171.968 89.2346 172.702 89.2346 172.702L91.0119 173.034L92.6337 172.257C92.6337 172.257 92.4908 166.8 92.6606 165.94C92.8303 165.079 88.7861 165.93 88.7861 165.93Z" fill="#F9A58F"/>
<path d="M92.6351 172.257C92.6351 172.257 90.5868 173.004 88.8358 171.769C88.8358 171.769 82.0149 174.432 82.2232 176.457C82.2232 176.457 81.9327 177.06 84.888 176.93C87.8434 176.8 92.4362 176.663 92.5594 176.592C92.6825 176.521 93.2611 176.846 92.6351 172.257Z" fill="#060633"/>
<path d="M109.627 165.93C109.627 165.93 109.708 171.8 109.664 171.884C109.62 171.968 110.075 172.702 110.075 172.702L111.853 173.034L113.475 172.257C113.475 172.257 113.332 166.8 113.501 165.94C113.671 165.079 109.627 165.93 109.627 165.93Z" fill="#F9A58F"/>
<path d="M113.47 172.257C113.47 172.257 111.421 173.004 109.67 171.769C109.67 171.769 102.849 174.432 103.058 176.457C103.058 176.457 102.767 177.06 105.722 176.93C108.678 176.8 113.271 176.663 113.394 176.592C113.517 176.521 114.096 176.846 113.47 172.257Z" fill="#060633"/>
<path d="M111.36 103.19L113.756 171.293L109.144 171.116L98.4844 125.487L92.9165 171.769L88.0811 171.293L85.9727 106.216L92.0072 103.778L111.36 103.19Z" fill="#060633"/>
<path d="M72.6317 84.7516C72.6317 84.7516 72.786 81.9552 72.6266 80.9317C72.4671 79.9084 73.0423 78.7937 72.4749 78.6846C71.9076 78.5758 71.4421 80.5106 71.4421 80.5106C71.4421 80.5106 70.2435 78.8107 69.9513 78.2299C69.659 77.649 68.8834 76.7492 68.4587 76.9388C68.0343 77.1283 69.6247 79.8157 69.6247 79.8157C69.6247 79.8157 68.0723 77.69 67.6445 77.7778C67.2169 77.8656 68.811 80.8726 68.811 80.8726C68.811 80.8726 67.2612 78.5211 66.9853 78.4472C66.7092 78.3734 66.6076 78.7384 66.962 79.7096C67.3167 80.681 67.9192 81.5779 67.9192 81.5779C67.9192 81.5779 66.7114 80.0104 66.5035 79.875C66.2957 79.7398 65.9144 79.7113 66.5858 81.0922C67.257 82.4732 69.1762 85.2118 70.6684 86.1752L72.6317 84.7516Z" fill="#F9A58F"/>
<path d="M96.1256 62.0035C96.1256 62.0035 95.7567 61.1552 95.3237 61.4027C94.2191 62.033 95.0423 63.2202 95.6614 63.5571L96.1256 62.0035Z" fill="#E27560"/>
<path d="M96.3464 59.1411L96.3521 59.1432C96.3616 59.0624 96.3713 58.9815 96.3837 58.9003C96.9394 55.3099 100.293 52.915 103.751 53.7417C106.633 54.4305 108.642 57.2448 108.444 60.3179C108.37 61.4587 108.016 62.4947 107.465 63.3717C106.683 64.74 106.001 65.908 105.322 66.8604C104.2 68.4355 103.623 70.3607 103.638 72.3222L103.649 73.865C99.647 75.2902 98.2602 73.1069 98.2602 73.1069L98.6191 70.3388C98.6661 69.9774 98.4381 69.6423 98.0968 69.5611C98.0948 69.5607 98.0927 69.5601 98.0907 69.5596C93.5685 68.4818 96.0146 61.2857 96.3464 59.1411Z" fill="#F9A58F"/>
<path d="M102.015 63.4582C102.064 63.137 102.355 62.9186 102.663 62.9704C102.971 63.0221 103.181 63.3245 103.131 63.6456C103.082 63.9668 102.791 64.1852 102.483 64.1335C102.175 64.0816 101.965 63.7794 102.015 63.4582Z" fill="#060633"/>
<path d="M97.2134 61.5901C97.2631 61.269 97.5533 61.0506 97.8616 61.1023C98.1699 61.1542 98.3796 61.4564 98.3297 61.7776C98.2801 62.0988 97.9898 62.3172 97.6815 62.2655C97.3732 62.2137 97.1636 61.9113 97.2134 61.5901Z" fill="#060633"/>
<path d="M104.53 62.1788C104.586 62.192 104.647 62.1899 104.706 62.1694C104.88 62.1093 104.974 61.9138 104.916 61.7329C104.742 61.1877 104.051 60.2507 102.677 60.6067C102.5 60.6528 102.392 60.8402 102.436 61.0252C102.48 61.2102 102.66 61.3225 102.837 61.2767C103.965 60.9835 104.274 61.9112 104.287 61.9509C104.325 62.0701 104.42 62.1533 104.53 62.1788Z" fill="#060633"/>
<path d="M99.5422 60.1972C99.5994 60.2069 99.6598 60.2009 99.7177 60.1768C99.8875 60.1059 99.9702 59.9051 99.9022 59.7281C99.6971 59.1946 98.953 58.3021 97.6028 58.743C97.4283 58.8001 97.3312 58.9937 97.3858 59.1757C97.4407 59.3576 97.6265 59.4588 97.8011 59.4018C98.91 59.0393 99.272 59.9458 99.2868 59.9847C99.3317 60.1013 99.4309 60.1786 99.5422 60.1972Z" fill="#060633"/>
<path d="M108.848 61.4347L106.567 65.3884L105.511 64.9782L105.701 59.4157L108.848 61.4347Z" fill="#060633"/>
<path d="M98.8227 65.0827C99.3166 65.4458 99.84 65.2248 99.846 65.222C99.8961 65.2002 99.9194 65.1405 99.8986 65.0883C99.8779 65.0363 99.82 65.0115 99.7702 65.0331C99.7458 65.0435 99.1639 65.2828 98.7096 64.689C98.6353 64.5922 98.6006 64.5178 98.6063 64.4681C98.6142 64.3983 98.7076 64.322 98.8371 64.2166C99.1351 63.9742 99.634 63.5682 99.9336 62.5123C99.9489 62.4577 99.919 62.4008 99.8672 62.3847C99.8152 62.3688 99.7603 62.3997 99.745 62.4541C99.4631 63.4471 99.0136 63.8131 98.7162 64.0552C98.5554 64.186 98.4284 64.2893 98.4107 64.4443C98.3983 64.5546 98.4429 64.6695 98.5557 64.8167C98.6414 64.9286 98.7315 65.0156 98.8227 65.0827Z" fill="#E27560"/>
<path d="M97.6835 56.877C97.6835 56.877 96.7243 57.3631 95.9258 61.1195C95.9258 61.1195 96.2868 56.8434 96.8101 56.4536C97.3334 56.0638 97.6835 56.877 97.6835 56.877Z" fill="#060633"/>
<path d="M102.63 61.6246C101.819 61.6246 101.127 62.172 100.879 62.9315C100.859 62.9909 100.843 63.0526 100.829 63.1153V63.1164C100.797 63.2571 100.78 63.4021 100.78 63.5524C100.78 64.6148 101.61 65.4791 102.63 65.4791C103.353 65.4791 103.981 65.0442 104.284 64.4125C104.303 64.3757 104.319 64.3378 104.335 64.2988C104.427 64.0695 104.479 63.8175 104.479 63.5524C104.479 62.4901 103.65 61.6246 102.63 61.6246ZM102.63 65.3623C101.671 65.3623 100.892 64.5509 100.892 63.5524C100.892 62.5539 101.671 61.7415 102.63 61.7415C103.588 61.7415 104.368 62.5539 104.368 63.5524C104.368 64.5509 103.588 65.3623 102.63 65.3623Z" fill="#060633"/>
<path d="M97.7764 59.7566C96.7639 59.7566 95.9382 60.608 95.9268 61.6584C95.9258 61.6671 95.9258 61.6746 95.9258 61.6833C95.9258 61.9083 95.9631 62.1247 96.0317 62.3259C96.2861 63.0734 96.9716 63.61 97.7764 63.61C98.5147 63.61 99.1524 63.1578 99.4473 62.5044C99.4691 62.459 99.4878 62.4125 99.5054 62.3659V62.3649C99.5823 62.1528 99.6249 61.9235 99.6249 61.6833C99.6249 60.621 98.7961 59.7566 97.7764 59.7566ZM97.7764 63.4943C96.9653 63.4943 96.282 62.9122 96.0909 62.1279C96.0681 62.0349 96.0524 61.9386 96.0452 61.8412C96.04 61.7893 96.0379 61.7363 96.0379 61.6833C96.0379 60.6859 96.8178 59.8734 97.7764 59.8734C98.7338 59.8734 99.5137 60.6859 99.5137 61.6833C99.5137 62.6818 98.7338 63.4943 97.7764 63.4943Z" fill="#060633"/>
<path d="M100.836 63.1305C100.747 62.8367 100.59 62.6315 100.371 62.5208C99.9515 62.3094 99.4332 62.5101 99.4283 62.5119L99.3882 62.403C99.4114 62.394 99.9563 62.1831 100.419 62.4156C100.668 62.5405 100.844 62.7693 100.943 63.0955L100.836 63.1305Z" fill="#060633"/>
<path d="M105.893 64.512L104.243 64.4097L104.25 64.2932L105.9 64.3953L105.893 64.512Z" fill="#060633"/>
<path d="M105.365 64.8149C105.494 64.6291 105.686 64.5033 105.901 64.4525C106.342 64.3481 107.101 64.2809 107.522 64.8882C108.14 65.7794 106.344 67.5648 105.035 66.3077C105.035 66.3077 104.684 65.8015 105.365 64.8149Z" fill="#F9A58F"/>
<path d="M104.027 73.129L97.9874 72.6945L94.9474 83.0728L93.606 103.305C93.606 103.305 98.9649 106.502 106.508 103.368L105.949 79.539L104.027 73.129Z" fill="#15157A"/>
<path d="M104.027 73.1294C104.027 73.1294 112.874 77.8029 114.493 80.5145C115.989 83.0188 115.907 80.7336 119.783 94.4653C120.29 96.2614 119.889 98.1691 118.779 99.5677C118.325 100.14 117.706 100.546 117.022 100.757L112.208 102.243L113.76 142.323H103.215L104.027 73.1294Z" fill="#6C7AFF"/>
<path d="M97.9824 72.6945C97.9824 72.6945 88.6029 76.0566 86.6411 78.5108C84.6791 80.9647 83.8198 141.535 83.8198 141.535H92.6617L97.9824 72.6945Z" fill="#6C7AFF"/>
<path d="M101.988 74.1723L100.801 75.9793L101.248 102.774L97.4541 108.268L95.3105 102.203L99.532 75.7258L98.8823 73.7867L101.018 73.1294L101.988 74.1723Z" fill="#2F3DBC"/>
<path d="M104.022 73.1303L103.638 72.0633L100.73 72.8934L98.4544 71.5995L97.9824 72.6958L98.3545 74.669L100.594 73.3726L102.581 75.1082L104.022 73.1303Z" fill="#0E0E7A"/>
<path d="M107.294 53.7076C107.133 53.5101 106.823 53.3384 106.663 53.5369C106.599 53.6168 106.591 53.7296 106.591 53.8339C106.592 54.1373 106.641 54.4402 106.736 54.7271C105.8 53.4106 104.128 52.9025 102.558 52.814C100.988 52.7256 99.4057 52.9705 97.8441 52.7776C97.2249 52.7012 96.4834 52.6017 96.0836 53.1002C95.8046 53.448 95.8274 53.9876 96.0584 54.3715C96.2894 54.7554 96.6887 55.0004 97.103 55.1388C96.789 54.9735 96.3768 55.0402 96.1261 55.2973C95.8751 55.5543 95.804 55.9823 95.9576 56.3122C96.1921 56.8167 96.8012 56.9681 97.3332 57.0522C99.027 57.3202 100.735 57.4936 102.446 57.5717C102.184 57.7626 101.922 57.9537 101.659 58.1447C101.57 58.2098 101.477 58.2795 101.429 58.3817C101.364 58.5226 101.402 58.6934 101.474 58.8303C101.661 59.1844 102.052 59.3781 102.436 59.4318C102.821 59.4856 103.21 59.4225 103.597 59.385C104.161 59.3301 104.729 59.3301 105.293 59.3846C105.41 59.396 105.53 59.4108 105.632 59.4703C105.771 59.5503 105.856 59.6991 105.949 59.8327C106.5 60.6291 107.432 61.0182 108.313 61.3677C108.586 61.4764 108.952 61.5598 109.125 61.3132C109.192 61.2177 109.208 61.0946 109.219 60.977C109.357 59.5695 109.122 58.124 108.546 56.8428C108.693 57.1715 109.104 57.2795 109.316 56.9243C109.586 56.4721 109.046 56.0441 108.74 55.8285C108.46 55.6313 108.186 55.574 107.989 55.2635C107.68 54.7769 107.684 54.1863 107.294 53.7076Z" fill="#060633"/>
<path d="M100.242 66.7271L97.104 65.6941C97.104 65.6941 97.1648 67.5496 98.3246 67.633C99.4843 67.7165 100.242 66.7271 100.242 66.7271Z" fill="white"/>
<path d="M107.468 75.0817L105.169 82.6366L106.907 83.5443L103.746 97.0317L104.026 73.1294L107.468 75.0817Z" fill="#5780E5"/>
<path d="M89.0056 76.7087C89.0056 76.7087 85.8733 78.2197 84.3433 81.9513C82.8132 85.6827 80.6242 91.5198 78.1622 92.2471C76.1997 92.8269 73.3826 84.0327 73.3826 84.0327L68.8071 85.3317C68.8071 85.3317 70.448 102.984 79.2434 102.045C84.8336 101.448 87.4873 88.942 87.4873 88.942L89.0056 76.7087Z" fill="#6C7AFF"/>
<path d="M94.3203 74.1354L95.6002 81.9477L93.7593 82.5979L96.0973 102.066L97.9869 72.6945L94.3203 74.1354Z" fill="#5780E5"/>
<path d="M98.5961 84.6121L85.2373 85.3607C85.1955 85.3631 85.1634 85.4002 85.1656 85.4437L86.161 104.716C86.1631 104.76 86.199 104.793 86.2406 104.791L99.5995 104.042C99.6412 104.04 99.6733 104.003 99.6709 103.959L98.6758 84.6865C98.6736 84.6431 98.6379 84.6098 98.5961 84.6121Z" fill="#FA7267"/>
<path d="M94.8544 83.8946L89.3901 84.2009L89.4526 85.411L94.9169 85.1048L94.8544 83.8946Z" fill="#0B0755"/>
<path d="M93.0266 83.9972C92.9999 83.4774 92.5735 83.0787 92.0745 83.1067C91.5755 83.1347 91.1927 83.5787 91.2196 84.0985C91.2465 84.6184 91.6727 85.0171 92.1718 84.9891C92.6707 84.9613 93.0535 84.517 93.0266 83.9972Z" fill="#0B0755"/>
<path d="M103.868 98.6918C103.868 98.6918 101.363 97.5485 100.37 97.3444C99.3776 97.1403 98.5609 96.1744 98.2604 96.6994C97.9598 97.2242 99.5655 98.3717 99.5655 98.3717C99.5655 98.3717 97.5855 98.9599 96.9504 99.0444C96.3156 99.1289 95.2176 99.5807 95.2406 100.069C95.2637 100.558 98.2862 99.9302 98.2862 99.9302C98.2862 99.9302 95.7912 100.719 95.7202 101.175C95.649 101.631 98.9653 101.113 98.9653 101.113C98.9653 101.113 96.2646 101.819 96.0992 102.067C95.9338 102.315 96.2319 102.545 97.2464 102.537C98.2608 102.529 99.2948 102.248 99.2948 102.248C99.2948 102.248 97.4326 102.892 97.2353 103.051C97.0379 103.209 96.8767 103.578 98.3782 103.4C99.8799 103.223 103.065 102.286 104.475 101.146L103.868 98.6918Z" fill="#F9A58F"/>
<path d="M99.2778 96.3811L99.3833 98.4248L97.5237 98.1566L97.3755 96.4622L97.951 95.6401L99.2778 96.3811Z" fill="#FA7267"/>
<path d="M104.897 103.339C104.845 103.339 104.8 103.302 104.788 103.249L103.643 98.1558C103.631 98.1028 103.655 98.0484 103.703 98.0244L112.025 93.7962L110.168 88.1031C110.148 88.0422 110.179 87.976 110.238 87.9552C110.297 87.935 110.36 87.9674 110.38 88.028L112.268 93.8183C112.287 93.8738 112.262 93.9347 112.211 93.9605L103.881 98.1931L104.983 103.093L112.191 102.128C112.25 102.119 112.308 102.165 112.316 102.229C112.324 102.293 112.281 102.351 112.22 102.359L104.911 103.338C104.906 103.339 104.902 103.339 104.897 103.339Z" fill="#17152B"/>
<path d="M11.709 88.5054C11.709 88.5054 6.15529 100.067 4.57112 113.918H1.40283C1.40283 113.918 2.82858 92.2693 8.84835 83.1934L11.709 88.5054Z" fill="#F9A58F"/>
<path d="M10.9857 64.1152C10.4218 65.5806 10.6124 67.2495 10.0818 68.7275C9.57132 70.1494 8.44097 71.2584 7.23186 72.1577C6.33569 72.8242 5.3353 73.452 4.83803 74.4548C3.742 76.665 5.61247 79.4632 4.65814 81.7388C4.22131 82.7804 3.2273 83.588 3.09139 84.71C2.9873 85.5697 3.4459 86.4323 4.12046 86.9711C4.79501 87.5099 5.65613 87.763 6.51137 87.8687C7.24009 87.9587 7.98077 87.9503 8.70727 87.8436C9.52002 87.7242 10.3102 87.4836 11.1176 87.3318C12.8008 87.0155 14.5562 87.0932 16.2053 87.5571C17.4666 87.9119 18.6941 88.4933 20.0038 88.5053C20.8588 88.5132 21.6976 88.2752 22.5011 87.9812C23.3781 87.6604 24.2453 87.2605 24.9377 86.6317C25.9326 85.7281 26.4829 84.4268 26.8067 83.119C27.1304 81.8111 27.257 80.4608 27.5686 79.15C27.9689 77.4658 28.6759 75.8557 29.6443 74.4234C30.0535 73.8181 30.5169 73.2285 30.7279 72.5281C30.8721 72.0494 30.8906 71.5401 30.8507 71.0415C30.6803 68.9081 29.3931 66.8967 27.5322 65.8559C27.0707 65.5977 26.5739 65.3935 26.163 65.0601C25.74 64.7169 25.4313 64.2557 25.1208 63.8073C24.5431 62.973 23.9374 62.1583 23.305 61.3652C22.9783 60.9555 22.6369 60.5447 22.1966 60.2623C21.6787 59.93 21.0601 59.7985 20.4518 59.7114C17.2506 59.2526 12.285 60.7393 10.9857 64.1152Z" fill="#0B0755"/>
<path d="M27.5409 160.755C27.5409 160.755 26.8893 167.221 28.2027 167.954C30.5815 169.282 34.9691 170.549 34.6017 171.69C34.2342 172.83 23.7178 172.875 23.4258 171.835C23.134 170.795 24.3124 167.612 23.0635 161.416L27.5409 160.755Z" fill="#F9A58F"/>
<path d="M23.5341 169.512C23.4221 170.67 23.3251 171.464 23.4291 171.834C23.721 172.874 34.2374 172.83 34.6049 171.689C34.8774 170.843 32.5551 169.89 30.3512 168.94C29.83 169.82 28.719 171.191 23.5341 169.512Z" fill="#0B0755"/>
<path d="M7.81495 160.57C7.81495 160.57 6.07729 166.83 7.24731 167.777C9.36636 169.493 13.4752 171.492 12.9199 172.553C12.3646 173.614 1.99417 171.859 1.88269 170.784C1.77127 169.709 3.47176 166.774 3.29086 160.455L7.81495 160.57Z" fill="#F9A58F"/>
<path d="M2.3789 168.513C2.0724 169.635 1.84227 170.4 1.88188 170.783C1.99336 171.858 12.3638 173.614 12.9191 172.553C13.3309 171.766 11.2041 170.429 9.19331 169.116C8.53076 169.893 7.20364 171.054 2.3789 168.513Z" fill="#0B0755"/>
<path d="M31.5663 86.6349C31.5663 86.6349 33.7755 89.6081 35.6164 89.6081C37.4574 89.6081 43.7167 81.7451 43.7167 81.7451L45.1895 84.1271C45.1895 84.1271 39.9427 95.6209 35.1562 95.7135C30.3697 95.8059 26.7798 90.4406 26.8718 90.1631C26.9639 89.8856 30.0015 86.6349 30.0015 86.6349H31.5663Z" fill="#F9A58F"/>
<path d="M26.319 103.438C26.319 103.438 29.1756 106.916 30.4643 110.986C31.753 115.056 28.3345 163.28 28.3345 163.28H22.627C22.627 163.28 19.5995 120.334 19.5995 119.953C19.5995 118.453 8.36084 163.28 8.36084 163.28H2.6626C2.6626 163.28 5.74623 110.792 12.903 103.438L19.5995 103.854L26.319 103.438Z" fill="#D64747"/>
<path d="M22.7508 79.7797C22.7508 79.7797 26.4598 79.7449 28.2601 80.9937C29.5479 81.8871 32.3907 86.9256 32.3907 86.9256L29.1269 89.7136C29.1269 89.7136 29.9054 92.7535 26.8661 94.2796L26.3155 101.634C26.3155 101.634 20.6086 104.964 12.8765 101.634C12.8765 101.634 11.713 88.7955 11.0497 90.5064C10.4289 92.1077 9.97161 93.4688 9.97161 93.4688L4.83154 90.1442C4.83154 90.1442 8.03038 82.6282 9.63685 81.335C12.3397 79.1593 17.7946 79.4587 17.7946 79.4587L22.7508 79.7797Z" fill="#EA5750"/>
<path d="M24.4722 68.5939C24.4722 68.5939 24.8625 67.8244 25.2681 68.0728C26.3022 68.706 25.3862 69.8091 24.7772 70.0939L24.4722 68.5939Z" fill="#D6705C"/>
<path d="M17.5063 60.5988C14.6199 61.1233 12.5474 63.7831 12.7261 66.7253C12.7849 67.6928 13.0721 68.5846 13.5271 69.3581C14.5584 71.2972 15.4062 72.8576 16.3643 73.9544C17.3356 75.0663 17.8838 76.4873 17.8424 77.9663L17.8006 79.4598C21.3703 80.7687 22.7569 79.7808 22.7569 79.7808L22.2687 75.5088C25.871 74.6516 24.6142 67.9341 24.3864 65.932L24.3809 65.9337C24.3752 65.8584 24.3695 65.7829 24.3609 65.7072C23.9798 62.3565 20.8624 59.9888 17.5063 60.5988Z" fill="#F9A58F"/>
<path d="M17.7162 66.5502C16.8336 67.8795 15.8835 69.1928 15.2791 70.6663C15.2121 70.8281 14.7453 72.0433 14.9328 72.1552C13.9094 71.5441 13.1844 70.5402 12.5542 69.5252C11.462 67.766 11.4647 65.5017 12.3458 63.6562C13.2169 61.8318 14.9029 60.7419 16.8509 60.3553C18.94 59.9407 21.1753 60.5366 22.8117 62.0082C25.2411 64.1931 24.2355 65.679 24.5981 67.6319C24.191 65.4396 21.3148 64.0739 19.4541 63.4969C19.5083 63.5137 18.3529 65.5579 18.2906 65.6587C18.1055 65.9579 17.9125 66.2545 17.7162 66.5502Z" fill="#0B0755"/>
<path d="M15.4792 70.7892C15.3639 70.6113 15.1841 70.4862 14.9805 70.4296C14.5613 70.3132 13.8345 70.2171 13.4041 70.7612C12.7727 71.5595 14.4227 73.2939 15.7329 72.1872C15.7329 72.1872 16.0916 71.7337 15.4792 70.7892Z" fill="#F9A58F"/>
<path d="M23.5151 68.7599C23.5103 68.477 23.2781 68.2516 22.9966 68.2565C22.7151 68.2614 22.4908 68.4947 22.4957 68.7776C22.5005 69.0605 22.7327 69.2859 23.0142 69.281C23.2957 69.2761 23.52 69.0428 23.5151 68.7599Z" fill="#060633"/>
<path d="M18.8008 69.8477C18.7959 69.5649 18.5638 69.3395 18.2823 69.3443C18.0008 69.3492 17.7765 69.5825 17.7813 69.8655C17.7862 70.1483 18.0184 70.3737 18.2998 70.3689C18.5814 70.364 18.8057 70.1307 18.8008 69.8477Z" fill="#060633"/>
<path d="M23.0094 72.3515C23.0094 72.3515 22.3384 71.8651 22.0807 71.9459C21.823 72.0267 21.6901 72.3477 21.6901 72.3477C21.6901 72.3477 21.5244 72.0374 21.2074 72.0432C20.8904 72.049 20.2344 72.9286 20.2344 72.9286C20.2344 72.9286 21.1809 74.3008 22.1345 74.0934C23.1056 73.8821 22.9997 72.423 22.9997 72.423L23.0094 72.3515Z" fill="#FA7267"/>
<path d="M17.2047 69.2607C17.1443 69.2684 17.0813 69.2501 17.0335 69.2053C16.9476 69.1252 16.9429 68.9905 17.0226 68.9043C17.0465 68.8785 17.6238 68.2722 18.5691 68.1934C18.6858 68.1836 18.7884 68.2706 18.7982 68.3878C18.8079 68.5051 18.7117 68.6107 18.6048 68.6179C17.8171 68.6843 17.3378 69.1893 17.333 69.1946C17.2977 69.2325 17.2521 69.2547 17.2047 69.2607Z" fill="#060633"/>
<path d="M22.0658 67.7529C22.0054 67.7461 21.9484 67.7133 21.9125 67.6585C21.8479 67.5602 21.8751 67.4281 21.9728 67.3634C22.002 67.344 22.6971 66.8907 23.6425 67.0401C23.7584 67.0583 23.8374 67.1672 23.8193 67.2835C23.8014 67.3998 23.6887 67.4796 23.5773 67.461C22.7952 67.3374 22.2121 67.7153 22.2061 67.7192C22.1629 67.7476 22.1133 67.7583 22.0658 67.7529Z" fill="#060633"/>
<path d="M21.2992 71.5245C21.8873 71.3644 22.0351 70.8892 22.0239 70.6266C22.0219 70.5807 22.0025 70.5373 21.9697 70.5053C21.3574 69.9086 21.3032 68.9379 21.3028 68.9282C21.298 68.8294 21.2145 68.7531 21.116 68.7577C21.0189 68.762 20.9418 68.8461 20.9462 68.945C20.9484 68.9891 21.0025 70.0066 21.6633 70.7041C21.6443 70.8486 21.5362 71.1795 20.964 71.2166C20.8638 71.224 20.7909 71.3083 20.7973 71.4071C20.8037 71.5059 20.8886 71.5811 20.9868 71.5747C21.1027 71.5671 21.2065 71.5497 21.2992 71.5245Z" fill="#D6705C"/>
<path d="M23.0094 72.3512L20.2344 72.9283C20.2344 72.9283 21.2733 73.6133 22.0263 73.4997C22.7793 73.3862 23.0094 72.3512 23.0094 72.3512Z" fill="#FAFAFC"/>
<path d="M17.5251 93.2656C14.9362 93.2656 13.857 90.6647 13.8464 90.6385C13.8265 90.5892 13.8501 90.533 13.8992 90.5129C13.9478 90.4931 14.0041 90.5167 14.0241 90.5661C14.0342 90.591 15.067 93.0729 17.5251 93.0729C19.9924 93.0729 20.9425 91.2703 20.9518 91.252C20.9761 91.2048 21.0336 91.186 21.0809 91.2103C21.128 91.2347 21.1466 91.2928 21.1224 91.3401C21.1126 91.3594 20.1082 93.2656 17.5251 93.2656Z" fill="#060633"/>
<path d="M29.1255 89.8098C29.0777 89.8098 29.0363 89.7739 29.0304 89.7249C29.0283 89.7075 28.8059 87.9697 27.4681 86.7051C27.4296 86.6686 27.4278 86.6077 27.464 86.5689C27.5005 86.5301 27.5611 86.5283 27.5996 86.5648C28.9896 87.8788 29.212 89.6282 29.2208 89.702C29.2271 89.7549 29.1895 89.8028 29.137 89.8091C29.1332 89.8096 29.1292 89.8098 29.1255 89.8098Z" fill="#060633"/>
<path d="M12.5061 98.5561C12.6898 100.005 8.37207 111.611 8.37207 111.611L10.4419 112.486L12.7118 108.242V113.282C12.7118 113.282 19.1474 115.67 30.8687 112.167L27.4418 100.864L26.8687 94.2796L12.5061 98.5561Z" fill="#EA5750"/>
<path d="M17.7939 79.4584L21.8765 84.3596L22.7502 79.7794L20.7926 79.159H19.1411L17.7939 79.4584Z" fill="#F9A58F"/>
<path d="M4.38537 113.466C4.38537 113.466 5.14181 115.964 5.33901 116.877C5.5362 117.791 6.40243 118.529 5.94457 118.815C5.48671 119.102 4.44666 117.638 4.44666 117.638C4.44666 117.638 3.96175 119.477 3.89824 120.065C3.83472 120.652 3.45508 121.674 3.02351 121.661C2.59199 121.648 3.09367 118.846 3.09367 118.846C3.09367 118.846 2.44057 121.163 2.03969 121.237C1.63882 121.31 2.03869 118.238 2.03869 118.238C2.03869 118.238 1.46223 120.745 1.24639 120.901C1.03049 121.058 0.822142 120.787 0.811787 119.85C0.801487 118.912 1.03134 117.953 1.03134 117.953C1.03134 117.953 0.49504 119.683 0.358654 119.868C0.222213 120.053 -0.100171 120.208 0.0305919 118.819C0.161399 117.429 0.88401 114.537 1.86608 113.216L4.38537 113.466Z" fill="#F9A58F"/>
<path d="M14.5908 87.7289H18.7944V85.851H14.5908V87.7289Z" fill="white"/>
<path d="M49.1986 41.1521H36.2491L29.7744 53.2096V29.0947C29.7744 22.4352 34.8476 17.0372 41.105 17.0372H49.1986C55.4566 17.0372 60.5292 22.4358 60.5292 29.0947C60.5298 35.7541 55.4566 41.1521 49.1986 41.1521Z" fill="#F9A58F"/>
<path d="M39.2844 32.5218C40.1691 32.5218 40.8863 31.7586 40.8863 30.8172C40.8863 29.8758 40.1691 29.1126 39.2844 29.1126C38.3998 29.1126 37.6826 29.8758 37.6826 30.8172C37.6826 31.7586 38.3998 32.5218 39.2844 32.5218Z" fill="#FFF8ED"/>
<path d="M45.5432 32.5217C46.4279 32.5217 47.1451 31.7586 47.1451 30.8171C47.1451 29.8757 46.4279 29.1125 45.5432 29.1125C44.6586 29.1125 43.9414 29.8757 43.9414 30.8171C43.9414 31.7586 44.6586 32.5217 45.5432 32.5217Z" fill="#FFF8ED"/>
<path d="M51.8465 32.5217C52.7311 32.5217 53.4483 31.7586 53.4483 30.8171C53.4483 29.8757 52.7311 29.1125 51.8465 29.1125C50.9618 29.1125 50.2446 29.8757 50.2446 30.8171C50.2446 31.7586 50.9618 32.5217 51.8465 32.5217Z" fill="#FFF8ED"/>
<path d="M76.0267 21.5706H89.7031L96.5413 32.3559V10.7853C96.5413 4.82844 91.1833 0 84.5746 0H76.0267C69.4174 0 64.0601 4.82904 64.0601 10.7853C64.0601 16.7415 69.418 21.5706 76.0267 21.5706Z" fill="#93B2FF"/>
<path d="M74.9231 11.3626C74.9231 10.5208 74.1653 9.83789 73.2313 9.83789C72.2973 9.83789 71.5396 10.5208 71.5396 11.3626C71.5396 12.2044 72.2973 12.8874 73.2313 12.8874C74.1653 12.8874 74.9231 12.205 74.9231 11.3626Z" fill="#FFF8ED"/>
<path d="M81.5334 11.3626C81.5334 10.5208 80.7757 9.83789 79.8417 9.83789C78.9076 9.83789 78.1499 10.5208 78.1499 11.3626C78.1499 12.2044 78.9076 12.8874 79.8417 12.8874C80.7763 12.8874 81.5334 12.205 81.5334 11.3626Z" fill="#FFF8ED"/>
<path d="M88.1897 11.3626C88.1897 10.5208 87.4326 9.83789 86.4979 9.83789C85.5639 9.83789 84.8062 10.5208 84.8062 11.3626C84.8062 12.2044 85.5639 12.8874 86.4979 12.8874C87.4326 12.8874 88.1897 12.205 88.1897 11.3626Z" fill="#FFF8ED"/>
</svg>
