<svg width="183" height="158" viewBox="0 0 183 158" fill="none" xmlns="http://www.w3.org/2000/svg">
<path d="M11.0923 4.797C11.4508 4.21486 12.0099 3.75026 12.6875 3.47148C13.0753 3.3517 13.491 3.32139 13.8955 3.38338C14.3001 3.44537 14.6803 3.59763 15.0006 3.8259C15.3172 4.0576 15.5755 4.34578 15.7589 4.67179C15.9423 4.99779 16.0467 5.35438 16.0654 5.71849L15.2678 9.98922C15.2025 10.1427 15.0895 10.2765 14.9419 10.375C14.7944 10.4735 14.6183 10.5327 14.4343 10.5457C14.312 10.5561 14.1887 10.5384 14.0763 10.4943C13.9639 10.4503 13.866 10.3813 13.7922 10.294C13.7558 10.2476 13.7302 10.1951 13.7171 10.1397C13.704 10.0842 13.7035 10.0271 13.7158 9.97148C13.7281 9.91592 13.7528 9.86312 13.7886 9.81624C13.8243 9.76935 13.8703 9.72934 13.9238 9.6986C13.7285 9.84607 13.4936 9.94618 13.2419 9.98922C13.115 10.005 12.9861 9.9771 12.8815 9.91122C12.777 9.84534 12.7048 9.74646 12.6796 9.6348C12.6884 9.48685 12.7579 9.3469 12.875 9.2414C13.255 8.82534 13.7257 8.48178 14.2588 8.23131C13.4582 8.38973 12.6219 8.32284 11.866 8.03993C11.4907 7.89356 11.166 7.66121 10.9249 7.36665C10.6839 7.0721 10.5352 6.72591 10.4941 6.36353C10.5074 5.79909 10.7163 5.25203 11.0923 4.797Z" fill="#263238"/>
<path d="M17.8358 2.6563C18.8545 1.71862 20.0973 0.996406 21.4724 0.543057C22.8474 0.0897066 24.3195 -0.0831897 25.7799 0.0371508C27.4947 0.175374 28.1727 0.558144 29.3691 0.972813C30.5729 1.35272 31.587 2.09833 32.2324 3.07805C33.0338 4.23968 33.492 5.56242 33.5644 6.92348C33.5618 8.09437 33.4147 9.26147 33.1257 10.4039C32.8426 11.7755 31.7898 14.1252 30.8765 14.1252L27.3352 15.0822C25.1418 14.9404 22.9205 14.7951 20.8467 14.15C18.773 13.505 16.8189 12.2894 15.8777 10.5244C14.5736 8.07179 15.6584 4.56306 17.8358 2.6563Z" fill="#263238"/>
<path d="M21.3578 2.96472L26.8572 1.60376L28.2171 1.87666C31.3158 2.18146 33.0865 5.42084 32.8392 7.65721C32.564 10.1381 32.1174 13.1578 31.4554 14.9405C30.1234 18.5307 26.5581 18.4847 26.5581 18.4847L26.3348 20.9656L29.0466 22.3336L25.9799 31.1515H19.4196L15.4795 19.6223L18.1554 19.3742L18.4027 17.6979L19.8184 4.10595C19.867 3.77874 20.0523 3.47975 20.3375 3.26833C20.6227 3.05691 20.9869 2.94854 21.3578 2.96472Z" fill="#AE7461"/>
<path d="M25.3578 13.4944C25.3976 13.3636 25.4738 13.2438 25.5796 13.1461C25.6853 13.0485 25.8171 12.9761 25.9627 12.9358C26.1083 12.8955 26.263 12.8885 26.4124 12.9156C26.5618 12.9426 26.7012 13.0027 26.8174 13.0904C26.9775 13.2234 27.0933 13.3928 27.1524 13.5803C27.2115 13.7678 27.2115 13.9661 27.1524 14.1536C27.049 14.2584 26.9214 14.3421 26.7782 14.399C26.6351 14.4559 26.4798 14.4846 26.3229 14.4832C26.2738 14.4869 26.2245 14.4869 26.1754 14.4832C25.9287 14.4598 25.701 14.3548 25.5373 14.1891C25.448 14.094 25.3852 13.9816 25.354 13.8609C25.3228 13.7401 25.3241 13.6146 25.3578 13.4944Z" fill="#6F4439"/>
<path d="M31.0321 10.6343C31.0113 10.7583 30.9366 10.8702 30.824 10.9457C30.7114 11.0213 30.5699 11.0545 30.4299 11.0383C30.3614 11.033 30.2947 11.0156 30.2338 10.9871C30.1728 10.9587 30.1189 10.9197 30.0751 10.8726C30.0313 10.8254 29.9985 10.7709 29.9786 10.7124C29.9588 10.6538 29.9522 10.5923 29.9593 10.5315C29.982 10.4085 30.0574 10.2981 30.1696 10.2234C30.2819 10.1487 30.4224 10.1156 30.5615 10.131C30.6299 10.1359 30.6965 10.1529 30.7574 10.1809C30.8183 10.209 30.8723 10.2476 30.9161 10.2945C30.96 10.3414 30.9928 10.3956 31.0127 10.454C31.0327 10.5123 31.0392 10.5736 31.0321 10.6343Z" fill="#263238"/>
<path d="M31.7457 8.80909C31.6699 8.86226 31.315 8.53619 30.7407 8.45468C30.1664 8.37316 29.7038 8.56809 29.652 8.4972C29.6002 8.42632 29.7158 8.36253 29.9192 8.27038C30.1954 8.15603 30.5041 8.11895 30.8045 8.16405C31.1063 8.20299 31.386 8.32726 31.6021 8.51847C31.7417 8.66732 31.7816 8.78428 31.7457 8.80909Z" fill="#263238"/>
<path d="M27.5625 12.4701C27.8802 12.4334 28.2019 12.4334 28.5196 12.4701C28.6672 12.4701 28.8107 12.4701 28.8546 12.3851C28.8915 12.2534 28.8818 12.1147 28.8267 11.9881L28.5754 10.9249C28.2325 9.42924 28.0092 8.21004 28.0769 8.19941C28.1447 8.18878 28.4757 9.38671 28.8227 10.8823C28.9025 11.2368 28.9782 11.5912 29.054 11.9456C29.1168 12.1159 29.1098 12.3005 29.0341 12.4666C29.0044 12.509 28.9642 12.5449 28.9165 12.5713C28.8687 12.5977 28.8148 12.614 28.7589 12.619C28.6756 12.6299 28.591 12.6299 28.5077 12.619C28.187 12.6037 27.8696 12.5537 27.5625 12.4701Z" fill="#263238"/>
<path d="M26.562 18.5024C24.6043 18.2433 22.7656 17.5072 21.25 16.3759C21.25 16.3759 22.2629 19.1439 26.4783 19.399L26.562 18.5024Z" fill="#6F4439"/>
<path d="M25.8161 12.5765C25.9079 12.5765 25.8161 13.1364 26.2708 13.6078C26.7254 14.0792 27.4034 14.1111 27.3914 14.1891C27.3794 14.267 27.2239 14.2741 26.9447 14.2422C26.5803 14.1929 26.247 14.0311 26.0036 13.785C25.7675 13.55 25.6444 13.2421 25.6606 12.9273C25.6805 12.6934 25.7723 12.5694 25.8161 12.5765Z" fill="#263238"/>
<path d="M31.7661 6.99802C31.6464 7.10789 31.2237 6.96258 30.7053 6.92713C30.1868 6.89169 29.7402 6.9484 29.6485 6.82081C29.6086 6.75702 29.6844 6.64715 29.8837 6.54791C30.1542 6.42516 30.4593 6.37586 30.7611 6.40615C31.0633 6.42486 31.3522 6.52361 31.5906 6.68968C31.7661 6.82081 31.8299 6.94486 31.7661 6.99802Z" fill="#263238"/>
<path d="M24.7952 9.78723C24.7768 9.91053 24.8131 10.0354 24.8965 10.1353C24.9799 10.2352 25.1038 10.3023 25.2419 10.3224C25.3084 10.3354 25.3772 10.3365 25.4442 10.3256C25.5112 10.3148 25.5752 10.2922 25.6323 10.2593C25.6894 10.2263 25.7386 10.1836 25.777 10.1336C25.8154 10.0836 25.8423 10.0273 25.856 9.96798C25.8744 9.84374 25.8377 9.71802 25.7536 9.61745C25.6694 9.51689 25.5446 9.44939 25.4054 9.42927C25.2711 9.40519 25.1315 9.42932 25.0172 9.49639C24.9029 9.56346 24.8231 9.66803 24.7952 9.78723Z" fill="#263238"/>
<path d="M23.9816 7.86976C24.0374 7.94065 24.4801 7.71737 25.0544 7.78471C25.6286 7.85205 26.0155 8.13912 26.0873 8.09659C26.159 8.05406 26.0873 7.95128 25.9038 7.81305C25.6804 7.63626 25.4027 7.52274 25.1062 7.48699C24.8077 7.45293 24.5048 7.5038 24.2408 7.6323C24.0255 7.73508 23.9497 7.83786 23.9816 7.86976Z" fill="#263238"/>
<path d="M24.5239 6.26431C24.6196 6.3919 25.0822 6.32101 25.6166 6.37418C26.151 6.42734 26.5897 6.56202 26.7093 6.45215C26.7651 6.39899 26.7093 6.27494 26.5298 6.14381C26.2791 5.97693 25.9806 5.87621 25.6684 5.85318C25.358 5.82164 25.0439 5.86959 24.7632 5.99141C24.5598 6.09064 24.48 6.20406 24.5239 6.26431Z" fill="#263238"/>
<path d="M19.7785 10.4074C19.8304 10.131 19.5911 9.43277 19.292 9.34416C18.4944 9.11379 17.0228 8.95785 16.6719 10.7937C16.1933 13.303 19.1285 13.2144 19.1444 13.1435C19.1604 13.0726 19.607 11.3395 19.7785 10.4074Z" fill="#AE7461"/>
<path d="M18.5419 12.098C18.5419 12.098 18.486 12.1193 18.3943 12.1405C18.2699 12.1688 18.1381 12.1522 18.0274 12.0945C17.8604 11.9649 17.7353 11.798 17.6652 11.6111C17.5951 11.4241 17.5825 11.2239 17.6286 11.0312C17.6612 10.8141 17.7499 10.6067 17.8878 10.4252C17.9288 10.351 17.9893 10.2868 18.0644 10.238C18.1394 10.1892 18.2266 10.1574 18.3185 10.1452C18.3774 10.1406 18.4362 10.1544 18.485 10.1842C18.5337 10.2139 18.5693 10.2577 18.5857 10.3082C18.6136 10.3862 18.5857 10.4322 18.5857 10.4393C18.5857 10.4464 18.6535 10.4074 18.6535 10.2976C18.6481 10.233 18.6187 10.1719 18.5698 10.1239C18.5364 10.0923 18.4963 10.067 18.4518 10.0493C18.4073 10.0317 18.3593 10.0221 18.3105 10.0211C18.1908 10.0234 18.0737 10.0534 17.9709 10.108C17.8681 10.1627 17.7832 10.2403 17.7243 10.333C17.5619 10.532 17.4565 10.7631 17.4172 11.0064C17.3415 11.5132 17.5409 12.0307 17.9317 12.1972C18.004 12.2276 18.083 12.2433 18.163 12.2433C18.243 12.2433 18.322 12.2276 18.3943 12.1972C18.5259 12.1583 18.5498 12.1015 18.5419 12.098Z" fill="#6F4439"/>
<path d="M19.1762 9.34418L19.8183 10.053C23.2559 7.69614 30.1512 1.63206 29.7643 1.99356C28.4039 1.39143 26.8965 1.09914 25.3775 1.14296C23.0167 1.2741 18.4943 1.88724 18.271 4.33272C18.0476 6.7782 19.1762 9.34418 19.1762 9.34418Z" fill="#263238"/>
<path d="M16.2011 4.67651C15.9012 5.57176 15.689 6.4884 15.567 7.41616C15.5147 8.3495 15.5534 9.2851 15.6826 10.2125C15.5587 9.95652 15.4793 9.68522 15.4474 9.40798C15.207 8.08002 15.3343 6.72001 15.8182 5.4456C15.8979 5.17242 16.0272 4.91263 16.2011 4.67651Z" fill="#455A64"/>
<path d="M15.6587 7.38789C16.402 7.37962 17.1429 7.31081 17.872 7.18233C18.6456 7.02254 19.4002 6.79704 20.1252 6.50894C21.023 6.15478 21.8989 5.75845 22.7493 5.32164C24.5718 4.4037 26.183 3.51057 27.3355 2.84072L28.6954 2.05037C28.8567 1.94689 29.0275 1.8556 29.2059 1.77747C29.0633 1.9007 28.9085 2.01221 28.7433 2.11062C28.4362 2.31618 27.9816 2.60326 27.4153 2.95059C26.2827 3.64171 24.6795 4.5561 22.853 5.47404C21.9962 5.91498 21.1106 6.31026 20.201 6.6578C19.4559 6.94182 18.6793 7.15564 17.884 7.29575C17.3472 7.39104 16.8002 7.43383 16.2529 7.42334C16.1049 7.42299 15.9571 7.4147 15.8102 7.39853C15.7105 7.40207 15.6587 7.39498 15.6587 7.38789Z" fill="#455A64"/>
<path d="M16.2769 5.79995C16.445 5.74457 16.6186 5.70304 16.7953 5.6759C17.1303 5.6121 17.5929 5.50932 18.2031 5.3711C21.291 4.65657 24.2396 3.53096 26.9487 2.03249C27.4711 1.74541 27.8859 1.50441 28.169 1.32365C28.3137 1.22949 28.4671 1.1465 28.6276 1.07556C28.5065 1.18975 28.3729 1.29303 28.2289 1.3839C27.9577 1.57174 27.5549 1.82692 27.0325 2.13172C25.6928 2.91512 24.2783 3.5923 22.8052 4.15545C21.3305 4.71562 19.804 5.16148 18.2429 5.48806C17.6407 5.60856 17.1542 5.69362 16.8112 5.73615C16.6363 5.77472 16.4571 5.79611 16.2769 5.79995Z" fill="#455A64"/>
<path d="M6.76905 101.592L6.30644 108.351L7.65039 113.795C7.67118 113.887 7.67111 113.982 7.65019 114.074C7.62926 114.166 7.5879 114.254 7.52851 114.332C7.46913 114.409 7.3929 114.476 7.30428 114.527C7.21565 114.579 7.11641 114.614 7.01232 114.631C6.89117 114.649 6.767 114.639 6.65082 114.604C6.53464 114.569 6.43005 114.509 6.34632 114.429C5.24564 113.398 1.21378 109.584 1.27759 109.091C1.35336 108.521 1.2417 101.929 1.2417 101.929L6.76905 101.592Z" fill="#263238"/>
<path d="M7.00862 114.631L1.29383 108.634V108.921C1.28331 109.168 1.36929 109.409 1.5371 109.605C1.99173 110.13 3.27985 111.548 6.32268 114.429C6.40966 114.511 6.51832 114.573 6.6388 114.608C6.75928 114.643 6.88777 114.651 7.0126 114.631H7.00862Z" fill="#455A64"/>
<g opacity="0.6">
<path d="M2.9292 106.504C3.01825 106.57 3.07772 106.662 3.09675 106.763C3.11579 106.865 3.09312 106.969 3.03289 107.057C2.96618 107.14 2.86559 107.197 2.75243 107.216C2.63928 107.234 2.52246 107.213 2.42672 107.156C2.33039 107.087 2.26613 106.989 2.24627 106.88C2.2264 106.772 2.25231 106.661 2.31904 106.568C2.39943 106.488 2.5118 106.44 2.63191 106.433C2.75202 106.427 2.87026 106.462 2.96111 106.533" fill="white"/>
</g>
<path d="M5.42149 111.611C5.46535 111.633 5.6488 111.285 6.10343 111.112C6.3821 111.023 6.67707 110.982 6.97281 110.991C6.97281 110.991 6.88907 110.92 6.7136 110.892C6.48352 110.858 6.24734 110.887 6.03564 110.973C5.82009 111.057 5.63699 111.195 5.50922 111.37C5.42149 111.509 5.40553 111.608 5.42149 111.611Z" fill="white"/>
<path d="M5.90806 112.54C6.12593 112.437 6.35105 112.347 6.58203 112.271C6.82632 112.238 7.07276 112.219 7.31981 112.214C7.20569 112.141 7.07274 112.095 6.9333 112.08C6.79386 112.065 6.65246 112.082 6.52221 112.129C6.10746 112.228 5.88015 112.519 5.90806 112.54Z" fill="white"/>
<path d="M4.48047 110.417C4.80845 110.233 5.15252 110.073 5.50937 109.938C5.8776 109.847 6.25378 109.783 6.63398 109.747C6.24144 109.633 5.81538 109.652 5.43759 109.8C5.04497 109.896 4.70483 110.115 4.48047 110.417Z" fill="white"/>
<path d="M4.42871 108.351C4.44865 108.39 4.87138 108.248 5.40976 108.251C5.94813 108.255 6.37086 108.386 6.3908 108.344C6.10555 108.164 5.75842 108.079 5.40976 108.103C5.06006 108.08 4.71261 108.168 4.42871 108.351Z" fill="white"/>
<path d="M4.51227 106.362C4.84287 106.278 5.18518 106.235 5.5292 106.235C5.87001 106.28 6.20176 106.368 6.51424 106.497C6.51424 106.497 6.44644 106.394 6.27895 106.299C6.05569 106.176 5.80253 106.103 5.54085 106.086C5.27917 106.069 5.01665 106.108 4.77548 106.199C4.59203 106.27 4.5003 106.348 4.51227 106.362Z" fill="white"/>
<path d="M5.52908 105.855C5.52908 105.855 5.56099 105.767 5.55301 105.6C5.53676 105.366 5.47045 105.136 5.3576 104.923C5.28953 104.762 5.16336 104.625 4.99868 104.533C4.9419 104.507 4.87718 104.498 4.81402 104.507C4.75086 104.516 4.69258 104.543 4.64774 104.583C4.56206 104.665 4.51495 104.773 4.51613 104.884C4.52165 105.11 4.61536 105.328 4.78123 105.499C4.9471 105.67 5.17481 105.785 5.4254 105.824C5.67637 105.859 5.93358 105.826 6.16244 105.727C6.3913 105.629 6.58083 105.471 6.70554 105.274C6.73705 105.225 6.75653 105.171 6.76272 105.115C6.76891 105.058 6.76165 105.002 6.74143 104.948C6.71484 104.896 6.67039 104.853 6.61449 104.825C6.55859 104.797 6.49412 104.786 6.43037 104.792C6.24426 104.821 6.07055 104.895 5.92788 105.005C5.71688 105.144 5.53584 105.316 5.39349 105.512C5.33419 105.58 5.29082 105.659 5.26588 105.742C5.47185 105.494 5.71775 105.274 5.99568 105.09C6.12538 105.001 6.27709 104.94 6.43835 104.913C6.47337 104.909 6.50879 104.915 6.53959 104.931C6.57038 104.946 6.59496 104.969 6.60983 104.998C6.62878 105.072 6.61447 105.149 6.56995 105.214C6.45642 105.377 6.2921 105.508 6.09681 105.591C5.90151 105.673 5.68357 105.703 5.46927 105.678C5.25456 105.648 5.05819 105.552 4.91301 105.409C4.76782 105.265 4.68263 105.081 4.67167 104.888C4.66806 104.811 4.69644 104.735 4.75143 104.675C4.77638 104.653 4.80878 104.638 4.84391 104.633C4.87905 104.628 4.9151 104.633 4.94684 104.647C5.08519 104.724 5.19375 104.836 5.2579 104.969C5.40529 105.249 5.49705 105.548 5.52908 105.855Z" fill="white"/>
<path d="M6.00369 50.4567C6.00369 50.4567 1.64881 58.0554 1.84821 64.6334C2.04761 71.2113 3.36763 77.9914 3.08449 81.617C2.88907 84.0767 0.576042 90.0805 0.177244 95.5811C-0.221555 101.082 0.177244 107.716 0.177244 107.716H6.80926C6.80926 107.716 8.22899 98.9197 9.56496 93.8444C10.6497 89.7226 10.7614 88.3226 12.0335 84.984C13.3057 81.6454 15.4951 71.0164 16.3445 66.9087C17.194 62.801 17.9956 57.1835 17.9956 57.1835L18.9527 51.5341L6.00369 50.4567Z" fill="#263238"/>
<path d="M18.8454 68.0499C18.7217 68.539 19.9939 84.7394 20.7755 88.1382C21.5572 91.5371 22.4026 106.568 22.4026 106.568L29.4175 106.231C29.4175 106.231 30.259 95.8468 30.4823 92.4302C30.7056 89.0136 29.9798 85.1682 29.8921 81.9962C29.8043 78.8241 30.6139 72.5935 31.3517 66.5223C32.0895 60.4511 32.7754 52.1082 30.1992 52.0231C29.5292 52.0018 18.953 51.5765 18.953 51.5765L17.2222 62.1524L15.4795 65.5618L18.8454 68.0499Z" fill="#263238"/>
<path d="M2.49469 32.9023C2.49469 32.9023 1.82471 35.4116 1.35014 37.6657C0.799796 40.2707 1.67316 43.7369 4.29726 43.8716C6.92136 44.0062 8.28525 40.4656 8.28525 40.4656L9.31016 34.3413L5.4458 33.5509L2.49469 32.9023Z" fill="#AE7461"/>
<path d="M32.3086 42.4255C32.0932 42.4468 32.839 48.8051 32.839 48.8051L32.3524 54.2525L36.5358 55.4787C37.3334 53.3396 37.846 51.1247 38.0632 48.8795C38.2053 46.4081 38.136 43.9307 37.8559 41.4686L32.3086 42.4255Z" fill="#AE7461"/>
<path d="M7.80606 40.8626C7.788 40.8085 7.77992 40.7523 7.78213 40.696C7.78213 40.5684 7.76219 40.4124 7.75022 40.2246C7.75022 39.7816 7.70636 39.1933 7.67445 38.4773L7.57874 35.8901C7.57874 35.401 7.53886 34.8906 7.51493 34.3625V34.1676C7.51502 34.1762 7.51764 34.1847 7.52254 34.1922C7.52743 34.1996 7.53443 34.2058 7.54285 34.2101H7.48702L7.37934 34.1818L6.93668 34.0755L6.0314 33.8522L4.31258 33.4092L4.42424 33.3666C3.53815 34.705 2.79321 36.1133 2.19895 37.5736C1.97961 38.1194 1.84003 38.5695 1.74432 38.8814C1.71094 39.0447 1.6602 39.205 1.59277 39.3598C1.60619 39.1939 1.63419 39.0292 1.67652 38.8672C1.78099 38.4166 1.91414 37.9717 2.07532 37.5346C2.63218 36.0533 3.36196 34.6278 4.25276 33.2816L4.28865 33.2213L4.36442 33.239L6.11116 33.6679L7.01643 33.8912L7.45511 34.001L7.56678 34.0294H7.62261C7.62261 34.0294 7.62261 34.0294 7.68243 34.0613C7.70079 34.0819 7.71312 34.1063 7.71832 34.1322C7.71832 34.2031 7.71832 34.2668 7.71832 34.3342C7.73826 34.8658 7.75421 35.3762 7.77016 35.8653C7.77016 36.8328 7.80606 37.7118 7.82201 38.4561C7.83796 39.2003 7.82201 39.7603 7.82201 40.2033C7.82201 40.3912 7.82201 40.5578 7.82201 40.6783C7.82829 40.7401 7.8229 40.8023 7.80606 40.8626Z" fill="#6F4439"/>
<path d="M17.0739 19.2359C17.0739 19.2359 9.36912 20.1858 8.85865 21.1498C8.34819 22.1138 9.87559 41.3055 9.68417 42.0604C9.49274 42.8153 5.10995 49.5989 6.00326 50.4565C6.89657 51.3142 30.1984 52.0266 30.1984 52.0266C30.1984 52.0266 31.0478 39.9764 31.0398 39.7035C31.0319 39.4306 32.1405 32.9058 32.1405 32.9058L33.3369 23.9922L27.4427 21.3022L26.4417 19.5868C26.4417 19.5868 22.5893 23.8398 22.8007 23.6839L18.37 17.9139L17.0739 19.2359Z" fill="#455A64"/>
<path d="M9.38171 20.7777C8.12952 21.253 7.07161 22.0583 6.35084 23.085C5.4336 24.4424 1.69287 32.7358 1.69287 32.7358C1.69287 32.7358 10.4904 34.7311 10.1394 34.4334C9.78848 34.1357 9.38171 20.7777 9.38171 20.7777Z" fill="#455A64"/>
<path d="M33.3256 23.9745C34.9488 24.9242 36.1204 26.3731 36.6157 28.0432C37.2299 30.0634 39.6745 41.0928 39.6745 41.0928C39.6745 41.0928 31.5589 42.7834 31.6307 42.4042C31.7025 42.025 31.2798 37.0419 31.2798 37.0419L32.0774 28.4508L33.3256 23.9745Z" fill="#455A64"/>
<path d="M32.4159 28.4508C32.4793 28.5771 32.5274 28.7089 32.5595 28.8442C32.6097 28.9982 32.651 29.1543 32.6831 29.312C32.727 29.4963 32.7788 29.7054 32.8147 29.9429C33.0196 31.166 33.041 32.4078 32.8785 33.6359C32.7225 34.8637 32.4053 36.071 31.9333 37.2333C31.7499 37.6798 31.5864 38.0342 31.4588 38.2717C31.401 38.3962 31.3289 38.515 31.2434 38.6261C31.2115 38.6261 31.4667 38.0768 31.7938 37.1836C32.219 36.0192 32.5129 34.8201 32.6711 33.604C32.8305 32.3901 32.8305 31.1639 32.6711 29.95C32.5395 29.025 32.38 28.4579 32.4159 28.4508Z" fill="#263238"/>
<path d="M27.443 21.3022C27.3905 21.4261 27.3236 21.5449 27.2436 21.6566L26.6454 22.5639L24.452 25.782L24.3762 25.8919L24.2925 25.7856L22.7252 23.7335L22.8807 23.7512L21.8 24.6408C21.2536 25.0803 20.7232 25.5127 20.1848 25.9025L20.0772 25.9805L20.0293 25.8635C19.2317 23.9603 18.49 22.3194 17.9476 21.1462L17.3095 19.7711C17.2232 19.6077 17.1525 19.4382 17.0981 19.2643C17.2035 19.4185 17.2955 19.5796 17.3733 19.7463C17.5448 20.0582 17.7721 20.5189 18.0672 21.1002C18.6415 22.2591 19.4112 23.9001 20.2167 25.7997L20.0612 25.7608C20.5836 25.378 21.114 24.942 21.6564 24.5026L22.7372 23.6165L22.8249 23.5456L22.8927 23.6342L24.448 25.6934H24.2885L26.5417 22.5037L27.1957 21.607C27.2694 21.5 27.3521 21.3981 27.443 21.3022Z" fill="#263238"/>
<path d="M7.59482 45.6082C7.59482 45.6082 10.6337 44.2189 11.7383 43.464C12.843 42.709 13.8839 30.2017 13.8839 30.2017L30.434 31.1515L28.9744 45.4026L30.5696 46.8486L31.766 54.5891C31.766 54.5891 32.5636 86.2032 30.4819 86.1323C24.141 85.9161 4.5839 85.4234 4.93484 83.3714C5.28578 81.3193 7.40739 51.8282 7.40739 51.8282L5.4134 50.4637L7.59482 45.6082Z" fill="#96BEA0"/>
<path d="M14.4465 30.6553L12.0298 20.0476L14.4106 19.5372L16.7835 30.8892L14.4465 30.6553Z" fill="#96BEA0"/>
<path d="M27.459 31.3818L30.8089 22.8333L32.6992 23.698L29.6205 31.8106L27.459 31.3818Z" fill="#96BEA0"/>
<path d="M25.2142 37.1057L18.8334 36.808C18.5643 36.7933 18.3125 36.6851 18.1326 36.5066C17.9527 36.3282 17.8592 36.0939 17.8723 35.8546C17.8878 35.6148 18.0092 35.3902 18.2101 35.2295C18.411 35.0689 18.6751 34.9853 18.9451 34.9969L25.3259 35.2982C25.596 35.311 25.8494 35.4186 26.0304 35.5974C26.2114 35.7761 26.3051 36.0114 26.2909 36.2516C26.2838 36.3706 26.2503 36.4872 26.1922 36.5947C26.1341 36.7022 26.0527 36.7984 25.9526 36.8778C25.8525 36.9572 25.7358 37.0182 25.609 37.0573C25.4823 37.0964 25.3481 37.1129 25.2142 37.1057Z" fill="white"/>
<path d="M28.9787 45.4026C28.7622 45.4707 28.5393 45.5217 28.3127 45.555C27.882 45.6401 27.2519 45.7499 26.4742 45.8775C24.9189 46.1256 22.7495 46.4127 20.3407 46.5863C17.932 46.76 15.7426 46.7636 14.1593 46.7352C13.3617 46.7175 12.7316 46.6962 12.289 46.6714C12.059 46.6693 11.8295 46.6503 11.603 46.6147C11.8321 46.5922 12.0628 46.5863 12.2929 46.597H14.1633C15.7585 46.597 17.924 46.558 20.3248 46.395C22.7255 46.2319 24.891 45.9661 26.4503 45.7499L28.2967 45.4841C28.5216 45.4424 28.7495 45.4152 28.9787 45.4026Z" fill="#263238"/>
<path d="M28.8509 101.138L28.9107 106.455C28.9107 106.455 35.2157 108.507 35.2915 109.552L23.1561 109.644L23.1122 107.124L22.4023 101.893L28.8509 101.138Z" fill="#263238"/>
<path d="M23.1558 109.644V108.801L34.8286 108.992C34.8286 108.992 35.371 109.201 35.3111 109.545L23.1558 109.644Z" fill="#455A64"/>
<path d="M28.9507 106.49C28.9507 106.543 28.6556 106.568 28.3645 106.745C28.0734 106.922 27.9218 107.146 27.866 107.124C27.8102 107.103 27.8979 106.791 28.2648 106.589C28.6317 106.387 28.9627 106.455 28.9507 106.49Z" fill="white"/>
<path d="M30.3423 106.965C30.3423 107.018 30.103 107.11 29.9036 107.337C29.7042 107.564 29.6484 107.805 29.5885 107.805C29.5287 107.805 29.4888 107.5 29.7441 107.22C29.9993 106.94 30.3423 106.915 30.3423 106.965Z" fill="white"/>
<path d="M31.1602 108.358C31.1083 108.358 31.0206 108.103 31.1602 107.808C31.2998 107.514 31.5829 107.394 31.6108 107.454C31.6387 107.514 31.4633 107.656 31.3476 107.897C31.232 108.138 31.22 108.351 31.1602 108.358Z" fill="white"/>
<path d="M4.05752 33.3277C4.05752 33.3277 4.45632 29.7622 4.73946 28.7947C5.02261 27.8271 5.34165 27.2742 5.74444 27.1962C6.14722 27.1183 7.47123 27.4337 8.04949 27.3876C8.62775 27.3416 10.2269 26.7887 10.8411 27.0332C11.0564 27.1218 11.204 27.5578 10.6776 28.1177C10.4158 28.4272 10.0541 28.6584 9.6407 28.7805C9.6407 28.7805 12.1332 30.5774 11.8062 31.4067C11.4792 32.2361 10.7653 31.6442 10.5699 31.5804C10.3745 31.5166 8.80721 30.4498 8.80721 30.4498C8.80721 30.4498 9.87998 33.1717 9.42934 33.5935C8.97869 34.0152 7.9458 33.0441 7.9458 33.0441L7.86604 37.1908C7.547 37.4283 3.32373 37.1908 2.73351 36.3331C2.59393 36.1559 4.05752 33.3277 4.05752 33.3277Z" fill="#455A64"/>
<path d="M4.0576 33.3276C4.04324 33.3738 4.02457 33.4188 4.00177 33.4623L3.81434 33.8557C3.65482 34.2101 3.41554 34.6992 3.12043 35.3478C3.04864 35.5073 2.97686 35.6809 2.90508 35.8617C2.86918 35.9538 2.83329 36.046 2.80538 36.1417C2.78902 36.1878 2.77832 36.2353 2.77347 36.2834V36.3118L2.8293 36.365C3.21935 36.6463 3.68543 36.832 4.18123 36.9037C4.74984 37.0203 5.3268 37.102 5.90803 37.1482C6.2151 37.1695 6.53414 37.1908 6.85717 37.1978C7.02068 37.1978 7.18418 37.1978 7.34769 37.1978C7.42745 37.1978 7.5112 37.1978 7.59096 37.1801L7.70661 37.1624C7.74649 37.1624 7.76244 37.1447 7.79435 37.1376L7.76244 37.1943C7.76244 35.9361 7.80631 34.5362 7.83024 33.0441V32.8421L7.99375 32.9874C8.2682 33.2592 8.61124 33.4693 8.99473 33.6005C9.17818 33.643 9.36163 33.6005 9.39353 33.4197C9.4294 33.2345 9.4294 33.0451 9.39353 32.8598C9.24206 32.0511 9.00847 31.2564 8.69563 30.4852L8.58796 30.2016L8.85515 30.3824C9.30181 30.6836 9.78036 31.0026 10.2709 31.311C10.3671 31.3745 10.467 31.4336 10.57 31.4882C10.6936 31.5378 10.7973 31.6051 10.901 31.6512C11.1044 31.754 11.3357 31.8036 11.4792 31.6866C11.5564 31.6228 11.6168 31.5445 11.6561 31.4576C11.6954 31.3706 11.7126 31.277 11.7066 31.1834C11.6694 30.9849 11.5837 30.7962 11.4553 30.6305C10.9216 29.963 10.2838 29.3663 9.56102 28.8584L9.42543 28.7521L9.60489 28.7025C10.0864 28.5416 10.4935 28.2421 10.7614 27.8519C10.8288 27.7662 10.8759 27.6692 10.8999 27.5669C10.9239 27.4645 10.9243 27.3589 10.901 27.2564C10.8868 27.2154 10.8623 27.1778 10.8292 27.1466C10.7925 27.1187 10.7487 27.0992 10.7016 27.0899C10.5866 27.0661 10.4685 27.0565 10.3506 27.0615C9.86423 27.0948 9.38305 27.1732 8.91497 27.2954C8.67968 27.3486 8.45236 27.4017 8.21308 27.4407C7.9753 27.4744 7.73303 27.4744 7.49525 27.4407C7.03663 27.3911 6.60194 27.3131 6.17921 27.2706C5.98974 27.232 5.79135 27.2482 5.61292 27.3167C5.45825 27.4172 5.33365 27.5498 5.25001 27.703C4.94142 28.2859 4.73562 28.9075 4.63985 29.546C4.43247 30.7226 4.30486 31.6725 4.21313 32.314C4.16528 32.6294 4.12939 32.874 4.10546 33.0582C4.08153 33.2425 4.06159 33.3134 4.0576 33.3134C4.04703 33.2274 4.04703 33.1407 4.0576 33.0547C4.0576 32.8704 4.10147 32.6223 4.13337 32.3069C4.20516 31.6583 4.31283 30.712 4.50426 29.5282C4.59212 28.8739 4.79674 28.2363 5.11043 27.6392C5.19985 27.4653 5.33698 27.3142 5.50923 27.1997C5.60959 27.1438 5.72575 27.1143 5.84422 27.1147C5.95441 27.1076 6.06503 27.1076 6.17522 27.1147C6.60593 27.1537 7.04062 27.2316 7.49126 27.2777C7.71196 27.3079 7.93655 27.3079 8.15725 27.2777C8.38457 27.2387 8.61188 27.1855 8.84717 27.1288C9.32849 27.0033 9.82286 26.9214 10.3227 26.8843C10.4569 26.8778 10.5914 26.8897 10.7215 26.9197C10.7992 26.9342 10.8709 26.9673 10.9289 27.0154C10.9867 27.0654 11.0293 27.1276 11.0525 27.1962C11.0849 27.3214 11.0878 27.4512 11.061 27.5774C11.0343 27.7037 10.9784 27.8237 10.897 27.9298C10.6052 28.3633 10.1525 28.693 9.61686 28.8619L9.65674 28.7095C10.3981 29.2294 11.0509 29.8418 11.5949 30.5277C11.7427 30.7158 11.8396 30.9317 11.878 31.1586C11.8919 31.2206 11.8919 31.2844 11.878 31.3464C11.8696 31.4069 11.8494 31.4657 11.8182 31.5201C11.7681 31.6358 11.6874 31.7391 11.5829 31.8213C11.5247 31.8643 11.457 31.8959 11.3842 31.9142C11.3114 31.9325 11.2351 31.9371 11.1602 31.9277C11.0194 31.9121 10.8837 31.8711 10.7614 31.8072C10.6458 31.754 10.5461 31.6866 10.4424 31.6477C10.3387 31.6087 10.219 31.5201 10.1114 31.4563C9.61287 31.1444 9.1383 30.8219 8.68766 30.5206L8.85116 30.4178C9.16541 31.2013 9.40161 32.0077 9.55704 32.8279C9.59487 33.0356 9.59487 33.2474 9.55704 33.4552C9.54351 33.5156 9.51489 33.5725 9.47329 33.6218C9.42857 33.6705 9.37288 33.7103 9.30978 33.7387C9.18453 33.7889 9.04361 33.7989 8.91098 33.7671C8.48767 33.6277 8.1096 33.3976 7.8103 33.0972L7.98178 33.0405C7.94589 34.5326 7.91797 35.9326 7.89006 37.1908V37.2333H7.86214C7.81253 37.2567 7.76043 37.2757 7.70661 37.29L7.57501 37.3077C7.48727 37.3077 7.39954 37.3077 7.31579 37.3077C7.1443 37.3077 6.97681 37.3077 6.8133 37.3077C6.4823 37.3077 6.16326 37.2758 5.8522 37.2475C5.26474 37.1988 4.6822 37.1111 4.10945 36.9852C3.58736 36.907 3.09922 36.7035 2.6977 36.3969L2.63389 36.3331C2.62 36.3162 2.61047 36.2969 2.60598 36.2764C2.604 36.2599 2.604 36.2432 2.60598 36.2267C2.61334 36.1728 2.62534 36.1195 2.64187 36.0672C2.67377 35.968 2.71365 35.8759 2.74954 35.7837C2.82532 35.5994 2.90508 35.4293 2.97686 35.2663C3.27995 34.6212 3.53916 34.125 3.71862 33.7883C3.80237 33.6324 3.87017 33.5048 3.926 33.4091C3.96522 33.3765 4.00955 33.349 4.0576 33.3276Z" fill="#263238"/>
<path d="M6.57814 27.7419C7.1524 27.6701 7.73775 27.7502 8.26107 27.9723C8.80796 28.1334 9.28928 28.4342 9.6449 28.8371C9.17106 28.5786 8.68255 28.342 8.18131 28.1282C7.33187 27.8305 6.57415 27.7986 6.57814 27.7419Z" fill="#263238"/>
<path d="M6.52637 29.4113C6.52637 29.3865 6.66993 29.3405 6.92517 29.3369C7.25738 29.3395 7.58412 29.4124 7.87829 29.5496C8.17472 29.6871 8.43027 29.8851 8.62405 30.1273C8.76762 30.3116 8.8075 30.4498 8.78357 30.4569C8.49107 30.1691 8.15404 29.9197 7.78258 29.7161C7.38244 29.5616 6.95937 29.4589 6.52637 29.4113Z" fill="#263238"/>
<path d="M58.7766 106.738L42.0709 80.9968L14.9925 39.2641L8.69943 29.585C8.22087 28.8442 6.92876 29.5141 7.41131 30.2548L24.5317 56.6447L51.6141 98.3774L57.0338 106.735L47.9332 106.717V108.861L68.7186 108.907V106.759L58.7766 106.738Z" fill="#263238"/>
<path d="M58.7769 106.738H59.431H68.7708V108.936H68.727H47.9416H47.8698V108.872C47.8698 108.223 47.8698 107.479 47.8698 106.728V106.664H47.9416H57.0421L56.9744 106.77L17.6927 46.2674L11.3957 36.5635C10.3588 34.9568 9.32722 33.3726 8.30097 31.8108C8.04574 31.4174 7.79051 31.0275 7.53927 30.6341L7.34785 30.3435C7.27414 30.2349 7.22534 30.1145 7.20428 29.9891C7.19515 29.8603 7.22423 29.7316 7.28862 29.6159C7.353 29.5002 7.45044 29.4016 7.57117 29.3298C7.68437 29.2559 7.81598 29.2072 7.95483 29.1881C8.09369 29.169 8.23568 29.1799 8.36877 29.22C8.61342 29.336 8.80513 29.5239 8.91114 29.7516L9.66486 30.9141C13.6529 37.0916 17.5371 43.0529 21.23 48.7342L40.7712 78.9093C46.3264 87.5004 50.8209 94.447 53.9315 99.2529L57.5207 104.796L58.4499 106.242C58.6573 106.568 58.761 106.738 58.761 106.738C58.761 106.738 58.6493 106.579 58.4379 106.26C58.2266 105.941 57.9115 105.455 57.4968 104.842C56.6753 103.577 55.4589 101.72 53.9076 99.3237L40.6715 78.9908L21.0785 48.8299C17.3936 43.1592 13.5212 37.1944 9.51332 31.0169L8.75959 29.8579C8.62799 29.6559 8.5243 29.4716 8.31693 29.4043C8.21372 29.3722 8.10316 29.3636 7.99524 29.379C7.88732 29.3945 7.78543 29.4336 7.69879 29.4929C7.60791 29.5464 7.53411 29.6199 7.48451 29.7062C7.43491 29.7925 7.41119 29.8887 7.41564 29.9855C7.48033 30.1911 7.58419 30.3853 7.72272 30.5597L8.48442 31.7328L11.5711 36.4855L17.8721 46.1753L57.1179 106.699L57.1857 106.809H57.0461L47.9456 106.784L48.0213 106.72C48.0213 107.472 48.0213 108.216 48.0213 108.865L47.9495 108.804L68.7349 108.868L68.6871 108.911C68.6871 108.152 68.6871 107.429 68.6871 106.763L68.727 106.802L61.3213 106.767H59.415L58.7769 106.738Z" fill="#455A64"/>
<path d="M68.6428 108.804H48.1804C47.9172 109.081 48.1326 110.346 48.5034 110.498C48.8919 110.619 49.3161 110.613 49.6998 110.481C50.0807 110.349 50.488 110.289 50.8962 110.304C51.4027 110.364 51.8573 110.697 52.3638 110.658C52.8703 110.619 53.2452 110.211 53.7357 110.215C54.298 110.215 54.7446 110.761 55.303 110.708C55.6659 110.672 55.949 110.392 56.3079 110.353C56.8663 110.272 57.3568 110.739 57.9031 110.747C58.4495 110.754 58.9879 110.25 59.5781 110.296C60.0965 110.335 60.4754 110.786 60.9858 110.856C61.7276 110.963 62.3617 110.25 63.1154 110.296C63.594 110.325 64.0047 110.651 64.4873 110.651C64.9698 110.651 65.3886 110.314 65.8711 110.257C66.3062 110.251 66.735 110.35 67.1114 110.545C67.4905 110.741 67.9409 110.8 68.3676 110.708C68.7704 110.552 68.9738 109.052 68.6428 108.804Z" fill="#455A64"/>
<path d="M32.3402 53.852C32.2046 54.1107 31.3791 57.141 31.3791 57.141C30.6877 57.3097 30.0336 57.5818 29.445 57.9456C28.857 58.4259 28.3494 58.9784 27.9375 59.5865L28.8986 60.9439C28.8986 60.9439 28.5556 62.1206 28.3921 63.1413C28.2286 64.162 28.8228 64.4101 28.8228 64.4101C28.8228 64.4101 28.3642 66.0901 29.3612 66.2283C29.6802 66.2744 30.3183 65.4308 30.3183 65.4308C30.299 65.6253 30.3606 65.8192 30.4914 65.976C30.6223 66.1328 30.8132 66.2414 31.0282 66.2814C31.6982 66.4445 32.2605 65.8242 32.2605 65.8242C32.2605 65.8242 32.8866 66.8485 33.6882 66.4728C34.4898 66.0972 35.0162 64.5909 35.0162 64.5909C35.0162 64.5909 36.1687 63.0137 35.9374 61.6634C35.7061 60.3131 35.6343 59.2959 35.6343 59.2959C35.6343 59.2959 36.2325 57.6727 36.7709 56.2975C37.1099 55.4327 37.3731 54.4226 35.6862 53.7811C34.6041 53.4109 33.4012 53.4364 32.3402 53.852Z" fill="#455A64"/>
<path d="M30.7091 61.3124C30.4526 61.9288 30.1308 62.5222 29.748 63.0845C29.3492 63.726 28.9903 64.2788 28.7869 64.5553C28.7869 64.5553 28.7869 64.5766 28.7869 64.573C28.7869 64.5695 28.7869 64.573 28.7869 64.5517C28.7869 64.5305 28.755 64.5128 28.755 64.5057C28.755 64.4986 28.7988 64.4773 28.8347 64.534C28.8414 64.5438 28.8454 64.5547 28.8465 64.5661C28.8476 64.5774 28.8458 64.5888 28.8412 64.5994C28.8365 64.61 28.8292 64.6196 28.8198 64.6273C28.8104 64.635 28.7992 64.6407 28.7869 64.6439C28.7685 64.6477 28.7494 64.6471 28.7313 64.6423C28.7133 64.6375 28.697 64.6285 28.6841 64.6163C28.6711 64.6041 28.662 64.5891 28.6577 64.5728C28.6533 64.5565 28.6539 64.5395 28.6593 64.5234C28.8108 64.2186 29.1338 63.648 29.5286 63.0065C29.8633 62.4111 30.2584 61.844 30.7091 61.3124Z" fill="#263238"/>
<path d="M32.6593 62.3013C32.2832 62.9315 31.8483 63.5325 31.3592 64.0982C30.9254 64.698 30.4344 65.2636 29.8916 65.7887C30.2638 65.1565 30.6989 64.5551 31.1917 63.9918C31.6242 63.3912 32.1153 62.8255 32.6593 62.3013Z" fill="#263238"/>
<path d="M34.2226 62.9392C34.0311 63.4799 33.7429 63.9897 33.3692 64.449C33.055 64.9381 32.6876 65.3987 32.2725 65.8242C32.5101 65.3009 32.8195 64.8057 33.1937 64.3498C33.5068 63.8629 33.8503 63.392 34.2226 62.9392Z" fill="#263238"/>
<path d="M58.0464 152.904L81.5755 130.817C89.6831 123.204 97.9263 115.687 105.902 107.975C110.321 103.722 116.929 102.623 122.54 105.848C125.272 107.408 127.944 109.063 130.644 110.669C132.239 111.622 133.746 109.318 132.155 108.372C129.523 106.805 126.903 105.225 124.259 103.676C122.005 102.333 119.398 101.531 116.692 101.35C113.986 101.169 111.273 101.613 108.817 102.641C104.849 104.321 101.639 108.142 98.6322 110.952C87.5695 121.348 76.5081 131.732 65.4481 142.102L55.9208 151.044C54.5968 152.284 56.7184 154.166 58.0344 152.922L58.0464 152.904Z" fill="#263238"/>
<path d="M109.308 105.473C108.903 105.151 108.542 104.787 108.236 104.388C107.874 104.026 107.567 103.623 107.322 103.19C108.093 103.873 108.763 104.64 109.316 105.473H109.308Z" fill="#455A64"/>
<path d="M106.561 107.521C106.15 107.204 105.787 106.839 105.484 106.437C105.126 106.074 104.82 105.673 104.575 105.242C104.983 105.562 105.345 105.927 105.651 106.327C106.011 106.689 106.317 107.09 106.561 107.521Z" fill="#455A64"/>
<path d="M104.208 109.648C103.726 109.423 103.279 109.143 102.88 108.815C102.435 108.535 102.033 108.207 101.683 107.837C102.607 108.344 103.455 108.953 104.208 109.648Z" fill="#455A64"/>
<path d="M101.543 112.146C101.082 111.891 100.657 111.586 100.279 111.239C99.8563 110.935 99.4795 110.584 99.1587 110.193C100.046 110.752 100.85 111.408 101.551 112.146H101.543Z" fill="#455A64"/>
<path d="M99.151 114.549C98.6866 114.297 98.2616 113.992 97.8868 113.642C97.4644 113.336 97.0866 112.985 96.7622 112.596C97.2267 112.849 97.6518 113.156 98.0264 113.507C98.4485 113.812 98.8263 114.162 99.151 114.549Z" fill="#455A64"/>
<path d="M96.6187 116.761C96.1564 116.505 95.7317 116.199 95.3545 115.85C94.9314 115.546 94.5547 115.195 94.2339 114.804C94.6968 115.059 95.1216 115.366 95.4981 115.715C95.919 116.021 96.2955 116.372 96.6187 116.761Z" fill="#455A64"/>
<path d="M94.4253 118.902C93.963 118.646 93.5384 118.34 93.1612 117.991C92.7388 117.688 92.3621 117.337 92.0405 116.949C92.5028 117.203 92.9275 117.508 93.3047 117.856C93.7269 118.161 94.1035 118.512 94.4253 118.902Z" fill="#455A64"/>
<path d="M91.8809 121.269C91.4186 121.013 90.9939 120.707 90.6167 120.358C90.1924 120.049 89.8156 119.691 89.4961 119.295C89.9567 119.553 90.3811 119.859 90.7603 120.206C91.185 120.515 91.5618 120.872 91.8809 121.269Z" fill="#455A64"/>
<path d="M89.3365 123.637C88.8742 123.381 88.4495 123.075 88.0723 122.726C87.6505 122.421 87.2739 122.07 86.9517 121.68C87.4146 121.935 87.8393 122.241 88.2158 122.591C88.6393 122.895 89.016 123.246 89.3365 123.637Z" fill="#455A64"/>
<path d="M86.7882 126.001C86.324 125.747 85.8979 125.442 85.52 125.093C85.0994 124.787 84.723 124.436 84.3994 124.048C84.8631 124.302 85.288 124.608 85.6636 124.959C86.0867 125.262 86.4647 125.612 86.7882 126.001Z" fill="#455A64"/>
<path d="M84.2516 128.368C83.7877 128.114 83.3627 127.808 82.9874 127.457C82.5667 127.151 82.1891 126.802 81.8628 126.415C82.3267 126.668 82.7517 126.973 83.127 127.323C83.5497 127.628 83.9276 127.979 84.2516 128.368Z" fill="#455A64"/>
<path d="M81.7072 130.736C80.8197 130.176 80.0157 129.519 79.3145 128.779C79.7799 129.033 80.2062 129.339 80.5826 129.69C81.005 129.996 81.3828 130.347 81.7072 130.736Z" fill="#455A64"/>
<path d="M79.1636 133.1C78.702 132.844 78.2774 132.54 77.8994 132.192C77.4764 131.888 77.0997 131.537 76.7788 131.147C77.2417 131.402 77.6665 131.708 78.043 132.058C78.4633 132.363 78.8396 132.713 79.1636 133.1Z" fill="#455A64"/>
<path d="M76.6187 135.467C76.1564 135.211 75.7317 134.905 75.3545 134.556C74.9311 134.254 74.5543 133.904 74.2339 133.514C75.1214 134.072 75.9254 134.729 76.6267 135.467H76.6187Z" fill="#455A64"/>
<path d="M74.0743 137.835C73.6199 137.582 73.2021 137.281 72.8301 136.938C72.4088 136.634 72.0322 136.284 71.7095 135.896C72.1718 136.15 72.5965 136.455 72.9737 136.803C73.389 137.103 73.759 137.45 74.0743 137.835Z" fill="#455A64"/>
<path d="M71.5303 140.202C71.068 139.946 70.6434 139.64 70.2661 139.291C69.8431 138.987 69.4664 138.636 69.1455 138.246C69.6084 138.501 70.0332 138.807 70.4097 139.157C70.8331 139.46 71.2099 139.812 71.5303 140.202Z" fill="#455A64"/>
<path d="M68.9899 142.566C68.5257 142.313 68.0996 142.008 67.7217 141.659C67.3011 141.353 66.9247 141.002 66.6011 140.613C67.4873 141.173 68.2912 141.829 68.9939 142.566H68.9899Z" fill="#455A64"/>
<path d="M66.4493 144.934C65.9854 144.68 65.5605 144.374 65.1851 144.023C64.7634 143.718 64.3857 143.368 64.0605 142.981C64.5245 143.233 64.9494 143.538 65.3247 143.888C65.7475 144.193 66.1253 144.545 66.4493 144.934Z" fill="#455A64"/>
<path d="M63.901 147.301C63.4371 147.047 63.0121 146.741 62.6368 146.39C62.2144 146.085 61.8366 145.733 61.5122 145.345C61.9756 145.599 62.4005 145.905 62.7764 146.255C63.1991 146.561 63.577 146.912 63.901 147.301Z" fill="#455A64"/>
<path d="M61.3567 149.669C60.4691 149.109 59.6651 148.452 58.9639 147.712C59.4293 147.966 59.8556 148.272 60.232 148.623C60.6544 148.929 61.0322 149.28 61.3567 149.669Z" fill="#455A64"/>
<path d="M112.271 104.353C112.211 104.353 112.004 103.771 111.613 103.098C111.222 102.425 110.816 101.925 110.847 101.89C111.26 102.192 111.585 102.577 111.797 103.013C112.071 103.42 112.234 103.879 112.271 104.353Z" fill="#455A64"/>
<path d="M115.314 101.337C115.652 102.209 115.589 103.164 115.139 103.995C115.083 103.995 115.27 103.403 115.314 102.673C115.358 101.943 115.254 101.347 115.314 101.337Z" fill="#455A64"/>
<path d="M67.319 151.019H43.0601V153.596H67.319V151.019Z" fill="#263238"/>
<path d="M67.3905 151.019C67.3905 151.069 61.927 151.111 55.1953 151.111C48.4635 151.111 43 151.069 43 151.019C43 150.969 48.4595 150.927 55.1953 150.927C61.931 150.927 67.3905 150.966 67.3905 151.019Z" fill="#455A64"/>
<path d="M59.7893 153.681C59.651 152.813 59.651 151.932 59.7893 151.065C59.9275 151.932 59.9275 152.813 59.7893 153.681Z" fill="#455A64"/>
<path d="M130.48 113.249C131.569 115.439 133.192 117.434 134.803 119.341C136.458 121.324 138.228 123.229 140.107 125.047C142.612 127.436 145.292 129.687 147.685 132.164C149.774 134.315 151.824 136.902 152.965 139.515C153.273 140.218 153.532 140.937 153.738 141.669C153.83 141.988 153.906 142.307 153.974 142.626C154.002 142.765 154.029 142.906 154.053 143.045C154.053 143.126 154.081 143.208 154.093 143.286C154.061 143.091 154.093 143.264 154.093 143.367C154.259 144.646 154.274 145.938 154.137 147.22C154.137 147.397 154.093 147.574 154.069 147.751C154.101 147.535 154.033 147.932 154.025 147.989C153.966 148.315 153.894 148.641 153.806 148.963C153.642 149.592 153.427 150.209 153.164 150.81C153.144 150.845 153.044 151.04 153.164 150.838C153.136 150.895 153.108 150.952 153.076 151.008C153.009 151.139 152.937 151.271 152.861 151.398C152.694 151.686 152.509 151.965 152.307 152.235C152.267 152.291 152.035 152.589 152.111 152.486C152.187 152.383 152.075 152.529 152.063 152.539L151.892 152.72C151.656 152.96 151.402 153.185 151.13 153.394L150.979 153.51C150.947 153.532 150.727 153.688 150.863 153.596C150.999 153.503 150.811 153.627 150.799 153.635L150.58 153.773C150.297 153.943 150.002 154.099 149.703 154.244C149.559 154.311 149.419 154.375 149.272 154.436L149.021 154.538C149.08 154.513 149.272 154.453 148.997 154.538C148.721 154.623 148.347 154.751 148.012 154.836C147.677 154.921 147.338 154.995 146.995 155.052L146.596 155.116C146.887 155.073 146.309 155.141 146.233 155.144C145.541 155.193 144.845 155.185 144.155 155.12H144.215L143.944 155.081L143.477 154.995C143.147 154.93 142.821 154.849 142.5 154.751C142.44 154.73 141.958 154.556 142.233 154.666C142.089 154.609 141.954 154.549 141.834 154.482C141.703 154.414 141.577 154.339 141.455 154.258C141.687 154.414 141.332 154.145 141.268 154.088C141.145 153.977 141.03 153.859 140.925 153.734C141.088 153.925 140.865 153.638 140.817 153.574C140.769 153.51 140.662 153.337 140.59 153.22C140.562 153.167 140.534 153.114 140.502 153.06C140.43 152.926 140.562 153.227 140.47 152.993C140.363 152.729 140.274 152.459 140.203 152.185C140.203 152.128 140.103 151.657 140.139 151.94C140.139 151.781 140.103 151.618 140.095 151.455C140.085 151.174 140.093 150.892 140.119 150.611C140.119 150.555 140.119 150.349 140.119 150.611C140.119 150.526 140.151 150.445 140.171 150.36C140.211 150.182 140.259 150.005 140.319 149.828C140.388 149.582 140.49 149.344 140.622 149.119C140.808 148.792 141.021 148.478 141.26 148.18L141.396 148.013C141.551 147.833 141.284 148.13 141.451 147.957C141.619 147.783 141.687 147.709 141.81 147.602C142.075 147.345 142.356 147.101 142.652 146.872C142.883 146.679 143.133 146.503 143.398 146.348C143.734 146.141 144.086 145.954 144.45 145.788C144.729 145.65 145.023 145.54 145.328 145.458C145.689 145.345 146.058 145.251 146.432 145.178C146.603 145.143 146.774 145.111 146.947 145.082L147.242 145.036C147.242 145.036 147.493 145.004 147.338 145.036L147.736 144.997C147.952 144.997 148.171 144.965 148.386 144.958C149.693 144.923 151.001 144.958 152.303 145.065C152.825 145.1 153.344 145.132 153.87 145.132C154.267 145.132 154.647 144.992 154.927 144.743C155.208 144.494 155.365 144.155 155.365 143.803C155.365 143.45 155.208 143.112 154.927 142.863C154.647 142.614 154.267 142.474 153.87 142.474C152.626 142.474 151.385 142.329 150.145 142.29C148.537 142.221 146.925 142.356 145.36 142.69C141.906 143.48 138.736 145.844 137.547 148.871C136.486 151.582 137.4 155.144 140.243 156.718C141.591 157.466 143.326 157.756 144.889 157.82C146.42 157.878 147.95 157.681 149.399 157.239C150.941 156.775 152.353 156.022 153.539 155.031C154.684 154.001 155.562 152.761 156.111 151.398C157.244 148.793 157.455 145.809 157.056 143.055C156.051 136.194 150.719 130.938 145.491 126.178C143.234 124.122 141.021 122.059 138.991 119.823C138.759 119.568 138.528 119.313 138.301 119.054C137.994 118.7 138.006 118.724 137.707 118.374C137.22 117.806 136.744 117.232 136.279 116.651C135.418 115.596 134.619 114.502 133.886 113.373C133.583 112.894 133.3 112.409 133.049 111.905C132.726 111.25 131.645 111.097 131.003 111.43C130.241 111.824 130.141 112.589 130.468 113.249H130.48Z" fill="#263238"/>
<path d="M152.825 145.369C152.688 144.31 152.688 143.239 152.825 142.18C152.962 143.239 152.962 144.31 152.825 145.369Z" fill="#455A64"/>
<path d="M148.729 144.852C148.59 144.03 148.59 143.193 148.729 142.371C148.868 143.193 148.868 144.03 148.729 144.852Z" fill="#455A64"/>
<path d="M146.787 144.983C146.602 144.602 146.483 144.198 146.436 143.785C146.319 143.383 146.269 142.967 146.289 142.552C146.473 142.933 146.591 143.337 146.64 143.75C146.755 144.153 146.805 144.568 146.787 144.983Z" fill="#455A64"/>
<path d="M144.722 145.642C144.448 145.305 144.23 144.933 144.076 144.54C143.861 144.171 143.709 143.776 143.625 143.367C143.897 143.706 144.113 144.077 144.267 144.469C144.482 144.838 144.635 145.234 144.722 145.642Z" fill="#455A64"/>
<path d="M142.836 146.571C142.469 146.313 142.149 146.007 141.886 145.664C141.564 145.36 141.295 145.014 141.089 144.639C141.454 144.9 141.774 145.207 142.038 145.55C142.358 145.854 142.627 146.198 142.836 146.571Z" fill="#455A64"/>
<path d="M141.312 147.836C140.88 147.67 140.478 147.451 140.116 147.184C139.716 146.966 139.356 146.696 139.047 146.383C139.479 146.548 139.882 146.767 140.243 147.035C140.643 147.252 141.004 147.523 141.312 147.836Z" fill="#455A64"/>
<path d="M140.383 149.272C139.926 149.194 139.483 149.058 139.071 148.868C138.631 148.734 138.217 148.541 137.842 148.297C138.299 148.374 138.741 148.508 139.154 148.697C139.595 148.832 140.009 149.025 140.383 149.272Z" fill="#455A64"/>
<path d="M139.872 151.115C139.413 151.182 138.946 151.19 138.484 151.139C138.02 151.147 137.556 151.095 137.108 150.984C137.567 150.912 138.035 150.902 138.496 150.955C138.961 150.945 139.425 150.999 139.872 151.115Z" fill="#455A64"/>
<path d="M140.299 152.936C139.865 153.105 139.405 153.216 138.935 153.266C138.476 153.375 138.002 153.425 137.527 153.415C137.962 153.244 138.423 153.133 138.895 153.085C139.352 152.974 139.825 152.924 140.299 152.936Z" fill="#455A64"/>
<path d="M141.128 154.12C140.766 154.388 140.364 154.608 139.932 154.776C139.526 154.994 139.087 155.159 138.628 155.265C138.989 154.996 139.392 154.775 139.824 154.609C140.23 154.39 140.669 154.225 141.128 154.12Z" fill="#455A64"/>
<path d="M142.452 154.843C142.037 155.603 141.5 156.305 140.857 156.927C141.268 156.165 141.806 155.463 142.452 154.843Z" fill="#455A64"/>
<path d="M144.454 155.194C144.483 155.615 144.443 156.038 144.335 156.448C144.293 156.869 144.182 157.282 144.008 157.675C143.977 157.254 144.017 156.831 144.127 156.42C144.17 156 144.28 155.587 144.454 155.194Z" fill="#455A64"/>
<path d="M146.696 155.198C146.874 155.587 146.988 155.998 147.035 156.417C147.148 156.827 147.195 157.249 147.174 157.671C146.877 156.87 146.716 156.034 146.696 155.19V155.198Z" fill="#455A64"/>
<path d="M149.065 154.591C149.329 154.942 149.533 155.325 149.671 155.729C149.867 156.112 150.001 156.518 150.07 156.934C149.602 156.202 149.259 155.413 149.053 154.591H149.065Z" fill="#455A64"/>
<path d="M151.154 153.503C151.53 153.76 151.859 154.066 152.131 154.411C152.452 154.717 152.721 155.063 152.929 155.438C152.555 155.18 152.226 154.875 151.952 154.531C151.633 154.224 151.364 153.878 151.154 153.503Z" fill="#455A64"/>
<path d="M152.482 152.1C153.383 152.357 154.236 152.731 155.014 153.209C154.553 153.112 154.11 152.953 153.702 152.738C153.262 152.58 152.851 152.365 152.482 152.1Z" fill="#455A64"/>
<path d="M153.447 150.406C153.919 150.466 154.378 150.585 154.811 150.76C155.268 150.873 155.704 151.046 156.103 151.274C155.632 151.215 155.172 151.096 154.739 150.92C154.282 150.806 153.847 150.633 153.447 150.406Z" fill="#455A64"/>
<path d="M153.91 148.765C154.382 148.727 154.859 148.753 155.322 148.843C155.796 148.871 156.263 148.96 156.71 149.105C155.765 149.11 154.824 148.991 153.918 148.751L153.91 148.765Z" fill="#455A64"/>
<path d="M154.309 146.94C154.782 146.906 155.257 146.934 155.721 147.021C156.194 147.049 156.66 147.138 157.105 147.283C156.632 147.317 156.157 147.291 155.693 147.205C155.219 147.179 154.753 147.089 154.309 146.94Z" fill="#455A64"/>
<path d="M154.337 145.309C155.273 145.186 156.224 145.186 157.16 145.309C156.224 145.432 155.273 145.432 154.337 145.309Z" fill="#455A64"/>
<path d="M154.145 143.364C155.081 143.241 156.032 143.241 156.968 143.364C156.032 143.486 155.081 143.486 154.145 143.364Z" fill="#455A64"/>
<path d="M153.786 141.485C154.232 141.341 154.7 141.257 155.174 141.237C155.637 141.162 156.11 141.147 156.578 141.191C156.131 141.333 155.664 141.417 155.19 141.439C154.727 141.513 154.254 141.529 153.786 141.485Z" fill="#455A64"/>
<path d="M153.136 139.731C153.567 139.555 154.023 139.436 154.492 139.376C154.947 139.256 155.418 139.194 155.892 139.192C155.461 139.367 155.005 139.487 154.536 139.546C154.082 139.668 153.61 139.73 153.136 139.731Z" fill="#455A64"/>
<path d="M152.287 137.941C153.171 137.642 154.099 137.458 155.042 137.395C154.158 137.694 153.23 137.878 152.287 137.941Z" fill="#455A64"/>
<path d="M151.266 136.264C151.676 136.052 152.12 135.894 152.582 135.797C153.022 135.638 153.486 135.539 153.958 135.502C153.549 135.715 153.107 135.872 152.646 135.97C152.205 136.129 151.74 136.228 151.266 136.264Z" fill="#455A64"/>
<path d="M149.906 134.482C150.307 134.257 150.742 134.083 151.198 133.964C151.63 133.789 152.088 133.67 152.558 133.61C151.726 134.011 150.832 134.301 149.906 134.471V134.482Z" fill="#455A64"/>
<path d="M148.295 132.508C148.693 132.279 149.127 132.105 149.583 131.99C150.016 131.814 150.475 131.695 150.947 131.636C150.548 131.864 150.112 132.039 149.655 132.153C149.223 132.329 148.765 132.448 148.295 132.508Z" fill="#455A64"/>
<path d="M146.52 130.785C146.865 130.499 147.256 130.26 147.681 130.076C148.07 129.836 148.495 129.647 148.945 129.513C148.6 129.799 148.209 130.038 147.784 130.222C147.395 130.462 146.969 130.652 146.52 130.785Z" fill="#455A64"/>
<path d="M144.455 128.864C145.189 128.335 146.006 127.903 146.879 127.581C146.534 127.866 146.145 128.104 145.723 128.29C145.335 128.537 144.907 128.731 144.455 128.864Z" fill="#455A64"/>
<path d="M142.476 127.014C142.823 126.73 143.213 126.491 143.637 126.305C144.025 126.064 144.451 125.874 144.901 125.742C144.554 126.026 144.163 126.265 143.74 126.451C143.352 126.692 142.926 126.882 142.476 127.014Z" fill="#455A64"/>
<path d="M140.378 125.1C140.724 124.815 141.115 124.576 141.539 124.392C141.929 124.15 142.356 123.961 142.807 123.828C142.461 124.113 142.07 124.352 141.647 124.537C141.257 124.778 140.83 124.968 140.378 125.1Z" fill="#455A64"/>
<path d="M138.632 123.417C138.979 123.133 139.369 122.894 139.792 122.708C140.182 122.468 140.607 122.278 141.057 122.145C140.714 122.432 140.324 122.671 139.9 122.853C139.51 123.094 139.083 123.284 138.632 123.417Z" fill="#455A64"/>
<path d="M136.726 121.4C137.46 120.871 138.277 120.439 139.15 120.117C138.805 120.402 138.416 120.64 137.994 120.826C137.606 121.073 137.178 121.267 136.726 121.4Z" fill="#455A64"/>
<path d="M135.066 119.571C135.414 119.288 135.804 119.049 136.227 118.863C136.617 118.621 137.044 118.432 137.495 118.299C137.148 118.583 136.757 118.821 136.335 119.008C135.947 119.252 135.519 119.443 135.066 119.571Z" fill="#455A64"/>
<path d="M133.408 117.721C133.756 117.438 134.146 117.199 134.569 117.012C134.958 116.77 135.385 116.58 135.837 116.449C135.489 116.733 135.099 116.971 134.676 117.158C134.289 117.402 133.861 117.592 133.408 117.721Z" fill="#455A64"/>
<path d="M114.928 67.3799C114.796 66.4868 114.054 65.7779 113.4 65.0868C112.046 63.6484 110.951 62.0319 110.154 60.2951C109.647 59.1822 109.225 57.9772 108.228 57.1691C107.231 56.361 105.4 56.2193 104.674 57.2294L103.047 59.7103L107.063 69.4709C107.57 70.7043 108.315 72.122 109.771 72.3488C111.227 72.5756 112.483 71.438 113.424 70.4101C114.234 69.5312 115.103 68.5069 114.928 67.3799Z" fill="#263238"/>
<path d="M101.145 56.2937C99.7751 55.9636 98.3395 55.911 96.9438 56.1398C95.5482 56.3686 94.2282 56.873 93.0812 57.6157C91.7332 58.4876 91.3902 59.1007 90.6245 59.9726C89.8398 60.8206 89.4162 61.8872 89.4282 62.9851C89.4137 64.3025 89.7731 65.6019 90.473 66.7632C91.2071 67.9442 92.0615 69.063 93.0253 70.1054C93.9989 71.1506 95.2781 71.9367 96.7222 72.3772L100.2 70.7965C101.942 69.7155 103.709 68.6133 105.073 67.1637C106.437 65.7142 107.378 63.8464 107.175 61.9644C106.892 59.3559 104.032 56.9211 101.145 56.2937Z" fill="#263238"/>
<path d="M98.405 58.1048L93.0771 59.3949L92.1 60.2207C89.7072 61.8404 90.0303 65.3137 91.4819 67.061C93.0771 69.0032 95.1508 71.314 96.6982 72.5084C99.8088 74.9042 102.756 73.3058 102.756 73.3058L104.335 75.2693L104.734 77.5127L110.317 83.5804L115.777 80.699L110.955 70.7398L110.221 70.3074L109.081 69.0244L100.307 58.3529C100.081 58.1092 99.7616 57.9487 99.41 57.9029C99.0584 57.857 98.7002 57.929 98.405 58.1048Z" fill="#FFBF9D"/>
<path d="M100.958 68.6168C100.81 68.4857 100.612 68.4075 100.403 68.3971C100.212 68.3862 100.021 68.4317 99.8611 68.5265C99.7011 68.6212 99.5806 68.7601 99.5181 68.9216C99.4617 69.1003 99.4601 69.2892 99.5134 69.4686C99.5667 69.6481 99.673 69.8116 99.8212 69.9423C99.9665 69.9823 100.12 69.9948 100.271 69.9789C100.422 69.963 100.568 69.9192 100.699 69.8502L100.814 69.7758C101.005 69.6478 101.135 69.4605 101.177 69.2512C101.197 69.1376 101.188 69.0215 101.15 68.9116C101.112 68.8017 101.046 68.7009 100.958 68.6168Z" fill="#FF9A6C"/>
<path d="M94.6447 68.7374C94.73 68.8317 94.8538 68.8921 94.9891 68.9053C95.1244 68.9186 95.2601 68.8837 95.3665 68.8083C95.4209 68.7741 95.4671 68.7306 95.5023 68.6804C95.5375 68.6301 95.561 68.574 95.5714 68.5156C95.5818 68.4571 95.5789 68.3973 95.5629 68.3399C95.5469 68.2824 95.5181 68.2284 95.4782 68.181C95.391 68.088 95.2667 68.0287 95.1313 68.0155C94.996 68.0023 94.8602 68.0362 94.7524 68.1101C94.6982 68.1445 94.6524 68.1882 94.6176 68.2386C94.5828 68.289 94.5597 68.3451 94.5496 68.4035C94.5396 68.462 94.5429 68.5217 94.5592 68.579C94.5755 68.6363 94.6046 68.6902 94.6447 68.7374Z" fill="#263238"/>
<path d="M93.0337 67.5359C93.1254 67.5359 93.241 67.1212 93.6717 66.7987C94.1024 66.4762 94.597 66.4443 94.597 66.3557C94.597 66.2671 94.4733 66.2706 94.25 66.2848C93.9559 66.3086 93.6774 66.4125 93.4524 66.5825C93.2294 66.7499 93.0717 66.9757 93.0018 67.2275C92.9539 67.4154 92.9898 67.5323 93.0337 67.5359Z" fill="#263238"/>
<path d="M98.5487 68.7338C98.2647 68.8409 97.9968 68.979 97.7511 69.1449C97.6314 69.2158 97.5078 69.276 97.428 69.2229C97.3216 69.1261 97.2519 69.0022 97.2287 68.8685C97.105 68.553 96.9814 68.227 96.8498 67.8832C96.2994 66.4903 95.8049 65.3775 95.7411 65.4023C95.6773 65.4271 96.0721 66.5683 96.6225 67.9612C96.7581 68.3014 96.891 68.6275 97.0213 68.9393C97.0646 69.1078 97.1715 69.2579 97.3244 69.3646C97.3735 69.3857 97.4273 69.3966 97.4819 69.3966C97.5364 69.3966 97.5903 69.3857 97.6394 69.3646C97.715 69.3335 97.786 69.2942 97.8508 69.2477C98.1076 69.1041 98.3422 68.9314 98.5487 68.7338Z" fill="#263238"/>
<path d="M102.74 73.3058C104.224 72.2314 105.342 70.8117 105.97 69.2052C105.97 69.2052 106.676 71.9519 103.315 74.0217L102.74 73.3058Z" fill="#FF9A6C"/>
<path d="M100.064 68.0533C99.988 68.1029 100.379 68.5176 100.259 69.1166C100.14 69.7155 99.6011 70.0345 99.649 70.0948C99.6969 70.155 99.8364 70.0948 100.048 69.9424C100.323 69.7403 100.51 69.4597 100.578 69.1485C100.64 68.8497 100.57 68.5413 100.383 68.2872C100.239 68.0923 100.092 68.0285 100.064 68.0533Z" fill="#263238"/>
<path d="M92.0042 66.0545C92.1677 66.0934 92.4349 65.7851 92.8457 65.5264C93.2565 65.2677 93.6433 65.1188 93.6672 64.9735C93.6672 64.9026 93.5356 64.8424 93.3163 64.8494C93.0263 64.8689 92.7478 64.9584 92.511 65.1083C92.2741 65.2582 92.0878 65.4629 91.9723 65.7C91.9045 65.8914 91.9324 66.019 92.0042 66.0545Z" fill="#263238"/>
<path d="M99.3541 65.2853C99.4381 65.3802 99.4776 65.5004 99.4642 65.6206C99.4509 65.7409 99.3857 65.8518 99.2823 65.9303C99.233 65.9702 99.1751 66.0009 99.1122 66.0206C99.0493 66.0403 98.9826 66.0486 98.9161 66.0449C98.8495 66.0413 98.7845 66.0258 98.7247 65.9994C98.665 65.9731 98.6119 65.9363 98.5684 65.8913C98.4846 65.7969 98.4452 65.6773 98.4586 65.5577C98.472 65.438 98.5371 65.3277 98.6402 65.2498C98.6893 65.2097 98.7469 65.1788 98.8096 65.1588C98.8724 65.1388 98.939 65.1302 99.0056 65.1335C99.0721 65.1368 99.1373 65.1519 99.1971 65.178C99.257 65.2041 99.3103 65.2406 99.3541 65.2853Z" fill="#263238"/>
<path d="M98.9632 63.3325C98.9632 63.4176 98.4607 63.4282 98.0181 63.7365C97.5754 64.0449 97.4279 64.4454 97.3361 64.4454C97.2444 64.4454 97.2723 64.3178 97.3361 64.1299C97.4236 63.8793 97.5964 63.6589 97.8306 63.4991C98.0589 63.3398 98.3382 63.2492 98.6282 63.2404C98.8476 63.2404 98.9672 63.2935 98.9632 63.3325Z" fill="#263238"/>
<path d="M97.6153 62.2373C97.6153 62.3897 97.1846 62.5315 96.7699 62.8115C96.3551 63.0915 96.064 63.3962 95.9005 63.3573C95.8247 63.336 95.8008 63.212 95.8806 63.0206C95.9971 62.7722 96.1891 62.5575 96.4349 62.4003C96.6745 62.2385 96.9607 62.1402 97.2604 62.1168C97.4877 62.1097 97.6153 62.1558 97.6153 62.2373Z" fill="#263238"/>
<path d="M103.861 63.5735C103.665 63.3679 103.462 62.6839 103.673 62.4783C104.204 61.9396 105.348 61.1599 106.66 62.5315C108.459 64.4064 105.97 65.622 105.914 65.5724C105.859 65.5228 104.531 64.2823 103.861 63.5735Z" fill="#FFBF9D"/>
<path d="M105.839 64.4488C105.839 64.4488 105.899 64.4488 105.987 64.424C106.106 64.3897 106.206 64.3161 106.266 64.2185C106.328 64.0387 106.335 63.8475 106.287 63.6644C106.238 63.4814 106.136 63.313 105.991 63.1765C105.842 63.0117 105.654 62.8785 105.44 62.7866C105.364 62.7429 105.277 62.7162 105.187 62.7088C105.097 62.7014 105.006 62.7135 104.922 62.7441C104.87 62.7668 104.829 62.8046 104.805 62.851C104.781 62.8974 104.776 62.9498 104.79 62.9993C104.814 63.0737 104.862 63.0985 104.854 63.1127C104.846 63.1268 104.778 63.1127 104.722 63.0241C104.689 62.9687 104.679 62.9046 104.695 62.8433C104.704 62.8022 104.723 62.7632 104.75 62.7285C104.776 62.6939 104.81 62.6642 104.85 62.6413C104.951 62.5907 105.065 62.5641 105.181 62.5641C105.297 62.5641 105.411 62.5907 105.512 62.6413C105.758 62.7358 105.974 62.8817 106.142 63.0666C106.489 63.4565 106.613 63.9739 106.381 64.2823C106.338 64.3421 106.279 64.392 106.21 64.4277C106.141 64.4634 106.063 64.484 105.983 64.4878C105.887 64.4914 105.835 64.4595 105.839 64.4488Z" fill="#FF9A6C"/>
<path d="M103.769 62.4287L103.645 63.3218C99.4698 62.8788 90.3573 60.8763 90.8837 61.0075C91.6805 59.9003 92.7776 58.9887 94.0741 58.3564C96.1079 57.4278 100.208 55.9428 101.755 57.8709C103.302 59.7989 103.769 62.4287 103.769 62.4287Z" fill="#263238"/>
<path opacity="0.3" d="M181.766 129.123H156.841V131.14H181.766V129.123Z" fill="black"/>
<path d="M181.766 129.123H156.841V146.241H181.766V129.123Z" fill="#E0E0E0"/>
<path opacity="0.3" d="M181.766 129.123H156.841V131.14H181.766V129.123Z" fill="black"/>
<path d="M180.107 120.217V118.483C180.107 118.178 180.039 117.875 179.908 117.592C179.776 117.31 179.583 117.053 179.34 116.837C179.096 116.621 178.808 116.449 178.49 116.332C178.172 116.215 177.831 116.155 177.487 116.155H163.11C163.11 116.155 158.117 121.046 158.034 121.422C157.95 121.797 155.916 129.141 155.916 129.141H182.747V123.534C182.747 122.999 182.599 122.472 182.317 121.999C182.035 121.527 181.627 121.123 181.128 120.823L180.107 120.217ZM178.017 119.334H171.397L169.025 117.463H176.685C177.043 117.464 177.385 117.59 177.637 117.815C177.89 118.039 178.032 118.343 178.033 118.661L178.017 119.334Z" fill="#96BEA0"/>
<path d="M162.731 151.504C162.73 151.932 162.587 152.349 162.319 152.705C162.051 153.06 161.671 153.336 161.227 153.499C160.782 153.662 160.293 153.705 159.821 153.621C159.35 153.537 158.917 153.331 158.577 153.028C158.237 152.726 158.006 152.341 157.912 151.921C157.819 151.502 157.867 151.067 158.051 150.673C158.236 150.278 158.547 149.94 158.947 149.703C159.347 149.466 159.817 149.339 160.298 149.339C160.618 149.339 160.935 149.395 161.23 149.504C161.526 149.613 161.794 149.772 162.02 149.973C162.246 150.174 162.425 150.413 162.547 150.676C162.669 150.939 162.732 151.22 162.731 151.504Z" fill="#263238"/>
<path d="M179.844 151.504C179.844 151.933 179.701 152.352 179.433 152.708C179.165 153.064 178.784 153.342 178.339 153.505C177.893 153.669 177.403 153.712 176.931 153.628C176.458 153.544 176.024 153.338 175.683 153.034C175.342 152.731 175.111 152.345 175.017 151.925C174.923 151.504 174.972 151.069 175.157 150.673C175.342 150.278 175.655 149.94 176.057 149.702C176.458 149.465 176.929 149.338 177.411 149.339C177.731 149.339 178.048 149.395 178.343 149.504C178.639 149.613 178.907 149.772 179.133 149.973C179.359 150.174 179.538 150.413 179.66 150.676C179.782 150.939 179.845 151.22 179.844 151.504Z" fill="#263238"/>
<path d="M182.588 146.241H155.916V149.739H182.588V146.241Z" fill="#96BEA0"/>
<path d="M131.282 94.4468C131.681 94.904 135.147 100.996 134.501 104.413C133.854 107.83 129.256 111.583 127.573 114.553C125.978 117.409 118.668 125.986 118.401 129.208C118.134 132.43 114.928 142.041 112.224 148.79L111.546 150.42L104.886 149.591C104.886 149.591 107.717 140.326 108.618 136.548C109.52 132.77 108.678 132.079 109.392 129.208C110.106 126.337 112.539 118.863 112.539 118.863L118.521 102.786L117.795 97.2928L131.282 94.4468Z" fill="#263238"/>
<path d="M132.885 95.4711C132.885 95.4711 136.474 99.2314 136.554 103.658C136.634 108.085 134.732 109.201 134.58 112.721C134.428 116.24 132.69 120.443 133.272 124.562C133.854 128.68 136.462 129.523 136.558 134.514C136.654 139.504 135.266 149.343 135.266 149.343L129.443 149.218C129.443 149.218 128.179 137.392 128.275 136.275C128.371 135.159 127.98 133.645 126.532 130.3C125.085 126.954 124.291 126.089 124.387 121.886C124.482 117.682 126.125 100.078 126.125 100.078L126.899 95.4711H132.885Z" fill="#263238"/>
<path d="M126.066 118.434C126.091 118.362 126.124 118.293 126.166 118.228C126.249 118.079 126.353 117.874 126.489 117.654C126.776 117.154 127.198 116.438 127.753 115.57C128.307 114.702 128.989 113.674 129.823 112.575C130.656 111.477 131.765 110.396 132.674 109.113C133.572 107.931 134.272 106.639 134.752 105.278C135.102 104.158 135.237 102.993 135.151 101.833C135.107 101.049 134.905 100.278 134.556 99.5575C134.289 99.0578 134.058 98.8203 134.078 98.8062C134.298 99.018 134.484 99.2567 134.628 99.515C135.011 100.237 135.238 101.016 135.298 101.812C135.405 102.989 135.283 104.173 134.935 105.313C134.464 106.698 133.761 108.013 132.849 109.212C131.928 110.513 130.792 111.572 129.982 112.671C129.173 113.77 128.455 114.776 127.88 115.634C127.306 116.492 126.867 117.2 126.56 117.686L126.202 118.246C126.163 118.312 126.118 118.375 126.066 118.434Z" fill="#455A64"/>
<path d="M129.344 145.128L129.635 150.551C129.635 150.551 123.625 152.642 123.569 153.649L135.246 153.514L135.174 145.047L129.344 145.128Z" fill="#263238"/>
<path d="M133.24 150.051C133.354 150.081 133.451 150.147 133.513 150.237C133.574 150.327 133.597 150.433 133.575 150.537C133.548 150.639 133.478 150.728 133.379 150.785C133.28 150.841 133.16 150.862 133.045 150.842C132.924 150.81 132.821 150.739 132.756 150.643C132.69 150.548 132.667 150.434 132.69 150.324C132.731 150.221 132.817 150.136 132.927 150.087C133.038 150.038 133.166 150.029 133.284 150.062" fill="#E0E0E0"/>
<path d="M135.246 153.514L135.202 152.66L124.036 153.11C124.036 153.11 123.517 153.319 123.581 153.649L135.246 153.514Z" fill="#455A64"/>
<path d="M129.46 150.501C129.46 150.551 129.747 150.572 130.03 150.735C130.313 150.898 130.465 151.111 130.517 151.09C130.568 151.068 130.481 150.771 130.118 150.583C129.755 150.395 129.432 150.452 129.46 150.501Z" fill="white"/>
<path d="M128.228 150.973C128.228 151.022 128.463 151.107 128.662 151.327C128.862 151.547 128.917 151.774 128.973 151.77C129.029 151.767 129.061 151.476 128.81 151.214C128.559 150.952 128.228 150.923 128.228 150.973Z" fill="white"/>
<path d="M127.549 152.302C127.601 152.302 127.677 152.054 127.529 151.774C127.382 151.494 127.13 151.384 127.087 151.419C127.043 151.455 127.23 151.611 127.35 151.841C127.469 152.072 127.493 152.298 127.549 152.302Z" fill="white"/>
<path d="M107.247 144.887L105.332 150.431C105.332 150.431 99.0793 152.603 99.0234 153.652L111.163 153.51V150.991L112.694 145.674L107.247 144.887Z" fill="#263238"/>
<path d="M111.163 153.51V152.671L99.498 153.089C99.498 153.089 98.9596 153.308 99.0274 153.652L111.163 153.51Z" fill="#455A64"/>
<path d="M105.293 150.466C105.293 150.519 105.592 150.54 105.883 150.707C106.174 150.874 106.337 151.1 106.393 151.061C106.449 151.022 106.353 150.728 105.994 150.53C105.635 150.331 105.277 150.406 105.293 150.466Z" fill="white"/>
<path d="M103.913 150.969C103.913 151.019 104.156 151.108 104.359 151.324C104.563 151.54 104.626 151.788 104.686 151.784C104.746 151.781 104.778 151.48 104.519 151.203C104.26 150.927 103.913 150.916 103.913 150.969Z" fill="white"/>
<path d="M103.139 152.376C103.19 152.376 103.27 152.118 103.115 151.827C102.959 151.536 102.676 151.423 102.652 151.473C102.628 151.522 102.804 151.675 102.927 151.912C103.051 152.15 103.071 152.369 103.139 152.376Z" fill="white"/>
<path d="M134.835 111.034C134.843 111.166 134.837 111.299 134.815 111.431C134.787 111.686 134.739 112.051 134.675 112.494C134.544 113.398 134.332 114.638 134.081 116.006L133.447 119.515L133.244 120.578C133.225 120.709 133.192 120.839 133.144 120.964C133.124 120.833 133.124 120.699 133.144 120.567C133.168 120.312 133.216 119.947 133.28 119.504C133.411 118.6 133.623 117.36 133.874 115.992C134.125 114.624 134.356 113.429 134.532 112.49L134.735 111.427C134.748 111.292 134.782 111.16 134.835 111.034Z" fill="#455A64"/>
<path d="M110.564 69.634C110.564 69.634 115.146 69.7155 118.357 72.5651C121.567 75.4146 129.272 86.6567 129.404 88.3685C129.486 89.3714 129.486 90.3782 129.404 91.3811L133.754 95.4711C133.754 95.4711 130.636 97.0943 127.154 97.0943C123.673 97.0943 116.981 95.4711 116.981 95.4711L115.146 92.0438L106.074 86.1782C106.074 86.1782 103.139 78.7674 104.148 76.2545C105.157 73.7417 110.564 69.634 110.564 69.634Z" fill="#455A64"/>
<path d="M156.725 141.907H152.825V145.72H156.725V141.907Z" fill="#263238"/>
<path d="M110.564 69.634L109.081 69.0315L104.395 74.4257L104.475 76.5132L110.564 69.634Z" fill="#455A64"/>
<path d="M110.086 69.3115C109.968 69.6084 109.813 69.8926 109.624 70.1586C109.205 70.8195 108.749 71.4607 108.256 72.0795C107.759 72.701 107.226 73.2996 106.66 73.8729C106.445 74.1245 106.201 74.355 105.931 74.5604C106.114 74.292 106.324 74.0382 106.557 73.802C106.956 73.3448 107.502 72.7104 108.076 71.9874C108.65 71.2644 109.137 70.5981 109.488 70.109C109.665 69.8302 109.865 69.5637 110.086 69.3115Z" fill="#263238"/>
<path d="M114.549 94.4468C114.421 94.904 116.634 102.145 116.634 102.145L109.915 126.954C109.915 126.954 113.647 130.041 123.175 129.013C123.175 129.013 129.097 108.418 129.352 103.141C129.607 97.8634 128.838 94.4468 128.838 94.4468L127.294 91.5725C127.294 91.5725 119.442 91.5725 115.709 90.3143C111.976 89.0561 108.132 86.196 108.132 86.196L104.252 78.1046L104.096 79.3734L104.395 85.4233L114.549 94.4468Z" fill="#96BEA0"/>
<path d="M127.294 91.5867L129.404 91.3811L130.472 92.3841L128.554 94.4468L127.294 91.5867Z" fill="#96BEA0"/>
<path d="M129.551 92.2565C129.551 92.2565 129.551 92.2033 129.587 92.1041C129.629 91.9611 129.68 91.8203 129.739 91.6823C129.948 91.1714 130.215 90.6809 130.536 90.2186C131.023 89.5334 131.62 88.9149 132.307 88.3827C132.712 88.0668 133.148 87.7844 133.611 87.5392C133.855 87.3951 134.125 87.2896 134.409 87.2273C134.567 87.196 134.731 87.198 134.888 87.2331C135.045 87.2681 135.191 87.3353 135.314 87.4293C135.427 87.5363 135.505 87.6691 135.539 87.8129C135.573 87.9568 135.561 88.1061 135.505 88.2445C135.402 88.4935 135.237 88.7188 135.023 88.9037C134.651 89.2474 134.26 89.5739 133.85 89.8819C133.156 90.4044 132.408 90.8683 131.617 91.2676C131.087 91.5363 130.536 91.7731 129.97 91.9765C129.771 92.0509 129.611 92.1005 129.504 92.1324C129.448 92.1504 129.39 92.1634 129.332 92.1714C129.528 92.0749 129.731 91.9885 129.938 91.9127C130.484 91.685 131.016 91.433 131.533 91.1578C132.303 90.7475 133.032 90.2791 133.711 89.7578C134.112 89.4507 134.496 89.1254 134.859 88.7832C135.054 88.62 135.203 88.4185 135.294 88.1948C135.339 88.0893 135.349 87.9749 135.325 87.8643C135.302 87.7536 135.244 87.6509 135.158 87.5675C135.059 87.4944 134.943 87.4423 134.818 87.4153C134.693 87.3883 134.562 87.387 134.437 87.4116C134.173 87.4692 133.922 87.5662 133.695 87.6987C133.241 87.9374 132.812 88.2101 132.411 88.5138C131.268 89.3817 130.369 90.4737 129.783 91.7036C129.643 92.058 129.567 92.26 129.551 92.2565Z" fill="#96BEA0"/>
<path d="M129.687 92.3663C129.687 92.3663 129.639 92.3167 129.567 92.2139C129.496 92.1111 129.396 91.9587 129.276 91.7567C128.933 91.1844 128.633 90.5924 128.379 89.9846C128.002 89.0838 127.72 88.1535 127.538 87.206C127.428 86.6396 127.428 86.0606 127.538 85.4942C127.598 85.1891 127.719 84.8962 127.896 84.6294C128.082 84.3405 128.377 84.1204 128.73 84.0092C128.916 83.9633 129.112 83.9643 129.297 84.0118C129.482 84.0594 129.649 84.1517 129.779 84.2785C130.012 84.5132 130.183 84.7919 130.277 85.0937C130.443 85.6448 130.551 86.2084 130.6 86.7772C130.688 87.7373 130.624 88.7037 130.409 89.6479C130.264 90.2834 130.047 90.9043 129.763 91.5015C129.663 91.7106 129.575 91.856 129.512 91.9765C129.448 92.097 129.416 92.1395 129.408 92.136C129.4 92.1324 129.512 91.902 129.691 91.4732C129.941 90.872 130.133 90.2531 130.265 89.6231C130.456 88.688 130.504 87.7343 130.409 86.7878C130.356 86.2335 130.247 85.6844 130.086 85.1468C129.999 84.8716 129.844 84.6172 129.631 84.4026C129.528 84.3004 129.394 84.2258 129.245 84.187C129.097 84.1482 128.939 84.1467 128.79 84.1828C128.486 84.2804 128.231 84.4715 128.072 84.7215C127.907 84.9699 127.794 85.2423 127.737 85.5261C127.631 86.0726 127.631 86.6311 127.737 87.1777C127.91 88.1161 128.177 89.0389 128.535 89.935C128.775 90.5386 129.052 91.1301 129.364 91.7071C129.567 92.136 129.699 92.3592 129.687 92.3663Z" fill="#96BEA0"/>
<path d="M122.592 93.8761C121.272 94.0778 119.941 94.2197 118.604 94.3014C117.27 94.4427 115.928 94.5243 114.584 94.546C117.241 94.1978 119.917 93.9742 122.6 93.8761H122.592Z" fill="#263238"/>
<path d="M182.5 129.141C182.5 129.19 176.57 129.233 169.26 129.233C161.95 129.233 156.016 129.19 156.016 129.141C156.016 129.091 161.946 129.049 169.26 129.049C176.574 129.049 182.5 129.07 182.5 129.141Z" fill="#263238"/>
<path d="M178.217 119.334C178.217 119.384 175.026 119.426 171.082 119.426C167.138 119.426 163.952 119.384 163.952 119.334C163.952 119.284 167.142 119.242 171.082 119.242C175.022 119.242 178.217 119.284 178.217 119.334Z" fill="#263238"/>
<path opacity="0.3" d="M158.033 121.422C158.033 121.422 174.125 127.51 173.893 127.51H156.179L158.033 121.422Z" fill="black"/>
<path d="M103.582 84.3919C103.514 84.4096 102.314 95.4604 102.314 95.4604L98.4653 105.313L101.488 108.815C101.488 108.815 106.904 99.9544 107.59 96.6051C108.276 93.2559 110.932 83.357 110.932 83.357L106.992 81.2943L103.582 84.3919Z" fill="#FFBF9D"/>
<path d="M107.721 74.2485C107.362 74.2982 104.423 75.0637 103.936 77.0839C103.45 79.1041 102.963 84.5763 102.963 84.5763C102.963 84.5763 110.289 83.7221 110.939 84.3317C111.589 84.9413 112.223 78.1259 112.223 78.1259C112.223 78.1259 110.21 73.9083 107.721 74.2485Z" fill="#455A64"/>
<path d="M98.4651 104.158C98.4651 104.484 93.4243 115.17 93.3325 116.066C93.2408 116.963 91.1312 119.812 92.0484 120.628C92.9657 121.443 94.5928 117.612 94.5928 117.612C94.5928 117.612 94.9916 118.753 96.1879 118.508C97.3843 118.264 97.0135 117.53 97.0135 117.53C97.7946 117.187 98.5181 116.75 99.163 116.229C100.132 115.414 100.3 112.175 100.3 111.71C100.3 111.246 103.283 106.288 103.283 106.288C100.97 106.54 99.9726 106.033 98.4651 104.158Z" fill="#455A64"/>
<path d="M96.3154 115.729C96.3473 115.729 96.3633 115.861 96.3792 116.059C96.3913 116.315 96.4382 116.568 96.5188 116.814C96.6045 117.05 96.7686 117.258 96.9894 117.409C97.1649 117.519 97.3044 117.548 97.2965 117.576C97.2885 117.604 97.1369 117.619 96.8977 117.519C96.6154 117.378 96.4033 117.148 96.3035 116.874C96.2125 116.611 96.1826 116.333 96.2157 116.059C96.2556 115.854 96.2875 115.729 96.3154 115.729Z" fill="#263238"/>
<path d="M98.5489 115.811C98.5768 115.811 98.5888 115.864 98.5808 115.935C98.5764 115.975 98.5671 116.014 98.5529 116.052V116.116C98.5529 116.158 98.5529 116.134 98.5529 116.116L98.6127 116.155C98.6511 116.175 98.6859 116.2 98.7164 116.229C98.7722 116.282 98.7961 116.325 98.7802 116.343C98.7642 116.36 98.7124 116.36 98.6406 116.343L98.521 116.3L98.4452 116.272C98.4213 116.251 98.3814 116.251 98.3415 116.173C98.323 116.13 98.323 116.084 98.3415 116.041L98.3774 115.978C98.3952 115.943 98.4165 115.91 98.4412 115.878C98.4851 115.836 98.521 115.804 98.5489 115.811Z" fill="#263238"/>
<path d="M112.85 75.2905C112.54 74.9619 112.188 74.6668 111.801 74.4116C110.834 73.8344 109.659 73.5982 108.507 73.7488C107.358 73.9285 106.293 74.3999 105.44 75.1062C104.778 75.645 104.463 76.0632 104.435 76.0419C104.484 75.9322 104.552 75.8304 104.638 75.7407C104.845 75.4787 105.08 75.2353 105.34 75.0141C106.19 74.253 107.286 73.7473 108.475 73.5681C109.678 73.4073 110.903 73.6719 111.889 74.3053C112.182 74.4944 112.439 74.7242 112.65 74.9857C112.734 75.0779 112.801 75.1807 112.85 75.2905Z" fill="#263238"/>
<path d="M112.311 79.1678C112.375 79.3886 112.398 79.6174 112.379 79.8448C112.381 80.3918 112.334 80.9382 112.239 81.4786C112.146 82.0197 112.003 82.5531 111.812 83.0735C111.75 83.2947 111.651 83.5062 111.517 83.7008C111.457 83.6796 111.82 82.7014 112.036 81.4503C112.251 80.1992 112.259 79.1678 112.311 79.1678Z" fill="#263238"/>
<path d="M114.883 96.0878C114.883 96.0878 110.544 102.315 109.95 103.137C109.356 103.959 108.754 105.189 109.95 105.43C111.147 105.671 111.147 104.608 111.669 103.658C112.191 102.708 113.823 102.896 114.732 102.014C115.286 101.471 115.773 100.877 116.183 100.242C116.183 100.242 114.836 95.8255 114.883 96.0878Z" fill="#455A64"/>
</svg>
