<svg width="1042" height="689" viewBox="0 0 1042 689" fill="none" xmlns="http://www.w3.org/2000/svg">
<path d="M234.218 673.44C162.867 697.605 110.704 686.973 93.5436 678.636C18.6752 657.897 -6.50161 606.995 2.50126 545.452C13.758 468.522 86.5606 396.331 146.556 372.819C206.551 349.308 213.582 215.745 339.015 195.508C464.448 175.271 490.557 223.287 607.67 70.756C724.783 -81.7704 1060.63 46.2429 1040.43 161.474C1020.22 276.706 820.202 248.512 844.073 349.635C867.944 450.757 715.657 509.758 659.353 517.135C603.049 524.516 518.086 534.538 460.26 539.801C402.434 545.065 323.407 643.232 234.218 673.44Z" fill="#3587F2" fill-opacity="0.1"/>
</svg>
