<svg width="495" height="356" viewBox="0 0 495 356" fill="none" xmlns="http://www.w3.org/2000/svg">
<path opacity="0.5" d="M181.758 312.099L227.795 321.489L340.429 264.512L259.661 228.032L181.758 312.099Z" fill="#3B4972"/>
<path opacity="0.5" d="M330.077 222.719L391.116 238.874L475.409 196.231L386.654 150.604L330.077 222.719Z" fill="#3B4972"/>
<path d="M40.1658 197.561L26.2172 221.453L96.5137 290.348L155.716 280.807L127.341 241.8L40.1658 197.561Z" fill="#9DB1C4"/>
<path d="M406.304 118.202L395.007 191.917C394.724 193.788 393.449 195.517 391.255 196.643L402.552 122.928C404.742 121.795 406.016 120.073 406.304 118.202Z" fill="#9DB1C4"/>
<mask id="mask0_215_14" style="mask-type:luminance" maskUnits="userSpaceOnUse" x="391" y="118" width="16" height="79">
<path d="M406.301 118.202L395.003 191.916C394.721 193.788 393.445 195.516 391.252 196.642L402.549 122.928C404.738 121.794 406.013 120.073 406.301 118.202Z" fill="white"/>
</mask>
<g mask="url(#mask0_215_14)">
<path d="M406.299 118.202L395.002 191.916C394.996 191.951 394.99 191.993 394.985 192.028L406.282 118.314C406.288 118.279 406.294 118.237 406.299 118.202Z" fill="#9DB1C4"/>
<path d="M406.276 118.312L394.978 192.027C394.936 192.27 394.877 192.511 394.8 192.75L406.098 119.035C406.174 118.797 406.233 118.556 406.276 118.312Z" fill="#9DB1C4"/>
<path d="M406.1 119.036L394.802 192.75C394.727 192.982 394.634 193.218 394.531 193.445L405.828 119.731C405.937 119.504 406.029 119.275 406.1 119.036Z" fill="#9DB1C4"/>
<path d="M405.829 119.724L394.531 193.438C394.422 193.671 394.296 193.895 394.147 194.123L405.445 120.408C405.587 120.187 405.713 119.956 405.829 119.724Z" fill="#9DB1C4"/>
<path d="M405.445 120.408L394.147 194.123C393.99 194.363 393.818 194.594 393.623 194.822L404.921 121.108C405.115 120.88 405.293 120.65 405.445 120.408Z" fill="#9DB1C4"/>
<path d="M404.923 121.108L393.626 194.822C393.396 195.088 393.147 195.336 392.864 195.579L404.161 121.864C404.443 121.628 404.694 121.373 404.923 121.108Z" fill="#9DB1C4"/>
<path d="M404.158 121.857L392.861 195.571C392.433 195.935 391.94 196.275 391.386 196.57L402.683 122.855C403.238 122.56 403.725 122.22 404.158 121.857Z" fill="#9DB1C4"/>
<path d="M402.686 122.856L391.388 196.57C391.345 196.592 391.295 196.62 391.251 196.642L402.549 122.928C402.592 122.906 402.642 122.878 402.686 122.856Z" fill="#9DB1C4"/>
</g>
<path d="M290.866 182.056L302.164 108.341C301.877 110.241 302.594 112.291 304.387 114.048L293.089 187.762C291.295 186.013 290.574 183.954 290.866 182.056Z" fill="#D1DEE8"/>
<mask id="mask1_215_14" style="mask-type:luminance" maskUnits="userSpaceOnUse" x="290" y="108" width="15" height="80">
<path d="M290.866 182.056L302.164 108.341C301.877 110.241 302.594 112.292 304.387 114.048L293.089 187.762C291.295 186.013 290.574 183.954 290.866 182.056Z" fill="white"/>
</mask>
<g mask="url(#mask1_215_14)">
<path d="M304.387 114.048L293.089 187.762C291.295 186.013 290.574 183.954 290.866 182.056L302.164 108.341C301.877 110.241 302.594 112.292 304.387 114.048Z" fill="#D1DEE8"/>
</g>
<path d="M402.552 122.928L391.254 196.643L341 222.604L352.298 148.89L402.552 122.928Z" fill="#9DB1C4"/>
<path d="M337.848 146.709L326.55 220.423L293.09 187.762L304.388 114.048L337.848 146.709Z" fill="#D1DEE8"/>
<path d="M352.297 148.89L341 222.604C336.586 224.88 330.117 223.904 326.549 220.423L337.846 146.708C341.415 150.19 347.889 151.167 352.297 148.89Z" fill="#D1DEE8"/>
<mask id="mask2_215_14" style="mask-type:luminance" maskUnits="userSpaceOnUse" x="326" y="146" width="27" height="78">
<path d="M352.294 148.889L340.997 222.603C336.583 224.88 330.114 223.903 326.546 220.422L337.843 146.708C341.411 150.189 347.886 151.166 352.294 148.889Z" fill="white"/>
</mask>
<g mask="url(#mask2_215_14)">
<path d="M352.292 148.889L340.995 222.603C340.236 222.996 339.424 223.287 338.567 223.494L349.865 149.779C350.715 149.579 351.534 149.281 352.292 148.889Z" fill="#D1DEE8"/>
<path d="M349.873 149.78L338.575 223.495C337.915 223.652 337.24 223.757 336.55 223.803L347.848 150.089C348.537 150.043 349.218 149.939 349.873 149.78Z" fill="#D1DEE8"/>
<path d="M347.846 150.089L336.548 223.803C336.107 223.836 335.658 223.847 335.208 223.829L346.506 150.115C346.951 150.125 347.4 150.114 347.846 150.089Z" fill="#D1DEE8"/>
<path d="M346.507 150.115L335.21 223.83C334.827 223.822 334.447 223.793 334.064 223.749L345.361 150.035C345.745 150.079 346.125 150.101 346.507 150.115Z" fill="#D1DEE8"/>
<path d="M345.362 150.036L334.065 223.75C333.715 223.711 333.368 223.659 333.017 223.592L344.314 149.877C344.66 149.944 345.014 149.99 345.362 150.036Z" fill="#D1DEE8"/>
<path d="M344.312 149.884L333.015 223.598C332.679 223.54 332.347 223.462 332.016 223.376L343.314 149.662C343.645 149.748 343.978 149.819 344.312 149.884Z" fill="#D1DEE8"/>
<path d="M343.318 149.67L332.021 223.384C331.695 223.299 331.366 223.199 331.05 223.095L342.347 149.38C342.67 149.486 342.993 149.585 343.318 149.67Z" fill="#D1DEE8"/>
<path d="M342.339 149.379L331.041 223.093C330.709 222.979 330.383 222.858 330.059 222.724L341.357 149.01C341.675 149.143 342.005 149.272 342.339 149.379Z" fill="#D1DEE8"/>
<path d="M341.369 149.004L330.072 222.719C329.721 222.573 329.385 222.408 329.056 222.23L340.354 148.515C340.682 148.694 341.025 148.852 341.369 149.004Z" fill="#D1DEE8"/>
<path d="M340.35 148.522L329.052 222.236C328.65 222.018 328.261 221.781 327.893 221.526L339.19 147.811C339.559 148.067 339.947 148.304 340.35 148.522Z" fill="#D1DEE8"/>
<path d="M339.185 147.81L327.887 221.525C327.405 221.188 326.956 220.82 326.546 220.422L337.843 146.708C338.252 147.113 338.701 147.48 339.185 147.81Z" fill="#D1DEE8"/>
</g>
<path d="M404.072 112.495C407.64 115.976 406.958 120.651 402.549 122.928L352.295 148.889C347.881 151.166 341.412 150.189 337.844 146.708L304.384 114.047C300.816 110.566 301.498 105.898 305.907 103.614L356.135 77.6347C360.545 75.3506 367.019 76.3278 370.592 79.8166L404.077 112.503L404.072 112.495Z" fill="#F0F7FC"/>
<path d="M368.543 98.3905L365.597 117.608C365.523 118.097 365.191 118.546 364.62 118.839L367.566 99.6215C368.138 99.3292 368.469 98.8794 368.543 98.3905Z" fill="#344E56"/>
<mask id="mask3_215_14" style="mask-type:luminance" maskUnits="userSpaceOnUse" x="364" y="98" width="5" height="21">
<path d="M368.546 98.391L365.6 117.608C365.526 118.097 365.195 118.547 364.623 118.839L367.569 99.622C368.141 99.3297 368.473 98.8798 368.546 98.391Z" fill="white"/>
</mask>
<g mask="url(#mask3_215_14)">
<path d="M368.548 98.3912L365.602 117.608C365.602 117.608 365.599 117.629 365.598 117.636L368.544 98.4191C368.544 98.4191 368.547 98.3982 368.548 98.3912Z" fill="#344E56"/>
<path d="M368.541 98.4187L365.594 117.636C365.585 117.699 365.57 117.761 365.549 117.822L368.495 98.6047C368.516 98.5435 368.531 98.4815 368.541 98.4187Z" fill="#344E56"/>
<path d="M368.497 98.6048L365.55 117.822C365.53 117.883 365.509 117.944 365.477 118.004L368.423 98.7866C368.45 98.7263 368.476 98.666 368.497 98.6048Z" fill="#344E56"/>
<path d="M368.426 98.7869L365.48 118.004C365.453 118.064 365.416 118.123 365.378 118.182L368.324 98.9644C368.362 98.9058 368.394 98.8463 368.426 98.7869Z" fill="#344E56"/>
<path d="M368.323 98.9644L365.377 118.182C365.339 118.247 365.29 118.304 365.241 118.361L368.187 99.1438C368.236 99.0869 368.286 99.023 368.323 98.9644Z" fill="#344E56"/>
<path d="M368.185 99.1505L365.238 118.368C365.176 118.437 365.115 118.499 365.042 118.567L367.988 99.3494C368.061 99.2889 368.128 99.2205 368.185 99.1505Z" fill="#344E56"/>
<path d="M367.99 99.3424L365.044 118.56C364.932 118.657 364.804 118.745 364.66 118.823L367.607 99.6059C367.75 99.5276 367.878 99.4397 367.99 99.3424Z" fill="#344E56"/>
<path d="M367.607 99.6062L364.66 118.823C364.66 118.823 364.636 118.834 364.623 118.839L367.57 99.6221C367.57 99.6221 367.594 99.6115 367.607 99.6062Z" fill="#344E56"/>
</g>
<path d="M338.449 115.039L341.396 95.8217C341.321 96.3174 341.509 96.853 341.974 97.3087L339.028 116.526C338.558 116.069 338.375 115.535 338.449 115.039Z" fill="#587D8C"/>
<mask id="mask4_215_14" style="mask-type:luminance" maskUnits="userSpaceOnUse" x="338" y="95" width="4" height="22">
<path d="M338.449 115.039L341.396 95.8215C341.321 96.3173 341.509 96.8528 341.974 97.3086L339.028 116.526C338.558 116.069 338.375 115.535 338.449 115.039Z" fill="white"/>
</mask>
<g mask="url(#mask4_215_14)">
<path d="M341.974 97.3086L339.028 116.526C338.558 116.069 338.375 115.535 338.449 115.039L341.396 95.8215C341.321 96.3173 341.509 96.8528 341.974 97.3086Z" fill="#587D8C"/>
</g>
<path d="M367.566 99.6218L364.619 118.846L351.518 125.611L354.464 106.393L367.566 99.6218Z" fill="#344E56"/>
<path d="M350.699 105.825L347.753 125.042L339.028 116.526L341.975 97.3087L350.699 105.825Z" fill="#587D8C"/>
<path d="M354.466 106.393L351.52 125.611C350.369 126.208 348.682 125.954 347.753 125.042L350.699 105.825C351.628 106.736 353.315 106.991 354.466 106.393Z" fill="#344E56"/>
<mask id="mask5_215_14" style="mask-type:luminance" maskUnits="userSpaceOnUse" x="347" y="105" width="8" height="21">
<path d="M354.463 106.393L351.517 125.61C350.366 126.208 348.678 125.953 347.75 125.042L350.696 105.825C351.625 106.736 353.312 106.991 354.463 106.393Z" fill="white"/>
</mask>
<g mask="url(#mask5_215_14)">
<path d="M354.47 106.394L351.524 125.611C351.325 125.71 351.112 125.792 350.892 125.845L353.838 106.627C354.058 106.575 354.27 106.5 354.47 106.394Z" fill="#344E56"/>
<path d="M353.836 106.627L350.89 125.844C350.718 125.882 350.541 125.913 350.362 125.922L353.309 106.704C353.489 106.689 353.664 106.665 353.836 106.627Z" fill="#344E56"/>
<path d="M353.308 106.705L350.362 125.922C350.246 125.933 350.131 125.93 350.012 125.926L352.958 106.709C353.072 106.712 353.193 106.709 353.308 106.705Z" fill="#344E56"/>
<path d="M352.956 106.709L350.01 125.926C349.913 125.926 349.811 125.917 349.709 125.909L352.655 106.692C352.756 106.707 352.853 106.707 352.956 106.709Z" fill="#344E56"/>
<path d="M352.658 106.692L349.712 125.91C349.622 125.896 349.532 125.882 349.437 125.868L352.383 106.651C352.473 106.664 352.563 106.678 352.658 106.692Z" fill="#344E56"/>
<path d="M352.389 106.651L349.442 125.869C349.352 125.855 349.269 125.835 349.181 125.815L352.127 106.598C352.216 106.618 352.299 106.638 352.387 106.658L352.389 106.651Z" fill="#344E56"/>
<path d="M352.126 106.598L349.18 125.815C349.092 125.794 349.01 125.768 348.928 125.741L351.874 106.524C351.956 106.55 352.043 106.578 352.126 106.598Z" fill="#344E56"/>
<path d="M351.876 106.524L348.93 125.741C348.842 125.714 348.755 125.679 348.674 125.645L351.621 106.428C351.707 106.463 351.788 106.496 351.876 106.524Z" fill="#344E56"/>
<path d="M351.617 106.421L348.671 125.638C348.579 125.603 348.494 125.554 348.403 125.512L351.349 106.295C351.434 106.343 351.525 106.385 351.617 106.421Z" fill="#344E56"/>
<path d="M351.352 106.295L348.406 125.512C348.3 125.454 348.2 125.396 348.101 125.331L351.047 106.114C351.146 106.178 351.245 106.243 351.352 106.295Z" fill="#344E56"/>
<path d="M351.048 106.113L348.102 125.331C347.978 125.241 347.859 125.151 347.75 125.042L350.696 105.825C350.801 105.926 350.918 106.022 351.048 106.113Z" fill="#344E56"/>
</g>
<path d="M367.966 96.9037C368.895 97.8152 368.717 99.0311 367.567 99.6217L354.466 106.386C353.315 106.984 351.628 106.729 350.699 105.818L341.974 97.3018C341.045 96.3972 341.223 95.1744 342.373 94.5837L355.469 87.8114C356.62 87.2137 358.308 87.4684 359.236 88.3799L367.966 96.9037Z" fill="#739FAD"/>
<path d="M330.822 139.849L327.845 159.575L255.649 197.623L256.883 179.497L330.822 139.849Z" fill="#9DB1C4"/>
<path d="M247.628 90.7331L228.404 216.166C227.917 219.356 225.749 222.286 222.025 224.209L241.248 98.7763C244.98 96.8469 247.142 93.9165 247.628 90.7331Z" fill="#9DB1C4"/>
<mask id="mask6_215_14" style="mask-type:luminance" maskUnits="userSpaceOnUse" x="222" y="90" width="26" height="135">
<path d="M247.621 90.7321L228.398 216.165C227.91 219.355 225.743 222.285 222.018 224.208L241.242 98.7753C244.973 96.8459 247.135 93.9155 247.621 90.7321Z" fill="white"/>
</mask>
<g mask="url(#mask6_215_14)">
<path d="M247.624 90.7325L228.4 216.165C228.391 216.228 228.381 216.291 228.372 216.354L247.596 90.921C247.605 90.8581 247.615 90.7953 247.624 90.7325Z" fill="#9DB1C4"/>
<path d="M247.59 90.9201L228.366 216.353C228.293 216.763 228.196 217.177 228.067 217.579L247.29 92.1461C247.42 91.7443 247.522 91.3312 247.59 90.9201Z" fill="#9DB1C4"/>
<path d="M247.292 92.1467L228.068 217.58C227.939 217.981 227.788 218.373 227.604 218.759L246.828 93.3264C247.012 92.94 247.163 92.5485 247.292 92.1467Z" fill="#9DB1C4"/>
<path d="M246.823 93.3255L227.599 218.759C227.414 219.152 227.195 219.54 226.948 219.917L246.172 94.4843C246.418 94.1072 246.632 93.7181 246.823 93.3255Z" fill="#9DB1C4"/>
<path d="M246.178 94.4853L226.955 219.918C226.692 220.329 226.391 220.726 226.059 221.104L245.283 95.6714C245.616 95.286 245.911 94.8878 246.178 94.4853Z" fill="#9DB1C4"/>
<path d="M245.281 95.6781L226.057 221.111C225.668 221.559 225.237 221.987 224.763 222.394L243.986 96.9611C244.461 96.5541 244.898 96.1273 245.281 95.6781Z" fill="#9DB1C4"/>
<path d="M243.986 96.9541L224.762 222.387C224.031 223.012 223.195 223.579 222.252 224.087L241.476 98.6536C242.419 98.1459 243.255 97.5794 243.986 96.9541Z" fill="#9DB1C4"/>
<path d="M241.478 98.6539L222.254 224.087C222.178 224.133 222.098 224.17 222.018 224.208L241.242 98.7754C241.322 98.7375 241.398 98.6918 241.478 98.6539Z" fill="#9DB1C4"/>
</g>
<path d="M51.2016 199.391L70.4253 73.9584C69.9317 77.1907 71.1535 80.6818 74.2064 83.6637L54.9826 209.097C51.9297 206.115 50.7024 202.623 51.2016 199.391Z" fill="#D1DEE8"/>
<mask id="mask7_215_14" style="mask-type:luminance" maskUnits="userSpaceOnUse" x="51" y="73" width="24" height="137">
<path d="M51.2018 199.391L70.4256 73.9583C69.932 77.1905 71.1537 80.6817 74.2066 83.6636L54.9829 209.096C51.9299 206.115 50.7026 202.623 51.2018 199.391Z" fill="white"/>
</mask>
<g mask="url(#mask7_215_14)">
<path d="M74.2201 83.6653L54.9963 209.098C51.9434 206.116 50.7161 202.624 51.2152 199.393L70.439 73.96C69.9454 77.1923 71.1672 80.6834 74.2201 83.6653Z" fill="#D1DEE8"/>
</g>
<path d="M241.248 98.7834L222.025 224.209L136.515 268.382L155.739 142.949L241.248 98.7834Z" fill="#9DB1C4"/>
<path d="M131.145 139.237L111.921 264.67L54.9906 209.098L74.2144 83.6649L131.145 139.237Z" fill="#D1DEE8"/>
<path d="M155.732 142.948L136.509 268.381C128.997 272.261 117.988 270.599 111.917 264.669L131.141 139.236C137.212 145.166 148.221 146.828 155.732 142.948Z" fill="#D1DEE8"/>
<mask id="mask8_215_14" style="mask-type:luminance" maskUnits="userSpaceOnUse" x="111" y="139" width="45" height="132">
<path d="M155.739 142.949L136.516 268.382C129.004 272.262 117.995 270.6 111.924 264.67L131.148 139.237C137.219 145.167 148.228 146.829 155.739 142.949Z" fill="white"/>
</mask>
<g mask="url(#mask8_215_14)">
<path d="M155.739 142.949L136.516 268.382C135.229 269.045 133.84 269.549 132.389 269.895L151.613 144.462C153.064 144.116 154.453 143.612 155.739 142.949Z" fill="#D1DEE8"/>
<path d="M151.615 144.462L132.391 269.895C131.273 270.161 130.117 270.337 128.947 270.417L148.171 144.984C149.341 144.904 150.497 144.728 151.615 144.462Z" fill="#D1DEE8"/>
<path d="M148.169 144.985L128.945 270.418C128.192 270.468 127.432 270.489 126.667 270.467L145.891 145.034C146.65 145.055 147.416 145.035 148.169 144.985Z" fill="#D1DEE8"/>
<path d="M145.889 145.041L126.666 270.474C126.015 270.454 125.362 270.412 124.713 270.343L143.937 144.91C144.586 144.98 145.239 145.021 145.889 145.041Z" fill="#D1DEE8"/>
<path d="M143.939 144.903L124.715 270.336C124.116 270.274 123.522 270.185 122.931 270.074L142.155 144.641C142.746 144.752 143.341 144.834 143.939 144.903Z" fill="#D1DEE8"/>
<path d="M142.158 144.649L122.934 270.082C122.366 269.975 121.799 269.853 121.236 269.711L140.459 144.278C141.017 144.42 141.583 144.548 142.158 144.649Z" fill="#D1DEE8"/>
<path d="M140.461 144.278L121.237 269.711C120.68 269.57 120.126 269.401 119.58 269.218L138.804 143.786C139.35 143.968 139.899 144.129 140.461 144.278Z" fill="#D1DEE8"/>
<path d="M138.81 143.786L119.586 269.219C119.019 269.026 118.466 268.814 117.915 268.589L137.139 143.156C137.683 143.388 138.241 143.601 138.81 143.786Z" fill="#D1DEE8"/>
<path d="M137.141 143.149L117.917 268.582C117.325 268.328 116.747 268.055 116.184 267.756L135.408 142.323C135.971 142.622 136.547 142.902 137.141 143.149Z" fill="#D1DEE8"/>
<path d="M135.411 142.323L116.187 267.756C115.503 267.389 114.841 266.989 114.207 266.551L133.431 141.118C134.059 141.555 134.721 141.955 135.411 142.323Z" fill="#D1DEE8"/>
<path d="M133.433 141.118L114.209 266.551C113.389 265.984 112.624 265.354 111.924 264.67L131.148 139.237C131.847 139.921 132.613 140.544 133.433 141.118Z" fill="#D1DEE8"/>
</g>
<path d="M243.835 81.0258C249.906 86.9557 248.747 94.9013 241.241 98.7821L155.731 142.955C148.22 146.835 137.211 145.173 131.14 139.244L74.2036 83.6702C68.1373 77.7481 69.2907 69.8017 76.7964 65.9209L162.26 21.7124C169.766 17.8315 180.782 19.487 186.857 25.4248L243.833 81.0398L243.835 81.0258Z" fill="#F0F7FC"/>
<path d="M226.719 80.9279C231.416 85.5149 230.516 91.6641 224.709 94.6656L158.556 128.833C152.748 131.835 144.228 130.549 139.531 125.962L95.4876 82.9687C90.7897 78.3887 91.6891 72.2395 97.4913 69.2371L163.609 35.0357C169.416 32.0342 177.938 33.3132 182.639 37.908L226.718 80.9349L226.719 80.9279Z" fill="#587D8C"/>
<path d="M266.96 193.339L254.168 276.805C253.847 278.927 252.401 280.873 249.92 282.156L262.713 198.69C265.194 197.407 266.634 195.46 266.96 193.339Z" fill="#9DB1C4"/>
<mask id="mask9_215_14" style="mask-type:luminance" maskUnits="userSpaceOnUse" x="249" y="193" width="18" height="90">
<path d="M266.964 193.339L254.171 276.805C253.851 278.928 252.405 280.873 249.924 282.156L262.716 198.69C265.197 197.407 266.638 195.461 266.964 193.339Z" fill="white"/>
</mask>
<g mask="url(#mask9_215_14)">
<path d="M266.962 193.339L254.17 276.805C254.164 276.847 254.157 276.888 254.151 276.93L266.943 193.464C266.95 193.422 266.956 193.38 266.962 193.339Z" fill="#9DB1C4"/>
<path d="M266.945 193.464L254.153 276.93C254.105 277.209 254.036 277.477 253.95 277.743L266.742 194.277C266.828 194.011 266.893 193.735 266.945 193.464Z" fill="#9DB1C4"/>
<path d="M266.742 194.277L253.95 277.743C253.864 278.009 253.761 278.272 253.643 278.525L266.435 195.059C266.554 194.806 266.662 194.543 266.742 194.277Z" fill="#9DB1C4"/>
<path d="M266.434 195.066L253.641 278.532C253.515 278.798 253.373 279.056 253.21 279.302L266.002 195.836C266.166 195.583 266.309 195.325 266.434 195.066Z" fill="#9DB1C4"/>
<path d="M266.004 195.837L253.212 279.303C253.033 279.576 252.839 279.839 252.617 280.091L265.409 196.625C265.631 196.373 265.827 196.103 266.004 195.837Z" fill="#9DB1C4"/>
<path d="M265.409 196.625L252.616 280.091C252.36 280.388 252.07 280.673 251.754 280.946L264.546 197.48C264.862 197.207 265.152 196.922 265.409 196.625Z" fill="#9DB1C4"/>
<path d="M264.543 197.48L251.75 280.946C251.264 281.358 250.708 281.738 250.084 282.073L262.876 198.607C263.5 198.272 264.056 197.892 264.543 197.48Z" fill="#9DB1C4"/>
<path d="M262.872 198.606L250.08 282.073C250.03 282.101 249.974 282.128 249.924 282.156L262.716 198.69C262.766 198.662 262.822 198.635 262.872 198.606Z" fill="#9DB1C4"/>
</g>
<path d="M136.257 265.636L149.05 182.17C148.725 184.321 149.533 186.643 151.567 188.628L138.774 272.094C136.741 270.109 135.927 267.786 136.257 265.636Z" fill="#D1DEE8"/>
<mask id="mask10_215_14" style="mask-type:luminance" maskUnits="userSpaceOnUse" x="136" y="182" width="16" height="91">
<path d="M136.257 265.636L149.05 182.17C148.725 184.321 149.533 186.643 151.567 188.628L138.774 272.094C136.741 270.109 135.927 267.786 136.257 265.636Z" fill="white"/>
</mask>
<g mask="url(#mask10_215_14)">
<path d="M151.566 188.635L138.773 272.101C136.74 270.116 135.926 267.793 136.256 265.644L149.049 182.178C148.724 184.328 149.532 186.65 151.566 188.635Z" fill="#D1DEE8"/>
</g>
<path d="M262.709 198.689L249.917 282.155L193.022 311.549L205.814 228.083L262.709 198.689Z" fill="#9DB1C4"/>
<path d="M189.45 225.613L176.658 309.079L138.776 272.094L151.568 188.635L189.45 225.613Z" fill="#D1DEE8"/>
<path d="M205.819 228.084L193.027 311.55C188.028 314.131 180.707 313.026 176.665 309.08L189.457 225.614C193.5 229.56 200.826 230.665 205.819 228.084Z" fill="#D1DEE8"/>
<mask id="mask11_215_14" style="mask-type:luminance" maskUnits="userSpaceOnUse" x="176" y="225" width="30" height="88">
<path d="M205.813 228.083L193.021 311.549C188.022 314.129 180.701 313.024 176.658 309.079L189.45 225.613C193.493 229.558 200.819 230.664 205.813 228.083Z" fill="white"/>
</mask>
<g mask="url(#mask11_215_14)">
<path d="M205.812 228.082L193.02 311.548C192.162 311.99 191.24 312.322 190.276 312.556L203.068 229.089C204.032 228.856 204.96 228.525 205.812 228.082Z" fill="#D1DEE8"/>
<path d="M203.066 229.089L190.273 312.555C189.53 312.736 188.761 312.848 187.979 312.902L200.772 229.436C201.554 229.382 202.323 229.263 203.066 229.089Z" fill="#D1DEE8"/>
<path d="M200.766 229.435L187.974 312.901C187.47 312.939 186.969 312.949 186.461 312.937L199.253 229.471C199.762 229.483 200.267 229.474 200.766 229.435Z" fill="#D1DEE8"/>
<path d="M199.258 229.472L186.466 312.938C186.031 312.929 185.6 312.9 185.166 312.849L197.959 229.383C198.393 229.427 198.825 229.456 199.258 229.472Z" fill="#D1DEE8"/>
<path d="M197.957 229.382L185.165 312.848C184.77 312.803 184.371 312.75 183.982 312.67L196.774 229.204C197.165 229.277 197.564 229.33 197.957 229.382Z" fill="#D1DEE8"/>
<path d="M196.77 229.21L183.978 312.676C183.599 312.605 183.221 312.526 182.852 312.428L195.644 228.962C196.013 229.06 196.391 229.139 196.77 229.21Z" fill="#D1DEE8"/>
<path d="M195.64 228.961L182.848 312.427C182.479 312.329 182.11 312.223 181.744 312.104L194.537 228.637C194.897 228.756 195.264 228.869 195.64 228.961Z" fill="#D1DEE8"/>
<path d="M194.545 228.638L181.753 312.104C181.376 311.976 181.008 311.835 180.641 311.68L193.434 228.213C193.795 228.368 194.169 228.51 194.545 228.638Z" fill="#D1DEE8"/>
<path d="M193.431 228.213L180.639 311.679C180.245 311.513 179.861 311.326 179.489 311.127L192.282 227.661C192.653 227.86 193.038 228.047 193.431 228.213Z" fill="#D1DEE8"/>
<path d="M192.283 227.662L179.49 311.128C179.035 310.88 178.593 310.614 178.173 310.322L190.965 226.856C191.386 227.148 191.827 227.414 192.283 227.662Z" fill="#D1DEE8"/>
<path d="M190.964 226.863L178.171 310.329C177.626 309.953 177.116 309.534 176.651 309.078L189.444 225.612C189.908 226.068 190.419 226.48 190.964 226.863Z" fill="#D1DEE8"/>
</g>
<path d="M264.441 186.873C268.484 190.819 267.708 196.108 262.715 198.69L205.814 228.083C200.815 230.664 193.494 229.559 189.452 225.614L151.564 188.635C147.527 184.69 148.295 179.407 153.289 176.825L210.159 147.406C215.152 144.824 222.486 145.924 226.527 149.876L264.44 186.88L264.441 186.873Z" fill="#F0F7FC"/>
<path d="M313.195 122.648L238.696 161.748L256.881 179.497L330.82 139.849L313.195 122.648Z" fill="#F0F7FC"/>
<path d="M60.2852 141.162L15.7404 182.818L86.4862 254.017L131.925 211.41L60.2852 141.162Z" fill="#F0F7FC"/>
<path d="M15.7402 182.819L14.8212 188.908L85.9458 259.078L86.486 254.018L15.7402 182.819Z" fill="#9DB1C4"/>
<path d="M85.9458 259.078L128.027 236.819L131.925 211.41L86.486 254.017L85.9458 259.078Z" fill="#9DB1C4"/>
<path d="M131.927 211.41L142.993 233.25L152.57 260.735L148.839 281.919C145.023 278.336 141.202 274.745 137.385 271.163C136.743 270.402 136.107 269.641 135.465 268.88C135 269.11 134.484 269.339 133.922 269.533C132.759 269.943 131.711 270.128 130.828 270.202C129.604 270.524 127.969 270.799 126.073 270.712C124.079 270.626 122.44 270.164 121.243 269.705C119.662 269.352 117.805 268.779 115.801 267.848C113.535 266.792 111.67 265.553 110.209 264.404C106.504 260.31 102.793 256.222 99.088 252.127L128.04 236.821L131.934 211.404L131.927 211.41Z" fill="#B0C5D6"/>
<path d="M76.8882 95.3453L73.8044 115.777L126.828 167.875L129.892 147.575L76.8882 95.3453Z" fill="#7CAFBF"/>
<path d="M72.4976 124.436L69.4148 144.861L122.437 196.966L125.502 176.659L72.4976 124.436Z" fill="#7CAFBF"/>
<path d="M330.824 139.849L342.794 210.776L341.009 222.605C340.518 222.895 339.909 223.203 339.19 223.451C338.482 223.695 337.851 223.814 337.326 223.87C336.821 223.951 336.227 224.011 335.565 223.99C334.778 223.964 334.092 223.839 333.536 223.684C332.51 223.607 331.103 223.359 329.567 222.592C328.602 222.111 327.818 221.535 327.209 221.008C323.08 202.822 318.951 184.63 314.823 166.437L327.847 159.576L330.824 139.849Z" fill="#9DB1C4"/>
<path fill-rule="evenodd" clip-rule="evenodd" d="M164.774 224.56L166.125 215.608L160.573 210.192L159.222 219.144L153.67 213.728L152.319 222.68L157.871 228.096L156.52 237.048L162.072 242.464L163.423 233.512L168.975 238.928L170.326 229.976L164.774 224.56Z" fill="#7BABBF"/>
</svg>
