<svg width="86" height="189" viewBox="0 0 86 189" fill="none" xmlns="http://www.w3.org/2000/svg">
<path d="M36.5659 171.496C36.5659 171.496 36.6941 180.357 36.6247 180.484C36.5553 180.611 37.2761 181.72 37.2761 181.72L40.0909 182.22L42.6594 181.047C42.6594 181.047 42.4331 172.81 42.702 171.51C42.9709 170.211 36.5659 171.496 36.5659 171.496Z" fill="#F9A58F"/>
<path d="M42.6615 181.048C42.6615 181.048 39.4176 182.175 36.6444 180.31C36.6444 180.31 25.8419 184.331 26.1718 187.388C26.1718 187.388 25.7118 188.299 30.3923 188.102C35.0729 187.906 42.3465 187.699 42.5417 187.592C42.7367 187.484 43.653 187.975 42.6615 181.048Z" fill="#060633"/>
<path d="M69.572 171.496C69.572 171.496 69.7002 180.357 69.6308 180.484C69.5614 180.611 70.2821 181.72 70.2821 181.72L73.097 182.22L75.6655 181.047C75.6655 181.047 75.4392 172.81 75.7079 171.51C75.9768 170.211 69.572 171.496 69.572 171.496Z" fill="#F9A58F"/>
<path d="M75.6576 181.048C75.6576 181.048 72.4137 182.175 69.6406 180.31C69.6406 180.31 58.8379 184.331 59.168 187.388C59.168 187.388 58.7076 188.299 63.3882 188.102C68.0686 187.906 75.3426 187.699 75.5376 187.592C75.7324 187.484 76.6491 187.975 75.6576 181.048Z" fill="#060633"/>
<path d="M72.316 76.7782L76.1115 179.592L68.8074 179.325L51.9252 110.439L43.1071 180.311L35.449 179.592L32.1099 81.346L41.667 77.6655L72.316 76.7782Z" fill="#060633"/>
<path d="M10.9811 48.9417C10.9811 48.9417 11.2256 44.7201 10.9731 43.1749C10.7205 41.6301 11.6315 39.9471 10.7328 39.7825C9.83436 39.6182 9.09714 42.5391 9.09714 42.5391C9.09714 42.5391 7.19886 39.9728 6.73613 39.096C6.27325 38.219 5.04487 36.8605 4.37223 37.1468C3.70021 37.433 6.21896 41.49 6.21896 41.49C6.21896 41.49 3.7603 38.2809 3.08283 38.4134C2.40553 38.546 4.93022 43.0857 4.93022 43.0857C4.93022 43.0857 2.4757 39.5356 2.03884 39.424C1.60149 39.3126 1.44058 39.8636 2.00192 41.3299C2.56358 42.7964 3.51793 44.1504 3.51793 44.1504C3.51793 44.1504 1.60503 41.784 1.27577 41.5796C0.946685 41.3754 0.342775 41.3324 1.40603 43.4171C2.46913 45.502 5.50857 49.6365 7.87183 51.0909L10.9811 48.9417Z" fill="#F9A58F"/>
<path d="M48.1899 14.5991C48.1899 14.5991 47.6058 13.3185 46.9199 13.6921C45.1705 14.6437 46.4742 16.436 47.4548 16.9447L48.1899 14.5991Z" fill="#E27560"/>
<path d="M48.5387 10.2779L48.5477 10.281C48.5628 10.159 48.5782 10.0369 48.5978 9.9143C49.4778 4.4939 54.7887 0.87845 60.2664 2.12647C64.8304 3.16628 68.0124 7.41506 67.698 12.0544C67.5812 13.7766 67.0205 15.3407 66.1474 16.6648C64.9092 18.7304 63.8285 20.4938 62.7535 21.9315C60.976 24.3095 60.0634 27.216 60.0862 30.1772L60.1042 32.5063C53.7661 34.658 51.5697 31.3618 51.5697 31.3618L52.138 27.1829C52.2126 26.6374 51.8514 26.1314 51.3109 26.0088C51.3077 26.0082 51.3045 26.0073 51.3012 26.0065C44.1392 24.3793 48.0132 13.5155 48.5387 10.2779Z" fill="#F9A58F"/>
<path d="M57.5159 16.7953C57.5946 16.3104 58.0543 15.9807 58.5426 16.0588C59.0308 16.1369 59.363 16.5934 59.2843 17.0783C59.2057 17.5631 58.7459 17.8929 58.2576 17.8148C57.7694 17.7365 57.4372 17.2802 57.5159 16.7953Z" fill="#060633"/>
<path d="M49.9117 13.9751C49.9904 13.4902 50.4501 13.1605 50.9384 13.2386C51.4266 13.3169 51.7588 13.7732 51.6798 14.2581C51.6012 14.743 51.1414 15.0727 50.6531 14.9946C50.1649 14.9165 49.8329 14.46 49.9117 13.9751Z" fill="#060633"/>
<path d="M61.4992 14.8638C61.5892 14.8837 61.6854 14.8805 61.7787 14.8496C62.0537 14.7588 62.2027 14.4637 62.1113 14.1907C61.8354 13.3676 60.7406 11.953 58.5656 12.4904C58.2844 12.56 58.1133 12.843 58.183 13.1222C58.2531 13.4015 58.5383 13.571 58.8192 13.5019C60.6054 13.0593 61.0951 14.4597 61.1152 14.5197C61.1757 14.6997 61.3256 14.8253 61.4992 14.8638Z" fill="#060633"/>
<path d="M53.6005 11.8723C53.6911 11.8869 53.7869 11.8779 53.8786 11.8414C54.1474 11.7345 54.2785 11.4314 54.1707 11.164C53.846 10.3586 52.6675 9.01124 50.5291 9.67688C50.2527 9.76316 50.099 10.0554 50.1854 10.3301C50.2723 10.6048 50.5667 10.7575 50.8431 10.6715C52.5994 10.1242 53.1727 11.4928 53.1961 11.5515C53.2673 11.7275 53.4244 11.8441 53.6005 11.8723Z" fill="#060633"/>
<path d="M68.338 13.7404L64.725 19.7093L63.0535 19.0899L63.3537 10.6924L68.338 13.7404Z" fill="#060633"/>
<path d="M52.4617 19.2477C53.2438 19.7959 54.0727 19.4623 54.0822 19.4581C54.1616 19.4252 54.1985 19.3349 54.1656 19.2561C54.1327 19.1778 54.0411 19.1402 53.9621 19.1728C53.9235 19.1885 53.002 19.5498 52.2824 18.6533C52.1648 18.5072 52.1099 18.395 52.1189 18.3199C52.1314 18.2145 52.2793 18.0993 52.4845 17.9403C52.9563 17.5742 53.7465 16.9613 54.221 15.3672C54.2453 15.2849 54.1979 15.1988 54.1158 15.1747C54.0334 15.1506 53.9465 15.1973 53.9223 15.2794C53.4758 16.7785 52.7639 17.331 52.2928 17.6965C52.0383 17.894 51.8372 18.0499 51.8091 18.2839C51.7895 18.4505 51.8601 18.624 52.0387 18.8461C52.1744 19.0152 52.3171 19.1465 52.4617 19.2477Z" fill="#E27560"/>
<path d="M50.6565 6.85977C50.6565 6.85977 49.1375 7.59359 47.8728 13.2647C47.8728 13.2647 48.4446 6.80905 49.2733 6.22053C50.1021 5.63217 50.6565 6.85977 50.6565 6.85977Z" fill="#060633"/>
<path d="M58.4906 14.0272C57.206 14.0272 56.1106 14.8536 55.7176 16.0001C55.6862 16.0899 55.6599 16.183 55.6387 16.2777V16.2794C55.5876 16.4917 55.5613 16.7106 55.5613 16.9375C55.5613 18.5414 56.8755 19.8463 58.4906 19.8463C59.6351 19.8463 60.6303 19.1897 61.1105 18.236C61.1401 18.1805 61.1664 18.1233 61.1911 18.0644C61.3375 17.7183 61.4197 17.3377 61.4197 16.9375C61.4197 15.3338 60.1055 14.0272 58.4906 14.0272ZM58.4906 19.6699C56.9725 19.6699 55.739 18.445 55.739 16.9375C55.739 15.4301 56.9725 14.2036 58.4906 14.2036C60.0085 14.2036 61.2436 15.4301 61.2436 16.9375C61.2436 18.445 60.0085 19.6699 58.4906 19.6699Z" fill="#060633"/>
<path d="M50.8037 11.207C49.2001 11.207 47.8925 12.4924 47.8744 14.0782C47.8728 14.0913 47.8728 14.1027 47.8728 14.1158C47.8728 14.4555 47.9319 14.7821 48.0405 15.0859C48.4435 16.2144 49.529 17.0245 50.8037 17.0245C51.9729 17.0245 52.9828 16.3419 53.4499 15.3554C53.4844 15.2868 53.514 15.2166 53.542 15.1463V15.1447C53.6637 14.8246 53.7312 14.4784 53.7312 14.1158C53.7312 12.512 52.4186 11.207 50.8037 11.207ZM50.8037 16.8498C49.5191 16.8498 48.4369 15.9711 48.1343 14.787C48.0981 14.6466 48.0734 14.5012 48.062 14.3542C48.0536 14.2758 48.0504 14.1958 48.0504 14.1158C48.0504 12.61 49.2855 11.3834 50.8037 11.3834C52.32 11.3834 53.5551 12.61 53.5551 14.1158C53.5551 15.6232 52.32 16.8498 50.8037 16.8498Z" fill="#060633"/>
<path d="M55.6494 16.3007C55.5082 15.8571 55.2602 15.5472 54.9129 15.3801C54.2487 15.0611 53.4278 15.364 53.42 15.3667L53.3564 15.2024C53.3932 15.1887 54.2562 14.8704 54.9891 15.2213C55.3829 15.4099 55.6618 15.7553 55.8181 16.2477L55.6494 16.3007Z" fill="#060633"/>
<path d="M63.6578 18.3861L61.0452 18.2318L61.0561 18.0559L63.6689 18.2101L63.6578 18.3861Z" fill="#060633"/>
<path d="M62.8227 18.8434C63.0257 18.563 63.3311 18.373 63.6705 18.2964C64.3691 18.1387 65.5719 18.0373 66.2389 18.9541C67.2176 20.2996 64.372 22.995 62.2999 21.0972C62.2999 21.0972 61.7441 20.3329 62.8227 18.8434Z" fill="#F9A58F"/>
<path d="M60.703 31.3952L51.1377 30.7393L46.3232 46.4072L44.1987 76.9517C44.1987 76.9517 52.6858 81.7784 64.6322 77.0473L63.7469 41.0724L60.703 31.3952Z" fill="#15157A"/>
<path d="M60.7032 31.3958C60.7032 31.3958 74.7142 38.4513 77.2791 42.5449C79.648 46.3257 79.5183 42.8757 85.6567 63.6063C86.4597 66.3179 85.8239 69.198 84.0671 71.3093C83.3477 72.1739 82.3667 72.7859 81.2838 73.1044L73.6595 75.3483L76.1179 135.857H59.417L60.7032 31.3958Z" fill="#6C7AFF"/>
<path d="M51.13 30.7393C51.13 30.7393 36.2753 35.815 33.1683 39.52C30.0611 43.2247 28.7002 134.668 28.7002 134.668H42.7034L51.13 30.7393Z" fill="#6C7AFF"/>
<path d="M57.4734 32.9702L55.5945 35.6982L56.301 76.1502L50.2933 84.4446L46.8984 75.2875L53.5841 35.3156L52.5551 32.3881L55.9379 31.3958L57.4734 32.9702Z" fill="#2F3DBC"/>
<path d="M60.6959 31.3971L60.0882 29.7863L55.4818 31.0396L51.8781 29.0862L51.1306 30.7412L51.7199 33.7201L55.267 31.7629L58.4138 34.3832L60.6959 31.3971Z" fill="#0E0E7A"/>
<path d="M65.8761 2.07485C65.6212 1.77668 65.1303 1.51759 64.8773 1.81718C64.7754 1.93784 64.7626 2.10818 64.7633 2.26551C64.7649 2.72357 64.8431 3.18083 64.9929 3.61402C63.5111 1.6265 60.8623 0.859442 58.3757 0.725862C55.8891 0.592365 53.3838 0.962072 50.9105 0.670922C49.93 0.555602 48.7555 0.405362 48.1224 1.15784C47.6806 1.68298 47.7167 2.49757 48.0826 3.07718C48.4483 3.65677 49.0808 4.02655 49.7369 4.23564C49.2396 3.98604 48.5868 4.08667 48.1898 4.47488C47.7922 4.86277 47.6796 5.50902 47.9228 6.00703C48.2943 6.76869 49.2589 6.99724 50.1015 7.12427C52.7841 7.52883 55.4885 7.79063 58.199 7.9085C57.7836 8.19671 57.3683 8.48515 56.9528 8.77359C56.811 8.87183 56.6638 8.97702 56.5887 9.13141C56.4856 9.34402 56.5455 9.60191 56.6598 9.80853C56.9563 10.3431 57.5744 10.6356 58.1833 10.7166C58.7925 10.7979 59.4092 10.7026 60.0209 10.646C60.9141 10.5632 61.815 10.5632 62.7084 10.6455C62.8931 10.6626 63.0832 10.685 63.2451 10.7747C63.464 10.8956 63.5994 11.1202 63.7459 11.3219C64.6189 12.5243 66.0945 13.1117 67.4898 13.6393C67.9231 13.8034 68.503 13.9293 68.776 13.557C68.882 13.4127 68.9075 13.227 68.9255 13.0495C69.1444 10.9245 68.7715 8.74225 67.8589 6.808C68.0929 7.30427 68.744 7.46742 69.0796 6.93105C69.5063 6.2485 68.6507 5.60225 68.1666 5.2768C67.724 4.97912 67.2892 4.89259 66.977 4.42385C66.4876 3.68914 66.4942 2.79765 65.8761 2.07485Z" fill="#060633"/>
<path d="M54.7081 21.7303L49.7385 20.1708C49.7385 20.1708 49.8349 22.9721 51.6717 23.0979C53.5083 23.224 54.7081 21.7303 54.7081 21.7303Z" fill="white"/>
<path d="M66.153 34.3431L62.5125 45.7486L65.2644 47.1189L60.2578 67.4807L60.7021 31.3958L66.153 34.3431Z" fill="#5780E5"/>
<path d="M36.9135 36.7996C36.9135 36.7996 31.9529 39.0807 29.5297 44.7142C27.1064 50.3475 23.6397 59.1596 19.7405 60.2576C16.6325 61.1329 12.1709 47.8565 12.1709 47.8565L4.92456 49.8176C4.92456 49.8176 7.52329 76.4665 21.4528 75.0492C30.3062 74.1486 34.509 55.2679 34.509 55.2679L36.9135 36.7996Z" fill="#6C7AFF"/>
<path d="M45.33 32.9145L47.3569 44.7087L44.4414 45.6903L48.1442 75.0806L51.1368 30.7393L45.33 32.9145Z" fill="#5780E5"/>
<path d="M52.1018 48.7313L30.945 49.8614C30.8788 49.8651 30.8279 49.9211 30.8315 49.9867L32.4079 79.0818C32.4113 79.1476 32.468 79.198 32.534 79.1945L53.6909 78.0644C53.7569 78.0606 53.8078 78.0047 53.804 77.9387L52.228 48.8436C52.2245 48.778 52.1679 48.7278 52.1018 48.7313Z" fill="#FA7267"/>
<path d="M46.1759 47.6481L37.522 48.1104L37.6209 49.9373L46.2748 49.475L46.1759 47.6481Z" fill="#0B0755"/>
<path d="M43.2819 47.8031C43.2396 47.0184 42.5643 46.4164 41.774 46.4586C40.9837 46.5009 40.3775 47.1713 40.4201 47.956C40.4626 48.7408 41.1377 49.3428 41.9281 49.3005C42.7183 49.2585 43.3244 48.5879 43.2819 47.8031Z" fill="#0B0755"/>
<path d="M60.4504 69.9871C60.4504 69.9871 56.484 68.2611 54.9115 67.9529C53.3391 67.6448 52.0456 66.1867 51.5697 66.9792C51.0937 67.7716 53.6367 69.5038 53.6367 69.5038C53.6367 69.5038 50.5009 70.3919 49.4951 70.5195C48.4897 70.6471 46.7507 71.3291 46.7872 72.0669C46.8238 72.8047 51.6106 71.8568 51.6106 71.8568C51.6106 71.8568 47.6592 73.0481 47.5467 73.7364C47.434 74.4242 52.6862 73.6419 52.6862 73.6419C52.6862 73.6419 48.4089 74.7084 48.1469 75.0825C47.885 75.4569 48.3572 75.8044 49.9638 75.792C51.5704 75.7798 53.208 75.3559 53.208 75.3559C53.208 75.3559 50.2588 76.3287 49.9462 76.5677C49.6337 76.8073 49.3784 77.3634 51.7564 77.0952C54.1346 76.8272 59.1796 75.4138 61.4128 73.6916L60.4504 69.9871Z" fill="#F9A58F"/>
<path d="M53.1818 66.4987L53.3488 69.584L50.4036 69.179L50.1689 66.621L51.0805 65.38L53.1818 66.4987Z" fill="#FA7267"/>
<path d="M62.0801 77.0028C61.9985 77.0028 61.9266 76.9473 61.908 76.8671L60.094 69.1778C60.0747 69.0977 60.1139 69.0157 60.1887 68.9794L73.369 62.5962L70.4283 54.0014C70.3968 53.9095 70.4464 53.8095 70.5393 53.7781C70.6326 53.7476 70.7323 53.7965 70.7633 53.888L73.7548 62.6295C73.7837 62.7133 73.7448 62.8053 73.6645 62.8441L60.4711 69.2341L62.2166 76.632L73.6321 75.1747C73.7255 75.1614 73.8177 75.2304 73.8307 75.3268C73.8433 75.423 73.7747 75.5114 73.6778 75.5238L62.1033 77.0012C62.0954 77.0023 62.0878 77.0028 62.0801 77.0028Z" fill="#17152B"/>
</svg>
