<svg width="136" height="170" viewBox="0 0 136 170" fill="none" xmlns="http://www.w3.org/2000/svg">
<path d="M35.8355 158.059C33.5844 158.059 31.7454 160.611 31.7454 163.754C31.7454 166.897 33.5844 169.442 35.8355 169.442C38.0866 169.442 39.9257 166.89 39.9257 163.754C39.9257 160.618 38.0926 158.059 35.8355 158.059Z" fill="#2E353A"/>
<path d="M35.8355 167.413C34.5935 167.413 33.5366 165.736 33.5366 163.754C33.5366 161.772 34.5935 160.095 35.8355 160.095C37.0775 160.095 38.1343 161.765 38.1343 163.754C38.1343 165.743 37.1073 167.413 35.8355 167.413Z" fill="#FFC727"/>
<path d="M35.2744 164.026V157.591H39.3288L37.2031 164.379C37.1339 164.598 37.0066 164.788 36.8387 164.921C36.6708 165.055 36.4706 165.126 36.2656 165.125C36.0068 165.125 35.7583 165.01 35.573 164.805C35.3878 164.6 35.2807 164.32 35.2744 164.026Z" fill="#2E353A"/>
<path opacity="0.3" d="M35.2744 164.026V157.591H39.3288L37.2031 164.379C37.1339 164.598 37.0066 164.788 36.8387 164.921C36.6708 165.055 36.4706 165.126 36.2656 165.125C36.0068 165.125 35.7583 165.01 35.573 164.805C35.3878 164.6 35.2807 164.32 35.2744 164.026Z" fill="white"/>
<path d="M50.2439 94.0844H47.8555V84.181C47.8555 82.9641 48.2807 81.797 49.0377 80.9365C49.7947 80.076 50.8214 79.5925 51.8919 79.5925H94.3759V82.3076H51.9038C51.4672 82.3094 51.049 82.5074 50.7403 82.8583C50.4315 83.2093 50.2574 83.6847 50.2558 84.181L50.2439 94.0844Z" fill="#263238"/>
<path d="M73.4413 169.442C60.6812 169.442 50.2975 154.978 50.2975 137.2C50.2975 119.423 60.6812 104.952 73.4413 104.952C86.2014 104.952 96.5911 119.417 96.5911 137.2C96.5911 154.984 86.2074 169.442 73.4413 169.442ZM73.4413 108.352C62.3232 108.352 53.283 121.297 53.283 137.207C53.283 153.118 62.3232 166.055 73.4413 166.055C84.5594 166.055 93.6055 153.118 93.6055 137.207C93.6055 121.297 84.5594 108.346 73.4413 108.346V108.352Z" fill="#2E353A"/>
<path d="M73.4415 108.006C62.1621 108.006 52.9846 121.106 52.9846 137.193C52.9846 153.28 62.1621 166.381 73.4415 166.381C84.7208 166.381 93.9043 153.287 93.9043 137.193C93.9043 121.1 84.7267 108.006 73.4415 108.006ZM77.663 132.171L85.8732 120.224C87.1941 122.395 88.23 124.773 88.9483 127.283L78.3079 133.576C78.1294 133.087 77.9136 132.617 77.663 132.171ZM74.0386 129.259V112.106C75.983 112.213 77.8838 112.799 79.6095 113.823L75.0357 129.564C74.7151 129.418 74.3804 129.315 74.0386 129.259ZM72.8444 129.259C72.5329 129.315 72.2269 129.406 71.9308 129.53L67.5122 113.687C69.1732 112.744 70.9895 112.205 72.8444 112.106V129.259ZM68.6646 133.474L58.06 126.958C58.7731 124.565 59.7781 122.299 61.0455 120.224L69.2557 132.171C69.0185 132.584 68.8128 133.02 68.6407 133.474H68.6646ZM68.2884 134.784C68.1674 135.354 68.0895 135.936 68.0556 136.521H56.5732C56.6168 133.72 56.9862 130.938 57.6719 128.247L68.2884 134.784ZM68.0556 137.879C68.0875 138.425 68.1573 138.968 68.2645 139.501L57.6062 145.794C56.9809 143.214 56.6419 140.555 56.5971 137.879H68.0556ZM68.6527 140.818C68.8134 141.308 69.0132 141.781 69.2498 142.23L60.9918 154.176C59.6674 152.008 58.6313 149.629 57.9167 147.117L68.6527 140.818ZM72.8921 145.135V162.295C70.9494 162.188 69.0504 161.602 67.3271 160.577L71.9009 144.836C72.2045 144.976 72.521 145.076 72.8444 145.135H72.8921ZM74.0863 145.135C74.4003 145.085 74.7086 144.996 75.0059 144.87L79.4244 160.713C77.7613 161.657 75.9431 162.195 74.0863 162.295V145.135ZM78.2959 140.927L88.8945 147.443C88.1816 149.835 87.1766 152.102 85.909 154.176L77.6988 142.23C77.9134 141.814 78.0972 141.378 78.2481 140.927H78.2959ZM78.6721 139.61C78.7944 139.042 78.8704 138.463 78.899 137.879H90.3097C90.266 140.671 89.8986 143.444 89.217 146.126L78.6721 139.61ZM78.899 136.521C78.87 135.973 78.8001 135.428 78.69 134.892L89.3543 128.607C89.9781 131.187 90.3151 133.846 90.3574 136.521H78.899ZM85.1746 119.097L76.9584 131.051C76.7095 130.75 76.4378 130.475 76.1463 130.229L80.6963 114.502C82.3912 115.738 83.8893 117.292 85.1268 119.097H85.1746ZM66.4911 114.346L70.9038 130.168C70.5844 130.426 70.2884 130.719 70.02 131.044L61.8039 119.091C63.0907 117.211 64.6617 115.606 66.4434 114.353L66.4911 114.346ZM61.8039 155.29L69.9484 143.35C70.1992 143.649 70.473 143.921 70.7664 144.165L66.1926 159.899C64.4953 158.661 62.9951 157.105 61.7561 155.296L61.8039 155.29ZM80.4933 160.041L76.0747 144.219C76.3952 143.963 76.6914 143.669 76.9584 143.343L85.1746 155.29C83.8643 157.188 82.262 158.8 80.4455 160.048L80.4933 160.041Z" fill="#FFC727"/>
<g opacity="0.2">
<path d="M73.4415 108.006C62.1621 108.006 52.9846 121.106 52.9846 137.193C52.9846 153.28 62.1621 166.381 73.4415 166.381C84.7208 166.381 93.9043 153.287 93.9043 137.193C93.9043 121.1 84.7267 108.006 73.4415 108.006ZM77.663 132.171L85.8732 120.224C87.1941 122.395 88.23 124.773 88.9483 127.283L78.3079 133.576C78.1294 133.087 77.9136 132.617 77.663 132.171ZM74.0386 129.259V112.106C75.983 112.213 77.8838 112.799 79.6095 113.823L75.0357 129.564C74.7151 129.418 74.3804 129.315 74.0386 129.259ZM72.8444 129.259C72.5329 129.315 72.2269 129.406 71.9308 129.53L67.5122 113.687C69.1732 112.744 70.9895 112.205 72.8444 112.106V129.259ZM68.6646 133.474L58.06 126.958C58.7731 124.565 59.7781 122.299 61.0455 120.224L69.2557 132.171C69.0185 132.584 68.8128 133.02 68.6407 133.474H68.6646ZM68.2884 134.784C68.1674 135.354 68.0895 135.936 68.0556 136.521H56.5732C56.6168 133.72 56.9862 130.938 57.6719 128.247L68.2884 134.784ZM68.0556 137.879C68.0875 138.425 68.1573 138.968 68.2645 139.501L57.6062 145.794C56.9809 143.214 56.6419 140.555 56.5971 137.879H68.0556ZM68.6527 140.818C68.8134 141.308 69.0132 141.781 69.2498 142.23L60.9918 154.176C59.6674 152.008 58.6313 149.629 57.9167 147.117L68.6527 140.818ZM72.8921 145.135V162.295C70.9494 162.188 69.0504 161.602 67.3271 160.577L71.9009 144.836C72.2045 144.976 72.521 145.076 72.8444 145.135H72.8921ZM74.0863 145.135C74.4003 145.085 74.7086 144.996 75.0059 144.87L79.4244 160.713C77.7613 161.657 75.9431 162.195 74.0863 162.295V145.135ZM78.2959 140.927L88.8945 147.443C88.1816 149.835 87.1766 152.102 85.909 154.176L77.6988 142.23C77.9134 141.814 78.0972 141.378 78.2481 140.927H78.2959ZM78.6721 139.61C78.7944 139.042 78.8704 138.463 78.899 137.879H90.3097C90.266 140.671 89.8986 143.444 89.217 146.126L78.6721 139.61ZM78.899 136.521C78.87 135.973 78.8001 135.428 78.69 134.892L89.3543 128.607C89.9781 131.187 90.3151 133.846 90.3574 136.521H78.899ZM85.1746 119.097L76.9584 131.051C76.7095 130.75 76.4378 130.475 76.1463 130.229L80.6963 114.502C82.3912 115.738 83.8893 117.292 85.1268 119.097H85.1746ZM66.4911 114.346L70.9038 130.168C70.5844 130.426 70.2884 130.719 70.02 131.044L61.8039 119.091C63.0907 117.211 64.6617 115.606 66.4434 114.353L66.4911 114.346ZM61.8039 155.29L69.9484 143.35C70.1992 143.649 70.473 143.921 70.7664 144.165L66.1926 159.899C64.4953 158.661 62.9951 157.105 61.7561 155.296L61.8039 155.29ZM80.4933 160.041L76.0747 144.219C76.3952 143.963 76.6914 143.669 76.9584 143.343L85.1746 155.29C83.8643 157.188 82.262 158.8 80.4455 160.048L80.4933 160.041Z" fill="black"/>
</g>
<path d="M89.0019 105.379H47.8554C46.5473 105.379 45.2928 105.97 44.3679 107.021C43.4429 108.073 42.9233 109.499 42.9233 110.986V154.815C42.9233 155.481 42.6905 156.119 42.2762 156.59C41.8619 157.061 41.2999 157.326 40.714 157.326H31.6798C31.3631 157.326 31.0593 157.469 30.8354 157.724C30.6114 157.978 30.4856 158.324 30.4856 158.684C30.4856 159.044 30.6114 159.389 30.8354 159.643C31.0593 159.898 31.3631 160.041 31.6798 160.041H40.72C41.9389 160.039 43.1074 159.488 43.9693 158.508C44.8312 157.529 45.3161 156.2 45.3177 154.815V138.558H89.0019C89.3186 138.558 89.6224 138.415 89.8464 138.16C90.0703 137.906 90.1961 137.56 90.1961 137.2V106.737C90.1961 106.377 90.0703 106.031 89.8464 105.777C89.6224 105.522 89.3186 105.379 89.0019 105.379ZM87.8077 135.843H45.3177V110.986C45.3177 110.219 45.5857 109.484 46.0627 108.941C46.5397 108.399 47.1867 108.094 47.8614 108.094H87.8077V135.843Z" fill="#2E353A"/>
<path opacity="0.3" d="M89.0019 105.379H47.8554C46.5473 105.379 45.2928 105.97 44.3679 107.021C43.4429 108.073 42.9233 109.499 42.9233 110.986V154.815C42.9233 155.481 42.6905 156.119 42.2762 156.59C41.8619 157.061 41.2999 157.326 40.714 157.326H31.6798C31.3631 157.326 31.0593 157.469 30.8354 157.724C30.6114 157.978 30.4856 158.324 30.4856 158.684C30.4856 159.044 30.6114 159.389 30.8354 159.643C31.0593 159.898 31.3631 160.041 31.6798 160.041H40.72C41.9389 160.039 43.1074 159.488 43.9693 158.508C44.8312 157.529 45.3161 156.2 45.3177 154.815V138.558H89.0019C89.3186 138.558 89.6224 138.415 89.8464 138.16C90.0703 137.906 90.1961 137.56 90.1961 137.2V106.737C90.1961 106.377 90.0703 106.031 89.8464 105.777C89.6224 105.522 89.3186 105.379 89.0019 105.379ZM87.8077 135.843H45.3177V110.986C45.3177 110.219 45.5857 109.484 46.0627 108.941C46.5397 108.399 47.1867 108.094 47.8614 108.094H87.8077V135.843Z" fill="white"/>
<path d="M91.7606 46.4888V90.2359H45.7834C44.5926 90.2359 43.4505 90.7737 42.6084 91.7309C41.7663 92.6882 41.2932 93.9865 41.2932 95.3403V117.998H89.3363C90.0496 117.999 90.756 117.84 91.4152 117.53C92.0744 117.22 92.6735 116.766 93.1781 116.193C93.6828 115.62 94.0831 114.94 94.3562 114.19C94.6294 113.441 94.77 112.639 94.77 111.828V46.4888H91.7606Z" fill="#2E353A"/>
<path opacity="0.3" d="M91.7606 46.4888V90.2359H45.7834C44.5926 90.2359 43.4505 90.7737 42.6084 91.7309C41.7663 92.6882 41.2932 93.9865 41.2932 95.3403V117.998H89.3363C90.0496 117.999 90.756 117.84 91.4152 117.53C92.0744 117.22 92.6735 116.766 93.1781 116.193C93.6828 115.62 94.0831 114.94 94.3562 114.19C94.6294 113.441 94.77 112.639 94.77 111.828V46.4888H91.7606Z" fill="white"/>
<path d="M45.2759 106.649H108.76V116.586H40.7439V111.834C40.7399 111.155 40.8543 110.481 41.0802 109.852C41.3062 109.223 41.6394 108.652 42.0607 108.17C42.4819 107.688 42.9828 107.305 43.5347 107.044C44.0865 106.783 44.6782 106.649 45.2759 106.649Z" fill="#263238"/>
<path d="M113.268 115.174H40.69C40.5269 115.174 40.3654 115.211 40.2147 115.282C40.064 115.352 39.9271 115.456 39.8118 115.588C39.6964 115.719 39.605 115.874 39.5425 116.046C39.4801 116.217 39.448 116.401 39.448 116.586C39.448 116.771 39.4801 116.955 39.5425 117.126C39.605 117.298 39.6964 117.453 39.8118 117.584C39.9271 117.715 40.064 117.819 40.2147 117.89C40.3654 117.961 40.5269 117.998 40.69 117.998H113.268C113.589 117.996 113.897 117.855 114.128 117.602C114.36 117.349 114.496 117.005 114.51 116.64C114.517 116.45 114.489 116.261 114.43 116.083C114.37 115.906 114.28 115.744 114.164 115.607C114.048 115.47 113.909 115.361 113.755 115.286C113.601 115.212 113.435 115.174 113.268 115.174Z" fill="#2E353A"/>
<path opacity="0.3" d="M113.268 115.174H40.69C40.5269 115.174 40.3654 115.211 40.2147 115.282C40.064 115.352 39.9271 115.456 39.8118 115.588C39.6964 115.719 39.605 115.874 39.5425 116.046C39.4801 116.217 39.448 116.401 39.448 116.586C39.448 116.771 39.4801 116.955 39.5425 117.126C39.605 117.298 39.6964 117.453 39.8118 117.584C39.9271 117.715 40.064 117.819 40.2147 117.89C40.3654 117.961 40.5269 117.998 40.69 117.998H113.268C113.589 117.996 113.897 117.855 114.128 117.602C114.36 117.349 114.496 117.005 114.51 116.64C114.517 116.45 114.489 116.261 114.43 116.083C114.37 115.906 114.28 115.744 114.164 115.607C114.048 115.47 113.909 115.361 113.755 115.286C113.601 115.212 113.435 115.174 113.268 115.174Z" fill="white"/>
<path d="M92.8292 47.7784H118.314V106.214C118.314 108.591 117.483 110.87 116.005 112.55C114.527 114.23 112.522 115.174 110.432 115.174H92.8292V47.7784Z" fill="#263238"/>
<path d="M40.3497 155.039H19.6481C18.8302 155.039 18.1672 155.792 18.1672 156.722V157.672C18.1672 158.602 18.8302 159.356 19.6481 159.356H40.3497C41.1675 159.356 41.8305 158.602 41.8305 157.672V156.722C41.8305 155.792 41.1675 155.039 40.3497 155.039Z" fill="#2E353A"/>
<path opacity="0.2" d="M40.3497 155.039H19.6481C18.8302 155.039 18.1672 155.792 18.1672 156.722V157.672C18.1672 158.602 18.8302 159.356 19.6481 159.356H40.3497C41.1675 159.356 41.8305 158.602 41.8305 157.672V156.722C41.8305 155.792 41.1675 155.039 40.3497 155.039Z" fill="white"/>
<path d="M113.155 136.243L90.0406 126.89L113.155 117.543C113.273 117.506 113.384 117.441 113.48 117.354C113.576 117.266 113.654 117.156 113.711 117.032C113.768 116.908 113.802 116.772 113.811 116.632C113.819 116.493 113.803 116.353 113.762 116.221C113.72 116.089 113.656 115.968 113.572 115.866C113.488 115.764 113.386 115.682 113.273 115.627C113.16 115.571 113.038 115.543 112.915 115.543C112.792 115.543 112.67 115.573 112.557 115.629L87.3716 125.81L62.1916 115.629C62.0789 115.573 61.9572 115.543 61.8341 115.543C61.711 115.543 61.5891 115.571 61.4761 115.627C61.3631 115.682 61.2614 115.764 61.1774 115.866C61.0933 115.968 61.0287 116.089 60.9875 116.221C60.9464 116.353 60.9296 116.493 60.9382 116.632C60.9468 116.772 60.9807 116.908 61.0377 117.032C61.0946 117.156 61.1735 117.266 61.2693 117.354C61.3651 117.441 61.4758 117.506 61.5945 117.543L84.6965 126.89L61.5885 136.243C61.4698 136.28 61.3591 136.345 61.2633 136.433C61.1675 136.521 61.0886 136.63 61.0317 136.754C60.9747 136.878 60.9409 137.014 60.9323 137.154C60.9236 137.293 60.9404 137.433 60.9816 137.565C61.0227 137.697 61.0873 137.818 61.1714 137.92C61.2555 138.023 61.3572 138.104 61.4701 138.16C61.5831 138.215 61.705 138.244 61.8281 138.243C61.9512 138.243 62.0729 138.214 62.1857 138.157L87.3656 127.976L112.551 138.157C112.664 138.214 112.786 138.243 112.909 138.243C113.032 138.244 113.154 138.215 113.267 138.16C113.38 138.104 113.482 138.023 113.566 137.92C113.65 137.818 113.714 137.697 113.756 137.565C113.797 137.433 113.814 137.293 113.805 137.154C113.796 137.014 113.762 136.878 113.705 136.754C113.648 136.63 113.57 136.521 113.474 136.433C113.378 136.345 113.267 136.28 113.149 136.243H113.155Z" fill="#2E353A"/>
<path opacity="0.3" d="M113.155 136.243L90.0406 126.89L113.155 117.543C113.273 117.506 113.384 117.441 113.48 117.354C113.576 117.266 113.654 117.156 113.711 117.032C113.768 116.908 113.802 116.772 113.811 116.632C113.819 116.493 113.803 116.353 113.762 116.221C113.72 116.089 113.656 115.968 113.572 115.866C113.488 115.764 113.386 115.682 113.273 115.627C113.16 115.571 113.038 115.543 112.915 115.543C112.792 115.543 112.67 115.573 112.557 115.629L87.3716 125.81L62.1916 115.629C62.0789 115.573 61.9572 115.543 61.8341 115.543C61.711 115.543 61.5891 115.571 61.4761 115.627C61.3631 115.682 61.2614 115.764 61.1774 115.866C61.0933 115.968 61.0287 116.089 60.9875 116.221C60.9464 116.353 60.9296 116.493 60.9382 116.632C60.9468 116.772 60.9807 116.908 61.0377 117.032C61.0946 117.156 61.1735 117.266 61.2693 117.354C61.3651 117.441 61.4758 117.506 61.5945 117.543L84.6965 126.89L61.5885 136.243C61.4698 136.28 61.3591 136.345 61.2633 136.433C61.1675 136.521 61.0886 136.63 61.0317 136.754C60.9747 136.878 60.9409 137.014 60.9323 137.154C60.9236 137.293 60.9404 137.433 60.9816 137.565C61.0227 137.697 61.0873 137.818 61.1714 137.92C61.2555 138.023 61.3572 138.104 61.4701 138.16C61.5831 138.215 61.705 138.244 61.8281 138.243C61.9512 138.243 62.0729 138.214 62.1857 138.157L87.3656 127.976L112.551 138.157C112.664 138.214 112.786 138.243 112.909 138.243C113.032 138.244 113.154 138.215 113.267 138.16C113.38 138.104 113.482 138.023 113.566 137.92C113.65 137.818 113.714 137.697 113.756 137.565C113.797 137.433 113.814 137.293 113.805 137.154C113.796 137.014 113.762 136.878 113.705 136.754C113.648 136.63 113.57 136.521 113.474 136.433C113.378 136.345 113.267 136.28 113.149 136.243H113.155Z" fill="white"/>
<path d="M93.2354 52.9441C92.9978 52.9441 92.77 52.8368 92.6021 52.6459C92.4341 52.4549 92.3397 52.196 92.3397 51.9259V44.1268C92.3382 42.6328 92.843 41.1956 93.7492 40.1136C94.6554 39.0316 95.8934 38.388 97.2061 38.3165L102.992 37.9974C103.23 37.9848 103.462 38.08 103.638 38.2621C103.813 38.4441 103.918 38.6981 103.93 38.9681C103.941 39.2381 103.857 39.5021 103.697 39.702C103.537 39.9018 103.313 40.0212 103.076 40.0338L97.2957 40.3528C96.4424 40.3982 95.6373 40.8158 95.0479 41.5187C94.4585 42.2216 94.1301 43.1557 94.131 44.1268V51.9259C94.131 52.196 94.0367 52.4549 93.8687 52.6459C93.7007 52.8368 93.4729 52.9441 93.2354 52.9441Z" fill="#263238"/>
<path d="M58.5373 158.059C56.2862 158.059 54.4531 160.611 54.4531 163.754C54.4531 166.897 56.2862 169.442 58.5373 169.442C60.7884 169.442 62.6275 166.89 62.6275 163.754C62.6275 160.618 60.7944 158.059 58.5373 158.059Z" fill="#2E353A"/>
<path d="M58.5374 167.413C57.2954 167.413 56.2445 165.736 56.2445 163.754C56.2445 161.772 57.2954 160.095 58.5374 160.095C59.7794 160.095 60.8362 161.765 60.8362 163.754C60.8362 165.743 59.7973 167.413 58.5374 167.413Z" fill="#FFC727"/>
<path d="M58.0062 164.026V157.591H62.0606L59.9289 164.379C59.8608 164.598 59.7346 164.787 59.5678 164.921C59.4009 165.054 59.2016 165.126 58.9974 165.125C58.7386 165.125 58.4901 165.01 58.3049 164.805C58.1196 164.6 58.0125 164.32 58.0062 164.026Z" fill="#2E353A"/>
<path opacity="0.6" d="M58.0062 164.026V157.591H62.0606L59.9289 164.379C59.8608 164.598 59.7346 164.787 59.5678 164.921C59.4009 165.054 59.2016 165.126 58.9974 165.125C58.7386 165.125 58.4901 165.01 58.3049 164.805C58.1196 164.6 58.0125 164.32 58.0062 164.026Z" fill="white"/>
<path d="M73.4354 78.6964L71.4948 82.5926C71.4948 82.5926 42.9113 82.6401 37.3045 89.0817C31.6977 95.5233 24.3712 115.554 24.3712 115.554L35.2744 120.21L47.4434 100.417L85.3954 103.261L89.1034 78.0923L73.4354 78.6964Z" fill="#263238"/>
<path opacity="0.2" d="M89.1092 78.0723L85.4012 103.241L63.5531 101.605L47.4313 100.397L42.326 108.712L35.2563 120.251L24.3472 115.595C24.3472 115.595 31.6737 95.5711 37.2864 89.1227C42.8992 82.6744 71.4767 82.6336 71.4767 82.6336L73.4173 78.7375L89.1092 78.0723Z" fill="white"/>
<path opacity="0.2" d="M63.5532 101.605L47.4313 100.397L42.3261 108.712C41.5678 104.022 40.7438 93.3854 42.9232 89.8151C45.7356 85.1858 64.1085 84.0251 72.7008 84.6835C77.7822 85.0704 72.3366 94.2068 63.5532 101.605Z" fill="black"/>
<path d="M79.0004 40.6105C77.7107 49.8894 76.3612 59.0664 73.9608 68.1281C72.4502 73.6872 59.7079 78.3572 55.0505 79.9863C54.6207 80.1311 54.1592 80.0925 53.7527 79.8777C53.3462 79.6628 53.0227 79.2867 52.843 78.8198C52.6634 78.3529 52.6399 77.8276 52.777 77.3424C52.9141 76.8572 53.2024 76.4457 53.5876 76.1851C56.6806 74.0945 59.8274 72.0039 62.789 69.8589C64.3295 68.7254 66.9687 66.7569 67.7032 65.6098C67.6613 65.7017 67.6253 65.797 67.5957 65.8949C67.5957 65.8474 67.6674 65.5419 67.6793 65.4808C69.3034 56.9011 70.3185 47.9548 71.7157 39.2733C72.701 33.9178 79.5438 35.1531 79.0004 40.6308V40.6105Z" fill="#DD8A7D"/>
<path d="M76.5166 31.9495C72.3368 32.6282 70.0081 36.4022 68.2885 52.496L79.1558 55.4147C79.1558 55.4147 82.3443 45.6607 82.2249 41.0179C82.1055 36.3751 76.5166 31.9495 76.5166 31.9495Z" fill="#FFC727"/>
<path opacity="0.2" d="M79.1436 55.4147L77.7881 55.0482L71.4946 53.3581L68.2822 52.496C69.9959 36.4022 72.2948 32.6215 76.5044 31.9495C76.5044 31.9495 82.0992 36.3819 82.2187 41.0179C82.3381 45.6539 79.1436 55.4147 79.1436 55.4147Z" fill="white"/>
<path opacity="0.2" d="M77.788 55.0482L71.4945 53.358C72.0558 50.4529 73.7038 43.5022 76.8267 42.3754C79.9495 41.2487 82.7141 52.4213 77.788 55.0482Z" fill="black"/>
<path d="M56.3044 152.181L62.1441 150.566L61.7739 144.083L61.4156 138.144L54.2981 139.21L55.355 146.079L56.3044 152.181Z" fill="#E4897B"/>
<path opacity="0.2" d="M55.3847 146.215L61.7976 144.205L61.4334 138.205L54.304 139.237L55.3847 146.215Z" fill="black"/>
<path d="M62.365 148.807C62.3351 148.305 55.355 148.984 55.355 148.984C55.355 148.984 51.1752 153.057 47.0254 154.088C42.8755 155.12 45.2818 157.265 49.9512 157.082L61.4992 156.607C64.8191 156.471 62.6636 154.041 62.365 148.807Z" fill="#2E353A"/>
<path d="M101.595 78.4591C101.595 78.4591 104.228 99.1686 98.0957 106.649C91.9634 114.129 60.7766 103.384 59.8332 103.934C58.8897 104.483 62.144 141.823 62.144 141.823L52.9844 143.337C52.9844 143.337 43.0366 105.169 43.2575 94.0845C43.4785 83.0001 76.6954 84.2423 76.6954 84.2423L78.6121 78.4591H101.595Z" fill="#2E353A"/>
<path opacity="0.2" d="M101.595 78.4591C101.595 78.4591 104.228 99.1686 98.0957 106.649C91.9634 114.129 60.7766 103.384 59.8332 103.934C58.8897 104.483 62.144 141.823 62.144 141.823L52.9844 143.337C52.9844 143.337 43.0366 105.169 43.2575 94.0845C43.4785 83.0001 76.6954 84.2423 76.6954 84.2423L78.6121 78.4591H101.595Z" fill="white"/>
<path d="M101.72 78.6967C102.467 60.4444 107.19 34.6169 107.19 34.6169C94.0893 31.0262 76.4986 31.9018 76.4986 31.9018C73.0712 45.8371 73.1369 68.325 73.4354 78.6695L101.72 78.6967Z" fill="#FFC727"/>
<path opacity="0.2" d="M101.714 78.6967C101.959 72.8117 102.61 66.1393 103.386 59.7995C103.828 56.1885 104.312 52.686 104.777 49.4957C106.037 40.9228 107.166 34.6169 107.166 34.6169C94.0654 31.0262 76.4806 31.9018 76.4806 31.9018C73.0532 45.8371 73.113 68.325 73.4115 78.6695L101.714 78.6967Z" fill="white"/>
<path opacity="0.2" d="M104.777 49.5093C104.312 52.6995 103.828 56.202 103.386 59.8131C102.503 57.9232 101.997 55.8355 101.903 53.6982C101.809 51.5609 102.13 49.4263 102.843 47.4458L104.777 49.5093Z" fill="black"/>
<path d="M96.818 32.6215C94.3938 35.1262 88.4586 34.2031 88.4586 34.2031C88.4586 34.2031 84.7505 33.0492 85.5268 31.7323C87.7122 31.3183 88.769 30.1644 89.2049 28.6778C89.4461 27.761 89.5213 26.7981 89.4259 25.8474C89.3897 25.3148 89.3299 24.7847 89.2467 24.259L96.5852 18.0822C95.6238 22.1616 94.4296 29.6689 96.818 32.6215Z" fill="#E4897B"/>
<path opacity="0.2" d="M94.8655 22.0122C94.5729 27.0148 90.9544 28.3995 89.181 28.6778C89.4222 27.761 89.4973 26.7981 89.402 25.8473L94.8655 22.0122Z" fill="black"/>
<path d="M83.6278 5.25305C83.6278 5.25305 81.6095 13.0522 84.9593 16.6972C88.3091 20.3422 90.0944 5.5042 90.0944 5.5042L83.6278 5.25305Z" fill="#263238"/>
<path d="M95.0266 24.7C94.0909 25.8919 92.8365 26.701 91.4565 27.0028C90.0765 27.3045 88.6475 27.0821 87.3896 26.3698C85.7493 25.4845 84.468 23.9211 83.807 21.9985C83.712 21.7324 83.6303 21.4605 83.5622 21.1839C82.3142 16.032 82.7561 7.42516 87.6703 4.93405C88.753 4.37809 89.9428 4.14631 91.1265 4.26078C92.3103 4.37526 93.4486 4.83217 94.4331 5.58804C95.4176 6.34391 96.2156 7.37359 96.7512 8.57912C97.2867 9.78464 97.542 11.1259 97.4927 12.4753C97.3195 18.2856 97.4867 21.6795 95.0266 24.7Z" fill="#E4897B"/>
<path d="M89.7839 14.3826C89.8257 14.851 89.5929 15.2447 89.3182 15.2514C89.0435 15.2582 88.8166 14.8849 88.8047 14.4166C88.7927 13.9482 89.0017 13.5613 89.2704 13.5477C89.5391 13.5341 89.766 13.9075 89.7839 14.3826Z" fill="#263238"/>
<path d="M85.1087 14.5591C85.1505 15.0275 84.9117 15.4211 84.643 15.4279C84.3743 15.4347 84.1414 15.0614 84.1235 14.593C84.1056 14.1247 84.3205 13.7378 84.5892 13.7242C84.8579 13.7106 85.0908 14.1179 85.1087 14.5591Z" fill="#263238"/>
<path d="M86.6015 14.7357C86.1487 16.1845 85.5218 17.555 84.7385 18.8084C85.0301 19.03 85.361 19.1759 85.7077 19.2357C86.0545 19.2955 86.4085 19.2678 86.7448 19.1545L86.6015 14.7357Z" fill="#DE5753"/>
<path d="M83.3055 12.3531C83.3444 12.3794 83.3887 12.3933 83.4339 12.3933C83.4791 12.3933 83.5235 12.3794 83.5623 12.3531C83.8109 12.1544 84.0967 12.0241 84.3972 11.9723C84.6977 11.9204 85.0046 11.9486 85.2939 12.0544C85.3227 12.07 85.3541 12.0786 85.386 12.0798C85.4179 12.081 85.4497 12.0747 85.4794 12.0613C85.509 12.0479 85.536 12.0278 85.5585 12.0021C85.581 11.9764 85.5987 11.9457 85.6104 11.9119C85.6232 11.879 85.6301 11.8434 85.6307 11.8074C85.6313 11.7714 85.6256 11.7357 85.6139 11.7022C85.6023 11.6687 85.5848 11.6382 85.5627 11.6124C85.5406 11.5867 85.5141 11.5662 85.485 11.5521C85.1222 11.4047 84.7335 11.3591 84.3519 11.4194C83.9703 11.4797 83.6072 11.644 83.2936 11.8983C83.2663 11.9164 83.2426 11.9406 83.2238 11.9694C83.205 11.9983 83.1916 12.0311 83.1843 12.0661C83.1771 12.101 83.1761 12.1372 83.1816 12.1725C83.187 12.2079 83.1987 12.2416 83.216 12.2716C83.2416 12.3044 83.2718 12.3319 83.3055 12.3531Z" fill="#263238"/>
<path d="M90.6438 12.2243C90.6936 12.2185 90.7411 12.1974 90.7811 12.1632C90.8015 12.1353 90.8168 12.103 90.8261 12.0683C90.8353 12.0336 90.8384 11.9972 90.835 11.9611C90.8317 11.9251 90.822 11.8901 90.8066 11.8584C90.7912 11.8266 90.7704 11.7987 90.7453 11.7763C90.4475 11.495 90.0948 11.299 89.7166 11.2045C89.3385 11.11 88.946 11.1199 88.5719 11.2332C88.5111 11.2578 88.4613 11.3087 88.4334 11.3748C88.4054 11.4409 88.4015 11.5169 88.4226 11.5862C88.4442 11.6537 88.488 11.7091 88.5448 11.7407C88.6016 11.7723 88.6669 11.7778 88.7271 11.7559C89.0247 11.677 89.3343 11.6776 89.6317 11.7577C89.929 11.8378 90.206 11.9952 90.4408 12.2175C90.4721 12.2355 90.5065 12.2454 90.5416 12.2466C90.5767 12.2478 90.6116 12.2402 90.6438 12.2243Z" fill="#263238"/>
<path d="M93.51 5.38904L93.2054 7.93445C93.5812 8.14612 93.8729 8.51109 94.0223 8.9565C94.1717 9.4019 94.1679 9.89498 94.0115 10.3373C93.2592 12.4687 94.2922 15.8082 95.7193 17.159C95.7193 17.159 95.773 16.2291 96.4597 16.4802C97.1463 16.7314 96.8956 21.5439 95.5222 23.8314C95.5222 23.8314 97.5822 21.7951 98.7944 16.7178C99.9169 12.0478 100.096 8.13809 99.272 6.30539L93.51 5.38904Z" fill="#263238"/>
<path d="M99.8036 17.1249C99.5438 17.7835 99.1722 18.3774 98.7101 18.8724C98.248 19.3675 97.7045 19.754 97.1107 20.0097C95.5224 20.6885 94.5849 19.1069 94.9014 17.2946C95.1999 15.7063 96.3703 13.3848 98.0302 13.5002C99.6902 13.6156 100.437 15.489 99.8036 17.1249Z" fill="#E4897B"/>
<path d="M93.2355 7.95463C93.2355 7.95463 81.574 10.5883 83.8609 2.23934C83.8609 2.23934 90.3515 -0.883024 95.4687 1.0447C100.586 2.97242 99.4394 9.08819 99.4394 9.08819L93.2355 7.95463Z" fill="#263238"/>
<path d="M87.2046 21.9647C87.1673 21.9738 87.1286 21.9738 87.0912 21.9647C87.041 21.9283 87.005 21.8714 86.9906 21.8057C86.9762 21.7401 86.9844 21.6707 87.0136 21.6117C87.0554 21.537 88.0287 19.8062 90.7156 19.6908C90.7481 19.6847 90.7813 19.6868 90.813 19.6968C90.8447 19.7068 90.8741 19.7245 90.8992 19.7487C90.9243 19.7729 90.9444 19.8031 90.9582 19.837C90.9721 19.871 90.9792 19.9079 90.9792 19.9453C90.9792 19.9827 90.9721 20.0197 90.9582 20.0536C90.9444 20.0876 90.9243 20.1177 90.8992 20.1419C90.8741 20.1661 90.8447 20.1838 90.813 20.1938C90.7813 20.2038 90.7481 20.2059 90.7156 20.1999C88.2794 20.3017 87.4136 21.8153 87.3778 21.8832C87.356 21.9104 87.3291 21.9318 87.2992 21.9458C87.2693 21.9599 87.237 21.9663 87.2046 21.9647Z" fill="#263238"/>
<path d="M84.1234 22.8742C84.1234 22.8742 85.9147 25.6776 88.4106 25.7454C90.9065 25.8133 95.0564 20.641 97.4568 20.8107L98.1195 21.7135C98.1195 21.7135 97.409 28.1483 98.1195 29.6688C98.8301 31.1892 101.189 32.8929 101.189 32.8929V33.3274C101.189 33.3274 95.0504 39.8368 87.6463 38.1535C80.2422 36.4701 81.0065 31.8612 81.0065 31.8612L81.7409 31.291C81.7409 31.291 83.9204 30.1167 84.404 28.4198C84.8877 26.7229 83.5382 23.4308 83.5382 23.4308L84.1234 22.8742Z" fill="#FFC727"/>
<path opacity="0.6" d="M84.1234 22.8742C84.1234 22.8742 85.9147 25.6776 88.4106 25.7454C90.9065 25.8133 95.0564 20.641 97.4568 20.8107L98.1195 21.7135C98.1195 21.7135 97.409 28.1483 98.1195 29.6688C98.8301 31.1892 101.189 32.8929 101.189 32.8929V33.3274C101.189 33.3274 95.0504 39.8368 87.6463 38.1535C80.2422 36.4701 81.0065 31.8612 81.0065 31.8612L81.7409 31.291C81.7409 31.291 83.9204 30.1167 84.404 28.4198C84.8877 26.7229 83.5382 23.4308 83.5382 23.4308L84.1234 22.8742Z" fill="white"/>
<path opacity="0.1" d="M96.2209 21.0753L96.818 22.2632C96.818 22.2632 96.5612 27.8291 96.818 29.6211C97.0748 31.4131 99.4811 33.7888 99.4811 33.7888V34.8477L99.1646 33.9178C98.3583 33.4016 97.6728 32.6729 97.1657 31.7929C96.6587 30.9129 96.3449 29.9074 96.2508 28.8609C96.1118 26.7431 96.202 24.6139 96.5194 22.5211L96.2209 21.0753Z" fill="black"/>
<path d="M95.0862 25.3449L97.4388 24.3878V25.7318L95.0862 26.716V25.3449Z" fill="white"/>
<path d="M98.7048 31.2775L98.6212 31.3318L96.4955 32.6554L97.1762 33.9179L99.4571 32.221" fill="white"/>
<path d="M53.9756 75.8118L48.9897 76.4905L52.3156 82.6403C52.3156 82.6403 56.4476 81.018 55.8983 78.4251L53.9756 75.8118Z" fill="#E4897B"/>
<path d="M46.0521 79.7488L49.0138 84.6835L52.3158 82.6132L48.9899 76.4635L46.0521 79.7488Z" fill="#E4897B"/>
<path d="M109.9 39.7688C111.459 46.7059 114.415 61.9987 108.258 66.8316C102.598 70.7074 93.0083 68.2366 87.0791 66.1935C86.6341 66.0505 86.2531 65.7216 86.0124 65.2727C85.7718 64.8239 85.6893 64.2882 85.7814 63.7731C85.8735 63.2579 86.1335 62.8014 86.5093 62.495C86.885 62.1886 87.3488 62.055 87.8075 62.1209C89.3958 62.2091 91.0617 62.3109 92.6739 62.3313C96.3521 62.3313 100.359 62.5078 103.75 61.0688C104.013 60.9462 104.26 60.7841 104.485 60.5868C104.252 60.7633 104.556 60.295 104.634 59.6026C105.231 53.8126 103.816 47.5204 102.753 41.8323C101.822 36.5039 108.461 34.5829 109.918 39.7959L109.9 39.7688Z" fill="#DD8A7D"/>
<path d="M107.19 34.6373C110.874 35.9949 112.396 40.9907 113.525 54.2607L103.326 55.2789C103.326 55.2789 100.341 45.81 100.878 40.7395C101.416 35.6691 107.19 34.6373 107.19 34.6373Z" fill="#FFC727"/>
<path opacity="0.2" d="M107.19 34.6373C110.874 35.9949 112.396 40.9907 113.525 54.2607L103.326 55.2789C103.326 55.2789 100.341 45.81 100.878 40.7395C101.416 35.6691 107.19 34.6373 107.19 34.6373Z" fill="white"/>
<path d="M79.9318 58.1298C77.5732 58.2791 76.6238 63.1934 76.8627 67.0217C77.1015 70.85 83.7115 70.307 83.7115 70.307C83.7115 70.307 98.8302 74.1557 106.7 72.004C114.57 69.8523 113.471 57.3288 113.471 57.3288C113.471 57.3288 112.277 56.65 107.727 56.3039C103.177 55.9577 102.759 56.8808 102.759 56.8808C102.759 56.8808 103.356 59.1004 101.875 59.8199C100.395 60.5394 85.5983 57.7768 79.9318 58.1298Z" fill="#FFC727"/>
<path opacity="0.6" d="M79.9318 58.1298C77.5732 58.2791 76.6238 63.1934 76.8627 67.0217C77.1015 70.85 83.7115 70.307 83.7115 70.307C83.7115 70.307 98.8302 74.1557 106.7 72.004C114.57 69.8523 113.471 57.3288 113.471 57.3288C113.471 57.3288 112.277 56.65 107.727 56.3039C103.177 55.9577 102.759 56.8808 102.759 56.8808C102.759 56.8808 103.356 59.1004 101.875 59.8199C100.395 60.5394 85.5983 57.7768 79.9318 58.1298Z" fill="white"/>
<path d="M80.4574 31.5895C80.4574 31.5895 81.7113 38.8863 85.8791 48.6743C90.3872 59.2768 99.4572 65.474 99.4572 65.474L97.4569 67.0216C97.4569 67.0216 88.9661 59.8198 83.9444 49.3055C81.4039 43.8292 79.6501 37.9263 78.7496 31.8203L80.4574 31.5895Z" fill="#263238"/>
<path d="M97.9106 67.6666L100.168 65.9833C100.168 65.9833 103.697 67.3408 106.139 67.0218C108.581 66.7028 110.372 66.6553 111.907 68.3386C110.9 69.942 109.558 71.2351 108.001 72.1014C106.445 72.9676 104.723 73.3797 102.992 73.3005C96.8477 73.1715 94.8534 72.6557 94.8534 72.6557C94.7869 71.9996 94.9523 71.3404 95.3132 70.823C95.9162 70.0831 97.9106 67.6666 97.9106 67.6666Z" fill="#FFC727"/>
<path d="M97.8452 68.4335C97.7403 68.434 97.6367 68.408 97.5417 68.3575C97.4467 68.3071 97.3628 68.2334 97.2958 68.1417L96.9256 67.6326C96.86 67.547 96.8115 67.4462 96.7837 67.3372C96.7559 67.2281 96.7493 67.1135 96.7644 67.0013C96.7785 66.8896 96.8128 66.7825 96.8652 66.6866C96.9176 66.5908 96.987 66.5085 97.0689 66.4447L99.0095 64.9175C99.1439 64.812 99.306 64.7619 99.4689 64.7755C99.6318 64.7891 99.7857 64.8655 99.9052 64.9921L100.347 65.4605C100.429 65.5456 100.491 65.6516 100.529 65.7696C100.568 65.8876 100.581 66.0143 100.568 66.1393C100.562 66.2599 100.531 66.3772 100.478 66.482C100.425 66.5869 100.352 66.6763 100.263 66.7434L98.2452 68.3114C98.1256 68.3967 97.9863 68.4393 97.8452 68.4335ZM97.4033 67.0013C97.39 67.0125 97.3788 67.0267 97.3706 67.0431C97.3624 67.0595 97.3572 67.0776 97.3555 67.0963C97.3467 67.1295 97.3467 67.165 97.3555 67.1982L97.7257 67.7072C97.7477 67.7301 97.7765 67.7428 97.8063 67.7428C97.8362 67.7428 97.8649 67.7301 97.8869 67.7072L99.8992 66.1461C99.9144 66.1348 99.9271 66.1198 99.9364 66.1022C99.9457 66.0845 99.9513 66.0647 99.9529 66.0442C99.9544 66.0242 99.9519 66.0041 99.9457 65.9854C99.9395 65.9666 99.9298 65.9496 99.9171 65.9356L99.4752 65.4673C99.4541 65.448 99.4277 65.4375 99.4006 65.4375C99.3735 65.4375 99.3472 65.448 99.326 65.4673L97.4033 67.0013Z" fill="white"/>
<path d="M27.7567 102.528L42.9292 110.986C42.9292 110.986 25.5534 146.126 22.7231 148.013C19.8929 149.9 0.845198 142.631 0.761603 139.943C0.678009 137.255 2.87536 132.395 2.87536 132.395L13.9039 133.474L27.7567 102.528Z" fill="#FFC727"/>
<path opacity="0.6" d="M27.7567 102.528L42.9292 110.986C42.9292 110.986 25.5534 146.126 22.7231 148.013C19.8929 149.9 0.845198 142.631 0.761603 139.943C0.678009 137.255 2.87536 132.395 2.87536 132.395L13.9039 133.474L27.7567 102.528Z" fill="white"/>
<path d="M74.1282 94.0844H71.7397V84.181C71.7413 82.9635 72.1679 81.7964 72.9258 80.9361C73.6838 80.0757 74.7111 79.5925 75.7822 79.5925H118.314V82.3076H75.806C75.3684 82.3076 74.9486 82.5048 74.6386 82.8559C74.3286 83.2071 74.1536 83.6836 74.152 84.181L74.1282 94.0844Z" fill="#263238"/>
<g opacity="0.4">
<path d="M74.1282 94.0844H71.7397V84.181C71.7413 82.9635 72.1679 81.7964 72.9258 80.9361C73.6838 80.0757 74.7111 79.5925 75.7822 79.5925H118.314V82.3076H75.806C75.3684 82.3076 74.9486 82.5048 74.6386 82.8559C74.3286 83.2071 74.1536 83.6836 74.152 84.181L74.1282 94.0844Z" fill="white"/>
</g>
<path d="M118.314 52.9441C118.076 52.9441 117.849 52.8368 117.681 52.6459C117.513 52.4549 117.418 52.196 117.418 51.9259V44.1268C117.417 42.6328 117.921 41.1956 118.828 40.1136C119.734 39.0316 120.972 38.388 122.285 38.3165L128.071 37.9974C128.188 37.9912 128.306 38.0114 128.417 38.0568C128.527 38.1022 128.629 38.1719 128.716 38.2621C128.803 38.3522 128.874 38.4609 128.924 38.5821C128.974 38.7032 129.003 38.8344 129.008 38.9681C129.014 39.1018 128.996 39.2354 128.956 39.3613C128.916 39.4873 128.855 39.603 128.775 39.702C128.696 39.8009 128.6 39.8812 128.494 39.9381C128.387 39.995 128.272 40.0275 128.154 40.0338L122.374 40.3528C121.521 40.3982 120.716 40.8158 120.126 41.5187C119.537 42.2216 119.209 43.1557 119.21 44.1268V51.9259C119.21 52.196 119.115 52.4549 118.947 52.6459C118.779 52.8368 118.551 52.9441 118.314 52.9441Z" fill="#263238"/>
<path d="M116.839 48.2061V90.2359H70.8618C69.6709 90.2359 68.5288 90.7737 67.6867 91.7309C66.8447 92.6882 66.3716 93.9865 66.3716 95.3403V117.998H114.415C115.128 117.999 115.834 117.84 116.494 117.53C117.153 117.22 117.752 116.766 118.256 116.193C118.761 115.62 119.161 114.94 119.435 114.19C119.708 113.441 119.848 112.639 119.848 111.828V48.2061C119.847 47.75 119.686 47.3132 119.402 46.9913C119.118 46.6695 118.733 46.4888 118.332 46.4888C117.935 46.4959 117.556 46.6797 117.277 47.0008C116.998 47.3219 116.84 47.7547 116.839 48.2061Z" fill="#2E353A"/>
<path opacity="0.4" d="M116.839 48.2061V90.2359H70.8618C69.6709 90.2359 68.5288 90.7737 67.6867 91.7309C66.8447 92.6882 66.3716 93.9865 66.3716 95.3403V117.998H114.415C115.128 117.999 115.834 117.84 116.494 117.53C117.153 117.22 117.752 116.766 118.256 116.193C118.761 115.62 119.161 114.94 119.435 114.19C119.708 113.441 119.848 112.639 119.848 111.828V48.2061C119.847 47.75 119.686 47.3132 119.402 46.9913C119.118 46.6695 118.733 46.4888 118.332 46.4888C117.935 46.4959 117.556 46.6797 117.277 47.0008C116.998 47.3219 116.84 47.7547 116.839 48.2061Z" fill="white"/>
<path d="M112.886 105.379H71.7396C70.4315 105.379 69.177 105.97 68.252 107.021C67.3271 108.073 66.8075 109.499 66.8075 110.986V154.815C66.8075 155.481 66.5747 156.119 66.1604 156.59C65.7461 157.061 65.1841 157.326 64.5982 157.326H53.1815C52.8648 157.326 52.561 157.469 52.3371 157.724C52.1131 157.978 51.9873 158.324 51.9873 158.684C51.9873 159.044 52.1131 159.389 52.3371 159.643C52.561 159.898 52.8648 160.041 53.1815 160.041H64.6041C65.823 160.039 66.9916 159.488 67.8535 158.508C68.7154 157.529 69.2003 156.2 69.2019 154.815V138.558H112.886C113.203 138.558 113.507 138.415 113.731 138.16C113.954 137.906 114.08 137.56 114.08 137.2V106.737C114.08 106.377 113.954 106.031 113.731 105.777C113.507 105.522 113.203 105.379 112.886 105.379ZM111.692 135.843H69.2019V110.986C69.2019 110.219 69.4698 109.484 69.9469 108.941C70.4239 108.399 71.0709 108.094 71.7455 108.094H111.692V135.843Z" fill="#2E353A"/>
<path opacity="0.6" d="M112.886 105.379H71.7396C70.4315 105.379 69.177 105.97 68.252 107.021C67.3271 108.073 66.8075 109.499 66.8075 110.986V154.815C66.8075 155.481 66.5747 156.119 66.1604 156.59C65.7461 157.061 65.1841 157.326 64.5982 157.326H53.1815C52.8648 157.326 52.561 157.469 52.3371 157.724C52.1131 157.978 51.9873 158.324 51.9873 158.684C51.9873 159.044 52.1131 159.389 52.3371 159.643C52.561 159.898 52.8648 160.041 53.1815 160.041H64.6041C65.823 160.039 66.9916 159.488 67.8535 158.508C68.7154 157.529 69.2003 156.2 69.2019 154.815V138.558H112.886C113.203 138.558 113.507 138.415 113.731 138.16C113.954 137.906 114.08 137.56 114.08 137.2V106.737C114.08 106.377 113.954 106.031 113.731 105.777C113.507 105.522 113.203 105.379 112.886 105.379ZM111.692 135.843H69.2019V110.986C69.2019 110.219 69.4698 109.484 69.9469 108.941C70.4239 108.399 71.0709 108.094 71.7455 108.094H111.692V135.843Z" fill="white"/>
<path d="M63.6429 155.039H44.7385C43.9207 155.039 43.2577 155.792 43.2577 156.722V157.672C43.2577 158.602 43.9207 159.356 44.7385 159.356H63.6429C64.4607 159.356 65.1237 158.602 65.1237 157.672V156.722C65.1237 155.792 64.4607 155.039 63.6429 155.039Z" fill="#2E353A"/>
<path opacity="0.4" d="M63.6429 155.039H44.7385C43.9207 155.039 43.2577 155.792 43.2577 156.722V157.672C43.2577 158.602 43.9207 159.356 44.7385 159.356H63.6429C64.4607 159.356 65.1237 158.602 65.1237 157.672V156.722C65.1237 155.792 64.4607 155.039 63.6429 155.039Z" fill="white"/>
<path d="M112.85 169.442C100.09 169.442 89.7064 154.978 89.7064 137.2C89.7064 119.423 100.09 104.952 112.85 104.952C125.61 104.952 136 119.417 136 137.2C136 154.984 125.616 169.442 112.85 169.442ZM112.85 108.352C101.732 108.352 92.6919 121.297 92.6919 137.207C92.6919 153.118 101.732 166.055 112.85 166.055C123.968 166.055 133.014 153.118 133.014 137.207C133.014 121.297 123.968 108.346 112.85 108.346V108.352Z" fill="#2E353A"/>
<path d="M112.85 166.388C101.571 166.388 92.3933 153.294 92.3933 137.2C92.3933 121.107 101.571 108.013 112.85 108.013C124.129 108.013 133.313 121.113 133.313 137.2C133.313 153.287 124.135 166.388 112.85 166.388ZM112.85 112.086C103.547 112.086 95.9759 123.353 95.9759 137.2C95.9759 151.047 103.547 162.315 112.85 162.315C122.153 162.315 129.73 151.047 129.73 137.2C129.73 123.353 122.159 112.079 112.85 112.079V112.086Z" fill="#FFC727"/>
<path d="M112.85 145.19C115.851 145.19 118.284 141.613 118.284 137.2C118.284 132.788 115.851 129.211 112.85 129.211C109.849 129.211 107.417 132.788 107.417 137.2C107.417 141.613 109.849 145.19 112.85 145.19Z" fill="#FFC727"/>
<path d="M113.447 110.043H112.253V164.351H113.447V110.043Z" fill="#FFC727"/>
<path d="M131.528 136.521H94.1846V137.879H131.528V136.521Z" fill="#FFC727"/>
<path d="M100.117 117.588L99.1759 118.424L125.58 156.829L126.521 155.993L100.117 117.588Z" fill="#FFC727"/>
<path d="M125.586 117.576L99.1757 155.975L100.116 156.812L126.527 118.412L125.586 117.576Z" fill="#FFC727"/>
<path d="M119.56 111.988L105.031 162.018L106.165 162.444L120.694 112.413L119.56 111.988Z" fill="#FFC727"/>
<path d="M95.9409 126.036L95.3727 127.23L129.768 148.38L130.336 147.185L95.9409 126.036Z" fill="#FFC727"/>
<path d="M106.392 111.847L105.254 112.257L119.289 162.584L120.427 162.174L106.392 111.847Z" fill="#FFC727"/>
<path d="M129.87 126.396L95.2709 146.818L95.8212 148.023L130.42 127.601L129.87 126.396Z" fill="#FFC727"/>
</svg>
