<svg width="48" height="53" viewBox="0 0 48 53" fill="none" xmlns="http://www.w3.org/2000/svg">
<path d="M30.4074 35.087H10.642L0.759277 52.6304V17.5435C0.759277 7.854 8.50275 0 18.0538 0H30.4074C39.9593 0 47.7019 7.85497 47.7019 17.5435C47.7028 27.233 39.9593 35.087 30.4074 35.087Z" fill="#F9A58F"/>
<path d="M15.2743 22.53C16.6246 22.53 17.7193 21.4196 17.7193 20.0499C17.7193 18.6801 16.6246 17.5697 15.2743 17.5697C13.924 17.5697 12.8293 18.6801 12.8293 20.0499C12.8293 21.4196 13.924 22.53 15.2743 22.53Z" fill="#FFF8ED"/>
<path d="M24.8283 22.53C26.1786 22.53 27.2732 21.4196 27.2732 20.0499C27.2732 18.6801 26.1786 17.5697 24.8283 17.5697C23.4779 17.5697 22.3833 18.6801 22.3833 20.0499C22.3833 21.4196 23.4779 22.53 24.8283 22.53Z" fill="#FFF8ED"/>
<path d="M34.4484 22.53C35.7987 22.53 36.8933 21.4196 36.8933 20.0499C36.8933 18.6801 35.7987 17.5697 34.4484 17.5697C33.0981 17.5697 32.0034 18.6801 32.0034 20.0499C32.0034 21.4196 33.0981 22.53 34.4484 22.53Z" fill="#FFF8ED"/>
</svg>
