<svg width="83" height="208" viewBox="0 0 83 208" fill="none" xmlns="http://www.w3.org/2000/svg">
<path d="M51.8608 199.991C50.6747 199.693 47.4667 199.141 45.5913 198.526C43.271 197.764 41.6126 196.993 41.1585 196.779C39.9934 196.229 39.1387 195.826 38.1187 195.145C36.0025 193.732 36.1321 193.098 34.8891 192.384C32.5723 191.053 28.6815 191.28 26.4032 193.117C24.9337 194.301 24.4303 195.918 24.2501 196.497C23.9144 197.576 23.9244 198.46 23.9334 199.258C23.954 201.068 23.9642 201.974 24.5667 202.583C25.4485 203.474 26.8262 203.032 30.6461 203.033C31.16 203.034 32.9941 203.146 36.6622 203.372C38.6926 203.496 39.746 203.579 43.5648 203.822C43.9219 203.845 47.7963 204.072 50.9742 203.315C51.2313 203.254 52.7913 202.869 52.874 202.188C52.9042 201.94 52.7461 200.657 52.6206 200.442C52.4463 200.143 52.0499 200.038 51.8608 199.991Z" fill="#17253F"/>
<path d="M29.8896 199.34C29.7017 199.004 28.816 197.42 29.5191 196.621C30.0681 195.997 31.2087 196.279 32.5752 196.126C33.6707 196.004 35.1622 195.572 36.8686 194.193C35.9788 193.4 35.8116 192.914 34.8891 192.384C32.5723 191.053 28.6815 191.28 26.4032 193.117C24.9337 194.301 24.4303 195.918 24.2501 196.497C23.9144 197.576 23.9244 198.46 23.9334 199.258C23.954 201.068 23.9642 201.974 24.5667 202.583C25.4485 203.474 26.8262 203.032 30.6461 203.033C31.16 203.034 32.994 203.146 36.6622 203.372C38.6926 203.496 39.746 203.579 43.5648 203.822C43.9219 203.845 47.7963 204.072 50.9742 203.315C51.2313 203.254 52.7913 202.869 52.874 202.188C52.8857 202.092 52.869 201.84 52.837 201.554C44.6243 202.109 31.6542 202.496 29.8896 199.34Z" fill="#0C1628"/>
<path d="M47.2946 201.343C44.9337 201.534 42.9953 201.433 40.2021 201.287C38.3751 201.191 38.0752 201.116 34.186 200.836C32.1638 200.69 30.3131 200.557 29.0565 200.498C27.7059 200.435 25.9953 200.409 23.9523 200.507C23.994 201.522 24.116 202.134 24.5602 202.583C25.442 203.474 26.8197 203.032 30.6397 203.034C31.1535 203.034 32.9876 203.146 36.6557 203.372C38.6862 203.496 39.7395 203.579 43.5583 203.823C43.9154 203.845 47.7898 204.072 50.9677 203.315C51.2248 203.254 52.7848 202.869 52.8675 202.188C52.8969 201.947 52.7482 200.729 52.6245 200.465C50.4762 200.999 48.6518 201.233 47.2946 201.343Z" fill="#04041C"/>
<path d="M44.0289 94.6217C33.4639 100.882 40.3115 102.824 38.7573 99.9909C35.1406 93.3992 34.0996 92.5774 28.1671 99.2002C25.2014 102.511 27.6247 105.506 28.0324 121.655C28.1051 124.534 26.6633 124.316 25.9896 131.856C24.8217 144.927 24.2319 151.338 23.2386 163.682C22.0041 179.021 23.2027 185.022 24.0828 193.686C24.2101 194.939 38.0892 194.499 37.4183 191.708C36.4148 187.535 37.1269 172.78 38.3458 164.551C38.7863 161.578 39.1919 159.58 39.4335 158.453C39.5403 157.955 40.9039 151.743 41.9198 148.344C43.7117 142.35 50.1397 91.0009 44.0289 94.6217Z" fill="#121251"/>
<path d="M23.2386 163.682C24.232 151.338 24.8217 144.927 25.9896 131.856C26.6632 124.316 28.1051 124.534 28.0324 121.655C27.6246 105.505 25.2014 102.511 28.1671 99.2002C33.8879 92.8137 35.0604 93.3509 38.3799 99.3083C37.0031 101.636 39.8111 101.912 38.7572 99.9909C38.6282 99.7557 38.5027 99.5288 38.3799 99.3083C39.0334 98.2034 40.6285 96.6366 44.0289 94.6217C46.798 92.9809 46.9923 102.628 46.2101 114.227C44.7384 114.52 43.036 115.079 41.4151 116.14C39.8813 117.145 38.563 118.506 36.912 121.483C34.5506 125.74 33.7574 129.248 32.9093 132.761C30.5133 142.685 30.6271 140.436 29.2402 146.858C28.5201 150.192 27.2919 155.947 26.5717 162.588C25.5358 172.139 26.0062 179.325 26.5717 187.37C26.7228 189.519 26.9203 191.848 27.179 194.339C25.4132 194.288 24.1211 194.064 24.0828 193.686C23.2027 185.022 22.0041 179.021 23.2386 163.682Z" fill="#0D0D47"/>
<path d="M28.0097 202.375C27.352 202.17 25.5726 201.597 23.7668 200.797C21.435 199.765 19.8177 198.692 19.2706 198.318C17.1748 196.887 17.3865 196.567 16.0409 195.726C15.7761 195.561 11.2476 192.799 8.25169 194.318C6.62701 195.141 6.15909 196.865 5.27527 200.121C5.06865 200.883 4.61616 204.922 5.02193 205.361C5.50422 205.883 26.0465 209.756 32.0626 206.714C32.278 206.605 32.7637 206.509 32.9492 206.15C32.9879 206.076 32.5697 204.08 32.5059 204.009C32.1753 203.643 29.1641 202.735 28.0097 202.375Z" fill="#1E2F47"/>
<path d="M16.0409 195.726C15.776 195.561 11.2476 192.799 8.25166 194.318C6.62699 195.141 6.15907 196.865 5.27525 200.121C5.06863 200.883 4.61615 204.922 5.02196 205.361C5.19718 205.551 8.02178 206.183 11.8354 206.765C10.2067 205.004 8.89864 203.12 8.79561 201.54C8.76529 201.075 8.70621 200.167 9.35129 199.563C10.3858 198.593 12.1873 199.383 14.5373 198.986C15.448 198.832 16.6967 198.456 18.104 197.454C17.1871 196.703 17.0621 196.365 16.0409 195.726Z" fill="#131E35"/>
<path d="M28.8962 204.967C28.1491 205.105 26.0499 205.459 21.7402 205.305C17.2351 205.144 13.7659 204.551 10.3414 203.953C8.15914 203.572 6.31063 203.192 4.9171 202.887C4.8306 204.038 4.82047 205.143 5.02181 205.361C5.5041 205.883 26.0464 209.756 32.0625 206.714C32.2778 206.605 32.7636 206.509 32.9491 206.15C32.9866 206.078 32.594 204.197 32.5125 204.021C31.5091 204.363 30.2949 204.708 28.8962 204.967Z" fill="#04041C"/>
<path d="M10.2298 101.939C7.21462 105.215 9.59274 108.238 9.75818 124.391C9.78765 127.27 9.83747 133.856 9.05069 141.387C7.68675 154.443 5.51266 154.026 4.33421 166.356C2.86969 181.68 3.97811 187.694 4.72803 196.368C4.83652 197.623 18.7211 197.347 18.0922 194.549C17.1514 190.364 18.0848 175.619 19.427 167.405C19.9121 164.437 20.3477 162.444 20.6062 161.321C20.7204 160.824 21.426 157.782 22.4927 154.396C24.3743 148.423 26.5754 143.933 28.1525 140.128C32.0582 130.704 30.0142 130.604 34.0481 119.145C37.8423 108.367 40.2763 106.679 38.7646 103.828C35.2472 97.1937 16.2611 95.3874 10.2298 101.939Z" fill="#191960"/>
<path d="M10.2298 101.939C7.21462 105.214 8.57305 107.642 8.73844 123.795C8.76796 126.674 9.83747 133.855 9.05069 141.386C7.68675 154.443 5.51266 154.025 4.33421 166.356C2.86969 181.679 3.97811 187.694 4.72803 196.367C4.76452 196.789 6.35563 197.037 8.4281 197.076C7.37195 185.368 7.40568 176.184 8.04002 170.67C8.70009 164.932 9.84218 160.082 9.84218 160.082C10.9426 155.408 11.9602 152.845 13.0311 149.333C14.8229 143.458 15.4906 139.104 16.448 132.86C18.585 118.925 18.1735 105.064 17.8 98.3082C14.6702 98.9048 11.9332 100.088 10.2298 101.939Z" fill="#121251"/>
<path d="M64.1738 52.2327C64.3439 52.0968 65.2586 51.3689 65.535 50.2478C65.7185 49.5033 65.481 49.1519 65.4216 49.0703C65.0745 48.5936 64.3947 48.5185 64.2116 48.4983C63.5946 48.4302 63.1197 48.6436 62.1698 49.0703C61.4024 49.415 61.0188 49.5873 60.6195 49.945C60.0231 50.4793 60.0079 50.8487 59.4474 51.0552C59.2516 51.1274 58.9388 51.137 58.313 51.1561C57.4714 51.1819 57.2996 51.1089 56.914 51.2234C56.7437 51.2741 56.6769 51.3181 56.0443 51.7281C54.8089 52.5289 54.7495 52.5643 54.6453 52.7038C54.3518 53.0964 54.3152 53.4936 54.2672 54.0158C54.2156 54.5763 54.324 54.6713 54.3428 55.4961C54.3632 56.3924 54.239 56.4429 54.305 56.8419C54.4187 57.5287 54.9406 58.3057 55.515 58.5576C57.3057 59.343 60.2994 55.3289 64.1738 52.2327Z" fill="#E28569"/>
<path d="M58.9558 51.3235C59.4881 51.3068 60.0578 51.2448 60.3549 51.5591C60.5976 51.8158 60.5349 52.1931 60.5061 52.3665C60.3953 53.0332 59.8112 53.4378 59.5608 53.6113C59.4139 53.713 58.8524 54.0923 58.0861 54.1496C57.8033 54.1707 57.7433 54.1291 57.519 54.1832C57.0509 54.2959 56.93 54.5686 56.4981 54.856C56.3359 54.964 55.8082 55.3152 55.2503 55.2934C54.8628 55.2784 54.5421 55.0864 54.3042 54.8775C54.2701 54.5587 54.2325 54.3916 54.2672 54.015C54.3152 53.4927 54.3518 53.0955 54.6453 52.7029C54.7495 52.5635 54.8089 52.528 56.0443 51.7273C56.6769 51.3172 56.7437 51.2732 56.914 51.2226C56.9498 51.212 56.9833 51.2034 57.0162 51.1958C57.8036 51.3199 58.456 51.3393 58.9558 51.3235Z" fill="#EB8E6C"/>
<path d="M61.4886 51.7953C61.2982 51.5279 61.4017 51.1898 61.4886 50.9205C61.7041 50.2526 62.1381 49.9788 62.7363 49.2721C62.876 49.1069 63.047 48.8919 63.2299 48.6268C63.581 48.5081 63.8752 48.4612 64.2109 48.4982C64.394 48.5184 65.0738 48.5935 65.421 49.0702C65.4803 49.1518 65.7179 49.5032 65.5344 50.2477C65.4365 50.6449 65.2581 50.9915 65.0614 51.2811C64.4234 51.7507 63.6445 52.1462 62.8119 52.1653C62.5044 52.1724 61.769 52.1893 61.4886 51.7953Z" fill="#EB8E6C"/>
<path d="M60.1009 51.7763C60.0613 51.7398 60.0168 51.7632 59.5338 51.81C58.9569 51.8659 58.9726 51.8372 58.8532 51.8772C58.4258 52.0207 58.2243 52.3879 58.1537 52.5165C58.0588 52.6895 57.9924 52.8102 58.0402 52.937C58.1276 53.1685 58.5418 53.2759 58.8343 53.2566C59.7038 53.1993 60.3104 51.9689 60.1009 51.7763Z" fill="#EDDBD6"/>
<path d="M64.0043 51.035C64.0123 50.9917 64.06 50.7066 63.853 50.4967C63.646 50.2867 63.3221 50.292 63.1535 50.2948C63.0539 50.2965 62.8127 50.3033 62.5675 50.4462C62.483 50.4954 62.264 50.6272 62.1704 50.8836C62.1447 50.9542 62.0356 51.2886 62.265 51.5397C62.4895 51.7853 62.8679 51.7646 62.9834 51.7583C63.4299 51.7339 63.928 51.4476 64.0043 51.035Z" fill="#EDDBD6"/>
<path d="M62.6473 65.5881C62.7787 65.7038 62.7525 66.0082 61.5129 68.0104C60.3393 69.9062 59.7526 70.8541 59.0175 71.6438C58.2184 72.5023 57.2492 73.5435 55.6144 74.3353C55.2729 74.5007 52.5823 75.7735 50.3964 75.3446C47.2712 74.7314 45.6828 70.7391 44.6491 67.203C40.7117 53.7338 42.1564 37.7633 44.8003 37.597C46.0664 37.5173 47.8579 41.0455 48.4302 42.1725C49.0823 43.4567 49.3872 44.4798 49.5646 45.0658C50.4067 47.8475 51.5052 50.564 52.3626 53.342C56.3451 66.2452 57.7109 67.0314 58.6393 67.1357C60.4233 67.336 62.2052 65.199 62.6473 65.5881Z" fill="#E8E6FF"/>
<path d="M46.1738 38.2706C45.2157 37.0439 43.4514 36.5211 43.4514 36.5211C41.943 35.7583 40.6608 35.411 39.2165 35.0409C35.6469 34.1259 34.7971 34.0219 33.0155 33.5606C27.4195 32.1116 27.7632 31.0562 24.5457 30.8691C22.2299 30.7344 21.4407 31.2457 18.6471 30.8691C18.0282 30.7857 17.2333 30.6482 16.2272 30.8691C15.1539 31.1048 14.4673 31.6106 13.3535 32.484C10.6285 34.6209 9.57237 35.5792 9.57237 35.5792C7.46145 37.4946 6.40597 38.4522 6.09369 38.8089C3.98675 41.2154 3.95212 44.1386 3.97626 47.5561C4.03316 55.6095 4.06154 59.6363 4.43 62.3591C5.12756 67.5143 5.86637 69.2879 6.69868 76.4892C6.85682 77.8571 7.01267 79.2059 7.15242 81.0647C7.5514 86.3712 3.53513 139.774 3.53513 139.774C3.00853 144.946 53.0406 145.929 52.9871 142.564C52.8823 135.966 52.2808 121.193 51.7699 115.515C50.8578 105.379 51.8835 106.475 50.8624 98.4245C50.3052 94.0312 49.6276 90.7708 49.1988 84.5635C49.0859 82.9295 48.9748 80.8693 48.8962 76.6238C48.6351 62.5166 48.5046 55.4631 48.745 51.5933C48.8392 50.0778 47.3738 39.807 46.1738 38.2706Z" fill="#F7F7F7"/>
<path d="M14.4354 78.5554C14.3244 74.9196 9.34624 66.0576 4.2653 60.7814C4.31112 61.356 4.36517 61.8767 4.43 62.3557C5.12756 67.5109 5.86637 69.2846 6.69868 76.4858C6.85682 77.8538 7.01267 79.2025 7.15242 81.0613C7.5514 86.3678 3.53513 139.77 3.53513 139.77C3.40067 141.091 6.56318 142.138 11.3453 142.91C12.0601 129.926 12.7871 119.989 13.4057 112.547C13.8691 106.972 14.7646 89.3444 14.4354 78.5554Z" fill="#EDF1F7"/>
<path d="M21.6958 42.0614L24.8794 41.8638L23.8429 44.3012C23.8429 44.3012 34.2304 49.2506 38.2801 52.7113C39.5437 53.791 41.2759 55.0648 41.3319 55.0224C41.4302 54.9481 38.7428 52.2235 35.3186 49.1101C31.4985 45.6366 29.6695 45.1913 28.211 42.3249C27.2665 40.4684 27.7511 40.0998 26.7303 38.7018C24.9974 36.3284 22.5837 35.9976 19.8448 34.4858C18.5989 33.798 17.0713 32.7468 15.5356 31.0743C14.9453 31.3042 14.4326 31.6498 13.7974 32.1355C14.5672 33.4307 21.6958 42.0614 21.6958 42.0614Z" fill="#97BFFF"/>
<path d="M39.2712 47.1981C38.5518 49.3211 37.4621 50.7087 37.6424 50.7993C37.8579 50.9076 39.4142 48.9238 40.5545 47.0225C40.6694 46.831 41.174 45.7383 42.1833 43.553C42.7729 42.2764 42.7262 41.1376 42.7262 41.1376C42.7262 41.1376 40.8313 40.4594 40.8507 40.3032C40.8718 40.1333 42.9731 39.864 42.9731 39.864C42.9731 39.864 42.6972 38.2676 41.7885 36.9216C41.3997 36.3458 41.0198 35.8493 40.6781 35.4322C40.2002 35.2911 39.7191 35.1652 39.2184 35.0368C39.0177 34.9854 38.827 34.9369 38.6428 34.8904C38.7369 35.2627 38.8323 35.6625 38.9257 36.0872C39.7812 39.9796 40.5429 43.4452 39.2712 47.1981Z" fill="#97BFFF"/>
<path d="M36.49 16.2459C36.5345 16.1971 37.391 15.2841 38.2674 15.5632C39.1115 15.8319 39.4501 17.0393 39.4672 17.7854C39.5082 19.5686 37.5 21.3072 36.5729 21.0035C35.542 20.6658 35.225 17.6318 36.49 16.2459Z" fill="#EB8E6C"/>
<path d="M37.095 19.9069C37.3764 19.926 37.6699 19.6196 37.8292 19.4214C38.2114 18.9454 38.54 18.1986 38.2084 17.6606C38.0186 17.353 37.5666 17.0753 37.1044 17.1664C36.7811 17.2301 36.5204 17.4628 36.3962 17.7831C36.3508 17.9 36.4302 18.0354 36.5583 18.0627C36.6556 18.0835 36.745 18.03 36.7798 17.9413C36.8583 17.7418 37.0147 17.5987 37.2062 17.5608C37.4679 17.5092 37.7508 17.6733 37.8629 17.8548C37.9845 18.052 37.9522 18.3731 37.7743 18.7358C37.5541 19.1848 37.118 19.4954 37.1175 19.5092C37.1175 19.5099 37.762 18.933 37.1178 19.51C36.7398 19.8484 37.0647 19.9048 37.095 19.9069Z" fill="#C36252"/>
<path d="M35.9052 20.9176C35.8898 20.8004 35.9779 20.7007 36.097 20.7013L36.0977 20.7013C36.2051 20.7018 36.2973 20.7853 36.3108 20.891C36.3435 21.1456 36.4167 21.1917 36.5954 21.2037L36.5959 21.2038C36.9537 21.2278 37.1316 20.9509 37.2706 20.6482C37.3217 20.5368 37.3659 20.4405 37.493 20.4304C37.9047 20.3968 38.7111 19.5205 38.9811 18.3784C39.126 17.7647 39.0908 17.196 38.8767 16.6879C38.7921 16.4871 38.6761 16.2121 38.3984 16.0506C38.1027 15.8786 37.7891 15.9292 37.6552 15.9509C37.1828 16.0271 36.879 16.3433 36.7183 16.5685C36.66 16.6503 36.545 16.6698 36.4533 16.6157C36.3477 16.5532 36.3136 16.4177 36.381 16.3236C36.5808 16.0448 36.9621 15.6515 37.5669 15.554C37.7293 15.5276 38.1614 15.4579 38.5906 15.7074C38.9953 15.9428 39.1562 16.3243 39.2524 16.5523C39.423 16.9575 39.5837 17.6227 39.3789 18.4906C39.0928 19.7006 38.2606 20.6711 37.6515 20.8147C37.6491 20.8199 37.6466 20.8254 37.6441 20.831C37.5412 21.0551 37.2679 21.6503 36.5915 21.6049L36.591 21.6049C36.0722 21.5697 35.9441 21.2139 35.9052 20.9176Z" fill="#C36252"/>
<path d="M36.4294 17.9748C36.4013 18.0314 36.6047 18.1211 36.754 18.3536C37.0427 18.8031 36.8317 19.3236 36.9129 19.3457C36.9733 19.3621 37.1263 19.0838 37.1463 18.7704C37.1555 18.627 37.1742 18.3349 36.9721 18.1342C36.7797 17.943 36.462 17.9091 36.4294 17.9748Z" fill="#C36252"/>
<path d="M34.2708 26.8987C34.5104 27.3265 33.4895 28.0098 33.777 29.1903C33.9091 29.7324 34.8357 31.9267 34.9511 32.3643C35.2495 33.497 36.3184 38.5981 35.244 39.2508C33.1235 40.5389 27.4382 34.0385 26.4193 33.7919C22.7417 32.9021 19.3444 30.0061 19.6803 27.8909C19.7474 27.4683 18.675 27.1962 19.0472 26.2812C19.3725 25.4814 20.2771 24.4934 20.2613 23.6069C20.213 20.8953 19.9243 20.0023 20.1532 19.9314C20.7517 19.7456 21.8675 26.1119 26.0975 27.4319C29.4566 28.4802 33.7878 26.0366 34.2708 26.8987Z" fill="#EB8E6C"/>
<path d="M25.4396 29.4169C22.9739 27.9646 21.0975 25.0258 20.1585 21.2577C20.0827 20.338 20.0249 19.9756 20.1673 19.9314C20.7657 19.7456 21.8815 26.1119 26.1115 27.4319C29.4707 28.4802 33.8019 26.0366 34.2848 26.8987C34.5245 27.3265 33.7379 27.6863 34.0254 28.8666C34.1164 29.2401 33.9455 29.6449 34.0705 29.8429C33.3575 30.2178 32.2463 30.8566 31.0475 30.9616C28.4493 31.1895 26.4763 30.0275 25.4396 29.4169Z" fill="#C36252"/>
<path d="M36.4478 23.7288C36.0443 25.1354 35.8525 25.5788 35.5578 26.0545C35.3518 26.3869 34.2271 28.2024 32.1638 28.9693C28.9693 30.1569 25.5379 28.0825 24.8505 27.667C22.1498 26.0344 21.1274 23.717 19.8078 20.7258C19.4111 19.8266 18.3272 17.213 17.9968 13.5996C17.6916 10.2605 17.539 8.59088 18.5692 7.01734C21.0075 3.29333 27.3407 3.362 28.2082 3.3714C29.8804 3.38947 33.113 3.42448 35.425 5.58012C35.5395 5.68682 36.6312 7.9547 37.7198 10.575C38.6232 12.7493 37.4513 20.231 36.4478 23.7288Z" fill="#EB8E6C"/>
<path d="M22.9633 15.7149C22.9224 15.4635 23.0972 15.2269 23.3471 15.1909C24.3488 15.047 25.3604 15.0167 26.3618 15.1015C26.9914 15.1548 27.6206 15.2542 28.238 15.3977C28.4821 15.4545 28.6291 15.7055 28.5618 15.9514C28.4982 16.1835 28.2658 16.3277 28.0355 16.274C27.4569 16.1393 26.8672 16.046 26.2772 15.996C25.3401 15.9165 24.3919 15.9452 23.4531 16.0807C23.2179 16.1147 23.0017 15.9516 22.9633 15.7149Z" fill="#49302A"/>
<path d="M36.7615 15.63C36.7935 15.3792 36.6528 15.1404 36.4525 15.1011C35.6499 14.944 34.8397 14.9004 34.0379 14.9718C33.5338 15.0168 33.0302 15.1078 32.5362 15.2431C32.3408 15.2966 32.2238 15.5456 32.2784 15.7923C32.3302 16.0252 32.5167 16.1723 32.701 16.1218C33.164 15.9947 33.6359 15.9093 34.1083 15.8671C34.8586 15.8 35.6181 15.8413 36.3703 15.9891C36.5588 16.0263 36.7314 15.866 36.7615 15.63Z" fill="#49302A"/>
<path d="M31.1065 18.4935C30.9601 17.5804 30.8713 16.6556 30.842 15.7409C30.8379 15.6123 30.7078 15.5076 30.5488 15.506C30.3877 15.5044 30.2584 15.6092 30.2626 15.7396C30.2923 16.6703 30.3827 17.6113 30.5318 18.5405C30.6029 18.9849 30.6766 19.36 30.7418 19.6909C30.9223 20.6111 31.013 21.073 30.7339 21.3635C30.5371 21.568 30.1655 21.6708 29.6493 21.6727C29.6787 21.8304 29.7182 21.9863 29.7752 22.1392C30.4236 22.1219 30.9013 21.9637 31.1952 21.6582C31.6246 21.2116 31.5143 20.65 31.3141 19.6306C31.2497 19.3028 31.1767 18.9314 31.1065 18.4935Z" fill="#C36252"/>
<path d="M27.2373 17.2527C27.2107 17.751 26.8219 18.1394 26.3688 18.1202C25.9157 18.1011 25.5699 17.6817 25.5965 17.1835C25.6231 16.6852 26.0119 16.2968 26.465 16.316C26.9181 16.3351 27.2639 16.7545 27.2373 17.2527Z" fill="#49302A"/>
<path d="M34.6481 17.1463C34.6215 17.6446 34.2326 18.033 33.7795 18.0139C33.3265 17.9947 32.9807 17.5753 33.0073 17.0771C33.0339 16.5788 33.4227 16.1904 33.8758 16.2095C34.3289 16.2287 34.6746 16.6481 34.6481 17.1463Z" fill="#49302A"/>
<path d="M30.6346 24.9628C31.8909 24.9102 32.6292 24.1701 32.9697 23.5826C33.0857 23.3823 32.8616 23.167 32.5839 23.2111L31.9429 23.3131C31.0175 23.4602 30.072 23.5095 29.1328 23.4595L27.9132 23.3946C27.6355 23.3799 27.4457 23.6091 27.5777 23.7972C27.9721 24.3597 29.3702 25.0157 30.6346 24.9628Z" fill="white"/>
<path d="M27.012 19.9281C26.9017 20.4438 25.9264 20.7327 24.8336 20.5736C23.7409 20.4143 22.9444 19.8672 23.0548 19.3516C23.1651 18.8359 24.1404 18.5469 25.2331 18.7061C26.3259 18.8653 27.1223 19.4125 27.012 19.9281Z" fill="#DD8064"/>
<path d="M36.9245 19.1415C36.9817 19.597 36.249 20.0131 35.2882 20.071C34.3274 20.1288 33.5022 19.8065 33.4451 19.351C33.388 18.8955 34.1207 18.4794 35.0815 18.4215C36.0423 18.3637 36.8675 18.686 36.9245 19.1415Z" fill="#DD8064"/>
<path d="M16.444 12.0253C16.1585 10.374 16.4552 4.32232 23.2764 2.90246C28.083 1.9019 27.4014 1.05041 29.0865 0.476949C31.8303 -0.456869 34.0995 0.536689 35.2645 1.06089C40.8687 3.58265 38.6041 7.54069 38.6041 7.54069C38.8232 8.33999 38.8346 8.27824 39.037 8.89829C40.4233 13.1439 37.7536 16.8591 37.7423 16.5644C37.6447 14.034 37.9187 11.2655 37.2247 9.81112C36.6767 8.6627 36.0322 8.33979 35.8462 8.25518C35.1453 7.93617 34.4901 8.05781 33.2538 8.23387C31.6655 8.46005 30.361 8.64581 29.2552 8.70116C28.0005 8.76398 26.9839 8.65542 24.9508 8.43836C22.8399 8.21297 22.0628 8.00125 21.4169 8.48079C20.8471 8.90385 20.7247 9.60872 20.6186 10.2201C20.4253 11.3333 20.6889 12.2159 20.7713 12.5244C21.5021 15.26 20.1889 18.5274 19.8017 18.5114C19.6229 18.504 18.2428 18.7097 17.6939 15.7123C17.4973 14.6393 16.636 13.1356 16.444 12.0253Z" fill="#06111E"/>
<path d="M19.3911 16.7313C19.3401 16.6879 18.3612 15.8781 17.5313 16.2532C16.7319 16.6143 16.5668 17.85 16.6554 18.592C16.8669 20.3657 19.1034 22.0687 19.9802 21.6636C20.9551 21.2132 20.8421 17.9645 19.3911 16.7313Z" fill="#EB8E6C"/>
<path d="M19.3082 20.4315C19.0318 20.4819 18.6972 20.2108 18.5112 20.0321C18.0647 19.6027 17.633 18.8987 17.8859 18.3278C18.0307 18.0013 18.4398 17.6752 18.9111 17.7138C19.2409 17.7408 19.5324 17.9424 19.701 18.2462C19.7626 18.3572 19.703 18.5004 19.5798 18.5418C19.4862 18.5734 19.39 18.5303 19.3428 18.4462C19.2368 18.2571 19.0613 18.1326 18.866 18.1166C18.5991 18.0947 18.3416 18.2891 18.2561 18.4817C18.1634 18.6909 18.2409 19.0059 18.4687 19.3457C18.7506 19.7666 19.2273 20.0258 19.2297 20.0394C19.2298 20.0402 18.5088 19.5401 19.2295 20.0402C19.6523 20.3336 19.338 20.4261 19.3082 20.4315Z" fill="#C36252"/>
<path d="M20.037 22.0613C20.037 22.0613 20.0369 22.0614 20.0366 22.0614C19.3719 22.1822 19.0166 21.6224 18.8829 21.4115C18.8796 21.4063 18.8763 21.4011 18.8731 21.3962C18.2486 21.322 17.2857 20.4524 16.8307 19.284C16.5048 18.4461 16.5699 17.7682 16.6819 17.347C16.7451 17.1101 16.8507 16.7136 17.219 16.4347C17.6095 16.1392 18.048 16.1599 18.2127 16.1678C18.8266 16.1968 19.2605 16.5443 19.4981 16.7985C19.5784 16.8843 19.5637 17.0225 19.4677 17.0963C19.3844 17.1604 19.2677 17.1538 19.1982 17.0793C19.0069 16.8738 18.6609 16.5942 18.1814 16.5715C18.0455 16.565 17.7271 16.5499 17.4582 16.7537C17.2055 16.9451 17.1294 17.2308 17.0739 17.4396C16.9333 17.9675 16.979 18.5356 17.2095 19.1282C17.6389 20.231 18.5628 21.01 18.976 20.9971C19.1036 20.9931 19.1611 21.0835 19.2275 21.1883C19.4083 21.4731 19.6239 21.7278 19.9756 21.6639L19.9759 21.6638C20.1515 21.6318 20.2175 21.578 20.214 21.3217C20.2125 21.2153 20.2921 21.1222 20.3987 21.1097L20.3993 21.1096C20.5174 21.0957 20.6188 21.1847 20.6202 21.3028C20.6235 21.6009 20.5468 21.9683 20.037 22.0613Z" fill="#C36252"/>
<path d="M19.6867 18.4402C19.7226 18.4932 19.5334 18.6049 19.4181 18.8523C19.1954 19.3307 19.4784 19.8234 19.401 19.8543C19.3433 19.8774 19.1522 19.6184 19.0879 19.3097C19.0586 19.1685 18.9987 18.8809 19.1708 18.659C19.3347 18.4479 19.6449 18.3786 19.6867 18.4402Z" fill="#C36252"/>
<path d="M82.7592 50.1776L62.6964 51.3201L41.3055 69.8252C41.3055 69.8252 43.9464 71.5925 47.519 71.6419C47.9727 71.6482 56.9957 71.0531 56.9957 71.0531L82.7592 50.1776Z" fill="#2C4A8C"/>
<path d="M28.1579 38.0213C28.6064 38.8165 29.1359 39.7494 29.9842 40.9637C31.9854 43.8281 32.7875 44.0015 34.772 46.6729C36.6446 49.1938 37.0566 50.5555 37.6347 50.4497C38.353 50.3185 38.4114 48.0903 38.4738 45.7067C38.5804 41.6395 37.8241 41.9324 38.1777 39.3388C38.3351 38.1838 38.6114 37.1987 37.9309 36.4842C37.4181 35.9458 36.4374 35.64 35.7591 35.9133C34.8543 36.2778 36.1329 38.7159 35.5052 39.0758C35.0465 39.3388 31.6914 31.4931 30.806 32.0639C30.2373 32.4304 27.1784 36.2843 28.1579 38.0213Z" fill="#31C6F4"/>
<path d="M16.9027 27.5692C16.9027 27.5692 19.3787 28.7275 25.5237 34.7016C29.1051 38.1834 28.8022 37.7468 29.9098 38.9406C31.2791 40.4163 32.4523 41.8487 36.6402 47.8224C41.2316 54.3714 41.4367 54.9535 41.3289 55.0221C41.106 55.1635 39.7496 52.9806 36.489 50.5812C33.5694 48.4326 25.9774 44.1889 25.9774 44.1889L26.3556 40.219C26.3556 40.219 24.5561 41.0371 22.9525 40.7574C22.4535 40.6703 14.4303 31.6714 14.4303 31.6714L16.9027 27.5692Z" fill="white"/>
<path d="M37.6261 50.2453C37.1979 50.0888 37.8355 48.8887 37.9286 45.468C37.9842 43.4284 38.052 40.9354 37.1724 38.1338C36.1447 34.8607 34.5424 33.4545 35.2062 32.8181C35.8632 32.1883 37.1573 32.8899 38.5311 33.8274C40.7247 35.3244 42.0123 39.3449 42.0123 39.3449L39.5167 40.3542L42.0123 41.5653C42.0123 41.5653 38.692 50.6349 37.6261 50.2453Z" fill="white"/>
<path d="M31.0479 32.1469C31.0479 32.1469 28.8869 31.4304 26.208 30.1956C21.8635 28.1931 19.402 25.1492 19.402 25.1492C19.402 25.1492 17.1107 27.4572 17.3974 28.9761C17.704 30.6002 19.4425 30.861 22.5781 33.56C26.0866 36.5798 27.6448 37.6644 27.6448 37.6644L31.0479 32.1469Z" fill="#50CEFF"/>
<path d="M35.5068 39.0764C35.5068 39.0764 36.2338 38.1718 37.1705 36.3849C37.9051 34.9839 38.0013 34.6469 37.9267 34.2318C37.75 33.2475 36.7793 32.7478 37.0193 32.3478C37.2504 31.9625 38.2804 32.2107 38.3805 31.944C38.4859 31.6633 37.4294 31.1613 36.7168 30.7329C34.0925 29.1552 34.6442 27.8682 34.1375 28.2322C33.9256 28.3844 34.1408 31.1839 34.2306 31.8297C34.6508 34.852 35.5068 39.0764 35.5068 39.0764Z" fill="#00AAED"/>
<path d="M39.3191 144.568C39.1147 144.566 38.9502 144.418 38.9517 144.236L38.9562 143.691C38.9834 140.399 39.0289 134.89 39.0971 129.214C39.2745 114.44 39.4984 102.904 39.8374 85.4416C40.0323 75.4093 40.2275 65.3772 40.4233 55.345C40.4269 55.1631 40.5955 55.0182 40.7999 55.0214C41.0042 55.0245 41.1671 55.1745 41.1636 55.3564C40.9677 65.3886 40.7725 75.4208 40.5776 85.4529C40.2387 102.914 40.0147 114.449 39.8374 129.221C39.7693 134.896 39.7237 140.405 39.6965 143.696L39.692 144.241C39.6906 144.423 39.5236 144.569 39.3191 144.568Z" fill="#97BFFF"/>
<path d="M42.725 79.223C42.706 78.586 40.3146 77.5171 22.9778 76.4778C18.4936 76.209 12.9944 75.9245 6.60449 75.6956C6.6356 75.9521 6.66683 76.2151 6.69821 76.4866C6.85635 77.8546 7.01221 79.2033 7.15195 81.0621C7.18882 81.5531 7.18788 82.4567 7.15591 83.6907C27.89 83.5808 42.7427 79.8142 42.725 79.223Z" fill="#B8D5FF"/>
<path d="M15.2612 72.1343C16.6921 69.694 17.1899 67.4571 18.1853 62.9833C19.0564 59.068 19.6826 56.1381 19.2945 52.2175C18.8663 47.8947 17.5076 45.4236 17.0761 44.6815C16.2956 43.3389 15.1292 41.3917 12.6396 40.0163C11.6773 39.4846 9.62334 38.3498 7.29557 38.8499C6.09546 39.1078 5.33315 39.6906 4.57315 40.2854C1.74836 42.4965 0.924948 45.5176 0.539967 47.014C0.188212 48.381 0.0938696 49.4875 0.0357996 51.6793C-0.0748162 55.853 0.0931534 58.4136 0.237442 62.2656C0.363048 65.6179 0.676549 68.9628 0.842461 72.3137C0.937311 74.2299 1.04953 76.757 3.06068 78.6835C3.63452 79.2331 4.24204 79.815 5.17817 80.0292C8.63346 80.8197 13.1068 75.8083 15.2612 72.1343Z" fill="white"/>
<path d="M39.6725 66.2607C39.9429 65.732 40.5082 65.056 41.6387 63.7038C43.1231 61.9285 43.8711 61.3492 44.7392 60.9451C45.3102 60.6793 45.2137 60.824 46.3273 60.4068C48.0384 59.7657 49.4149 58.9934 49.8816 58.7246C51.4022 57.8488 51.9605 57.3082 52.5284 57.5135C52.9793 57.6764 53.1393 58.2254 53.209 58.4555C53.426 59.1719 53.1035 59.7758 52.9821 60.0031C52.6887 60.5526 52.2591 60.8596 51.8478 61.1469C51.5892 61.3276 51.2283 61.5472 50.0328 62.0216C48.5056 62.6278 47.8931 62.7463 47.9154 62.8964C47.9428 63.081 48.9109 63.1793 49.8059 63.0982C50.6453 63.0222 51.5945 62.7729 53.0578 61.9543C54.7608 61.0018 54.4535 60.7923 56.0827 59.8685C57.5278 59.049 57.2208 59.525 59.6369 58.3882C60.029 58.2037 60.7072 57.8759 61.5275 57.9845C61.652 58.001 62.3637 58.1124 62.5106 58.4555C62.8131 59.162 61.83 59.7339 61.83 59.7339C61.83 59.7339 62.3308 59.9399 62.5106 60.2722C62.7545 60.7231 62.2716 61.3356 62.2081 61.4161C61.8884 61.8217 61.6057 61.8418 60.9982 62.2235C60.7089 62.4052 60.7473 62.4168 59.41 63.6365C58.3758 64.5799 58.3266 64.597 58.1244 64.8477C57.7591 65.3009 57.8174 65.3726 57.217 66.328C56.7436 67.0812 56.5069 67.4579 56.1583 67.8083C55.5783 68.3912 55.3997 68.2849 54.7971 68.8849C54.1982 69.4811 54.2327 69.7272 53.7384 70.2306C53.5676 70.4045 53.1173 70.8294 51.999 71.3071C49.5277 72.3631 46.0987 72.6928 45.798 72.7202C42.3393 73.0356 40.61 73.1933 39.8994 72.6529C38.1563 71.3273 38.7371 68.0892 39.6725 66.2607Z" fill="#EB8E6C"/>
<path d="M51.5044 59.6301C51.2288 59.4599 51.1592 59.1867 51.1264 59.0581C51.1037 58.9691 51.0217 58.6232 51.2398 58.2843C51.4245 57.9974 51.8471 57.68 52.2229 57.7797C52.5069 57.855 52.6318 58.1336 52.7145 58.318C52.7611 58.422 53.1174 59.2169 52.6011 59.5964C52.3105 59.81 51.8283 59.83 51.5044 59.6301Z" fill="#FFF0EB"/>
<path d="M58.9129 62.0552C57.8539 62.8689 57.0239 63.3862 56.077 63.9728C54.8822 64.7131 53.7929 65.3879 53.6571 65.2513C53.5446 65.1383 54.1311 64.5155 54.4133 64.242C54.5807 64.0797 54.9163 63.7735 56.0392 63.0645C56.9613 62.4824 57.0356 62.4991 57.5517 62.1225C58.1905 61.6563 58.102 61.6121 58.6482 61.2478C59.1321 60.925 59.5786 60.705 60.1985 60.4067C60.6373 60.1956 60.8208 60.1285 61.1438 59.9693C61.4731 59.807 61.8972 59.5732 62.3742 59.2396C62.1554 59.54 61.8244 59.7339 61.8244 59.7339C61.8244 59.7339 61.9367 59.7804 62.0738 59.8641C61.5734 60.1052 61.0237 60.414 60.4631 60.8104C59.8601 61.2369 59.8319 61.3491 58.9129 62.0552Z" fill="#D16D52"/>
<path d="M56.5928 66.3949C56.4069 66.7554 56.2847 67.2637 55.7232 67.6733C55.3866 67.9189 55.099 67.9781 54.7023 68.3798C54.4921 68.5927 54.4687 68.6815 54.2108 68.9181C53.9319 69.1739 53.5714 69.5045 53.341 69.4228C53.1391 69.3511 53.0234 68.9578 53.152 68.649C53.3508 68.1717 53.9694 68.2898 54.551 67.6733C54.8193 67.389 54.7001 67.3508 55.0426 66.9668C55.1207 66.8792 55.3733 66.6051 56.0256 66.1594C56.4798 65.8492 56.8463 65.6481 56.8954 65.6211C57.1697 65.4703 57.5392 65.2535 58.0388 64.9318C57.9533 65.0428 57.8939 65.1321 57.8388 65.2244C57.1309 65.621 56.778 66.0358 56.5928 66.3949Z" fill="#D16D52"/>
<path d="M61.9529 59.3304C61.7003 59.4878 61.4585 59.5247 61.4046 59.5322C61.2033 59.5603 60.9886 59.5902 60.8564 59.4818C60.6288 59.295 60.8295 58.8496 60.8564 58.792C60.8957 58.7078 61.0417 58.3948 61.4236 58.2706C61.4977 58.2465 61.8636 58.1373 62.1609 58.3211C62.1956 58.3425 62.4125 58.4765 62.4256 58.6911C62.4326 58.8078 62.3763 58.8949 62.3122 58.9939C62.1923 59.179 62.0327 59.2807 61.9529 59.3304Z" fill="#FFF0EB"/>
<path d="M61.562 61.5321C61.5155 61.5317 61.3194 61.5243 61.2028 61.3975C61.0537 61.2354 61.1414 60.9936 61.184 60.8761C61.2909 60.581 61.541 60.4328 61.6188 60.3883C61.7503 60.3129 61.9255 60.2124 62.0915 60.2705C62.239 60.3222 62.2977 60.4707 62.3183 60.5228C62.3808 60.6809 62.3401 60.8217 62.3183 60.8929C62.23 61.1819 61.9314 61.5354 61.562 61.5321Z" fill="#FFF0EB"/>
<path d="M40.2915 64.9318C40.2915 64.9318 38.619 65.2532 35.7334 66.036C31.7168 67.1257 28.4111 67.0763 24.8437 67.0229C19.0728 66.9367 19.5683 65.7741 16.0715 66.1258C11.3442 66.6011 7.11899 69.0595 4.98015 72.2263C4.3461 73.165 3.11817 75.0431 3.66932 77.1607C3.77024 77.5484 2.60681 78.4081 3.62453 79.2012C4.87988 80.1795 7.97973 80.394 8.71084 80.3904C17.2024 80.3491 21.4482 80.3285 23.7346 80.211C28.0379 79.9899 32.3306 79.5324 36.6409 79.4933C39.2144 79.4699 42.721 79.2242 42.721 79.2242C42.721 79.2242 43.0111 76.5066 42.4891 72.5852C41.7212 66.8165 40.2915 64.9318 40.2915 64.9318Z" fill="white"/>
<path d="M26.0776 67.3415C24.7665 67.3415 23.383 67.292 21.931 67.1778C20.9774 67.1028 17.2785 66.4098 17.1215 66.3803C16.9168 66.3419 16.7885 66.1603 16.8384 65.9796C16.8691 65.8682 19.8262 55.0571 18.7636 50.6846C18.7219 50.5132 18.8357 50.3433 19.0257 50.2966C19.2296 50.2464 19.4413 50.3574 19.486 50.5414C20.4415 54.4819 18.3713 63.0198 17.7329 65.4775C17.686 65.6578 17.8147 65.8358 18.0184 65.8731C19.1744 66.0843 21.337 66.4698 21.9962 66.5216C31.045 67.2332 37.4421 65.3914 39.5441 64.7861C39.6546 64.7543 39.7481 64.7275 39.8276 64.705C40.0457 64.6434 40.273 64.7716 40.305 64.9731C40.3303 65.1321 40.2232 65.2844 40.0512 65.333C39.966 65.357 39.87 65.3847 39.772 65.4129C37.972 65.9312 33.0734 67.3415 26.0776 67.3415Z" fill="#97BFFF"/>
<path d="M11.1133 70.7185C10.9282 70.629 10.8661 70.421 10.9727 70.2593C11.856 68.9181 13.0518 67.7575 14.4496 66.8886C15.2129 66.4141 16.0407 66.0207 16.915 65.7166C17.1114 65.6483 17.3327 65.7354 17.403 65.9122C17.4692 66.0783 17.3775 66.2632 17.193 66.3272C16.3702 66.6128 15.5914 66.9824 14.8736 67.4287C13.5608 68.2448 12.4371 69.3364 11.6071 70.5988C11.507 70.7511 11.2874 70.8029 11.1133 70.7185Z" fill="#97BFFF"/>
</svg>
