<svg width="72" height="178" viewBox="0 0 72 178" fill="none" xmlns="http://www.w3.org/2000/svg">
<path d="M18.5435 45.1923C18.5435 45.1923 9.74794 63.26 7.23904 84.9038H2.22131C2.22131 84.9038 4.47931 51.074 14.013 36.8914L18.5435 45.1923Z" fill="#F9A58F"/>
<path d="M17.3983 7.07855C16.5051 9.36838 16.8071 11.9764 15.9667 14.2859C15.1582 16.5079 13.3681 18.2409 11.4532 19.6463C10.0339 20.6877 8.44952 21.6688 7.66197 23.2359C5.92615 26.6896 8.88849 31.0624 7.37708 34.6184C6.68526 36.2459 5.111 37.508 4.89576 39.2614C4.73091 40.6047 5.45722 41.9526 6.52554 42.7947C7.59384 43.6367 8.95764 44.0322 10.3121 44.1974C11.4662 44.338 12.6392 44.3248 13.7898 44.1581C15.077 43.9716 16.3284 43.5955 17.6071 43.3584C20.273 42.864 23.053 42.9855 25.6647 43.7104C27.6623 44.2648 29.6063 45.1734 31.6806 45.1922C33.0347 45.2044 34.3631 44.8325 35.6355 44.3732C37.0245 43.8718 38.3979 43.247 39.4945 42.2643C41.0702 40.8523 41.9418 38.8188 42.4545 36.7751C42.9672 34.7314 43.1677 32.6213 43.6611 30.5729C44.2951 27.9411 45.4149 25.425 46.9485 23.1868C47.5967 22.2409 48.3305 21.3196 48.6646 20.2251C48.8931 19.477 48.9223 18.6811 48.8592 17.902C48.5893 14.5682 46.5507 11.425 43.6035 9.7986C42.8727 9.39523 42.0858 9.07613 41.435 8.5551C40.7651 8.01879 40.2762 7.29809 39.7845 6.59732C38.8696 5.29359 37.9104 4.02056 36.9087 2.78123C36.3914 2.14101 35.8507 1.49904 35.1533 1.05766C34.3331 0.538446 33.3535 0.332942 32.3901 0.196751C27.3202 -0.520127 19.456 1.80314 17.3983 7.07855Z" fill="#0B0755"/>
<path d="M43.6177 158.094C43.6177 158.094 42.5857 168.198 44.6658 169.344C48.4332 171.42 55.3819 173.399 54.8001 175.182C54.2181 176.964 37.5629 177.034 37.1005 175.408C36.6382 173.783 38.5045 168.809 36.5266 159.128L43.6177 158.094Z" fill="#F9A58F"/>
<path d="M37.2717 171.779C37.0943 173.588 36.9407 174.829 37.1053 175.408C37.5677 177.033 54.2229 176.964 54.8049 175.181C55.2364 173.859 51.5585 172.369 48.0682 170.885C47.2428 172.26 45.4831 174.402 37.2717 171.779Z" fill="#0B0755"/>
<path d="M12.3771 157.805C12.3771 157.805 9.62508 167.587 11.4781 169.068C14.8341 171.749 21.3415 174.873 20.462 176.531C19.5825 178.189 3.1585 175.446 2.98195 173.766C2.80549 172.086 5.4986 167.5 5.21211 157.626L12.3771 157.805Z" fill="#F9A58F"/>
<path d="M3.76781 170.218C3.28239 171.97 2.91793 173.167 2.98067 173.765C3.15722 175.445 19.5812 178.189 20.4607 176.531C21.1129 175.301 17.7446 173.211 14.56 171.159C13.5107 172.375 11.4089 174.189 3.76781 170.218Z" fill="#0B0755"/>
<path d="M49.9922 42.2693C49.9922 42.2693 53.491 46.9154 56.4066 46.9154C59.3221 46.9154 69.2352 34.6282 69.2352 34.6282L71.5677 38.3505C71.5677 38.3505 63.2582 56.3115 55.6776 56.4562C48.0971 56.6006 42.4117 48.2164 42.5574 47.7828C42.7032 47.3491 47.5139 42.2693 47.5139 42.2693H49.9922Z" fill="#F9A58F"/>
<path d="M41.6828 68.5269C41.6828 68.5269 46.2068 73.9612 48.2478 80.3218C50.2887 86.6822 44.8748 162.041 44.8748 162.041H35.8356C35.8356 162.041 31.0408 94.9302 31.0408 94.3342C31.0408 91.9901 13.2418 162.041 13.2418 162.041H4.21729C4.21729 162.041 9.10094 80.019 20.4353 68.5269L31.0408 69.1773L41.6828 68.5269Z" fill="#D64747"/>
<path d="M36.0314 31.5568C36.0314 31.5568 41.9054 31.5025 44.7565 33.454C46.7961 34.85 51.2984 42.7236 51.2984 42.7236L46.1294 47.0803C46.1294 47.0803 47.3623 51.8306 42.5489 54.2153L41.6769 65.7078C41.6769 65.7078 32.6386 70.9118 20.3931 65.7078C20.3931 65.7078 18.5504 45.6455 17.5 48.3192C16.5168 50.8214 15.7925 52.9484 15.7925 52.9484L7.65198 47.7532C7.65198 47.7532 12.7181 36.008 15.2623 33.9873C19.5429 30.5873 28.182 31.0552 28.182 31.0552L36.0314 31.5568Z" fill="#EA5750"/>
<path d="M38.7578 14.0773C38.7578 14.0773 39.376 12.8748 40.0183 13.263C41.6561 14.2525 40.2055 15.9762 39.241 16.4213L38.7578 14.0773Z" fill="#D6705C"/>
<path d="M27.7254 1.58368C23.1541 2.40341 19.8718 6.55969 20.1548 11.1574C20.2479 12.6693 20.7029 14.0629 21.4235 15.2716C23.0568 18.3017 24.3994 20.7401 25.9169 22.4541C27.4551 24.1916 28.3232 26.4122 28.2577 28.7234L28.1916 31.0573C33.845 33.1025 36.041 31.5588 36.041 31.5588L35.2677 24.8831C40.9729 23.5436 38.9824 13.0464 38.6217 9.91769L38.613 9.92045C38.6039 9.80267 38.5949 9.68474 38.5813 9.56638C37.9778 4.3305 33.0407 0.630534 27.7254 1.58368Z" fill="#F9A58F"/>
<path d="M28.0578 10.8837C26.6601 12.9609 25.1553 15.0131 24.1982 17.3158C24.092 17.5687 23.3527 19.4675 23.6496 19.6424C22.0289 18.6875 20.8806 17.1187 19.8826 15.5326C18.1529 12.7836 18.1572 9.2452 19.5526 6.36136C20.9321 3.5103 23.6024 1.80724 26.6874 1.20305C29.996 0.555151 33.5362 1.48645 36.1277 3.78603C39.9754 7.20025 38.3828 9.5222 38.9569 12.574C38.3123 9.1482 33.7571 7.0141 30.8102 6.11231C30.8961 6.13859 29.0663 9.33303 28.9676 9.49049C28.6744 9.95815 28.3688 10.4216 28.0578 10.8837Z" fill="#0B0755"/>
<path d="M24.5149 17.5078C24.3323 17.2299 24.0476 17.0343 23.7252 16.946C23.0612 16.7641 21.9101 16.6139 21.2285 17.4641C20.2286 18.7116 22.8417 21.4219 24.9167 19.6925C24.9167 19.6925 25.4847 18.9839 24.5149 17.5078Z" fill="#F9A58F"/>
<path d="M37.2414 14.3367C37.2337 13.8947 36.866 13.5424 36.4202 13.55C35.9743 13.5577 35.6191 13.9223 35.6268 14.3643C35.6345 14.8065 36.0021 15.1587 36.448 15.151C36.8939 15.1434 37.249 14.7789 37.2414 14.3367Z" fill="#060633"/>
<path d="M29.7753 16.0367C29.7675 15.5946 29.3999 15.2424 28.954 15.25C28.5082 15.2577 28.153 15.6222 28.1606 16.0644C28.1684 16.5064 28.536 16.8586 28.9818 16.851C29.4277 16.8434 29.7829 16.4788 29.7753 16.0367Z" fill="#060633"/>
<path d="M36.4409 19.9492C36.4409 19.9492 35.3781 19.1891 34.97 19.3154C34.5619 19.4418 34.3514 19.9433 34.3514 19.9433C34.3514 19.9433 34.089 19.4585 33.5869 19.4675C33.0849 19.4766 32.0459 20.851 32.0459 20.851C32.0459 20.851 33.545 22.9954 35.0552 22.6713C36.5931 22.341 36.4255 20.0611 36.4255 20.0611L36.4409 19.9492Z" fill="#FA7267"/>
<path d="M27.2477 15.1194C27.152 15.1315 27.0522 15.1028 26.9765 15.0329C26.8406 14.9076 26.8331 14.6971 26.9593 14.5625C26.9971 14.5221 27.9115 13.5746 29.4086 13.4515C29.5933 13.4362 29.7558 13.5722 29.7713 13.7553C29.7868 13.9386 29.6344 14.1036 29.465 14.1148C28.2177 14.2187 27.4585 15.0079 27.4509 15.016C27.395 15.0753 27.3228 15.1099 27.2477 15.1194Z" fill="#060633"/>
<path d="M34.947 12.7631C34.8513 12.7525 34.7611 12.7013 34.7043 12.6156C34.602 12.462 34.6449 12.2556 34.7997 12.1544C34.846 12.1243 35.9469 11.4159 37.4441 11.6493C37.6276 11.6777 37.7527 11.8479 37.724 12.0296C37.6958 12.2114 37.5172 12.3361 37.3407 12.307C36.1022 12.1139 35.1787 12.7044 35.1691 12.7104C35.1008 12.7549 35.0223 12.7717 34.947 12.7631Z" fill="#060633"/>
<path d="M33.732 18.6569C34.6635 18.4068 34.8975 17.6641 34.8797 17.2539C34.8767 17.182 34.8459 17.1143 34.7939 17.0643C33.8242 16.1317 33.7384 14.6149 33.7377 14.5998C33.7302 14.4453 33.5979 14.3261 33.442 14.3333C33.2882 14.34 33.1661 14.4715 33.1731 14.6261C33.1765 14.6949 33.2622 16.2849 34.3087 17.3749C34.2787 17.6007 34.1074 18.1178 33.2012 18.1757C33.0425 18.1873 32.927 18.3191 32.9371 18.4735C32.9473 18.6278 33.0817 18.7453 33.2373 18.7353C33.4209 18.7235 33.5852 18.6963 33.732 18.6569Z" fill="#D6705C"/>
<path d="M36.4409 19.9487L32.0459 20.8505C32.0459 20.8505 33.6913 21.9209 34.8838 21.7434C36.0763 21.5661 36.4409 19.9487 36.4409 19.9487Z" fill="#FAFAFC"/>
<path d="M27.7556 52.6308C23.6555 52.6308 21.9462 48.5665 21.9295 48.5255C21.898 48.4485 21.9354 48.3607 22.0131 48.3293C22.0901 48.2983 22.1793 48.3353 22.2109 48.4123C22.2269 48.4514 23.8626 52.3297 27.7556 52.3297C31.6632 52.3297 33.1679 49.5128 33.1826 49.4843C33.2211 49.4104 33.3121 49.3811 33.3871 49.4191C33.4617 49.4572 33.491 49.548 33.4527 49.6219C33.4372 49.6521 31.8464 52.6308 27.7556 52.6308Z" fill="#060633"/>
<path d="M46.1276 47.2306C46.0519 47.2306 45.9863 47.1745 45.977 47.098C45.9737 47.0708 45.6215 44.3551 43.5028 42.3791C43.4417 42.322 43.439 42.2268 43.4963 42.1661C43.5541 42.1056 43.6501 42.1027 43.7111 42.1597C45.9125 44.2131 46.2647 46.9469 46.2786 47.0621C46.2886 47.1448 46.229 47.2196 46.1459 47.2294C46.1398 47.2303 46.1336 47.2306 46.1276 47.2306Z" fill="#060633"/>
<path d="M19.8059 60.8983C20.0968 63.1621 13.2587 81.2989 13.2587 81.2989L16.5368 82.6655L20.1317 76.0346V83.9095C20.1317 83.9095 30.324 87.6412 48.8873 82.1679L43.4601 64.5046L42.5524 54.2155L19.8059 60.8983Z" fill="#EA5750"/>
<path d="M28.1804 31.0549L34.6461 38.7138L36.0298 31.5565L32.9294 30.587H30.314L28.1804 31.0549Z" fill="#F9A58F"/>
<path d="M6.94526 84.1971C6.94526 84.1971 8.14327 88.1001 8.45558 89.5279C8.76787 90.9558 10.1398 92.1091 9.41462 92.5567C8.68949 93.0042 7.04232 90.7166 7.04232 90.7166C7.04232 90.7166 6.27436 93.5899 6.17378 94.5085C6.07317 95.4272 5.47193 97.0239 4.78844 97.0034C4.10503 96.9827 4.89955 92.6039 4.89955 92.6039C4.89955 92.6039 3.86522 96.2255 3.23033 96.34C2.59545 96.4546 3.22874 91.6544 3.22874 91.6544C3.22874 91.6544 2.31579 95.5711 1.97395 95.8162C1.63202 96.0612 1.30205 95.6372 1.28566 94.1727C1.26934 92.7081 1.63337 91.2083 1.63337 91.2083C1.63337 91.2083 0.784012 93.913 0.568012 94.2021C0.351926 94.4912 -0.158645 94.7334 0.0484494 92.5615C0.255614 90.3896 1.40004 85.8707 2.95538 83.8059L6.94526 84.1971Z" fill="#F9A58F"/>
<path d="M23.1084 43.9789H29.7659V41.0444H23.1084V43.9789Z" fill="white"/>
</svg>
