<svg width="40" height="45" viewBox="0 0 40 45" fill="none" xmlns="http://www.w3.org/2000/svg">
<path d="M14.5663 29.386H31.1394L39.4261 44.033V14.7391C39.4261 6.64941 32.9332 0.0921631 24.9247 0.0921631H14.5663C6.55701 0.0921631 0.0649414 6.65022 0.0649414 14.7391C0.0649414 22.828 6.55782 29.386 14.5663 29.386Z" fill="#FFA86E"/>
<path d="M13.2288 15.5231C13.2288 14.3798 12.3106 13.4524 11.1787 13.4524C10.0469 13.4524 9.12866 14.3798 9.12866 15.5231C9.12866 16.6663 10.0469 17.5937 11.1787 17.5937C12.3106 17.5937 13.2288 16.6671 13.2288 15.5231Z" fill="#FFF8ED"/>
<path d="M21.2388 15.5231C21.2388 14.3798 20.3206 13.4524 19.1888 13.4524C18.0569 13.4524 17.1387 14.3798 17.1387 15.5231C17.1387 16.6663 18.0569 17.5937 19.1888 17.5937C20.3214 17.5937 21.2388 16.6671 21.2388 15.5231Z" fill="#FFF8ED"/>
<path d="M29.3054 15.5231C29.3054 14.3798 28.3879 13.4524 27.2553 13.4524C26.1234 13.4524 25.2052 14.3798 25.2052 15.5231C25.2052 16.6663 26.1234 17.5937 27.2553 17.5937C28.3879 17.5937 29.3054 16.6671 29.3054 15.5231Z" fill="#FFF8ED"/>
</svg>
