<svg width="44" height="49" viewBox="0 0 44 49" fill="none" xmlns="http://www.w3.org/2000/svg">
<path d="M16.2126 32.6096H34.1393L43.1027 48.9144V16.3048C43.1027 7.29945 36.0795 0 27.417 0H16.2126C7.54915 0 0.526855 7.30036 0.526855 16.3048C0.526855 25.3092 7.55002 32.6096 16.2126 32.6096Z" fill="#93B2FF"/>
<path d="M14.7658 17.1776C14.7658 15.905 13.7726 14.8726 12.5483 14.8726C11.324 14.8726 10.3308 15.905 10.3308 17.1776C10.3308 18.4502 11.324 19.4826 12.5483 19.4826C13.7726 19.4826 14.7658 18.4511 14.7658 17.1776Z" fill="#FFF8ED"/>
<path d="M23.4302 17.1776C23.4302 15.905 22.4369 14.8726 21.2126 14.8726C19.9883 14.8726 18.9951 15.905 18.9951 17.1776C18.9951 18.4502 19.9883 19.4826 21.2126 19.4826C22.4378 19.4826 23.4302 18.4511 23.4302 17.1776Z" fill="#FFF8ED"/>
<path d="M32.1552 17.1776C32.1552 15.905 31.1629 14.8726 29.9377 14.8726C28.7134 14.8726 27.7202 15.905 27.7202 17.1776C27.7202 18.4502 28.7134 19.4826 29.9377 19.4826C31.1629 19.4826 32.1552 18.4511 32.1552 17.1776Z" fill="#FFF8ED"/>
</svg>
