<svg width="44" height="48" viewBox="0 0 44 48" fill="none" xmlns="http://www.w3.org/2000/svg">
<path d="M27.8725 31.5193H9.5995L0.463013 47.279V15.7597C0.463013 7.0554 7.62181 0 16.4517 0H27.8725C36.7032 0 43.8612 7.05628 43.8612 15.7597C43.862 24.4639 36.7032 31.5193 27.8725 31.5193Z" fill="#4FCDFF"/>
<path d="M13.8821 20.2392C15.1304 20.2392 16.1424 19.2417 16.1424 18.0112C16.1424 16.7807 15.1304 15.7832 13.8821 15.7832C12.6337 15.7832 11.6217 16.7807 11.6217 18.0112C11.6217 19.2417 12.6337 20.2392 13.8821 20.2392Z" fill="#FFF8ED"/>
<path d="M22.7146 20.2392C23.9629 20.2392 24.9749 19.2417 24.9749 18.0112C24.9749 16.7807 23.9629 15.7832 22.7146 15.7832C21.4662 15.7832 20.4542 16.7807 20.4542 18.0112C20.4542 19.2417 21.4662 20.2392 22.7146 20.2392Z" fill="#FFF8ED"/>
<path d="M31.6084 20.2392C32.8567 20.2392 33.8687 19.2417 33.8687 18.0112C33.8687 16.7807 32.8567 15.7832 31.6084 15.7832C30.36 15.7832 29.348 16.7807 29.348 18.0112C29.348 19.2417 30.36 20.2392 31.6084 20.2392Z" fill="#FFF8ED"/>
</svg>
