<svg width="37" height="37" viewBox="0 0 37 37" fill="none" xmlns="http://www.w3.org/2000/svg">
<path d="M9.24996 33.9167C8.40204 33.9167 7.67617 33.6148 7.07236 33.011C6.46854 32.4072 6.16663 31.6813 6.16663 30.8334V15.4167C6.16663 14.5688 6.46854 13.843 7.07236 13.2391C7.67617 12.6353 8.40204 12.3334 9.24996 12.3334H10.7916V9.25008C10.7916 7.11744 11.5432 5.29956 13.0463 3.79644C14.5494 2.29331 16.3673 1.54175 18.5 1.54175C20.6326 1.54175 22.4505 2.29331 23.9536 3.79644C25.4567 5.29956 26.2083 7.11744 26.2083 9.25008V12.3334H27.75C28.5979 12.3334 29.3237 12.6353 29.9276 13.2391C30.5314 13.843 30.8333 14.5688 30.8333 15.4167V30.8334C30.8333 31.6813 30.5314 32.4072 29.9276 33.011C29.3237 33.6148 28.5979 33.9167 27.75 33.9167H9.24996ZM9.24996 30.8334H27.75V15.4167H9.24996V30.8334ZM18.5 26.2084C19.3479 26.2084 20.0737 25.9065 20.6776 25.3027C21.2814 24.6989 21.5833 23.973 21.5833 23.1251C21.5833 22.2772 21.2814 21.5513 20.6776 20.9475C20.0737 20.3437 19.3479 20.0417 18.5 20.0417C17.652 20.0417 16.9262 20.3437 16.3224 20.9475C15.7185 21.5513 15.4166 22.2772 15.4166 23.1251C15.4166 23.973 15.7185 24.6989 16.3224 25.3027C16.9262 25.9065 17.652 26.2084 18.5 26.2084ZM13.875 12.3334H23.125V9.25008C23.125 7.96536 22.6753 6.87335 21.776 5.97404C20.8767 5.07473 19.7847 4.62508 18.5 4.62508C17.2152 4.62508 16.1232 5.07473 15.2239 5.97404C14.3246 6.87335 13.875 7.96536 13.875 9.25008V12.3334Z" fill="#F59E0E"/>
</svg>
