<svg width="34" height="34" viewBox="0 0 34 34" fill="none" xmlns="http://www.w3.org/2000/svg">
<path d="M22.61 24.99L24.99 22.61L18.7 16.32V8.5H15.3V17.68L22.61 24.99ZM17 34C14.6483 34 12.4383 33.5538 10.37 32.6613C8.30167 31.7688 6.5025 30.5575 4.9725 29.0275C3.4425 27.4975 2.23125 25.6983 1.33875 23.63C0.44625 21.5617 0 19.3517 0 17C0 14.6483 0.44625 12.4383 1.33875 10.37C2.23125 8.30167 3.4425 6.5025 4.9725 4.9725C6.5025 3.4425 8.30167 2.23125 10.37 1.33875C12.4383 0.44625 14.6483 0 17 0C19.3517 0 21.5617 0.44625 23.63 1.33875C25.6983 2.23125 27.4975 3.4425 29.0275 4.9725C30.5575 6.5025 31.7688 8.30167 32.6613 10.37C33.5538 12.4383 34 14.6483 34 17C34 19.3517 33.5538 21.5617 32.6613 23.63C31.7688 25.6983 30.5575 27.4975 29.0275 29.0275C27.4975 30.5575 25.6983 31.7688 23.63 32.6613C21.5617 33.5538 19.3517 34 17 34ZM17 30.6C20.7683 30.6 23.9771 29.2754 26.6263 26.6263C29.2754 23.9771 30.6 20.7683 30.6 17C30.6 13.2317 29.2754 10.0229 26.6263 7.37375C23.9771 4.72458 20.7683 3.4 17 3.4C13.2317 3.4 10.0229 4.72458 7.37375 7.37375C4.72458 10.0229 3.4 13.2317 3.4 17C3.4 20.7683 4.72458 23.9771 7.37375 26.6263C10.0229 29.2754 13.2317 30.6 17 30.6Z" fill="#F59E0E"/>
</svg>
