<svg width="512" height="330" viewBox="0 0 512 330" fill="none" xmlns="http://www.w3.org/2000/svg">
<path opacity="0.5" d="M205.745 327.216L258.369 329.961L373.74 246.836L278.066 219.543L205.745 327.216Z" fill="#3B4972"/>
<path opacity="0.5" d="M355.265 201.631L425.66 209.431L512 147.22L405.938 111.003L355.265 201.631Z" fill="#3B4972"/>
<path d="M29.5544 222.528L18.0847 251.74L107.572 317.233L171.628 296.472L133.633 257.453L29.5544 222.528Z" fill="#9DB1C4"/>
<path d="M422.306 71.2621L422.115 156.008C422.115 158.158 420.989 160.317 418.745 161.954L418.936 77.2087C421.174 75.5635 422.299 73.4128 422.306 71.2621Z" fill="#9DB1C4"/>
<mask id="mask0_352_1835" style="mask-type:luminance" maskUnits="userSpaceOnUse" x="418" y="71" width="5" height="91">
<path d="M422.301 71.2625L422.11 156.008C422.11 158.159 420.985 160.318 418.741 161.955L418.931 77.2091C421.169 75.5639 422.295 73.4132 422.301 71.2625Z" fill="white"/>
</mask>
<g mask="url(#mask0_352_1835)">
<path d="M422.3 71.2622L422.109 156.008C422.109 156.048 422.109 156.096 422.109 156.136L422.3 71.3906C422.3 71.3505 422.3 71.3023 422.3 71.2622Z" fill="#9DB1C4"/>
<path d="M422.292 71.3907L422.102 156.136C422.095 156.417 422.07 156.698 422.025 156.979L422.216 72.2334C422.261 71.9525 422.286 71.6716 422.292 71.3907Z" fill="#9DB1C4"/>
<path d="M422.217 72.2335L422.026 156.979C421.982 157.252 421.918 157.533 421.842 157.806L422.032 73.0601C422.115 72.7872 422.179 72.5144 422.217 72.2335Z" fill="#9DB1C4"/>
<path d="M422.034 73.0521L421.843 157.798C421.76 158.079 421.658 158.351 421.531 158.632L421.722 73.8868C421.843 73.6139 421.945 73.333 422.034 73.0521Z" fill="#9DB1C4"/>
<path d="M421.721 73.8866L421.531 158.632C421.397 158.929 421.244 159.218 421.066 159.507L421.257 74.7613C421.435 74.4724 421.594 74.1835 421.721 73.8866Z" fill="#9DB1C4"/>
<path d="M421.26 74.7612L421.07 159.507C420.86 159.844 420.624 160.165 420.351 160.486L420.542 75.7403C420.815 75.4273 421.05 75.0983 421.26 74.7612Z" fill="#9DB1C4"/>
<path d="M420.537 75.7323L420.347 160.478C419.933 160.959 419.444 161.425 418.878 161.85L419.069 77.1046C419.634 76.6792 420.118 76.2138 420.537 75.7323Z" fill="#9DB1C4"/>
<path d="M419.072 77.1046L418.881 161.85C418.837 161.882 418.786 161.922 418.741 161.955L418.932 77.2089C418.976 77.1768 419.027 77.1367 419.072 77.1046Z" fill="#9DB1C4"/>
</g>
<path d="M304.977 162.588L305.167 77.8429C305.167 80.0257 306.305 82.2085 308.588 83.8778L308.397 168.623C306.115 166.962 304.97 164.771 304.977 162.588Z" fill="#D1DEE8"/>
<mask id="mask1_352_1835" style="mask-type:luminance" maskUnits="userSpaceOnUse" x="304" y="77" width="5" height="92">
<path d="M304.976 162.589L305.167 77.8433C305.167 80.0261 306.305 82.2089 308.587 83.8781L308.397 168.624C306.114 166.963 304.97 164.772 304.976 162.589Z" fill="white"/>
</mask>
<g mask="url(#mask1_352_1835)">
<path d="M308.587 83.8781L308.397 168.624C306.114 166.963 304.97 164.772 304.976 162.589L305.167 77.8433C305.167 80.0261 306.305 82.2089 308.587 83.8781Z" fill="#D1DEE8"/>
</g>
<path d="M418.935 77.2087L418.744 161.954L367.359 199.648L367.55 114.903L418.935 77.2087Z" fill="#9DB1C4"/>
<path d="M351.161 114.903L350.97 199.649L308.398 168.623L308.589 83.8778L351.161 114.903Z" fill="#D1DEE8"/>
<path d="M367.55 114.903L367.359 199.649C362.845 202.955 355.508 202.955 350.969 199.649L351.16 114.903C355.699 118.209 363.042 118.209 367.55 114.903Z" fill="#D1DEE8"/>
<mask id="mask2_352_1835" style="mask-type:luminance" maskUnits="userSpaceOnUse" x="350" y="114" width="18" height="89">
<path d="M367.546 114.903L367.356 199.649C362.841 202.955 355.504 202.955 350.965 199.649L351.156 114.903C355.695 118.209 363.039 118.209 367.546 114.903Z" fill="white"/>
</mask>
<g mask="url(#mask2_352_1835)">
<path d="M367.544 114.903L367.353 199.649C366.578 200.218 365.726 200.684 364.81 201.061L365.001 116.316C365.91 115.946 366.768 115.473 367.544 114.903Z" fill="#D1DEE8"/>
<path d="M365.011 116.315L364.82 201.061C364.114 201.35 363.383 201.583 362.626 201.751L362.817 117.006C363.574 116.837 364.311 116.604 365.011 116.315Z" fill="#D1DEE8"/>
<path d="M362.813 117.005L362.623 201.751C362.139 201.863 361.643 201.951 361.141 202.008L361.332 117.262C361.828 117.198 362.324 117.11 362.813 117.005Z" fill="#D1DEE8"/>
<path d="M361.334 117.262L361.143 202.008C360.717 202.064 360.291 202.096 359.859 202.112L360.05 117.367C360.482 117.35 360.908 117.31 361.334 117.262Z" fill="#D1DEE8"/>
<path d="M360.051 117.367L359.86 202.112C359.466 202.128 359.072 202.128 358.671 202.112L358.862 117.367C359.256 117.383 359.657 117.375 360.051 117.367Z" fill="#D1DEE8"/>
<path d="M358.862 117.375L358.671 202.12C358.289 202.112 357.908 202.08 357.526 202.04L357.717 117.294C358.099 117.334 358.48 117.359 358.862 117.375Z" fill="#D1DEE8"/>
<path d="M357.723 117.302L357.533 202.048C357.157 202.008 356.776 201.951 356.407 201.887L356.598 117.142C356.973 117.206 357.348 117.262 357.723 117.302Z" fill="#D1DEE8"/>
<path d="M356.588 117.142L356.397 201.888C356.009 201.815 355.628 201.735 355.246 201.639L355.437 116.893C355.812 116.989 356.2 117.078 356.588 117.142Z" fill="#D1DEE8"/>
<path d="M355.45 116.885L355.26 201.631C354.846 201.526 354.446 201.398 354.052 201.254L354.242 116.508C354.637 116.653 355.044 116.773 355.45 116.885Z" fill="#D1DEE8"/>
<path d="M354.239 116.516L354.048 201.262C353.565 201.085 353.094 200.885 352.643 200.66L352.834 115.914C353.285 116.139 353.756 116.34 354.239 116.516Z" fill="#D1DEE8"/>
<path d="M352.828 115.914L352.637 200.66C352.046 200.363 351.486 200.026 350.965 199.649L351.156 114.903C351.677 115.288 352.236 115.625 352.828 115.914Z" fill="#D1DEE8"/>
</g>
<path d="M418.876 65.2274C423.415 68.5337 423.44 73.9026 418.933 77.2089L367.548 114.903C363.034 118.209 355.697 118.209 351.158 114.903L308.585 83.8778C304.045 80.5715 304.02 75.2107 308.528 71.8963L359.881 34.1861C364.388 30.8717 371.732 30.8717 376.278 34.1861L418.882 65.2354L418.876 65.2274Z" fill="#F0F7FC"/>
<path d="M377.113 55.4042L377.062 77.4974C377.062 78.0592 376.77 78.621 376.185 79.0463L376.236 56.953C376.821 56.5277 377.113 55.9659 377.113 55.4042Z" fill="#344E56"/>
<mask id="mask3_352_1835" style="mask-type:luminance" maskUnits="userSpaceOnUse" x="376" y="55" width="2" height="25">
<path d="M377.118 55.4044L377.067 77.4977C377.067 78.0594 376.774 78.6212 376.189 79.0465L376.24 56.9533C376.825 56.5279 377.118 55.9662 377.118 55.4044Z" fill="white"/>
</mask>
<g mask="url(#mask3_352_1835)">
<path d="M377.119 55.4045L377.068 77.4978C377.068 77.4978 377.068 77.5219 377.068 77.5299L377.119 55.4366C377.119 55.4366 377.119 55.4126 377.119 55.4045Z" fill="#344E56"/>
<path d="M377.117 55.4364L377.065 77.5297C377.065 77.6019 377.059 77.6741 377.046 77.7464L377.097 55.6531C377.11 55.5809 377.117 55.5086 377.117 55.4364Z" fill="#344E56"/>
<path d="M377.097 55.6532L377.046 77.7465C377.034 77.8187 377.021 77.8909 376.996 77.9631L377.046 55.8699C377.066 55.7977 377.085 55.7254 377.097 55.6532Z" fill="#344E56"/>
<path d="M377.05 55.8698L376.999 77.963C376.98 78.0352 376.948 78.1074 376.916 78.1797L376.967 56.0864C376.999 56.0142 377.024 55.942 377.05 55.8698Z" fill="#344E56"/>
<path d="M376.966 56.0863L376.915 78.1796C376.883 78.2598 376.838 78.332 376.794 78.4042L376.845 56.311C376.889 56.2388 376.934 56.1585 376.966 56.0863Z" fill="#344E56"/>
<path d="M376.843 56.3191L376.792 78.4123C376.735 78.5006 376.677 78.5808 376.607 78.6691L376.658 56.5759C376.728 56.4957 376.792 56.4074 376.843 56.3191Z" fill="#344E56"/>
<path d="M376.659 56.568L376.608 78.6612C376.5 78.7896 376.373 78.91 376.227 79.0224L376.277 56.9291C376.424 56.8168 376.551 56.6964 376.659 56.568Z" fill="#344E56"/>
<path d="M376.278 56.9291L376.228 79.0223C376.228 79.0223 376.202 79.0384 376.189 79.0464L376.24 56.9531C376.24 56.9531 376.266 56.9371 376.278 56.9291Z" fill="#344E56"/>
</g>
<path d="M346.527 79.215L346.578 57.1218C346.578 57.6916 346.877 58.2614 347.468 58.6947L347.417 80.788C346.82 80.3546 346.527 79.7848 346.527 79.215Z" fill="#587D8C"/>
<mask id="mask4_352_1835" style="mask-type:luminance" maskUnits="userSpaceOnUse" x="346" y="57" width="2" height="24">
<path d="M346.527 79.2149L346.578 57.1217C346.578 57.6915 346.877 58.2612 347.468 58.6946L347.417 80.7879C346.82 80.3545 346.527 79.7847 346.527 79.2149Z" fill="white"/>
</mask>
<g mask="url(#mask4_352_1835)">
<path d="M347.468 58.6946L347.417 80.7879C346.82 80.3545 346.527 79.7847 346.527 79.2149L346.578 57.1217C346.578 57.6915 346.877 58.2612 347.468 58.6946Z" fill="#587D8C"/>
</g>
<path d="M376.236 56.9534L376.185 79.0547L362.789 88.8774L362.84 66.7842L376.236 56.9534Z" fill="#344E56"/>
<path d="M358.57 66.7838L358.519 88.8771L347.418 80.7877L347.469 58.6945L358.57 66.7838Z" fill="#587D8C"/>
<path d="M362.843 66.7839L362.792 88.8772C361.616 89.7439 359.702 89.7439 358.52 88.8772L358.57 66.7839C359.753 67.6507 361.667 67.6507 362.843 66.7839Z" fill="#344E56"/>
<mask id="mask5_352_1835" style="mask-type:luminance" maskUnits="userSpaceOnUse" x="358" y="66" width="5" height="24">
<path d="M362.839 66.7843L362.788 88.8776C361.611 89.7443 359.698 89.7443 358.515 88.8776L358.566 66.7843C359.749 67.651 361.662 67.651 362.839 66.7843Z" fill="white"/>
</mask>
<g mask="url(#mask5_352_1835)">
<path d="M362.846 66.7844L362.795 88.8777C362.592 89.0221 362.369 89.1505 362.134 89.2468L362.185 67.1536C362.42 67.0573 362.642 66.9369 362.846 66.7844Z" fill="#344E56"/>
<path d="M362.183 67.1532L362.132 89.2464C361.947 89.3186 361.757 89.3829 361.56 89.423L361.61 67.3297C361.808 67.2816 361.998 67.2254 362.183 67.1532Z" fill="#344E56"/>
<path d="M361.61 67.3303L361.559 89.4236C361.432 89.4557 361.304 89.4717 361.171 89.4878L361.222 67.3945C361.349 67.3785 361.482 67.3544 361.61 67.3303Z" fill="#344E56"/>
<path d="M361.22 67.3944L361.17 89.4877C361.061 89.5037 360.947 89.5117 360.833 89.5198L360.883 67.4265C360.998 67.4265 361.106 67.4105 361.22 67.3944Z" fill="#344E56"/>
<path d="M360.887 67.4265L360.836 89.5198C360.734 89.5198 360.632 89.5198 360.524 89.5198L360.575 67.4265C360.677 67.4265 360.779 67.4265 360.887 67.4265Z" fill="#344E56"/>
<path d="M360.581 67.4264L360.53 89.5197C360.428 89.5197 360.333 89.5116 360.231 89.5036L360.282 67.4104C360.384 67.4184 360.479 67.4264 360.581 67.4345V67.4264Z" fill="#344E56"/>
<path d="M360.281 67.4104L360.23 89.5036C360.129 89.4956 360.033 89.4795 359.938 89.4635L359.989 67.3702C360.084 67.3863 360.186 67.4024 360.281 67.4104Z" fill="#344E56"/>
<path d="M359.991 67.37L359.94 89.4632C359.838 89.4472 359.736 89.4231 359.641 89.399L359.692 67.3058C359.794 67.3299 359.889 67.3539 359.991 67.37Z" fill="#344E56"/>
<path d="M359.687 67.298L359.636 89.3912C359.528 89.3671 359.426 89.327 359.318 89.2949L359.369 67.2017C359.471 67.2418 359.579 67.2739 359.687 67.298Z" fill="#344E56"/>
<path d="M359.372 67.202L359.321 89.2953C359.194 89.2471 359.073 89.199 358.953 89.1428L359.003 67.0496C359.124 67.1057 359.245 67.1619 359.372 67.202Z" fill="#344E56"/>
<path d="M359.005 67.0491L358.954 89.1424C358.801 89.0621 358.655 88.9819 358.515 88.8776L358.566 66.7843C358.699 66.8806 358.846 66.9689 359.005 67.0491Z" fill="#344E56"/>
</g>
<path d="M376.225 53.8315C377.407 54.6982 377.414 56.0946 376.238 56.9533L362.841 66.7761C361.665 67.6428 359.752 67.6428 358.569 66.7761L347.468 58.6867C346.285 57.8281 346.279 56.4236 347.455 55.565L360.845 45.7341C362.021 44.8674 363.935 44.8674 365.118 45.7341L376.225 53.8315Z" fill="#739FAD"/>
<path d="M342.222 108.386V131.057L268.528 186.054L266.862 165.477L342.222 108.386Z" fill="#9DB1C4"/>
<path d="M241.742 67.3062L241.417 211.51C241.411 215.178 239.497 218.837 235.689 221.63L236.013 77.4259C239.828 74.6251 241.735 70.9656 241.742 67.3062Z" fill="#9DB1C4"/>
<mask id="mask6_352_1835" style="mask-type:luminance" maskUnits="userSpaceOnUse" x="235" y="67" width="7" height="155">
<path d="M241.735 67.3062L241.41 211.51C241.404 215.178 239.49 218.837 235.682 221.63L236.006 77.4259C239.821 74.6251 241.728 70.9656 241.735 67.3062Z" fill="white"/>
</mask>
<g mask="url(#mask6_352_1835)">
<path d="M241.738 67.3062L241.414 211.51C241.414 211.582 241.414 211.654 241.414 211.727L241.738 67.5228C241.738 67.4506 241.738 67.3784 241.738 67.3062Z" fill="#9DB1C4"/>
<path d="M241.731 67.5226L241.407 211.727C241.394 212.2 241.356 212.682 241.28 213.155L241.604 68.9511C241.68 68.4776 241.725 67.9961 241.731 67.5226Z" fill="#9DB1C4"/>
<path d="M241.606 68.9514L241.282 213.155C241.206 213.629 241.104 214.094 240.964 214.56L241.288 70.3558C241.428 69.8904 241.53 69.4249 241.606 68.9514Z" fill="#9DB1C4"/>
<path d="M241.283 70.3557L240.959 214.56C240.819 215.033 240.641 215.507 240.431 215.972L240.755 71.7681C240.965 71.3027 241.137 70.8292 241.283 70.3557Z" fill="#9DB1C4"/>
<path d="M240.763 71.7681L240.439 215.972C240.216 216.478 239.949 216.975 239.644 217.457L239.968 73.2527C240.273 72.7632 240.534 72.2656 240.763 71.7681Z" fill="#9DB1C4"/>
<path d="M239.966 73.2605L239.642 217.464C239.286 218.034 238.879 218.588 238.421 219.126L238.746 74.9217C239.203 74.384 239.617 73.8303 239.966 73.2605Z" fill="#9DB1C4"/>
<path d="M238.745 74.9138L238.421 219.118C237.715 219.944 236.882 220.723 235.922 221.453L236.246 77.2492C237.206 76.5189 238.039 75.7404 238.745 74.9138Z" fill="#9DB1C4"/>
<path d="M236.248 77.2495L235.923 221.453C235.847 221.518 235.764 221.574 235.682 221.63L236.006 77.426C236.089 77.3699 236.165 77.3057 236.248 77.2495Z" fill="#9DB1C4"/>
</g>
<path d="M42.0987 222.713L42.4229 78.5093C42.4166 82.2249 44.3557 85.9406 48.2404 88.7735L47.9162 232.977C44.0315 230.144 42.086 226.429 42.0987 222.713Z" fill="#D1DEE8"/>
<mask id="mask7_352_1835" style="mask-type:luminance" maskUnits="userSpaceOnUse" x="42" y="78" width="7" height="155">
<path d="M42.0987 222.713L42.4229 78.5092C42.4166 82.2248 44.3557 85.9405 48.2404 88.7734L47.9162 232.977C44.0315 230.144 42.086 226.429 42.0987 222.713Z" fill="white"/>
</mask>
<g mask="url(#mask7_352_1835)">
<path d="M48.2561 88.7731L47.9318 232.977C44.0471 230.144 42.1016 226.429 42.1143 222.713L42.4386 78.5089C42.4322 82.2246 44.3714 85.9402 48.2561 88.7731Z" fill="#D1DEE8"/>
</g>
<path d="M236.014 77.4338L235.689 221.63L148.256 285.767L148.58 141.563L236.014 77.4338Z" fill="#9DB1C4"/>
<path d="M120.685 141.563L120.361 285.767L47.9253 232.977L48.2496 88.7734L120.685 141.563Z" fill="#D1DEE8"/>
<path d="M148.572 141.563L148.248 285.767C140.567 291.4 128.08 291.4 120.355 285.767L120.68 141.563C128.405 147.196 140.891 147.196 148.572 141.563Z" fill="#D1DEE8"/>
<mask id="mask8_352_1835" style="mask-type:luminance" maskUnits="userSpaceOnUse" x="120" y="141" width="29" height="149">
<path d="M148.58 141.562L148.256 285.766C140.576 291.4 128.089 291.4 120.364 285.766L120.688 141.562C128.413 147.196 140.9 147.196 148.58 141.562Z" fill="white"/>
</mask>
<g mask="url(#mask8_352_1835)">
<path d="M148.58 141.562L148.256 285.766C146.94 286.729 145.484 287.532 143.932 288.166L144.257 143.962C145.808 143.328 147.264 142.526 148.58 141.562Z" fill="#D1DEE8"/>
<path d="M144.26 143.961L143.935 288.165C142.74 288.655 141.488 289.048 140.203 289.337L140.528 145.133C141.812 144.844 143.064 144.451 144.26 143.961Z" fill="#D1DEE8"/>
<path d="M140.526 145.134L140.201 289.338C139.375 289.522 138.536 289.675 137.684 289.779L138.008 145.575C138.853 145.471 139.699 145.318 140.526 145.134Z" fill="#D1DEE8"/>
<path d="M138.007 145.583L137.683 289.787C136.958 289.875 136.227 289.939 135.496 289.972L135.82 145.768C136.551 145.736 137.282 145.671 138.007 145.583Z" fill="#D1DEE8"/>
<path d="M135.821 145.759L135.496 289.963C134.822 289.995 134.149 289.995 133.475 289.971L133.799 145.767C134.473 145.791 135.147 145.783 135.821 145.759Z" fill="#D1DEE8"/>
<path d="M133.803 145.776L133.479 289.98C132.83 289.956 132.182 289.916 131.533 289.851L131.858 145.647C132.5 145.712 133.148 145.76 133.803 145.776Z" fill="#D1DEE8"/>
<path d="M131.86 145.647L131.536 289.851C130.894 289.787 130.252 289.691 129.616 289.578L129.94 145.374C130.576 145.487 131.212 145.575 131.86 145.647Z" fill="#D1DEE8"/>
<path d="M129.946 145.374L129.622 289.578C128.961 289.458 128.312 289.313 127.664 289.153L127.988 144.949C128.63 145.118 129.285 145.262 129.946 145.374Z" fill="#D1DEE8"/>
<path d="M127.989 144.941L127.664 289.145C126.965 288.96 126.278 288.752 125.604 288.511L125.929 144.307C126.603 144.548 127.289 144.765 127.989 144.941Z" fill="#D1DEE8"/>
<path d="M125.932 144.307L125.607 288.511C124.787 288.214 123.986 287.877 123.21 287.492L123.535 143.288C124.304 143.673 125.105 144.01 125.932 144.307Z" fill="#D1DEE8"/>
<path d="M123.536 143.288L123.212 287.492C122.208 286.994 121.254 286.416 120.364 285.766L120.688 141.562C121.578 142.213 122.532 142.782 123.536 143.288Z" fill="#D1DEE8"/>
</g>
<path d="M235.911 57.0418C243.635 62.6754 243.68 71.8 236.006 77.4337L148.572 141.571C140.892 147.204 128.405 147.204 120.68 141.571L48.238 88.7813C40.5195 83.1556 40.4686 74.031 48.1426 68.3974L135.519 4.22825C143.193 -1.4054 155.686 -1.41343 163.418 4.22825L235.911 57.0578V57.0418Z" fill="#F0F7FC"/>
<path d="M216.913 59.8344C222.89 64.1921 222.922 71.2542 216.983 75.6119L149.342 125.223C143.403 129.581 133.739 129.581 127.763 125.223L71.7243 84.3833C65.7479 80.0337 65.7161 72.9716 71.648 68.614L139.245 18.9703C145.184 14.6127 154.848 14.6047 160.83 18.9703L216.913 59.8425V59.8344Z" fill="#587D8C"/>
<path d="M280.354 179.321L280.138 275.278C280.138 277.717 278.86 280.149 276.323 282.011L276.54 186.054C279.076 184.192 280.348 181.761 280.354 179.321Z" fill="#9DB1C4"/>
<mask id="mask9_352_1835" style="mask-type:luminance" maskUnits="userSpaceOnUse" x="276" y="179" width="5" height="104">
<path d="M280.358 179.32L280.142 275.277C280.142 277.717 278.864 280.148 276.327 282.01L276.544 186.054C279.08 184.192 280.352 181.76 280.358 179.32Z" fill="white"/>
</mask>
<g mask="url(#mask9_352_1835)">
<path d="M280.357 179.321L280.141 275.277C280.141 275.325 280.141 275.374 280.141 275.422L280.357 179.465C280.357 179.417 280.357 179.369 280.357 179.321Z" fill="#9DB1C4"/>
<path d="M280.358 179.465L280.142 275.422C280.136 275.743 280.104 276.056 280.053 276.369L280.269 180.412C280.32 180.099 280.346 179.778 280.358 179.465Z" fill="#9DB1C4"/>
<path d="M280.269 180.412L280.053 276.369C280.002 276.682 279.932 276.995 279.843 277.3L280.059 181.343C280.148 181.038 280.225 180.725 280.269 180.412Z" fill="#9DB1C4"/>
<path d="M280.06 181.351L279.843 277.308C279.748 277.629 279.634 277.942 279.494 278.247L279.71 182.29C279.85 181.977 279.964 181.664 280.06 181.351Z" fill="#9DB1C4"/>
<path d="M279.712 182.29L279.496 278.247C279.343 278.584 279.172 278.913 278.968 279.234L279.184 183.277C279.388 182.956 279.56 182.619 279.712 182.29Z" fill="#9DB1C4"/>
<path d="M279.184 183.277L278.968 279.234C278.732 279.611 278.459 279.98 278.154 280.341L278.37 184.385C278.675 184.023 278.949 183.654 279.184 183.277Z" fill="#9DB1C4"/>
<path d="M278.366 184.384L278.15 280.341C277.679 280.887 277.126 281.408 276.49 281.89L276.707 185.933C277.342 185.452 277.896 184.93 278.366 184.384Z" fill="#9DB1C4"/>
<path d="M276.702 185.934L276.486 281.89C276.435 281.931 276.378 281.971 276.327 282.011L276.543 186.054C276.594 186.014 276.651 185.974 276.702 185.934Z" fill="#9DB1C4"/>
</g>
<path d="M147.511 282.725L147.727 186.768C147.727 189.24 149.011 191.712 151.599 193.598L151.383 289.555C148.795 287.669 147.504 285.197 147.511 282.725Z" fill="#D1DEE8"/>
<mask id="mask10_352_1835" style="mask-type:luminance" maskUnits="userSpaceOnUse" x="147" y="186" width="5" height="104">
<path d="M147.511 282.725L147.727 186.768C147.727 189.24 149.011 191.712 151.599 193.598L151.383 289.554C148.795 287.669 147.504 285.197 147.511 282.725Z" fill="white"/>
</mask>
<g mask="url(#mask10_352_1835)">
<path d="M151.599 193.606L151.383 289.563C148.796 287.677 147.505 285.205 147.511 282.733L147.727 186.777C147.727 189.248 149.012 191.72 151.599 193.606Z" fill="#D1DEE8"/>
</g>
<path d="M276.536 186.054L276.32 282.011L218.145 324.689L218.361 228.732L276.536 186.054Z" fill="#9DB1C4"/>
<path d="M199.8 228.732L199.584 324.689L151.385 289.555L151.601 193.606L199.8 228.732Z" fill="#D1DEE8"/>
<path d="M218.367 228.732L218.151 324.688C213.039 328.436 204.736 328.436 199.592 324.688L199.808 228.732C204.952 232.48 213.262 232.48 218.367 228.732Z" fill="#D1DEE8"/>
<mask id="mask11_352_1835" style="mask-type:luminance" maskUnits="userSpaceOnUse" x="199" y="228" width="20" height="100">
<path d="M218.36 228.731L218.143 324.688C213.032 328.436 204.728 328.436 199.585 324.688L199.801 228.731C204.944 232.479 213.254 232.479 218.36 228.731Z" fill="white"/>
</mask>
<g mask="url(#mask11_352_1835)">
<path d="M218.359 228.731L218.143 324.688C217.266 325.33 216.299 325.859 215.269 326.285L215.485 230.328C216.515 229.903 217.488 229.373 218.359 228.731Z" fill="#D1DEE8"/>
<path d="M215.482 230.328L215.266 326.285C214.471 326.614 213.638 326.871 212.78 327.063L212.996 231.107C213.854 230.914 214.687 230.649 215.482 230.328Z" fill="#D1DEE8"/>
<path d="M212.99 231.106L212.774 327.063C212.221 327.192 211.667 327.288 211.102 327.36L211.318 231.403C211.884 231.331 212.443 231.235 212.99 231.106Z" fill="#D1DEE8"/>
<path d="M211.324 231.404L211.108 327.36C210.624 327.425 210.141 327.465 209.652 327.481L209.868 231.524C210.357 231.5 210.841 231.46 211.324 231.404Z" fill="#D1DEE8"/>
<path d="M209.866 231.524L209.649 327.481C209.204 327.497 208.753 327.505 208.308 327.481L208.524 231.524C208.969 231.54 209.421 231.532 209.866 231.524Z" fill="#D1DEE8"/>
<path d="M208.52 231.532L208.304 327.489C207.872 327.472 207.439 327.448 207.013 327.4L207.23 231.444C207.656 231.492 208.088 231.516 208.52 231.532Z" fill="#D1DEE8"/>
<path d="M207.226 231.444L207.01 327.401C206.584 327.352 206.158 327.296 205.732 327.224L205.948 231.267C206.368 231.339 206.794 231.404 207.226 231.444Z" fill="#D1DEE8"/>
<path d="M205.957 231.267L205.741 327.223C205.302 327.143 204.87 327.047 204.438 326.935L204.654 230.978C205.08 231.09 205.518 231.186 205.957 231.267Z" fill="#D1DEE8"/>
<path d="M204.651 230.978L204.435 326.935C203.97 326.815 203.513 326.67 203.068 326.51L203.284 230.553C203.729 230.713 204.187 230.858 204.651 230.978Z" fill="#D1DEE8"/>
<path d="M203.285 230.553L203.069 326.51C202.522 326.309 201.988 326.084 201.473 325.828L201.689 229.871C202.204 230.128 202.738 230.352 203.285 230.553Z" fill="#D1DEE8"/>
<path d="M201.688 229.879L201.472 325.836C200.804 325.507 200.168 325.121 199.577 324.688L199.793 228.731C200.384 229.165 201.02 229.542 201.688 229.879Z" fill="#D1DEE8"/>
</g>
<path d="M276.478 172.484C281.622 176.231 281.647 182.306 276.542 186.054L218.361 228.732C213.249 232.48 204.945 232.48 199.802 228.732L151.596 193.606C146.459 189.858 146.427 183.791 151.533 180.043L209.676 137.341C214.781 133.594 223.097 133.586 228.241 137.341L276.478 172.492V172.484Z" fill="#F0F7FC"/>
<path d="M319.795 92.0475L243.723 148.617L266.859 165.478L342.219 108.387L319.795 92.0475Z" fill="#F0F7FC"/>
<path d="M42.4263 155.742L0 210.105L90.3712 278.11L133.63 222.528L42.4263 155.742Z" fill="#F0F7FC"/>
<path d="M0 210.105L0 217.103L90.6192 283.889L90.3712 278.11L0 210.105Z" fill="#9DB1C4"/>
<path d="M90.6183 283.888L133.56 251.74L133.629 222.528L90.3704 278.11L90.6183 283.888Z" fill="#9DB1C4"/>
<path d="M133.632 222.528L149.559 245.191L164.78 274.451L164.188 298.887C159.356 295.509 154.518 292.122 149.686 288.743C148.847 287.997 148.014 287.251 147.175 286.505C146.698 286.842 146.164 287.187 145.573 287.5C144.352 288.158 143.22 288.543 142.254 288.776C140.95 289.345 139.183 289.931 137.066 290.156C134.84 290.397 132.946 290.156 131.541 289.843C129.729 289.715 127.573 289.386 125.196 288.679C122.506 287.877 120.23 286.801 118.418 285.758C113.624 281.786 108.824 277.821 104.03 273.849L133.575 251.74L133.639 222.52L133.632 222.528Z" fill="#B0C5D6"/>
<path d="M53.1702 101.445V124.926L120.691 174.474V151.144L53.1702 101.445Z" fill="#7CAFBF"/>
<path d="M53.1697 134.878V158.351L120.691 207.907V184.57L53.1697 134.878Z" fill="#7CAFBF"/>
<path d="M342.224 108.386L367.37 186.054V199.648C366.874 200.058 366.251 200.507 365.494 200.908C364.751 201.301 364.07 201.542 363.498 201.695C362.951 201.871 362.303 202.04 361.565 202.128C360.688 202.232 359.906 202.208 359.264 202.128C358.113 202.216 356.511 202.176 354.68 201.574C353.529 201.197 352.562 200.683 351.8 200.194C344.176 180.46 336.553 160.718 328.93 140.976L342.224 131.057V108.386Z" fill="#9DB1C4"/>
<path fill-rule="evenodd" clip-rule="evenodd" d="M172.259 231.733V221.445L165.195 216.301V226.589L158.132 221.445V231.733L165.195 236.877V247.165L172.259 252.309V242.021L179.323 247.165V236.877L172.259 231.733Z" fill="#7BABBF"/>
</svg>
