<svg width="828" height="689" viewBox="0 0 828 689" fill="none" xmlns="http://www.w3.org/2000/svg">
<path d="M20.2185 673.44C-51.1332 697.605 -103.296 686.973 -120.456 678.636C-195.325 657.897 -220.502 606.995 -211.499 545.452C-200.242 468.522 -127.439 396.331 -67.4443 372.819C-7.44909 349.308 -0.418223 215.745 125.015 195.508C250.448 175.271 276.557 223.287 393.67 70.756C510.783 -81.7704 846.634 46.2429 826.426 161.474C806.223 276.706 606.202 248.512 630.073 349.635C653.944 450.757 501.657 509.758 445.353 517.135C389.049 524.516 304.086 534.538 246.26 539.801C188.434 545.065 109.407 643.232 20.2185 673.44Z" fill="#3587F2" fill-opacity="0.1"/>
</svg>
