<svg width="34" height="37" viewBox="0 0 34 37" fill="none" xmlns="http://www.w3.org/2000/svg">
<path d="M17 37C12.0771 35.9208 8.01302 33.4619 4.80781 29.6231C1.6026 25.7844 0 21.5217 0 16.835V5.55L17 0L34 5.55V16.835C34 21.5217 32.3974 25.7844 29.1922 29.6231C25.987 33.4619 21.9229 35.9208 17 37ZM17 33.115C20.6833 32.0975 23.7292 30.0625 26.1375 27.01C28.5458 23.9575 29.75 20.5658 29.75 16.835V8.09375L17 3.93125L4.25 8.09375V16.835C4.25 20.5658 5.45417 23.9575 7.8625 27.01C10.2708 30.0625 13.3167 32.0975 17 33.115Z" fill="#F59E0E"/>
</svg>
