<svg width="37" height="37" viewBox="0 0 37 37" fill="none" xmlns="http://www.w3.org/2000/svg">
<path d="M18.4999 33.9166C16.3673 33.9166 14.3631 33.5119 12.4874 32.7025C10.6117 31.8931 8.98013 30.7947 7.59263 29.4072C6.20513 28.0197 5.10669 26.3881 4.29731 24.5124C3.48794 22.6367 3.08325 20.6326 3.08325 18.4999C3.08325 16.3673 3.48794 14.3631 4.29731 12.4874C5.10669 10.6117 6.20513 8.98013 7.59263 7.59263C8.98013 6.20513 10.6117 5.10669 12.4874 4.29731C14.3631 3.48794 16.3673 3.08325 18.4999 3.08325C20.1701 3.08325 21.7503 3.32735 23.2405 3.81554C24.7308 4.30374 26.1055 4.98464 27.3645 5.85825L25.1291 8.13221C24.1527 7.51554 23.1121 7.03377 22.0072 6.6869C20.9023 6.34002 19.7333 6.16659 18.4999 6.16659C15.0826 6.16659 12.1727 7.3678 9.77023 9.77023C7.3678 12.1727 6.16659 15.0826 6.16659 18.4999C6.16659 21.9173 7.3678 24.8272 9.77023 27.2296C12.1727 29.632 15.0826 30.8333 18.4999 30.8333C21.9173 30.8333 24.8272 29.632 27.2296 27.2296C29.632 24.8272 30.8333 21.9173 30.8333 18.4999C30.8333 18.0374 30.8076 17.5749 30.7562 17.1124C30.7048 16.6499 30.6277 16.2003 30.5249 15.7635L33.0301 13.2583C33.3128 14.0805 33.5312 14.9284 33.6853 15.802C33.8395 16.6756 33.9166 17.5749 33.9166 18.4999C33.9166 20.6326 33.5119 22.6367 32.7025 24.5124C31.8931 26.3881 30.7947 28.0197 29.4072 29.4072C28.0197 30.7947 26.3881 31.8931 24.5124 32.7025C22.6367 33.5119 20.6326 33.9166 18.4999 33.9166ZM16.3416 25.5916L9.7895 19.0395L11.9478 16.8812L16.3416 21.2749L31.7583 5.81971L33.9166 7.97804L16.3416 25.5916Z" fill="#F59E0E"/>
</svg>
