<svg width="86" height="114" viewBox="0 0 86 114" fill="none" xmlns="http://www.w3.org/2000/svg">
<path d="M12.2629 8.22391C11.7367 7.88993 11.1079 7.77046 10.5002 7.88902C8.7777 8.22391 8.3672 9.95621 8.5966 11.242C8.69584 11.7633 8.9298 12.2476 9.27393 12.644C9.61806 13.0405 10.0597 13.3345 10.5525 13.4952C11.9088 13.8467 13.1041 12.5567 13.4542 11.5893C13.6763 10.9743 13.6785 10.2983 13.4603 9.68182C13.2421 9.06537 12.8177 8.54865 12.2629 8.22391Z" fill="#263238"/>
<path d="M42.6274 27.2339L49.4329 25.2742C49.4329 25.2742 49.4329 24.8608 50.4913 24.0877C51.5498 23.3145 54.383 22.7068 54.383 22.7068C54.383 22.7068 55.687 26.5807 55.2644 26.6882C54.8418 26.7957 51.0226 28.1063 50.8093 27.6722L43.5652 29.7766L42.6274 27.2339Z" fill="#B97964"/>
<path d="M21.8936 19.1552C25.8658 20.474 32.0514 27.672 33.2588 28.1061C34.4661 28.5402 46.0245 25.9727 46.0245 25.9727L47.6343 29.028C47.6343 29.028 37.0257 32.9722 33.2467 32.6663C29.4677 32.3603 24.5377 26.6053 21.0042 25.7743L21.8936 19.1552Z" fill="#90CAF9"/>
<path opacity="0.5" d="M47.6462 29.028C47.6462 29.028 37.0376 32.9722 33.2586 32.6663C30.8157 32.4678 27.8979 29.9996 25.2095 28.0523C23.7165 26.9857 22.2878 26.072 21.0361 25.7743L21.4949 22.3097L21.8974 19.1552C25.8696 20.474 32.0552 27.6678 33.2626 28.1061C34.4699 28.5443 46.0283 25.9727 46.0283 25.9727L47.6462 29.028Z" fill="white"/>
<path opacity="0.2" d="M25.1895 28.0523C23.6964 26.9857 22.2677 26.072 21.0161 25.7743L21.4749 22.3097C22.6138 23.4466 24.3685 25.5138 25.1895 28.0523Z" fill="black"/>
<path d="M27.7451 107.933L25.0608 108.416L23.9621 104.662L22.96 101.218L26.0508 100.11L26.9483 104.249L27.7451 107.933Z" fill="#E4897B"/>
<path d="M24.4572 108.346C24.4129 108.04 28.0792 107.623 28.0792 107.623C28.0792 107.623 30.7153 109.549 32.9771 109.69C35.2389 109.83 34.2528 111.377 31.8261 111.819L25.8295 112.906C24.1071 113.208 24.9281 111.509 24.4572 108.346Z" fill="#263238"/>
<path d="M29.8902 108.251C29.4445 108.23 29.0028 108.155 28.5742 108.028C28.5636 108.03 28.5526 108.03 28.542 108.028C28.5308 108.021 28.5222 108.011 28.5178 107.999C28.5178 107.999 28.5178 107.999 28.5178 107.974C28.5159 107.959 28.5159 107.944 28.5178 107.928C28.5178 107.887 28.6829 106.961 29.1376 106.663C29.2061 106.617 29.2839 106.586 29.3654 106.574C29.4468 106.562 29.5298 106.568 29.6085 106.593C29.7896 106.643 29.8862 106.734 29.9023 106.862C29.9264 107.06 29.7011 107.304 29.4314 107.519C29.697 107.421 29.9843 107.401 30.2605 107.461C30.3125 107.479 30.3604 107.508 30.4012 107.546C30.4421 107.583 30.475 107.629 30.4979 107.68C30.5377 107.742 30.5589 107.814 30.5589 107.887C30.5589 107.961 30.5377 108.033 30.4979 108.094C30.4127 108.162 30.3147 108.211 30.2101 108.238C30.1055 108.265 29.9966 108.269 29.8902 108.251ZM28.8962 107.908C29.4676 108.044 30.1679 108.127 30.3168 107.953C30.3168 107.953 30.3691 107.891 30.3168 107.751C30.3056 107.724 30.2885 107.699 30.2669 107.68C30.2453 107.661 30.2197 107.647 30.192 107.639C29.8942 107.532 29.2865 107.738 28.8962 107.908ZM29.4314 106.754C29.358 106.754 29.2862 106.777 29.2262 106.82C28.9723 107.063 28.8015 107.384 28.7392 107.734C29.2423 107.428 29.7131 107.044 29.693 106.874C29.693 106.82 29.5964 106.787 29.5401 106.771C29.5045 106.761 29.4681 106.756 29.4314 106.754Z" fill="#90CAF9"/>
<path opacity="0.2" d="M26.9644 104.336L23.9741 104.741L22.968 101.256L26.0548 100.127L26.9644 104.336Z" fill="black"/>
<path d="M9.84794 109.111H7.12334L6.67662 105.221L6.27417 101.644L9.50585 101.107L9.68696 105.345L9.84794 109.111Z" fill="#E4897B"/>
<path d="M6.53996 108.933C6.53996 108.623 10.2345 108.867 10.2345 108.867C10.2345 108.867 12.5043 111.236 14.7057 111.761C16.9071 112.286 15.6796 113.651 13.2166 113.651H7.12352C5.37285 113.659 6.46752 112.129 6.53996 108.933Z" fill="#263238"/>
<path d="M12.1743 109.855C11.6425 109.788 11.1263 109.625 10.649 109.375C10.6347 109.371 10.6221 109.362 10.6128 109.351V109.33C10.6027 109.305 10.6027 109.277 10.6128 109.251C10.6128 109.214 10.9347 108.329 11.4177 108.119C11.492 108.083 11.5731 108.064 11.6551 108.064C11.7372 108.064 11.8183 108.083 11.8926 108.119C12.0616 108.201 12.1421 108.309 12.134 108.437C12.134 108.635 11.8604 108.85 11.5626 108.999C11.8343 108.955 12.1125 108.988 12.3675 109.094C12.4165 109.12 12.4595 109.156 12.4936 109.2C12.5276 109.244 12.5519 109.296 12.5647 109.351C12.595 109.42 12.6028 109.498 12.5868 109.572C12.5709 109.647 12.5321 109.714 12.4761 109.764C12.3877 109.827 12.2818 109.859 12.1743 109.855ZM10.9669 109.313C11.5102 109.549 12.1743 109.76 12.3594 109.611C12.3594 109.611 12.4238 109.561 12.3836 109.413C12.3773 109.384 12.3646 109.357 12.3465 109.334C12.3283 109.311 12.3052 109.292 12.2789 109.28C12.0294 109.103 11.3976 109.198 10.983 109.293L10.9669 109.313ZM11.627 108.272C11.576 108.271 11.5254 108.281 11.478 108.3C11.1871 108.5 10.9657 108.79 10.8462 109.127C11.3935 108.916 11.9207 108.619 11.9288 108.449C11.9288 108.4 11.8483 108.35 11.796 108.325C11.7513 108.289 11.6989 108.263 11.6431 108.251L11.627 108.272Z" fill="#90CAF9"/>
<path opacity="0.2" d="M9.68696 105.431L6.67662 105.295L6.27417 101.686L9.50585 101.123L9.68696 105.431Z" fill="black"/>
<path d="M27.2139 102.149L22.7869 102.947C18.3599 91.5647 15.1765 82.0639 12.9429 74.1797C11.7356 69.9254 10.8019 66.1424 10.0815 62.7853L10.2827 75.1885V103.323H5.82358C-5.06272 49.9895 2.65227 37.8013 2.65227 37.8013L15.6756 35.515C16.1909 37.985 16.5552 40.4856 16.7662 43.0024L17.3538 47.4261L22.4448 74.4319L27.2139 102.149Z" fill="#90CAF9"/>
<path opacity="0.5" d="M27.2139 102.149L22.7869 102.947C18.3599 91.5647 15.1765 82.0639 12.9429 74.1797C11.7356 69.9254 10.8019 66.1424 10.0815 62.7853L10.2827 75.1885V103.323H5.82358C-5.06272 49.9895 2.65227 37.8013 2.65227 37.8013L15.6756 35.515C16.1909 37.985 16.5552 40.4856 16.7662 43.0024L17.3538 47.4261L22.4448 74.4319L27.2139 102.149Z" fill="white"/>
<path d="M22.1189 102.388L27.5842 100.528L27.5077 102.913L22.9882 104.398L22.1189 102.388Z" fill="#90CAF9"/>
<path d="M5.2439 102.649L10.9426 101.793L10.4637 104.129L5.76306 104.782L5.2439 102.649Z" fill="#90CAF9"/>
<path opacity="0.2" d="M12.9632 74.1796C11.7559 69.9253 10.8222 66.1424 10.1018 62.7853C10.163 58.8114 10.4438 54.8443 10.9429 50.9031C10.9429 50.9031 12.8505 66.2292 12.9632 74.1796Z" fill="black"/>
<path d="M17.8248 45.7723L12.2629 47.7071L11.2327 44.2301L10.1058 47.4343L0.00830078 45.0198C0.873571 38.6529 4.33063 33.5717 4.87393 31.6451C5.62249 28.9826 6.21007 23.889 5.69896 20.5939V20.5526C5.64804 20.2201 5.66441 19.8804 5.74706 19.5547C5.8297 19.2291 5.97685 18.9244 6.17929 18.6598C6.38174 18.3951 6.63514 18.1763 6.92365 18.0168C7.21216 17.8573 7.52959 17.7607 7.8561 17.7329C8.83003 17.6544 9.81201 17.6172 10.794 17.613C12.7408 17.5896 14.6867 17.707 16.6175 17.9645C19.0966 18.3779 21.9016 19.1386 21.9016 19.1386C21.9016 19.1386 22.3041 19.3081 22.1109 22.0327C21.9459 24.4265 21.4992 31.8642 16.7342 38.1567L17.8248 45.7723Z" fill="#90CAF9"/>
<path opacity="0.6" d="M17.8248 45.7723L12.2629 47.7071L11.2327 44.2301L10.1058 47.4343L0.00830078 45.0198C0.873571 38.6529 4.33063 33.5717 4.87393 31.6451C5.62249 28.9826 6.21007 23.889 5.69896 20.5939V20.5526C5.64804 20.2201 5.66441 19.8804 5.74706 19.5547C5.8297 19.2291 5.97685 18.9244 6.17929 18.6598C6.38174 18.3951 6.63514 18.1763 6.92365 18.0168C7.21216 17.8573 7.52959 17.7607 7.8561 17.7329C8.83003 17.6544 9.81201 17.6172 10.794 17.613C12.7408 17.5896 14.6867 17.707 16.6175 17.9645C19.0966 18.3779 21.9016 19.1386 21.9016 19.1386C21.9016 19.1386 22.3041 19.3081 22.1109 22.0327C21.9459 24.4265 21.4992 31.8642 16.7342 38.1567L17.8248 45.7723Z" fill="white"/>
<path d="M12.1622 22.7067C12.1622 22.7067 14.3838 24.687 15.0317 29.7765L17.539 22.6612L19.2615 23.2028C19.2615 23.2028 17.9334 16.7491 13.6272 16.6292C9.32094 16.5093 9.6429 23.2028 9.6429 23.2028L12.1622 22.7067Z" fill="#90CAF9"/>
<path opacity="0.5" d="M12.1622 22.7067C12.1622 22.7067 14.3838 24.687 15.0317 29.7765L17.539 22.6612L19.2615 23.2028C19.2615 23.2028 17.9334 16.7491 13.6272 16.6292C9.32094 16.5093 9.6429 23.2028 9.6429 23.2028L12.1622 22.7067Z" fill="white"/>
<path d="M18.4084 15.4508C18.4084 15.4508 16.8308 16.4968 16.5572 17.1914C16.5402 17.2342 16.5267 17.2785 16.5169 17.3237C16.4416 17.7184 16.3892 18.1174 16.36 18.5185C17.5673 21.1852 15.2532 25.7743 15.2532 25.7743C14.3112 23.0629 12.9776 20.5124 11.2971 18.2084C13.8285 17.1914 14.3115 12.2053 14.3115 12.2053L15.5188 13.1769L18.4084 15.4508Z" fill="#B97964"/>
<path opacity="0.2" d="M18.408 15.4509C18.408 15.4509 16.8304 16.4969 16.5567 17.1914C16.5397 17.2343 16.5263 17.2786 16.5165 17.3237C15.8482 16.7996 15.3152 16.1151 14.9644 15.3301C14.6135 14.5451 14.4555 13.6837 14.5042 12.8214L15.5305 13.177L18.408 15.4509Z" fill="black"/>
<path d="M20.1589 3.76299C20.1589 3.76299 23.3504 2.84516 24.8958 5.49116C26.4412 8.13716 25.2057 10.1423 24.1311 11.0974" stroke="#263238" stroke-width="0.488465" stroke-linecap="round" stroke-linejoin="round"/>
<path d="M21.4305 3.60184C21.4305 3.60184 24.0304 3.68453 24.7508 5.9419C25.4712 8.19926 24.9359 10.7336 21.0764 13.4623C19.1889 14.7977 14.5003 12.1889 14.5003 12.1889L14.1261 13.3548C13.4995 12.8886 12.9305 12.3458 12.4317 11.7383C10.9145 9.91089 11.3049 3.85817 15.5145 2.6716C19.9093 1.45196 21.4305 3.60184 21.4305 3.60184Z" fill="#263238"/>
<path d="M18.9519 4.37475C22.256 4.83366 23.081 6.80163 22.8597 10.3365C22.582 14.7479 21.2257 17.7246 17.2254 16.2115C11.7722 14.1567 13.4705 3.60162 18.9519 4.37475Z" fill="#B97964"/>
<path d="M20.7463 9.84473C20.9444 10.3888 21.2051 10.9065 21.523 11.3868C21.4076 11.5145 21.26 11.6068 21.0966 11.6536C20.9332 11.7003 20.7604 11.6995 20.5974 11.6514L20.7463 9.84473Z" fill="#A24E3F"/>
<path d="M18.7624 9.28654C18.7302 9.56355 18.5572 9.7744 18.36 9.75373C18.1628 9.73306 18.0581 9.48913 18.0863 9.20799C18.1145 8.92685 18.2916 8.72013 18.4888 8.7408C18.686 8.76148 18.7906 9.00541 18.7624 9.28654Z" fill="#263238"/>
<path d="M18.4124 8.74495L19.0281 8.57544C19.0281 8.57544 18.678 9.05503 18.4124 8.74495Z" fill="#263238"/>
<path d="M22.1511 9.61719C22.1229 9.89833 21.9498 10.1092 21.7687 10.0885C21.5876 10.0678 21.4629 9.82391 21.4951 9.54277C21.5273 9.26163 21.6963 9.05079 21.8975 9.07559C22.0987 9.1004 22.1833 9.34019 22.1511 9.61719Z" fill="#263238"/>
<path d="M21.801 9.07967L22.4208 8.91016C22.4208 8.91016 22.0707 9.38975 21.801 9.07967Z" fill="#263238"/>
<path d="M19.04 6.93822C18.7834 6.86814 18.5145 6.85965 18.2542 6.91342C17.9939 6.96719 17.7491 7.08178 17.5388 7.2483" stroke="#263238" stroke-width="0.707962" stroke-linecap="round" stroke-linejoin="round"/>
<path d="M21.459 7.12828C21.6925 7.10098 21.929 7.12847 22.1507 7.20867C22.3724 7.28888 22.5734 7.41971 22.7388 7.59132" stroke="#263238" stroke-width="0.707962" stroke-linecap="round" stroke-linejoin="round"/>
<path d="M14.5808 9.58834C14.5808 9.58834 16.4965 7.01676 16.5488 4.82967C16.5488 4.82967 23.4629 2.99815 22.8794 9.87361C22.8794 9.87361 24.3242 3.89944 18.6617 2.96921C12.9992 2.03897 11.6912 10.0514 14.275 13.0075C14.275 13.0075 13.3936 11.2007 14.5808 9.58834Z" fill="#263238"/>
<path d="M15.0277 10.3821C15.0464 9.98518 14.9119 9.59669 14.6534 9.30099C14.395 9.0053 14.0334 8.82628 13.6473 8.80279C12.6089 8.77385 11.8322 10.87 14.3113 11.7423C14.6775 11.8705 14.923 11.5273 15.0277 10.3821Z" fill="#B97964"/>
<path d="M20.4204 12.6644C20.2816 13.0691 20.1713 13.4837 20.0904 13.9047H19.869C18.871 13.8551 18.4242 13.4912 18.2311 13.1109C18.139 12.9211 18.0934 12.711 18.0983 12.499C18.0974 12.379 18.1123 12.2594 18.1425 12.1434C18.7465 12.4529 19.4079 12.6262 20.0823 12.652C20.3117 12.6644 20.4204 12.6644 20.4204 12.6644Z" fill="#263238"/>
<path d="M20.0825 12.6435L19.9738 13.0074C19.0361 12.9578 18.364 12.7965 18.0984 12.4906C18.0976 12.3705 18.1125 12.251 18.1427 12.135C18.7467 12.4444 19.408 12.6178 20.0825 12.6435Z" fill="white"/>
<path d="M19.8689 13.8965C18.8709 13.8468 18.4241 13.483 18.231 13.1027C18.609 13.1274 18.9797 13.2212 19.3256 13.3797C19.5549 13.4892 19.745 13.67 19.8689 13.8965Z" fill="#DE5753"/>
<path d="M11.6189 7.59129L11.8603 2.30756L10.9548 0.848127C13.3047 -0.0373065 15.849 -0.229216 18.2996 0.294123L21.4427 3.60162C21.4427 3.60162 15.3657 2.06777 11.6189 7.59129Z" fill="#90CAF9"/>
<path opacity="0.6" d="M21.4306 3.60178C19.1411 3.13002 16.7631 3.4972 14.7097 4.6395C13.4744 5.36222 12.417 6.36645 11.6189 7.57491L11.8603 2.29118L10.9548 0.831748C13.3063 -0.048167 15.8505 -0.234348 18.2996 0.294278L21.4306 3.60178Z" fill="white"/>
<path opacity="0.1" d="M14.7097 4.65591C13.4744 5.37863 12.417 6.38285 11.6189 7.59131L11.8603 2.30758L10.9548 0.848145L14.7097 4.65591Z" fill="black"/>
<path d="M27.1535 41.7123L31.5805 42.7624C32.6854 42.8301 33.7798 43.0215 34.8443 43.333C36.5185 43.8374 38.3296 44.5733 38.0639 45.0198C37.7983 45.4663 34.9007 47.8601 33.975 47.7071C33.0494 47.5542 30.4455 46.0534 30.7554 45.3092L26.4331 44.2301L27.1535 41.7123Z" fill="#B97964"/>
<path d="M6.91035 18.0307C8.49601 17.5553 11.5748 32.9145 13.8446 35.515C16.1144 38.1155 29.7978 41.9439 29.7978 41.9439L29.1055 45.0199C29.1055 45.0199 12.3314 42.9238 10.1018 39.6452C7.87221 36.3666 4.76931 27.5811 4.37491 23.2028C3.98051 18.8245 5.97667 18.316 6.91035 18.0307Z" fill="#90CAF9"/>
<path opacity="0.5" d="M6.91035 18.0307C8.49601 17.5553 11.5748 32.9145 13.8446 35.515C16.1144 38.1155 29.7978 41.9439 29.7978 41.9439L29.1055 45.0199C29.1055 45.0199 12.3314 42.9238 10.1018 39.6452C7.87221 36.3666 4.76931 27.5811 4.37491 23.2028C3.98051 18.8245 5.97667 18.316 6.91035 18.0307Z" fill="white"/>
<path d="M21.2617 31.0127L16.8428 30.7067L17.1567 28.1724L21.5796 28.4783L21.2617 31.0127Z" fill="#90CAF9"/>
<path opacity="0.5" d="M21.0281 30.8143L17.2209 30.5497L17.4946 28.3708L21.2978 28.6354L21.0281 30.8143Z" fill="white"/>
<path d="M19.4991 27.4819L19.0725 28.7057H19.7849V27.4819H19.4991Z" fill="#263238"/>
<path d="M32.8844 45.3051L28.7633 46.103C28.7633 46.103 24.453 45.1356 23.7045 45.3051C22.9559 45.4746 21.0161 49.3816 21.0161 49.3816C21.0161 49.3816 27.6364 50.8658 28.4816 50.5764C29.3267 50.287 30.027 49.1583 30.027 49.1583L33.2466 48.5464L32.8844 45.3051Z" fill="#E4897B"/>
<path d="M41.2956 25.2659C39.3477 28.2716 42.1769 40.4638 42.354 41.237C42.5311 42.0101 30.7473 45.2845 30.7473 45.2845L32.4457 50.622C32.4457 50.622 47.1311 48.8814 48.761 47.083C50.391 45.2845 48.5558 30.5 48.5558 30.5L41.3117 25.2659H41.2956Z" fill="#90CAF9"/>
<path opacity="0.4" d="M48.761 47.083C47.3726 48.6168 36.4903 50.1093 33.315 50.5145L32.4457 50.622L30.7473 45.2845L31.52 45.0654C34.14 44.3212 42.5029 41.8902 42.354 41.237C42.1769 40.4638 39.3477 28.2716 41.2956 25.2659L42.5552 25.8116L46.7246 29.0695L48.5558 30.5C48.5558 30.5 49.2882 36.2633 49.409 41.0054C49.4935 43.8871 49.3728 46.4049 48.761 47.083Z" fill="black"/>
<path opacity="0.1" d="M33.315 50.5145L32.4457 50.622L30.7473 45.2846L31.52 45.0654L33.315 50.5145Z" fill="black"/>
<path opacity="0.2" d="M49.409 41.0054C46.9943 37.0323 46.7568 32.6788 46.7246 29.0695L48.5558 30.4999C48.5558 30.4999 49.2882 36.2633 49.409 41.0054Z" fill="black"/>
<path d="M14.8667 113.651L17.6838 66.4649H40.4907L43.3079 113.651H45.3201L41.6739 52.9951C41.586 51.616 40.9953 50.3215 40.0197 49.3698C39.0441 48.4181 37.7551 47.8791 36.4099 47.8602H21.8411C20.4843 47.8635 19.1794 48.396 18.1902 49.3501C17.201 50.3041 16.6014 51.6084 16.5127 52.9993L12.8906 113.651H14.8667ZM18.4887 53.1274C18.5439 52.2609 18.9175 51.4483 19.534 50.8541C20.1504 50.26 20.9636 49.9287 21.8089 49.9274H36.4099C37.2538 49.9297 38.0655 50.2609 38.681 50.854C39.2965 51.4472 39.67 52.2582 39.7261 53.1233L40.4022 64.3977H17.8247L18.4887 53.1274Z" fill="#90CAF9"/>
<path d="M56.9751 110.521L53.828 111.463L51.9727 104.464L55.1198 103.517L56.9751 110.521Z" fill="#B97964"/>
<path d="M53.4856 109.963H57.3371C57.4 109.963 57.461 109.985 57.51 110.026C57.5589 110.066 57.5931 110.123 57.6067 110.186L58.2305 113.08C58.2557 113.204 58.2323 113.334 58.1653 113.441C58.0982 113.547 57.993 113.623 57.8724 113.651C57.8376 113.655 57.8025 113.655 57.7677 113.651C56.5242 113.63 55.6227 113.551 54.0612 113.551C53.0993 113.551 50.2016 113.655 48.8736 113.655C47.5455 113.655 47.3724 112.311 47.9157 112.187C50.3546 111.641 52.1857 110.885 52.9665 110.165C53.1085 110.033 53.2939 109.961 53.4856 109.963Z" fill="#263238"/>
<path opacity="0.2" d="M55.1198 103.517L51.9727 104.464L52.9305 108.073L56.0817 107.131L55.1198 103.517Z" fill="black"/>
<path d="M67.2097 43.5275C68.0691 47.9825 68.4269 52.5243 68.2762 57.0634C67.9945 64.344 51.977 73.3818 51.6711 75.9244C51.3652 78.4671 56.6011 105.055 56.6011 105.055L51.0755 107.073C51.0755 107.073 40.157 83.0025 40.0322 77.111C39.9075 71.2195 51.977 57.0634 55.269 53.1606C56.5488 51.6432 55.2891 45.5368 55.2891 45.5368L67.2097 43.5275Z" fill="#263238"/>
<path opacity="0.3" d="M68.2762 57.0633C68.1756 59.6969 66.0145 62.5579 63.2818 65.2617C58.9474 69.5698 53.124 73.4726 51.9005 75.3827C51.7853 75.5431 51.7069 75.7283 51.6711 75.9243C51.3693 78.4711 56.6011 105.055 56.6011 105.055L51.0755 107.069C51.0755 107.069 40.157 83.0023 40.0322 77.1108C39.9075 71.2194 51.977 57.0633 55.269 53.1604C56.5488 51.6431 55.2891 45.5366 55.2891 45.5366L67.2138 43.5232C68.0716 47.9798 68.4281 52.523 68.2762 57.0633Z" fill="white"/>
<path d="M50.7331 108.065L57.4621 105.721L56.9067 103.794L49.8799 106.101L50.7331 108.065Z" fill="#90CAF9"/>
<path opacity="0.6" d="M50.7331 108.065L57.4621 105.721L56.9067 103.794L49.8799 106.101L50.7331 108.065Z" fill="white"/>
<path opacity="0.2" d="M63.2817 65.2616C58.9473 69.5697 53.1238 73.4725 51.9004 75.3826C52.1338 66.8203 62.1951 57.7081 62.1951 57.7081L63.2817 65.2616Z" fill="black"/>
<path d="M72.216 110.521L69.0688 111.463L67.2095 104.464L70.3607 103.517L72.216 110.521Z" fill="#B97964"/>
<path d="M68.7268 109.963H72.5662C72.6291 109.963 72.69 109.985 72.739 110.026C72.788 110.066 72.8221 110.123 72.8358 110.186L73.4596 113.08C73.4847 113.205 73.4607 113.335 73.3928 113.442C73.325 113.549 73.2188 113.624 73.0974 113.651C73.064 113.655 73.0302 113.655 72.9968 113.651C71.7532 113.63 70.8477 113.551 69.2902 113.551C68.3283 113.551 65.4267 113.655 64.1026 113.655C62.7785 113.655 62.6015 112.311 63.1448 112.187C65.5796 111.641 67.4148 110.885 68.1955 110.165C68.3406 110.03 68.5309 109.957 68.7268 109.963Z" fill="#263238"/>
<path opacity="0.2" d="M70.3607 103.517L67.2095 104.464L68.1713 108.073L71.3185 107.131L70.3607 103.517Z" fill="black"/>
<path d="M73.4675 42.0514C75.2549 46.2306 76.122 50.7636 76.007 55.3269C75.7253 62.6034 67.2175 73.3775 66.9116 75.9202C66.6057 78.4628 71.8255 105.055 71.8255 105.055L66.2959 107.073C66.2959 107.073 55.3774 83.0024 55.2486 77.1109C55.1198 71.2194 62.1788 57.7083 62.1788 57.7083L60.7098 44.3129L73.4675 42.0514Z" fill="#263238"/>
<path opacity="0.3" d="M73.4675 42.0514C75.2549 46.2306 76.122 50.7636 76.007 55.3269C75.7253 62.6034 67.2175 73.3775 66.9116 75.9202C66.6057 78.4628 71.8255 105.055 71.8255 105.055L66.2959 107.073C66.2959 107.073 55.3774 83.0024 55.2486 77.1109C55.1198 71.2194 62.1788 57.7083 62.1788 57.7083L60.7098 44.3129L73.4675 42.0514Z" fill="white"/>
<path d="M65.97 108.065L72.703 105.721L72.1436 103.794L65.1208 106.101L65.97 108.065Z" fill="#90CAF9"/>
<path opacity="0.6" d="M65.97 108.065L72.703 105.721L72.1436 103.794L65.1208 106.101L65.97 108.065Z" fill="white"/>
<path d="M76.0272 50.6138C76.0272 50.6138 56.8222 53.5905 54.9146 52.0071C52.0974 49.6753 48.9865 30.1693 41.2957 25.2659C42.0868 23.963 43.0482 22.7778 44.1531 21.7435C46.5372 19.4321 49.4192 17.7322 52.5643 16.7822C54.9571 16.0711 57.4434 15.7488 59.9332 15.8272C59.9332 15.8272 75.009 26.8329 76.0272 50.6138Z" fill="#90CAF9"/>
<path opacity="0.3" d="M76.0272 50.6137C76.0272 50.6137 56.8222 53.5904 54.9146 52.007C54.7075 51.8249 54.5283 51.6116 54.3834 51.3744C51.695 47.2938 48.5076 29.8757 41.2957 25.2658C42.0868 23.9629 43.0482 22.7777 44.1531 21.7434L44.475 21.4374C46.7977 19.2851 49.5626 17.6982 52.5643 16.7945C52.7212 16.7449 52.8822 16.6994 53.0432 16.6581C55.2883 16.0386 57.6095 15.76 59.9332 15.8312C59.9332 15.8312 63.2936 18.2829 66.9479 23.3723C69.1368 26.429 70.957 29.7469 72.3689 33.2534C74.3446 38.1967 75.5415 43.4316 75.9145 48.7615C75.9628 49.3775 75.999 49.9894 76.0272 50.6137Z" fill="black"/>
<path opacity="0.1" d="M53.043 16.6581C52.4361 19.8518 51.5193 22.9751 50.3064 25.9811C50.3064 25.9811 46.3664 24.4845 44.4749 21.4333C46.7975 19.281 49.5624 17.6941 52.5641 16.7904C52.7211 16.7449 52.8821 16.6994 53.043 16.6581Z" fill="black"/>
<path opacity="0.1" d="M76.0271 50.6137C76.0271 50.6137 56.8222 53.5904 54.9145 52.007C54.7074 51.8249 54.5283 51.6116 54.3833 51.3744C61.6444 51.5631 68.8946 50.686 75.9144 48.7698C75.9627 49.3775 75.999 49.9894 76.0271 50.6137Z" fill="black"/>
<path opacity="0.2" d="M72.3689 33.2616C65.6358 31.4384 62.1345 23.6575 62.1345 23.6575L66.9639 23.3805C69.1472 26.438 70.962 29.7559 72.3689 33.2616Z" fill="black"/>
<path d="M52.1055 17.0839C50.9384 21.4581 49.2441 22.2105 47.916 21.9542C47.1293 21.7511 46.4156 21.3206 45.8595 20.7139C45.997 20.4532 46.0611 20.1582 46.0446 19.8622C46.0183 19.5386 45.9219 19.2251 45.7624 18.9447C45.603 18.6643 45.3845 18.424 45.123 18.2415C44.8676 18.039 44.5987 17.8553 44.3181 17.6916L44.4026 16.5671L44.8051 11.2296C45.545 12.3924 46.3668 13.4978 47.2641 14.5371C47.5659 14.8761 47.8838 15.2069 48.2098 15.5087C49.4293 16.6539 50.7895 17.4188 52.1055 17.0839Z" fill="#E4897B"/>
<path opacity="0.2" d="M47.9119 21.9541C47.1251 21.751 46.4114 21.3206 45.8554 20.7138C45.9929 20.4531 46.057 20.1582 46.0405 19.8621C46.0141 19.5385 45.9177 19.225 45.7583 18.9446C45.5988 18.6642 45.3803 18.424 45.1189 18.2415C44.8635 18.039 44.5945 17.8552 44.314 17.6916L44.3985 16.567L48.2097 15.5004C48.2097 15.5004 49.1635 19.4198 47.9119 21.9541Z" fill="black"/>
<path d="M38.3899 11.0146C38.3899 11.0146 37.2509 10.8906 37.0658 12.4121C36.8807 13.9335 37.3838 13.9625 37.3838 13.9625C37.3838 13.9625 36.9813 15.2358 37.4803 15.5955C37.9794 15.9552 38.3899 17.4767 38.3899 17.4767L39.5167 15.3516L38.3899 11.0146Z" fill="#263238"/>
<path opacity="0.6" d="M38.3899 11.0146C38.3899 11.0146 37.2509 10.8906 37.0658 12.4121C36.8807 13.9335 37.3838 13.9625 37.3838 13.9625C37.3838 13.9625 36.9813 15.2358 37.4803 15.5955C37.9794 15.9552 38.3899 17.4767 38.3899 17.4767L39.5167 15.3516L38.3899 11.0146Z" fill="white"/>
<path d="M47.1874 18.8284C47.1076 18.9994 47.0176 19.1651 46.9177 19.3246C46.4388 20.157 45.7061 20.8042 44.8331 21.1659C43.9602 21.5276 42.9955 21.5837 42.0883 21.3256C40.9071 21.0195 39.8847 20.2606 39.2309 19.2047C39.1356 19.0603 39.0496 18.9098 38.9733 18.754C38.8244 18.4398 38.6755 18.0967 38.5427 17.7287C37.4641 14.7644 36.3453 10.7003 39.8346 8.55866C42.032 7.19845 45.7224 7.02894 47.0385 9.29871C47.5204 10.1266 47.8313 11.0476 47.9518 12.0042C48.0722 12.9609 47.9997 13.9328 47.7387 14.8594C47.9399 16.0253 48.1372 16.8688 47.1874 18.8284Z" fill="#E4897B"/>
<path d="M48.6321 12.0813C48.6321 12.0813 49.2157 12.0524 48.9782 11.2544C48.7408 10.4565 47.7427 9.93558 47.7427 9.93558C47.7427 9.93558 48.5476 9.38984 47.4932 8.87304C46.9545 8.61987 46.3434 8.58155 45.7787 8.76555C45.4286 8.46374 42.3539 5.92937 40.2652 7.43842C40.2466 7.45505 40.2346 7.4781 40.2315 7.50319C40.2284 7.52828 40.2344 7.55368 40.2482 7.57457C40.2621 7.59546 40.283 7.61038 40.3069 7.61653C40.3307 7.62268 40.356 7.61962 40.3778 7.60793C42.2009 6.2932 44.9497 8.35625 45.5534 8.84824L45.4004 8.92266C44.7726 8.63325 40.1484 6.595 38.595 8.98881C38.5874 9.00017 38.5822 9.01295 38.5795 9.02642C38.5769 9.03988 38.5769 9.05376 38.5795 9.06723C38.5821 9.08071 38.5873 9.09351 38.5948 9.10489C38.6023 9.11627 38.6119 9.126 38.6231 9.13351C38.6339 9.14115 38.646 9.14646 38.6588 9.14914C38.6716 9.15183 38.6848 9.15181 38.6976 9.14911C38.7104 9.1464 38.7225 9.14106 38.7332 9.1334C38.744 9.12575 38.7531 9.11594 38.76 9.10457C40.1243 7.00431 44.2253 8.63325 45.1791 9.05082C45.0753 9.11681 44.9771 9.19148 44.8853 9.27408C43.9275 9.00535 40.893 8.26943 39.0739 9.27408C38.764 9.44009 38.4917 9.67133 38.2747 9.95271C38.0576 10.2341 37.9007 10.5593 37.8142 10.9072C37.8106 10.9199 37.8095 10.9333 37.8109 10.9465C37.8124 10.9597 37.8165 10.9725 37.8229 10.9841C37.8292 10.9956 37.8378 11.0058 37.8481 11.0139C37.8584 11.022 37.8701 11.0278 37.8826 11.0312H37.9108C37.9326 11.0312 37.9538 11.0239 37.9712 11.0105C37.9886 10.9971 38.0013 10.9782 38.0074 10.9568C38.0882 10.6364 38.2334 10.3369 38.4337 10.0777C38.6341 9.81852 38.885 9.60532 39.1705 9.45185C40.8326 8.52162 43.6699 9.14591 44.7163 9.42705C44.5484 9.62238 44.4125 9.84439 44.3138 10.0844C43.7624 11.4488 44.6559 11.9656 45.2394 12.6519C45.823 13.3382 45.5534 14.471 45.5453 14.5082C45.2679 15.1752 44.8469 15.7689 44.3138 16.2446C43.941 16.0886 43.5235 16.0886 43.1507 16.2446C42.6454 16.4817 42.2408 16.8988 42.0118 17.4188C40.245 17.2286 39.9593 18.7129 39.9593 18.7129C39.1859 18.1318 38.5695 17.3577 38.1684 16.4638C37.9913 18.1175 38.5708 19.8457 39.1383 20.5526C39.7057 21.2596 39.9875 20.5526 39.9875 20.5526C39.9875 20.5526 40.1203 21.9418 40.8769 22.4627C41.6335 22.9837 41.8991 22.3511 41.8991 22.3511C41.8991 22.3511 42.3016 23.2235 43.7303 23.5914C45.159 23.9594 45.6137 21.8467 45.6137 21.8467C47.1793 23.087 47.0464 20.1557 47.0464 20.1557C47.0464 20.1557 47.8151 20.3749 47.7427 18.9444C47.6823 17.8281 46.7164 15.67 46.2898 14.7645C46.9257 14.6612 47.8996 16.1537 47.8996 16.1537C50.6484 16.4183 48.6321 12.0813 48.6321 12.0813Z" fill="#263238"/>
<path opacity="0.6" d="M48.6321 12.0813C48.6321 12.0813 49.2157 12.0524 48.9782 11.2544C48.7408 10.4565 47.7427 9.93558 47.7427 9.93558C47.7427 9.93558 48.5476 9.38984 47.4932 8.87304C46.9545 8.61987 46.3434 8.58155 45.7787 8.76555C45.4286 8.46374 42.3539 5.92937 40.2652 7.43842C40.2466 7.45505 40.2346 7.4781 40.2315 7.50319C40.2284 7.52828 40.2344 7.55368 40.2482 7.57457C40.2621 7.59546 40.283 7.61038 40.3069 7.61653C40.3307 7.62268 40.356 7.61962 40.3778 7.60793C42.2009 6.2932 44.9497 8.35625 45.5534 8.84824L45.4004 8.92266C44.7726 8.63325 40.1484 6.595 38.595 8.98881C38.5874 9.00017 38.5822 9.01295 38.5795 9.02642C38.5769 9.03988 38.5769 9.05376 38.5795 9.06723C38.5821 9.08071 38.5873 9.09351 38.5948 9.10489C38.6023 9.11627 38.6119 9.126 38.6231 9.13351C38.6339 9.14115 38.646 9.14646 38.6588 9.14914C38.6716 9.15183 38.6848 9.15181 38.6976 9.14911C38.7104 9.1464 38.7225 9.14106 38.7332 9.1334C38.744 9.12575 38.7531 9.11594 38.76 9.10457C40.1243 7.00431 44.2253 8.63325 45.1791 9.05082C45.0753 9.11681 44.9771 9.19148 44.8853 9.27408C43.9275 9.00535 40.893 8.26943 39.0739 9.27408C38.764 9.44009 38.4917 9.67133 38.2747 9.95271C38.0576 10.2341 37.9007 10.5593 37.8142 10.9072C37.8106 10.9199 37.8095 10.9333 37.8109 10.9465C37.8124 10.9597 37.8165 10.9725 37.8229 10.9841C37.8292 10.9956 37.8378 11.0058 37.8481 11.0139C37.8584 11.022 37.8701 11.0278 37.8826 11.0312H37.9108C37.9326 11.0312 37.9538 11.0239 37.9712 11.0105C37.9886 10.9971 38.0013 10.9782 38.0074 10.9568C38.0882 10.6364 38.2334 10.3369 38.4337 10.0777C38.6341 9.81852 38.885 9.60532 39.1705 9.45185C40.8326 8.52162 43.6699 9.14591 44.7163 9.42705C44.5484 9.62238 44.4125 9.84439 44.3138 10.0844C43.7624 11.4488 44.6559 11.9656 45.2394 12.6519C45.823 13.3382 45.5534 14.471 45.5453 14.5082C45.2679 15.1752 44.8469 15.7689 44.3138 16.2446C43.941 16.0886 43.5235 16.0886 43.1507 16.2446C42.6454 16.4817 42.2408 16.8988 42.0118 17.4188C40.245 17.2286 39.9593 18.7129 39.9593 18.7129C39.1859 18.1318 38.5695 17.3577 38.1684 16.4638C37.9913 18.1175 38.5708 19.8457 39.1383 20.5526C39.7057 21.2596 39.9875 20.5526 39.9875 20.5526C39.9875 20.5526 40.1203 21.9418 40.8769 22.4627C41.6335 22.9837 41.8991 22.3511 41.8991 22.3511C41.8991 22.3511 42.3016 23.2235 43.7303 23.5914C45.159 23.9594 45.6137 21.8467 45.6137 21.8467C47.1793 23.087 47.0464 20.1557 47.0464 20.1557C47.0464 20.1557 47.8151 20.3749 47.7427 18.9444C47.6823 17.8281 46.7164 15.67 46.2898 14.7645C46.9257 14.6612 47.8996 16.1537 47.8996 16.1537C50.6484 16.4183 48.6321 12.0813 48.6321 12.0813Z" fill="white"/>
<path d="M42.3259 13.8881C42.4064 14.1569 42.2978 14.4215 42.1207 14.4628C41.9436 14.5041 41.7504 14.314 41.686 14.0494C41.6216 13.7848 41.7182 13.5119 41.8953 13.4706C42.0724 13.4292 42.2615 13.607 42.3259 13.8881Z" fill="#263238"/>
<path d="M39.275 14.6115C39.3192 14.7165 39.3222 14.835 39.2831 14.9422C39.2441 15.0493 39.1662 15.1368 39.0657 15.1862C38.8887 15.2275 38.6955 15.0374 38.6311 14.7728C38.5667 14.5082 38.6633 14.2353 38.8404 14.1939C39.0174 14.1526 39.2267 14.3511 39.275 14.6115Z" fill="#263238"/>
<path d="M40.2735 14.5165C40.1435 15.4413 39.8889 16.3429 39.5168 17.1956C39.7334 17.288 39.9669 17.3306 40.2012 17.3207C40.4355 17.3107 40.6648 17.2482 40.8731 17.1377L40.2735 14.5165Z" fill="#DE5753"/>
<path d="M43.0462 12.6477C43.018 12.6583 42.9876 12.6613 42.9579 12.6562C42.9283 12.6511 42.9005 12.6382 42.8772 12.6187C42.7235 12.4804 42.5405 12.3807 42.3429 12.3276C42.1452 12.2745 41.9382 12.2694 41.7382 12.3128C41.6977 12.3258 41.6538 12.3218 41.6161 12.3016C41.5784 12.2815 41.55 12.2469 41.537 12.2053C41.5256 12.1631 41.5306 12.118 41.5508 12.0795C41.5711 12.0409 41.6051 12.0119 41.6457 11.9986C41.8969 11.9366 42.159 11.9377 42.4098 12.0017C42.6606 12.0658 42.8927 12.1909 43.0864 12.3665C43.1194 12.394 43.1404 12.4338 43.1449 12.4772C43.1494 12.5205 43.1371 12.564 43.1106 12.598C43.0919 12.6181 43.0702 12.6349 43.0462 12.6477Z" fill="#263238"/>
<path d="M37.7179 13.8386C37.6916 13.8598 37.6586 13.8702 37.6253 13.8675C37.5843 13.8576 37.5485 13.832 37.5253 13.7958C37.5021 13.7597 37.4932 13.7158 37.5005 13.6732C37.552 13.4129 37.6637 13.1692 37.8262 12.9627C37.9887 12.7562 38.1973 12.5929 38.4342 12.4866C38.4543 12.4787 38.4757 12.4751 38.4971 12.4758C38.5186 12.4765 38.5397 12.4817 38.5592 12.4909C38.5787 12.5002 38.5962 12.5133 38.6107 12.5296C38.6252 12.5459 38.6363 12.5651 38.6435 12.5859C38.6559 12.6276 38.6529 12.6726 38.6351 12.7123C38.6173 12.7519 38.5859 12.7835 38.5469 12.8008C38.3617 12.8901 38.1994 13.0225 38.073 13.1876C37.9465 13.3527 37.8593 13.5459 37.8185 13.7517C37.809 13.773 37.7951 13.7918 37.7777 13.8068C37.7603 13.8218 37.7398 13.8327 37.7179 13.8386Z" fill="#263238"/>
<path opacity="0.6" d="M43.0462 12.6477C43.018 12.6583 42.9876 12.6613 42.9579 12.6562C42.9283 12.6511 42.9005 12.6382 42.8772 12.6187C42.7235 12.4804 42.5405 12.3807 42.3429 12.3276C42.1452 12.2745 41.9382 12.2694 41.7382 12.3128C41.6977 12.3258 41.6538 12.3218 41.6161 12.3016C41.5784 12.2815 41.55 12.2469 41.537 12.2053C41.5256 12.1631 41.5306 12.118 41.5508 12.0795C41.5711 12.0409 41.6051 12.0119 41.6457 11.9986C41.8969 11.9366 42.159 11.9377 42.4098 12.0017C42.6606 12.0658 42.8927 12.1909 43.0864 12.3665C43.1194 12.394 43.1404 12.4338 43.1449 12.4772C43.1494 12.5205 43.1371 12.564 43.1106 12.598C43.0919 12.6181 43.0702 12.6349 43.0462 12.6477Z" fill="white"/>
<path opacity="0.6" d="M37.7179 13.8386C37.6916 13.8598 37.6586 13.8702 37.6253 13.8675C37.5843 13.8576 37.5485 13.832 37.5253 13.7958C37.5021 13.7597 37.4932 13.7158 37.5005 13.6732C37.552 13.4129 37.6637 13.1692 37.8262 12.9627C37.9887 12.7562 38.1973 12.5929 38.4342 12.4866C38.4543 12.4787 38.4757 12.4751 38.4971 12.4758C38.5186 12.4765 38.5397 12.4817 38.5592 12.4909C38.5787 12.5002 38.5962 12.5133 38.6107 12.5296C38.6252 12.5459 38.6363 12.5651 38.6435 12.5859C38.6559 12.6276 38.6529 12.6726 38.6351 12.7123C38.6173 12.7519 38.5859 12.7835 38.5469 12.8008C38.3617 12.8901 38.1994 13.0225 38.073 13.1876C37.9465 13.3527 37.8593 13.5459 37.8185 13.7517C37.809 13.773 37.7951 13.7918 37.7777 13.8068C37.7603 13.8218 37.7398 13.8327 37.7179 13.8386Z" fill="white"/>
<path opacity="0.2" d="M40.3015 19.1924C40.3015 19.1924 40.5953 19.4942 40.9897 19.0312C40.9897 19.0312 41.5491 19.9283 42.1327 17.9397C42.1327 17.9397 43.6942 18.2622 44.1208 17.9397C44.4146 17.7206 44.1208 17.3237 44.1208 17.3237C44.1208 17.3237 44.7607 17.2575 44.9257 16.7697C44.9257 16.7697 45.4328 18.7169 42.511 18.349C42.5029 18.349 41.5652 20.4492 40.3015 19.1924Z" fill="black"/>
<path d="M49.2239 14.1898C49.1284 14.6149 48.9519 15.0165 48.7046 15.3712C48.4573 15.726 48.1442 16.027 47.7831 16.2569C46.8173 16.8688 46.0204 16.0544 46.0244 14.9505C46.0244 13.9665 46.5476 12.4326 47.6342 12.2838C48.7209 12.135 49.4493 13.1355 49.2239 14.1898Z" fill="#E4897B"/>
<path opacity="0.2" d="M41.666 14.3511C41.666 14.3511 41.819 15.1449 42.7446 14.8968" stroke="black" stroke-width="0.5" stroke-linecap="round" stroke-linejoin="round"/>
<path opacity="0.2" d="M39.416 14.9629C39.416 14.9629 39.3959 15.9055 38.76 15.8311" stroke="black" stroke-width="0.5" stroke-linecap="round" stroke-linejoin="round"/>
<path opacity="0.2" d="M38.2695 11.9489C39.1919 11.4214 40.2424 11.1774 41.296 11.2461" stroke="black" stroke-width="0.5" stroke-linecap="round" stroke-linejoin="round"/>
<path opacity="0.2" d="M38.2695 11.457C38.6683 11.0748 39.1571 10.806 39.6878 10.6769C40.2185 10.5479 40.7727 10.5631 41.296 10.7211" stroke="black" stroke-width="0.5" stroke-linecap="round" stroke-linejoin="round"/>
<path opacity="0.2" d="M38.6555 10.5805C39.0454 10.2804 39.5012 10.0835 39.9826 10.0071C40.4641 9.93067 40.9565 9.97709 41.4163 10.1422" stroke="black" stroke-width="0.5" stroke-linecap="round" stroke-linejoin="round"/>
<path d="M77.2506 38.9506L75.2383 41.2369C75.2383 41.2369 73.8136 42.1216 73.7291 42.626C73.6446 43.1304 75.4999 49.6751 75.4999 49.6751C75.4999 49.6751 78.0233 47.6824 77.9428 47.0829C77.8623 46.4834 76.671 43.5232 76.671 43.5232L78.8885 41.4022L77.2506 38.9506Z" fill="#E4897B"/>
<path d="M59.9334 15.8394C59.9334 15.8394 77.609 17.0797 84.1368 24.8316C90.6645 32.5836 77.9269 43.5231 77.9269 43.5231L75.629 39.5086C75.629 39.5086 80.7964 34.134 78.8848 30.4998C76.9731 26.8657 67.2137 27.1717 67.2137 27.1717C67.2137 27.1717 57.7038 23.1448 59.9334 15.8394Z" fill="#90CAF9"/>
<path opacity="0.4" d="M78.8727 42.6466C78.2932 43.2089 77.927 43.5231 77.927 43.5231L75.629 39.5086C75.629 39.5086 75.8262 39.3061 76.128 38.9505C77.3716 37.4869 80.4262 33.4394 78.8848 30.4998C76.9732 26.8533 67.2137 27.1717 67.2137 27.1717C67.2137 27.1717 57.7078 23.1448 59.9374 15.8394C59.9374 15.8394 77.6131 17.0797 84.1408 24.8275C89.5578 31.2647 81.6939 39.9014 78.8727 42.6466Z" fill="black"/>
<path opacity="0.1" d="M78.8727 42.6467C78.2931 43.209 77.9269 43.5232 77.9269 43.5232L75.6289 39.5087C75.6289 39.5087 75.8261 39.3061 76.1279 38.9506L78.8727 42.6467Z" fill="black"/>
<path d="M40.8933 57.9356H17.7322C17.4654 57.9356 17.2095 57.8267 17.0208 57.6329C16.8321 57.439 16.7261 57.1761 16.7261 56.902C16.7261 56.6279 16.8321 56.365 17.0208 56.1711C17.2095 55.9773 17.4654 55.8684 17.7322 55.8684H40.8933C41.1601 55.8684 41.416 55.9773 41.6047 56.1711C41.7934 56.365 41.8994 56.6279 41.8994 56.902C41.8994 57.1761 41.7934 57.439 41.6047 57.6329C41.416 57.8267 41.1601 57.9356 40.8933 57.9356Z" fill="#90CAF9"/>
<g opacity="0.2">
<path d="M40.8933 57.9356H17.7322C17.4654 57.9356 17.2095 57.8267 17.0208 57.6329C16.8321 57.439 16.7261 57.1761 16.7261 56.902C16.7261 56.6279 16.8321 56.365 17.0208 56.1711C17.2095 55.9773 17.4654 55.8684 17.7322 55.8684H40.8933C41.1601 55.8684 41.416 55.9773 41.6047 56.1711C41.7934 56.365 41.8994 56.6279 41.8994 56.902C41.8994 57.1761 41.7934 57.439 41.6047 57.6329C41.416 57.8267 41.1601 57.9356 40.8933 57.9356Z" fill="white"/>
</g>
<path d="M38.8808 89.3362H15.7198C15.4529 89.3362 15.197 89.2273 15.0083 89.0335C14.8196 88.8397 14.7136 88.5768 14.7136 88.3026C14.7136 88.0285 14.8196 87.7656 15.0083 87.5718C15.197 87.3779 15.4529 87.269 15.7198 87.269H38.8808C39.1477 87.269 39.4036 87.3779 39.5923 87.5718C39.7809 87.7656 39.8869 88.0285 39.8869 88.3026C39.8869 88.5768 39.7809 88.8397 39.5923 89.0335C39.4036 89.2273 39.1477 89.3362 38.8808 89.3362Z" fill="#90CAF9"/>
<g opacity="0.2">
<path d="M38.8808 89.3362H15.7198C15.4529 89.3362 15.197 89.2273 15.0083 89.0335C14.8196 88.8397 14.7136 88.5768 14.7136 88.3026C14.7136 88.0285 14.8196 87.7656 15.0083 87.5718C15.197 87.3779 15.4529 87.269 15.7198 87.269H38.8808C39.1477 87.269 39.4036 87.3779 39.5923 87.5718C39.7809 87.7656 39.8869 88.0285 39.8869 88.3026C39.8869 88.5768 39.7809 88.8397 39.5923 89.0335C39.4036 89.2273 39.1477 89.3362 38.8808 89.3362Z" fill="white"/>
</g>
<path d="M38.6113 113.651L41.4284 66.4649H64.2354L67.0726 113.651H69.0849L65.4387 52.9951C65.3505 51.6124 64.757 50.3151 63.7771 49.3629C62.7972 48.4107 61.5033 47.8739 60.1545 47.8602H45.5858C44.229 47.8635 42.924 48.396 41.9348 49.3501C40.9457 50.3041 40.3461 51.6084 40.2573 52.9993L36.6353 113.651H38.6113ZM42.2334 53.1274C42.2885 52.2609 42.6621 51.4483 43.2786 50.8541C43.895 50.26 44.7083 49.9287 45.5536 49.9274H60.1545C60.9985 49.9297 61.8101 50.2609 62.4256 50.854C63.0412 51.4472 63.4146 52.2582 63.4707 53.1233L64.1468 64.3977H41.5693L42.2334 53.1274Z" fill="#90CAF9"/>
<path opacity="0.2" d="M38.6113 113.651L41.4284 66.4649H64.2354L67.0726 113.651H69.0849L65.4387 52.9951C65.3505 51.6124 64.757 50.3151 63.7771 49.3629C62.7972 48.4107 61.5033 47.8739 60.1545 47.8602H45.5858C44.229 47.8635 42.924 48.396 41.9348 49.3501C40.9457 50.3041 40.3461 51.6084 40.2573 52.9993L36.6353 113.651H38.6113ZM42.2334 53.1274C42.2885 52.2609 42.6621 51.4483 43.2786 50.8541C43.895 50.26 44.7083 49.9287 45.5536 49.9274H60.1545C60.9985 49.9297 61.8101 50.2609 62.4256 50.854C63.0412 51.4472 63.4146 52.2582 63.4707 53.1233L64.1468 64.3977H41.5693L42.2334 53.1274Z" fill="white"/>
</svg>
