<svg width="138" height="218" viewBox="0 0 138 218" fill="none" xmlns="http://www.w3.org/2000/svg">
<path d="M122.218 32.6494C122.277 32.5264 122.304 32.3881 122.296 32.2498C122.287 32.1114 122.244 31.9782 122.17 31.8646C122.093 31.7543 121.981 31.6779 121.855 31.6495C121.729 31.621 121.598 31.6425 121.486 31.7099C121.458 31.3674 121.344 31.0397 121.156 30.7613C120.969 30.4829 120.715 30.2643 120.421 30.1287C120.123 30.0013 119.804 29.9414 119.483 29.9528C119.163 29.9641 118.848 30.0464 118.558 30.1946C118.35 30.2827 118.166 30.4279 118.026 30.6156C117.957 30.7106 117.913 30.8232 117.897 30.9422C117.881 31.0612 117.894 31.1826 117.935 31.2945C117.588 31.3879 117.256 31.5376 116.95 31.7385C116.799 31.8405 116.67 31.9775 116.574 32.1395C116.478 32.3015 116.416 32.4845 116.394 32.6752C116.379 32.8667 116.429 33.0576 116.534 33.2125C116.64 33.3674 116.795 33.4757 116.969 33.5174C116.874 33.6465 116.816 33.8032 116.803 33.9676C116.79 34.132 116.823 34.2969 116.897 34.4414C116.971 34.5859 117.083 34.7037 117.219 34.7798C117.355 34.856 117.509 34.8871 117.661 34.8694L119.868 35.4824C120.134 35.5327 120.408 35.513 120.666 35.4251C120.795 35.3765 120.904 35.2807 120.973 35.1545C121.043 35.0282 121.069 34.8796 121.047 34.7348C121.319 34.7585 121.591 34.6806 121.816 34.5142C121.927 34.43 122.017 34.3166 122.076 34.1848C122.135 34.0529 122.162 33.907 122.154 33.7608C122.142 33.6157 122.086 33.4789 121.994 33.372C121.902 33.2652 121.779 33.1944 121.646 33.1708C121.89 33.0795 122.094 32.8937 122.218 32.6494Z" fill="#263238"/>
<path d="M121.084 35.3106C120.752 35.2551 120.416 35.2397 120.081 35.2647C119.496 35.263 118.915 35.1556 118.364 34.9468C117.918 34.7225 117.446 34.5636 116.961 34.4741C116.458 34.434 115.867 34.7148 115.87 35.153L118.044 36.8087C118.983 36.9542 119.94 36.8958 120.858 36.6368C121.262 36.5194 121.715 36.2874 121.712 35.915C121.712 35.6257 121.406 35.3994 121.084 35.3106Z" fill="white"/>
<path d="M119.609 29.997C119.7 29.9885 119.792 30.0042 119.875 30.0428C120.116 30.1264 120.33 30.2789 120.496 30.484C120.624 30.6354 120.721 30.814 120.781 31.0085C120.841 31.2029 120.863 31.4087 120.844 31.6126C120.822 31.8669 120.744 32.1118 120.616 32.3267C120.487 32.5416 120.313 32.7201 120.107 32.8472V32.7125C120.195 32.7498 120.291 32.7899 120.373 32.8357C120.627 32.9413 120.834 33.1459 120.953 33.4086C120.996 33.5398 121.004 33.6808 120.978 33.8168C120.953 33.9529 120.894 34.079 120.807 34.182C120.663 34.362 120.488 34.51 120.291 34.6174C120.125 34.713 119.954 34.7953 119.777 34.8638C119.523 34.9637 119.26 35.0329 118.992 35.07C118.895 35.0911 118.795 35.0959 118.696 35.0843C119.052 35.0059 119.401 34.8996 119.742 34.7664C120.109 34.629 120.439 34.3992 120.706 34.0961C120.777 34.0115 120.826 33.908 120.848 33.7961C120.869 33.6843 120.863 33.5683 120.828 33.4602C120.719 33.2337 120.535 33.0599 120.312 32.9732C120.224 32.9274 120.131 32.8873 120.046 32.8529L119.905 32.7956L120.035 32.7183C120.222 32.6024 120.381 32.4409 120.499 32.2469C120.618 32.0529 120.692 31.8317 120.717 31.6011C120.736 31.4133 120.72 31.223 120.669 31.0422C120.618 30.8614 120.532 30.6938 120.418 30.5499C120.268 30.3503 120.074 30.1938 119.854 30.0944C119.702 30.0257 119.607 30.0085 119.609 29.997Z" fill="#94C8E0"/>
<path d="M110.592 57.4387C110.804 57.307 113.972 56.0323 113.972 56.0323L120.627 55.7659L123.576 56.4333L120.698 61.6123L116.357 61.9932L112.561 60.2917L111.039 58.3697L110.592 57.4387Z" fill="#C17560"/>
<path d="M118.952 36.2787C119.439 35.5511 121.88 35.4022 122.391 36.061C122.761 35.8704 123.185 35.8403 123.575 35.9768C123.965 36.1133 124.291 36.406 124.486 36.7943C124.486 36.7943 125.628 36.7657 125.99 37.1839C126.094 37.3065 126.171 37.4539 126.212 37.6142C126.254 37.7745 126.26 37.943 126.229 38.1062C126.229 38.1062 127.27 37.9372 127.217 39.0973C128.015 39.3122 128.63 40.5926 128.053 41.2056C128.348 41.2514 128.793 41.8558 128.391 42.2712C128.968 42.6932 129.45 43.2492 129.802 43.8982C130.214 44.7919 130.219 45.5367 130.02 45.9033C129.775 46.3616 129.487 46.6252 129.006 46.6223C129.116 46.7875 129.18 46.9833 129.19 47.1864C129.2 47.3895 129.155 47.5914 129.062 47.7681C129.437 47.7681 129.554 48.4012 129.296 48.6962C129.038 48.9912 128.62 49.0285 128.231 49.0199C127.842 49.0113 127.446 48.997 127.137 49.2319C127.146 49.3312 127.191 49.4227 127.262 49.4868C127.582 49.7423 127.798 50.1206 127.865 50.5431C127.933 50.9656 127.846 51.3997 127.624 51.7555C127.579 51.8242 127.536 51.8872 127.502 51.9445C127.283 52.2797 126.746 52.589 126.41 52.7781C125.561 53.265 125.056 53.1762 124.105 53.3338C124.371 53.9897 122.833 55.465 121.055 54.0413C117.9 55.0389 114.628 55.5415 111.339 55.5337C110.82 55.5337 110.192 55.4678 109.958 54.9608C109.742 55.006 109.52 54.9919 109.311 54.9198C109.102 54.8477 108.913 54.7199 108.763 54.5483C108.465 54.2022 108.227 53.8028 108.057 53.3682C107.606 53.2314 107.205 52.9477 106.909 52.5558C106.614 52.1639 106.438 51.6832 106.407 51.1797C106.102 50.9216 105.849 50.5982 105.666 50.2299C105.483 49.8616 105.373 49.4564 105.342 49.0399C104.464 48.7535 103.862 46.9832 104.235 45.8375C104.481 44.9257 104.892 44.0757 105.446 43.3368C104.847 43.2021 104.616 42.3371 104.858 41.7327C105.1 41.1283 105.64 40.7358 106.154 40.3778C105.71 40.5095 105.316 39.908 105.419 39.4239C105.523 38.9398 105.925 38.6018 106.319 38.344C106.897 37.9632 107.517 37.6602 108.164 37.4417C108.371 36.5823 109.37 35.6199 110.104 35.2418C113.067 33.7064 117.217 33.6405 118.949 36.2615" fill="#263238"/>
<path d="M119.673 39.7792L114.454 37.9202C112.417 37.5879 110.943 40.2318 110.727 42.4346C110.48 44.8808 110.267 47.8771 110.461 49.7247C110.561 50.7763 110.936 51.7761 111.541 52.6083C112.147 53.4406 112.959 54.0715 113.884 54.4281L113.807 56.6796C114.073 58.3983 115.774 58.4413 115.774 58.4413C120.445 58.553 120.759 55.7143 120.759 55.7143L120.738 41.7987C120.773 41.1284 120.291 39.8795 119.673 39.7792Z" fill="#F3A890"/>
<path d="M114.025 48.0317C113.779 47.9359 113.523 47.8734 113.264 47.8455C113.144 47.8254 113.032 47.7939 113.016 47.7051C113.009 47.5704 113.043 47.4368 113.112 47.3241L113.508 46.3531C114.065 44.9724 114.472 43.8323 114.419 43.8094C114.366 43.7865 113.886 44.8865 113.322 46.27C113.186 46.6109 113.056 46.9346 112.939 47.2468C112.855 47.3996 112.825 47.5793 112.854 47.7538C112.87 47.8002 112.895 47.8421 112.928 47.8764C112.962 47.9106 113.002 47.9363 113.045 47.9515C113.111 47.9751 113.179 47.9896 113.248 47.9944C113.504 48.0413 113.765 48.0538 114.025 48.0317Z" fill="#263238"/>
<path d="M113.879 54.428C113.879 54.428 115.742 54.302 118.084 52.9385C118.084 52.9385 117.286 55.2616 113.849 55.5452L113.879 54.428Z" fill="#6F4439"/>
<path d="M118.191 42.5061C118.164 42.3629 117.688 42.3543 117.15 42.1967C116.612 42.0392 116.189 41.81 116.099 41.9103C116.059 41.9647 116.117 42.1051 116.28 42.2655C116.493 42.4695 116.75 42.615 117.027 42.6894C117.304 42.7684 117.594 42.7773 117.874 42.7152C118.087 42.6665 118.201 42.5748 118.191 42.5061Z" fill="#263238"/>
<path d="M111.499 42.274C111.579 42.3943 111.909 42.274 112.297 42.3027C112.686 42.3313 113.016 42.4144 113.096 42.3027C113.13 42.2454 113.083 42.1251 112.944 42.0162C112.756 41.8754 112.533 41.7975 112.304 41.7924C112.075 41.7873 111.849 41.8552 111.656 41.9876C111.515 42.1107 111.464 42.2282 111.499 42.274Z" fill="#263238"/>
<path d="M109.181 44.2047C109.196 43.621 109.397 43.0606 109.75 42.6178C109.972 42.4099 110.183 42.19 110.384 41.9589C110.77 41.4147 110.717 40.6585 110.882 39.9968C110.991 39.571 111.193 39.1793 111.47 38.8541C111.748 38.5288 112.094 38.2794 112.479 38.1263C113.123 37.8799 113.85 37.9143 114.451 37.5706C114.898 37.3156 115.25 36.8745 115.697 36.6511C116.589 36.2128 117.624 36.7055 118.468 37.2469C118.636 37.9687 118.202 38.5903 117.802 39.189C117.595 39.4877 117.331 39.7346 117.026 39.9126C116.722 40.0906 116.386 40.1956 116.04 40.2202C115.508 40.2546 114.882 40.1257 114.504 40.5353C114.126 40.9449 114.174 41.0394 113.847 41.535C113.384 42.2425 113.048 42.0592 112.356 42.4975C111.824 42.8355 110.956 44.1245 110.687 44.7289C110.419 45.3333 109.95 45.9577 109.327 45.9262C109.218 45.3603 109.169 44.7827 109.181 44.2047Z" fill="#263238"/>
<path d="M117.134 38.5504C118.701 38.5264 120.258 38.8289 121.718 39.4412C122.165 39.5893 122.556 39.8862 122.836 40.2891C123.027 40.6827 123.111 41.1269 123.075 41.5696C123.059 42.9474 122.543 44.6374 122.053 45.9121L120.456 46.9404C119.224 46.6253 119.791 44.3366 119.852 43.188C119.423 42.977 119.058 42.6407 118.797 42.2174C118.537 41.7941 118.393 41.3007 118.38 40.7933C118.029 40.5442 117.735 40.2132 117.519 39.8249C117.304 39.4366 117.172 39.0009 117.134 38.5504Z" fill="#263238"/>
<path d="M120.483 46.4448C120.533 45.6571 121.433 45.5053 122.064 45.912C122.407 46.1355 122.668 46.5766 122.623 47.413C122.503 49.6473 120.443 49.0572 120.443 48.9913C120.443 48.9255 120.44 47.3701 120.483 46.4448Z" fill="#F3A890"/>
<path d="M121.124 48.1864C121.124 48.1864 121.159 48.215 121.217 48.2494C121.3 48.2924 121.395 48.3006 121.484 48.2723C121.707 48.1978 121.912 47.8369 121.944 47.433C121.961 47.2386 121.936 47.0427 121.872 46.8601C121.856 46.7877 121.822 46.7208 121.776 46.6654C121.73 46.61 121.671 46.5676 121.606 46.5422C121.565 46.5289 121.52 46.5309 121.48 46.5481C121.44 46.5653 121.407 46.5965 121.385 46.6367C121.356 46.6968 121.367 46.7427 121.356 46.7455C121.345 46.7484 121.313 46.7054 121.335 46.6138C121.349 46.5595 121.38 46.512 121.422 46.4791C121.452 46.4579 121.485 46.4431 121.52 46.4357C121.554 46.4283 121.59 46.4285 121.625 46.4362C121.709 46.4593 121.787 46.5054 121.849 46.5701C121.912 46.6349 121.959 46.716 121.984 46.8057C122.064 47.0041 122.096 47.2207 122.077 47.4359C122.04 47.8856 121.811 48.2952 121.497 48.3668C121.44 48.3809 121.381 48.3809 121.325 48.367C121.268 48.3532 121.215 48.3257 121.17 48.2866C121.124 48.2408 121.116 48.1892 121.124 48.1864Z" fill="#7C4236"/>
<path d="M126.876 49.2089C126.914 49.1749 126.949 49.1365 126.98 49.0944C127.07 48.9749 127.137 48.8363 127.174 48.6876C127.239 48.4492 127.229 48.1943 127.145 47.9629C127.089 47.8094 127.003 47.6701 126.894 47.5542C126.785 47.4383 126.655 47.3482 126.511 47.2897V47.3213C126.622 47.0455 126.656 46.7411 126.608 46.4452C126.561 46.1492 126.435 45.8744 126.245 45.6541C126.092 45.4995 125.924 45.3622 125.745 45.2445C125.659 45.1778 125.581 45.0999 125.513 45.0125C125.45 44.9195 125.405 44.8131 125.383 44.7003C125.335 44.4682 125.356 44.2162 125.287 43.9641C125.211 43.7059 125.066 43.4778 124.869 43.3089C124.672 43.1401 124.433 43.0381 124.182 43.0159L124.209 43.0618C124.297 42.8047 124.33 42.5292 124.304 42.2566C124.277 41.984 124.193 41.7215 124.057 41.4894C123.922 41.2574 123.739 41.0621 123.522 40.9185C123.305 40.7749 123.06 40.6869 122.806 40.6614L122.833 40.7043C122.92 40.4198 122.929 40.1145 122.861 39.8242C122.792 39.534 122.647 39.271 122.444 39.0661C122.241 38.8612 121.988 38.7229 121.715 38.6676C121.441 38.6122 121.159 38.6421 120.9 38.7536H120.932C120.772 38.4981 120.562 38.283 120.317 38.1234C120.102 37.9757 119.869 37.8582 119.625 37.774C119.232 37.6317 118.818 37.5667 118.404 37.582C118.139 37.5875 117.876 37.6388 117.626 37.7339C117.561 37.76 117.497 37.7906 117.435 37.8255L117.371 37.8628C117.371 37.8628 117.461 37.8169 117.637 37.751C117.887 37.6633 118.148 37.6169 118.412 37.6135C118.821 37.6057 119.229 37.6745 119.617 37.8169C119.856 37.9021 120.085 38.0195 120.296 38.1664C120.535 38.323 120.739 38.533 120.895 38.7823V38.8023H120.916C121.165 38.6932 121.438 38.6633 121.702 38.716C121.967 38.7686 122.211 38.9018 122.407 39.0995C122.603 39.2973 122.743 39.5514 122.809 39.8318C122.875 40.1122 122.865 40.407 122.78 40.6814L122.766 40.7215H122.806C123.051 40.7458 123.286 40.8304 123.495 40.9686C123.704 41.1068 123.881 41.295 124.012 41.5186C124.142 41.7422 124.223 41.9951 124.248 42.2577C124.273 42.5204 124.241 42.7857 124.156 43.0331V43.0761H124.198C124.436 43.1013 124.661 43.2019 124.845 43.3651C125.028 43.5284 125.163 43.7469 125.231 43.9927C125.298 44.2305 125.279 44.4826 125.33 44.726C125.353 44.8481 125.402 44.9627 125.473 45.0612C125.543 45.153 125.625 45.2339 125.716 45.3018C125.891 45.4187 126.056 45.5529 126.208 45.7028C126.342 45.8531 126.444 46.033 126.506 46.2299C126.626 46.5811 126.617 46.968 126.482 47.3127V47.3356H126.503C126.642 47.3909 126.769 47.4767 126.875 47.5877C126.982 47.6987 127.065 47.8323 127.121 47.9801C127.203 48.2046 127.216 48.4516 127.158 48.6847C127.122 48.8313 127.061 48.9692 126.977 49.0915C126.913 49.1688 126.876 49.2061 126.876 49.2089Z" fill="#94C8E0"/>
<path d="M109.407 47.3413C109.419 47.3126 109.426 47.2813 109.426 47.2496C109.426 47.2179 109.419 47.1866 109.407 47.1579C109.384 47.0849 109.343 47.0204 109.287 46.9717C109.208 46.9054 109.118 46.8576 109.021 46.8314C108.907 46.8018 108.799 46.7535 108.699 46.6882C108.587 46.598 108.505 46.4715 108.465 46.3272C108.418 46.1623 108.4 45.9894 108.411 45.8174C108.411 45.634 108.446 45.4364 108.446 45.2273C108.404 44.7777 108.315 44.3346 108.18 43.9068C108.125 43.6667 108.116 43.4173 108.153 43.1735C108.169 43.0457 108.211 42.9234 108.276 42.815C108.341 42.7066 108.427 42.6148 108.528 42.5461C108.76 42.4242 109.005 42.3346 109.258 42.2797C109.39 42.2396 109.515 42.1767 109.628 42.0935C109.743 42.0026 109.835 41.8813 109.894 41.7412C109.995 41.4569 110.068 41.1622 110.112 40.8618C110.14 40.7136 110.189 40.5708 110.256 40.4379C110.326 40.3086 110.433 40.2079 110.562 40.1514C110.75 40.0976 110.943 40.0688 111.137 40.0655C111.243 40.0584 111.347 40.0302 111.443 39.9824C111.536 39.9364 111.615 39.8641 111.672 39.7733C111.771 39.5952 111.845 39.4021 111.89 39.2004C111.945 39.0143 112.036 38.8426 112.156 38.6963C112.269 38.5558 112.408 38.4421 112.564 38.3622C112.72 38.2823 112.889 38.2381 113.061 38.2322C113.385 38.2234 113.699 38.3462 113.943 38.576L113.969 38.6017L113.985 38.5645C114.102 38.2898 114.273 38.0454 114.486 37.8477C114.698 37.65 114.948 37.5038 115.218 37.4187C115.443 37.3483 115.679 37.3259 115.912 37.3528C116.11 37.3726 116.303 37.4308 116.482 37.5247C116.733 37.6573 116.944 37.8651 117.089 38.1234C117.128 38.1901 117.161 38.2601 117.19 38.3325C117.19 38.3554 117.209 38.3755 117.217 38.3898V38.407C117.217 38.407 117.217 38.407 117.217 38.3869L117.195 38.3296C117.17 38.2548 117.138 38.1829 117.099 38.1148C116.958 37.8478 116.747 37.6315 116.493 37.4932C116.311 37.396 116.114 37.3348 115.912 37.3127C115.675 37.2814 115.434 37.3009 115.204 37.37C114.926 37.4573 114.668 37.6078 114.448 37.8114C114.228 38.015 114.051 38.2669 113.929 38.5502H113.972C113.72 38.3078 113.391 38.1778 113.053 38.1864C112.873 38.1925 112.696 38.2386 112.533 38.3219C112.37 38.4052 112.224 38.5239 112.106 38.6705C111.984 38.8243 111.893 39.0038 111.84 39.1976C111.794 39.3914 111.723 39.5774 111.629 39.7504C111.573 39.8296 111.501 39.894 111.419 39.9386C111.336 39.9833 111.245 40.0071 111.153 40.0082C110.954 40.01 110.756 40.0398 110.565 40.097C110.422 40.1587 110.303 40.2708 110.227 40.415C110.15 40.547 110.094 40.691 110.059 40.8418C110.016 41.1353 109.944 41.4233 109.846 41.7011C109.792 41.8303 109.709 41.9426 109.604 42.0277C109.496 42.1079 109.376 42.168 109.25 42.2053C108.993 42.2664 108.744 42.3626 108.51 42.4917C108.402 42.5642 108.311 42.6621 108.244 42.7782C108.182 42.896 108.139 43.0237 108.116 43.1563C108.079 43.4091 108.09 43.6671 108.148 43.9154C108.281 44.3398 108.37 44.7788 108.414 45.2244C108.414 45.4278 108.39 45.6226 108.382 45.7973C108.371 45.9754 108.391 46.1541 108.441 46.3244C108.485 46.4742 108.572 46.6048 108.691 46.6968C108.796 46.7617 108.909 46.8099 109.026 46.84C109.117 46.8648 109.202 46.9086 109.276 46.9689C109.33 47.0149 109.373 47.075 109.399 47.1436C109.425 47.206 109.428 47.2767 109.407 47.3413Z" fill="#94C8E0"/>
<path d="M105.38 43.8782C105.38 43.8782 105.38 43.8782 105.401 43.8381L105.457 43.712C105.507 43.5975 105.579 43.4256 105.672 43.2279C105.766 43.0303 105.872 42.7553 106.021 42.4688C106.179 42.1372 106.419 41.8595 106.716 41.6668C106.883 41.5694 107.078 41.5035 107.275 41.4119C107.375 41.3643 107.469 41.3048 107.557 41.2343C107.648 41.1587 107.721 41.0604 107.77 40.9478C107.868 40.7158 107.871 40.4523 107.948 40.2116C107.985 40.0914 108.055 39.9857 108.148 39.908C108.251 39.8339 108.364 39.7778 108.483 39.7419C108.61 39.7039 108.733 39.653 108.851 39.5901C108.973 39.5191 109.071 39.409 109.133 39.275C109.228 38.9986 109.288 38.7095 109.311 38.4156C109.331 38.2704 109.378 38.1311 109.449 38.006C109.487 37.9454 109.536 37.8936 109.592 37.8537C109.649 37.8139 109.713 37.7867 109.78 37.774C110.046 37.711 110.344 37.8141 110.65 37.774C110.802 37.7451 110.941 37.666 111.049 37.5477C111.151 37.43 111.241 37.3003 111.315 37.161C111.385 37.0288 111.462 36.9007 111.544 36.7771C111.62 36.6544 111.725 36.5555 111.848 36.4907C112.102 36.3977 112.378 36.3977 112.633 36.4907C112.891 36.5796 113.163 36.6051 113.431 36.5652C113.678 36.4996 113.91 36.386 114.118 36.23C114.31 36.0861 114.514 35.9633 114.728 35.8634C115.126 35.7209 115.555 35.7069 115.96 35.8233C116.296 35.9156 116.608 36.0879 116.873 36.3274C117.07 36.513 117.239 36.7293 117.376 36.9691C117.461 37.1226 117.533 37.2835 117.592 37.4503C117.613 37.5038 117.629 37.5467 117.64 37.5792C117.645 37.594 117.651 37.6083 117.658 37.6222C117.659 37.6069 117.659 37.5916 117.658 37.5763L117.616 37.4446C117.563 37.2753 117.494 37.1121 117.411 36.9576C117.277 36.7115 117.108 36.4893 116.91 36.2988C116.642 36.0515 116.326 35.8723 115.984 35.7746C115.569 35.6528 115.13 35.6658 114.722 35.8118C114.505 35.912 114.297 36.0348 114.102 36.1785C113.899 36.3278 113.673 36.4383 113.434 36.505C113.177 36.5386 112.917 36.5123 112.67 36.4277C112.538 36.3908 112.402 36.3659 112.266 36.3532C112.123 36.3384 111.979 36.363 111.848 36.4248C111.716 36.4875 111.602 36.5863 111.518 36.7113C111.433 36.8358 111.356 36.9659 111.286 37.1008C111.216 37.2346 111.132 37.3595 111.036 37.4732C110.938 37.5825 110.81 37.6556 110.671 37.6823C110.386 37.731 110.094 37.6279 109.798 37.6823C109.724 37.6968 109.653 37.7273 109.59 37.7721C109.527 37.8169 109.472 37.875 109.431 37.943C109.353 38.0752 109.302 38.2236 109.282 38.3784C109.263 38.672 109.205 38.9612 109.111 39.2377C109.054 39.362 108.961 39.4626 108.845 39.5242C108.731 39.5869 108.612 39.6368 108.489 39.6731C108.364 39.7105 108.246 39.7705 108.14 39.8507C108.037 39.9346 107.961 40.0507 107.922 40.183C107.839 40.4379 107.839 40.6986 107.746 40.9163C107.648 41.1229 107.48 41.2817 107.277 41.3603C107.088 41.4548 106.891 41.5207 106.718 41.621C106.417 41.821 106.174 42.1077 106.016 42.4488C105.867 42.7352 105.763 43.0016 105.672 43.2136C105.582 43.4256 105.518 43.5889 105.47 43.7034C105.449 43.7579 105.43 43.8008 105.419 43.8323C105.409 43.8638 105.377 43.8782 105.38 43.8782Z" fill="#94C8E0"/>
<path d="M107.589 41.5407H107.552C107.513 41.5386 107.474 41.5475 107.44 41.5665C107.378 41.6089 107.327 41.6672 107.291 41.7362C107.255 41.8052 107.236 41.8828 107.235 41.9618C107.233 42.0752 107.247 42.1883 107.277 42.2969C107.314 42.4221 107.332 42.5526 107.331 42.6836C107.317 42.8328 107.267 42.9754 107.184 43.0961C107.104 43.2307 107.003 43.3625 106.918 43.5229C106.869 43.6076 106.839 43.7035 106.83 43.8029C106.821 43.9024 106.834 44.0027 106.868 44.0958C106.934 44.2877 107.062 44.4453 107.134 44.6401C107.188 44.8458 107.167 45.0663 107.075 45.2559C106.995 45.4593 106.878 45.657 106.809 45.8833C106.765 45.9988 106.743 46.1223 106.742 46.247C106.744 46.3746 106.77 46.5004 106.82 46.6166C106.934 46.8403 107.066 47.053 107.214 47.2525C107.366 47.4508 107.445 47.7029 107.435 47.96C107.375 48.2218 107.285 48.4748 107.168 48.7134C107.12 48.8448 107.094 48.9845 107.091 49.1258C107.095 49.2658 107.129 49.4029 107.19 49.5269C107.315 49.7558 107.465 49.9682 107.637 50.1599C107.798 50.3409 107.921 50.5567 107.999 50.793C108.057 51.0287 108.129 51.2602 108.214 51.4862C108.264 51.597 108.336 51.6948 108.425 51.7726C108.514 51.8414 108.614 51.8928 108.72 51.9244C108.813 51.9494 108.904 51.979 108.994 52.0132C109.081 52.0595 109.162 52.1183 109.234 52.188C109.366 52.3307 109.481 52.4916 109.575 52.6663C109.668 52.8325 109.758 52.9957 109.857 53.1447C110.035 53.4139 110.289 53.6146 110.581 53.7176C110.798 53.7953 111.03 53.8188 111.257 53.7863C111.401 53.7667 111.541 53.7232 111.672 53.6574C111.717 53.6333 111.761 53.6055 111.803 53.5744C111.619 53.6821 111.416 53.7471 111.207 53.7654C110.999 53.7836 110.789 53.7547 110.591 53.6804C110.307 53.576 110.062 53.3749 109.894 53.1075C109.796 52.9614 109.71 52.7981 109.628 52.632C109.534 52.4511 109.418 52.2852 109.282 52.1393C109.207 52.0628 109.122 51.9999 109.029 51.9531C108.933 51.908 108.836 51.8688 108.736 51.8356C108.641 51.8044 108.551 51.756 108.47 51.6924C108.389 51.6222 108.323 51.5331 108.278 51.4317C108.194 51.2071 108.123 50.9764 108.068 50.7414C107.986 50.4988 107.859 50.2767 107.695 50.0883C107.526 49.9011 107.378 49.6924 107.256 49.4667C107.2 49.3518 107.169 49.2243 107.166 49.0943C107.168 48.9625 107.194 48.8324 107.24 48.7105C107.353 48.4654 107.438 48.2067 107.493 47.9399C107.507 47.802 107.49 47.6624 107.442 47.5332C107.395 47.4102 107.335 47.2938 107.261 47.1866C107.112 46.9945 106.98 46.7884 106.865 46.5707C106.817 46.4633 106.792 46.346 106.79 46.227C106.792 46.1104 106.813 45.995 106.852 45.8861C106.929 45.6656 107.041 45.4679 107.118 45.2588C107.214 45.0549 107.234 44.8192 107.174 44.6C107.104 44.3937 106.974 44.2362 106.907 44.0586C106.877 43.9738 106.866 43.8826 106.874 43.7922C106.882 43.7019 106.909 43.6146 106.953 43.5372C107.033 43.3826 107.134 43.2508 107.219 43.1104C107.302 42.9824 107.354 42.8335 107.368 42.6779C107.364 42.5428 107.344 42.4089 107.307 42.2797C107.277 42.1748 107.261 42.0658 107.259 41.9561C107.259 41.8803 107.276 41.8057 107.308 41.7384C107.341 41.6711 107.388 41.6132 107.445 41.5694C107.49 41.5471 107.54 41.5373 107.589 41.5407Z" fill="#94C8E0"/>
<path d="M122.569 48.7592C122.683 48.8043 122.788 48.8702 122.881 48.9539C123.142 49.1763 123.321 49.4925 123.384 49.8448C123.432 50.0882 123.426 50.3403 123.368 50.581C123.297 50.8553 123.166 51.1076 122.987 51.3171C122.791 51.5503 122.543 51.7258 122.266 51.827C121.966 51.9351 121.643 51.9431 121.34 51.8499C121.033 51.76 120.757 51.5794 120.541 51.3286C120.342 51.0957 120.21 50.8048 120.163 50.4922C120.122 50.2298 120.138 49.9608 120.209 49.7061C120.28 49.4513 120.405 49.2175 120.573 49.0227C120.815 48.7781 121.124 48.6235 121.454 48.5816C121.542 48.5659 121.632 48.5659 121.72 48.5816C121.752 48.5861 121.783 48.5968 121.811 48.6131C121.693 48.5947 121.574 48.5947 121.457 48.6131C121.321 48.6362 121.188 48.6786 121.063 48.7391C120.895 48.8164 120.742 48.9272 120.613 49.0657C120.455 49.2555 120.338 49.4814 120.273 49.7265C120.207 49.9716 120.194 50.2294 120.235 50.4807C120.283 50.776 120.409 51.0503 120.597 51.2713C120.801 51.509 121.063 51.6806 121.353 51.7669C121.642 51.855 121.949 51.848 122.234 51.7468C122.486 51.6555 122.715 51.5005 122.9 51.2946C123.085 51.0888 123.222 50.8382 123.299 50.5638C123.357 50.334 123.365 50.0929 123.323 49.8591C123.266 49.5177 123.102 49.2078 122.857 48.9826C122.765 48.902 122.669 48.8274 122.569 48.7592Z" fill="#E0E0E0"/>
<path d="M116.128 45.8805C116.122 46.0069 116.162 46.1308 116.24 46.226C116.317 46.3212 116.426 46.3801 116.543 46.3904C116.6 46.3979 116.658 46.3931 116.714 46.3762C116.769 46.3593 116.821 46.3307 116.865 46.292C116.91 46.2533 116.948 46.2053 116.975 46.1508C117.002 46.0964 117.019 46.0366 117.025 45.975C117.032 45.8489 116.992 45.725 116.915 45.6297C116.838 45.5345 116.729 45.4754 116.612 45.4652C116.555 45.4576 116.497 45.4624 116.442 45.4792C116.386 45.4961 116.334 45.5247 116.289 45.5634C116.244 45.6021 116.207 45.65 116.179 45.7045C116.151 45.7589 116.134 45.8188 116.128 45.8805Z" fill="#263238"/>
<path d="M112.021 45.806C112.015 45.9324 112.055 46.0563 112.132 46.1515C112.21 46.2467 112.319 46.3056 112.436 46.3159C112.493 46.3235 112.551 46.3186 112.606 46.3017C112.662 46.2848 112.713 46.2562 112.758 46.2175C112.803 46.1788 112.84 46.1308 112.868 46.0764C112.895 46.0219 112.912 45.9622 112.918 45.9006C112.924 45.7742 112.884 45.6503 112.806 45.5551C112.728 45.4599 112.62 45.4009 112.502 45.3907C112.445 45.3831 112.387 45.3879 112.332 45.4048C112.277 45.4217 112.225 45.4504 112.18 45.4891C112.135 45.5278 112.098 45.5758 112.071 45.6302C112.043 45.6846 112.026 45.7444 112.021 45.806Z" fill="#263238"/>
<path d="M111.547 43.9754C111.592 44.047 111.935 43.7949 112.377 43.8494C112.819 43.9038 113.112 44.216 113.176 44.1559C113.24 44.0957 113.176 44.0012 113.037 43.8694C112.872 43.6847 112.652 43.5689 112.415 43.5427C112.178 43.5164 111.94 43.5815 111.744 43.7262C111.587 43.8265 111.526 43.941 111.547 43.9754Z" fill="#263238"/>
<path d="M115.777 44.3681C115.835 44.4425 116.216 44.1246 116.748 44.1303C117.281 44.136 117.667 44.4454 117.725 44.3709C117.784 44.2964 117.693 44.2019 117.526 44.0587C117.301 43.8735 117.026 43.7728 116.743 43.7722C116.462 43.7704 116.189 43.8714 115.968 44.0587C115.803 44.199 115.747 44.3337 115.777 44.3681Z" fill="#263238"/>
<path d="M115.915 49.0428C115.825 48.9523 115.717 48.8834 115.6 48.8405C115.483 48.7975 115.359 48.7815 115.236 48.7935C115.113 48.8086 114.998 48.8639 114.905 48.952C114.812 49.0401 114.747 49.1568 114.717 49.2862C114.696 49.4388 114.712 49.5946 114.763 49.7388C114.779 49.822 114.813 49.8997 114.864 49.9651C114.926 50.0194 114.999 50.0579 115.076 50.0777C115.154 50.0975 115.235 50.0982 115.314 50.0797C115.617 50.0531 115.919 50.0034 116.216 49.9307C116.239 49.9252 116.261 49.914 116.28 49.898C116.298 49.882 116.313 49.8616 116.324 49.8384C116.334 49.8152 116.339 49.7898 116.339 49.7641C116.339 49.7384 116.333 49.7131 116.322 49.6901C116.222 49.4512 116.084 49.2323 115.915 49.0428Z" fill="#6F4439"/>
<path d="M114.97 50.0483C115.159 50.0021 115.351 49.9706 115.545 49.9538C115.75 49.9204 115.954 49.8745 116.155 49.8163C116.208 49.8043 116.259 49.786 116.309 49.7619C116.333 49.7447 116.338 49.7218 116.309 49.6645C116.253 49.5431 116.186 49.428 116.109 49.3208C115.963 49.1082 115.757 48.9532 115.521 48.8796C115.428 48.8487 115.329 48.8389 115.232 48.8507C115.135 48.8625 115.041 48.8958 114.957 48.9484C114.848 49.0318 114.771 49.1551 114.741 49.295C114.714 49.3952 114.712 49.4554 114.701 49.4554C114.691 49.4554 114.677 49.3952 114.701 49.2835C114.708 49.2015 114.731 49.1218 114.767 49.0494C114.804 48.977 114.854 48.9134 114.914 48.8624C115.008 48.7943 115.115 48.7486 115.227 48.7283C115.339 48.7081 115.454 48.7137 115.564 48.745C115.83 48.8193 116.065 48.9903 116.229 49.2291C116.318 49.3473 116.392 49.4773 116.45 49.6158C116.467 49.6592 116.472 49.7071 116.463 49.7533C116.46 49.7798 116.451 49.8051 116.437 49.8274C116.423 49.8497 116.405 49.8684 116.383 49.8822C116.322 49.9148 116.257 49.937 116.189 49.9481C115.982 50.0031 115.771 50.0404 115.558 50.0598C115.363 50.0936 115.164 50.0897 114.97 50.0483Z" fill="#263238"/>
<path d="M125.676 138.589L125.074 145.702L126.173 151.468C126.19 151.568 126.187 151.67 126.165 151.769C126.143 151.867 126.102 151.96 126.045 152.041C125.988 152.122 125.916 152.189 125.834 152.238C125.751 152.287 125.66 152.318 125.566 152.327C125.455 152.343 125.341 152.331 125.235 152.291C125.129 152.251 125.032 152.185 124.954 152.098C123.961 150.987 120.331 146.876 120.405 146.369C120.488 145.77 120.557 138.824 120.557 138.824L125.676 138.589Z" fill="#263238"/>
<path d="M111.592 138.457L111.906 144.35C111.906 144.35 106.189 146.641 106.143 147.75L117.272 147.535L117.15 138.334L111.592 138.457Z" fill="#263238"/>
<path d="M108.728 81.9556C108.608 82.1475 105.42 91.6661 105.838 94.9374C106.255 98.2086 108.281 107.896 108.281 107.896C108.281 107.896 109.527 113.413 109.29 115.605C109.053 117.796 109.149 125.089 109.822 129.463C110.605 134.516 111.441 143.568 111.441 143.568H117.778V115.839L118.71 99.1797L119.543 87.0543L108.728 81.9556Z" fill="#F5BC49"/>
<path d="M128.3 81.9556C128.418 82.1475 131.907 92.219 131.495 95.4931C131.082 98.7672 129.046 108.443 129.046 108.443C129.046 108.443 127.84 113.955 128.032 116.143C128.37 120.87 128.321 125.619 127.885 130.337C127.353 135.289 126.187 143.035 126.187 143.035L120.11 143.158L119.642 118.667L118.614 99.7268L117.778 87.6014L128.3 81.9556Z" fill="#F5BC49"/>
<g opacity="0.3">
<path d="M106.985 87.6388L107.458 86.0576L129.889 86.8482L130.305 88.3234C130.305 88.3234 126.472 92.6201 118.255 91.8152C110.038 91.0103 106.985 87.6388 106.985 87.6388Z" fill="black"/>
</g>
<path d="M113.834 55.7658L113.16 56.0092L111.031 55.9777L107.251 58.7276L109.431 71.7782L110.379 76.2897L107.163 86.6018C107.163 86.6018 112.29 91.798 120.517 91.0933C128.745 90.3887 130.158 87.507 130.158 87.507L127.095 74.7801C127.095 74.7801 127.095 67.3726 126.866 63.56C126.826 62.9212 124.483 55.2731 124.483 55.2731L121.574 55.7658L120.754 55.5452C120.754 55.5452 120.515 59.0771 117.076 59.269C113.277 59.4609 113.834 55.7658 113.834 55.7658Z" fill="#B8DAFF"/>
<path d="M107.898 49.1058C107.898 49.1058 99.5448 51.6294 96.561 53.2822C93.8992 54.7517 93.8992 57.9456 95.286 59.4409C96.4385 60.6726 101.174 62.0819 104.435 63.053C105.989 63.517 107.017 63.053 107.017 63.053L105.63 55.9663H102.702L109.09 52.2424L107.898 49.1058Z" fill="#F3A890"/>
<path d="M111.099 55.9805C111.099 55.9805 107.967 55.9948 105.888 55.8917C103.915 55.7943 103.889 55.9261 103.889 55.9261C103.889 55.9261 106.463 56.582 106.117 60.0194C106.054 60.6542 105.841 61.261 105.498 61.7817C105.155 62.3023 104.693 62.7194 104.158 62.9927C104.158 62.9927 104.158 63.6544 106.165 63.199C106.165 63.199 106.897 63.325 107.746 64.9005C108.595 66.4759 110.213 63.4482 110.213 63.325C110.213 63.2019 111.099 55.9805 111.099 55.9805Z" fill="#B8DAFF"/>
<path d="M124.47 55.2643C124.47 55.2643 124.055 55.2815 124.736 58.5012C125.179 60.4628 125.747 62.3893 126.434 64.2674C126.434 64.2674 128.05 63.6114 130.329 62.901C130.329 62.901 131.255 63.0271 131.641 60.0795C131.867 58.2459 131.763 56.3825 131.335 54.5912C131.335 54.5912 127.361 54.8404 126.544 54.9664C126.137 55.0156 125.736 55.1117 125.348 55.2529L124.47 55.2643Z" fill="#B8DAFF"/>
<path d="M123.477 48.3412C123.581 48.4243 132.988 49.5042 136.11 50.9966C139.233 52.4889 137.654 56.101 137.175 56.8086C136.696 57.5161 132.855 59.2978 130.986 60.0025C129.118 60.7071 128.793 61.0394 128.793 61.0394C128.793 61.0394 128.152 59.5384 128.758 56.7427C128.868 56.235 129.088 55.7625 129.4 55.3642C129.713 54.9658 130.109 54.6529 130.555 54.4511L122.037 51.5666L123.477 48.3412Z" fill="#F3A890"/>
<path d="M103.218 55.6626C103.218 55.6826 102.931 55.8345 102.491 56.1524C102.052 56.4704 101.464 56.9344 100.772 57.3985C100.176 57.8041 99.4929 58.037 98.7888 58.0745C98.5772 58.0821 98.3656 58.0638 98.1579 58.0201C98.0795 58.0096 98.0037 57.9833 97.9343 57.9427C98.2165 57.972 98.5002 57.9806 98.7834 57.9685C99.4643 57.9022 100.121 57.6637 100.7 57.2724C101.381 56.8141 101.98 56.3529 102.441 56.0636C102.679 55.8873 102.941 55.752 103.218 55.6626Z" fill="#6F4439"/>
<path d="M107.898 49.1059C107.898 49.1059 107.767 46.7886 107.802 46.0897C107.836 45.3907 107.85 45.173 107.85 45.173C107.85 45.173 108.819 42.6494 109.034 42.3515C109.25 42.0536 111.39 40.3951 111.39 40.3951L111.515 40.3607L112.188 39.8508C112.188 39.8508 112.779 39.9253 112.564 40.5068C112.564 40.5068 113.301 40.544 112.683 41.5666C112.683 41.5666 111.353 43.0275 111.294 43.0676C111.042 43.422 110.813 43.7943 110.607 44.1819C110.666 44.1418 112.162 42.257 112.55 42.3171C112.939 42.3773 113.125 42.5635 112.774 43.2051C112.596 43.5288 111.11 45.279 111.009 45.6858C110.908 46.0925 110.477 47.3758 110.639 47.857C110.802 48.3383 111.089 50.4895 110.783 50.9765C110.477 51.4634 108.962 52.3199 108.962 52.3199L107.03 49.59L107.898 49.1059Z" fill="#F3A890"/>
<path d="M112.534 40.5553C112.408 40.758 112.242 40.9282 112.047 41.0537C111.709 41.3058 111.267 41.681 110.759 42.0821C110.519 42.256 110.29 42.4474 110.075 42.6549C110.001 42.7617 109.939 42.877 109.889 42.9987C109.835 43.1104 109.785 43.2192 109.734 43.3224C109.646 43.5422 109.535 43.7507 109.404 43.944C109.462 43.7128 109.544 43.4891 109.646 43.2765L109.785 42.9443C109.835 42.8115 109.899 42.6856 109.976 42.569C110.192 42.3432 110.426 42.139 110.676 41.9589C111.179 41.5636 111.64 41.1941 111.991 40.9649C112.343 40.7357 112.518 40.5295 112.534 40.5553Z" fill="#6F4439"/>
<path d="M118.103 42.4143C118.103 42.4143 117.776 42.7007 118.332 43.1648C118.852 43.6694 119.34 44.211 119.793 44.7861L120.557 47.4242C120.557 47.4242 120.853 50.5752 121.148 50.9962C121.444 51.4173 122.314 51.6493 122.314 51.6493L123.986 48.825L123.477 48.3409C123.477 48.3409 122.783 44.6915 122.538 44.2619C122.293 43.8322 122.019 42.2338 121.758 41.9388C121.497 41.6437 119.498 40.9133 119.498 40.9133L117.901 40.1714C117.851 40.2182 117.811 40.2759 117.784 40.3406C117.757 40.4053 117.742 40.4756 117.742 40.5466C117.742 40.6177 117.757 40.688 117.784 40.7527C117.811 40.8174 117.851 40.8751 117.901 40.9219C117.832 40.9584 117.773 41.0133 117.73 41.0815C117.687 41.1496 117.661 41.2285 117.655 41.3107C117.648 41.3928 117.662 41.4753 117.694 41.5502C117.725 41.6251 117.775 41.6899 117.837 41.7383C118.305 42.2052 119.94 43.1705 119.94 43.1705L120.392 43.7434C120.392 43.7434 118.635 42.4343 118.375 42.3971C118.114 42.3598 118.103 42.4143 118.103 42.4143Z" fill="#F3A890"/>
<path d="M131.926 54.2017C131.601 54.3374 131.264 54.4335 130.919 54.4882C130.36 54.6085 129.924 54.7574 129.908 54.723C130.206 54.5214 130.541 54.3914 130.89 54.3421C131.227 54.2392 131.576 54.1919 131.926 54.2017Z" fill="#6F4439"/>
<path d="M132.187 54.8435C132.081 54.7771 131.989 54.6879 131.916 54.5814C131.844 54.475 131.793 54.3535 131.766 54.2248C131.717 54.1043 131.691 53.9741 131.691 53.8424C131.691 53.7107 131.717 53.5804 131.766 53.46C131.806 53.46 131.766 53.798 131.889 54.1789C132.011 54.5599 132.216 54.812 132.187 54.8435Z" fill="#6F4439"/>
<path d="M119.932 43.165C119.848 43.1408 119.769 43.1041 119.695 43.0561C119.543 42.9759 119.327 42.8556 119.064 42.6952C118.8 42.5348 118.481 42.34 118.14 42.0908C117.948 41.9651 117.782 41.7995 117.65 41.6038C117.581 41.4822 117.558 41.3364 117.587 41.1971C117.619 41.0558 117.693 40.9293 117.797 40.8361L117.826 40.8075L117.866 40.8275L118.627 41.1999L120.121 41.939C120.347 42.0401 120.565 42.1618 120.773 42.3028C120.916 42.4742 121.035 42.6672 121.127 42.8756C121.3 43.248 121.406 43.5631 121.502 43.7665C121.554 43.8723 121.596 43.9836 121.627 44.0988C121.559 44.0039 121.501 43.9011 121.454 43.7923C121.342 43.5918 121.22 43.2853 121.039 42.9329C120.948 42.7391 120.832 42.5597 120.696 42.4001C120.495 42.2713 120.285 42.1602 120.067 42.0679L118.577 41.3346L117.818 40.9593H117.89C117.807 41.0329 117.75 41.1335 117.725 41.2458C117.702 41.3504 117.719 41.4603 117.77 41.5523C117.891 41.7318 118.043 41.8845 118.217 42.002C118.547 42.2569 118.859 42.4603 119.114 42.6293L119.724 43.0275C119.797 43.0666 119.866 43.1126 119.932 43.165Z" fill="#6F4439"/>
<path d="M120.93 44.3966C120.871 44.3427 120.818 44.2811 120.773 44.2133L120.594 43.9841L120.48 43.8466L120.323 43.7292C119.854 43.4055 119.154 42.9815 118.337 42.4487C118.308 42.4289 118.274 42.4183 118.24 42.4183C118.206 42.4183 118.172 42.4289 118.143 42.4487C118.114 42.4786 118.094 42.5161 118.083 42.5573C118.072 42.5986 118.072 42.6421 118.082 42.6836C118.109 42.7808 118.159 42.8693 118.225 42.9414C118.366 43.0933 118.558 43.2279 118.718 43.4141C119.048 43.7549 119.37 44.1302 119.692 44.5255L119.849 44.7174C120.115 45.6713 120.381 46.5679 120.605 47.3585C120.704 48.4355 120.813 49.3407 120.911 49.968C120.947 50.2121 120.995 50.454 121.055 50.6927C121.095 50.856 121.143 50.9305 121.135 50.939C121.127 50.9476 121.119 50.9219 121.095 50.8846C121.063 50.828 121.037 50.7674 121.018 50.7042C120.942 50.4686 120.882 50.2274 120.839 49.9823C120.719 49.355 120.594 48.4527 120.483 47.3728C120.251 46.5822 119.987 45.6856 119.711 44.7375L119.724 44.7632C119.673 44.7002 119.62 44.6372 119.57 44.5713C119.248 44.1789 118.928 43.8036 118.606 43.4685C118.446 43.2938 118.273 43.162 118.111 42.9844C118.029 42.894 117.969 42.7826 117.938 42.6607C117.923 42.594 117.926 42.5242 117.945 42.459C117.965 42.3938 118.001 42.3357 118.05 42.2912C118.095 42.2479 118.153 42.2211 118.213 42.2144C118.274 42.2077 118.335 42.2216 118.388 42.254C119.202 42.7982 119.889 43.2365 120.352 43.5831L120.515 43.7148L120.629 43.8638L120.791 44.1044C120.847 44.1961 120.894 44.2941 120.93 44.3966Z" fill="#6F4439"/>
<path d="M117.893 40.9221C117.877 40.9421 117.685 40.8361 117.627 40.544C117.617 40.4815 117.623 40.4174 117.645 40.3587C117.667 40.3 117.704 40.2491 117.752 40.2117C117.821 40.1572 117.877 40.1544 117.885 40.1716C117.893 40.1888 117.73 40.3263 117.762 40.5239C117.794 40.7215 117.93 40.8906 117.893 40.9221Z" fill="#6F4439"/>
<path d="M108.26 60.6068C108.56 61.8414 106.78 65.3561 109.487 72.0389L108.26 60.6068Z" fill="white"/>
<path d="M109.487 72.0389C109.415 71.9062 109.353 71.7673 109.303 71.6235C109.199 71.3371 109.018 70.9647 108.864 70.4605C108.409 69.1644 108.109 67.8109 107.972 66.4331C107.895 65.6722 107.876 64.9058 107.914 64.1415C107.948 63.5216 108.011 62.904 108.103 62.2911C108.18 61.7669 108.246 61.3458 108.262 61.0536V60.8588V60.7185C108.255 60.6787 108.255 60.6379 108.262 60.5981C108.276 60.6348 108.285 60.6734 108.289 60.7127C108.289 60.7557 108.308 60.8044 108.316 60.8559C108.324 60.9075 108.316 60.982 108.316 61.0536C108.3 61.4798 108.26 61.9045 108.196 62.3254C108.135 62.8496 108.06 63.4712 108.036 64.1701C108.006 64.9243 108.029 65.6798 108.105 66.4302C108.243 67.7976 108.527 69.1432 108.952 70.4405C109.093 70.9446 109.258 71.3342 109.346 71.6149C109.403 71.7519 109.451 71.8936 109.487 72.0389Z" fill="#263238"/>
<path d="M130.752 62.6577C130.752 62.6577 130.72 62.6577 130.659 62.6577C130.569 62.6547 130.48 62.6422 130.393 62.6204C130.071 62.5352 129.773 62.3715 129.519 62.1421C129.143 61.8014 128.846 61.3707 128.652 60.8846C128.427 60.2877 128.312 59.6495 128.314 59.0055C128.295 57.8375 128.554 56.6838 129.067 55.654C129.231 55.3471 129.448 55.0768 129.706 54.8577C129.778 54.8012 129.853 54.7505 129.932 54.7059C129.985 54.6744 130.015 54.6601 130.017 54.6658C129.934 54.7514 129.845 54.8308 129.751 54.9035C129.514 55.1346 129.314 55.4066 129.16 55.7085C128.687 56.7309 128.448 57.8604 128.463 59.0026C128.462 59.6277 128.569 60.2475 128.779 60.8301C128.961 61.3011 129.239 61.7214 129.594 62.059C129.832 62.2882 130.112 62.4601 130.417 62.5631C130.627 62.6376 130.755 62.6405 130.752 62.6577Z" fill="#263238"/>
<path d="M127.028 69.9105C127.347 64.7 126.44 60.896 126.12 58.8594L127.028 69.9105Z" fill="white"/>
<path d="M126.12 58.8594C126.164 58.9984 126.197 59.1412 126.219 59.2862C126.277 59.587 126.354 59.9794 126.445 60.452C126.693 61.7384 126.88 63.0378 127.004 64.3448C127.128 65.6532 127.172 66.9689 127.137 68.2835C127.124 68.7876 127.1 69.1944 127.076 69.478C127.073 69.6235 127.057 69.7684 127.028 69.9105C127.017 69.7647 127.017 69.6181 127.028 69.4723C127.028 69.1858 127.044 68.7848 127.044 68.2835C127.051 66.974 126.994 65.6651 126.873 64.362C126.735 62.8353 126.517 61.4632 126.354 60.4721L126.171 59.2948C126.14 59.1519 126.123 59.006 126.12 58.8594Z" fill="#263238"/>
<path d="M123.28 75.4302C123.147 75.449 123.012 75.4557 122.878 75.4503C122.612 75.4503 122.247 75.4503 121.784 75.4503C120.863 75.4273 119.588 75.3586 118.185 75.224C116.783 75.0893 115.523 74.906 114.605 74.7485C114.15 74.6711 113.783 74.6024 113.54 74.548C113.407 74.5301 113.276 74.4974 113.149 74.4506C113.283 74.4527 113.417 74.4661 113.548 74.4907L114.632 74.6453C115.545 74.7742 116.809 74.9318 118.209 75.075C119.609 75.2182 120.871 75.2927 121.8 75.3443L122.889 75.4016C123.02 75.3972 123.151 75.4068 123.28 75.4302Z" fill="#263238"/>
<g opacity="0.3">
<path d="M115.942 78.1459C117.524 78.7001 119.197 78.8948 120.853 78.7178C122.509 78.5408 124.113 77.9959 125.564 77.1176C122.247 77.5415 119.258 77.722 115.942 78.1459Z" fill="black"/>
</g>
<path d="M110.138 51.5578C110.138 51.5578 110.256 51.4862 110.442 51.3258C110.554 51.2309 110.65 51.1167 110.727 50.9878C110.771 50.9078 110.8 50.8192 110.812 50.7271C110.819 50.6193 110.819 50.5112 110.812 50.4034C110.812 49.9422 110.753 49.3922 110.687 48.785C110.652 48.4785 110.615 48.1634 110.551 47.8368C110.527 47.4833 110.553 47.1279 110.628 46.7827C110.703 46.3416 110.799 45.9234 110.894 45.5281C111.541 44.6687 112.108 43.9182 112.534 43.4055C112.633 43.3011 112.722 43.187 112.8 43.0646C112.851 42.969 112.882 42.8624 112.891 42.7524C112.891 42.6564 112.884 42.5607 112.869 42.4659C112.919 42.5514 112.943 42.6517 112.936 42.7524C112.937 42.8721 112.91 42.9902 112.859 43.0961C112.783 43.2292 112.693 43.3531 112.593 43.4656C112.188 43.9927 111.634 44.7489 110.996 45.6197V45.5939C110.9 45.9807 110.807 46.4017 110.729 46.8371C110.659 47.1647 110.632 47.5012 110.649 47.8368C110.711 48.1634 110.748 48.4899 110.78 48.7936C110.838 49.4066 110.876 49.9594 110.876 50.4292C110.876 50.5411 110.871 50.653 110.86 50.7643C110.843 50.8666 110.807 50.9641 110.753 51.0508C110.668 51.1852 110.56 51.3009 110.434 51.3916C110.345 51.4653 110.245 51.5216 110.138 51.5578Z" fill="#6F4439"/>
<path d="M78.8742 22.5043L78.7373 22.8396C78.0585 24.4385 77.9757 26.2567 78.506 27.9193C78.831 28.8514 79.3108 29.712 79.9221 30.4592C80.6008 31.3857 81.4701 32.13 82.4616 32.6334C84.6235 33.6493 87.5926 33.2988 90.1086 31.6174L90.1841 31.5666L90.2313 31.653C91.1992 33.1124 92.461 34.3176 93.9226 35.1783C94.6988 35.6634 95.5199 36.06 96.3725 36.3619C97.2559 36.6865 98.1816 36.858 99.115 36.8699L99.0348 37.0426C97.9269 35.1731 97.0942 33.1307 96.566 30.9875L96.5141 30.7945L96.7029 30.8402C97.9066 31.1211 99.1536 31.1072 100.352 30.7996C101.607 30.5026 102.79 29.9264 103.826 29.108C104.913 28.2831 105.68 27.0576 105.983 25.6639C106.192 24.2058 106.12 22.717 105.771 21.2902L105.742 21.1582H105.87C106.727 21.0186 107.544 20.6754 108.263 20.1535C108.981 19.6315 109.583 18.944 110.024 18.1408C110.457 17.299 110.707 16.3625 110.755 15.4017C110.803 14.4409 110.648 13.4808 110.302 12.5937C109.911 11.6294 109.272 10.8048 108.461 10.2164C107.676 9.61995 106.725 9.33291 105.766 9.40361L105.497 9.43408L105.657 9.19534C106.124 8.41988 106.31 7.48744 106.181 6.57418C106.084 5.66044 105.816 4.77737 105.393 3.97842C104.545 2.38768 103.163 1.20634 101.532 0.676574C99.9812 0.140748 98.3091 0.174699 96.7784 0.773089C95.3161 1.3803 93.9668 2.26461 92.7945 3.38409L92.7142 3.46028L92.6434 3.37393C92.0193 2.65312 91.2947 2.04129 90.4956 1.56045C89.7151 1.10384 88.8585 0.817297 87.975 0.717212C86.2766 0.571222 84.5787 1.00492 83.1225 1.95667C81.7731 2.83846 80.7795 4.23209 80.3375 5.86301C79.9091 7.34451 79.8505 8.92121 80.1675 10.4348L80.1959 10.5669H80.0731C78.8291 10.4353 77.5848 10.8146 76.5895 11.6285C76.1205 11.9803 75.6994 12.4009 75.3386 12.8782C74.9949 13.3051 74.7118 13.7844 74.4984 14.3005C74.0955 15.2442 74.012 16.3098 74.2624 17.3128C74.4785 18.1506 74.8405 18.9367 75.3292 19.6292C75.9952 20.5962 76.8448 21.3997 77.8215 21.9862C78.0751 22.1384 78.3386 22.2708 78.6098 22.3824L78.8836 22.4942L78.5957 22.4027C78.321 22.302 78.0543 22.178 77.7979 22.0319C76.8022 21.4589 75.9341 20.6598 75.2536 19.6901C74.7535 18.9909 74.3804 18.1964 74.1538 17.3484C73.8893 16.3193 73.9677 15.223 74.3757 14.2497C74.5915 13.6994 74.8809 13.186 75.2348 12.7258C75.6034 12.2385 76.0322 11.8078 76.5093 11.4457C77.5343 10.5989 78.8201 10.203 80.1062 10.3383L80.0118 10.445C79.6756 8.90178 79.7294 7.2899 80.1675 5.77666C80.6129 4.08349 81.6341 2.63272 83.0281 1.71285C84.519 0.735326 86.258 0.287475 87.9986 0.432746C88.9097 0.534696 89.7934 0.828094 90.5995 1.29631C91.4218 1.78548 92.166 2.41315 92.8039 3.1555H92.6481C93.8404 2.01373 95.2139 1.1121 96.7029 0.493703C98.2815 -0.125805 100.007 -0.163329 101.607 0.387028C102.432 0.678409 103.204 1.11811 103.892 1.68745C104.597 2.24527 105.183 2.95885 105.61 3.78031C106.049 4.61071 106.327 5.52835 106.427 6.47766C106.566 7.4562 106.362 8.45534 105.856 9.28169L105.747 9.07342C106.765 8.99401 107.777 9.29548 108.612 9.92682C109.447 10.5504 110.102 11.415 110.5 12.421C110.87 13.3271 111.04 14.313 110.997 15.3015C110.953 16.2901 110.697 17.2543 110.25 18.1188C109.802 18.9833 109.175 19.7245 108.417 20.2844C107.658 20.8443 106.79 21.2077 105.879 21.3461L105.978 21.1887C106.334 22.6507 106.405 24.1761 106.186 25.669C106.039 26.3978 105.76 27.0883 105.365 27.7009C104.973 28.2969 104.495 28.8216 103.949 29.2553C102.887 30.0973 101.673 30.6892 100.385 30.9926C99.1441 31.3075 97.8534 31.3179 96.6085 31.0231L96.7454 30.8758C97.2625 32.9947 98.0809 35.015 99.1716 36.8648L99.2802 37.0426H99.0914C97.2161 36.9822 95.3884 36.3937 93.7904 35.3358C92.3016 34.4529 91.0198 33.2158 90.0425 31.719L90.1652 31.7546C87.5974 33.4512 84.581 33.8169 82.3672 32.7451C81.3583 32.2282 80.4757 31.4645 79.7899 30.5151C79.1758 29.7511 78.696 28.8732 78.3738 27.9244C77.9687 26.5961 77.9473 25.1667 78.3124 23.825C78.4077 23.477 78.5276 23.1374 78.6712 22.8091L78.8742 22.5043Z" fill="#263238"/>
<path d="M78.8739 22.5042C76.3485 21.7016 73.6815 18.476 74.078 15.5703C74.4745 12.6647 77.5097 10.0385 80.0823 10.455C79.412 7.40717 80.3183 3.58211 83.075 1.86007C85.8316 0.138029 89.5843 -0.319148 92.7139 3.29256C94.2811 1.82959 96.3533 0.473295 98.3783 0.244706C99.4423 0.116188 100.519 0.230739 101.539 0.580873C102.559 0.931008 103.499 1.50884 104.298 2.27661C106.058 3.99357 106.965 7.40717 105.714 9.22572C107.493 9.03777 109.358 10.3179 110.241 12.1771C110.661 13.0686 110.878 14.0552 110.873 15.0551C110.869 16.0549 110.642 17.0391 110.213 17.9259C109.784 18.8126 109.164 19.5763 108.405 20.1535C107.646 20.7307 106.771 21.1047 105.851 21.2444C106.436 24.1653 106.431 26.5122 104.619 28.478C103.566 29.5415 102.292 30.3194 100.904 30.747C99.5158 31.1746 98.0528 31.2396 96.6365 30.9366C97.1718 33.0642 97.9974 35.0945 99.0864 36.9612C99.0864 36.9612 96.3391 37.1593 92.9405 34.6195C91.8337 33.8505 90.8831 32.8482 90.146 31.6732C88.3439 32.9218 86.1956 33.4603 84.0662 33.1971C81.9326 32.8873 80.3608 31.4446 79.1099 29.3619C78.5124 28.3426 78.176 27.1715 78.1345 25.9672C78.0931 24.763 78.3481 23.5683 78.8739 22.5042Z" fill="white"/>
<path d="M90.6323 24.389C90.4315 24.1893 90.2722 23.9463 90.1649 23.6758C90.0575 23.4053 90.0044 23.1134 90.0092 22.8193C90.0037 22.5268 90.0569 22.2366 90.1653 21.9683C90.2736 21.7 90.4345 21.4601 90.637 21.2649C91.0803 20.8491 91.6543 20.6311 92.2419 20.6553C92.8273 20.6325 93.3984 20.8526 93.8374 21.27C94.0379 21.4671 94.1965 21.7085 94.3024 21.9776C94.4083 22.2468 94.459 22.5373 94.451 22.8295C94.4551 23.1232 94.4013 23.4145 94.293 23.6842C94.1848 23.9539 94.0247 24.1958 93.8232 24.394C93.3808 24.8082 92.8141 25.0363 92.2277 25.0363C91.6413 25.0363 91.0747 24.8082 90.6323 24.394V24.389ZM90.0517 10.1097H94.4746L93.7146 19.4819H90.7597L90.0517 10.1097Z" fill="#263238"/>
<path d="M84.9162 165.212C91.8403 165.443 96.4253 167.456 97.8521 168.434C104.34 171.681 105.782 175.635 103.922 179.418C101.597 184.147 93.7307 187.009 87.8547 187.023C81.9788 187.036 79.085 195.563 67.2877 193.707C55.4903 191.851 53.9152 188.061 40.6474 195.037C27.3798 202.013 -1.13647 185.169 2.65178 178.171C6.43963 171.173 24.2329 178.073 23.7574 170.878C23.2819 163.684 38.1855 163.693 43.4522 164.638C48.7191 165.582 56.648 167.079 62.0182 168.2C67.3883 169.32 76.261 164.923 84.9162 165.212Z" fill="#3587F2" fill-opacity="0.1"/>
</svg>
