<svg width="120" height="132" viewBox="0 0 120 132" fill="none" xmlns="http://www.w3.org/2000/svg">
<path d="M93.5276 54.3782H110.858V55.0786C110.858 55.8025 110.57 56.4966 110.058 57.0084C109.546 57.5203 108.852 57.8078 108.128 57.8078H96.2431C95.5192 57.8078 94.8251 57.5203 94.3133 57.0084C93.8014 56.4966 93.5139 55.8025 93.5139 55.0786V54.3782H93.5276Z" fill="#8FC7FE"/>
<path opacity="0.3" d="M93.5276 54.3782H110.858V55.0786C110.858 55.8025 110.57 56.4966 110.058 57.0084C109.546 57.5203 108.852 57.8078 108.128 57.8078H96.2431C95.5192 57.8078 94.8251 57.5203 94.3133 57.0084C93.8014 56.4966 93.5139 55.8025 93.5139 55.0786V54.3782H93.5276Z" fill="black"/>
<path d="M105.422 57.7896H98.9722V120.901H105.422V57.7896Z" fill="#263238"/>
<path opacity="0.4" d="M105.422 57.7896H98.9722V120.901H105.422V57.7896Z" fill="white"/>
<path d="M117.562 120.901H86.8276V123.666H117.562V120.901Z" fill="#263238"/>
<path opacity="0.5" d="M117.562 120.901H86.8276V123.666H117.562V120.901Z" fill="white"/>
<path d="M117.562 128.542C118.909 128.542 120 127.451 120 126.104C120 124.758 118.909 123.666 117.562 123.666C116.216 123.666 115.124 124.758 115.124 126.104C115.124 127.451 116.216 128.542 117.562 128.542Z" fill="#263238"/>
<path opacity="0.3" d="M117.562 127.314C118.23 127.314 118.772 126.773 118.772 126.104C118.772 125.436 118.23 124.894 117.562 124.894C116.894 124.894 116.352 125.436 116.352 126.104C116.352 126.773 116.894 127.314 117.562 127.314Z" fill="black"/>
<path d="M115.124 124.881L116.384 126.104H117.562V123.662H115.124V124.881Z" fill="#263238"/>
<path opacity="0.4" d="M115.124 124.881L116.384 126.104H117.562V123.662H115.124V124.881Z" fill="white"/>
<path d="M86.8277 128.542C88.1742 128.542 89.2657 127.451 89.2657 126.104C89.2657 124.758 88.1742 123.666 86.8277 123.666C85.4812 123.666 84.3896 124.758 84.3896 126.104C84.3896 127.451 85.4812 128.542 86.8277 128.542Z" fill="#263238"/>
<path opacity="0.3" d="M86.8276 127.314C87.4958 127.314 88.0375 126.773 88.0375 126.104C88.0375 125.436 87.4958 124.894 86.8276 124.894C86.1594 124.894 85.6177 125.436 85.6177 126.104C85.6177 126.773 86.1594 127.314 86.8276 127.314Z" fill="black"/>
<path d="M89.2657 124.881L88.0012 126.104H86.8276V123.662H89.2657V124.881Z" fill="#263238"/>
<path opacity="0.2" d="M89.2657 124.881L88.0012 126.104H86.8276V123.662H89.2657V124.881Z" fill="white"/>
<path d="M110.348 40.1321H94.0417C92.2707 40.1321 90.835 41.5678 90.835 43.3388V51.1714C90.835 52.9425 92.2707 54.3782 94.0417 54.3782H110.348C112.119 54.3782 113.555 52.9425 113.555 51.1714V43.3388C113.555 41.5678 112.119 40.1321 110.348 40.1321Z" fill="#8FC7FE"/>
<path opacity="0.5" d="M110.348 40.1321H94.0417C92.2707 40.1321 90.835 41.5678 90.835 43.3388V51.1714C90.835 52.9425 92.2707 54.3782 94.0417 54.3782H110.348C112.119 54.3782 113.555 52.9425 113.555 51.1714V43.3388C113.555 41.5678 112.119 40.1321 110.348 40.1321Z" fill="white"/>
<path d="M106.8 41.4557H93.564V50.9258H106.8V41.4557Z" fill="#E0E0E0"/>
<path d="M112.018 52.8726C112.676 52.8726 113.209 52.339 113.209 51.6809C113.209 51.0227 112.676 50.4891 112.018 50.4891C111.359 50.4891 110.826 51.0227 110.826 51.6809C110.826 52.339 111.359 52.8726 112.018 52.8726Z" fill="#263238"/>
<path d="M112.222 48.9198C112.77 48.9198 113.214 48.7365 113.214 48.5104C113.214 48.2844 112.77 48.1011 112.222 48.1011C111.675 48.1011 111.231 48.2844 111.231 48.5104C111.231 48.7365 111.675 48.9198 112.222 48.9198Z" fill="#263238"/>
<path d="M112.222 47.7235C112.77 47.7235 113.214 47.5402 113.214 47.3142C113.214 47.0881 112.77 46.9048 112.222 46.9048C111.675 46.9048 111.231 47.0881 111.231 47.3142C111.231 47.5402 111.675 47.7235 112.222 47.7235Z" fill="#263238"/>
<path d="M112.222 46.5319C112.77 46.5319 113.214 46.3486 113.214 46.1225C113.214 45.8964 112.77 45.7131 112.222 45.7131C111.675 45.7131 111.231 45.8964 111.231 46.1225C111.231 46.3486 111.675 46.5319 112.222 46.5319Z" fill="#263238"/>
<path d="M112.222 45.3356C112.77 45.3356 113.214 45.1523 113.214 44.9262C113.214 44.7001 112.77 44.5168 112.222 44.5168C111.675 44.5168 111.231 44.7001 111.231 44.9262C111.231 45.1523 111.675 45.3356 112.222 45.3356Z" fill="#263238"/>
<path d="M112.222 44.1438C112.77 44.1438 113.214 43.9605 113.214 43.7344C113.214 43.5084 112.77 43.3251 112.222 43.3251C111.675 43.3251 111.231 43.5084 111.231 43.7344C111.231 43.9605 111.675 44.1438 112.222 44.1438Z" fill="#263238"/>
<path d="M112.222 42.9476C112.77 42.9476 113.214 42.7644 113.214 42.5383C113.214 42.3122 112.77 42.1289 112.222 42.1289C111.675 42.1289 111.231 42.3122 111.231 42.5383C111.231 42.7644 111.675 42.9476 112.222 42.9476Z" fill="#263238"/>
<path d="M108.983 54.037C109.192 54.037 109.361 53.868 109.361 53.6595C109.361 53.451 109.192 53.282 108.983 53.282C108.775 53.282 108.606 53.451 108.606 53.6595C108.606 53.868 108.775 54.037 108.983 54.037Z" fill="#263238"/>
<path d="M107.346 54.037C107.555 54.037 107.724 53.868 107.724 53.6595C107.724 53.451 107.555 53.282 107.346 53.282C107.138 53.282 106.969 53.451 106.969 53.6595C106.969 53.868 107.138 54.037 107.346 54.037Z" fill="#263238"/>
<path d="M106.919 39.5043H93.4458C92.0039 39.5043 90.835 40.6732 90.835 42.1151V50.2662C90.835 51.7081 92.0039 52.877 93.4458 52.877H106.919C108.361 52.877 109.53 51.7081 109.53 50.2662V42.1151C109.53 40.6732 108.361 39.5043 106.919 39.5043Z" fill="#8FC7FE"/>
<path opacity="0.2" d="M106.919 39.5043H93.4458C92.0039 39.5043 90.835 40.6732 90.835 42.1151V50.2662C90.835 51.7081 92.0039 52.877 93.4458 52.877H106.919C108.361 52.877 109.53 51.7081 109.53 50.2662V42.1151C109.53 40.6732 108.361 39.5043 106.919 39.5043Z" fill="black"/>
<path d="M107.733 41.5693H92.7224V51.1577H107.733V41.5693Z" fill="#263238"/>
<path opacity="0.7" d="M107.733 41.5693H92.7224V51.1577H107.733V41.5693Z" fill="white"/>
<path d="M97.1665 47.0504C97.0628 46.9851 96.9793 46.8922 96.9254 46.7821C96.8667 46.6505 96.8372 46.5077 96.839 46.3636C96.8366 46.2194 96.8661 46.0765 96.9254 45.9451C96.9778 45.834 97.0616 45.7407 97.1665 45.6767C97.2727 45.617 97.3926 45.5856 97.5145 45.5856C97.6364 45.5856 97.7562 45.617 97.8624 45.6767C97.9673 45.7407 98.0511 45.834 98.1035 45.9451C98.1628 46.0765 98.1923 46.2194 98.1899 46.3636C98.1917 46.5077 98.1622 46.6505 98.1035 46.7821C98.0496 46.8922 97.9662 46.9851 97.8624 47.0504C97.7562 47.1102 97.6364 47.1416 97.5145 47.1416C97.3926 47.1416 97.2727 47.1102 97.1665 47.0504ZM97.685 46.3636C97.685 46.1134 97.6259 45.9861 97.5122 45.9861C97.3985 45.9861 97.3439 46.1134 97.3439 46.3636C97.3439 46.6138 97.403 46.7411 97.5122 46.7411C97.6214 46.7411 97.685 46.6138 97.685 46.3636Z" fill="#8FC7FE"/>
<path d="M98.6357 47.0504C98.5332 46.985 98.4512 46.892 98.3992 46.782C98.3376 46.6514 98.3079 46.5079 98.3128 46.3636C98.3079 46.2192 98.3376 46.0757 98.3992 45.9451C98.4499 45.8343 98.5322 45.7409 98.6357 45.6767C98.7422 45.6154 98.8631 45.584 98.986 45.5858C99.1087 45.5845 99.2296 45.6159 99.3362 45.6767C99.4386 45.7423 99.5205 45.8353 99.5727 45.9451C99.6343 46.0757 99.664 46.2192 99.6591 46.3636C99.664 46.5079 99.6343 46.6514 99.5727 46.782C99.5192 46.8909 99.4375 46.9836 99.3362 47.0504C99.2296 47.1113 99.1087 47.1427 98.986 47.1414C98.8631 47.1431 98.7422 47.1117 98.6357 47.0504ZM99.1542 46.3636C99.1542 46.1134 99.0997 45.986 98.986 45.986C98.8722 45.986 98.8131 46.1134 98.8131 46.3636C98.8131 46.6137 98.8722 46.7411 98.986 46.7411C99.0997 46.7411 99.1542 46.6137 99.1542 46.3636Z" fill="#8FC7FE"/>
<path d="M97.3393 49.8295C97.2369 49.7639 97.155 49.671 97.1028 49.5611C97.0412 49.4305 97.0116 49.2871 97.0164 49.1427C97.0116 48.9983 97.0412 48.8549 97.1028 48.7242C97.1551 48.6157 97.2371 48.5242 97.3393 48.4604C97.4447 48.3962 97.5661 48.3631 97.6896 48.3649C97.8131 48.3623 97.9347 48.3955 98.0398 48.4604C98.143 48.523 98.2253 48.6148 98.2763 48.7242C98.3379 48.8549 98.3676 48.9983 98.3627 49.1427C98.3676 49.2871 98.3379 49.4305 98.2763 49.5611C98.2256 49.6719 98.1434 49.7653 98.0398 49.8295C97.9342 49.8928 97.8126 49.9244 97.6896 49.9205C97.5666 49.9239 97.4451 49.8924 97.3393 49.8295ZM97.8624 49.1381C97.8624 48.888 97.8033 48.7652 97.6896 48.7652C97.5758 48.7652 97.5213 48.888 97.5213 49.1381C97.5213 49.3883 97.5758 49.5157 97.6896 49.5157C97.8033 49.5157 97.8624 49.3929 97.8624 49.1381Z" fill="#8FC7FE"/>
<path d="M98.813 49.8295C98.7081 49.7656 98.6243 49.6723 98.5719 49.5611C98.5126 49.4297 98.4831 49.2868 98.4855 49.1427C98.4837 48.9986 98.5132 48.8558 98.5719 48.7242C98.6246 48.6145 98.7084 48.5227 98.813 48.4604C98.9181 48.3955 99.0397 48.3623 99.1632 48.3649C99.2853 48.3624 99.4054 48.3956 99.5089 48.4604C99.6135 48.5227 99.6973 48.6145 99.75 48.7242C99.8087 48.8558 99.8382 48.9986 99.8364 49.1427C99.8388 49.2868 99.8093 49.4297 99.75 49.5611C99.6978 49.6717 99.6145 49.7645 99.5102 49.8284C99.406 49.8922 99.2854 49.9242 99.1632 49.9205C99.0402 49.9244 98.9186 49.8928 98.813 49.8295ZM99.3315 49.1427C99.3315 48.8925 99.2724 48.7697 99.1632 48.7697C99.0541 48.7697 98.9904 48.8925 98.9904 49.1427C98.9904 49.3929 99.0495 49.5202 99.1632 49.5202C99.2769 49.5202 99.3315 49.3929 99.3315 49.1381V49.1427Z" fill="#8FC7FE"/>
<path d="M101.046 49.8295C100.943 49.7653 100.861 49.6719 100.81 49.5611C100.748 49.4305 100.719 49.2871 100.723 49.1427C100.719 48.9983 100.748 48.8549 100.81 48.7242C100.861 48.6148 100.943 48.523 101.046 48.4604C101.151 48.3955 101.273 48.3623 101.397 48.3649C101.52 48.3631 101.641 48.3962 101.747 48.4604C101.849 48.5242 101.931 48.6157 101.983 48.7242C102.045 48.8549 102.075 48.9983 102.07 49.1427C102.075 49.2871 102.045 49.4305 101.983 49.5611C101.933 49.6728 101.85 49.7667 101.745 49.8307C101.64 49.8948 101.519 49.926 101.397 49.9205C101.274 49.9244 101.152 49.8928 101.046 49.8295ZM101.565 49.1427C101.565 48.8925 101.51 48.7697 101.397 48.7697C101.283 48.7697 101.224 48.8925 101.224 49.1427C101.224 49.3929 101.283 49.5202 101.397 49.5202C101.51 49.5202 101.583 49.3929 101.583 49.1381L101.565 49.1427Z" fill="#8FC7FE"/>
<path d="M102.534 49.8295C102.431 49.7639 102.349 49.671 102.297 49.5611C102.236 49.4305 102.206 49.2871 102.211 49.1427C102.206 48.9983 102.236 48.8549 102.297 48.7242C102.349 48.6157 102.431 48.5242 102.534 48.4604C102.639 48.3962 102.76 48.3631 102.884 48.3649C103.007 48.3623 103.129 48.3955 103.234 48.4604C103.337 48.523 103.42 48.6148 103.471 48.7242C103.532 48.8549 103.562 48.9983 103.557 49.1427C103.562 49.2871 103.532 49.4305 103.471 49.5611C103.42 49.6719 103.338 49.7653 103.234 49.8295C103.129 49.8928 103.007 49.9244 102.884 49.9205C102.761 49.9239 102.639 49.8924 102.534 49.8295ZM103.057 49.1427C103.057 48.8925 102.998 48.7697 102.884 48.7697C102.77 48.7697 102.716 48.8925 102.716 49.1427C102.716 49.3929 102.77 49.5202 102.884 49.5202C102.998 49.5202 103.057 49.3929 103.057 49.1381V49.1427Z" fill="#8FC7FE"/>
<path d="M101.31 47.0505C101.208 46.9851 101.126 46.8921 101.074 46.7821C101.012 46.6515 100.982 46.508 100.987 46.3636C100.982 46.2193 101.012 46.0758 101.074 45.9452C101.124 45.8344 101.207 45.741 101.31 45.6768C101.417 45.6171 101.538 45.5857 101.661 45.5857C101.783 45.5857 101.904 45.6171 102.011 45.6768C102.114 45.741 102.197 45.8344 102.247 45.9452C102.309 46.0758 102.339 46.2193 102.334 46.3636C102.339 46.508 102.309 46.6515 102.247 46.7821C102.195 46.8921 102.113 46.9851 102.011 47.0505C101.904 47.1102 101.783 47.1416 101.661 47.1416C101.538 47.1416 101.417 47.1102 101.31 47.0505ZM101.829 46.3636C101.829 46.1135 101.774 45.9861 101.661 45.9861C101.547 45.9861 101.492 46.1135 101.492 46.3636C101.492 46.6138 101.547 46.7412 101.661 46.7412C101.774 46.7412 101.829 46.6138 101.829 46.3636Z" fill="#8FC7FE"/>
<path d="M102.779 47.0504C102.678 46.9836 102.596 46.8909 102.543 46.782C102.484 46.6504 102.455 46.5077 102.456 46.3636C102.454 46.2194 102.484 46.0765 102.543 45.9451C102.595 45.8353 102.677 45.7423 102.779 45.6767C102.886 45.6159 103.007 45.5845 103.13 45.5858C103.252 45.584 103.373 45.6154 103.48 45.6767C103.584 45.742 103.667 45.835 103.721 45.9451C103.779 46.0769 103.806 46.2198 103.803 46.3636C103.806 46.5073 103.778 46.6501 103.721 46.782C103.666 46.8912 103.583 46.9839 103.48 47.0504C103.373 47.1117 103.252 47.1431 103.13 47.1414C103.007 47.1427 102.886 47.1113 102.779 47.0504ZM103.321 46.3636C103.321 46.1134 103.262 45.986 103.148 45.986C103.034 45.986 102.98 46.1134 102.98 46.3636C102.98 46.6137 103.034 46.7411 103.148 46.7411C103.262 46.7411 103.321 46.6137 103.321 46.3636Z" fill="#8FC7FE"/>
<path d="M100.36 48.6425H100.592L100.241 49.6431H100.032L100.36 48.6425Z" fill="#8FC7FE"/>
<path d="M101.46 43.448H93.2366V43.5526H101.46V43.448Z" fill="#8FC7FE"/>
<path d="M102.065 44.3895V42.7566H101.983V44.3895V44.4714H102.065H107.051V44.3895H102.065Z" fill="#8FC7FE"/>
<path d="M103.557 37.594H97.8259C97.5545 37.594 97.2942 37.4861 97.1022 37.2942C96.9103 37.1023 96.8025 36.842 96.8025 36.5705C96.8025 36.2991 96.9103 36.0388 97.1022 35.8469C97.2942 35.6549 97.5545 35.5471 97.8259 35.5471H103.557C103.829 35.5471 104.089 35.6549 104.281 35.8469C104.473 36.0388 104.581 36.2991 104.581 36.5705C104.581 36.842 104.473 37.1023 104.281 37.2942C104.089 37.4861 103.829 37.594 103.557 37.594Z" fill="#263238"/>
<path opacity="0.1" d="M103.557 37.594H97.8259C97.5545 37.594 97.2942 37.4861 97.1022 37.2942C96.9103 37.1023 96.8025 36.842 96.8025 36.5705C96.8025 36.2991 96.9103 36.0388 97.1022 35.8469C97.2942 35.6549 97.5545 35.5471 97.8259 35.5471H103.557C103.829 35.5471 104.089 35.6549 104.281 35.8469C104.473 36.0388 104.581 36.2991 104.581 36.5705C104.581 36.842 104.473 37.1023 104.281 37.2942C104.089 37.4861 103.829 37.594 103.557 37.594Z" fill="white"/>
<path d="M96.8025 36.0248V39.5044H95.9838V36.8572C95.9819 36.7485 96.0018 36.6406 96.0421 36.5397C96.0825 36.4387 96.1425 36.3469 96.2187 36.2694C96.2949 36.1919 96.3858 36.1304 96.486 36.0884C96.5862 36.0464 96.6938 36.0248 96.8025 36.0248Z" fill="#263238"/>
<path opacity="0.3" d="M96.8025 36.0248V39.5044H95.9838V36.8572C95.9819 36.7485 96.0018 36.6406 96.0421 36.5397C96.0825 36.4387 96.1425 36.3469 96.2187 36.2694C96.2949 36.1919 96.3858 36.1304 96.486 36.0884C96.5862 36.0464 96.6938 36.0248 96.8025 36.0248Z" fill="white"/>
<path d="M104.581 36.0247V39.5043H105.399V36.8571C105.402 36.7482 105.382 36.64 105.342 36.5388C105.302 36.4376 105.242 36.3455 105.166 36.2679C105.089 36.1903 104.998 36.1288 104.898 36.087C104.797 36.0452 104.689 36.024 104.581 36.0247Z" fill="#263238"/>
<path opacity="0.3" d="M104.581 36.0247V39.5043H105.399V36.8571C105.402 36.7482 105.382 36.64 105.342 36.5388C105.302 36.4376 105.242 36.3455 105.166 36.2679C105.089 36.1903 104.998 36.1288 104.898 36.087C104.797 36.0452 104.689 36.024 104.581 36.0247Z" fill="white"/>
<path d="M67.8827 126.022H68.9971L68.9971 0.00463104H67.8827L67.8827 126.022Z" fill="#263238"/>
<path opacity="0.3" d="M67.8827 126.022H68.9971L68.9971 0.00463104H67.8827L67.8827 126.022Z" fill="white"/>
<path d="M75.1558 3.37505H77.8849V2.63819H75.829L75.8244 2.06506H75.1558V3.37505Z" fill="#263238"/>
<path opacity="0.1" d="M75.1558 3.37505H77.8849V2.63819H75.829L75.8244 2.06506H75.1558V3.37505Z" fill="white"/>
<path d="M61.642 3.37505H58.9128V2.63819H60.9642L60.9733 2.06506H61.642V3.37505Z" fill="#263238"/>
<path opacity="0.1" d="M61.642 3.37505H58.9128V2.63819H60.9642L60.9733 2.06506H61.642V3.37505Z" fill="white"/>
<path d="M79.4087 129.22C79.4087 129.56 79.5095 129.893 79.6985 130.175C79.8874 130.458 80.1559 130.678 80.4701 130.809C80.7843 130.939 81.13 130.973 81.4635 130.906C81.797 130.84 82.1034 130.676 82.3438 130.436C82.5843 130.195 82.748 129.889 82.8144 129.556C82.8807 129.222 82.8467 128.876 82.7165 128.562C82.5864 128.248 82.366 127.979 82.0833 127.791C81.8005 127.602 81.4681 127.501 81.128 127.501C80.6724 127.502 80.2358 127.683 79.9136 128.006C79.5914 128.328 79.4099 128.764 79.4087 129.22Z" fill="#263238"/>
<path opacity="0.3" d="M80.4458 129.22C80.4449 129.355 80.4842 129.488 80.5586 129.6C80.633 129.713 80.7392 129.801 80.8638 129.854C80.9884 129.906 81.1258 129.92 81.2584 129.894C81.3911 129.869 81.513 129.804 81.6089 129.709C81.7048 129.613 81.7702 129.492 81.7969 129.359C81.8236 129.227 81.8104 129.09 81.7589 128.965C81.7074 128.84 81.6199 128.733 81.5076 128.658C81.3953 128.582 81.2632 128.542 81.1281 128.542C80.9479 128.542 80.7751 128.614 80.6473 128.741C80.5194 128.868 80.447 129.04 80.4458 129.22Z" fill="black"/>
<path d="M81.128 129.22L79.4087 128.574C79.4953 128.239 79.6811 127.939 79.9416 127.711C80.2022 127.484 80.5254 127.341 80.8688 127.301C81.2131 127.243 81.5666 127.289 81.8853 127.431C82.204 127.574 82.4737 127.807 82.6609 128.101L81.128 129.22Z" fill="#263238"/>
<path opacity="0.2" d="M81.128 129.22L79.4087 128.574C79.4953 128.239 79.6811 127.939 79.9416 127.711C80.2022 127.484 80.5254 127.341 80.8688 127.301C81.2131 127.243 81.5666 127.289 81.8853 127.431C82.204 127.574 82.4737 127.807 82.6609 128.101L81.128 129.22Z" fill="black"/>
<path d="M57.3801 129.22C57.3801 129.56 57.2793 129.893 57.0904 130.175C56.9014 130.458 56.6329 130.678 56.3187 130.809C56.0046 130.939 55.6588 130.973 55.3253 130.906C54.9918 130.84 54.6855 130.676 54.445 130.436C54.2045 130.195 54.0408 129.889 53.9744 129.556C53.9081 129.222 53.9421 128.876 54.0723 128.562C54.2024 128.248 54.4228 127.979 54.7055 127.791C54.9883 127.602 55.3207 127.501 55.6608 127.501C56.1164 127.502 56.553 127.683 56.8752 128.006C57.1974 128.328 57.3789 128.764 57.3801 129.22Z" fill="#263238"/>
<path opacity="0.3" d="M56.334 129.22C56.3349 129.355 56.2957 129.488 56.2213 129.6C56.1469 129.713 56.0406 129.801 55.916 129.854C55.7914 129.906 55.6541 129.92 55.5215 129.894C55.3888 129.869 55.2668 129.804 55.1709 129.709C55.0751 129.613 55.0096 129.492 54.9829 129.359C54.9562 129.227 54.9695 129.09 55.021 128.965C55.0725 128.84 55.1599 128.733 55.2722 128.658C55.3845 128.582 55.5166 128.542 55.6518 128.542C55.8319 128.542 56.0048 128.614 56.1326 128.741C56.2604 128.868 56.3328 129.04 56.334 129.22Z" fill="black"/>
<path d="M55.6515 129.22L57.3709 128.574C57.2846 128.24 57.0995 127.94 56.8398 127.713C56.5801 127.485 56.2579 127.342 55.9153 127.301C55.5704 127.243 55.2161 127.288 54.8966 127.431C54.5772 127.573 54.3066 127.806 54.1187 128.101L55.6515 129.22Z" fill="#263238"/>
<path opacity="0.2" d="M55.6515 129.22L57.3709 128.574C57.2846 128.24 57.0995 127.94 56.8398 127.713C56.5801 127.485 56.2579 127.342 55.9153 127.301C55.5704 127.243 55.2161 127.288 54.8966 127.431C54.5772 127.573 54.3066 127.806 54.1187 128.101L55.6515 129.22Z" fill="black"/>
<path d="M61.0463 7.14137L61.5012 7.05495C61.5012 7.05495 61.0463 4.78067 60.9644 3.81637C60.8462 2.61101 60.3868 2.18799 60.0274 2.18799C59.6681 2.18799 59.3724 2.7702 59.1587 3.92099C59.0404 4.54414 59.0449 6.89575 59.0449 6.99582H59.4998C59.4998 6.99582 59.4998 4.58508 59.6044 4.00741C59.65 3.52382 59.8056 3.05705 60.0593 2.64284C60.1002 2.64284 60.4095 2.94305 60.5141 3.87095C60.6188 4.79886 61.019 7.0504 61.0463 7.14137Z" fill="#8FC7FE"/>
<path d="M57.2983 21.3465C57.4894 22.0561 59.2042 24.0301 60.0775 24.0301C60.9508 24.0301 63.025 22.5746 63.2615 21.6376C63.498 20.7006 62.5519 18.8539 62.4246 17.5439C62.2972 16.2339 62.9704 10.5891 62.9067 9.3292C62.843 8.06925 62.4518 7.58256 61.8742 7.09586C61.2965 6.60916 58.7584 6.54094 58.3127 7.09586C57.8669 7.65078 57.312 8.13293 57.312 9.13361C57.312 10.1343 58.0215 16.6069 57.9897 17.644C57.9579 18.681 57.1027 20.6324 57.2983 21.3465Z" fill="#8FC7FE"/>
<path opacity="0.6" d="M57.2983 21.3465C57.4894 22.0561 59.2042 24.0301 60.0775 24.0301C60.9508 24.0301 63.025 22.5746 63.2615 21.6376C63.498 20.7006 62.5519 18.8539 62.4246 17.5439C62.2972 16.2339 62.9704 10.5891 62.9067 9.3292C62.843 8.06925 62.4518 7.58256 61.8742 7.09586C61.2965 6.60916 58.7584 6.54094 58.3127 7.09586C57.8669 7.65078 57.312 8.13293 57.312 9.13361C57.312 10.1343 58.0215 16.6069 57.9897 17.644C57.9579 18.681 57.1027 20.6324 57.2983 21.3465Z" fill="white"/>
<path d="M57.6211 20.9917C57.7758 21.5648 59.5725 23.1568 60.2775 23.1568C60.9825 23.1568 62.5245 21.7922 62.7064 21.0554C62.8884 20.3185 62.1015 18.1807 61.9969 17.1118C61.8922 16.0428 62.4517 11.4943 62.388 10.4754C61.9332 9.50657 57.8713 9.50656 57.8713 10.3162C57.8713 11.1259 58.4444 16.3521 58.4171 17.1891C58.3898 18.026 57.4619 20.414 57.6211 20.9917Z" fill="#8FC7FE"/>
<path opacity="0.2" d="M57.6211 20.9917C57.7758 21.5648 59.5725 23.1568 60.2775 23.1568C60.9825 23.1568 62.5245 21.7922 62.7064 21.0554C62.8884 20.3185 62.1015 18.1807 61.9969 17.1118C61.8922 16.0428 62.4517 11.4943 62.388 10.4754C61.9332 9.50657 57.8713 9.50656 57.8713 10.3162C57.8713 11.1259 58.4444 16.3521 58.4171 17.1891C58.3898 18.026 57.4619 20.414 57.6211 20.9917Z" fill="white"/>
<path d="M58.7718 7.10042H61.5692C61.6233 7.10043 61.6769 7.08969 61.7269 7.06883C61.7769 7.04797 61.8222 7.01741 61.8603 6.97892C61.8984 6.94042 61.9284 6.89475 61.9487 6.84456C61.969 6.79437 61.9792 6.74064 61.9786 6.6865C61.9792 6.63236 61.969 6.57864 61.9487 6.52845C61.9284 6.47825 61.8984 6.43259 61.8603 6.39409C61.8222 6.35559 61.7769 6.32503 61.7269 6.30418C61.6769 6.28332 61.6233 6.27258 61.5692 6.27258H58.7718C58.6621 6.27258 58.5568 6.3162 58.4791 6.39382C58.4015 6.47145 58.3579 6.57673 58.3579 6.6865C58.3579 6.79628 58.4015 6.90156 58.4791 6.97919C58.5568 7.05681 58.6621 7.10042 58.7718 7.10042Z" fill="#8FC7FE"/>
<path opacity="0.2" d="M58.7718 7.10042H61.5692C61.6233 7.10043 61.6769 7.08969 61.7269 7.06883C61.7769 7.04797 61.8222 7.01741 61.8603 6.97892C61.8984 6.94042 61.9284 6.89475 61.9487 6.84456C61.969 6.79437 61.9792 6.74064 61.9786 6.6865C61.9792 6.63236 61.969 6.57864 61.9487 6.52845C61.9284 6.47825 61.8984 6.43259 61.8603 6.39409C61.8222 6.35559 61.7769 6.32503 61.7269 6.30418C61.6769 6.28332 61.6233 6.27258 61.5692 6.27258H58.7718C58.6621 6.27258 58.5568 6.3162 58.4791 6.39382C58.4015 6.47145 58.3579 6.57673 58.3579 6.6865C58.3579 6.79628 58.4015 6.90156 58.4791 6.97919C58.5568 7.05681 58.6621 7.10042 58.7718 7.10042Z" fill="white"/>
<path d="M55.6515 127.273H81.1279V125.972H55.6515V127.273Z" fill="#263238"/>
<path opacity="0.1" d="M55.6515 127.273H81.1279V125.972H55.6515V127.273Z" fill="white"/>
<path d="M58.913 1.2782L77.885 1.2782V5.4121e-05L58.913 5.4121e-05V1.2782Z" fill="#263238"/>
<path opacity="0.1" d="M58.913 1.2782L77.885 1.2782V5.4121e-05L58.913 5.4121e-05V1.2782Z" fill="white"/>
<path d="M76.9027 3.37512H77.8806V0.00463796H76.9027V3.37512Z" fill="#263238"/>
<path opacity="0.1" d="M76.9027 3.37512H77.8806V0.00463796H76.9027V3.37512Z" fill="white"/>
<path d="M58.9129 3.37512H59.8909V0.00463796H58.9129V3.37512Z" fill="#263238"/>
<path opacity="0.1" d="M58.9129 3.37512H59.8909V0.00463796H58.9129V3.37512Z" fill="white"/>
<path d="M58.4489 82.8976L58.2715 82.7566C60.058 80.0524 60.9884 76.8728 60.9415 73.6322C60.9415 70.7939 60.4366 68.3604 59.9044 65.7814C59.2373 62.9313 58.8309 60.0264 58.69 57.1027C58.5399 52.727 59.1448 49.2383 59.8407 45.2037C60.2274 42.9658 60.6276 40.6551 60.9415 37.9487C61.4523 33.2991 61.1241 28.5956 59.9727 24.062L60.1864 23.9983C61.352 28.559 61.6848 33.2926 61.1689 37.9715C60.8551 40.7006 60.4502 43.0022 60.0636 45.2492C59.3677 49.2746 58.7673 52.7497 58.9174 57.1027C59.0577 60.0142 59.4627 62.9069 60.1273 65.745C60.664 68.3331 61.1689 70.7757 61.1689 73.6413C61.2146 76.9302 60.2666 80.1563 58.4489 82.8976Z" fill="#8FC7FE"/>
<path d="M56.4158 72.4995H66.8775C69.1503 72.4995 71.3299 73.4024 72.937 75.0095C74.5441 76.6166 75.447 78.7963 75.447 81.069V131.422H47.8281V81.069C47.8281 79.9421 48.0504 78.8263 48.4822 77.7854C48.914 76.7445 49.5468 75.799 50.3445 75.003C51.1422 74.2071 52.089 73.5762 53.1308 73.1466C54.1726 72.717 55.2889 72.4971 56.4158 72.4995Z" fill="#263238"/>
<path opacity="0.4" d="M56.4158 72.4995H66.8775C69.1503 72.4995 71.3299 73.4024 72.937 75.0095C74.5441 76.6166 75.447 78.7963 75.447 81.069V131.422H47.8281V81.069C47.8281 79.9421 48.0504 78.8263 48.4822 77.7854C48.914 76.7445 49.5468 75.799 50.3445 75.003C51.1422 74.2071 52.089 73.5762 53.1308 73.1466C54.1726 72.717 55.2889 72.4971 56.4158 72.4995Z" fill="white"/>
<path opacity="0.5" d="M75.4243 131.422H59.5635V79.6135C59.5635 75.679 63.1114 72.495 67.4916 72.495C71.8719 72.495 75.4243 75.679 75.4243 79.6135V131.422Z" fill="white"/>
<path d="M15.8927 59.2405H41.2509C43.4795 59.2429 45.6159 60.1302 47.1904 61.7073C48.765 63.2844 49.6488 65.4222 49.6476 67.6508V97.3938C49.6476 97.9017 49.4458 98.3887 49.0867 98.7479C48.7276 99.107 48.2405 99.3087 47.7326 99.3087H9.39736C8.88949 99.3087 8.40242 99.107 8.0433 98.7479C7.68417 98.3887 7.48242 97.9017 7.48242 97.3938V67.6508C7.48183 66.5462 7.69895 65.4522 8.1214 64.4316C8.54384 63.4109 9.16332 62.4835 9.9444 61.7025C10.7255 60.9214 11.6529 60.3019 12.6735 59.8795C13.6942 59.457 14.7881 59.2399 15.8927 59.2405Z" fill="#263238"/>
<path opacity="0.4" d="M15.8927 59.2405H41.2509C43.4795 59.2429 45.6159 60.1302 47.1904 61.7073C48.765 63.2844 49.6488 65.4222 49.6476 67.6508V97.3938C49.6476 97.9017 49.4458 98.3887 49.0867 98.7479C48.7276 99.107 48.2405 99.3087 47.7326 99.3087H9.39736C8.88949 99.3087 8.40242 99.107 8.0433 98.7479C7.68417 98.3887 7.48242 97.9017 7.48242 97.3938V67.6508C7.48183 66.5462 7.69895 65.4522 8.1214 64.4316C8.54384 63.4109 9.16332 62.4835 9.9444 61.7025C10.7255 60.9214 11.6529 60.3019 12.6735 59.8795C13.6942 59.457 14.7881 59.2399 15.8927 59.2405Z" fill="white"/>
<path d="M62.1743 107.896H16.2292V131.422H62.1743V107.896Z" fill="#263238"/>
<path opacity="0.4" d="M62.1743 107.896H16.2292V131.422H62.1743V107.896Z" fill="white"/>
<path d="M60.7006 95.3287H20.8643C16.0536 95.3287 12.1538 99.2286 12.1538 104.039V105.299C12.1538 110.11 16.0536 114.01 20.8643 114.01H60.7006C65.5112 114.01 69.4111 110.11 69.4111 105.299V104.039C69.4111 99.2286 65.5112 95.3287 60.7006 95.3287Z" fill="#263238"/>
<path opacity="0.6" d="M60.7006 95.3287H20.8643C16.0536 95.3287 12.1538 99.2286 12.1538 104.039V105.299C12.1538 110.11 16.0536 114.01 20.8643 114.01H60.7006C65.5112 114.01 69.4111 110.11 69.4111 105.299V104.039C69.4111 99.2286 65.5112 95.3287 60.7006 95.3287Z" fill="white"/>
<path opacity="0.2" d="M27.6734 95.3287H20.9961C16.1855 95.3287 12.2856 99.2286 12.2856 104.039V105.299C12.2856 110.11 16.1855 114.01 20.9961 114.01H27.6734C32.4841 114.01 36.3839 110.11 36.3839 105.299V104.039C36.3839 99.2286 32.4841 95.3287 27.6734 95.3287Z" fill="black"/>
<path d="M95.6426 127.742L98.5628 125.031L94.2462 117.74L91.3306 120.455L95.6426 127.742Z" fill="#FF8B7B"/>
<path opacity="0.2" d="M91.3306 120.455L94.2507 117.744L96.7161 121.911L93.7049 124.471L91.3306 120.455Z" fill="black"/>
<path d="M98.531 124.467L94.7193 126.805C94.6866 126.823 94.6577 126.847 94.6345 126.876C94.6112 126.906 94.594 126.939 94.5838 126.975C94.5737 127.011 94.5708 127.049 94.5753 127.086C94.5798 127.123 94.5917 127.159 94.6102 127.191L96.2795 130.321C96.3765 130.478 96.5315 130.591 96.711 130.635C96.8905 130.68 97.0802 130.652 97.2392 130.557C98.5583 129.716 99.1451 129.252 100.81 128.21C101.838 127.574 103.93 126.391 105.195 125.327C106.459 124.262 105.354 123.016 104.74 123.362C103.234 124.185 100.669 124.458 99.2497 124.299C98.9978 124.269 98.7436 124.329 98.531 124.467Z" fill="#FF8B7B"/>
<path d="M107.967 123.857L96.6362 130.943L96.9039 131.371L108.234 124.285L107.967 123.857Z" fill="#263238"/>
<path d="M106.746 122.793C105.932 122.734 103.475 123.821 103.475 123.821L104.917 126.132L108.124 124.126C108.124 124.126 107.56 122.857 106.746 122.793Z" fill="#263238"/>
<path d="M47.828 77.8942C47.828 77.8942 72.5404 85.6267 78.4171 89.1746C84.2938 92.7225 98.1033 119.832 98.1033 119.832L91.3305 124.162C91.3305 124.162 76.2565 100.15 74.0869 98.6447C71.9172 97.1391 44.5576 90.9121 44.5576 90.9121L47.828 77.8942Z" fill="#263238"/>
<path opacity="0.2" d="M47.828 77.8942C47.828 77.8942 72.5404 85.6267 78.4171 89.1746C84.2938 92.7225 98.1033 119.832 98.1033 119.832L91.3305 124.162C91.3305 124.162 76.2565 100.15 74.0869 98.6447C71.9172 97.1391 44.5576 90.9121 44.5576 90.9121L47.828 77.8942Z" fill="black"/>
<path d="M91.7489 125.436L99.436 121.233L98.0578 117.671L89.7112 122.447L91.7489 125.436Z" fill="#263238"/>
<path opacity="0.2" d="M91.7489 125.436L99.436 121.233L98.0578 117.671L89.7112 122.447L91.7489 125.436Z" fill="white"/>
<path d="M81.1646 127.587L84.6169 125.595L81.865 117.221L78.4172 119.213L81.1646 127.587Z" fill="#FF8B7B"/>
<path opacity="0.2" d="M78.4172 119.213L81.865 117.221L83.4388 122.011L79.9274 123.83L78.4172 119.213Z" fill="black"/>
<path d="M84.7123 125.04L80.473 126.464C80.4375 126.474 80.4043 126.491 80.3755 126.515C80.3467 126.538 80.3227 126.567 80.3049 126.599C80.2872 126.632 80.276 126.667 80.2721 126.704C80.2682 126.741 80.2715 126.778 80.282 126.814L81.1917 130.239C81.2491 130.416 81.374 130.563 81.5393 130.648C81.7046 130.733 81.8968 130.75 82.0741 130.694C83.5433 130.171 84.2211 129.848 86.0814 129.202C87.2231 128.811 89.5201 128.151 90.9984 127.382C92.4767 126.614 91.667 125.163 90.9711 125.363C89.3245 125.818 86.7592 125.522 85.4173 125.045C85.1889 124.967 84.9417 124.966 84.7123 125.04Z" fill="#FF8B7B"/>
<path d="M94.084 126.348L81.5151 130.888L81.6867 131.363L94.2555 126.823L94.084 126.348Z" fill="#263238"/>
<path d="M93.1137 125.049C92.3314 124.817 89.6978 125.363 89.6978 125.363L90.6075 127.924L94.1599 126.641C94.1599 126.641 93.8961 125.281 93.1137 125.049Z" fill="#263238"/>
<path d="M83.7252 118.731C83.7252 118.731 75.4559 88.7833 74.0868 87.064C71.8489 84.253 50.4343 81.2828 50.4343 81.2828L44.8396 71.5989L24.0981 76.1474C24.0981 76.1474 26.1086 88.6423 28.583 92.3039C31.0574 95.9655 63.6524 95.3515 65.8221 96.0656C67.9917 96.7797 76.1746 120.15 76.1746 120.15L83.7252 118.731Z" fill="#263238"/>
<path d="M76.5067 122.834L84.8169 120.059L84.0937 116.311L75.033 119.532L76.5067 122.834Z" fill="#263238"/>
<path opacity="0.2" d="M76.5067 122.834L84.8169 120.059L84.0937 116.311L75.033 119.532L76.5067 122.834Z" fill="white"/>
<path opacity="0.2" d="M50.4389 81.2646L43.1384 80.4413L49.6611 79.9137L50.4389 81.2646Z" fill="black"/>
<path d="M41.8103 54.7056C44.4485 59.9182 47.0457 65.4674 49.4701 70.7801L47.7871 69.7704H51.426C54.942 69.8159 58.8856 69.8932 62.3971 70.0842C62.6512 70.0989 62.8906 70.2082 63.0681 70.3905C63.2457 70.5729 63.3486 70.815 63.3566 71.0694C63.3646 71.3238 63.2771 71.572 63.1113 71.7651C62.9455 71.9582 62.7134 72.0823 62.4608 72.1129C57.7667 72.6678 52.6131 73.0635 47.9054 73.3774C47.5554 73.4002 47.2069 73.3158 46.9062 73.1354C46.6055 72.9549 46.3669 72.6871 46.2224 72.3676C44.8305 69.7431 43.4432 67.1186 42.1014 64.4713C40.9324 62.1424 39.2313 58.8311 38.1351 56.5022C37.913 56.0173 37.8884 55.465 38.0667 54.9623C38.245 54.4596 38.612 54.0461 39.09 53.8095C39.568 53.5729 40.1194 53.5317 40.6272 53.6947C41.135 53.8578 41.5594 54.2122 41.8103 54.6828V54.7056Z" fill="#FF8B7B"/>
<path d="M37.9577 50.3981L37.844 60.9189C37.844 60.9189 38.8538 61.9651 39.7453 62.9885C40.7733 64.1711 42.6928 68.2011 43.1385 69.3565L48.6696 66.0178C46.2088 61.21 42.2106 52.0765 37.9577 50.3981Z" fill="#8FC7FE"/>
<path opacity="0.2" d="M39.5862 62.8566C40.041 63.2387 41.9696 65.7177 41.9696 65.7177C41.9696 65.7177 42.943 68.5605 43.5207 69.1291C42.8748 64.0756 40.3003 57.2028 40.3003 57.2028C40.3003 57.2028 39.3224 60.4641 39.5862 62.8566Z" fill="black"/>
<path d="M62.0651 69.9114L66.1997 70.9575L63.3432 74.5737C63.3432 74.5737 59.8591 73.6639 60.3412 71.4988L62.0651 69.9114Z" fill="#FF8B7B"/>
<path d="M67.605 73.5047L66.6544 75.1649C66.5733 75.305 66.465 75.4273 66.3358 75.5247C66.2066 75.6221 66.0592 75.6926 65.9023 75.732C65.7454 75.7715 65.5821 75.7791 65.4222 75.7543C65.2624 75.7296 65.1091 75.673 64.9714 75.5879L63.343 74.5736L66.1995 70.9575L67.3867 72.0173C67.5862 72.2038 67.7165 72.4526 67.7561 72.7228C67.7958 72.993 67.7425 73.2687 67.605 73.5047Z" fill="#FF8B7B"/>
<path d="M47.1822 67.2233L45.7676 68.4377L46.8001 69.5294L48.0328 68.4377L47.1822 67.2233Z" fill="#8FC7FE"/>
<path opacity="0.6" d="M47.1822 67.2233L45.7676 68.4377L46.8001 69.5294L48.0328 68.4377L47.1822 67.2233Z" fill="white"/>
<path d="M50.8711 71.5443C50.7529 71.5443 50.6255 71.5443 50.4845 71.5443C49.8823 71.3179 49.3249 70.9869 48.8379 70.5664C48.8144 70.5468 48.7991 70.5192 48.7949 70.4889C48.7907 70.4586 48.7979 70.4279 48.8152 70.4026C48.8364 70.3818 48.865 70.3701 48.8948 70.3701C48.9245 70.3701 48.9531 70.3818 48.9744 70.4026C49.4355 70.8017 49.9616 71.1187 50.53 71.3396C51.285 71.4124 51.6262 71.2851 51.9628 70.7938C52.0174 70.721 52.0765 70.6301 52.1402 70.53C52.4404 70.0751 52.8952 69.3428 53.5821 69.2791C53.7347 69.2766 53.8834 69.3282 54.0016 69.4247C54.1198 69.5213 54.2 69.6567 54.228 69.8068C54.2292 69.8217 54.2275 69.8368 54.2229 69.851C54.2183 69.8653 54.2109 69.8785 54.2012 69.89C54.1915 69.9014 54.1796 69.9107 54.1662 69.9176C54.1529 69.9244 54.1383 69.9284 54.1233 69.9296C54.0927 69.9309 54.0628 69.9202 54.0399 69.8998C54.017 69.8795 54.0029 69.851 54.0005 69.8204C53.9772 69.7299 53.9242 69.6498 53.85 69.5929C53.7758 69.536 53.6847 69.5056 53.5912 69.5066C53.0271 69.5566 52.6087 70.2161 52.3312 70.6528C52.263 70.7574 52.2039 70.8529 52.1493 70.9257C52.0135 71.1362 51.8224 71.3053 51.597 71.4144C51.3716 71.5235 51.1204 71.5685 50.8711 71.5443Z" fill="#8FC7FE"/>
<path d="M48.1584 69.3974L47.8325 69.7015L48.7418 70.6759L49.0677 70.3718L48.1584 69.3974Z" fill="#263238"/>
<path opacity="0.1" d="M48.1584 69.3974L47.8325 69.7015L48.7418 70.6759L49.0677 70.3718L48.1584 69.3974Z" fill="white"/>
<path d="M47.5323 68.8834L47.364 69.0426L47.6369 69.3383L47.9144 69.6294L48.0827 69.4702L47.8098 69.1791L47.5323 68.8834Z" fill="#263238"/>
<path opacity="0.5" d="M47.5323 68.8834L47.364 69.0426L47.6369 69.3383L47.9144 69.6294L48.0827 69.4702L47.8098 69.1791L47.5323 68.8834Z" fill="white"/>
<path d="M46.9001 68.374L47.4096 69.0017L47.4915 68.9244L46.9001 68.374Z" fill="#8FC7FE"/>
<path opacity="0.6" d="M46.9001 68.374L47.4096 69.0017L47.4915 68.9244L46.9001 68.374Z" fill="white"/>
<path d="M19.7089 62.047C20 63.9665 20.6186 66.0906 21.0098 68.5287C21.9468 74.4191 23.4842 77.8851 25.1035 81.815L48.4103 77.8942C46.0087 73.2455 42.6609 68.4695 41.5465 64.4213C41.5465 64.4213 40.5959 58.0988 39.7271 54.4509C39.1767 52.1766 38.9766 49.9023 36.1247 49.9023C31.8899 49.8568 26.7501 49.311 22.479 50.3071C20.2047 50.8348 18.7492 52.5041 18.9084 54.4645C19.0312 56.2339 19.204 58.7857 19.7089 62.047Z" fill="#8FC7FE"/>
<path opacity="0.2" d="M20.3139 65.0626L19.8818 63.0385L20.8461 61.2782L20.3139 65.0626Z" fill="black"/>
<path d="M27.2913 42.5245C27.2549 45.3765 27.0684 48.7106 25.1125 50.5891C26.1815 52.4086 28.4421 53.8732 31.4487 53.6139C34.7555 53.3274 33.9277 51.0076 33.2135 49.8113C31.6261 48.5741 32.0855 46.8911 32.3038 45.7176L27.2913 42.5245Z" fill="#FF8B7B"/>
<path opacity="0.2" d="M27.7417 44.2894C27.7417 44.1075 27.8327 43.3069 27.8418 43.1295L32.2812 45.7176C32.078 46.5184 32.0302 47.3506 32.1402 48.1693C30.4572 47.8009 27.7599 46.0133 27.7417 44.2894Z" fill="black"/>
<path d="M25.9496 37.4074C26.4045 41.1418 26.5136 43.3524 28.5332 45.14C31.5762 47.8236 36.0929 45.7631 36.7479 41.956C37.3301 38.5264 36.4568 32.9953 32.6815 31.7763C31.8473 31.5069 30.9584 31.4534 30.0979 31.6208C29.2374 31.7882 28.4334 32.171 27.761 32.7334C27.0886 33.2959 26.5697 34.0196 26.253 34.837C25.9362 35.6544 25.8318 36.5388 25.9496 37.4074Z" fill="#FF8B7B"/>
<path d="M31.9082 38.158C31.9309 38.4627 32.1083 38.6993 32.3085 38.6856C32.5086 38.672 32.6542 38.4081 32.6314 38.1034C32.6087 37.7986 32.4358 37.5621 32.2357 37.5758C32.0356 37.5894 31.9082 37.8532 31.9082 38.158Z" fill="#263238"/>
<path d="M35.7472 37.9942C35.7472 38.2989 35.9428 38.5309 36.1429 38.5172C36.3431 38.5036 36.4886 38.2443 36.4704 37.9396C36.4522 37.6348 36.2703 37.3983 36.0702 37.4119C35.87 37.4256 35.7245 37.6849 35.7472 37.9942Z" fill="#263238"/>
<path d="M34.428 37.7941C34.9087 38.6716 35.5088 39.4783 36.211 40.1912C36.0211 40.3646 35.796 40.495 35.5511 40.5735C35.3062 40.652 35.0472 40.6768 34.7919 40.646L34.428 37.7941Z" fill="#FF5652"/>
<path d="M36.9116 36.4386C36.882 36.4434 36.8516 36.4409 36.8231 36.4314C36.7945 36.4219 36.7688 36.4057 36.7479 36.384C36.5964 36.2169 36.4071 36.0884 36.1958 36.0092C35.9846 35.9301 35.7574 35.9027 35.5334 35.9292C35.4871 35.9373 35.4394 35.9271 35.4004 35.9008C35.3614 35.8745 35.3341 35.8342 35.3242 35.7882C35.3161 35.7406 35.3267 35.6918 35.3539 35.652C35.381 35.6121 35.4225 35.5843 35.4697 35.5744C35.7517 35.5365 36.0387 35.5671 36.3064 35.6637C36.574 35.7603 36.8144 35.92 37.0071 36.1293C37.0405 36.1633 37.0592 36.209 37.0592 36.2567C37.0592 36.3043 37.0405 36.35 37.0071 36.384C36.981 36.4108 36.9479 36.4297 36.9116 36.4386Z" fill="#263238"/>
<path d="M30.9529 36.4386C30.9826 36.4434 31.013 36.4409 31.0415 36.4314C31.07 36.4219 31.0958 36.4056 31.1167 36.384C31.2682 36.2168 31.4575 36.0883 31.6687 36.0092C31.88 35.9301 32.1071 35.9026 32.3312 35.9292C32.3775 35.9373 32.4252 35.9271 32.4642 35.9008C32.5032 35.8745 32.5305 35.8341 32.5404 35.7881C32.5485 35.7406 32.5378 35.6918 32.5107 35.6519C32.4836 35.6121 32.442 35.5843 32.3948 35.5744C32.1129 35.5368 31.826 35.5676 31.5584 35.6642C31.2908 35.7608 31.0504 35.9203 30.8574 36.1293C30.8241 36.1633 30.8054 36.209 30.8054 36.2566C30.8054 36.3043 30.8241 36.35 30.8574 36.384C30.8835 36.4108 30.9166 36.4297 30.9529 36.4386Z" fill="#263238"/>
<path opacity="0.2" d="M33.168 38.7491C32.851 39.1061 32.5007 39.4321 32.1218 39.7225C31.6366 40.0751 31.0565 40.2732 30.457 40.2911C30.457 40.2911 31.9672 40.4412 32.4538 39.9818C32.781 39.6295 33.0251 39.2083 33.168 38.7491Z" fill="black"/>
<path opacity="0.2" d="M35.679 38.7491C35.8264 39.0873 36.0345 39.3957 36.293 39.6589C36.7979 40.2229 36.9071 40.232 36.9071 40.232C36.7492 40.2299 36.594 40.1901 36.4547 40.1157C36.3154 40.0413 36.196 39.9345 36.1065 39.8044C35.8863 39.4893 35.7402 39.1286 35.679 38.7491Z" fill="black"/>
<path d="M35.8155 34.6919C36.0565 34.4508 36.2112 34.1461 36.052 33.8732C35.4598 33.0269 34.6762 32.3324 33.7648 31.8463C32.8535 31.3602 31.8402 31.0962 30.8075 31.0758C29.7755 31.1002 28.7705 31.4108 27.9047 31.9731C27.0389 32.5353 26.3463 33.3269 25.9041 34.2598C25.1718 35.9928 25.7495 37.7349 25.9041 40.0729C26.0543 39.85 26.8821 40.2002 26.9094 39.9364C27.1141 37.9942 28.1784 36.243 29.1837 35.5516C30.4746 34.7046 31.9751 34.2322 33.5184 34.187C34.4281 34.1779 35.256 34.2234 35.8155 34.6919Z" fill="#8FC7FE"/>
<path d="M20.946 40.8461C20.946 40.8461 23.7616 39.3769 24.503 39.4133C25.2444 39.4497 26.045 40.0273 26.0222 40.655C25.9995 41.2827 25.0488 41.8877 24.5167 41.9286C23.9845 41.9696 20.946 40.8461 20.946 40.8461Z" fill="#8FC7FE"/>
<path d="M23.1885 45.4175C23.1885 45.4175 24.3165 42.4472 24.8987 41.9787C25.4809 41.5102 26.4589 41.4193 26.8546 41.9014C27.2503 42.3836 26.9501 43.4707 26.5772 43.8528C26.2042 44.2348 23.1885 45.4175 23.1885 45.4175Z" fill="#8FC7FE"/>
<path d="M24.9216 41.3009C25.1725 41.6955 25.4991 42.0365 25.8824 42.3042C26.2657 42.572 26.6982 42.7613 27.155 42.8611C28.3831 43.1204 28.9244 42.0014 28.5195 40.8825C28.1602 39.8772 27.0867 38.5354 25.8859 38.7765C25.6246 38.8346 25.3817 38.9567 25.179 39.1317C24.9764 39.3067 24.8203 39.5292 24.7248 39.7793C24.6292 40.0295 24.5972 40.2994 24.6315 40.5649C24.6659 40.8305 24.7656 41.0834 24.9216 41.3009Z" fill="#FF8B7B"/>
<path d="M34.7553 42.3153C34.9085 42.3131 35.0609 42.2948 35.2102 42.2608C35.2204 42.2587 35.2301 42.2545 35.2386 42.2485C35.2471 42.2424 35.2541 42.2345 35.2593 42.2255C35.2645 42.2164 35.2677 42.2063 35.2686 42.1959C35.2695 42.1856 35.2682 42.1751 35.2648 42.1652C35.2594 42.1439 35.246 42.1254 35.2274 42.1135C35.2088 42.1017 35.1864 42.0974 35.1647 42.1016C34.8149 42.175 34.4531 42.169 34.1059 42.084C33.7587 41.999 33.4351 41.8371 33.1588 41.6103C33.1428 41.5953 33.1216 41.5869 33.0997 41.5869C33.0777 41.5869 33.0566 41.5953 33.0405 41.6103C33.0258 41.6256 33.0176 41.646 33.0176 41.6672C33.0176 41.6884 33.0258 41.7088 33.0405 41.724C33.5174 42.1299 34.1297 42.341 34.7553 42.3153Z" fill="#263238"/>
<path d="M26.0633 72.022L30.0569 73.5139L26.8274 76.798C26.8274 76.798 23.4615 75.5062 24.1756 73.4138L26.0633 72.022Z" fill="#FF8B7B"/>
<path d="M31.1758 76.2021L30.0478 77.7441C29.953 77.8752 29.8328 77.9857 29.6943 78.0692C29.5558 78.1527 29.4018 78.2073 29.2417 78.2298C29.0816 78.2523 28.9185 78.2422 28.7624 78.2002C28.6062 78.1582 28.4602 78.085 28.333 77.9852L26.8274 76.798L30.0569 73.5139L31.103 74.6965C31.2845 74.9019 31.3906 75.1629 31.4038 75.4365C31.417 75.7102 31.3366 75.9803 31.1758 76.2021Z" fill="#FF8B7B"/>
<path d="M21.3418 58.0897C18.9856 63.0931 16.1246 68.2148 13.6865 73.1545L11.9444 70.5164C14.2688 70.5846 16.493 70.762 18.8128 70.9712C21.1325 71.1805 23.3386 71.4625 25.5901 71.8218C25.8359 71.8649 26.0575 71.9962 26.2132 72.1911C26.3689 72.386 26.4481 72.6311 26.4358 72.8803C26.4235 73.1295 26.3206 73.3657 26.1464 73.5443C25.9723 73.723 25.7389 73.8318 25.4901 73.8505C22.2151 74.0415 18.6035 74.1097 15.3149 74.1825C14.196 74.2144 13.0679 74.228 11.9808 74.278C11.6724 74.2887 11.3663 74.2223 11.09 74.0848C10.8138 73.9473 10.5762 73.7431 10.3987 73.4907C10.2212 73.2382 10.1095 72.9455 10.0736 72.6391C10.0377 72.3326 10.0789 72.022 10.1933 71.7354C12.4675 66.5273 15.1421 61.3874 17.6529 56.3067C17.7697 56.0645 17.933 55.8476 18.1336 55.6685C18.3342 55.4895 18.5681 55.3516 18.8219 55.2629C19.0757 55.1742 19.3446 55.1364 19.613 55.1516C19.8815 55.1668 20.1444 55.2347 20.3866 55.3515C20.6288 55.4683 20.8456 55.6316 21.0247 55.8322C21.2038 56.0328 21.3416 56.2667 21.4303 56.5205C21.519 56.7743 21.5569 57.0432 21.5417 57.3116C21.5265 57.5801 21.4586 57.843 21.3418 58.0852V58.0897Z" fill="#FF8B7B"/>
<path d="M21.0644 50.8074C22.3198 54.8556 22.2743 58.3716 20.5641 61.8922C19.7999 63.3023 18.1079 66.3725 16.7342 68.5695L9.98413 68.0328C12.6041 61.7285 18.0214 51.658 21.0644 50.8074Z" fill="#8FC7FE"/>
<path d="M27.4187 131.422H0V81.069C0 78.7963 0.902849 76.6166 2.50994 75.0095C4.11703 73.4024 6.29672 72.4995 8.56948 72.4995H18.8492C24.8806 72.2812 27.9463 76.5932 27.4187 81.069V131.422Z" fill="#263238"/>
<path opacity="0.6" d="M27.4187 131.422H0V81.069C0 78.7962 0.902849 76.6165 2.50994 75.0094C4.11703 73.4023 6.29672 72.4995 8.56948 72.4995H18.8492C24.9898 72.4312 27.6279 76.1656 27.4187 81.069V131.422Z" fill="white"/>
<path opacity="0.4" d="M27.4185 131.422H11.6487V79.6135C11.6487 75.679 15.1784 72.495 19.5313 72.495C23.8888 72.495 27.4185 75.679 27.4185 79.6135V131.422Z" fill="white"/>
</svg>
