<svg width="240" height="214" viewBox="0 0 240 214" fill="none" xmlns="http://www.w3.org/2000/svg">
<path d="M240 135.005H163.918V212.616H240V135.005Z" fill="#E6E2DE"/>
<path d="M225.389 156.52H235.13V144.679H225.389V156.52Z" fill="#FAFAFA"/>
<path d="M206.522 156.52H216.262V144.679H206.522V156.52Z" fill="#FAFAFA"/>
<path d="M187.655 156.52H197.396V144.679H187.655V156.52Z" fill="#FAFAFA"/>
<path d="M168.787 156.52H178.528V144.679H168.787V156.52Z" fill="#FAFAFA"/>
<path d="M225.389 178.033H235.13V166.193H225.389V178.033Z" fill="#FAFAFA"/>
<path d="M206.522 178.033H216.262V166.193H206.522V178.033Z" fill="#FAFAFA"/>
<path d="M187.655 178.033H197.396V166.193H187.655V178.033Z" fill="#FAFAFA"/>
<path d="M168.787 178.033H178.528V166.193H168.787V178.033Z" fill="#FAFAFA"/>
<path d="M225.389 199.548H235.13V187.707H225.389V199.548Z" fill="#FAFAFA"/>
<path d="M206.522 199.548H216.262V187.707H206.522V199.548Z" fill="#FAFAFA"/>
<path d="M187.655 199.548H197.396V187.707H187.655V199.548Z" fill="#FAFAFA"/>
<path d="M168.787 199.548H178.528V187.707H168.787V199.548Z" fill="#FAFAFA"/>
<path d="M106.664 15.3162H30.5815V92.9269H106.664V15.3162Z" fill="#E6E2DE"/>
<path d="M92.0533 36.8307H101.794V24.9901H92.0533V36.8307Z" fill="#FAFAFA"/>
<path d="M73.1854 36.8307H82.9263V24.9901H73.1854V36.8307Z" fill="#FAFAFA"/>
<path d="M54.3192 36.8307H64.0601V24.9901H54.3192V36.8307Z" fill="#FAFAFA"/>
<path d="M35.4515 36.8307H45.1924V24.9901H35.4515V36.8307Z" fill="#FAFAFA"/>
<path d="M92.0533 58.3441H101.794V46.5035H92.0533V58.3441Z" fill="#FAFAFA"/>
<path d="M73.1854 58.3441H82.9263V46.5035H73.1854V58.3441Z" fill="#FAFAFA"/>
<path d="M54.3192 58.3441H64.0601V46.5035H54.3192V58.3441Z" fill="#FAFAFA"/>
<path d="M35.4515 58.3441H45.1924V46.5035H35.4515V58.3441Z" fill="#FAFAFA"/>
<path d="M92.0533 79.8585H101.794V68.0179H92.0533V79.8585Z" fill="#FAFAFA"/>
<path d="M73.1854 79.8585H82.9263V68.0179H73.1854V79.8585Z" fill="#FAFAFA"/>
<path d="M54.3192 79.8585H64.0601V68.0179H54.3192V79.8585Z" fill="#FAFAFA"/>
<path d="M35.4515 79.8585H45.1924V68.0179H35.4515V79.8585Z" fill="#FAFAFA"/>
<path d="M240 0H163.918V135.005H240V0Z" fill="#F0E9E3"/>
<path d="M235.13 5.92029H206.523V39.2754H235.13V5.92029Z" fill="#F7F7F7"/>
<path d="M197.396 5.92029H168.789V39.2754H197.396V5.92029Z" fill="#F7F7F7"/>
<path d="M235.13 48.9482H206.523V82.3034H235.13V48.9482Z" fill="#F7F7F7"/>
<path d="M197.396 48.9482H168.789V82.3034H197.396V48.9482Z" fill="#F7F7F7"/>
<path d="M235.13 91.9772H206.523V125.332H235.13V91.9772Z" fill="#F7F7F7"/>
<path d="M197.396 91.9772H168.789V125.332H197.396V91.9772Z" fill="#F7F7F7"/>
<path d="M134.905 48.5007L202.007 48.5007V44.8678L134.905 44.8678V48.5007Z" fill="#D6C3B4"/>
<path opacity="0.2" d="M134.905 48.5007L202.007 48.5007V44.8678L134.905 44.8678V48.5007Z" fill="white"/>
<path d="M132.625 44.8689L204.286 44.8689V41.236L132.625 41.236V44.8689Z" fill="#D6C3B4"/>
<path opacity="0.4" d="M132.625 44.8689L204.286 44.8689V41.236L132.625 41.236V44.8689Z" fill="white"/>
<path d="M137.542 211.143H199.37L199.37 48.5008H137.542L137.542 211.143Z" fill="#D6C3B4"/>
<path opacity="0.5" d="M137.542 211.143H199.37L199.37 48.5008H137.542L137.542 211.143Z" fill="white"/>
<path opacity="0.2" d="M179.794 211.143H199.37L199.37 48.5008H179.794L179.794 211.143Z" fill="black"/>
<path opacity="0.2" d="M179.703 48.5007H202.007V44.8678H179.703V48.5007Z" fill="black"/>
<path opacity="0.2" d="M179.703 44.8689H204.286V41.236H179.703V44.8689Z" fill="black"/>
<path d="M167.459 71.5797H175.75V53.2514H167.459V71.5797Z" fill="#D6C3B4"/>
<path d="M154.522 71.5797H162.812V53.2514H154.522V71.5797Z" fill="#D6C3B4"/>
<path d="M141.584 71.5797H149.875V53.2514H141.584V71.5797Z" fill="#D6C3B4"/>
<path d="M167.459 93.6682H175.75V75.3399H167.459V93.6682Z" fill="#D6C3B4"/>
<path d="M154.522 93.6682H162.812V75.3399H154.522V93.6682Z" fill="#D6C3B4"/>
<path d="M141.584 93.6682H149.875V75.3399H141.584V93.6682Z" fill="#D6C3B4"/>
<path d="M167.459 126.404H175.75V108.076H167.459V126.404Z" fill="#D6C3B4"/>
<path d="M154.522 126.404H162.812V108.076H154.522V126.404Z" fill="#D6C3B4"/>
<path d="M141.584 126.404H149.875V108.076H141.584V126.404Z" fill="#D6C3B4"/>
<path d="M167.459 148.493H175.75V130.164H167.459V148.493Z" fill="#D6C3B4"/>
<path d="M154.522 148.493H162.812V130.164H154.522V148.493Z" fill="#D6C3B4"/>
<path d="M141.584 148.493H149.875V130.164H141.584V148.493Z" fill="#D6C3B4"/>
<path d="M167.459 181.228H175.75V162.899H167.459V181.228Z" fill="#D6C3B4"/>
<path d="M154.522 181.228H162.812V162.899H154.522V181.228Z" fill="#D6C3B4"/>
<path d="M141.584 181.228H149.875V162.899H141.584V181.228Z" fill="#D6C3B4"/>
<path d="M158.667 213.11H169.031V190.195H158.667V213.11Z" fill="#D6C3B4"/>
<path d="M148.303 213.11H158.667V190.195H148.303V213.11Z" fill="#D6C3B4"/>
<g opacity="0.2">
<path d="M167.459 71.5797H175.75V53.2514H167.459V71.5797Z" fill="white"/>
<path d="M154.522 71.5797H162.812V53.2514H154.522V71.5797Z" fill="white"/>
<path d="M141.584 71.5797H149.875V53.2514H141.584V71.5797Z" fill="white"/>
<path d="M167.459 93.6682H175.75V75.3399H167.459V93.6682Z" fill="white"/>
<path d="M154.522 93.6682H162.812V75.3399H154.522V93.6682Z" fill="white"/>
<path d="M141.584 93.6682H149.875V75.3399H141.584V93.6682Z" fill="white"/>
<path d="M167.459 126.404H175.75V108.076H167.459V126.404Z" fill="white"/>
<path d="M154.522 126.404H162.812V108.076H154.522V126.404Z" fill="white"/>
<path d="M141.584 126.404H149.875V108.076H141.584V126.404Z" fill="white"/>
<path d="M167.459 148.493H175.75V130.164H167.459V148.493Z" fill="white"/>
<path d="M154.522 148.493H162.812V130.164H154.522V148.493Z" fill="white"/>
<path d="M141.584 148.493H149.875V130.164H141.584V148.493Z" fill="white"/>
<path d="M167.459 181.228H175.75V162.899H167.459V181.228Z" fill="white"/>
<path d="M154.522 181.228H162.812V162.899H154.522V181.228Z" fill="white"/>
<path d="M141.584 181.228H149.875V162.899H141.584V181.228Z" fill="white"/>
<path d="M158.667 213.11H169.031V190.195H158.667V213.11Z" fill="white"/>
<path d="M148.303 213.11H158.667V190.195H148.303V213.11Z" fill="white"/>
</g>
<g opacity="0.8">
<path d="M168.973 70.0807H174.239V54.7507H168.973V70.0807Z" fill="white"/>
<path d="M156.034 70.0807H161.301V54.7507H156.034V70.0807Z" fill="white"/>
<path d="M143.097 70.0807H148.363V54.7507H143.097V70.0807Z" fill="white"/>
<path d="M168.973 92.168H174.239V76.838H168.973V92.168Z" fill="white"/>
<path d="M156.034 92.168H161.301V76.838H156.034V92.168Z" fill="white"/>
<path d="M143.097 92.168H148.363V76.838H143.097V92.168Z" fill="white"/>
<path d="M168.973 124.904H174.239V109.574H168.973V124.904Z" fill="white"/>
<path d="M156.034 124.904H161.301V109.574H156.034V124.904Z" fill="white"/>
<path d="M143.097 124.904H148.363V109.574H143.097V124.904Z" fill="white"/>
<path d="M168.973 146.993H174.239V131.663H168.973V146.993Z" fill="white"/>
<path d="M156.034 146.993H161.301V131.663H156.034V146.993Z" fill="white"/>
<path d="M143.097 146.993H148.363V131.663H143.097V146.993Z" fill="white"/>
<path d="M168.973 179.729H174.239V164.399H168.973V179.729Z" fill="white"/>
<path d="M156.034 179.729H161.301V164.399H156.034V179.729Z" fill="white"/>
<path d="M143.097 179.729H148.363V164.399H143.097V179.729Z" fill="white"/>
<path d="M160.557 211.236H167.142V192.069H160.557V211.236Z" fill="white"/>
<path d="M150.192 211.236H156.778V192.069H150.192V211.236Z" fill="white"/>
</g>
<path d="M166.189 72.8395H177.021V71.5798H166.189V72.8395Z" fill="#D6C3B4"/>
<path d="M153.25 72.8395H164.083V71.5798H153.25V72.8395Z" fill="#D6C3B4"/>
<path d="M140.314 72.8395H151.146V71.5798H140.314V72.8395Z" fill="#D6C3B4"/>
<path d="M166.189 94.9277H177.021V93.6681H166.189V94.9277Z" fill="#D6C3B4"/>
<path d="M153.25 94.9277H164.083V93.6681H153.25V94.9277Z" fill="#D6C3B4"/>
<path d="M140.314 94.9277H151.146V93.6681H140.314V94.9277Z" fill="#D6C3B4"/>
<path d="M166.189 127.664H177.021V126.404H166.189V127.664Z" fill="#D6C3B4"/>
<path d="M153.25 127.664H164.083V126.404H153.25V127.664Z" fill="#D6C3B4"/>
<path d="M140.314 127.664H151.146V126.404H140.314V127.664Z" fill="#D6C3B4"/>
<path d="M166.189 149.752H177.021V148.493H166.189V149.752Z" fill="#D6C3B4"/>
<path d="M153.25 149.752H164.083V148.493H153.25V149.752Z" fill="#D6C3B4"/>
<path d="M140.314 149.752H151.146V148.493H140.314V149.752Z" fill="#D6C3B4"/>
<path d="M166.189 182.488H177.021V181.228H166.189V182.488Z" fill="#D6C3B4"/>
<path d="M153.25 182.488H164.083V181.228H153.25V182.488Z" fill="#D6C3B4"/>
<path d="M140.314 182.488H151.146V181.228H140.314V182.488Z" fill="#D6C3B4"/>
<path d="M145.73 190.195H170.934V188.935H145.73V190.195Z" fill="#D6C3B4"/>
<path opacity="0.3" d="M195.034 81.032H199.369V78.6335H195.034V81.032Z" fill="black"/>
<path opacity="0.3" d="M190.855 85.7025H195.189V83.3041H190.855V85.7025Z" fill="black"/>
<path opacity="0.3" d="M188.687 81.032H193.022V78.6335H188.687V81.032Z" fill="black"/>
<path opacity="0.3" d="M189.694 63.0406H194.028V60.6422H189.694V63.0406Z" fill="black"/>
<path opacity="0.3" d="M185.514 67.7114H189.848V65.313H185.514V67.7114Z" fill="black"/>
<path opacity="0.3" d="M185.514 58.106H189.848V55.7075H185.514V58.106Z" fill="black"/>
<path opacity="0.3" d="M183.347 63.0406H187.681V60.6422H183.347V63.0406Z" fill="black"/>
<path opacity="0.3" d="M183.959 189.76H188.293V187.362H183.959V189.76Z" fill="black"/>
<path opacity="0.3" d="M179.78 184.827H184.115V182.428H179.78V184.827Z" fill="black"/>
<path opacity="0.3" d="M195.034 115.413H199.369V113.015H195.034V115.413Z" fill="black"/>
<path opacity="0.3" d="M190.855 120.085H195.189V117.687H190.855V120.085Z" fill="black"/>
<path opacity="0.3" d="M190.855 110.478H195.189V108.08H190.855V110.478Z" fill="black"/>
<path opacity="0.3" d="M188.687 115.413H193.022V113.015H188.687V115.413Z" fill="black"/>
<path opacity="0.3" d="M186.05 146.081H190.384V143.683H186.05V146.081Z" fill="black"/>
<path opacity="0.3" d="M181.87 150.752H186.204V148.353H181.87V150.752Z" fill="black"/>
<path opacity="0.3" d="M181.87 141.147H186.204V138.748H181.87V141.147Z" fill="black"/>
<path opacity="0.3" d="M194.958 135.329H199.292V132.93H194.958V135.329Z" fill="black"/>
<path opacity="0.3" d="M190.777 130.394H195.112V127.996H190.777V130.394Z" fill="black"/>
<path opacity="0.3" d="M179.703 146.081H184.038V143.683H179.703V146.081Z" fill="black"/>
<path opacity="0.3" d="M194.958 170.232H199.292V167.833H194.958V170.232Z" fill="black"/>
<path opacity="0.3" d="M190.777 174.903H195.112V172.504H190.777V174.903Z" fill="black"/>
<path opacity="0.3" d="M190.777 165.298H195.112V162.9H190.777V165.298Z" fill="black"/>
<path opacity="0.3" d="M194.958 202.983H199.292V200.584H194.958V202.983Z" fill="black"/>
<path opacity="0.3" d="M190.777 207.656H195.112V205.257H190.777V207.656Z" fill="black"/>
<path opacity="0.3" d="M190.777 198.049H195.112V195.651H190.777V198.049Z" fill="black"/>
<path opacity="0.3" d="M188.61 170.232H192.945V167.833H188.61V170.232Z" fill="black"/>
<path d="M134.905 103.32L202.007 103.32V99.6868L134.905 99.6868V103.32Z" fill="#D6C3B4"/>
<path opacity="0.2" d="M134.905 103.32L202.007 103.32V99.6868L134.905 99.6868V103.32Z" fill="white"/>
<path opacity="0.2" d="M179.703 103.32H202.007V99.6868H179.703V103.32Z" fill="black"/>
<path d="M134.905 158.14H202.007V154.507H134.905V158.14Z" fill="#D6C3B4"/>
<path opacity="0.2" d="M134.905 158.14H202.007V154.507H134.905V158.14Z" fill="white"/>
<path opacity="0.2" d="M179.703 158.14H202.007V154.507H179.703V158.14Z" fill="black"/>
<path d="M134.905 213.56H202.007V209.927H134.905V213.56Z" fill="#D6C3B4"/>
<path opacity="0.2" d="M134.905 213.56H202.007V209.927H134.905V213.56Z" fill="white"/>
<path opacity="0.2" d="M179.703 213.56H202.007V209.927H179.703V213.56Z" fill="black"/>
<path d="M135.581 66.9891H73.7996V213.185H135.581V66.9891Z" fill="#D6C3B4"/>
<path opacity="0.7" d="M135.581 66.9891H73.7996V213.185H135.581V66.9891Z" fill="white"/>
<path opacity="0.2" d="M93.36 66.9891H73.7996V213.185H93.36V66.9891Z" fill="black"/>
<path d="M90.3314 96.311H75.0046V98.0096H90.3314V96.311Z" fill="#D6C3B4"/>
<path d="M114.183 96.311H98.8567V98.0096H114.183V96.311Z" fill="#D6C3B4"/>
<path d="M132.783 96.311H117.456V98.0096H132.783V96.311Z" fill="#D6C3B4"/>
<path d="M90.3314 130.867H75.0046V132.565H90.3314V130.867Z" fill="#D6C3B4"/>
<path d="M114.183 130.867H98.8567V132.565H114.183V130.867Z" fill="#D6C3B4"/>
<path d="M132.783 130.867H117.456V132.565H132.783V130.867Z" fill="#D6C3B4"/>
<path d="M90.3314 165.423H75.0046V167.121H90.3314V165.423Z" fill="#D6C3B4"/>
<path d="M114.183 165.423H98.8567V167.121H114.183V165.423Z" fill="#D6C3B4"/>
<path d="M132.783 165.423H117.456V167.121H132.783V165.423Z" fill="#D6C3B4"/>
<path d="M106.878 73.5432H104.339C101.317 73.5432 98.8577 75.7856 98.8577 78.5409V96.311H112.36V78.5409C112.36 75.7856 109.9 73.5432 106.878 73.5432Z" fill="#D6C3B4"/>
<path d="M125.478 73.5432H122.939C119.917 73.5432 117.457 75.7856 117.457 78.5409V96.311H130.959V78.5409C130.959 75.7856 128.5 73.5432 125.478 73.5432Z" fill="#D6C3B4"/>
<path d="M106.878 108.099H104.339C101.317 108.099 98.8577 110.341 98.8577 113.097V130.867H112.36V113.097C112.36 110.341 109.9 108.099 106.878 108.099Z" fill="#D6C3B4"/>
<path d="M125.478 108.099H122.939C119.917 108.099 117.457 110.341 117.457 113.097V130.867H130.959V113.097C130.959 110.341 128.5 108.099 125.478 108.099Z" fill="#D6C3B4"/>
<path d="M106.878 142.655H104.339C101.317 142.655 98.8577 144.897 98.8577 147.652V165.422H112.36V147.652C112.36 144.897 109.9 142.655 106.878 142.655Z" fill="#D6C3B4"/>
<path d="M125.478 142.655H122.939C119.917 142.655 117.457 144.897 117.457 147.652V165.422H130.959V147.652C130.959 144.897 128.5 142.655 125.478 142.655Z" fill="#D6C3B4"/>
<path d="M84.8501 73.5432H82.3111C79.2891 73.5432 76.8296 75.7856 76.8296 78.5409V96.311H90.3316V78.5409C90.3316 75.7856 87.8721 73.5432 84.8501 73.5432Z" fill="#D6C3B4"/>
<path d="M84.8501 108.099H82.3111C79.2891 108.099 76.8296 110.341 76.8296 113.097V130.867H90.3316V113.097C90.3316 110.341 87.8721 108.099 84.8501 108.099Z" fill="#D6C3B4"/>
<path d="M84.8501 142.655H82.3111C79.2891 142.655 76.8296 144.897 76.8296 147.652V165.422H90.3316V147.652C90.3316 144.897 87.8721 142.655 84.8501 142.655Z" fill="#D6C3B4"/>
<path d="M84.8501 177.211H82.3111C79.2891 177.211 76.8296 179.453 76.8296 182.208V199.978H90.3316V182.208C90.3316 179.453 87.8721 177.211 84.8501 177.211Z" fill="#D6C3B4"/>
<path d="M116.487 181.126H112.921C108.677 181.126 105.223 184.275 105.223 188.145V213.101H124.186V188.145C124.186 184.276 120.732 181.126 116.487 181.126Z" fill="#D6C3B4"/>
<g opacity="0.2">
<path d="M106.878 73.5432H104.339C101.317 73.5432 98.8577 75.7856 98.8577 78.5409V96.311H112.36V78.5409C112.36 75.7856 109.9 73.5432 106.878 73.5432Z" fill="white"/>
<path d="M125.478 73.5432H122.939C119.917 73.5432 117.457 75.7856 117.457 78.5409V96.311H130.959V78.5409C130.959 75.7856 128.5 73.5432 125.478 73.5432Z" fill="white"/>
<path d="M106.878 108.099H104.339C101.317 108.099 98.8577 110.341 98.8577 113.097V130.867H112.36V113.097C112.36 110.341 109.9 108.099 106.878 108.099Z" fill="white"/>
<path d="M125.478 108.099H122.939C119.917 108.099 117.457 110.341 117.457 113.097V130.867H130.959V113.097C130.959 110.341 128.5 108.099 125.478 108.099Z" fill="white"/>
<path d="M106.878 142.655H104.339C101.317 142.655 98.8577 144.897 98.8577 147.652V165.422H112.36V147.652C112.36 144.897 109.9 142.655 106.878 142.655Z" fill="white"/>
<path d="M125.478 142.655H122.939C119.917 142.655 117.457 144.897 117.457 147.652V165.422H130.959V147.652C130.959 144.897 128.5 142.655 125.478 142.655Z" fill="white"/>
<path d="M84.8501 73.5432H82.3111C79.2891 73.5432 76.8296 75.7856 76.8296 78.5409V96.311H90.3316V78.5409C90.3316 75.7856 87.8721 73.5432 84.8501 73.5432Z" fill="white"/>
<path d="M84.8501 108.099H82.3111C79.2891 108.099 76.8296 110.341 76.8296 113.097V130.867H90.3316V113.097C90.3316 110.341 87.8721 108.099 84.8501 108.099Z" fill="white"/>
<path d="M84.8501 142.655H82.3111C79.2891 142.655 76.8296 144.897 76.8296 147.652V165.422H90.3316V147.652C90.3316 144.897 87.8721 142.655 84.8501 142.655Z" fill="white"/>
<path d="M84.8501 177.211H82.3111C79.2891 177.211 76.8296 179.453 76.8296 182.208V199.978H90.3316V182.208C90.3316 179.453 87.8721 177.211 84.8501 177.211Z" fill="white"/>
<path d="M116.487 181.126H112.921C108.677 181.126 105.223 184.275 105.223 188.145V213.101H124.186V188.145C124.186 184.276 120.732 181.126 116.487 181.126Z" fill="white"/>
</g>
<g opacity="0.7">
<path opacity="0.8" d="M110.032 78.541V80.8634H106.257V75.6643H106.878C108.617 75.6643 110.033 76.9544 110.033 78.54L110.032 78.541Z" fill="white"/>
<path opacity="0.8" d="M110.032 82.0463H106.257V87.3357H110.032V82.0463Z" fill="white"/>
<path opacity="0.8" d="M104.96 82.0463H101.184V87.3357H104.96V82.0463Z" fill="white"/>
<path opacity="0.8" d="M104.338 75.6653H104.96V80.8644H101.184V78.542C101.184 76.9564 102.599 75.6662 104.338 75.6662V75.6653Z" fill="white"/>
<path opacity="0.8" d="M104.96 88.5184H101.184V94.1899H104.96V88.5184Z" fill="white"/>
<path opacity="0.8" d="M110.032 88.5184H106.257V94.1899H110.032V88.5184Z" fill="white"/>
<path opacity="0.8" d="M128.632 78.541V80.8634H124.856V75.6643H125.478C127.217 75.6643 128.632 76.9544 128.632 78.54V78.541Z" fill="white"/>
<path opacity="0.8" d="M128.632 82.0463H124.856V87.3357H128.632V82.0463Z" fill="white"/>
<path opacity="0.8" d="M123.559 82.0463H119.784V87.3357H123.559V82.0463Z" fill="white"/>
<path opacity="0.8" d="M122.938 75.665H123.559V80.8641H119.784V78.5417C119.784 76.9561 121.199 75.666 122.939 75.666L122.938 75.665Z" fill="white"/>
<path opacity="0.8" d="M123.559 88.5184H119.784V94.1899H123.559V88.5184Z" fill="white"/>
<path opacity="0.8" d="M128.632 88.5184H124.856V94.1899H128.632V88.5184Z" fill="white"/>
<path opacity="0.8" d="M110.032 113.097V115.419H106.257V110.22H106.878C108.617 110.22 110.033 111.51 110.033 113.097H110.032Z" fill="white"/>
<path opacity="0.8" d="M110.032 116.602H106.257V121.891H110.032V116.602Z" fill="white"/>
<path opacity="0.8" d="M104.96 116.602H101.184V121.891H104.96V116.602Z" fill="white"/>
<path opacity="0.8" d="M104.338 110.221H104.96V115.42H101.184V113.098C101.184 111.512 102.599 110.221 104.338 110.221Z" fill="white"/>
<path opacity="0.8" d="M104.96 123.074H101.184V128.746H104.96V123.074Z" fill="white"/>
<path opacity="0.8" d="M110.032 123.074H106.257V128.746H110.032V123.074Z" fill="white"/>
<g opacity="0.8">
<path d="M128.632 113.097V115.419H124.856V110.22H125.478C127.217 110.22 128.632 111.51 128.632 113.097Z" fill="white"/>
<path d="M128.632 116.602H124.856V121.891H128.632V116.602Z" fill="white"/>
<path d="M123.559 116.602H119.783V121.891H123.559V116.602Z" fill="white"/>
<path d="M122.938 110.221H123.559V115.42H119.783V113.098C119.783 111.512 121.198 110.221 122.939 110.221H122.938Z" fill="white"/>
<path d="M123.559 123.074H119.783V128.746H123.559V123.074Z" fill="white"/>
<path d="M128.632 123.074H124.856V128.746H128.632V123.074Z" fill="white"/>
</g>
<path d="M110.032 147.652V149.975H106.257V144.776H106.878C108.617 144.776 110.033 146.066 110.033 147.652H110.032Z" fill="white"/>
<path d="M110.032 151.158H106.257V156.447H110.032V151.158Z" fill="white"/>
<path d="M104.96 151.158H101.184V156.447H104.96V151.158Z" fill="white"/>
<path d="M104.338 144.777H104.96V149.976H101.184V147.653C101.184 146.068 102.599 144.777 104.338 144.777Z" fill="white"/>
<path d="M104.96 157.63H101.184V163.301H104.96V157.63Z" fill="white"/>
<path d="M110.032 157.63H106.257V163.301H110.032V157.63Z" fill="white"/>
<path d="M128.632 147.652V149.975H124.856V144.776H125.478C127.217 144.776 128.632 146.066 128.632 147.652Z" fill="white"/>
<path d="M128.632 151.158H124.856V156.447H128.632V151.158Z" fill="white"/>
<path d="M123.559 151.158H119.783V156.447H123.559V151.158Z" fill="white"/>
<path d="M122.938 144.777H123.559V149.976H119.783V147.653C119.783 146.068 121.198 144.777 122.939 144.777H122.938Z" fill="white"/>
<path d="M123.559 157.63H119.783V163.301H123.559V157.63Z" fill="white"/>
<path d="M128.632 157.63H124.856V163.301H128.632V157.63Z" fill="white"/>
<path opacity="0.8" d="M88.0042 78.541V80.8634H84.2288V75.6643H84.8501C86.5892 75.6643 88.0052 76.9544 88.0052 78.54L88.0042 78.541Z" fill="white"/>
<path opacity="0.8" d="M88.0042 82.0463H84.2288V87.3357H88.0042V82.0463Z" fill="white"/>
<path opacity="0.8" d="M82.9312 82.0463H79.1558V87.3357H82.9312V82.0463Z" fill="white"/>
<path opacity="0.8" d="M82.3099 75.6653H82.9312V80.8644H79.1558V78.542C79.1558 76.9564 80.5708 75.6662 82.3099 75.6662V75.6653Z" fill="white"/>
<path opacity="0.8" d="M82.9312 88.5184H79.1558V94.1899H82.9312V88.5184Z" fill="white"/>
<path opacity="0.8" d="M88.0042 88.5184H84.2288V94.1899H88.0042V88.5184Z" fill="white"/>
<path opacity="0.8" d="M88.0042 113.097V115.419H84.2288V110.22H84.8501C86.5892 110.22 88.0052 111.51 88.0052 113.097H88.0042Z" fill="white"/>
<path opacity="0.8" d="M88.0042 116.602H84.2288V121.891H88.0042V116.602Z" fill="white"/>
<path opacity="0.8" d="M82.9312 116.602H79.1558V121.891H82.9312V116.602Z" fill="white"/>
<path opacity="0.8" d="M82.3099 110.221H82.9312V115.42H79.1558V113.098C79.1558 111.512 80.5708 110.221 82.3099 110.221Z" fill="white"/>
<path opacity="0.8" d="M82.9312 123.074H79.1558V128.746H82.9312V123.074Z" fill="white"/>
<path opacity="0.8" d="M88.0042 123.074H84.2288V128.746H88.0042V123.074Z" fill="white"/>
<g opacity="0.8">
<path d="M88.0042 147.652V149.975H84.2288V144.776H84.8501C86.5892 144.776 88.0052 146.066 88.0052 147.652H88.0042Z" fill="white"/>
<path d="M88.0042 151.158H84.2288V156.447H88.0042V151.158Z" fill="white"/>
<path d="M82.9312 151.158H79.1558V156.447H82.9312V151.158Z" fill="white"/>
<path d="M82.3099 144.777H82.9312V149.976H79.1558V147.653C79.1558 146.068 80.5708 144.777 82.3099 144.777Z" fill="white"/>
<path d="M82.9312 157.63H79.1558V163.301H82.9312V157.63Z" fill="white"/>
<path d="M88.0042 157.63H84.2288V163.301H88.0042V157.63Z" fill="white"/>
</g>
<path d="M88.0042 182.208V184.531H84.2288V179.332H84.8501C86.5892 179.332 88.0052 180.622 88.0052 182.207L88.0042 182.208Z" fill="white"/>
<path d="M88.0042 185.714H84.2288V191.003H88.0042V185.714Z" fill="white"/>
<path d="M82.9312 185.714H79.1558V191.003H82.9312V185.714Z" fill="white"/>
<path d="M82.3099 179.333H82.9312V184.532H79.1558V182.209C79.1558 180.624 80.5708 179.334 82.3099 179.334V179.333Z" fill="white"/>
<path d="M82.9312 192.186H79.1558V197.857H82.9312V192.186Z" fill="white"/>
<path d="M88.0042 192.186H84.2288V197.857H88.0042V192.186Z" fill="white"/>
<path d="M120.917 188.145V191.407H115.614V184.105H116.486C118.929 184.105 120.916 185.917 120.916 188.144L120.917 188.145Z" fill="white"/>
<path d="M120.918 193.067H115.615V200.496H120.918V193.067Z" fill="white"/>
<path d="M113.793 193.067H108.49V200.496H113.793V193.067Z" fill="white"/>
<path d="M112.921 184.106H113.793V191.408H108.49V188.146C108.49 185.919 110.478 184.106 112.921 184.106Z" fill="white"/>
<path d="M113.793 202.157H108.49V210.122H113.793V202.157Z" fill="white"/>
<path d="M120.918 202.157H115.615V210.122H120.918V202.157Z" fill="white"/>
</g>
<path d="M90.3314 199.978H75.0046V201.677H90.3314V199.978Z" fill="#D6C3B4"/>
<path d="M126.146 211.486H105.223V213.184H126.146V211.486Z" fill="#D6C3B4"/>
<path d="M73.7155 63.8967H5.42896V212.145H73.7155V63.8967Z" fill="#D6C3B4"/>
<path opacity="0.7" d="M73.7155 63.8967H5.42896V212.145H73.7155V63.8967Z" fill="white"/>
<path opacity="0.2" d="M27.0497 63.8967H5.42896V212.145H27.0497V63.8967Z" fill="black"/>
<path opacity="0.2" d="M40.6716 67.1962H31.5161V83.9028H40.6716V67.1962Z" fill="black"/>
<path opacity="0.2" d="M54.9606 67.1962H45.8052V83.9028H54.9606V67.1962Z" fill="black"/>
<path opacity="0.2" d="M69.2504 67.1962H60.095V83.9028H69.2504V67.1962Z" fill="black"/>
<path opacity="0.2" d="M40.6716 87.33H31.5161V104.037H40.6716V87.33Z" fill="black"/>
<path opacity="0.2" d="M54.9606 87.33H45.8052V104.037H54.9606V87.33Z" fill="black"/>
<path opacity="0.2" d="M20.8178 67.1962H11.6624V83.9028H20.8178V67.1962Z" fill="black"/>
<path opacity="0.2" d="M20.8178 87.33H11.6624V104.037H20.8178V87.33Z" fill="black"/>
<path opacity="0.2" d="M69.2504 87.33H60.095V104.037H69.2504V87.33Z" fill="black"/>
<path opacity="0.2" d="M40.6716 117.169H31.5161V133.875H40.6716V117.169Z" fill="black"/>
<path opacity="0.2" d="M54.9606 117.169H45.8052V133.875H54.9606V117.169Z" fill="black"/>
<path opacity="0.2" d="M69.2504 117.169H60.095V133.875H69.2504V117.169Z" fill="black"/>
<path opacity="0.2" d="M40.6716 137.302H31.5161V154.008H40.6716V137.302Z" fill="black"/>
<path opacity="0.2" d="M54.9606 137.302H45.8052V154.008H54.9606V137.302Z" fill="black"/>
<path opacity="0.2" d="M20.8178 117.169H11.6624V133.875H20.8178V117.169Z" fill="black"/>
<path opacity="0.2" d="M20.8178 137.302H11.6624V154.008H20.8178V137.302Z" fill="black"/>
<path opacity="0.2" d="M69.2504 137.302H60.095V154.008H69.2504V137.302Z" fill="black"/>
<path d="M39.0028 138.668H33.186V152.642H39.0028V138.668Z" fill="#D6C3B4"/>
<path d="M53.2916 138.668H47.4749V152.642H53.2916V138.668Z" fill="#D6C3B4"/>
<path d="M19.1478 138.668H13.3311V152.642H19.1478V138.668Z" fill="#D6C3B4"/>
<path d="M67.5801 138.668H61.7634V152.642H67.5801V138.668Z" fill="#D6C3B4"/>
<path d="M22.4489 189.438H17.6616V191.624H22.4489V189.438Z" fill="#D6C3B4"/>
<path d="M27.0649 184.941H22.2776V187.128H27.0649V184.941Z" fill="#D6C3B4"/>
<path d="M36.7816 179.263H31.9944V181.45H36.7816V179.263Z" fill="#D6C3B4"/>
<path d="M41.3976 183.521H36.6104V185.707H41.3976V183.521Z" fill="#D6C3B4"/>
<path d="M41.3976 174.765H36.6104V176.952H41.3976V174.765Z" fill="#D6C3B4"/>
<path d="M43.7916 179.263H39.0044V181.45H43.7916V179.263Z" fill="#D6C3B4"/>
<path d="M53.849 170.664H49.0618V172.851H53.849V170.664Z" fill="#D6C3B4"/>
<path d="M58.4665 174.923H53.6792V177.11H58.4665V174.923Z" fill="#D6C3B4"/>
<path d="M58.4665 166.167H53.6792V168.354H58.4665V166.167Z" fill="#D6C3B4"/>
<path d="M60.8603 170.664H56.073V172.851H60.8603V170.664Z" fill="#D6C3B4"/>
<path d="M60.7194 180.195H55.9321V182.382H60.7194V180.195Z" fill="#D6C3B4"/>
<path d="M65.3354 184.453H60.5481V186.639H65.3354V184.453Z" fill="#D6C3B4"/>
<path d="M65.3354 175.697H60.5481V177.884H65.3354V175.697Z" fill="#D6C3B4"/>
<path d="M73.8817 171.024H69.0945V173.211H73.8817V171.024Z" fill="#D6C3B4"/>
<path d="M67.7291 180.195H62.9419V182.382H67.7291V180.195Z" fill="#D6C3B4"/>
<path d="M10.3019 171.638H5.51465V173.825H10.3019V171.638Z" fill="#D6C3B4"/>
<path d="M14.9194 175.896H10.1321V178.083H14.9194V175.896Z" fill="#D6C3B4"/>
<path d="M14.9194 167.14H10.1321V169.327H14.9194V167.14Z" fill="#D6C3B4"/>
<path d="M10.3019 201.491H5.51465V203.678H10.3019V201.491Z" fill="#D6C3B4"/>
<path d="M14.9194 205.749H10.1321V207.936H14.9194V205.749Z" fill="#D6C3B4"/>
<path d="M14.9194 196.993H10.1321V199.18H14.9194V196.993Z" fill="#D6C3B4"/>
<path d="M17.3129 171.638H12.5256V173.825H17.3129V171.638Z" fill="#D6C3B4"/>
<path d="M38.4882 167.414H33.7009V169.601H38.4882V167.414Z" fill="#D6C3B4"/>
<path d="M76.6302 61.0289H2.51685V64.3398H76.6302V61.0289Z" fill="#D6C3B4"/>
<path opacity="0.2" d="M76.6302 61.0289H2.51685V64.3398H76.6302V61.0289Z" fill="white"/>
<path d="M79.1473 57.718H0V61.0288H79.1473V57.718Z" fill="#D6C3B4"/>
<path opacity="0.4" d="M79.1473 57.718H0V61.0288H79.1473V57.718Z" fill="white"/>
<path opacity="0.2" d="M27.1504 61.0289H2.51685V64.3398H27.1504V61.0289Z" fill="black"/>
<path opacity="0.2" d="M27.1505 57.718H0V61.0288H27.1505V57.718Z" fill="black"/>
<path d="M76.6302 109.523H2.51685V112.834H76.6302V109.523Z" fill="#D6C3B4"/>
<path opacity="0.2" d="M76.6302 109.523H2.51685V112.834H76.6302V109.523Z" fill="white"/>
<path opacity="0.2" d="M27.1504 109.523H2.51685V112.834H27.1504V109.523Z" fill="black"/>
<path d="M76.6302 159.491H2.51685V162.802H76.6302V159.491Z" fill="#D6C3B4"/>
<path opacity="0.2" d="M76.6302 159.491H2.51685V162.802H76.6302V159.491Z" fill="white"/>
<path opacity="0.2" d="M27.1504 159.491H2.51685V162.802H27.1504V159.491Z" fill="black"/>
<path d="M76.6302 210.007H2.51685V213.318H76.6302V210.007Z" fill="#D6C3B4"/>
<path opacity="0.2" d="M76.6302 210.007H2.51685V213.318H76.6302V210.007Z" fill="white"/>
<path opacity="0.2" d="M27.1504 210.007H2.51685V213.318H27.1504V210.007Z" fill="black"/>
<path d="M39.0028 68.5621H33.186V82.5358H39.0028V68.5621Z" fill="#D6C3B4"/>
<path d="M53.2916 68.5621H47.4749V82.5358H53.2916V68.5621Z" fill="#D6C3B4"/>
<path d="M67.5801 68.5621H61.7634V82.5358H67.5801V68.5621Z" fill="#D6C3B4"/>
<path d="M39.0028 88.6959H33.186V102.67H39.0028V88.6959Z" fill="#D6C3B4"/>
<path d="M53.2916 88.6959H47.4749V102.67H53.2916V88.6959Z" fill="#D6C3B4"/>
<path d="M19.1478 68.5621H13.3311V82.5358H19.1478V68.5621Z" fill="#D6C3B4"/>
<path d="M19.1478 88.6959H13.3311V102.67H19.1478V88.6959Z" fill="#D6C3B4"/>
<path d="M67.5801 88.6959H61.7634V102.67H67.5801V88.6959Z" fill="#D6C3B4"/>
<path d="M39.0028 118.535H33.186V132.508H39.0028V118.535Z" fill="#D6C3B4"/>
<path d="M53.2916 118.535H47.4749V132.508H53.2916V118.535Z" fill="#D6C3B4"/>
<path d="M67.5801 118.535H61.7634V132.508H67.5801V118.535Z" fill="#D6C3B4"/>
<path d="M19.1478 118.535H13.3311V132.508H19.1478V118.535Z" fill="#D6C3B4"/>
<path d="M50.3835 192.021H38.9363V212.909H50.3835V192.021Z" fill="#D6C3B4"/>
<path opacity="0.2" d="M48.2967 193.73H41.0239V211.2H48.2967V193.73Z" fill="black"/>
<path d="M61.8307 192.021H50.3835V212.909H61.8307V192.021Z" fill="#D6C3B4"/>
<path opacity="0.2" d="M59.744 193.73H52.4712V211.2H59.744V193.73Z" fill="black"/>
<path d="M42.0762 83.9027H30.1118V85.0513H42.0762V83.9027Z" fill="#D6C3B4"/>
<path d="M56.3663 83.9027H44.4006V85.0513H56.3663V83.9027Z" fill="#D6C3B4"/>
<path d="M70.6549 83.9027H58.6904V85.0513H70.6549V83.9027Z" fill="#D6C3B4"/>
<path d="M42.0762 104.036H30.1118V105.184H42.0762V104.036Z" fill="#D6C3B4"/>
<path d="M22.2222 83.9027H10.2578V85.0513H22.2222V83.9027Z" fill="#D6C3B4"/>
<path d="M22.2222 104.036H10.2578V105.184H22.2222V104.036Z" fill="#D6C3B4"/>
<path d="M56.3663 104.036H44.4006V105.184H56.3663V104.036Z" fill="#D6C3B4"/>
<path d="M70.6549 104.036H58.6904V105.184H70.6549V104.036Z" fill="#D6C3B4"/>
<path d="M42.0762 133.875H30.1118V135.024H42.0762V133.875Z" fill="#D6C3B4"/>
<path d="M56.3663 133.875H44.4006V135.024H56.3663V133.875Z" fill="#D6C3B4"/>
<path d="M70.6549 133.875H58.6904V135.024H70.6549V133.875Z" fill="#D6C3B4"/>
<path d="M42.0762 154.008H30.1118V155.157H42.0762V154.008Z" fill="#D6C3B4"/>
<path d="M22.2222 133.875H10.2578V135.024H22.2222V133.875Z" fill="#D6C3B4"/>
<path d="M22.2222 154.008H10.2578V155.157H22.2222V154.008Z" fill="#D6C3B4"/>
<path d="M56.3663 154.008H44.4006V155.157H56.3663V154.008Z" fill="#D6C3B4"/>
<path d="M70.6549 154.008H58.6904V155.157H70.6549V154.008Z" fill="#D6C3B4"/>
<path d="M64.6724 190.872H36.8359V192.021H64.6724V190.872Z" fill="#D6C3B4"/>
</svg>
