<svg width="858" height="48" viewBox="0 0 858 48" fill="none" xmlns="http://www.w3.org/2000/svg">
<path d="M566.987 50C566.987 50 554.815 31.303 508.59 32.2832C462.365 33.2635 470.875 47.0386 447.144 40.6515C423.413 34.2644 417.939 2.34945 394.221 0.100028C370.502 -2.14939 369.341 34.3057 324.941 32.3348C280.54 30.364 280.463 -0.673856 236.05 10.1502C191.637 20.9742 187.375 39.176 152.097 40.6515C116.819 42.127 115.595 25.0913 90.0387 24.9984C64.4828 24.9056 0 50 0 50H567H566.987Z" fill="#69A97E"/>
<path d="M1074 48.6502C1074 48.6502 1060.06 33.0707 1022.01 33.7456C983.95 34.4205 977.509 41.5176 957.138 41.1837C936.767 40.8498 907.29 8 893.35 8C879.41 8 841.894 33.0636 813.474 33.0636C785.054 33.0636 781.85 12.3975 731.991 14.0954C682.132 15.7933 662.841 42.2138 630.137 42.2138C597.434 42.2138 580.818 27.9841 564.202 28.3251C547.586 28.6661 524 34.4205 524 34.4205L566.349 50L1073.99 48.6431L1074 48.6502Z" fill="#69A97E"/>
</svg>
