<svg width="897" height="97" viewBox="0 0 897 97" fill="none" xmlns="http://www.w3.org/2000/svg">
<path d="M1224.14 91.5465H1733.7C1733.7 91.5465 1768.85 91.5465 1765.81 82.361C1762.78 73.1754 1683.41 42.7193 1671.3 37.4067C1659.19 32.0941 1639.19 27.9373 1630.1 31.4655C1621.02 34.9937 1607.08 39.8298 1607.08 39.8298C1607.08 39.8298 1576.18 50.4651 1551.33 40.3164C1526.49 30.1678 1503.47 14.2097 1475.6 14.2097C1447.73 14.2097 1444.7 33.26 1416.22 31.4655C1387.75 29.671 1374.42 16.136 1341.09 14.2097C1307.76 12.2834 1328.37 48.0522 1300.49 48.5287C1272.61 49.0052 1262.93 39.8298 1238.68 40.793C1214.44 41.7561 1202.94 52.8781 1199.3 63.0268C1195.67 73.1754 1199.3 77.5249 1199.3 77.5249C1199.3 77.5249 1116.9 39.5256 1086 31.4554C1055.09 23.3851 1046.62 26.964 1027.84 31.4554C1009.05 35.9467 991.481 46.5821 954.517 39.8197C917.552 33.0573 878.174 2.60109 842.429 0.177981C806.685 -2.24513 805.465 20.8403 753.367 22.8376C701.269 24.8349 707.355 -1.05892 661.305 0.0867342C615.256 1.23239 634.608 43.4797 597.034 45.7608C597.034 45.7608 582.497 46.5922 561.887 41.7561C541.276 36.92 526.142 34.5071 509.178 39.8197C492.215 45.1323 463.129 63.9899 405.566 60.6037C348.004 57.2174 354.065 30.6341 306.808 29.1843C259.552 27.7345 277.125 51.7324 227.441 45.771C177.757 39.8095 182.611 26.7612 154.122 27.7345C125.634 28.7078 142 69.3127 98.3773 66.8896C54.7545 64.4664 66.267 55.7676 36.571 58.1907C6.87494 60.6138 -5.20931 101.705 2.05903 108.468C9.32737 115.23 42.0476 115.717 274.711 113.304C507.374 110.891 576.449 116.437 603.108 114.632C629.767 112.827 640.072 108.954 630.974 106.055C681.268 106.541 826.673 96.8692 970.273 100.255C1113.87 103.642 1250.54 110.343 1224.14 91.5566V91.5465Z" fill="#7BC095"/>
</svg>
