<svg width="473" height="367" viewBox="0 0 473 367" fill="none" xmlns="http://www.w3.org/2000/svg">
<path d="M75.5678 169.783C-25.1893 214.83 -25.1893 287.87 75.5678 332.926C176.325 377.981 339.69 377.981 440.436 332.926C541.183 287.87 541.193 214.83 440.436 169.783C339.679 124.735 176.314 124.743 75.5678 169.783Z" fill="#B0CDB9"/>
<path opacity="0.6" d="M75.5678 169.783C-25.1893 214.83 -25.1893 287.871 75.5678 332.926C176.325 377.981 339.69 377.981 440.436 332.926C541.183 287.871 541.193 214.83 440.436 169.783C339.679 124.735 176.314 124.743 75.5678 169.783Z" fill="white"/>
<path d="M264.407 307.168L216.295 287L119 327.697C135.925 335.063 153.859 341.132 172.513 345.806L264.407 307.168Z" fill="#FAFAFA"/>
<path d="M131.647 238.162V289.067L132.228 288.687V237.772L131.647 238.162Z" fill="#263238"/>
<path d="M130.857 237.639V288.554L131.646 289.067V238.162L130.857 237.639Z" fill="#37474F"/>
<path d="M130.857 237.639L131.646 238.162L132.227 237.772L131.438 237.259L130.857 237.639Z" fill="#455A64"/>
<path d="M134.651 242.146L127.481 237.444C127.218 237.269 127 237.444 127 237.752V251.818C127.011 252.006 127.06 252.19 127.143 252.353C127.227 252.517 127.342 252.657 127.481 252.762L134.651 257.444C134.914 257.608 135.132 257.444 135.132 257.126V243.08C135.122 242.893 135.074 242.71 134.99 242.548C134.907 242.385 134.79 242.248 134.651 242.146Z" fill="#3587F2"/>
<path opacity="0.2" d="M134.651 242.146L127.481 237.444C127.218 237.269 127 237.444 127 237.752V251.818C127.011 252.006 127.06 252.19 127.143 252.353C127.227 252.517 127.342 252.657 127.481 252.762L134.651 257.444C134.914 257.608 135.132 257.444 135.132 257.126V243.08C135.122 242.893 135.074 242.71 134.99 242.548C134.907 242.385 134.79 242.248 134.651 242.146Z" fill="white"/>
<path d="M127.635 238.388L134.333 242.762C134.422 242.839 134.481 242.954 134.496 243.08V256.427L127.79 252.084C127.7 252.007 127.641 251.892 127.626 251.766V238.419M127.417 237.998V251.817C127.426 251.922 127.455 252.023 127.502 252.113C127.549 252.204 127.613 252.282 127.69 252.341L134.705 256.931V243.08C134.698 242.976 134.671 242.876 134.625 242.785C134.58 242.695 134.517 242.617 134.442 242.556L127.427 237.967L127.417 237.998Z" fill="#FAFAFA"/>
<path d="M133.235 243.86C133.306 243.91 133.361 243.986 133.389 244.076C133.431 244.172 133.453 244.277 133.452 244.384V253.625C133.456 253.665 133.452 253.706 133.441 253.745C133.431 253.784 133.413 253.82 133.389 253.85C133.368 253.871 133.34 253.883 133.312 253.883C133.284 253.883 133.256 253.871 133.235 253.85L132.164 253.152C132.097 253.096 132.044 253.022 132.01 252.937C131.966 252.838 131.944 252.729 131.946 252.618V249.138L130.131 247.947V251.438C130.135 251.478 130.132 251.519 130.121 251.558C130.11 251.597 130.092 251.633 130.067 251.663C130.057 251.675 130.045 251.684 130.032 251.69C130.019 251.697 130.005 251.7 129.99 251.7C129.976 251.7 129.962 251.697 129.948 251.69C129.935 251.684 129.923 251.675 129.913 251.663L128.842 250.965C128.779 250.926 128.728 250.865 128.697 250.791C128.651 250.693 128.626 250.584 128.624 250.472V241.232C128.622 241.191 128.627 241.149 128.64 241.11C128.652 241.072 128.672 241.036 128.697 241.006C128.718 240.985 128.746 240.974 128.774 240.974C128.802 240.974 128.83 240.985 128.851 241.006L129.922 241.704C129.989 241.76 130.042 241.834 130.076 241.92C130.12 242.019 130.142 242.128 130.14 242.238V245.657L131.955 246.838V243.398C131.951 243.358 131.954 243.317 131.965 243.278C131.976 243.239 131.994 243.203 132.019 243.172C132.029 243.161 132.041 243.152 132.054 243.146C132.067 243.139 132.081 243.136 132.096 243.136C132.11 243.136 132.124 243.139 132.137 243.146C132.151 243.152 132.163 243.161 132.173 243.172L133.235 243.86Z" fill="#FAFAFA"/>
<path d="M426.353 157.914V208.808L425.772 208.439V157.513L426.353 157.914Z" fill="#263238"/>
<path d="M427.143 157.38V208.295L426.353 208.808V157.914L427.143 157.38Z" fill="#37474F"/>
<path d="M427.143 157.38L426.353 157.914L425.772 157.513L426.562 157L427.143 157.38Z" fill="#455A64"/>
<path d="M423.349 161.887L430.519 157.205C430.782 157.031 431 157.205 431 157.523V171.507C430.991 171.696 430.942 171.88 430.859 172.044C430.775 172.208 430.659 172.348 430.519 172.452L423.349 177.134C423.086 177.308 422.868 177.134 422.868 176.816V162.832C422.878 162.643 422.926 162.459 423.01 162.295C423.093 162.131 423.21 161.991 423.349 161.887Z" fill="#3587F2"/>
<path opacity="0.2" d="M423.349 161.887L430.519 157.205C430.782 157.031 431 157.205 431 157.523V171.507C430.991 171.696 430.942 171.88 430.859 172.044C430.775 172.208 430.659 172.348 430.519 172.452L423.349 177.134C423.086 177.308 422.868 177.134 422.868 176.816V162.832C422.878 162.643 422.926 162.459 423.01 162.295C423.093 162.131 423.21 161.991 423.349 161.887Z" fill="white"/>
<path d="M430.365 158.129V171.477C430.347 171.605 430.289 171.722 430.201 171.805L423.504 176.179V162.832C423.514 162.702 423.566 162.582 423.649 162.493L430.346 158.119M430.555 157.708L423.54 162.287C423.463 162.349 423.399 162.429 423.352 162.521C423.305 162.613 423.276 162.715 423.268 162.821V176.61L430.283 172.031C430.359 171.968 430.422 171.889 430.469 171.797C430.516 171.705 430.545 171.603 430.555 171.497V157.719V157.708Z" fill="#FAFAFA"/>
<path d="M425.809 162.904C425.831 162.884 425.858 162.874 425.886 162.874C425.914 162.874 425.941 162.884 425.963 162.904C425.987 162.934 426.005 162.97 426.016 163.009C426.027 163.048 426.03 163.089 426.027 163.129V166.6L427.842 165.419V161.99C427.842 161.88 427.864 161.771 427.905 161.671C427.94 161.586 427.993 161.512 428.06 161.456L429.13 160.758C429.194 160.758 429.248 160.758 429.285 160.758C429.311 160.787 429.33 160.823 429.343 160.862C429.355 160.901 429.36 160.942 429.357 160.984V170.224C429.357 170.335 429.332 170.445 429.285 170.542C429.256 170.632 429.202 170.708 429.13 170.758L428.06 171.456C428.037 171.475 428.01 171.486 427.982 171.486C427.955 171.486 427.927 171.475 427.905 171.456C427.881 171.426 427.863 171.39 427.852 171.351C427.841 171.312 427.838 171.271 427.842 171.23V167.626L426.027 168.807V172.298C426.027 172.405 426.005 172.51 425.963 172.606C425.929 172.692 425.876 172.766 425.809 172.822L424.738 173.52C424.728 173.531 424.716 173.54 424.703 173.547C424.689 173.553 424.675 173.556 424.661 173.556C424.646 173.556 424.632 173.553 424.619 173.547C424.606 173.54 424.594 173.531 424.584 173.52C424.56 173.489 424.542 173.453 424.531 173.414C424.52 173.375 424.517 173.334 424.52 173.294V164.053C424.52 163.947 424.541 163.841 424.584 163.745C424.615 163.658 424.669 163.583 424.738 163.53L425.809 162.904Z" fill="#FAFAFA"/>
<path d="M389.774 263.341L274.129 330.108V131.857L389.774 65.0898V263.341Z" fill="#F5F5F5"/>
<path d="M274.129 330.108L242.589 311.895V113.644L274.129 131.857V330.108Z" fill="#E6E6E6"/>
<path d="M242.589 299.759L216.307 284.584V86.3329L253.105 107.576L242.589 113.644V299.759Z" fill="#3587F2"/>
<path opacity="0.2" d="M242.589 299.759L216.307 284.584V86.3329L253.105 107.576L242.589 113.644V299.759Z" fill="black"/>
<path d="M216.307 284.584V261.51L242.589 276.685V299.759L216.307 284.584Z" fill="#3587F2"/>
<path d="M229.861 269.345V292.41L231.781 293.52V270.463L229.861 269.345Z" fill="black"/>
<path d="M216.306 86.3329L205.79 92.393V290.652L216.306 284.584V86.3329Z" fill="#E0E0E0"/>
<g style="mix-blend-mode:multiply" opacity="0.1">
<path d="M216.306 86.3329L205.79 92.393V290.652L216.306 284.584V86.3329Z" fill="black"/>
</g>
<g style="mix-blend-mode:multiply" opacity="0.3">
<path d="M205.79 261.526L216.306 273.152L242.589 288.368V282.761L205.79 261.526Z" fill="black"/>
</g>
<path d="M216.306 250.589L242.589 265.675V276.685L205.79 255.442L216.306 250.589Z" fill="#FAFAFA"/>
<path d="M205.79 255.442V261.526L242.589 282.761V276.685L205.79 255.442Z" fill="#E6E6E6"/>
<path d="M174.258 74.1964L289.822 7.38074L320.747 25.2533L310.255 31.3135L347.718 52.9453L358.234 46.8771L389.774 65.0899L274.129 131.857L242.589 113.644L253.105 107.576L216.306 86.3329L205.79 92.4011L174.258 74.1964Z" fill="#FAFAFA"/>
<path d="M289.822 13.5381L310.936 25.6341L300.379 31.7266L347.718 59.0216L358.234 52.9534L379.258 65.0899L274.129 125.497L253.105 113.644L263.613 107.576L215.399 80.7912L205.79 86.3328L184.766 74.1963L289.822 13.5381Z" fill="#EBEBEB"/>
<path d="M205.79 290.652L174.25 272.448V74.1963L205.79 92.401V290.652Z" fill="#E6E6E6"/>
<path d="M289.822 13.5381V19.5172L190.024 77.2264L184.766 74.1963L289.822 13.5381Z" fill="#E0E0E0"/>
<path d="M358.234 52.9535V59.0217L347.718 65.09V59.0217L358.234 52.9535Z" fill="#F5F5F5"/>
<path d="M263.613 107.576V113.644L258.42 116.65L253.105 113.644L263.613 107.576Z" fill="#F5F5F5"/>
<path d="M310.936 25.6341L289.822 13.5381V19.5172L305.588 28.7209L310.936 25.6341Z" fill="#E0E0E0"/>
<path d="M300.379 31.7267V37.7544L347.718 65.0899V59.0217L300.379 31.7267Z" fill="#E0E0E0"/>
<path d="M379.258 65.09L358.234 52.9535V59.0217L374 68.1201L379.258 65.09Z" fill="#E0E0E0"/>
<g style="mix-blend-mode:multiply" opacity="0.1">
<path d="M289.822 13.5381L286.33 21.5346L302.186 30.6815L310.936 25.6341L289.822 13.5381Z" fill="black"/>
</g>
<g style="mix-blend-mode:multiply" opacity="0.1">
<path d="M300.379 31.7267L296.887 39.7232L344.655 66.9858L347.718 65.0899V59.0217L300.379 31.7267Z" fill="black"/>
</g>
<g style="mix-blend-mode:multiply" opacity="0.1">
<path d="M358.145 52.9535L354.653 60.95L370.508 70.0888L379.258 65.09L358.145 52.9535Z" fill="black"/>
</g>
<path d="M224.74 238.266L228.791 240.608V105.599L224.74 103.258V238.266Z" fill="#3587F2"/>
<path d="M225.859 237.675L228.791 239.36V105.599L225.859 103.906V237.675Z" fill="#3587F2"/>
<path opacity="0.8" d="M225.859 237.675L228.791 239.36V105.599L225.859 103.906V237.675Z" fill="white"/>
<path opacity="0.4" d="M224.74 238.266L225.859 237.675V103.906L224.74 103.258V238.266Z" fill="black"/>
<path d="M232.842 242.933L236.901 245.274V110.265L232.842 107.924V242.933Z" fill="#3587F2"/>
<path d="M233.969 242.341L236.901 244.026V110.266L233.969 108.572V242.341Z" fill="#3587F2"/>
<path opacity="0.8" d="M233.969 242.341L236.901 244.026V110.266L233.969 108.572V242.341Z" fill="white"/>
<path opacity="0.4" d="M232.842 242.933L233.968 242.341V108.572L232.842 107.924V242.933Z" fill="black"/>
<g style="mix-blend-mode:multiply" opacity="0.15">
<path d="M242.589 265.675L226.32 256.333L216.307 261.51L242.589 276.685V265.675Z" fill="black"/>
</g>
<g style="mix-blend-mode:multiply" opacity="0.15">
<path d="M242.589 113.644L226.32 256.333L242.589 265.675V113.644Z" fill="black"/>
</g>
<path d="M169 240.267L174.258 243.305V237.27L169 234.199V240.267Z" fill="#3587F2"/>
<path d="M169 234.199L174.258 231.169V237.27L169 234.199Z" fill="#3587F2"/>
<path opacity="0.6" d="M169 234.199L174.258 231.169V237.27L169 234.199Z" fill="white"/>
<path d="M379.258 86.4949V104.7L358.234 116.844V98.6314L379.258 86.4949Z" fill="#37474F"/>
<path d="M379.258 86.4949L376.739 87.9451V103.031L379.258 104.7V86.4949Z" fill="#455A64"/>
<path d="M358.234 98.6394V115.402L378.1 103.938V87.1672L358.234 98.6394Z" fill="#3587F2"/>
<path opacity="0.8" d="M358.234 98.6394V115.402L378.1 103.938V87.1672L358.234 98.6394Z" fill="white"/>
<path d="M368.069 111.165V92.952L366.822 93.6812V110.444L368.069 111.165Z" fill="#37474F"/>
<path d="M368.07 111.165V92.9521L369.317 92.2391V110.444L368.07 111.165Z" fill="#455A64"/>
<path d="M379.258 104.7L381.324 105.907L360.292 118.043L358.234 116.844L379.258 104.7Z" fill="#3587F2"/>
<path opacity="0.6" d="M379.258 104.7L381.324 105.907L360.292 118.043L358.234 116.844L379.258 104.7Z" fill="white"/>
<path d="M360.292 120.717L358.234 119.51V116.844L360.292 118.043V120.717Z" fill="#3587F2"/>
<path d="M360.292 120.717L381.324 108.572V105.907L360.292 118.043V120.717Z" fill="#3587F2"/>
<path opacity="0.4" d="M360.292 120.717L381.324 108.572V105.907L360.292 118.043V120.717Z" fill="white"/>
<path d="M342.427 107.738V125.951L321.395 138.087V119.874L342.427 107.738Z" fill="#37474F"/>
<path d="M342.427 107.738L339.908 109.196V124.274L342.427 125.951V107.738Z" fill="#455A64"/>
<path d="M321.395 119.882V136.645L341.261 125.181V108.41L321.395 119.882Z" fill="#3587F2"/>
<path opacity="0.8" d="M321.395 119.882V136.645L341.261 125.181V108.41L321.395 119.882Z" fill="white"/>
<path d="M331.231 132.408V114.195L329.983 114.924V131.687L331.231 132.408Z" fill="#37474F"/>
<path d="M331.23 132.408V114.195L332.478 113.482V131.687L331.23 132.408Z" fill="#455A64"/>
<path d="M342.427 125.951L344.485 127.15L323.461 139.286L321.395 138.087L342.427 125.951Z" fill="#3587F2"/>
<path opacity="0.6" d="M342.427 125.951L344.485 127.15L323.461 139.286L321.395 138.087L342.427 125.951Z" fill="white"/>
<path d="M323.461 141.96L321.395 140.761V138.087L323.461 139.286V141.96Z" fill="#3587F2"/>
<path d="M323.461 141.96L344.485 129.815V127.15L323.461 139.286V141.96Z" fill="#3587F2"/>
<path opacity="0.4" d="M323.461 141.96L344.485 129.815V127.15L323.461 139.286V141.96Z" fill="white"/>
<path d="M305.588 128.981V147.194L284.564 159.33V141.125L305.588 128.981Z" fill="#37474F"/>
<path d="M305.588 128.981L303.069 130.439V145.517L305.588 147.194V128.981Z" fill="#455A64"/>
<path d="M284.564 141.125V157.888L304.43 146.424V129.653L284.564 141.125Z" fill="#3587F2"/>
<path opacity="0.8" d="M284.564 141.125V157.888L304.43 146.424V129.653L284.564 141.125Z" fill="white"/>
<path d="M294.4 153.651V135.446L293.152 136.167V152.93L294.4 153.651Z" fill="#37474F"/>
<path d="M294.4 153.651V135.446L295.648 134.725V152.93L294.4 153.651Z" fill="#455A64"/>
<path d="M305.588 147.194L307.654 148.393L286.622 160.529L284.564 159.33L305.588 147.194Z" fill="#3587F2"/>
<path opacity="0.6" d="M305.588 147.194L307.654 148.393L286.622 160.529L284.564 159.33L305.588 147.194Z" fill="white"/>
<path d="M286.622 163.203L284.564 162.004V159.33L286.622 160.529V163.203Z" fill="#3587F2"/>
<path d="M286.622 163.203L307.654 151.066V148.393L286.622 160.529V163.203Z" fill="#3587F2"/>
<path opacity="0.4" d="M286.622 163.203L307.654 151.066V148.393L286.622 160.529V163.203Z" fill="white"/>
<path d="M379.258 122.912V141.125L358.234 153.262V135.049L379.258 122.912Z" fill="#37474F"/>
<path d="M379.258 122.912L376.739 124.371V139.448L379.258 141.125V122.912Z" fill="#455A64"/>
<path d="M358.234 135.057V151.82L378.1 140.356V123.585L358.234 135.057Z" fill="#3587F2"/>
<path opacity="0.8" d="M358.234 135.057V151.82L378.1 140.356V123.585L358.234 135.057Z" fill="white"/>
<path d="M368.069 147.582V129.378L366.822 130.099V146.861L368.069 147.582Z" fill="#37474F"/>
<path d="M368.07 147.582V129.378L369.317 128.657V146.861L368.07 147.582Z" fill="#455A64"/>
<path d="M379.258 141.125L381.324 142.324L360.292 154.461L358.234 153.262L379.258 141.125Z" fill="#3587F2"/>
<path opacity="0.6" d="M379.258 141.125L381.324 142.324L360.292 154.461L358.234 153.262L379.258 141.125Z" fill="white"/>
<path d="M360.292 157.135L358.234 155.936V153.262L360.292 154.461V157.135Z" fill="#3587F2"/>
<path d="M360.292 157.135L381.324 144.99V142.325L360.292 154.461V157.135Z" fill="#3587F2"/>
<path opacity="0.4" d="M360.292 157.135L381.324 144.99V142.325L360.292 154.461V157.135Z" fill="white"/>
<path d="M342.427 144.156V162.368L321.395 174.505V156.3L342.427 144.156Z" fill="#37474F"/>
<path d="M342.427 144.156L339.908 145.614V160.691L342.427 162.368V144.156Z" fill="#455A64"/>
<path d="M321.395 156.3V173.063L341.261 161.599V144.828L321.395 156.3Z" fill="#3587F2"/>
<path opacity="0.8" d="M321.395 156.3V173.063L341.261 161.599V144.828L321.395 156.3Z" fill="white"/>
<path d="M331.231 168.825V150.621L329.983 151.342V168.104L331.231 168.825Z" fill="#37474F"/>
<path d="M331.23 168.825V150.621L332.478 149.9V168.104L331.23 168.825Z" fill="#455A64"/>
<path d="M342.427 162.368L344.485 163.567L323.461 175.704L321.395 174.505L342.427 162.368Z" fill="#3587F2"/>
<path opacity="0.6" d="M342.427 162.368L344.485 163.567L323.461 175.704L321.395 174.505L342.427 162.368Z" fill="white"/>
<path d="M323.461 178.378L321.395 177.178V174.505L323.461 175.704V178.378Z" fill="#3587F2"/>
<path d="M323.461 178.378L344.485 166.241V163.568L323.461 175.704V178.378Z" fill="#3587F2"/>
<path opacity="0.4" d="M323.461 178.378L344.485 166.241V163.568L323.461 175.704V178.378Z" fill="white"/>
<path d="M305.588 165.398V183.611L284.564 195.748V177.543L305.588 165.398Z" fill="#37474F"/>
<path d="M305.588 165.399L303.069 166.857V181.934L305.588 183.611V165.399Z" fill="#455A64"/>
<path d="M284.564 177.543V194.306L304.43 182.842V166.071L284.564 177.543Z" fill="#3587F2"/>
<path opacity="0.8" d="M284.564 177.543V194.306L304.43 182.842V166.071L284.564 177.543Z" fill="white"/>
<path d="M294.4 190.069V171.864L293.152 172.585V189.347L294.4 190.069Z" fill="#37474F"/>
<path d="M294.4 190.068V171.864L295.648 171.143V189.347L294.4 190.068Z" fill="#455A64"/>
<path d="M305.588 183.611L307.654 184.81L286.622 196.947L284.564 195.748L305.588 183.611Z" fill="#3587F2"/>
<path opacity="0.6" d="M305.588 183.611L307.654 184.81L286.622 196.947L284.564 195.748L305.588 183.611Z" fill="white"/>
<path d="M286.622 199.62L284.564 198.421V195.748L286.622 196.947V199.62Z" fill="#3587F2"/>
<path d="M286.622 199.62L307.654 187.484V184.81L286.622 196.947V199.62Z" fill="#3587F2"/>
<path opacity="0.4" d="M286.622 199.62L307.654 187.484V184.81L286.622 196.947V199.62Z" fill="white"/>
<path d="M379.258 159.33V177.543L358.234 189.68V171.475L379.258 159.33Z" fill="#37474F"/>
<path d="M379.258 159.33L376.739 160.789V175.866L379.258 177.543V159.33Z" fill="#455A64"/>
<path d="M358.234 171.475V188.237L378.1 176.773V160.003L358.234 171.475Z" fill="#3587F2"/>
<path opacity="0.8" d="M358.234 171.475V188.237L378.1 176.773V160.003L358.234 171.475Z" fill="white"/>
<path d="M368.069 184V165.795L366.822 166.516V183.279L368.069 184Z" fill="#37474F"/>
<path d="M368.07 184V165.795L369.317 165.074V183.279L368.07 184Z" fill="#455A64"/>
<path d="M379.258 177.543L381.324 178.742L360.292 190.879L358.234 189.68L379.258 177.543Z" fill="#3587F2"/>
<path opacity="0.6" d="M379.258 177.543L381.324 178.742L360.292 190.879L358.234 189.68L379.258 177.543Z" fill="white"/>
<path d="M360.292 193.552L358.234 192.353V189.68L360.292 190.879V193.552Z" fill="#3587F2"/>
<path d="M360.292 193.552L381.324 181.416V178.742L360.292 190.879V193.552Z" fill="#3587F2"/>
<path opacity="0.4" d="M360.292 193.552L381.324 181.416V178.742L360.292 190.879V193.552Z" fill="white"/>
<path d="M342.427 180.573V198.786L321.395 210.922V192.718L342.427 180.573Z" fill="#37474F"/>
<path d="M342.427 180.573L339.908 182.031V197.109L342.427 198.786V180.573Z" fill="#455A64"/>
<path d="M321.395 192.718V209.48L341.261 198.016V181.245L321.395 192.718Z" fill="#3587F2"/>
<path opacity="0.8" d="M321.395 192.718V209.48L341.261 198.016V181.245L321.395 192.718Z" fill="white"/>
<path d="M331.231 205.243V187.038L329.983 187.759V204.53L331.231 205.243Z" fill="#37474F"/>
<path d="M331.23 205.243V187.038L332.478 186.317V204.53L331.23 205.243Z" fill="#455A64"/>
<path d="M342.427 198.786L344.485 199.985L323.461 212.122L321.395 210.923L342.427 198.786Z" fill="#3587F2"/>
<path opacity="0.6" d="M342.427 198.786L344.485 199.985L323.461 212.122L321.395 210.923L342.427 198.786Z" fill="white"/>
<path d="M323.461 214.795L321.395 213.596V210.922L323.461 212.122V214.795Z" fill="#3587F2"/>
<path d="M323.461 214.795L344.485 202.659V199.985L323.461 212.122V214.795Z" fill="#3587F2"/>
<path opacity="0.4" d="M323.461 214.795L344.485 202.659V199.985L323.461 212.122V214.795Z" fill="white"/>
<path d="M305.588 201.824V220.029L284.564 232.174V213.961L305.588 201.824Z" fill="#37474F"/>
<path d="M305.588 201.824L303.069 203.274V218.352L305.588 220.029V201.824Z" fill="#455A64"/>
<path d="M284.564 213.961V230.723L304.43 219.259V202.489L284.564 213.961Z" fill="#3587F2"/>
<path opacity="0.8" d="M284.564 213.961V230.723L304.43 219.259V202.489L284.564 213.961Z" fill="white"/>
<path d="M294.4 226.494V208.281L293.152 209.002V225.773L294.4 226.494Z" fill="#37474F"/>
<path d="M294.4 226.494V208.281L295.648 207.56V225.773L294.4 226.494Z" fill="#455A64"/>
<path d="M305.588 220.029L307.654 221.228L286.622 233.373L284.564 232.174L305.588 220.029Z" fill="#3587F2"/>
<path opacity="0.6" d="M305.588 220.029L307.654 221.228L286.622 233.373L284.564 232.174L305.588 220.029Z" fill="white"/>
<path d="M286.622 236.038L284.564 234.839V232.174L286.622 233.373V236.038Z" fill="#3587F2"/>
<path d="M286.622 236.038L307.654 223.902V221.228L286.622 233.373V236.038Z" fill="#3587F2"/>
<path opacity="0.4" d="M286.622 236.038L307.654 223.902V221.228L286.622 233.373V236.038Z" fill="white"/>
<path d="M379.258 195.756V213.961L358.234 226.097V207.892L379.258 195.756Z" fill="#37474F"/>
<path d="M379.258 195.756L376.739 197.206V212.284L379.258 213.961V195.756Z" fill="#455A64"/>
<path d="M358.234 207.892V224.655L378.1 213.191V196.42L358.234 207.892Z" fill="#3587F2"/>
<path opacity="0.8" d="M358.234 207.892V224.655L378.1 213.191V196.42L358.234 207.892Z" fill="white"/>
<path d="M368.069 220.418V202.213L366.822 202.934V219.705L368.069 220.418Z" fill="#37474F"/>
<path d="M368.07 220.418V202.213L369.317 201.492V219.705L368.07 220.418Z" fill="#455A64"/>
<path d="M379.258 213.961L381.324 215.16L360.292 227.304L358.234 226.097L379.258 213.961Z" fill="#3587F2"/>
<path opacity="0.6" d="M379.258 213.961L381.324 215.16L360.292 227.304L358.234 226.097L379.258 213.961Z" fill="white"/>
<path d="M360.292 229.97L358.234 228.771V226.097L360.292 227.304V229.97Z" fill="#3587F2"/>
<path d="M360.292 229.97L381.324 217.833V215.16L360.292 227.305V229.97Z" fill="#3587F2"/>
<path opacity="0.4" d="M360.292 229.97L381.324 217.833V215.16L360.292 227.305V229.97Z" fill="white"/>
<path d="M342.427 216.999V235.204L321.395 247.348V229.135L342.427 216.999Z" fill="#37474F"/>
<path d="M342.427 216.999L339.908 218.449V233.535L342.427 235.204V216.999Z" fill="#455A64"/>
<path d="M321.395 229.135V245.898L341.261 234.442V217.663L321.395 229.135Z" fill="#3587F2"/>
<path opacity="0.8" d="M321.395 229.135V245.898L341.261 234.442V217.663L321.395 229.135Z" fill="white"/>
<path d="M331.231 241.669V223.456L329.983 224.177V240.948L331.231 241.669Z" fill="#37474F"/>
<path d="M331.23 241.669V223.456L332.478 222.735V240.948L331.23 241.669Z" fill="#455A64"/>
<path d="M342.427 235.204L344.485 236.403L323.461 248.547L321.395 247.348L342.427 235.204Z" fill="#3587F2"/>
<path opacity="0.6" d="M342.427 235.204L344.485 236.403L323.461 248.547L321.395 247.348L342.427 235.204Z" fill="white"/>
<path d="M323.461 251.213L321.395 250.014V247.348L323.461 248.547V251.213Z" fill="#3587F2"/>
<path d="M323.461 251.213L344.485 239.076V236.403L323.461 248.547V251.213Z" fill="#3587F2"/>
<path opacity="0.4" d="M323.461 251.213L344.485 239.076V236.403L323.461 248.547V251.213Z" fill="white"/>
<path d="M305.588 238.242V256.447L284.564 268.591V250.378L305.588 238.242Z" fill="#37474F"/>
<path d="M305.588 238.242L303.069 239.692V254.778L305.588 256.447V238.242Z" fill="#455A64"/>
<path d="M284.564 250.387V267.149L304.43 255.685V238.914L284.564 250.387Z" fill="#3587F2"/>
<path opacity="0.8" d="M284.564 250.387V267.149L304.43 255.685V238.914L284.564 250.387Z" fill="white"/>
<path d="M294.4 262.912V244.699L293.152 245.42V262.191L294.4 262.912Z" fill="#37474F"/>
<path d="M294.4 262.912V244.699L295.648 243.986V262.191L294.4 262.912Z" fill="#455A64"/>
<path d="M305.588 256.447L307.654 257.646L286.622 269.79L284.564 268.591L305.588 256.447Z" fill="#3587F2"/>
<path opacity="0.6" d="M305.588 256.447L307.654 257.646L286.622 269.79L284.564 268.591L305.588 256.447Z" fill="white"/>
<path d="M286.622 272.464L284.564 271.257V268.591L286.622 269.79V272.464Z" fill="#3587F2"/>
<path d="M286.622 272.464L307.654 260.319V257.646L286.622 269.79V272.464Z" fill="#3587F2"/>
<path opacity="0.4" d="M286.622 272.464L307.654 260.319V257.646L286.622 269.79V272.464Z" fill="white"/>
<path d="M254.134 258.942V268.299L262.236 272.974V263.617L254.134 258.942Z" fill="#455A64"/>
<path d="M254.134 244.902V254.259L262.236 258.942V249.584L254.134 244.902Z" fill="#455A64"/>
<path d="M254.134 222.532V231.89L262.236 236.573V227.215L254.134 222.532Z" fill="#455A64"/>
<path d="M254.134 208.492V217.858L262.236 222.532V213.175L254.134 208.492Z" fill="#455A64"/>
<path d="M254.134 186.107V195.464L262.236 200.139V190.781L254.134 186.107Z" fill="#455A64"/>
<path d="M254.134 172.066V181.424L262.236 186.107V176.749L254.134 172.066Z" fill="#455A64"/>
<path d="M254.134 149.681V159.047L262.236 163.721V154.364L254.134 149.681Z" fill="#455A64"/>
<path d="M254.134 135.648V145.006L262.236 149.681V140.323L254.134 135.648Z" fill="#455A64"/>
<path d="M256.127 180.103L262.236 183.628V176.749L256.127 173.217V180.103Z" fill="#3587F2"/>
<path d="M256.127 194.136L262.236 197.668V190.781L256.127 187.257V194.136Z" fill="#3587F2"/>
<path d="M256.127 157.718L262.236 161.242V154.364L256.127 150.839V157.718Z" fill="#3587F2"/>
<path d="M256.127 143.678L262.236 147.21V140.323L256.127 136.799V143.678Z" fill="#3587F2"/>
<path d="M256.127 230.569L262.236 234.094V227.215L256.127 223.683V230.569Z" fill="#3587F2"/>
<path d="M256.127 216.529L262.236 220.053V213.175L256.127 209.651V216.529Z" fill="#3587F2"/>
<path d="M256.127 266.971L262.236 270.503V263.617L256.127 260.092V266.971Z" fill="#3587F2"/>
<path d="M256.127 252.938L262.236 256.463V249.584L256.127 246.052V252.938Z" fill="#3587F2"/>
<path d="M254.134 135.648L256.127 136.799V143.677L254.134 145.006V135.648Z" fill="#37474F"/>
<path d="M254.134 149.681L256.127 150.839V157.718L254.134 159.047V149.681Z" fill="#37474F"/>
<path d="M254.134 172.066L256.127 173.217V180.103L254.134 181.424V172.066Z" fill="#37474F"/>
<path d="M254.134 186.107L256.127 187.257V194.135L254.134 195.464V186.107Z" fill="#37474F"/>
<path d="M254.134 208.492L256.127 209.65V216.529L254.134 217.858V208.492Z" fill="#37474F"/>
<path d="M254.134 222.532L256.127 223.683V230.569L254.134 231.89V222.532Z" fill="#37474F"/>
<path d="M254.134 244.902L256.127 246.052V252.939L254.134 254.259V244.902Z" fill="#37474F"/>
<path d="M254.134 258.942L256.127 260.092V266.971L254.134 268.299V258.942Z" fill="#37474F"/>
<path d="M185.795 219.486V228.844L193.905 233.527V224.169L185.795 219.486Z" fill="#455A64"/>
<path d="M185.795 205.446V214.803L193.905 219.486V210.129L185.795 205.446Z" fill="#455A64"/>
<path d="M185.795 183.077V192.434L193.905 197.117V187.759L185.795 183.077Z" fill="#455A64"/>
<path d="M185.795 169.044V178.402L193.905 183.077V173.719L185.795 169.044Z" fill="#455A64"/>
<path d="M185.795 146.651V156.008L193.905 160.691V151.334L185.795 146.651Z" fill="#455A64"/>
<path d="M185.795 132.61V141.968L193.905 146.651V137.293L185.795 132.61Z" fill="#455A64"/>
<path d="M185.795 110.233V119.591L193.905 124.266V114.908L185.795 110.233Z" fill="#455A64"/>
<path d="M185.795 96.1927V105.55L193.905 110.233V100.876L185.795 96.1927Z" fill="#455A64"/>
<path d="M187.796 140.647L193.905 144.172V137.293L187.796 133.761V140.647Z" fill="#3587F2"/>
<path d="M187.796 154.688L193.905 158.212V151.334L187.796 147.801V154.688Z" fill="#3587F2"/>
<path d="M187.796 118.262L193.905 121.786V114.908L187.796 111.384V118.262Z" fill="#3587F2"/>
<path d="M187.796 104.222L193.905 107.754V100.876L187.796 97.3433V104.222Z" fill="#3587F2"/>
<path d="M187.796 191.114L193.905 194.638V187.759L187.796 184.227V191.114Z" fill="#3587F2"/>
<path d="M187.796 177.073L193.905 180.597V173.719L187.796 170.195V177.073Z" fill="#3587F2"/>
<path d="M187.796 227.515L193.905 231.048V224.169L187.796 220.637V227.515Z" fill="#3587F2"/>
<path d="M187.796 213.483L193.905 217.007V210.129L187.796 206.596V213.483Z" fill="#3587F2"/>
<path d="M185.795 96.1927L187.796 97.3432V104.222L185.795 105.55V96.1927Z" fill="#37474F"/>
<path d="M185.795 110.233L187.796 111.384V118.262L185.795 119.591V110.233Z" fill="#37474F"/>
<path d="M185.795 132.61L187.796 133.761V140.647L185.795 141.968V132.61Z" fill="#37474F"/>
<path d="M185.795 146.651L187.796 147.801V154.688L185.795 156.008V146.651Z" fill="#37474F"/>
<path d="M185.795 169.044L187.796 170.195V177.073L185.795 178.402V169.044Z" fill="#37474F"/>
<path d="M185.795 183.077L187.796 184.227V191.114L185.795 192.434V183.077Z" fill="#37474F"/>
<path d="M185.795 205.446L187.796 206.596V213.483L185.795 214.803V205.446Z" fill="#37474F"/>
<path d="M185.795 219.486L187.796 220.637V227.515L185.795 228.844V219.486Z" fill="#37474F"/>
<g style="mix-blend-mode:multiply" opacity="0.15">
<path d="M389.774 239.903L279.363 303.988L274.129 300.966V313.103L389.774 247.672V239.903Z" fill="black"/>
</g>
<path d="M367.827 246.887V271.937L368.774 271.386V246.344L367.827 246.887ZM356.33 278.548L357.278 277.998V252.955L356.33 253.506V278.548ZM344.866 285.16L345.814 284.617V259.566L344.866 260.117V285.16ZM318.09 300.634L319.037 300.091V275.065L318.081 275.616L318.09 300.634ZM306.617 307.253L307.573 306.702V281.66L306.617 282.21V307.253ZM295.153 313.864L296.109 313.313V288.271L295.153 288.822V313.864Z" fill="#455A64"/>
<path d="M295.153 301.209L296.109 300.666V294.266L295.153 294.817V301.209Z" fill="#37474F"/>
<path d="M319.038 280.955L318.09 281.514V288.23L319.038 287.695V280.955Z" fill="#37474F"/>
<path d="M307.573 287.614L306.617 288.165V294.72L307.573 294.185V287.614Z" fill="#37474F"/>
<path d="M368.742 252.104L367.794 252.655V260.109L368.742 259.566V252.104Z" fill="#37474F"/>
<path d="M357.278 258.764L356.33 259.315V266.598L357.278 266.055V258.764Z" fill="#37474F"/>
<path d="M345.814 265.415L344.866 265.966V273.08L345.814 272.545V265.415Z" fill="#37474F"/>
<path d="M389.774 263.341V259.242L274.129 326.009V330.108L389.774 263.341Z" fill="#455A64"/>
<path d="M379.258 240.267L368.742 246.344V271.386L379.258 265.318V240.267Z" fill="#3587F2"/>
<path d="M367.794 246.886L357.278 252.963V278.005L367.794 271.937V246.886Z" fill="#3587F2"/>
<path d="M356.33 253.514L345.814 259.582V284.625L356.33 278.556V253.514Z" fill="#3587F2"/>
<path d="M344.858 260.133L334.35 266.201V291.244L344.858 285.176V260.133Z" fill="#3587F2"/>
<path d="M329.554 268.972L319.037 275.04V300.083L329.554 294.015V268.972Z" fill="#3587F2"/>
<path d="M318.09 275.591L307.573 281.66V306.71L318.09 300.634V275.591Z" fill="#3587F2"/>
<path d="M306.617 282.21L296.109 288.279V313.33L306.617 307.261V282.21Z" fill="#3587F2"/>
<path d="M295.153 288.83L284.637 294.906V319.949L295.153 313.88V288.83Z" fill="#3587F2"/>
<path opacity="0.8" d="M379.258 240.267L368.726 246.344V271.386L379.258 265.318V240.267ZM357.294 252.963V278.006L367.827 271.937V246.887L357.294 252.963ZM345.83 259.582V284.625L356.363 278.556V253.514L345.83 259.582ZM334.366 266.201V291.268L344.898 285.2V260.133L334.366 266.201ZM319.037 275.065V300.107L329.57 294.039V268.972L319.037 275.065ZM307.573 281.684V306.735L318.106 300.658V275.591L307.573 281.684ZM296.109 288.303V313.354L306.642 307.277V282.21L296.109 288.303ZM284.637 294.93V319.949L295.17 313.88V288.838L284.637 294.93Z" fill="white"/>
<path opacity="0.3" d="M297.049 287.736L296.109 289.704V295.416L300.824 285.597L297.049 287.736ZM306.617 307.253V304.652L304.9 308.282L306.617 307.253ZM306.617 284.398L296.085 306.354V313.329L297.551 312.479L306.593 293.593L306.617 284.398ZM308.067 281.376L307.573 282.405V291.6L314.152 277.827L308.067 281.376ZM291.491 315.987L295.153 313.88V308.347L291.491 315.987ZM295.153 291.681L284.621 313.637V319.349L295.153 297.393V291.681ZM321.468 273.622L319.037 278.694V284.414L325.243 271.451L321.468 273.622ZM348.285 258.14L345.814 263.301V269.012L352.06 255.952L348.285 258.14ZM359.303 251.772L357.278 256.001V265.196L365.38 248.264L359.303 251.772ZM334.35 266.793V272.569L336.408 268.267L334.35 266.793ZM372.688 244.051L368.726 252.323V258.051L376.463 241.847L372.688 244.051ZM356.314 258.002L345.781 279.966V284.625L348.779 282.891L356.298 267.198L356.314 258.002ZM356.314 278.556V278.305L356.119 278.702L356.314 278.556ZM367.826 254.316L357.294 276.28V278.005L359.927 276.482L367.826 260.028V254.316ZM367.826 271.937V271.014L367.186 272.342L367.826 271.937ZM318.081 280.736L307.549 302.7V306.751L308.651 306.111L318.089 286.407L318.081 280.736ZM379.258 247.057L368.726 269.012V271.443L373.222 268.85L379.242 256.268L379.258 247.057ZM318.089 300.666V297.425L315.918 301.954L318.089 300.666ZM319.037 295.408V300.115L322.003 298.406L329.553 282.64V273.444L319.037 295.408ZM344.858 265.342L334.325 287.306V291.268L335.468 290.612L344.858 271.014V265.342ZM344.858 285.216V281.975L342.711 286.407L344.858 285.216Z" fill="white"/>
<path d="M274.129 300.99L279.363 304.012V297.993L274.129 294.922V300.99Z" fill="#3587F2"/>
<path d="M279.363 303.988L394.692 237.043V231.355L279.363 297.968V303.988Z" fill="#3587F2"/>
<path opacity="0.4" d="M279.363 303.988L394.692 237.043V231.355L279.363 297.968V303.988Z" fill="white"/>
<path d="M274.129 294.898L279.363 297.968L394.692 231.355L389.774 228.106L274.129 294.898Z" fill="#3587F2"/>
<path opacity="0.6" d="M274.129 294.898L279.363 297.968L394.692 231.355L389.774 228.106L274.129 294.898Z" fill="white"/>
<g style="mix-blend-mode:multiply" opacity="0.35">
<path opacity="0.8" d="M318.09 281.514L307.573 287.614V294.185L318.09 288.23V281.514Z" fill="#3587F2"/>
<path opacity="0.8" d="M329.554 274.854L319.037 280.955V287.695L329.554 281.749V274.854Z" fill="#3587F2"/>
<path opacity="0.8" d="M284.637 307.156L295.153 301.209V294.817L284.637 300.926V307.156Z" fill="#3587F2"/>
<path opacity="0.8" d="M306.617 288.165L296.109 294.266V300.666L306.617 294.72V288.165Z" fill="#3587F2"/>
<path opacity="0.8" d="M344.858 265.966L334.35 272.075V279.035L344.858 273.08V265.966Z" fill="#3587F2"/>
<path opacity="0.8" d="M367.794 252.655L357.278 258.764V266.055L367.794 260.109V252.655Z" fill="#3587F2"/>
<path opacity="0.8" d="M379.258 246.003L368.742 252.104V259.566L379.258 253.619V246.003Z" fill="#3587F2"/>
<path opacity="0.8" d="M356.33 259.315L345.814 265.415V272.545L356.33 266.598V259.315Z" fill="#3587F2"/>
</g>
<path d="M355.204 237.448L303.822 267.109C303.458 267.347 303.154 267.667 302.936 268.045C302.717 268.422 302.591 268.845 302.567 269.28V278.808C302.592 279.241 302.72 279.663 302.939 280.037C303.159 280.412 303.464 280.729 303.831 280.963L303.92 281.019C304.31 281.214 304.74 281.315 305.175 281.315C305.611 281.315 306.041 281.214 306.431 281.019L357.853 251.359C358.216 251.119 358.517 250.798 358.734 250.421C358.951 250.044 359.076 249.621 359.101 249.187V239.643C359.077 239.21 358.951 238.789 358.733 238.415C358.514 238.04 358.21 237.723 357.845 237.488L357.748 237.432C357.352 237.235 356.916 237.134 356.474 237.137C356.032 237.139 355.597 237.246 355.204 237.448Z" fill="#F0F0F0"/>
<path d="M306.399 281.003C306.008 281.195 305.578 281.295 305.143 281.295C304.708 281.295 304.278 281.195 303.887 281.003L303.798 280.946C303.431 280.714 303.125 280.397 302.905 280.022C302.685 279.647 302.558 279.225 302.534 278.791V269.28C302.552 268.826 302.689 268.384 302.931 268L305.516 269.523C305.29 269.895 305.165 270.319 305.151 270.754V280.282C305.151 281.011 305.661 281.433 306.399 281.003Z" fill="#E0E0E0"/>
<path d="M357.821 238.922L306.399 268.583C306.035 268.82 305.733 269.14 305.516 269.516C305.3 269.891 305.174 270.313 305.151 270.746V280.274C305.151 281.084 305.71 281.392 306.399 280.995L357.821 251.334C358.183 251.094 358.485 250.773 358.701 250.396C358.918 250.019 359.044 249.597 359.068 249.163V239.643C359.068 238.849 358.509 238.525 357.821 238.922Z" fill="#FAFAFA"/>
<path d="M358.38 239.109C358.671 239.109 358.712 239.441 358.712 239.644V249.139C358.688 249.511 358.58 249.872 358.394 250.195C358.209 250.518 357.952 250.794 357.642 251.002L306.253 280.736C306.139 280.81 306.008 280.855 305.872 280.866C305.58 280.866 305.532 280.525 305.532 280.323V270.754C305.556 270.382 305.666 270.02 305.853 269.697C306.04 269.374 306.299 269.098 306.609 268.891L358.023 239.23C358.14 239.157 358.274 239.116 358.412 239.109M358.412 238.752C358.214 238.759 358.021 238.818 357.853 238.922L306.399 268.583C306.035 268.82 305.733 269.14 305.516 269.516C305.3 269.892 305.174 270.313 305.151 270.746V280.274C305.151 280.841 305.434 281.165 305.84 281.165C306.038 281.161 306.231 281.102 306.399 280.995L357.821 251.334C358.183 251.094 358.485 250.773 358.701 250.396C358.918 250.019 359.044 249.597 359.068 249.163V239.644C359.068 239.076 358.785 238.752 358.38 238.752H358.412Z" fill="#F0F0F0"/>
<path d="M324.215 266.501L321.962 267.773V266.704L324.004 265.521C324.063 265.483 324.111 265.43 324.142 265.367C324.174 265.301 324.194 265.229 324.198 265.156V264.143C324.201 264.116 324.197 264.089 324.187 264.064C324.177 264.039 324.162 264.016 324.142 263.998C324.122 263.982 324.098 263.974 324.073 263.974C324.048 263.974 324.024 263.982 324.004 263.998L321.962 265.18V264.151L324.158 262.912C324.217 262.875 324.265 262.821 324.296 262.758C324.333 262.691 324.353 262.616 324.352 262.539V261.535C324.356 261.506 324.353 261.478 324.343 261.451C324.333 261.424 324.317 261.4 324.296 261.381C324.275 261.367 324.251 261.359 324.227 261.359C324.202 261.359 324.178 261.367 324.158 261.381L320.836 263.309C320.778 263.348 320.731 263.401 320.698 263.463C320.665 263.531 320.645 263.606 320.642 263.682V269.839C320.641 269.866 320.646 269.893 320.655 269.918C320.665 269.943 320.68 269.965 320.698 269.985C320.719 269.999 320.743 270.006 320.767 270.006C320.792 270.006 320.816 269.999 320.836 269.985L324.223 268.024C324.284 267.989 324.333 267.935 324.36 267.87C324.397 267.806 324.416 267.733 324.417 267.66V266.647C324.417 266.574 324.417 266.525 324.36 266.501C324.341 266.482 324.315 266.472 324.287 266.472C324.26 266.472 324.234 266.482 324.215 266.501ZM328.598 262.912C328.873 262.592 329.087 262.224 329.23 261.826C329.379 261.405 329.454 260.961 329.448 260.514C329.461 260.211 329.414 259.908 329.311 259.623C329.24 259.429 329.098 259.27 328.914 259.177C328.709 259.107 328.486 259.107 328.282 259.177C327.995 259.25 327.722 259.367 327.471 259.525L325.527 260.643C325.47 260.681 325.425 260.735 325.397 260.797C325.36 260.864 325.34 260.939 325.341 261.016V267.173C325.341 267.246 325.341 267.295 325.397 267.319C325.415 267.335 325.438 267.344 325.462 267.344C325.486 267.344 325.509 267.335 325.527 267.319L326.467 266.776C326.528 266.742 326.577 266.688 326.605 266.623C326.637 266.557 326.657 266.485 326.661 266.412V264.37L327.318 263.989L328.128 265.569C328.153 265.615 328.186 265.656 328.225 265.691C328.265 265.691 328.33 265.691 328.428 265.691L329.4 265.124C329.449 265.096 329.489 265.053 329.513 265.002C329.544 264.948 329.561 264.886 329.562 264.824C329.569 264.795 329.569 264.764 329.562 264.735L328.598 262.912ZM327.933 261.94C327.799 262.119 327.631 262.27 327.439 262.385L326.629 262.847V261.437L327.439 260.976C327.581 260.871 327.757 260.822 327.933 260.838C328.063 260.838 328.128 260.984 328.128 261.275C328.138 261.512 328.069 261.746 327.933 261.94ZM313.496 272.691L311.235 273.995V272.926L313.285 271.743C313.345 271.706 313.392 271.652 313.423 271.589C313.459 271.525 313.479 271.452 313.48 271.378V270.366C313.48 270.293 313.48 270.244 313.423 270.22C313.403 270.205 313.379 270.196 313.354 270.196C313.329 270.196 313.305 270.205 313.285 270.22L311.235 271.403V270.374L313.439 269.102C313.499 269.064 313.546 269.011 313.577 268.948C313.615 268.881 313.634 268.806 313.634 268.729V267.716C313.636 267.689 313.633 267.662 313.623 267.636C313.613 267.611 313.597 267.588 313.577 267.57C313.556 267.558 313.532 267.552 313.508 267.552C313.484 267.552 313.46 267.558 313.439 267.57L310.109 269.499C310.052 269.538 310.004 269.591 309.972 269.653C309.939 269.718 309.92 269.79 309.915 269.863V276.029C309.914 276.056 309.919 276.082 309.929 276.107C309.938 276.132 309.953 276.155 309.972 276.175C309.993 276.187 310.016 276.193 310.04 276.193C310.065 276.193 310.088 276.187 310.109 276.175L313.496 274.214C313.557 274.179 313.606 274.125 313.634 274.06C313.67 273.996 313.689 273.923 313.69 273.849V272.837C313.694 272.808 313.691 272.78 313.681 272.753C313.671 272.726 313.655 272.702 313.634 272.683C313.613 272.67 313.588 272.664 313.563 272.665C313.539 272.667 313.515 272.676 313.496 272.691ZM319.37 264.151L318.56 264.63C318.465 264.681 318.389 264.76 318.341 264.856C318.304 264.923 318.274 264.994 318.252 265.067L317.093 268.373L315.935 266.404C315.906 266.367 315.874 266.335 315.837 266.307C315.789 266.258 315.724 266.266 315.627 266.307L314.816 266.785C314.759 266.822 314.714 266.876 314.687 266.939C314.649 267.005 314.63 267.081 314.63 267.157V273.315C314.626 273.342 314.63 273.369 314.64 273.395C314.65 273.42 314.666 273.443 314.687 273.46C314.705 273.476 314.728 273.485 314.752 273.485C314.776 273.485 314.799 273.476 314.816 273.46L315.756 272.918C315.814 272.878 315.861 272.825 315.894 272.764C315.927 272.698 315.946 272.626 315.951 272.553V269.393L316.623 270.576C316.649 270.617 316.682 270.653 316.72 270.682C316.761 270.682 316.818 270.682 316.882 270.682L317.344 270.414C317.418 270.374 317.478 270.312 317.514 270.236C317.552 270.168 317.584 270.098 317.612 270.025L318.284 268.065V271.224C318.281 271.251 318.285 271.279 318.295 271.304C318.304 271.33 318.32 271.352 318.341 271.37C318.36 271.383 318.382 271.391 318.406 271.391C318.429 271.391 318.451 271.383 318.47 271.37L319.41 270.835C319.47 270.798 319.517 270.745 319.548 270.682C319.582 270.613 319.601 270.539 319.605 270.463V264.305C319.607 264.278 319.603 264.251 319.593 264.226C319.583 264.201 319.568 264.178 319.548 264.16C319.539 264.144 319.527 264.131 319.511 264.122C319.496 264.112 319.479 264.107 319.461 264.106C319.443 264.105 319.425 264.109 319.41 264.117C319.394 264.125 319.38 264.137 319.37 264.151ZM339.081 257.921L336.821 259.226V258.156L338.871 256.973C338.928 256.934 338.976 256.881 339.008 256.819C339.041 256.754 339.061 256.682 339.065 256.609V255.62C339.067 255.593 339.064 255.566 339.054 255.541C339.044 255.516 339.028 255.493 339.008 255.474C338.989 255.459 338.964 255.451 338.94 255.451C338.915 255.451 338.891 255.459 338.871 255.474L336.821 256.649V255.62L339.025 254.348C339.086 254.313 339.135 254.259 339.162 254.194C339.2 254.13 339.219 254.058 339.219 253.984V252.947C339.223 252.92 339.219 252.892 339.21 252.866C339.2 252.841 339.183 252.818 339.162 252.801C339.143 252.784 339.119 252.775 339.094 252.775C339.068 252.775 339.044 252.784 339.025 252.801L335.695 254.729C335.633 254.764 335.585 254.818 335.557 254.883C335.521 254.947 335.501 255.02 335.5 255.094V261.292C335.497 261.32 335.5 261.349 335.51 261.375C335.52 261.402 335.536 261.426 335.557 261.445C335.577 261.459 335.601 261.467 335.626 261.467C335.651 261.467 335.675 261.459 335.695 261.445L339.081 259.493C339.141 259.456 339.189 259.402 339.219 259.339C339.257 259.272 339.276 259.197 339.276 259.12V258.051C339.279 258.023 339.276 257.994 339.266 257.967C339.256 257.94 339.24 257.916 339.219 257.897C339.196 257.886 339.171 257.883 339.146 257.887C339.122 257.892 339.099 257.903 339.081 257.921ZM346.584 250.978C346.593 250.823 346.615 250.668 346.648 250.516C346.684 250.363 346.736 250.213 346.802 250.071C346.879 249.928 346.972 249.795 347.078 249.674C347.195 249.544 347.331 249.435 347.483 249.35C347.605 249.269 347.743 249.216 347.888 249.196C347.973 249.174 348.062 249.174 348.147 249.196C348.21 249.234 348.263 249.287 348.301 249.35C348.301 249.422 348.358 249.487 348.382 249.552C348.394 249.613 348.419 249.671 348.455 249.722C348.455 249.722 348.544 249.722 348.625 249.722L349.557 249.179C349.606 249.151 349.646 249.109 349.67 249.058C349.7 249.003 349.717 248.942 349.719 248.88C349.722 248.599 349.661 248.322 349.541 248.069C349.438 247.864 349.27 247.698 349.063 247.6C348.848 247.509 348.612 247.481 348.382 247.518C348.071 247.565 347.774 247.675 347.507 247.843C347.163 248.039 346.851 248.288 346.584 248.58C346.317 248.87 346.086 249.191 345.895 249.536C345.709 249.877 345.562 250.239 345.458 250.613C345.355 250.969 345.298 251.337 345.287 251.707C345.287 251.983 345.287 252.274 345.287 252.574C345.287 252.874 345.287 253.149 345.287 253.384C345.296 253.691 345.354 253.995 345.458 254.283C345.541 254.516 345.697 254.715 345.903 254.851C346.108 254.981 346.35 255.038 346.592 255.013C346.917 254.974 347.23 254.864 347.507 254.689C347.83 254.502 348.125 254.27 348.382 254C348.652 253.726 348.888 253.421 349.087 253.093C349.282 252.77 349.443 252.428 349.565 252.072C349.674 251.742 349.734 251.398 349.743 251.051C349.743 250.994 349.743 250.954 349.695 250.937C349.678 250.926 349.658 250.919 349.638 250.919C349.618 250.919 349.598 250.926 349.581 250.937L348.65 251.472C348.58 251.511 348.522 251.567 348.479 251.634C348.448 251.718 348.423 251.805 348.407 251.893C348.407 251.983 348.358 252.08 348.326 252.185C348.286 252.301 348.234 252.412 348.172 252.517C348.096 252.638 348.009 252.752 347.912 252.858C347.79 252.976 347.654 253.08 347.507 253.165C347.386 253.244 347.246 253.291 347.102 253.303C347.003 253.311 346.905 253.283 346.827 253.222C346.754 253.151 346.7 253.061 346.673 252.963C346.637 252.836 346.616 252.706 346.608 252.574C346.608 252.493 346.608 252.38 346.608 252.234C346.608 252.088 346.608 251.934 346.608 251.78C346.608 251.626 346.608 251.472 346.608 251.326C346.608 251.181 346.576 251.059 346.584 250.978ZM344.153 249.836L343.213 250.378C343.154 250.416 343.106 250.469 343.076 250.532C343.042 250.598 343.022 250.67 343.019 250.743V253.984L341.399 251.667C341.371 251.634 341.338 251.607 341.301 251.586C341.271 251.569 341.238 251.561 341.204 251.561C341.17 251.561 341.137 251.569 341.107 251.586L340.361 252.015C340.304 252.053 340.259 252.106 340.232 252.169C340.193 252.233 340.171 252.305 340.167 252.38V258.545C340.166 258.573 340.171 258.6 340.182 258.626C340.193 258.651 340.21 258.673 340.232 258.691C340.251 258.703 340.274 258.71 340.297 258.71C340.32 258.71 340.342 258.703 340.361 258.691L341.301 258.148C341.359 258.109 341.406 258.056 341.439 257.994C341.473 257.926 341.492 257.851 341.496 257.775V254.535L343.116 256.844C343.141 256.878 343.175 256.906 343.213 256.925C343.262 256.925 343.327 256.925 343.408 256.925L344.153 256.495C344.209 256.454 344.256 256.401 344.291 256.341C344.324 256.273 344.343 256.199 344.348 256.123V249.949C344.35 249.922 344.346 249.895 344.336 249.87C344.326 249.844 344.311 249.822 344.291 249.803C344.27 249.796 344.247 249.795 344.225 249.801C344.204 249.807 344.184 249.819 344.169 249.836H344.153ZM334.431 258.124L332.697 259.128C332.638 259.166 332.59 259.219 332.559 259.282C332.527 259.348 332.507 259.42 332.503 259.493V260.481C332.5 260.508 332.504 260.536 332.514 260.561C332.524 260.586 332.54 260.609 332.559 260.627C332.579 260.642 332.603 260.651 332.628 260.651C332.653 260.651 332.677 260.642 332.697 260.627L333.297 260.279C333.299 260.457 333.274 260.634 333.224 260.805C333.185 260.96 333.122 261.108 333.037 261.243C332.956 261.372 332.858 261.489 332.746 261.591C332.639 261.689 332.522 261.776 332.397 261.851C332.276 261.93 332.137 261.977 331.992 261.988C331.945 261.993 331.896 261.989 331.85 261.975C331.804 261.961 331.762 261.938 331.725 261.907C331.649 261.833 331.593 261.741 331.563 261.64C331.527 261.516 331.505 261.388 331.498 261.259C331.498 261.186 331.498 261.073 331.498 260.927C331.498 260.781 331.498 260.627 331.498 260.473C331.498 260.319 331.498 260.165 331.498 260.011C331.498 259.858 331.498 259.752 331.498 259.663C331.514 259.508 331.539 259.354 331.571 259.201C331.603 259.047 331.654 258.897 331.725 258.756C331.793 258.61 331.883 258.476 331.992 258.359C332.109 258.23 332.246 258.12 332.397 258.035C332.546 257.923 332.73 257.865 332.916 257.873C333.022 257.898 333.118 257.954 333.191 258.035L333.313 258.14C333.353 258.14 333.41 258.14 333.475 258.14L334.431 257.597C334.479 257.564 334.517 257.519 334.544 257.468C334.576 257.414 334.59 257.351 334.585 257.289C334.578 257.086 334.52 256.888 334.415 256.714C334.311 256.538 334.159 256.394 333.977 256.301C333.763 256.207 333.528 256.174 333.297 256.204C332.977 256.245 332.67 256.355 332.397 256.528C332.055 256.727 331.744 256.975 331.474 257.265C331.205 257.553 330.974 257.875 330.785 258.221C330.599 258.563 330.453 258.924 330.348 259.299C330.245 259.654 330.188 260.022 330.177 260.392C330.177 260.676 330.177 260.959 330.177 261.259C330.177 261.559 330.177 261.834 330.177 262.069C330.182 262.374 330.24 262.676 330.348 262.961C330.431 263.193 330.587 263.392 330.793 263.528C330.996 263.663 331.24 263.72 331.482 263.69C331.808 263.655 332.122 263.544 332.397 263.366C332.72 263.179 333.015 262.947 333.272 262.677C333.827 262.11 334.23 261.414 334.447 260.652C334.567 260.266 334.627 259.864 334.625 259.461V258.237C334.626 258.21 334.621 258.184 334.612 258.159C334.602 258.134 334.587 258.111 334.569 258.091C334.545 258.082 334.519 258.08 334.495 258.085C334.47 258.091 334.448 258.105 334.431 258.124ZM354.613 243.865C354.596 243.853 354.576 243.846 354.556 243.846C354.535 243.846 354.516 243.853 354.499 243.865L353.519 244.424C353.429 244.475 353.356 244.551 353.308 244.642C353.274 244.705 353.244 244.77 353.219 244.837L352.312 247.705L351.412 245.898C351.392 245.861 351.361 245.83 351.323 245.809C351.275 245.769 351.21 245.809 351.113 245.809L350.132 246.376C350.085 246.406 350.046 246.448 350.019 246.498C349.989 246.552 349.972 246.613 349.97 246.676C349.962 246.711 349.962 246.747 349.97 246.781L351.591 249.884V251.91C351.587 251.938 351.59 251.967 351.6 251.994C351.61 252.02 351.626 252.044 351.647 252.064C351.668 252.078 351.692 252.085 351.716 252.085C351.741 252.085 351.765 252.078 351.785 252.064L352.717 251.529C352.777 251.488 352.824 251.432 352.854 251.367C352.892 251.303 352.911 251.23 352.911 251.156V249.139L354.532 244.14C354.538 244.092 354.538 244.043 354.532 243.994C354.556 243.983 354.577 243.965 354.592 243.942C354.606 243.919 354.613 243.892 354.613 243.865Z" fill="#3587F2"/>
<path d="M210.805 241.709L240.782 258.999C241.148 259.235 241.453 259.556 241.671 259.933C241.889 260.31 242.015 260.734 242.038 261.17V270.69C242.014 271.123 241.888 271.544 241.67 271.919C241.452 272.294 241.147 272.611 240.782 272.845L240.685 272.901C240.295 273.097 239.865 273.199 239.429 273.199C238.993 273.199 238.563 273.097 238.173 272.901L208.221 255.62C207.858 255.38 207.557 255.059 207.34 254.682C207.123 254.305 206.998 253.883 206.973 253.449V243.905C206.997 243.472 207.123 243.051 207.341 242.676C207.559 242.301 207.864 241.984 208.229 241.75L208.326 241.693C208.713 241.507 209.138 241.411 209.567 241.414C209.997 241.417 210.42 241.518 210.805 241.709Z" fill="#F0F0F0"/>
<path d="M238.198 272.893C238.589 273.083 239.018 273.182 239.453 273.182C239.888 273.182 240.318 273.083 240.709 272.893L240.806 272.837C241.172 272.603 241.476 272.286 241.695 271.911C241.913 271.536 242.039 271.115 242.062 270.682V261.17C242.045 260.716 241.908 260.274 241.665 259.89L239.081 261.413C239.306 261.785 239.431 262.21 239.445 262.645V272.164C239.413 272.893 238.902 273.315 238.198 272.893Z" fill="#E0E0E0"/>
<path d="M208.221 243.184L238.197 260.481C238.562 260.719 238.865 261.04 239.081 261.418C239.298 261.795 239.423 262.218 239.445 262.653V272.172C239.445 272.982 238.886 273.298 238.197 272.901L208.221 255.62C207.858 255.38 207.557 255.059 207.34 254.682C207.123 254.305 206.998 253.883 206.973 253.449V243.905C206.941 243.111 207.5 242.787 208.221 243.184Z" fill="#FAFAFA"/>
<path d="M207.629 243.37C207.764 243.378 207.895 243.42 208.01 243.492L237.987 260.781C238.297 260.988 238.556 261.264 238.743 261.587C238.93 261.91 239.04 262.272 239.064 262.645V272.164C239.064 272.367 239.016 272.707 238.724 272.707C238.589 272.699 238.458 272.657 238.343 272.586L208.367 255.296C208.056 255.089 207.797 254.813 207.61 254.49C207.423 254.167 207.314 253.805 207.289 253.433V243.905C207.289 243.703 207.338 243.37 207.629 243.37ZM207.629 243.014C207.216 243.014 206.941 243.338 206.941 243.905V253.433C206.967 253.873 207.096 254.3 207.319 254.68C207.541 255.06 207.85 255.382 208.221 255.62L238.197 272.91C238.366 273.013 238.559 273.072 238.756 273.08C239.17 273.08 239.445 272.748 239.445 272.18V262.645C239.422 262.211 239.296 261.79 239.08 261.414C238.863 261.038 238.561 260.719 238.197 260.481L208.221 243.192C208.052 243.089 207.86 243.03 207.662 243.022L207.629 243.014Z" fill="#F0F0F0"/>
<path d="M212.021 248.434C212.067 248.47 212.104 248.517 212.126 248.572C212.157 248.632 212.174 248.698 212.174 248.766V254.502C212.177 254.527 212.174 254.553 212.166 254.577C212.157 254.6 212.144 254.622 212.126 254.64C212.119 254.647 212.111 254.653 212.102 254.657C212.093 254.66 212.083 254.662 212.073 254.662C212.063 254.662 212.054 254.66 212.045 254.657C212.035 254.653 212.027 254.647 212.021 254.64L211.259 254.211C211.212 254.175 211.176 254.127 211.154 254.073C211.122 254.013 211.106 253.946 211.105 253.878V251.699L209.825 250.962V253.19C209.828 253.215 209.825 253.24 209.816 253.264C209.808 253.288 209.794 253.31 209.776 253.328C209.769 253.335 209.761 253.34 209.752 253.344C209.743 253.348 209.733 253.35 209.724 253.35C209.714 253.35 209.704 253.348 209.695 253.344C209.686 253.34 209.678 253.335 209.671 253.328L208.918 252.89C208.866 252.861 208.826 252.815 208.804 252.76C208.774 252.7 208.76 252.633 208.764 252.566V246.83C208.76 246.804 208.762 246.778 208.769 246.753C208.776 246.728 208.788 246.704 208.804 246.684C208.821 246.672 208.84 246.666 208.861 246.666C208.881 246.666 208.901 246.672 208.918 246.684L209.671 247.122C209.72 247.155 209.757 247.203 209.776 247.259C209.808 247.319 209.824 247.386 209.825 247.454V249.593L211.105 250.33V248.191C211.102 248.166 211.105 248.14 211.114 248.117C211.122 248.093 211.136 248.071 211.154 248.053C211.16 248.046 211.169 248.04 211.178 248.037C211.187 248.033 211.196 248.031 211.206 248.031C211.216 248.031 211.226 248.033 211.235 248.037C211.244 248.04 211.252 248.046 211.259 248.053L212.021 248.434Z" fill="#3587F2"/>
<path d="M212.904 251.27C212.91 250.978 212.959 250.688 213.049 250.411C213.111 250.196 213.232 250.002 213.398 249.852C213.551 249.721 213.747 249.651 213.949 249.657C214.216 249.672 214.476 249.756 214.702 249.9C214.987 250.065 215.241 250.275 215.456 250.524C215.673 250.771 215.861 251.043 216.015 251.334C216.315 251.954 216.481 252.631 216.501 253.319C216.501 253.579 216.501 253.846 216.501 254.13C216.501 254.413 216.501 254.672 216.501 254.94C216.496 255.231 216.45 255.52 216.363 255.798C216.298 256.012 216.178 256.205 216.015 256.358C215.859 256.491 215.66 256.56 215.456 256.552C215.188 256.537 214.928 256.453 214.702 256.309C214.418 256.145 214.163 255.934 213.949 255.685C213.734 255.437 213.55 255.165 213.398 254.875C213.245 254.565 213.128 254.239 213.049 253.903C212.966 253.571 212.917 253.232 212.904 252.89C212.904 252.639 212.904 252.38 212.904 252.08C212.904 251.78 212.895 251.521 212.904 251.27ZM215.439 254.267C215.439 254.162 215.439 254.04 215.439 253.919C215.439 253.797 215.439 253.652 215.439 253.522C215.439 253.392 215.439 253.246 215.439 253.125C215.439 253.003 215.439 252.874 215.439 252.777C215.431 252.626 215.409 252.477 215.375 252.331C215.342 252.192 215.296 252.056 215.237 251.926C215.181 251.8 215.108 251.682 215.018 251.577C214.928 251.474 214.821 251.386 214.702 251.318C214.609 251.26 214.503 251.227 214.394 251.221C214.31 251.221 214.229 251.253 214.167 251.31C214.102 251.379 214.055 251.462 214.03 251.553C213.996 251.675 213.977 251.8 213.973 251.926C213.973 252.023 213.973 252.136 213.973 252.258V253.068C213.973 253.206 213.973 253.327 213.973 253.433C213.986 253.726 214.052 254.014 214.167 254.283C214.277 254.535 214.465 254.745 214.702 254.883C214.945 255.021 215.123 255.029 215.237 254.883C215.367 254.704 215.438 254.489 215.439 254.267Z" fill="#3587F2"/>
<path d="M218.753 252.226C219.006 252.374 219.233 252.563 219.426 252.785C219.632 253.006 219.812 253.251 219.96 253.514C220.109 253.77 220.228 254.042 220.317 254.324C220.39 254.541 220.434 254.768 220.447 254.997C220.46 255.033 220.46 255.073 220.447 255.11C220.435 255.119 220.421 255.124 220.406 255.124C220.391 255.124 220.377 255.119 220.366 255.11L219.612 254.672C219.561 254.649 219.516 254.612 219.482 254.567C219.443 254.513 219.408 254.456 219.377 254.397L219.329 254.284C219.296 254.216 219.258 254.151 219.215 254.089C219.171 254.01 219.113 253.939 219.045 253.878C218.968 253.803 218.884 253.735 218.794 253.676L218.583 253.579C218.524 253.569 218.464 253.569 218.405 253.579C218.38 253.578 218.355 253.584 218.332 253.595C218.309 253.606 218.29 253.623 218.275 253.643C218.238 253.701 218.221 253.77 218.227 253.838C218.225 253.925 218.245 254.011 218.283 254.089C218.331 254.19 218.394 254.283 218.47 254.365C218.575 254.486 218.689 254.6 218.81 254.705L219.337 255.183C219.537 255.357 219.724 255.547 219.896 255.75C220.046 255.94 220.178 256.144 220.293 256.358C220.393 256.571 220.471 256.793 220.528 257.022C220.581 257.289 220.605 257.56 220.601 257.832C220.612 258.082 220.568 258.331 220.471 258.561C220.396 258.733 220.265 258.873 220.098 258.958C219.92 259.036 219.721 259.056 219.531 259.015C219.279 258.967 219.037 258.873 218.818 258.74C218.554 258.583 218.314 258.39 218.105 258.164C217.686 257.727 217.37 257.201 217.182 256.625C217.101 256.384 217.055 256.133 217.044 255.88C217.041 255.835 217.055 255.792 217.084 255.758C217.096 255.749 217.11 255.744 217.125 255.744C217.14 255.744 217.154 255.749 217.165 255.758L217.919 256.196C217.968 256.222 218.013 256.258 218.048 256.301C218.085 256.345 218.115 256.394 218.138 256.447L218.21 256.601C218.246 256.681 218.287 256.76 218.332 256.836C218.39 256.927 218.455 257.014 218.526 257.095C218.611 257.188 218.709 257.267 218.818 257.33C218.973 257.428 219.147 257.492 219.329 257.516C219.466 257.516 219.539 257.443 219.539 257.273C219.539 257.178 219.511 257.085 219.458 257.006C219.397 256.9 219.324 256.802 219.239 256.714C219.134 256.601 219.004 256.479 218.851 256.341L218.3 255.847C217.935 255.527 217.64 255.136 217.433 254.697C217.221 254.223 217.118 253.708 217.133 253.19C217.129 252.963 217.167 252.738 217.246 252.525C217.311 252.354 217.423 252.205 217.57 252.096C217.725 251.998 217.907 251.955 218.089 251.975C218.326 252.008 218.553 252.094 218.753 252.226Z" fill="#3587F2"/>
<path d="M222.982 254.81C223.228 254.945 223.453 255.117 223.646 255.32C223.843 255.524 224.012 255.753 224.149 256.001C224.288 256.258 224.396 256.53 224.473 256.811C224.546 257.13 224.581 257.456 224.578 257.783C224.588 258.071 224.552 258.358 224.473 258.634C224.418 258.819 224.304 258.981 224.149 259.096C223.999 259.19 223.821 259.227 223.646 259.201C223.412 259.159 223.186 259.074 222.982 258.95L222.245 258.521V260.335C222.247 260.361 222.244 260.386 222.236 260.41C222.228 260.434 222.214 260.455 222.196 260.473C222.189 260.48 222.181 260.486 222.172 260.49C222.163 260.494 222.153 260.496 222.144 260.496C222.134 260.496 222.124 260.494 222.115 260.49C222.106 260.486 222.098 260.48 222.091 260.473L221.337 260.036C221.286 260.007 221.246 259.961 221.224 259.906C221.189 259.833 221.175 259.752 221.184 259.671V254C221.181 253.973 221.184 253.947 221.193 253.922C221.201 253.897 221.215 253.874 221.232 253.854C221.249 253.842 221.269 253.836 221.289 253.836C221.309 253.836 221.329 253.842 221.346 253.854L222.982 254.81ZM222.245 257.159L222.958 257.573C223.014 257.614 223.079 257.642 223.148 257.653C223.218 257.665 223.288 257.659 223.355 257.637C223.46 257.589 223.517 257.443 223.517 257.192C223.522 256.97 223.466 256.752 223.355 256.56C223.259 256.398 223.122 256.263 222.958 256.171L222.245 255.758V257.159Z" fill="#3587F2"/>
<path d="M225.348 262.345C225.298 262.313 225.259 262.268 225.234 262.215C225.209 262.153 225.196 262.087 225.194 262.021V256.285C225.191 256.233 225.206 256.182 225.234 256.139C225.251 256.127 225.271 256.12 225.291 256.12C225.311 256.12 225.331 256.127 225.348 256.139L226.101 256.576C226.151 256.611 226.19 256.659 226.215 256.714C226.226 256.778 226.226 256.844 226.215 256.908V262.645C226.23 262.689 226.23 262.738 226.215 262.782C226.199 262.795 226.179 262.803 226.158 262.803C226.137 262.803 226.117 262.795 226.101 262.782L225.348 262.345Z" fill="#3587F2"/>
<path d="M230.095 258.861C230.144 258.894 230.181 258.943 230.201 258.999C230.232 259.059 230.249 259.125 230.249 259.193V260.133C230.252 260.158 230.249 260.184 230.241 260.207C230.232 260.231 230.219 260.253 230.201 260.271C230.194 260.278 230.186 260.283 230.177 260.287C230.168 260.291 230.158 260.293 230.148 260.293C230.138 260.293 230.128 260.291 230.119 260.287C230.11 260.283 230.102 260.278 230.095 260.271L229.083 259.687V264.241C229.085 264.267 229.082 264.293 229.073 264.319C229.065 264.344 229.052 264.367 229.034 264.386C229.018 264.398 228.998 264.405 228.977 264.405C228.957 264.405 228.937 264.398 228.921 264.386L228.167 263.949C228.12 263.913 228.084 263.866 228.062 263.811C228.031 263.751 228.014 263.684 228.013 263.617V259.064L227.001 258.48C226.951 258.446 226.912 258.398 226.887 258.342C226.858 258.282 226.844 258.215 226.847 258.148V257.241C226.843 257.215 226.845 257.189 226.852 257.164C226.859 257.139 226.871 257.115 226.887 257.095C226.904 257.083 226.923 257.077 226.944 257.077C226.964 257.077 226.984 257.083 227.001 257.095L230.095 258.861Z" fill="#3587F2"/>
<path d="M232.526 260.295C232.605 260.339 232.667 260.407 232.704 260.489C232.74 260.567 232.767 260.649 232.785 260.732L234.041 267.052C234.047 267.1 234.047 267.149 234.041 267.198C234.043 267.218 234.04 267.239 234.033 267.259C234.026 267.278 234.015 267.296 234.001 267.311C233.989 267.323 233.973 267.329 233.956 267.329C233.94 267.329 233.924 267.323 233.912 267.311L233.191 266.89C233.115 266.855 233.055 266.795 233.02 266.72C232.993 266.663 232.974 266.603 232.964 266.541L232.802 265.731L231.27 264.84L231.108 265.488C231.1 265.53 231.077 265.567 231.044 265.594C231.044 265.594 230.954 265.594 230.881 265.594L230.152 265.172C230.113 265.147 230.082 265.11 230.063 265.067C230.052 265.014 230.052 264.958 230.063 264.905C230.063 264.905 230.063 264.84 230.063 264.783L231.327 259.922C231.337 259.866 231.366 259.815 231.408 259.776C231.449 259.728 231.505 259.728 231.586 259.776L232.526 260.295ZM231.594 263.633L232.526 264.168L232.056 261.737L231.594 263.633Z" fill="#3587F2"/>
<path d="M237.436 267.911C237.487 267.94 237.527 267.985 237.549 268.04C237.581 268.1 237.597 268.167 237.598 268.235V269.175C237.601 269.201 237.598 269.228 237.589 269.253C237.581 269.278 237.567 269.301 237.549 269.32C237.549 269.32 237.484 269.32 237.436 269.32L234.77 267.781C234.721 267.746 234.681 267.699 234.657 267.643C234.642 267.579 234.642 267.513 234.657 267.449V261.713C234.657 261.648 234.657 261.599 234.657 261.575C234.673 261.562 234.693 261.555 234.714 261.555C234.734 261.555 234.754 261.562 234.77 261.575L235.524 262.013C235.573 262.044 235.612 262.089 235.637 262.142C235.649 262.206 235.649 262.272 235.637 262.337V266.89L237.436 267.911Z" fill="#3587F2"/>
<path d="M271.05 81.2206L261.377 75.6466L250.804 81.7472L246.445 79.2276L271.796 64.5957L276.154 67.1154L266.238 72.8433L275.903 78.4255L285.82 72.6894L290.179 75.2091L264.836 89.849L260.469 87.3294L271.05 81.2206Z" fill="#3587F2"/>
<path d="M268.652 95.5933C260.769 95.5933 252.886 93.8677 246.883 90.4001C240.879 86.9325 237.566 82.2497 237.566 77.2265C237.566 72.2034 240.871 67.5044 246.883 64.0611C258.89 57.126 278.415 57.126 290.422 64.0611C296.433 67.5287 299.739 72.1629 299.739 77.2265C299.739 82.2902 296.433 86.9487 290.422 90.4001C284.41 93.8515 276.535 95.5933 268.652 95.5933ZM268.652 60.9257C261.15 60.9257 253.648 62.5461 247.928 65.8678C242.597 68.9465 239.656 72.9812 239.656 77.2103C239.656 81.4395 242.597 85.4904 247.928 88.5529C259.36 95.1477 277.945 95.1558 289.377 88.5529C294.708 85.4742 297.649 81.4395 297.649 77.2103C297.649 72.9812 294.708 68.9303 289.377 65.8678C283.665 62.5704 276.155 60.9257 268.652 60.9257Z" fill="#3587F2"/>
<path opacity="0.1" d="M320.901 51.3412L344.193 64.774L327.812 74.2369L304.519 60.796L320.901 51.3412Z" fill="black"/>
<path d="M320.933 47.0715L329.878 52.2405L317.352 59.4673L308.416 54.3064L320.933 47.0715Z" fill="#FAFAFA"/>
<path d="M329.878 52.2405V57.4013L317.352 64.6281V59.4673L329.878 52.2405Z" fill="#E0E0E0"/>
<path d="M308.416 54.3065V59.4674L317.352 64.6282V59.4674L308.416 54.3065Z" fill="#F0F0F0"/>
<path d="M323.874 50.539C325.494 51.4788 325.494 52.9695 323.874 53.9336C322.963 54.3975 321.955 54.6393 320.933 54.6393C319.911 54.6393 318.903 54.3975 317.992 53.9336C316.372 52.9938 316.372 51.5031 317.992 50.539C318.904 50.0795 319.912 49.8402 320.933 49.8402C321.955 49.8402 322.962 50.0795 323.874 50.539Z" fill="#E0E0E0"/>
<path d="M322.311 51.5032C323.072 51.9083 323.072 52.5646 322.311 52.9696C321.88 53.172 321.409 53.2769 320.933 53.2769C320.457 53.2769 319.987 53.172 319.556 52.9696C318.794 52.5646 318.794 51.9083 319.556 51.5032C319.989 51.3072 320.458 51.2058 320.933 51.2058C321.408 51.2058 321.878 51.3072 322.311 51.5032Z" fill="#FAFAFA"/>
<path d="M312.799 64.4985C312.915 64.4985 313.026 64.4525 313.108 64.3704C313.19 64.2884 313.237 64.1771 313.237 64.061V61.2173L314.808 60.3099C314.908 60.2497 314.98 60.1524 315.008 60.0392C315.036 59.926 315.018 59.8062 314.958 59.7063C314.898 59.6064 314.801 59.5345 314.687 59.5064C314.574 59.4783 314.455 59.4963 314.355 59.5564L312.564 60.5935C312.496 60.6307 312.44 60.6859 312.401 60.7531C312.363 60.8203 312.343 60.8968 312.345 60.9743V64.0691C312.346 64.1273 312.359 64.1847 312.383 64.2379C312.406 64.2911 312.44 64.3391 312.482 64.3791C312.524 64.4191 312.574 64.4502 312.629 64.4708C312.683 64.4913 312.741 64.5007 312.799 64.4985Z" fill="#3587F2"/>
<path d="M310.199 63.0078C310.317 63.0078 310.43 62.9608 310.514 62.8772C310.597 62.7937 310.644 62.6803 310.644 62.5622V59.7184L312.208 58.811C312.309 58.753 312.383 58.6572 312.413 58.5448C312.443 58.4324 312.428 58.3125 312.37 58.2115C312.312 58.1105 312.216 58.0367 312.104 58.0063C311.991 57.9759 311.871 57.9914 311.77 58.0495L309.98 59.0865C309.912 59.1244 309.857 59.1798 309.818 59.2468C309.78 59.3138 309.76 59.39 309.761 59.4673V62.5622C309.761 62.6789 309.807 62.7911 309.889 62.8744C309.971 62.9578 310.082 63.0056 310.199 63.0078Z" fill="#3587F2"/>
<path d="M333.451 54.3065L342.395 59.4674L329.878 66.6942L320.933 61.5333L333.451 54.3065Z" fill="#FAFAFA"/>
<path d="M342.395 59.4673V64.6281L329.878 71.855V66.6941L342.395 59.4673Z" fill="#E0E0E0"/>
<path d="M320.933 61.5332V66.6941L329.878 71.8549V66.6941L320.933 61.5332Z" fill="#F0F0F0"/>
<path d="M336.392 57.766C338.012 58.7058 338.012 60.1965 336.392 61.1606C335.482 61.6231 334.475 61.8642 333.455 61.8642C332.434 61.8642 331.428 61.6231 330.518 61.1606C328.897 60.2208 328.897 58.7301 330.518 57.766C331.428 57.3034 332.434 57.0624 333.455 57.0624C334.475 57.0624 335.482 57.3034 336.392 57.766Z" fill="#E0E0E0"/>
<path d="M334.828 58.7462C335.59 59.1432 335.59 59.7994 334.828 60.2045C334.397 60.4069 333.927 60.5118 333.451 60.5118C332.975 60.5118 332.504 60.4069 332.073 60.2045C331.32 59.7994 331.32 59.1432 332.073 58.7462C332.504 58.5439 332.975 58.439 333.451 58.439C333.927 58.439 334.397 58.5439 334.828 58.7462Z" fill="#FAFAFA"/>
<path d="M325.316 71.709C325.375 71.709 325.433 71.6975 325.487 71.6751C325.541 71.6527 325.59 71.6199 325.631 71.5785C325.673 71.5371 325.706 71.488 325.728 71.4339C325.75 71.3799 325.762 71.3219 325.762 71.2634V68.4683L327.325 67.5609C327.375 67.5322 327.419 67.4939 327.455 67.4482C327.49 67.4025 327.516 67.3504 327.531 67.2947C327.546 67.239 327.55 67.1809 327.542 67.1237C327.535 67.0665 327.516 67.0114 327.487 66.9614C327.459 66.9114 327.42 66.8675 327.375 66.8323C327.329 66.7971 327.277 66.7712 327.221 66.7562C327.166 66.7411 327.108 66.7372 327.05 66.7446C326.993 66.752 326.938 66.7706 326.888 66.7993L325.097 67.8364C325.03 67.8743 324.974 67.9296 324.936 67.9967C324.897 68.0637 324.878 68.1399 324.879 68.2171V71.312C324.891 71.4202 324.942 71.5203 325.022 71.5934C325.103 71.6666 325.207 71.7077 325.316 71.709Z" fill="#3587F2"/>
<path d="M322.724 70.2346C322.841 70.2325 322.952 70.1846 323.034 70.1013C323.116 70.018 323.161 69.9058 323.161 69.789V66.9453L324.733 66.046C324.84 65.9869 324.92 65.8876 324.954 65.7698C324.988 65.6521 324.974 65.5255 324.915 65.4181C324.856 65.3107 324.757 65.2311 324.639 65.1969C324.521 65.1627 324.395 65.1767 324.287 65.2358L322.505 66.2729C322.438 66.3116 322.382 66.367 322.342 66.4337C322.302 66.5003 322.28 66.5761 322.278 66.6536V69.7485C322.273 69.8104 322.28 69.8727 322.3 69.9315C322.32 69.9903 322.352 70.0444 322.394 70.0901C322.435 70.1359 322.487 70.1724 322.543 70.1973C322.6 70.2222 322.662 70.2349 322.724 70.2346Z" fill="#3587F2"/>
<path d="M258.606 38.1028L275.652 47.9465V22.4339L258.606 12.6307V38.1028Z" fill="#E6E6E6"/>
<g style="mix-blend-mode:multiply" opacity="0.1">
<path d="M258.606 38.1028L275.652 47.9465V22.4339L258.606 12.6307V38.1028Z" fill="black"/>
</g>
<path d="M297.495 35.34L275.652 47.9464V22.4338L297.495 9.87598V35.34Z" fill="#F5F5F5"/>
<path d="M277.67 23.8274V46.7717L295.477 36.5068V13.5543L277.67 23.8274Z" fill="#263238"/>
<path d="M294.643 14.0404L277.67 23.8274V45.7752L294.643 35.9882V14.0404Z" fill="#37474F"/>
<path d="M286.144 18.9582V40.8898L287.003 40.3956V18.464L286.144 18.9582Z" fill="#263238"/>
<path d="M287.764 28.0242L287.943 28.1295V31.1839L287.764 31.0785V28.0242Z" fill="#E0E0E0"/>
<path d="M287.943 28.1295L288.939 27.5543V30.6087L287.943 31.1839V28.1295Z" fill="#FAFAFA"/>
<path opacity="0.05" d="M288.939 28.3967L288.502 28.6479V29.1421C288.502 29.1524 288.505 29.1625 288.51 29.1714C288.516 29.1803 288.523 29.1879 288.532 29.1934C288.54 29.199 288.55 29.2024 288.561 29.2033C288.571 29.2042 288.581 29.2027 288.591 29.1988L288.939 28.9963V28.3967Z" fill="black"/>
<path d="M288.939 27.5541L288.753 27.4487L287.764 28.024L287.943 28.1293L288.939 27.5541Z" fill="#EBEBEB"/>
<path d="M288.323 28.5426L288.777 28.81L288.963 28.494L288.51 28.2266C288.478 28.2148 288.444 28.2148 288.413 28.2266C288.377 28.2531 288.347 28.2871 288.326 28.3264C288.305 28.3656 288.293 28.409 288.291 28.4535C288.291 28.4535 288.299 28.5345 288.323 28.5426Z" fill="#E0E0E0"/>
<path opacity="0.1" d="M288.502 28.648L288.672 28.7453V28.5265L288.842 28.4212L288.68 28.324L288.502 28.4293V28.648Z" fill="black"/>
<path d="M288.72 28.5587V29.0367L290.543 27.9835V27.5055L288.72 28.5587Z" fill="#FAFAFA"/>
<path d="M288.72 28.5589L288.558 28.4617V28.9397L288.72 29.0369V28.5589Z" fill="#E0E0E0"/>
<path d="M290.543 27.5056L290.381 27.4165L288.558 28.4616L288.72 28.5589L290.543 27.5056Z" fill="#EBEBEB"/>
<path d="M288.275 29.8876C288.272 29.8274 288.285 29.7677 288.312 29.7138C288.339 29.66 288.379 29.6138 288.429 29.5797C288.526 29.523 288.599 29.5797 288.599 29.6769C288.593 29.7638 288.559 29.8463 288.502 29.9119V30.2197C288.501 30.2395 288.496 30.2588 288.486 30.2759C288.476 30.2929 288.462 30.3071 288.445 30.317H288.388V30.001C288.315 30.0172 288.275 29.9686 288.275 29.8876Z" fill="#455A64"/>
<path d="M297.495 9.8761L280.448 0L258.606 12.6307L275.652 22.4339L297.495 9.8761Z" fill="#FAFAFA"/>
<path opacity="0.4" d="M197.573 289.369C199.293 290.375 199.293 292.004 197.573 293.029C196.609 293.521 195.543 293.777 194.461 293.777C193.38 293.777 192.313 293.521 191.35 293.029C189.629 292.023 189.629 290.394 191.35 289.369C192.313 288.877 193.38 288.62 194.461 288.62C195.543 288.62 196.609 288.877 197.573 289.369Z" fill="#69A97E"/>
<path opacity="0.4" d="M245.19 318.874C246.901 319.881 246.901 321.51 245.19 322.535C244.226 323.031 243.158 323.29 242.074 323.29C240.99 323.29 239.921 323.031 238.957 322.535C237.237 321.537 237.237 319.908 238.957 318.874C239.923 318.382 240.99 318.126 242.074 318.126C243.157 318.126 244.225 318.382 245.19 318.874Z" fill="#69A97E"/>
<path d="M198.149 287.968H190.773L191.533 291.144C191.584 291.372 191.687 291.585 191.833 291.767C191.979 291.949 192.164 292.096 192.375 292.197C193.018 292.524 193.73 292.695 194.452 292.695C195.174 292.695 195.886 292.524 196.529 292.197C196.763 292.09 196.965 291.925 197.117 291.719C197.269 291.512 197.366 291.27 197.399 291.016L198.149 287.968Z" fill="#37474F"/>
<path d="M197.243 290.146C197.404 290.06 197.554 289.956 197.692 289.835L198.104 288.142C197.886 288.375 197.636 288.575 197.362 288.737C196.487 289.177 195.523 289.413 194.543 289.426C193.563 289.438 192.593 289.228 191.706 288.81L191.889 288.051L191.835 287.968H190.773L191.533 291.144C191.584 291.372 191.687 291.585 191.833 291.767C191.979 291.949 192.164 292.096 192.375 292.197C193.306 292.672 194.371 292.814 195.395 292.599C193.564 292.736 192.301 291.931 192.109 291.19C192.036 290.897 191.899 290.275 191.899 290.275C192.742 290.656 193.66 290.843 194.586 290.821C195.511 290.799 196.419 290.568 197.243 290.146Z" fill="#263238"/>
<path d="M198.525 287.035C198.483 287.238 198.402 287.43 198.287 287.602C198.048 287.943 197.735 288.224 197.371 288.426C196.473 288.883 195.479 289.12 194.47 289.12C193.462 289.12 192.468 288.883 191.569 288.426C191.206 288.224 190.893 287.943 190.654 287.602C190.539 287.43 190.458 287.238 190.416 287.035C190.376 286.627 190.468 286.217 190.679 285.866C190.89 285.515 191.208 285.241 191.588 285.086C192.486 284.629 193.48 284.391 194.489 284.391C195.497 284.391 196.491 284.629 197.39 285.086C197.764 285.245 198.076 285.52 198.281 285.872C198.485 286.223 198.571 286.631 198.525 287.035Z" fill="#455A64"/>
<path d="M198.314 287.602C198.075 287.943 197.762 288.224 197.399 288.426C196.5 288.883 195.506 289.121 194.498 289.121C193.489 289.121 192.495 288.883 191.596 288.426C191.233 288.224 190.92 287.943 190.681 287.602C190.566 287.43 190.485 287.238 190.443 287.035L190.626 288.28C190.7 288.579 190.839 288.858 191.034 289.097C191.228 289.336 191.474 289.529 191.752 289.661C192.604 290.089 193.544 290.312 194.498 290.312C195.451 290.312 196.391 290.089 197.243 289.661C197.511 289.52 197.746 289.323 197.93 289.083C198.115 288.843 198.246 288.566 198.314 288.27L198.488 287.072C198.461 287.257 198.403 287.437 198.314 287.602Z" fill="#37474F"/>
<path d="M196.877 285.36C196.128 284.981 195.301 284.784 194.461 284.784C193.622 284.784 192.794 284.981 192.045 285.36C191.736 285.49 191.475 285.713 191.299 285.999C191.123 286.284 191.042 286.618 191.066 286.953C191.133 287.21 191.255 287.45 191.424 287.655C191.593 287.861 191.805 288.027 192.045 288.142C192.793 288.525 193.621 288.725 194.461 288.725C195.301 288.725 196.13 288.525 196.877 288.142C197.117 288.027 197.329 287.861 197.498 287.655C197.667 287.45 197.79 287.21 197.857 286.953C197.881 286.618 197.799 286.284 197.623 285.999C197.448 285.713 197.187 285.49 196.877 285.36Z" fill="#263238"/>
<path d="M191.285 287.483C191.489 287.755 191.748 287.979 192.045 288.142C192.793 288.525 193.621 288.725 194.461 288.725C195.301 288.725 196.129 288.525 196.877 288.142C197.174 287.979 197.433 287.755 197.637 287.483C197.607 287.21 197.507 286.95 197.346 286.727C197.186 286.504 196.971 286.326 196.722 286.211C196.028 285.855 195.259 285.669 194.479 285.669C193.699 285.669 192.931 285.855 192.237 286.211C191.981 286.321 191.758 286.497 191.591 286.72C191.424 286.943 191.319 287.207 191.285 287.483Z" fill="#FAFAFA"/>
<path d="M197.179 275.952L195.084 277.782L197.143 276.73C197.164 277.41 197.065 278.089 196.85 278.734C196.292 279.1 195.763 279.507 195.267 279.951L196.85 279.256C196.922 280.159 196.845 281.068 196.621 281.947C196.385 282.573 196.11 283.184 195.797 283.777C195.672 284.061 195.529 284.336 195.367 284.601V284.655C194.992 284.454 194.608 284.271 194.196 284.088C193.794 283.142 193.514 282.149 193.363 281.132C192.741 276.94 195.834 274.405 198.36 273.499C197.821 274.239 197.421 275.07 197.179 275.952Z" fill="#69A97E"/>
<path d="M195.376 276.199C194.972 276.676 194.684 277.24 194.535 277.846C194.364 278.443 194.259 279.057 194.223 279.677C194.13 280.927 194.334 282.181 194.818 283.337C194.826 283.35 194.831 283.364 194.831 283.379C194.831 283.393 194.826 283.408 194.818 283.42C194.807 283.43 194.792 283.435 194.777 283.435C194.762 283.435 194.747 283.43 194.736 283.42C194.273 282.258 194.085 281.005 194.187 279.759C194.239 279.139 194.356 278.525 194.535 277.929C194.672 277.293 194.961 276.7 195.376 276.199Z" fill="white"/>
<path d="M188.119 277.599C188.795 278.81 189.391 280.064 189.904 281.352L192.146 282.13H190.389L191.048 283.74L193.235 284.61H191.405C191.523 285.647 191.987 286.614 192.722 287.355C193.354 287.877 193.638 287.941 193.931 287.831C194.223 287.721 194.498 287.236 194.754 286.513C195.031 285.244 194.967 283.925 194.571 282.688C194.449 282.266 194.271 281.863 194.04 281.489C192.603 279.518 190.499 278.136 188.119 277.599Z" fill="#69A97E"/>
<path opacity="0.1" d="M188.119 277.599C188.795 278.81 189.391 280.064 189.904 281.352L192.146 282.13H190.389L191.048 283.74L193.235 284.61H191.405C191.523 285.647 191.987 286.614 192.722 287.355C193.354 287.877 193.638 287.941 193.931 287.831C194.223 287.721 194.498 287.236 194.754 286.513C195.031 285.244 194.967 283.925 194.571 282.688C194.449 282.266 194.271 281.863 194.04 281.489C192.603 279.518 190.499 278.136 188.119 277.599Z" fill="black"/>
<path d="M190.398 278.78C191.514 279.491 192.471 280.426 193.207 281.525C193.57 282.09 193.842 282.707 194.013 283.356C194.18 284.004 194.238 284.675 194.187 285.342C194.179 284.683 194.087 284.028 193.912 283.392C193.737 282.75 193.476 282.134 193.134 281.562C192.423 280.441 191.488 279.478 190.389 278.734L190.398 278.78Z" fill="white"/>
<path d="M202.433 278.386C202.201 278.369 201.969 278.369 201.737 278.386C200.829 278.494 199.938 278.713 199.083 279.036C198.771 279.154 198.466 279.289 198.168 279.439C198.012 279.512 197.857 279.585 197.701 279.677C196.943 280.073 196.257 280.593 195.669 281.214C195.397 281.512 195.161 281.841 194.965 282.194C194.944 282.241 194.919 282.287 194.892 282.331L194.736 282.688C194.258 283.707 194.05 284.832 194.132 285.955C194.144 286.591 194.297 287.216 194.58 287.785L194.654 287.84C194.882 287.978 195.239 287.895 195.907 287.52C196.8 286.867 197.445 285.932 197.738 284.866L195.907 284.546L198.305 284.07L199.229 282.596L197.399 282.267L199.843 281.892C200.616 280.675 201.459 279.505 202.369 278.386H202.433Z" fill="#69A97E"/>
<path d="M201.737 278.414C200.829 278.522 199.938 278.74 199.083 279.064C198.771 279.182 198.466 279.316 198.168 279.466C198.012 279.54 197.857 279.613 197.701 279.704C196.943 280.101 196.257 280.62 195.669 281.242C195.397 281.54 195.161 281.868 194.965 282.221C194.944 282.269 194.919 282.315 194.892 282.358L194.736 282.715C194.258 283.735 194.05 284.86 194.132 285.983C194.144 286.618 194.297 287.243 194.58 287.813L194.654 287.868C194.698 287.895 194.748 287.914 194.8 287.923C194.57 285.644 195.244 283.366 196.677 281.58C198.109 279.793 200.186 278.64 202.46 278.368C202.218 278.364 201.976 278.379 201.737 278.414Z" fill="#69A97E"/>
<path opacity="0.2" d="M201.737 278.414C200.829 278.522 199.938 278.74 199.083 279.064C198.771 279.182 198.466 279.316 198.168 279.466C198.012 279.54 197.857 279.613 197.701 279.704C196.943 280.101 196.257 280.62 195.669 281.242C195.397 281.54 195.161 281.868 194.965 282.221C194.944 282.269 194.919 282.315 194.892 282.358L194.736 282.715C194.258 283.735 194.05 284.86 194.132 285.983C194.144 286.618 194.297 287.243 194.58 287.813L194.654 287.868C194.698 287.895 194.748 287.914 194.8 287.923C194.57 285.644 195.244 283.366 196.677 281.58C198.109 279.793 200.186 278.64 202.46 278.368C202.218 278.364 201.976 278.379 201.737 278.414Z" fill="black"/>
<path d="M194.754 287.941C194.694 287.022 194.755 286.098 194.937 285.195C195.103 284.295 195.412 283.427 195.852 282.624C196.334 281.838 196.954 281.147 197.683 280.583C198.397 280.012 199.185 279.541 200.026 279.183C199.229 279.606 198.478 280.109 197.783 280.683C197.433 280.965 197.102 281.271 196.795 281.599C196.478 281.914 196.201 282.267 195.971 282.651C195.534 283.442 195.225 284.298 195.056 285.186C194.858 286.072 194.778 286.979 194.818 287.886L194.754 287.941Z" fill="white"/>
<path d="M245.757 317.474H238.39L239.149 320.649C239.202 320.878 239.305 321.092 239.453 321.274C239.601 321.457 239.788 321.603 240.001 321.702C240.643 322.028 241.353 322.198 242.073 322.198C242.794 322.198 243.504 322.028 244.146 321.702C244.373 321.596 244.57 321.437 244.72 321.237C244.87 321.038 244.968 320.804 245.007 320.558L245.757 317.474Z" fill="#37474F"/>
<path d="M244.86 319.652C245.015 319.56 245.162 319.456 245.3 319.341L245.711 317.648C245.498 317.884 245.248 318.085 244.97 318.242C244.095 318.683 243.131 318.918 242.151 318.931C241.171 318.943 240.201 318.733 239.314 318.316L239.497 317.556L239.433 317.474H238.381L239.14 320.649C239.193 320.878 239.296 321.092 239.444 321.274C239.592 321.457 239.779 321.603 239.992 321.702C240.92 322.175 241.982 322.317 243.003 322.104C241.172 322.242 239.909 321.436 239.717 320.695C239.644 320.402 239.516 319.78 239.516 319.78C240.359 320.161 241.277 320.348 242.203 320.326C243.128 320.304 244.036 320.073 244.86 319.652Z" fill="#263238"/>
<path d="M246.142 316.54C246.1 316.745 246.016 316.938 245.894 317.108C245.658 317.45 245.345 317.732 244.979 317.931C244.082 318.386 243.089 318.624 242.083 318.624C241.076 318.624 240.084 318.386 239.186 317.931C238.819 317.735 238.505 317.452 238.271 317.108C238.149 316.938 238.065 316.745 238.024 316.54C237.878 315.845 238.271 315.122 239.195 314.582C240.093 314.127 241.085 313.89 242.092 313.89C243.098 313.89 244.091 314.127 244.988 314.582C245.365 314.742 245.68 315.019 245.887 315.371C246.095 315.724 246.184 316.133 246.142 316.54Z" fill="#455A64"/>
<path d="M245.904 317.108C245.667 317.45 245.354 317.732 244.989 317.931C244.091 318.386 243.099 318.623 242.092 318.623C241.086 318.623 240.093 318.386 239.195 317.931C238.828 317.735 238.514 317.452 238.28 317.108C238.159 316.938 238.074 316.745 238.033 316.54L238.216 317.785C238.29 318.084 238.429 318.364 238.623 318.603C238.818 318.842 239.064 319.034 239.342 319.167C240.194 319.596 241.134 319.819 242.087 319.819C243.041 319.819 243.981 319.596 244.833 319.167C245.108 319.034 245.35 318.843 245.545 318.608C245.739 318.372 245.88 318.098 245.959 317.803V317.739L246.133 316.54C246.097 316.743 246.019 316.937 245.904 317.108Z" fill="#37474F"/>
<path d="M244.485 314.865C243.738 314.487 242.912 314.289 242.074 314.289C241.236 314.289 240.41 314.487 239.662 314.865C239.349 314.991 239.085 315.213 238.907 315.5C238.729 315.786 238.648 316.122 238.674 316.458C238.742 316.716 238.865 316.957 239.036 317.162C239.207 317.368 239.421 317.533 239.662 317.648C240.408 318.031 241.235 318.231 242.074 318.231C242.912 318.231 243.739 318.031 244.485 317.648C244.725 317.532 244.937 317.366 245.106 317.161C245.275 316.955 245.397 316.715 245.464 316.458C245.493 316.123 245.413 315.787 245.237 315.5C245.061 315.214 244.797 314.991 244.485 314.865Z" fill="#263238"/>
<path d="M238.903 316.989C239.101 317.264 239.361 317.49 239.662 317.647C240.408 318.031 241.235 318.231 242.074 318.231C242.913 318.231 243.739 318.031 244.485 317.647C244.784 317.487 245.044 317.262 245.245 316.989C245.216 316.715 245.116 316.454 244.956 316.231C244.795 316.008 244.579 315.831 244.33 315.716C243.634 315.36 242.864 315.174 242.083 315.174C241.301 315.174 240.531 315.36 239.836 315.716C239.583 315.828 239.363 316.005 239.2 316.228C239.036 316.451 238.933 316.713 238.903 316.989Z" fill="#FAFAFA"/>
<path d="M244.796 305.457L242.691 307.288L244.75 306.235C244.772 306.915 244.676 307.593 244.467 308.24C243.906 308.604 243.373 309.011 242.874 309.457L244.458 308.761C244.53 309.665 244.453 310.574 244.229 311.452C243.996 312.078 243.724 312.69 243.414 313.282C243.286 313.566 243.139 313.841 242.975 314.106V314.161C242.6 313.959 242.206 313.776 241.804 313.593C241.399 312.648 241.119 311.655 240.971 310.637C240.348 306.446 243.433 303.911 245.958 303.005C245.427 303.746 245.034 304.577 244.796 305.457Z" fill="#69A97E"/>
<path d="M242.984 305.704C242.584 306.183 242.299 306.746 242.151 307.352C241.982 307.949 241.874 308.563 241.831 309.182C241.736 310.433 241.944 311.689 242.435 312.843C242.435 312.843 242.435 312.916 242.435 312.925C242.425 312.934 242.412 312.939 242.398 312.939C242.385 312.939 242.372 312.934 242.362 312.925C241.888 311.767 241.7 310.511 241.813 309.265C241.858 308.644 241.972 308.03 242.151 307.434C242.295 306.802 242.58 306.211 242.984 305.704Z" fill="white"/>
<path d="M235.727 307.105C236.397 308.317 236.99 309.57 237.502 310.857L239.744 311.635H237.996L238.646 313.246L240.834 314.115H239.003C239.124 315.153 239.592 316.121 240.33 316.861C240.962 317.382 241.245 317.446 241.538 317.336C241.831 317.227 242.106 316.742 242.353 316.019C242.635 314.751 242.575 313.43 242.179 312.193C242.057 311.77 241.876 311.366 241.639 310.994C240.209 309.02 238.106 307.637 235.727 307.105Z" fill="#69A97E"/>
<path opacity="0.1" d="M235.727 307.105C236.397 308.317 236.99 309.57 237.502 310.857L239.744 311.635H237.996L238.646 313.246L240.834 314.115H239.003C239.124 315.153 239.592 316.121 240.33 316.861C240.962 317.382 241.245 317.446 241.538 317.336C241.831 317.227 242.106 316.742 242.353 316.019C242.635 314.751 242.575 313.43 242.179 312.193C242.057 311.77 241.876 311.366 241.639 310.994C240.209 309.02 238.106 307.637 235.727 307.105Z" fill="black"/>
<path d="M238.006 308.285C239.124 308.994 240.081 309.929 240.815 311.031C241.181 311.594 241.456 312.212 241.63 312.861C241.794 313.509 241.85 314.181 241.795 314.847C241.784 314.188 241.688 313.533 241.511 312.898C241.339 312.256 241.08 311.64 240.742 311.067C240.027 309.949 239.093 308.987 237.997 308.24L238.006 308.285Z" fill="white"/>
<path d="M250.04 307.892C249.809 307.875 249.576 307.875 249.345 307.892C248.437 308 247.546 308.218 246.691 308.542C246.37 308.661 246.059 308.789 245.776 308.944C245.62 309.017 245.464 309.091 245.318 309.173C244.56 309.573 243.871 310.092 243.277 310.711C243.006 311.01 242.772 311.342 242.582 311.699C242.554 311.743 242.529 311.789 242.508 311.836C242.446 311.952 242.391 312.071 242.344 312.193C241.87 313.214 241.662 314.338 241.74 315.46C241.753 316.097 241.91 316.723 242.197 317.291L242.261 317.346C242.49 317.483 242.847 317.401 243.524 317.025C244.419 316.375 245.064 315.438 245.355 314.371L243.524 314.051L245.922 313.575L246.901 312.056L245.071 311.726L247.505 311.351C248.279 310.133 249.126 308.963 250.04 307.846V307.892Z" fill="#69A97E"/>
<path d="M249.345 307.919C248.437 308.027 247.546 308.245 246.691 308.569C246.37 308.688 246.059 308.816 245.776 308.972C245.62 309.045 245.464 309.118 245.318 309.201C244.56 309.601 243.871 310.12 243.277 310.738C243.006 311.038 242.772 311.37 242.582 311.726C242.554 311.77 242.529 311.816 242.508 311.864C242.446 311.979 242.391 312.098 242.344 312.221C241.87 313.241 241.662 314.365 241.74 315.488C241.753 316.124 241.91 316.75 242.197 317.318L242.261 317.373C242.311 317.397 242.363 317.415 242.417 317.428C242.346 315.465 242.811 313.519 243.762 311.8C245.347 309.796 247.58 308.408 250.077 307.874C249.832 307.869 249.587 307.884 249.345 307.919Z" fill="#69A97E"/>
<path opacity="0.2" d="M249.345 307.919C248.437 308.027 247.546 308.245 246.691 308.569C246.37 308.688 246.059 308.816 245.776 308.972C245.62 309.045 245.464 309.118 245.318 309.201C244.56 309.601 243.871 310.12 243.277 310.738C243.006 311.038 242.772 311.37 242.582 311.726C242.554 311.77 242.529 311.816 242.508 311.864C242.446 311.979 242.391 312.098 242.344 312.221C241.87 313.241 241.662 314.365 241.74 315.488C241.753 316.124 241.91 316.75 242.197 317.318L242.261 317.373C242.311 317.397 242.363 317.415 242.417 317.428C242.346 315.465 242.811 313.519 243.762 311.8C245.347 309.796 247.58 308.408 250.077 307.874C249.832 307.869 249.587 307.884 249.345 307.919Z" fill="black"/>
<path d="M242.371 317.446C242.308 316.527 242.366 315.604 242.545 314.701C242.715 313.801 243.024 312.934 243.46 312.129C243.945 311.346 244.565 310.655 245.29 310.088C246.003 309.52 246.788 309.049 247.624 308.688C246.826 309.113 246.072 309.616 245.373 310.189C245.024 310.472 244.694 310.778 244.384 311.104C244.07 311.422 243.793 311.775 243.561 312.157C243.123 312.948 242.814 313.803 242.646 314.692C242.451 315.578 242.371 316.485 242.408 317.391L242.371 317.446Z" fill="white"/>
</svg>
