<svg width="47" height="92" viewBox="0 0 47 92" fill="none" xmlns="http://www.w3.org/2000/svg">
<path d="M27.7676 90.1972C32.2414 90.1972 35.8681 87.5902 35.8681 84.3744C35.8681 81.1585 32.2414 78.5516 27.7676 78.5516C23.2939 78.5516 19.6672 81.1585 19.6672 84.3744C19.6672 87.5902 23.2939 90.1972 27.7676 90.1972Z" fill="#E9EBF2"/>
<path d="M10.9871 34.3767C10.2893 33.1397 9.46631 31.964 8.54489 32.0141L2.26491 42.1106C2.21571 42.183 2.17993 42.2778 2.15757 42.3836C2.05022 42.9074 2.31412 43.4368 2.72116 43.6207C3.10135 43.7934 3.49053 43.8993 3.87072 43.8937L10.8037 36.26C11.2376 35.7808 11.3181 34.9729 10.9871 34.3822V34.3767Z" fill="#F68A8B"/>
<path d="M8.4541 33.4016L10.2209 19.8505L13.7322 26.431L15.6152 22.2854L11.2452 35.4855C10.9813 37.0624 9.46945 36.1208 8.67775 34.8504L8.45858 33.4016H8.4541Z" fill="#F78C8B"/>
<path d="M4.19473 43.0634C4.22157 44.189 2.34745 45.1474 1.64967 45.4817C1.20238 45.6934 0.974215 46.2506 0.594018 46.5794C-0.255835 47.3093 0.0170128 45.3981 0.146727 44.9635C0.388264 44.1611 0.786357 42.8907 1.49308 42.5787C2.04324 42.3391 2.63371 41.988 3.21519 41.8988C3.35385 41.8766 3.49246 41.9546 3.60875 42.0549C4.01579 42.4003 4.18131 42.7403 4.19025 43.069L4.19473 43.0634Z" fill="#F68A8B"/>
<path d="M15.0923 18.6412C14.8284 17.3262 14.4303 15.922 13.7191 14.8689C13.0705 13.9105 12.3056 13.7879 11.4692 14.2727C10.682 15.5376 10.2392 17.85 10.0513 18.8139C9.79191 20.1456 9.56378 21.494 9.37145 22.8425L9.01359 25.6452C9.01359 25.6452 8.91971 29.2336 13.1958 29.5846C13.7996 29.6347 14.3632 29.4899 14.8821 29.2002C15.7677 25.8514 15.7677 22.0122 15.0878 18.6412H15.0923Z" fill="#748BC9"/>
<path d="M16.1289 17.4989C16.9027 20.6917 17.0682 24.3636 16.5047 27.7347C18.5756 25.088 19.6088 20.5468 19.6088 20.5468L16.7283 14.1779L14.6082 13.7656C15.3596 14.8076 15.8113 16.1839 16.1289 17.4989Z" fill="#748BC9"/>
<path d="M42.574 50.6135L42.0999 50.7194L34.818 52.391C33.9637 52.5861 33.1273 52.898 32.3267 53.3215L30.6404 54.2075L25.8632 56.726L25.644 56.8431L26.4492 58.2305C26.6997 58.6651 26.9993 59.0384 27.3259 59.3505C28.4933 60.4482 30.0678 60.7435 31.4812 60.0247L34.657 58.4088L42.4891 54.4248L43.2539 54.0348C43.0258 52.8925 42.8066 51.7502 42.5696 50.6135H42.574Z" fill="#F68A8B"/>
<path d="M32.4642 73.6648L31.5786 73.0296C31.5204 72.985 31.4623 72.9461 31.3997 72.9071C30.0936 72.0713 28.5146 72.2997 27.3293 73.3807C24.9363 75.5593 22.3152 77.3647 19.6673 78.975C17.5561 80.2566 15.3912 81.4211 13.195 82.4687C13.1279 82.5021 13.0652 82.5299 12.9981 82.5633C12.9802 82.5689 12.9669 82.5801 12.949 82.5856C12.4838 82.8085 12.0141 83.0203 11.5489 83.2264L9.08431 84.9984C7.31304 86.2688 7.31304 88.3527 9.08431 89.6231L9.96994 90.2583C11.5802 91.4173 14.2148 91.4173 15.825 90.2583L32.4687 78.2896C34.24 77.0192 34.24 74.9353 32.4687 73.6648H32.4642Z" fill="#8DC0EF"/>
<path d="M33.5829 74.9967C33.3727 75.4982 32.997 75.9718 32.4468 76.3674L15.8031 88.3361C14.1929 89.4951 11.5584 89.4951 9.94814 88.3361L9.06251 87.7009C8.52577 87.3165 8.15899 86.854 7.94429 86.3692C7.47911 87.4836 7.85921 88.7484 9.08031 89.6288L9.96594 90.264C11.5762 91.423 14.2108 91.423 15.821 90.264L32.4647 78.2954C33.6992 77.4094 34.0705 76.1278 33.5829 75.0023V74.9967Z" fill="#616FA4"/>
<path d="M17.4481 91.8241C17.7347 91.8241 17.9669 91.4399 17.9669 90.966C17.9669 90.4921 17.7347 90.1079 17.4481 90.1079C17.1616 90.1079 16.9292 90.4921 16.9292 90.966C16.9292 91.4399 17.1616 91.8241 17.4481 91.8241Z" fill="#633750"/>
<path d="M31.1805 81.5773C31.4671 81.5773 31.6994 81.1931 31.6994 80.7192C31.6994 80.2453 31.4671 79.8611 31.1805 79.8611C30.894 79.8611 30.6616 80.2453 30.6616 80.7192C30.6616 81.1931 30.894 81.5773 31.1805 81.5773Z" fill="#633750"/>
<path d="M22.4393 78.3901L22.5153 81.3432C22.5332 82.0676 22.1844 82.7307 21.6387 82.9925L17.1523 85.1768C16.9555 85.2715 16.7319 85.2214 16.5753 85.0486C16.4545 84.9149 16.3875 84.731 16.383 84.5416C16.383 84.497 16.383 84.4469 16.392 84.4023C16.4099 84.2741 16.4546 84.146 16.5306 84.0457L19.3396 80.2344L19.3173 79.1033L18.9997 77.1977L15.8284 58.0522C15.73 57.3613 15.6897 56.6593 15.7121 55.9516L16.3606 30.1921L26.7467 30.1643L20.3237 57.0047C20.3237 57.0047 22.4707 65.4909 22.4573 76.1223C22.4573 76.8633 22.4438 77.6211 22.4214 78.3845H22.4393V78.3901Z" fill="#F68A8B"/>
<path d="M15.627 43.994L15.703 58.1804C15.703 58.1804 17.9351 61.4233 21.3479 58.6428L24.206 44.0219L16.535 40.4056L15.6226 43.9884L15.627 43.994Z" fill="#616FA4"/>
<path d="M21.3383 46.5847L26.1914 57.9628C26.5 58.6871 27.0592 59.1942 27.7122 59.3223C29.0675 59.5898 31.5723 58.9769 32.0644 55.8733L28.9959 41.7649L20.8418 42.8737L21.3383 46.5847Z" fill="#647ABE"/>
<path d="M22.5125 81.3431C22.5304 82.0674 22.1815 82.7305 21.6358 82.9924L17.1495 85.1766C16.9526 85.2714 16.729 85.2212 16.5724 85.0485C16.4517 84.9148 16.3846 84.7309 16.3801 84.5414C16.3801 84.4968 16.3801 84.4467 16.3891 84.4021C16.407 84.274 16.4517 84.1458 16.5278 84.0455L19.3368 80.2343L19.3144 79.1031L18.9968 77.1975C19.2876 77.3145 21.0365 77.9219 22.4499 76.1277C22.4499 76.8688 22.4364 77.6265 22.4141 78.3899H22.432L22.508 81.3487L22.5125 81.3431Z" fill="#DADEF0"/>
<path d="M46.5969 57.2218L45.9751 50.8084C45.9259 50.2902 45.5324 49.928 45.1209 50.0228L42.0972 50.7137C42.0972 50.7137 43.2423 52.2794 42.4864 54.4135L44.2308 53.5219L45.7158 57.5227C45.7829 57.7121 45.9304 57.8403 46.0959 57.857C46.3867 57.8849 46.6282 57.5784 46.5925 57.2106L46.5969 57.2218Z" fill="#DADEF0"/>
<path d="M27.772 45.6878C27.1145 45.8605 26.3094 46.0165 25.3209 46.1391C19.3764 46.9025 15.7757 44.1053 15.6326 43.9939C15.6326 43.9939 15.6326 43.9883 15.6281 43.9827L10.5379 17.7943C10.4887 15.9277 11.2492 14.1725 12.515 13.1807C12.922 12.8631 14.0626 13.2086 14.7067 13.1807C14.9974 13.1696 15.3016 13.1807 15.6236 13.2197C17.2339 13.398 19.0365 14.1558 19.9758 14.9192L20.1324 15.0362L20.3202 15.1755L21.5592 16.0837C21.8052 16.2564 22.0244 16.4626 22.2122 16.7022C22.3911 16.9251 22.5432 17.1702 22.673 17.4432C23.8672 19.0034 24.7573 20.8868 25.2851 22.9373L30.5497 43.5259C30.5497 43.5259 31.1356 44.8019 27.772 45.6767V45.6878Z" fill="#8DC0EF"/>
<g style="mix-blend-mode:multiply" opacity="0.39">
<path d="M30.5557 43.5371L25.291 22.9485C25.1479 22.3968 24.9825 21.8564 24.7901 21.3326C24.146 21.7673 23.5422 22.7423 23.1978 23.6394C23.4885 24.9098 23.7122 26.197 23.8956 27.512C24.0074 28.3422 24.0969 29.1669 24.2713 30.0082C24.7454 32.3206 25.9888 34.0981 26.6508 36.26C27.2055 38.0709 26.8879 39.3079 26.794 40.8848C26.7045 42.3893 27.0981 44.0887 27.7825 45.6823C31.1461 44.8075 30.5601 43.5315 30.5601 43.5315L30.5557 43.5371Z" fill="#8DC0EF"/>
</g>
<path d="M18.6643 15.0696C18.7627 16.3791 17.2508 17.8278 15.6853 17.8891C14.1198 17.9503 13.1 16.6019 13.0016 15.2925C12.9032 13.9831 14.0886 12.8742 15.6541 12.813C17.2196 12.7517 18.5659 13.7602 18.6643 15.0696Z" fill="#DADEF0"/>
<path d="M17.318 9.43635C17.3269 9.77067 17.1167 10.0438 16.8528 10.0549C16.5889 10.0661 16.3652 9.80414 16.3562 9.4754C16.3473 9.14107 16.5575 8.86805 16.8214 8.85691C17.0853 8.84577 17.309 9.1076 17.318 9.43635Z" fill="white"/>
<path d="M16.8547 10.2164C16.5193 10.2275 16.233 9.8988 16.2241 9.48089C16.2152 9.06299 16.479 8.70637 16.8144 8.69522C17.1499 8.68408 17.4362 9.0128 17.4452 9.4307C17.4541 9.8486 17.1902 10.2052 16.8547 10.2164ZM16.8234 9.0128C16.6266 9.01837 16.4745 9.22457 16.479 9.46974C16.4834 9.71491 16.649 9.90437 16.8458 9.8988C17.0426 9.89322 17.1947 9.68702 17.1902 9.44185C17.1857 9.19668 17.0202 9.00722 16.8234 9.0128Z" fill="white"/>
<path d="M13.4761 15.1587C13.5074 16.3344 14.4959 17.2538 15.6812 17.2092C16.871 17.1646 17.8104 16.1672 17.7791 14.9915C17.7478 13.8158 16.7592 12.8964 15.5739 12.941C14.3885 12.9856 13.4448 13.983 13.4761 15.1587Z" fill="#ED7A7F"/>
<path d="M17.415 13.8659L16.3013 9.06836L13.8322 9.65338L13.7114 15.4984L17.415 13.8659Z" fill="#ED7A7F"/>
<path d="M32.406 23.2105C29.9951 21.6726 24.9228 18.5355 21.8454 17.3877C21.0045 17.0757 20.1189 17.4546 19.77 18.3405C19.5151 18.9925 19.524 19.923 20.3291 21.1934C21.595 23.1826 26.5286 25.6566 29.6015 27.2892C31.0596 28.0692 32.5491 27.6792 33.1038 26.041L33.2379 25.651C33.5376 24.7651 33.1753 23.7008 32.4105 23.2105H32.406Z" fill="#FBA1A0"/>
<path d="M39.8033 34.2706L33.9124 24.8315C33.7872 24.6421 33.6396 24.4917 33.483 24.3746L33.3667 24.1963C32.5258 22.9147 30.3431 24.2799 30.2626 25.7565C30.2536 25.9459 30.3476 27.3557 30.3789 27.3891L32.8211 29.9968C32.8479 29.9801 35.3303 33.1227 35.3616 33.106L38.2601 36.048C38.6268 36.4659 39.1771 36.5105 39.5797 36.1539C40.0717 35.7248 40.1701 34.8668 39.8033 34.2761V34.2706Z" fill="#FBA1A0"/>
<path d="M20.9685 16.7747C20.9685 16.7747 23.9117 17.0978 27.9731 20.09C27.9731 20.09 28.5456 23.684 26.4165 26.197L21.4248 23.5502C21.4248 23.5502 16.8758 19.4047 20.9685 16.7802V16.7747Z" fill="#8DC0EF"/>
<path d="M41.637 37.0845C41.3731 36.9452 41.06 36.9063 40.8542 36.6611C40.6619 36.4271 40.6127 36.076 40.5322 35.7584C40.2862 34.761 39.66 33.9141 38.8772 33.5407C38.6223 33.4182 38.3226 33.3458 38.081 33.5129C37.6293 33.8305 37.7322 34.6663 37.9021 35.2792L37.4861 34.6998C37.75 37.0066 39.7808 38.7394 41.6012 38.2157C41.7623 38.1711 41.9367 38.0931 42.0127 37.9148C42.1514 37.6028 41.9009 37.2294 41.637 37.0901V37.0845Z" fill="#FAA0A0"/>
<path d="M18.0112 2.95041C17.6847 2.66066 17.1792 2.66617 16.9645 3.09522C17.0271 2.15355 16.5529 1.23418 15.9043 0.810705C14.4372 -0.153253 12.3081 0.387278 11.4493 2.32077C10.2953 4.91733 10.9037 5.5302 12.496 6.93434C13.744 8.03203 14.9919 9.70366 16.6201 9.6758C18.5658 9.64237 18.937 6.48304 18.6105 4.4604C18.5255 3.92549 18.3913 3.36831 18.0737 3.01727C18.0559 2.99498 18.0335 2.97263 18.0112 2.95592V2.95041Z" fill="#3B172D"/>
<path d="M15.375 6.17658C13.8229 6.30473 12.2038 5.80329 11.0766 4.61646C10.3073 10.5618 10.7769 12.5398 12.3022 13.5149C13.8051 14.4789 16.69 10.4671 16.69 10.4671L16.5603 9.20779C15.5628 8.79546 15.3213 7.50271 15.3705 6.171L15.375 6.17658Z" fill="#FAA0A0"/>
<path d="M16.9953 3.16216C17.0311 3.3126 17.0489 3.46866 17.0355 3.62468C17.0132 3.87542 16.9102 4.10385 16.785 4.30445C16.3601 4.98981 15.1793 6.04849 14.5442 6.46639C13.4438 7.19075 11.9588 7.62537 10.76 7.01802C9.80728 6.53325 8.76062 5.06782 9.74913 3.8977C9.84306 3.78626 9.95941 3.68596 10.022 3.54108C10.1249 3.30149 10.0623 3.01729 10.0444 2.74983C9.97732 1.86946 10.4514 0.966816 11.1313 0.688215C11.2342 0.643639 11.3504 0.621351 11.4444 0.688215C11.5294 0.749507 11.5741 0.872075 11.6501 0.950084C11.838 1.1451 12.1288 0.989112 12.2898 0.766232C12.4553 0.543351 12.5671 0.253571 12.7773 0.103127C13.1083 -0.130898 13.5288 0.0697244 13.8374 0.342753C14.1461 0.615782 14.4323 0.972355 14.8035 1.07265C15.1256 1.15623 15.4655 1.03927 15.7831 1.12843C16.3735 1.30116 16.6777 2.09796 16.8968 2.80561C16.9326 2.92262 16.9685 3.04515 16.9998 3.16773L16.9953 3.16216Z" fill="#3B172D"/>
<path d="M13.4258 11.4421C12.9695 11.4421 12.482 10.935 12.2896 10.2274C12.1644 9.77047 12.1822 9.32472 12.3388 8.9904C12.4461 8.76195 12.6116 8.61149 12.8084 8.56135C13.296 8.44433 13.8686 8.97926 14.0788 9.75934C14.204 10.2162 14.1861 10.662 14.0295 10.9963C13.9222 11.2248 13.7567 11.3752 13.5599 11.4254C13.5151 11.4365 13.4705 11.4421 13.4213 11.4421H13.4258ZM12.9561 8.76751C12.9203 8.76751 12.8845 8.76752 12.8487 8.77866C12.7011 8.8121 12.5759 8.92351 12.4954 9.10182C12.3701 9.37484 12.3567 9.76489 12.4595 10.1549C12.6429 10.8347 13.1261 11.3083 13.5331 11.2081C13.6807 11.1746 13.8059 11.0632 13.8864 10.8849C14.0116 10.6119 14.0251 10.2163 13.9222 9.83178C13.7522 9.21329 13.3408 8.76193 12.9606 8.76193L12.9561 8.76751Z" fill="#3A172D"/>
<path d="M13.9861 9.55875C14.0084 9.6089 14.0263 9.65348 14.0487 9.70363L17.5017 7.9317L17.4392 7.79797L13.9861 9.56433V9.55875Z" fill="#3A172D"/>
<path d="M11.0061 10.0715C11.0061 10.0715 10.9882 10.0715 10.9837 10.0715C10.8182 10.0604 10.6439 9.96012 10.4784 9.77067C10.2905 9.55336 10.134 9.24129 10.04 8.89583C9.91478 8.42778 9.92375 7.9709 10.0624 7.67001C10.1429 7.50285 10.2547 7.39696 10.3979 7.36353C10.5902 7.31338 10.8228 7.41926 11.024 7.65328C11.1985 7.85387 11.3416 8.12692 11.4355 8.43895L11.4579 8.51697C11.4579 8.51697 11.4579 8.52806 11.4579 8.53363V8.54479L11.4848 8.65069C11.5787 9.07417 11.5608 9.49207 11.431 9.7651C11.3505 9.93226 11.2387 10.0381 11.0956 10.0715C11.0643 10.0771 11.033 10.0827 10.9972 10.0827L11.0061 10.0715ZM10.5947 9.60906C10.7288 9.75951 10.863 9.84863 10.9882 9.8542C11.0151 9.8542 11.042 9.85419 11.0688 9.84862C11.1627 9.82633 11.2343 9.75948 11.288 9.64804C11.3998 9.40844 11.4043 8.9961 11.2969 8.59492C11.212 8.28289 11.0732 8.00433 10.9077 7.80931C10.7467 7.62544 10.5767 7.53625 10.4336 7.56969C10.3441 7.59197 10.2726 7.65884 10.2189 7.77585C10.1071 8.02102 10.1026 8.42221 10.2099 8.82339C10.2949 9.13542 10.4336 9.41404 10.5991 9.60906H10.5947Z" fill="#3A172D"/>
<path d="M12.3037 9.11864C11.8296 8.57815 11.4717 8.75646 11.4582 8.7676L11.3867 8.56702C11.3867 8.56702 11.8608 8.31625 12.4244 8.95703L12.3037 9.11864Z" fill="#231F20"/>
<path d="M15.7127 10.1662C16.0214 10.6789 16.7236 10.6789 17.2783 10.1662C17.8329 9.64804 18.0297 8.81226 17.7211 8.29963C17.4124 7.787 16.7102 7.787 16.1556 8.29963C15.6009 8.81226 15.4041 9.65362 15.7127 10.1662Z" fill="#FAA0A0"/>
<path d="M15.9654 7.92616C15.9654 7.92616 15.9654 7.90391 15.9609 7.89276C16.0414 7.63645 16.0279 7.32439 16.0235 7.03465C16.0235 6.87863 15.858 6.85635 15.8132 6.96779C15.8043 6.9455 15.7998 6.92321 15.7864 6.90093C15.7685 6.85635 15.7462 6.80619 15.7193 6.75047C15.7104 6.72818 15.7014 6.71148 15.6925 6.69476C15.6567 6.62233 15.6119 6.54431 15.5627 6.47745C15.5538 6.4663 15.5494 6.45513 15.5405 6.44398C15.5405 6.31583 15.5405 6.18213 15.5405 6.05955C15.5405 5.56921 15.8222 5.11785 15.5225 4.71109C15.4241 4.57737 15.2631 4.77795 15.3615 4.91168C15.5225 5.12899 15.3436 5.55247 15.3213 5.8255C15.3123 5.79207 15.2989 5.75867 15.2899 5.72524C15.2586 5.62494 15.1289 5.56919 15.0842 5.69177C15.0305 5.8255 14.9992 5.9648 14.9813 6.1041C14.6011 6.64458 14.8471 8.91241 15.4286 9.25788C15.5718 9.43061 15.7327 9.50862 15.8982 9.33032C16.1576 9.04614 16.028 8.28834 15.9743 7.93174L15.9654 7.92616Z" fill="#3B172D"/>
</svg>
