<svg width="106" height="120" viewBox="0 0 106 120" fill="none" xmlns="http://www.w3.org/2000/svg">
<path d="M89.2779 46.4616C88.6736 46.3991 88.0641 46.5102 87.5207 46.7819C86.503 47.3624 85.5438 48.0397 84.6562 48.8045C83.7628 49.5759 82.6545 50.055 81.4805 50.1773C80.8966 50.2217 80.3152 50.0641 79.8337 49.7309C79.3521 49.3976 78.9998 48.909 78.8357 48.3469C78.8206 48.1447 78.7711 47.9466 78.6892 47.7612C78.5723 47.6146 78.4107 47.5102 78.2289 47.464C78.0472 47.4177 77.8553 47.4321 77.6825 47.5049C77.3598 47.6567 77.0532 47.8407 76.7674 48.054C75.5776 48.7587 74.095 48.594 72.7314 48.4018C71.6057 48.2371 70.1781 47.7337 70.1781 46.5714C70.1781 45.8302 70.837 45.2719 71.3495 44.7411C71.862 44.2103 72.2647 43.3317 71.8071 42.746C71.6295 42.5527 71.4012 42.4131 71.1482 42.3433C69.7388 41.8857 67.9999 42.4989 66.8102 41.6112C66.3883 41.2528 66.0973 40.7644 65.983 40.2228C65.8687 39.6811 65.9376 39.1168 66.1787 38.6185C66.4266 38.1256 66.7797 37.6932 67.2129 37.3516C67.6462 37.01 68.1492 36.7677 68.6863 36.6418C69.6015 36.3946 70.8461 36.2848 71.1939 35.3696C71.28 34.9482 71.2277 34.5103 71.0446 34.1211C70.8615 33.7319 70.5576 33.4122 70.1781 33.2098C69.4138 32.8156 68.7234 32.2924 68.1372 31.6632C67.8966 31.2866 67.7634 30.8514 67.7521 30.4046C67.7409 29.9578 67.8519 29.5164 68.0732 29.1281C68.2999 28.743 68.6084 28.4123 68.9768 28.1593C69.3452 27.9063 69.7647 27.7372 70.2055 27.6638C70.6468 27.6303 71.0812 27.5348 71.4959 27.3801C71.6956 27.2863 71.8546 27.1235 71.9437 26.9217C72.0328 26.7199 72.0461 26.4927 71.981 26.2819C71.8528 26.0531 71.5783 25.9342 71.4227 25.7145C71.3066 25.4829 71.2817 25.2161 71.3529 24.967C71.424 24.7179 71.5861 24.5045 71.8071 24.3692C72.2625 24.1177 72.753 23.9357 73.2622 23.8292C74.2872 23.4906 74.818 22.9141 74.516 21.9074C74.214 20.9007 72.6857 20.9007 72.3013 19.8665C71.9169 18.8324 72.9785 16.9929 73.8022 16.4346C74.6814 15.9523 75.5999 15.5451 76.5477 15.2174C77.0132 15.0406 77.4258 14.7476 77.7462 14.3664C78.0666 13.9852 78.2841 13.5283 78.3781 13.0393C78.4513 12.0234 77.6825 11.1632 77.0602 10.3578C76.4379 9.55244 75.9071 8.40846 76.4562 7.54819C77.0053 6.68793 78.1401 6.63302 79.0736 6.36762C79.6441 6.18552 80.1693 5.88405 80.6143 5.48325C81.0593 5.08245 81.4139 4.59151 81.6544 4.04307C81.9107 3.46651 82.0296 2.83504 82.3225 2.28593C83.2377 0.574542 85.5897 -0.175911 87.3926 0.0345805C87.7597 0.0558992 88.1142 0.176 88.4187 0.382199C88.7231 0.588399 88.9662 0.873035 89.1223 1.20601C89.4245 1.54311 89.6411 1.94807 89.7537 2.3866C89.8819 3.21941 89.4517 4.27187 90.2296 4.90334C91.4194 5.81852 93.2314 4.57388 93.1674 6.7337C93.17 7.6421 93.0374 8.54583 92.7738 9.41517C92.4444 10.3303 91.7946 10.7056 92.3346 11.7214C93.0392 13.0301 93.4877 13.021 94.8879 13.021C95.9038 13.021 96.7183 12.9661 97.487 13.7257C98.7957 15.0801 98.0178 16.2973 96.8555 17.3864C95.5377 18.567 96.2424 19.0886 96.4071 20.617C96.4895 21.3582 96.3247 21.587 96.9837 22.0721C98.2283 22.9873 98.933 22.6853 98.5761 24.4973C98.2558 26.1538 98.75 25.5864 100.187 26.1996C101.459 26.7487 102.301 28.1214 103.326 28.9451C103.994 29.4942 105.001 29.9243 105.065 30.8853C105.184 32.7156 102.887 32.3312 101.798 32.7705C100.013 33.4844 100.544 35.8272 101.935 36.6967C103.326 37.5661 105.596 37.9688 105.678 40.0828C105.769 41.7027 104.845 42.0596 103.591 42.6087C102.585 43.0388 102.676 43.167 102.676 44.3659C102.676 46.7819 101.862 47.4683 99.4821 47.1114C98.7363 46.8979 97.9559 46.8327 97.185 46.9192C96.2698 47.1938 96.581 47.4134 96.5535 48.1821C96.4895 50.1315 94.2198 49.5824 93.2589 48.7496C92.179 47.7246 90.7788 46.6081 89.2779 46.4616Z" fill="#A8C66C"/>
<path opacity="0.2" d="M71.1023 42.3433C70.0224 41.9956 68.7503 42.2701 67.6704 42.023C68.3024 41.8718 68.9448 41.7678 69.5923 41.7119C70.3616 41.6798 71.1291 41.8099 71.8449 42.0937C72.5607 42.3775 73.2089 42.8086 73.7472 43.3592C73.1769 44.064 72.881 44.9516 72.9144 45.8576C75.6142 46.5898 78.2682 42.9657 80.8398 44.073C80.6843 45.3726 80.8398 47.1297 82.1119 47.4226C82.4909 47.4645 82.8741 47.4012 83.2196 47.2398C83.565 47.0784 83.8594 46.825 84.0704 46.5074C84.5372 45.8942 84.8209 45.1621 85.2876 44.5489C85.9415 43.7594 86.8653 43.2408 87.8799 43.0937C88.8944 42.9466 89.9275 43.1814 90.7787 43.7527C91.4742 44.2561 92.3436 45.0248 93.0483 44.5215C93.753 44.0181 93.3412 42.5081 94.1648 42.0962C94.714 41.8217 95.4827 42.2518 95.9403 41.8491C96.1139 41.6626 96.2229 41.4252 96.2515 41.1719C96.5809 39.7992 96.8646 38.1976 95.9952 37.0811C95.1258 35.9646 93.5883 35.4704 93.7622 34.2166C93.9178 33.1549 95.2722 32.8255 96.343 32.7065C97.4137 32.5875 98.7774 32.075 98.7224 30.9951C98.6675 29.9152 97.2307 29.4302 97.0202 28.396C96.9287 27.9476 97.0843 27.4808 96.8829 27.0507C96.5718 26.4467 95.7024 26.4192 95.1898 25.9708C94.2747 25.1563 94.9885 23.6371 94.7323 22.4473C94.5401 21.5962 93.8628 20.9373 93.634 20.0953C93.1765 18.4297 94.6957 16.8373 96.2881 16.1601C96.9234 15.9417 97.5364 15.6628 98.1184 15.3272L98.1733 15.2815C98.0215 16.1194 97.5528 16.8666 96.8646 17.3681C95.5468 18.5487 96.2515 19.0703 96.4162 20.5987C96.4986 21.34 96.3338 21.5688 96.9928 22.0538C98.2374 22.969 98.9421 22.667 98.5852 24.479C98.2649 26.1355 98.759 25.5681 100.196 26.1813C101.468 26.7304 102.31 28.1032 103.335 28.9268C104.003 29.4759 105.01 29.9061 105.074 30.867C105.193 32.6974 102.896 32.313 101.807 32.7523C100.022 33.4661 100.553 35.809 101.944 36.6784C103.335 37.5478 105.605 37.9505 105.687 40.0645C105.778 41.6844 104.854 42.0413 103.6 42.5904C102.594 43.0206 102.685 43.1487 102.685 44.3476C102.685 46.7637 101.871 47.4501 99.4912 47.0931C98.7454 46.8797 97.965 46.8144 97.1941 46.9009C96.2789 47.1755 96.5901 47.3951 96.5626 48.1639C96.4986 50.1132 94.2289 49.5641 93.268 48.7313C92.1606 47.7612 90.7604 46.6447 89.2595 46.4982C88.6552 46.4357 88.0457 46.5469 87.5023 46.8186C86.4847 47.399 85.5254 48.0764 84.6378 48.8411C83.7444 49.6125 82.6361 50.0916 81.4622 50.2139C80.8783 50.2583 80.2968 50.1007 79.8153 49.7675C79.3338 49.4343 78.9814 48.9456 78.8173 48.3835C78.8023 48.1813 78.7528 47.9833 78.6709 47.7978C78.5539 47.6512 78.3923 47.5468 78.2106 47.5006C78.0288 47.4543 77.837 47.4687 77.6642 47.5416C77.3414 47.6934 77.0348 47.8774 76.749 48.0907C75.5593 48.7954 74.0767 48.6306 72.713 48.4384C71.5874 48.2737 70.1597 47.7704 70.1597 46.6081C70.1597 45.8576 70.8186 45.3085 71.3311 44.7777C71.8436 44.2469 72.2463 43.3683 71.7887 42.7826C71.6085 42.5714 71.3696 42.4185 71.1023 42.3433Z" fill="black"/>
<path d="M92.9935 26.5748L86.4957 39.4697V33.5302L85.8276 8.27124L84.9124 33.5393V37.557L77.7649 25.0556L84.9124 40.394V79.5546C84.9202 79.6254 84.9462 79.6929 84.9879 79.7507C85.0297 79.8084 85.0856 79.8544 85.1504 79.884C85.3292 79.9741 85.5267 80.0211 85.727 80.0211C85.9272 80.0211 86.1247 79.9741 86.3035 79.884C86.3683 79.8544 86.4243 79.8084 86.466 79.7507C86.5077 79.6929 86.5337 79.6254 86.5415 79.5546V42.7369L92.9935 26.5748Z" fill="#263238"/>
<path d="M66.0874 62.9349C65.5403 62.8734 64.9872 62.972 64.495 63.2186C63.5753 63.7403 62.7107 64.3536 61.9142 65.0489C61.1054 65.7468 60.1028 66.181 59.0405 66.2935C58.5119 66.3312 57.9863 66.1864 57.5516 65.8832C57.1168 65.5801 56.7993 65.137 56.6519 64.6279C56.6354 64.4447 56.589 64.2654 56.5146 64.0971C56.4104 63.9612 56.2637 63.8639 56.0979 63.8208C55.9321 63.7777 55.7567 63.7912 55.5994 63.8592C55.292 63.9945 55.0005 64.1633 54.73 64.3625C53.5787 64.8721 52.29 64.9816 51.0693 64.6737C50.0534 64.5273 48.7539 64.0697 48.763 63.0355C48.763 62.3583 49.3579 61.8641 49.8155 61.3699C50.2731 60.8757 50.6575 60.0978 50.2365 59.5395C50.0782 59.362 49.8714 59.2347 49.6416 59.1735C48.3604 58.7616 46.7954 59.3107 45.7155 58.5145C45.3257 58.1875 45.0577 57.7386 44.9547 57.2403C44.8518 56.7421 44.9199 56.2237 45.1481 55.769C45.381 55.3255 45.7081 54.9385 46.1065 54.6349C46.5049 54.3314 46.965 54.1187 47.4543 54.0119C48.3146 53.7922 49.4037 53.6915 49.724 52.8587C50.0443 52.0259 49.4403 51.3578 48.8088 50.9094C48.121 50.5541 47.5013 50.0801 46.9784 49.5092C46.7595 49.1702 46.6377 48.7776 46.6264 48.3742C46.6151 47.9707 46.7147 47.5719 46.9144 47.2212C47.1184 46.8713 47.3974 46.5708 47.7312 46.3414C48.0651 46.1119 48.4456 45.9592 48.8454 45.8942C49.2462 45.8655 49.6407 45.7792 50.0168 45.6379C50.2008 45.5588 50.3477 45.4126 50.4277 45.2289C50.5076 45.0453 50.5145 44.8381 50.447 44.6496C50.328 44.4391 50.09 44.3293 49.9436 44.1371C49.8336 43.9285 49.8083 43.6854 49.8731 43.4586C49.9379 43.2319 50.0877 43.0388 50.2914 42.9199C50.6995 42.6865 51.1408 42.5168 51.6001 42.4165C52.5153 42.1054 53.0095 41.6203 52.7349 40.6777C52.4604 39.7351 51.1242 39.7625 50.7307 38.8473C50.3371 37.9321 51.3438 36.2574 52.0851 35.7449C52.8803 35.3177 53.7062 34.9506 54.5561 34.6467C54.9793 34.4919 55.3551 34.2301 55.647 33.8869C55.9389 33.5437 56.1369 33.1307 56.2217 32.6882C56.295 31.773 55.5994 30.9859 55.0412 30.2538C54.4829 29.5216 53.9979 28.4966 54.4829 27.7187C54.968 26.9408 56.0113 26.9225 56.8532 26.6571C57.3683 26.49 57.8423 26.2161 58.2444 25.8534C58.6466 25.4908 58.9677 25.0474 59.1869 24.5522C59.4157 24.0306 59.5255 23.4632 59.7909 22.9598C60.6329 21.4131 62.747 20.7359 64.3668 20.9281C64.7022 20.945 65.0264 21.0539 65.3041 21.2428C65.5817 21.4316 65.802 21.6932 65.9409 21.9989C66.2163 22.3029 66.4114 22.671 66.5084 23.0696C66.6365 23.8201 66.243 24.7719 66.9476 25.3484C68.0184 26.2179 69.6932 25.0464 69.6017 26.9866C69.6077 27.8055 69.4873 28.6205 69.2447 29.4027C68.9519 30.2263 68.3296 30.5741 68.8512 31.4893C69.4827 32.6699 69.8945 32.6699 71.1575 32.6607C71.5732 32.5879 71.9999 32.6084 72.4066 32.7208C72.8134 32.8331 73.1901 33.0346 73.5095 33.3105C74.6901 34.5277 73.9854 35.6351 72.9421 36.5685C71.7523 37.6393 72.3838 38.106 72.5302 39.4971C72.6126 40.156 72.457 40.3665 73.0519 40.8058C74.1776 41.6478 74.809 41.3641 74.4887 43.0022C74.205 44.494 74.6535 43.9815 75.9439 44.5397C77.2343 45.098 77.8566 46.2694 78.7901 47.0473C79.3849 47.5415 80.3001 47.9625 80.355 48.7953C80.4648 50.4701 78.3874 50.104 77.399 50.4976C75.7883 51.1473 76.2733 53.2431 77.5271 54.0576C78.7809 54.8721 80.8035 55.2016 80.9041 57.1143C80.9865 58.5786 80.1537 58.8989 79.0189 59.3931C78.1037 59.7866 78.2318 59.8964 78.2318 60.9764C78.2318 63.1636 77.4997 63.7859 75.3398 63.429C74.6655 63.235 73.9596 63.1759 73.2624 63.2551C72.4387 63.5022 72.7224 63.7036 72.695 64.3991C72.6401 66.1563 70.5809 65.6621 69.7115 64.9116C68.7282 63.9053 67.4659 63.2167 66.0874 62.9349Z" fill="#A8C66C"/>
<path opacity="0.3" d="M66.0874 62.9349C65.5403 62.8734 64.9872 62.972 64.495 63.2186C63.5753 63.7403 62.7107 64.3536 61.9142 65.0489C61.1054 65.7468 60.1028 66.181 59.0405 66.2935C58.5119 66.3312 57.9863 66.1864 57.5516 65.8832C57.1168 65.5801 56.7993 65.137 56.6519 64.6279C56.6354 64.4447 56.589 64.2654 56.5146 64.0971C56.4104 63.9612 56.2637 63.8639 56.0979 63.8208C55.9321 63.7777 55.7567 63.7912 55.5994 63.8592C55.292 63.9945 55.0005 64.1633 54.73 64.3625C53.5787 64.8721 52.29 64.9816 51.0693 64.6737C50.0534 64.5273 48.7539 64.0697 48.763 63.0355C48.763 62.3583 49.3579 61.8641 49.8155 61.3699C50.2731 60.8757 50.6575 60.0978 50.2365 59.5395C50.0782 59.362 49.8714 59.2347 49.6416 59.1735C48.3604 58.7616 46.7954 59.3107 45.7155 58.5145C45.3257 58.1875 45.0577 57.7386 44.9547 57.2403C44.8518 56.7421 44.9199 56.2237 45.1481 55.769C45.381 55.3255 45.7081 54.9385 46.1065 54.6349C46.5049 54.3314 46.965 54.1187 47.4543 54.0119C48.3146 53.7922 49.4037 53.6915 49.724 52.8587C50.0443 52.0259 49.4403 51.3578 48.8088 50.9094C48.121 50.5541 47.5013 50.0801 46.9784 49.5092C46.7595 49.1702 46.6377 48.7776 46.6264 48.3742C46.6151 47.9707 46.7147 47.5719 46.9144 47.2212C47.1184 46.8713 47.3974 46.5708 47.7312 46.3414C48.0651 46.1119 48.4456 45.9592 48.8454 45.8942C49.2462 45.8655 49.6407 45.7792 50.0168 45.6379C50.2008 45.5588 50.3477 45.4126 50.4277 45.2289C50.5076 45.0453 50.5145 44.8381 50.447 44.6496C50.328 44.4391 50.09 44.3293 49.9436 44.1371C49.8336 43.9285 49.8083 43.6854 49.8731 43.4586C49.9379 43.2319 50.0877 43.0388 50.2914 42.9199C50.6995 42.6865 51.1408 42.5168 51.6001 42.4165C52.5153 42.1054 53.0095 41.6203 52.7349 40.6777C52.4604 39.7351 51.1242 39.7625 50.7307 38.8473C50.3371 37.9321 51.3438 36.2574 52.0851 35.7449C52.8803 35.3177 53.7062 34.9506 54.5561 34.6467C54.9793 34.4919 55.3551 34.2301 55.647 33.8869C55.9389 33.5437 56.1369 33.1307 56.2217 32.6882C56.295 31.773 55.5994 30.9859 55.0412 30.2538C54.4829 29.5216 53.9979 28.4966 54.4829 27.7187C54.968 26.9408 56.0113 26.9225 56.8532 26.6571C57.3683 26.49 57.8423 26.2161 58.2444 25.8534C58.6466 25.4908 58.9677 25.0474 59.1869 24.5522C59.4157 24.0306 59.5255 23.4632 59.7909 22.9598C60.6329 21.4131 62.747 20.7359 64.3668 20.9281C64.7022 20.945 65.0264 21.0539 65.3041 21.2428C65.5817 21.4316 65.802 21.6932 65.9409 21.9989C66.2163 22.3029 66.4114 22.671 66.5084 23.0696C66.6365 23.8201 66.243 24.7719 66.9476 25.3484C68.0184 26.2179 69.6932 25.0464 69.6017 26.9866C69.6077 27.8055 69.4873 28.6205 69.2447 29.4027C68.9519 30.2263 68.3296 30.5741 68.8512 31.4893C69.4827 32.6699 69.8945 32.6699 71.1575 32.6607C71.5732 32.5879 71.9999 32.6084 72.4066 32.7208C72.8134 32.8331 73.1901 33.0346 73.5095 33.3105C74.6901 34.5277 73.9854 35.6351 72.9421 36.5685C71.7523 37.6393 72.3838 38.106 72.5302 39.4971C72.6126 40.156 72.457 40.3665 73.0519 40.8058C74.1776 41.6478 74.809 41.3641 74.4887 43.0022C74.205 44.494 74.6535 43.9815 75.9439 44.5397C77.2343 45.098 77.8566 46.2694 78.7901 47.0473C79.3849 47.5415 80.3001 47.9625 80.355 48.7953C80.4648 50.4701 78.3874 50.104 77.399 50.4976C75.7883 51.1473 76.2733 53.2431 77.5271 54.0576C78.7809 54.8721 80.8035 55.2016 80.9041 57.1143C80.9865 58.5786 80.1537 58.8989 79.0189 59.3931C78.1037 59.7866 78.2318 59.8964 78.2318 60.9764C78.2318 63.1636 77.4997 63.7859 75.3398 63.429C74.6655 63.235 73.9596 63.1759 73.2624 63.2551C72.4387 63.5022 72.7224 63.7036 72.695 64.3991C72.6401 66.1563 70.5809 65.6621 69.7115 64.9116C68.7282 63.9053 67.4659 63.2167 66.0874 62.9349Z" fill="black"/>
<path opacity="0.2" d="M49.6598 59.2101C48.6806 58.8897 47.5275 59.146 46.5574 58.9172C47.1292 58.7819 47.7105 58.6901 48.2962 58.6427C48.9909 58.6102 49.6847 58.7256 50.3315 58.9812C50.9783 59.2367 51.5635 59.6267 52.0484 60.1252C51.5321 60.7626 51.2653 61.5661 51.298 62.3857C53.7324 63.0447 56.1393 59.7775 58.4639 60.7658C58.3174 61.9464 58.4639 63.5114 59.6078 63.7951C59.9541 63.8372 60.3052 63.7794 60.6197 63.6286C60.9343 63.4778 61.1992 63.2403 61.3833 62.944C61.8043 62.3949 62.0605 61.7268 62.4815 61.1777C63.0725 60.4651 63.9066 59.9968 64.8227 59.8633C65.7388 59.7297 66.6719 59.9404 67.4418 60.4547C68.0732 60.9123 68.8603 61.6078 69.4918 61.1502C70.1232 60.6926 69.7572 59.3199 70.4985 58.9538C70.9927 58.7067 71.6973 59.1002 72.1092 58.7342C72.2641 58.5671 72.3633 58.356 72.3929 58.1302C72.6857 56.8764 72.942 55.4395 72.1641 54.4237C71.3862 53.4078 69.986 52.9685 70.1415 51.8428C70.2788 50.8728 71.5052 50.5799 72.4752 50.4701C73.4453 50.3603 74.6717 49.9027 74.6168 48.9235C74.5619 47.9442 73.2806 47.5141 73.0884 46.5714C73.0061 46.1688 73.1433 45.7295 72.9603 45.3634C72.6857 44.8143 71.8895 44.7868 71.4319 44.3841C70.6083 43.652 71.2489 42.2793 71.011 41.1993C70.8462 40.4306 70.2239 39.8357 70.0226 39.0761C69.6107 37.5661 70.9835 36.1292 72.4203 35.5161C72.9915 35.321 73.5406 35.0664 74.0585 34.7565C73.9402 35.5064 73.5369 36.1818 72.9328 36.6417C71.734 37.7125 72.3746 38.1792 72.521 39.5703C72.6034 40.2293 72.4478 40.4397 73.0427 40.879C74.1683 41.721 74.7998 41.4373 74.4795 43.0754C74.1958 44.5672 74.6442 44.0547 75.9346 44.6129C77.225 45.1712 77.8474 46.3426 78.7808 47.1205C79.3757 47.6147 80.2909 48.0357 80.3458 48.8685C80.4556 50.5433 78.3782 50.1772 77.3898 50.5708C75.779 51.2205 76.2641 53.3163 77.5179 54.1308C78.7717 54.9453 80.7942 55.2748 80.8949 57.1875C80.9773 58.6518 80.1445 58.9721 79.0096 59.4663C78.0944 59.8598 78.2226 59.9697 78.2226 61.0496C78.2226 63.2369 77.4904 63.8592 75.3306 63.5023C74.6563 63.3083 73.9503 63.2492 73.2532 63.3284C72.4295 63.5755 72.7132 63.7768 72.6857 64.4723C72.6308 66.2295 70.5717 65.7353 69.7023 64.9848C68.7139 63.9586 67.4374 63.2566 66.0415 62.9714C65.4945 62.91 64.9413 63.0086 64.4491 63.2551C63.5295 63.7769 62.6649 64.3901 61.8683 65.0855C61.0596 65.7834 60.057 66.2176 58.9947 66.3302C58.466 66.3678 57.9405 66.223 57.5057 65.9198C57.071 65.6167 56.7534 65.1736 56.606 64.6645C56.5896 64.4813 56.5432 64.302 56.4688 64.1337C56.3645 63.9978 56.2179 63.9005 56.0521 63.8574C55.8863 63.8143 55.7108 63.8278 55.5536 63.8958C55.2462 64.0311 54.9546 64.1999 54.6842 64.3991C53.5329 64.9087 52.2442 65.0182 51.0234 64.7103C50.0076 64.5639 48.708 64.1063 48.7172 63.0721C48.7172 62.3949 49.3121 61.9007 49.7697 61.4065C50.2272 60.9123 50.6116 60.1344 50.1906 59.5761C50.0498 59.4086 49.8665 59.2821 49.6598 59.2101Z" fill="black"/>
<path d="M69.4462 44.9424L63.5707 56.5926V51.2297L62.9667 28.3502L62.0515 51.2297V54.8355L55.6453 43.5422L62.0515 57.4072V92.8063C62.0592 92.8701 62.0835 92.9307 62.1221 92.9822C62.1607 93.0336 62.2121 93.0739 62.2712 93.0991C62.4314 93.1804 62.6086 93.2227 62.7882 93.2227C62.9679 93.2227 63.145 93.1804 63.3053 93.0991C63.3644 93.0739 63.4158 93.0336 63.4544 92.9822C63.4929 92.9307 63.5173 92.8701 63.525 92.8063V59.567L69.4462 44.9424Z" fill="#263238"/>
<path d="M44.3793 72.4069C43.7752 72.3499 43.1672 72.4607 42.6221 72.7272C41.6022 73.3077 40.6427 73.9883 39.7576 74.7589C38.8637 75.528 37.7552 76.004 36.5819 76.1226C35.9977 76.1688 35.4155 76.0119 34.9336 75.6784C34.4517 75.3449 34.0997 74.8553 33.9371 74.2922C33.9221 74.0901 33.8725 73.8919 33.7906 73.7065C33.6737 73.5599 33.5121 73.4555 33.3303 73.4093C33.1486 73.363 32.9567 73.3774 32.784 73.4502C32.4451 73.6025 32.1231 73.7896 31.823 74.0085C30.5538 74.571 29.1323 74.6903 27.7871 74.3471C26.6614 74.1824 25.2337 73.6791 25.2337 72.5168C25.2337 71.7755 25.8927 71.2172 26.4052 70.6864C26.9177 70.1556 27.3203 69.277 26.8627 68.7005C26.6852 68.5071 26.4569 68.3676 26.2038 68.2978C24.7944 67.831 23.0556 68.4534 21.8659 67.5657C21.4432 67.2058 21.1519 66.7158 21.0376 66.1726C20.9233 65.6293 20.9925 65.0635 21.2344 64.5639C21.4937 64.0746 21.8565 63.6476 22.2974 63.3126C22.7383 62.9775 23.2469 62.7425 23.7877 62.6237C24.7029 62.3766 25.9476 62.2668 26.2953 61.3516C26.6431 60.4364 25.9842 59.686 25.2795 59.1918C24.5187 58.8114 23.8285 58.3037 23.2386 57.6909C22.998 57.3142 22.8648 56.8791 22.8536 56.4323C22.8423 55.9855 22.9533 55.5441 23.1746 55.1558C23.4028 54.7719 23.7116 54.4421 24.0798 54.1893C24.448 53.9365 24.8667 53.7667 25.3069 53.6915C25.7483 53.658 26.1827 53.5625 26.5973 53.4078C26.795 53.3142 26.9525 53.1529 27.0415 52.9531C27.1305 52.7533 27.145 52.5283 27.0824 52.3188C26.9543 52.0808 26.6797 51.9618 26.5241 51.7422C26.408 51.5106 26.3831 51.2438 26.4543 50.9947C26.5254 50.7456 26.6875 50.5322 26.9085 50.3969C27.36 50.1398 27.8474 49.9517 28.3545 49.8386C29.3795 49.5 29.9103 48.9235 29.6083 47.9168C29.3063 46.9101 27.8237 46.9192 27.3935 45.8759C26.9634 44.8326 28.0708 43.0022 28.8944 42.444C29.7756 41.9654 30.6937 41.5584 31.64 41.2268C32.1044 41.0508 32.5162 40.7592 32.8365 40.3797C33.1567 40.0001 33.3749 39.5452 33.4703 39.0578C33.5436 38.0328 32.7748 37.1726 32.1525 36.3672C31.5302 35.5618 30.9993 34.427 31.5485 33.5576C32.0976 32.6882 33.2324 32.6424 34.1659 32.3862C34.7362 32.201 35.2609 31.8973 35.7057 31.4951C36.1504 31.0929 36.5052 30.6013 36.7467 30.0524C37.0029 29.4759 37.1219 28.8536 37.4148 28.2953C38.3299 26.5839 40.6819 25.8335 42.4849 26.044C42.8514 26.0672 43.2051 26.1881 43.5093 26.394C43.8134 26.6 44.0569 26.8836 44.2145 27.2154C44.5134 27.5549 44.7295 27.959 44.846 28.396C44.9741 29.2288 44.544 30.2812 45.3219 30.9127C46.5116 31.8737 48.3237 30.5832 48.2596 32.7431C48.2614 33.6484 48.1287 34.549 47.8661 35.4154C47.5366 36.3306 46.896 36.7058 47.4268 37.7216C48.1315 39.0304 48.5799 39.0212 49.9802 39.0212C50.996 39.0212 51.8105 38.9663 52.5793 39.7351C53.888 41.0804 53.1101 42.3067 51.9478 43.3409C50.6299 44.5214 51.3346 45.0431 51.5085 46.5806C51.5817 47.3127 51.417 47.5415 52.0759 48.0266C53.3206 48.9418 54.0253 48.6397 53.6683 50.4518C53.348 52.1083 53.8422 51.5409 55.2791 52.1632C56.5512 52.7123 57.3931 54.0759 58.4181 54.9087C59.0862 55.4578 60.0929 55.8788 60.157 56.8398C60.2759 58.6701 57.9788 58.2857 56.8898 58.725C55.0594 59.448 55.636 61.7817 57.0271 62.6603C58.4181 63.5389 60.6878 63.9232 60.7701 66.0373C60.8616 67.6572 59.9373 68.0232 58.6835 68.5632C57.6768 68.9933 57.7683 69.1214 57.7683 70.3203C57.7683 72.7364 56.9538 73.4228 54.5744 73.0659C53.8286 72.8524 53.0482 72.7871 52.2773 72.8737C51.3621 73.1482 51.6732 73.377 51.6458 74.1366C51.5817 76.086 49.3121 75.5369 48.3511 74.704C47.2804 73.679 45.8802 72.5534 44.3793 72.4069Z" fill="#A8C66C"/>
<path opacity="0.2" d="M26.2037 68.2978C25.1237 67.9409 23.8516 68.2155 22.7717 67.9684C23.4031 67.8157 24.0458 67.7147 24.6936 67.6663C25.4634 67.6308 26.2319 67.7592 26.9482 68.0433C27.6645 68.3273 28.3123 68.7603 28.8485 69.3137C28.2766 70.0141 27.9804 70.8994 28.0157 71.803C30.7155 72.5351 33.3695 68.9201 35.9412 70.0184C35.7856 71.3271 35.9412 73.0842 37.2133 73.3679C37.5925 73.4119 37.9764 73.3496 38.3223 73.188C38.6681 73.0264 38.9622 72.7718 39.1717 72.4527C39.6385 71.8396 39.9222 71.1074 40.3889 70.5034C41.0404 69.7107 41.9637 69.189 42.9789 69.0401C43.9941 68.8912 45.0284 69.1257 45.88 69.698C46.5755 70.2014 47.445 70.9701 48.1496 70.4668C48.8543 69.9634 48.4425 68.4534 49.2662 68.0416C49.8153 67.767 50.584 68.2063 51.0416 67.7945C51.2123 67.6085 51.3238 67.3759 51.3619 67.1264C51.6822 65.7445 51.9659 64.1521 51.0965 63.0264C50.2271 61.9007 48.6896 61.4157 48.8635 60.171C49.0191 59.1003 50.3735 58.78 51.4443 58.6518C52.5151 58.5237 53.8787 58.0204 53.8238 56.9404C53.7688 55.8605 52.332 55.3755 52.1215 54.3413C52.03 53.8929 52.1856 53.4262 51.9842 52.996C51.6731 52.392 50.8037 52.3646 50.2912 51.9161C49.376 51.1016 50.0898 49.5824 49.8336 48.3927C49.6414 47.5416 48.9184 46.8826 48.7354 46.0498C48.2778 44.375 49.797 42.7918 51.3894 42.1054C52.0263 41.8909 52.6396 41.6119 53.2197 41.2726H53.2747C53.1246 42.1112 52.6555 42.859 51.9659 43.3592C50.6481 44.5398 51.3528 45.0614 51.5267 46.5989C51.5999 47.3311 51.4351 47.5599 52.0941 48.0449C53.3387 48.9601 54.0434 48.6581 53.6865 50.4701C53.3662 52.1266 53.8604 51.5592 55.2972 52.1815C56.5693 52.7306 57.4113 54.0943 58.4363 54.9271C59.1043 55.4762 60.111 55.8971 60.1751 56.8581C60.2941 58.6884 57.997 58.3041 56.9079 58.7434C55.0775 59.4663 55.6541 61.8001 57.0452 62.6786C58.4363 63.5572 60.7059 63.9416 60.7883 66.0557C60.8798 67.6755 59.9555 68.0416 58.7017 68.5815C57.695 69.0117 57.7865 69.1398 57.7865 70.3387C57.7865 72.7548 56.972 73.4411 54.5925 73.0842C53.8467 72.8708 53.0663 72.8055 52.2954 72.892C51.3802 73.1666 51.6914 73.3954 51.6639 74.155C51.5999 76.1043 49.3302 75.5552 48.3693 74.7224C47.2619 73.8072 45.8617 72.6358 44.3608 72.4894C43.7568 72.4323 43.1487 72.5431 42.6037 72.8097C41.5838 73.3901 40.6242 74.0707 39.7391 74.8414C38.8452 75.6104 37.7367 76.0864 36.5635 76.205C35.9793 76.2512 35.397 76.0943 34.9151 75.7608C34.4332 75.4273 34.0812 74.9377 33.9186 74.3746C33.9036 74.1725 33.8541 73.9743 33.7722 73.7889C33.6552 73.6423 33.4936 73.5379 33.3119 73.4917C33.1301 73.4454 32.9383 73.4598 32.7655 73.5326C32.4267 73.6849 32.1046 73.872 31.8045 74.0909C30.5353 74.6534 29.1138 74.7727 27.7686 74.4295C26.6429 74.2648 25.2153 73.7615 25.2153 72.5992C25.2153 71.8579 25.8742 71.2996 26.3867 70.7688C26.8992 70.238 27.3019 69.3594 26.8443 68.7829C26.6827 68.5621 26.46 68.3934 26.2037 68.2978Z" fill="black"/>
<path d="M48.0949 52.5018L41.5971 65.3967V59.4664L40.929 34.1982L39.9681 59.4664V63.4565L32.8206 50.9643L39.9681 66.2936V105.463C39.9759 105.534 40.0019 105.602 40.0436 105.659C40.0853 105.717 40.1413 105.763 40.2061 105.793C40.3849 105.883 40.5824 105.93 40.7826 105.93C40.9829 105.93 41.1803 105.883 41.3592 105.793C41.4239 105.763 41.4799 105.717 41.5216 105.659C41.5633 105.602 41.5893 105.534 41.5971 105.463V68.6731L48.0949 52.5018Z" fill="#263238"/>
<path d="M21.1886 88.8801C20.6417 88.8233 20.0898 88.9217 19.5962 89.1639C18.6805 89.6919 17.8165 90.3047 17.0154 90.9942C16.2066 91.6921 15.204 92.1264 14.1417 92.2389C13.6124 92.28 13.0852 92.1366 12.6497 91.8329C12.2143 91.5293 11.8974 91.0841 11.7531 90.5732C11.7366 90.39 11.6902 90.2107 11.6158 90.0424C11.5106 89.9077 11.3639 89.8114 11.1985 89.7684C11.0331 89.7254 10.8581 89.7381 10.7006 89.8045C10.395 89.9433 10.1038 90.1119 9.8312 90.3078C8.68157 90.8238 7.39069 90.9335 6.17048 90.619C5.14548 90.4726 3.85508 90.0241 3.85508 88.9808C3.85508 88.3127 4.44994 87.8094 4.90753 87.3244C5.36512 86.8393 5.7495 86.0431 5.32852 85.494C5.17025 85.3165 4.96344 85.1892 4.73365 85.1279C3.4524 84.7161 1.88744 85.2744 0.807531 84.469C0.417786 84.142 0.149752 83.6931 0.0467835 83.1948C-0.056185 82.6966 0.0119327 82.1782 0.240119 81.7235C0.473019 81.28 0.800161 80.8929 1.19858 80.5894C1.59699 80.2858 2.05702 80.0732 2.54637 79.9663C3.40664 79.7467 4.4957 79.646 4.81601 78.8223C5.13633 77.9987 4.53231 77.3123 3.90084 76.8639C3.21299 76.5086 2.59335 76.0346 2.07048 75.4636C1.8515 75.1246 1.72973 74.732 1.71843 74.3286C1.70714 73.9252 1.80675 73.5264 2.00642 73.1757C2.2143 72.829 2.49433 72.531 2.82752 72.302C3.1607 72.0731 3.53924 71.9184 3.93744 71.8487C4.3382 71.82 4.73273 71.7337 5.10887 71.5924C5.29367 71.517 5.44187 71.3726 5.52215 71.1899C5.60242 71.0071 5.60847 70.8003 5.53901 70.6132C5.42003 70.4027 5.18209 70.2929 5.04481 70.0915C4.93399 69.884 4.90734 69.6418 4.97039 69.4151C5.03344 69.1885 5.18136 68.9948 5.38343 68.8743C5.79336 68.6449 6.23408 68.4754 6.69213 68.371C7.60731 68.069 8.10151 67.5748 7.82696 66.6321C7.5524 65.6895 6.21624 65.717 5.82271 64.8018C5.42918 63.8866 6.45419 62.2667 7.18633 61.7542C7.98128 61.3241 8.80724 60.954 9.65731 60.6469C10.0805 60.4921 10.4563 60.2303 10.7482 59.8871C11.0401 59.5439 11.2381 59.1309 11.3229 58.6884C11.3962 57.7732 10.7006 56.9862 10.1424 56.254C9.5841 55.5219 9.09905 54.506 9.5841 53.719C10.0691 52.9319 11.1124 52.9228 11.9544 52.6574C12.4695 52.4902 12.9435 52.2164 13.3456 51.8537C13.7477 51.491 14.0689 51.0476 14.2881 50.5525C14.5169 50.0308 14.6267 49.4634 14.8921 48.9692C15.7341 47.4134 17.8482 46.7361 19.468 46.9283C19.7983 46.9468 20.1173 47.0545 20.3912 47.2398C20.6652 47.4251 20.8838 47.6812 21.0238 47.9808C21.2993 48.2884 21.4942 48.6594 21.5913 49.0607C21.7194 49.802 21.3258 50.7629 22.0305 51.3303C23.1013 52.1998 24.7761 51.0283 24.6846 52.9685C24.6899 53.7904 24.5695 54.6083 24.3276 55.3937C24.0348 56.2083 23.4125 56.556 23.9341 57.4712C24.5656 58.6609 24.9774 58.6518 26.2404 58.6518C26.6554 58.5771 27.0818 58.5958 27.4887 58.7066C27.8955 58.8174 28.2726 59.0175 28.5924 59.2924C29.773 60.5096 29.0683 61.617 28.025 62.5596C26.8352 63.6212 27.4667 64.088 27.6131 65.479C27.6955 66.1471 27.5399 66.3484 28.1348 66.7877C29.2605 67.6297 29.8919 67.346 29.5716 68.9842C29.2513 70.6223 29.7363 69.9634 31.0267 70.5217C32.3172 71.0799 32.9395 72.2605 33.873 73.0293C34.4678 73.5235 35.383 73.9444 35.4379 74.7864C35.5477 76.452 33.4703 76.086 32.4819 76.4795C30.8712 77.1384 31.3562 79.225 32.61 80.0395C33.8638 80.854 35.8864 81.1835 35.987 83.0962C36.0694 84.5605 35.2366 84.8808 34.1017 85.375C33.1866 85.7685 33.3147 85.8784 33.3147 86.9674C33.3147 89.1455 32.5826 89.7679 30.4227 89.411C29.7484 89.217 29.0425 89.1579 28.3453 89.2371C27.5216 89.4842 27.8053 89.6947 27.7779 90.3811C27.7229 92.1473 25.6638 91.644 24.7944 90.8936C23.8184 89.88 22.5634 89.1793 21.1886 88.8801Z" fill="#A8C66C"/>
<path opacity="0.3" d="M21.1886 88.8801C20.6417 88.8233 20.0898 88.9217 19.5962 89.1639C18.6805 89.6919 17.8165 90.3047 17.0154 90.9942C16.2066 91.6921 15.204 92.1264 14.1417 92.2389C13.6124 92.28 13.0852 92.1366 12.6497 91.8329C12.2143 91.5293 11.8974 91.0841 11.7531 90.5732C11.7366 90.39 11.6902 90.2107 11.6158 90.0424C11.5106 89.9077 11.3639 89.8114 11.1985 89.7684C11.0331 89.7254 10.8581 89.7381 10.7006 89.8045C10.395 89.9433 10.1038 90.1119 9.8312 90.3078C8.68157 90.8238 7.39069 90.9335 6.17048 90.619C5.14548 90.4726 3.85508 90.0241 3.85508 88.9808C3.85508 88.3127 4.44994 87.8094 4.90753 87.3244C5.36512 86.8393 5.7495 86.0431 5.32852 85.494C5.17025 85.3165 4.96344 85.1892 4.73365 85.1279C3.4524 84.7161 1.88744 85.2744 0.807531 84.469C0.417786 84.142 0.149752 83.6931 0.0467835 83.1948C-0.056185 82.6966 0.0119327 82.1782 0.240119 81.7235C0.473019 81.28 0.800161 80.8929 1.19858 80.5894C1.59699 80.2858 2.05702 80.0732 2.54637 79.9663C3.40664 79.7467 4.4957 79.646 4.81601 78.8223C5.13633 77.9987 4.53231 77.3123 3.90084 76.8639C3.21299 76.5086 2.59335 76.0346 2.07048 75.4636C1.8515 75.1246 1.72973 74.732 1.71843 74.3286C1.70714 73.9252 1.80675 73.5264 2.00642 73.1757C2.2143 72.829 2.49433 72.531 2.82752 72.302C3.1607 72.0731 3.53924 71.9184 3.93744 71.8487C4.3382 71.82 4.73273 71.7337 5.10887 71.5924C5.29367 71.517 5.44187 71.3726 5.52215 71.1899C5.60242 71.0071 5.60847 70.8003 5.53901 70.6132C5.42003 70.4027 5.18209 70.2929 5.04481 70.0915C4.93399 69.884 4.90734 69.6418 4.97039 69.4151C5.03344 69.1885 5.18136 68.9948 5.38343 68.8743C5.79336 68.6449 6.23408 68.4754 6.69213 68.371C7.60731 68.069 8.10151 67.5748 7.82696 66.6321C7.5524 65.6895 6.21624 65.717 5.82271 64.8018C5.42918 63.8866 6.45419 62.2667 7.18633 61.7542C7.98128 61.3241 8.80724 60.954 9.65731 60.6469C10.0805 60.4921 10.4563 60.2303 10.7482 59.8871C11.0401 59.5439 11.2381 59.1309 11.3229 58.6884C11.3962 57.7732 10.7006 56.9862 10.1424 56.254C9.5841 55.5219 9.09905 54.506 9.5841 53.719C10.0691 52.9319 11.1124 52.9228 11.9544 52.6574C12.4695 52.4902 12.9435 52.2164 13.3456 51.8537C13.7477 51.491 14.0689 51.0476 14.2881 50.5525C14.5169 50.0308 14.6267 49.4634 14.8921 48.9692C15.7341 47.4134 17.8482 46.7361 19.468 46.9283C19.7983 46.9468 20.1173 47.0545 20.3912 47.2398C20.6652 47.4251 20.8838 47.6812 21.0238 47.9808C21.2993 48.2884 21.4942 48.6594 21.5913 49.0607C21.7194 49.802 21.3258 50.7629 22.0305 51.3303C23.1013 52.1998 24.7761 51.0283 24.6846 52.9685C24.6899 53.7904 24.5695 54.6083 24.3276 55.3937C24.0348 56.2083 23.4125 56.556 23.9341 57.4712C24.5656 58.6609 24.9774 58.6518 26.2404 58.6518C26.6554 58.5771 27.0818 58.5958 27.4887 58.7066C27.8955 58.8174 28.2726 59.0175 28.5924 59.2924C29.773 60.5096 29.0683 61.617 28.025 62.5596C26.8352 63.6212 27.4667 64.088 27.6131 65.479C27.6955 66.1471 27.5399 66.3484 28.1348 66.7877C29.2605 67.6297 29.8919 67.346 29.5716 68.9842C29.2513 70.6223 29.7363 69.9634 31.0267 70.5217C32.3172 71.0799 32.9395 72.2605 33.873 73.0293C34.4678 73.5235 35.383 73.9444 35.4379 74.7864C35.5477 76.452 33.4703 76.086 32.4819 76.4795C30.8712 77.1384 31.3562 79.225 32.61 80.0395C33.8638 80.854 35.8864 81.1835 35.987 83.0962C36.0694 84.5605 35.2366 84.8808 34.1017 85.375C33.1866 85.7685 33.3147 85.8784 33.3147 86.9674C33.3147 89.1455 32.5826 89.7679 30.4227 89.411C29.7484 89.217 29.0425 89.1579 28.3453 89.2371C27.5216 89.4842 27.8053 89.6947 27.7779 90.3811C27.7229 92.1473 25.6638 91.644 24.7944 90.8936C23.8184 89.88 22.5634 89.1793 21.1886 88.8801Z" fill="black"/>
<path opacity="0.2" d="M4.76115 85.1462C3.78191 84.8259 2.62878 85.0821 1.65869 84.8533C2.23067 84.7187 2.8119 84.627 3.39753 84.5788C4.09308 84.5463 4.78754 84.6626 5.43459 84.9198C6.08163 85.1771 6.66637 85.5694 7.14977 86.0705C6.63249 86.7038 6.36548 87.5049 6.39932 88.3219C8.8337 88.9808 11.2406 85.7136 13.5652 86.702C13.4187 87.8826 13.5652 89.4476 14.7091 89.7313C15.0554 89.7733 15.4065 89.7155 15.7211 89.5648C16.0356 89.414 16.3005 89.1764 16.4846 88.8801C16.9056 88.331 17.1618 87.6629 17.5828 87.1138C18.1738 86.4012 19.0079 85.933 19.924 85.7994C20.8402 85.6659 21.7733 85.8766 22.5431 86.3908C23.1746 86.8484 23.9616 87.544 24.5931 87.0864C25.2246 86.6288 24.8585 85.256 25.5998 84.8991C26.094 84.652 26.7987 85.0455 27.2105 84.6703C27.3654 84.5033 27.4646 84.2922 27.4942 84.0663C27.7871 82.8217 28.0433 81.3757 27.2654 80.3598C26.4875 79.344 25.0873 78.9047 25.2429 77.779C25.3801 76.8089 26.6065 76.5252 27.5766 76.4063C28.5467 76.2873 29.773 75.8388 29.7181 74.8687C29.6632 73.8986 28.3819 73.4502 28.1897 72.5076C28.1074 72.1141 28.2446 71.6656 28.0616 71.2995C27.7871 70.7504 26.9909 70.723 26.5333 70.3203C25.7096 69.5882 26.3502 68.2154 26.1123 67.1355C25.9475 66.3667 25.3252 65.7719 25.1239 65.0123C24.7121 63.5022 26.0848 62.0745 27.5217 61.4522C28.0911 61.2566 28.6398 61.0052 29.1598 60.7018V60.656C29.0285 61.415 28.6088 62.0939 27.9884 62.5504C26.7987 63.612 27.4301 64.0788 27.5766 65.4699C27.6589 66.1379 27.5034 66.3393 28.0982 66.7786C29.2239 67.6205 29.8554 67.3368 29.5351 68.975C29.2147 70.6132 29.6998 69.9542 30.9902 70.5125C32.2806 71.0708 32.9029 72.2513 33.8364 73.0201C34.4313 73.5143 35.3464 73.9353 35.4014 74.7772C35.5112 76.4429 33.4337 76.0768 32.4453 76.4703C30.8346 77.1292 31.3196 79.2159 32.5734 80.0304C33.8272 80.8449 35.8498 81.1743 35.9505 83.0871C36.0328 84.5513 35.2 84.8716 34.0652 85.3658C33.15 85.7594 33.2781 85.8692 33.2781 86.9583C33.2781 89.1364 32.546 89.7587 30.3862 89.4018C29.7119 89.2078 29.0059 89.1487 28.3087 89.2279C27.485 89.475 27.7688 89.6855 27.7413 90.3719C27.6864 92.1382 25.6272 91.6348 24.7578 90.8844C23.7794 89.8693 22.521 89.1684 21.1429 88.871C20.5959 88.8142 20.0441 88.9125 19.5504 89.1547C18.6348 89.6827 17.7708 90.2955 16.9696 90.9851C16.1609 91.6829 15.1583 92.1172 14.096 92.2297C13.5667 92.2708 13.0395 92.1274 12.604 91.8237C12.1685 91.5201 11.8517 91.075 11.7074 90.5641C11.6909 90.3808 11.6445 90.2015 11.5701 90.0333C11.4649 89.8986 11.3182 89.8023 11.1528 89.7593C10.9874 89.7163 10.8124 89.7289 10.6549 89.7953C10.3493 89.9342 10.0581 90.1028 9.78548 90.2987C8.63585 90.8146 7.34498 90.9243 6.12476 90.6098C5.09976 90.4634 3.80936 90.015 3.80936 88.9717C3.80936 88.3036 4.40423 87.8002 4.86182 87.3152C5.31941 86.8301 5.70378 86.0339 5.2828 85.4848C5.14117 85.3287 4.96142 85.212 4.76115 85.1462Z" fill="black"/>
<path d="M24.5471 70.8877L18.6717 82.5379V77.175L18.0677 54.2955L17.1982 77.175V80.7808L10.792 69.4875L17.1982 83.3159V118.715C17.2066 118.781 17.2333 118.844 17.2754 118.895C17.3174 118.947 17.3731 118.986 17.4362 119.008C17.5951 119.094 17.7728 119.138 17.9533 119.138C18.1338 119.138 18.3115 119.094 18.4703 119.008C18.53 118.983 18.5819 118.943 18.6206 118.892C18.6592 118.84 18.6832 118.779 18.69 118.715V85.5123L24.5471 70.8877Z" fill="#263238"/>
</svg>
