<svg width="87" height="86" viewBox="0 0 87 86" fill="none" xmlns="http://www.w3.org/2000/svg">
<path opacity="0.2" d="M85.7088 51.8291C85.836 51.7836 85.9461 51.6999 86.024 51.5895C86.1018 51.479 86.1435 51.3472 86.1435 51.2121C86.1435 51.0769 86.1018 50.9451 86.024 50.8347C85.9461 50.7242 85.836 50.6405 85.7088 50.595L60.776 36.2011C60.4383 36.0267 60.0639 35.9358 59.6839 35.9358C59.3039 35.9358 58.9294 36.0267 58.5918 36.2011L2.12981 68.8223C-0.229142 70.1874 -0.229142 72.3935 2.12981 73.7586L20.6956 84.4504C22.0203 85.1237 23.4853 85.4746 24.9712 85.4746C26.4572 85.4746 27.9222 85.1237 29.2469 84.4504L85.7088 51.8291Z" fill="black"/>
<path d="M8.90075 40.9734L7.26259 40.0233C7.20448 39.9897 7.13855 39.972 7.07145 39.972C7.00436 39.972 6.93845 39.9897 6.88035 40.0233L6.4872 40.2526C6.43215 40.2919 6.38815 40.3446 6.35946 40.4058C6.33076 40.4671 6.31831 40.5347 6.32336 40.6021V44.5555C6.33669 44.7433 6.39282 44.9256 6.48747 45.0884C6.58212 45.2512 6.71277 45.3902 6.86942 45.4947L8.50758 46.4449C8.56488 46.4807 8.63113 46.4997 8.69872 46.4997C8.7663 46.4997 8.83252 46.4807 8.88982 46.4449L9.283 46.2155C9.33971 46.1779 9.38499 46.1254 9.41388 46.0637C9.44277 46.0021 9.45416 45.9337 9.44681 45.8661V41.9235C9.43946 41.7328 9.38594 41.5467 9.29083 41.3812C9.19572 41.2157 9.06186 41.0758 8.90075 40.9734Z" fill="#FAFAFA"/>
<path d="M9.44688 41.9126V45.8551C9.45423 45.9228 9.44284 45.9912 9.41395 46.0528C9.38506 46.1144 9.33978 46.1669 9.28307 46.2046L8.91172 46.4339C8.96203 46.3916 9.00127 46.3377 9.02601 46.2768C9.05075 46.2159 9.06025 46.1498 9.0537 46.0844V42.1419C9.0465 41.9524 8.99005 41.7679 8.88989 41.6068L9.28307 41.3774C9.38323 41.5386 9.43968 41.723 9.44688 41.9126Z" fill="#E0E0E0"/>
<path d="M6.88028 45.4511L8.51844 46.4012C8.82423 46.576 9.0645 46.4012 9.0645 46.0845V42.142C9.05542 41.9531 9.00109 41.7692 8.90605 41.6058C8.81102 41.4423 8.67808 41.3041 8.51844 41.2028L6.88028 40.2526C6.58541 40.0779 6.33423 40.2526 6.33423 40.5584V44.5119C6.34756 44.6997 6.40369 44.882 6.49834 45.0448C6.59299 45.2076 6.72364 45.3466 6.88028 45.4511Z" fill="#F5F5F5"/>
<path d="M8.99932 48.7274C9.02324 48.7275 9.0468 48.7215 9.06781 48.7101C9.08881 48.6986 9.10655 48.682 9.11943 48.6619C9.13613 48.6281 9.13981 48.5894 9.12973 48.5531C9.11966 48.5168 9.09655 48.4856 9.06484 48.4653L7.91814 47.81C7.89864 47.7965 7.88256 47.7785 7.87118 47.7577C7.85981 47.7368 7.85346 47.7136 7.85262 47.6899V43.3214C7.85262 43.2867 7.8388 43.2534 7.81422 43.2288C7.78965 43.2042 7.75629 43.1904 7.72154 43.1904C7.70343 43.1889 7.68523 43.1912 7.66804 43.1971C7.65086 43.203 7.6351 43.2124 7.62175 43.2247C7.6084 43.237 7.59775 43.252 7.59049 43.2687C7.58323 43.2853 7.57953 43.3033 7.57959 43.3214V47.6899C7.58049 47.7627 7.60002 47.834 7.63635 47.8971C7.67268 47.9602 7.72456 48.013 7.78706 48.0503L8.93379 48.7056L8.99932 48.7274Z" fill="#263238"/>
<path d="M38.4754 70.0452L33.823 67.861C33.823 67.861 34.1943 63.4926 37.2522 64.5847C40.3101 65.6768 38.4754 70.0452 38.4754 70.0452Z" fill="#37474F"/>
<path d="M35.9197 69.4993L36.9135 67.5117L34.5436 66.1357C34.086 65.9173 33.5783 65.8254 33.0732 65.8696C32.5682 65.9137 32.0841 66.0923 31.6714 66.3868C30.3981 67.2642 29.3498 68.4296 28.6116 69.7883C27.8734 71.147 27.4662 72.6606 27.4231 74.2063C27.3576 74.8013 27.448 75.4032 27.6854 75.9527C27.9228 76.5022 28.2991 76.9805 28.7773 77.3407L31.2127 78.7495L32.3048 76.6527C33.362 75.7687 34.2278 74.6785 34.8494 73.4485C35.4709 72.2186 35.8351 70.8748 35.9197 69.4993Z" fill="#263238"/>
<path d="M38.3989 70.7224C38.3507 72.0685 38.0364 73.3918 37.4741 74.6158C36.9117 75.8398 36.1125 76.9403 35.1226 77.8538C34.8292 78.1024 34.515 78.3253 34.1834 78.52C31.8353 79.8742 29.9351 78.5746 29.9351 75.615C30.0312 73.2188 30.9622 70.9317 32.567 69.1497C33.0352 68.6336 33.576 68.1885 34.1724 67.8283C36.4986 66.4631 38.3989 67.7627 38.3989 70.7224Z" fill="#37474F"/>
<path d="M34.1831 69.5757C35.6793 68.7129 36.8915 69.5757 36.8915 71.5743C36.873 72.5836 36.6184 73.5745 36.148 74.4678C35.6777 75.361 35.0048 76.1317 34.1831 76.7181C32.6978 77.5809 31.4856 76.7181 31.4856 74.7086C31.5037 73.7019 31.7571 72.7134 32.2255 71.8222C32.6939 70.9309 33.3643 70.1616 34.1831 69.5757Z" fill="#455A64"/>
<path d="M34.1833 71.3231C34.9696 70.8753 35.5921 71.323 35.5921 72.3605C35.5895 72.8869 35.4601 73.4049 35.2148 73.8706C34.9696 74.3364 34.6158 74.7362 34.1833 75.0362C33.4079 75.484 32.7854 75.0362 32.7854 73.9987C32.7912 73.4741 32.9209 72.9584 33.1638 72.4934C33.4068 72.0285 33.7561 71.6275 34.1833 71.3231Z" fill="#E0E0E0"/>
<path d="M34.5982 71.3013C34.694 71.2472 34.797 71.2067 34.904 71.1812C35.2862 71.2794 35.5483 71.7053 35.5483 72.3606C35.5265 73.1341 35.2501 73.8788 34.762 74.4793L34.5982 74.5995C33.8993 74.9926 33.3423 74.5994 33.3423 73.6712C33.3511 73.2053 33.4694 72.7481 33.6875 72.3364C33.9057 71.9247 34.2177 71.5701 34.5982 71.3013Z" fill="#F5F5F5"/>
<path d="M38.3987 70.7225C38.3506 72.0686 38.0362 73.3919 37.4739 74.6159C36.9116 75.8399 36.1124 76.9404 35.1224 77.8539C36.4339 76.3599 37.36 74.5677 37.8199 72.6336C38.1694 70.93 38.0384 68.4836 36.5749 67.8611C35.1115 67.2386 33.1785 68.5492 32.5669 69.1389C33.035 68.6228 33.5758 68.1777 34.1723 67.8175C36.4985 66.4633 38.3987 67.7628 38.3987 70.7225Z" fill="#455A64"/>
<path d="M1.02686 60.4239V65.5896C6.60752 72.2514 14.3724 76.3032 23.6007 78.6294L28.264 75.9427V75.5168C28.3907 72.9797 29.3767 70.5611 31.0598 68.6584C31.1581 68.5383 31.2673 68.4072 31.3765 68.298L31.6168 68.0577C31.9565 67.7175 32.3216 67.4035 32.7089 67.1185C32.9382 66.9656 33.1566 66.8128 33.386 66.6817C33.6153 66.5506 33.659 66.5288 33.8119 66.4633L34.1832 66.2995L34.5436 66.1793C34.8968 66.0664 35.2649 66.0075 35.6357 66.0046C36.0122 66.01 36.3838 66.0918 36.7278 66.2449C36.9806 66.3731 37.2125 66.5388 37.4158 66.7363C38.1104 67.539 38.4632 68.5817 38.3987 69.6413V70.0672L42.516 67.6973L49.7785 63.5037V31.6032L27.2811 18.5743L24.9112 19.9395L24.2341 20.3545L23.6772 20.7149L23.5242 20.8132L23.2512 21.0098L22.9345 21.2391L22.0062 21.9708C21.7987 22.1346 21.6021 22.3094 21.4165 22.4841L21.1216 22.7462C20.925 22.9209 20.7503 23.1066 20.5646 23.2923L20.0186 23.8602L19.5599 24.3734L19.407 24.5591L19.0138 25.0396C18.9387 25.1259 18.8694 25.2171 18.8064 25.3127C18.6972 25.4437 18.5879 25.5966 18.4787 25.7386L18.2275 26.099C18.1375 26.2184 18.0537 26.3423 17.9764 26.4703L17.7907 26.7433C17.605 27.0273 17.4412 27.3112 17.2665 27.6061C17.0918 27.901 17.0481 27.9883 16.9498 28.1849L2.69778 54.9306L2.38106 55.5313L2.15172 55.9572V56.0227C1.42478 57.3766 1.03868 58.8872 1.02686 60.4239Z" fill="#F0F0F0"/>
<path d="M6.47639 66.5396C9.25134 68.452 12.1727 70.1427 15.2133 71.5961C15.3123 71.6477 15.4213 71.6773 15.5329 71.6829C15.6445 71.6885 15.7559 71.6699 15.8596 71.6284C15.9633 71.5869 16.0568 71.5235 16.1337 71.4425C16.2107 71.3615 16.2692 71.2649 16.3054 71.1592C16.5644 70.4477 16.7688 69.7175 16.9169 68.975C16.9431 68.7317 16.8957 68.4861 16.7809 68.2699C16.666 68.0538 16.4889 67.8772 16.2726 67.7628C12.7601 65.9915 9.35093 64.0226 6.06138 61.8654C5.66823 61.6033 5.32967 61.778 5.34059 62.2476C5.36086 63.2373 5.46314 64.2235 5.64638 65.1963C5.75621 65.7278 6.05016 66.2036 6.47639 66.5396Z" fill="#263238"/>
<path d="M20.936 22.9428L43.4553 35.9935C44.6715 34.8261 46.0247 33.8103 47.4852 32.9683L49.8551 31.6032L27.2812 18.5743L24.9113 19.9395C23.467 20.7722 22.1317 21.781 20.936 22.9428Z" fill="#FAFAFA"/>
<path d="M23.6007 73.4527V78.6293L23.9283 78.4327L28.2204 75.9646V75.5386C28.3471 73.0015 29.333 70.5829 31.0161 68.6802C31.1144 68.56 31.2237 68.429 31.3329 68.3198L31.5731 68.0795C31.9128 67.7393 32.2779 67.4253 32.6652 67.1403C32.8946 66.9874 33.113 66.8345 33.3423 66.7035C33.5717 66.5724 33.6154 66.5506 33.7682 66.4851L34.1833 66.2994L34.5436 66.1793C34.8968 66.0664 35.265 66.0074 35.6357 66.0045C36.0123 66.01 36.3838 66.0917 36.7278 66.2448C36.9806 66.3731 37.2126 66.5387 37.4159 66.7362C38.1105 67.539 38.4632 68.5817 38.3988 69.6412V70.0672L42.516 67.6973L49.7785 63.5036V31.6031L47.4087 32.9683C45.5864 34.0166 43.9362 35.3389 42.516 36.8889C41.3156 38.192 40.2845 39.6414 39.4472 41.2028L25.1952 67.9703L24.6491 68.986C23.9396 70.3667 23.5796 71.9004 23.6007 73.4527Z" fill="#E0E0E0"/>
<path d="M27.292 59.5938L25.5774 60.5768C25.248 60.7694 24.8624 60.8427 24.4853 60.7843C19.9094 60.0744 10.6265 55.149 7.86342 51.0645C7.69241 50.8057 7.60477 50.5009 7.61226 50.1908V48.1813C7.61131 47.9104 7.67893 47.6437 7.80883 47.4059L14.3615 35.2617C14.4128 35.1624 14.4838 35.0748 14.5702 35.004C14.6567 34.9333 14.7567 34.8809 14.8641 34.8502C14.9715 34.8196 15.084 34.8112 15.1948 34.8256C15.3056 34.84 15.4122 34.8769 15.5082 34.9341L34.074 45.6586C34.2539 45.7679 34.387 45.9401 34.4475 46.1417C34.508 46.3434 34.4917 46.5603 34.4017 46.7507L27.9145 58.9058C27.7777 59.1904 27.5615 59.4293 27.292 59.5938Z" fill="#37474F"/>
<g opacity="0.1">
<path d="M15.4756 35.7969L15.836 35.1307L22.8036 39.1497C21.8836 42.0814 19.8957 44.5605 17.2339 46.0955L15.4756 47.1112V35.7969Z" fill="white"/>
<path d="M14.6453 37.3477V47.5916L9.65444 50.4748C9.475 50.579 9.2664 50.6215 9.0605 50.596C8.85459 50.5705 8.6627 50.4782 8.51414 50.3334C8.36559 50.1885 8.26852 49.999 8.23778 49.7938C8.20704 49.5887 8.24431 49.379 8.3439 49.197L14.6453 37.3477Z" fill="white"/>
</g>
<path d="M7.88543 51.0645C7.71442 50.8057 7.62674 50.5008 7.63423 50.1908V48.1813C7.63946 47.9954 7.67259 47.8113 7.73252 47.6353C9.80752 48.6728 13.193 50.442 17.2448 52.7463C21.8425 55.3892 25.7523 57.9229 27.7072 59.2334C27.587 59.373 27.4472 59.4944 27.2922 59.5938L25.5775 60.5767C25.2482 60.7694 24.8625 60.8426 24.4854 60.7842C19.986 60.0744 10.6485 55.1489 7.88543 51.0645Z" fill="#263238"/>
<path d="M38.5517 44.8832L29.7274 61.4614C29.6279 61.6434 29.5906 61.853 29.6213 62.0582C29.6521 62.2634 29.7491 62.4529 29.8977 62.5977C30.0462 62.7426 30.2381 62.8348 30.444 62.8603C30.6499 62.8859 30.8585 62.8433 31.038 62.7391L38.6172 58.3707C40.4991 57.2868 42.0598 55.723 43.14 53.839C44.2202 51.9549 44.7812 49.8179 44.7658 47.6462V41.454C44.7676 41.3433 44.7398 41.2342 44.6854 41.1378C44.631 41.0414 44.5519 40.9612 44.4562 40.9056C44.3605 40.85 44.2518 40.8209 44.1411 40.8213C44.0304 40.8217 43.9218 40.8516 43.8265 40.9079L40.7359 42.6881C39.8164 43.2005 39.0595 43.9612 38.5517 44.8832Z" fill="#37474F"/>
<path d="M36.8808 59.3755L36.0508 59.856V49.612L36.8808 48.0721V59.3755Z" fill="#263238"/>
<path d="M17.8017 59.3863C16.7096 58.8512 15.7158 58.2942 14.7001 57.6498C14.6833 57.6364 14.6635 57.6274 14.6423 57.6234C14.6212 57.6195 14.5994 57.6208 14.5789 57.6273C14.5584 57.6338 14.5398 57.6452 14.5247 57.6606C14.5097 57.6759 14.4987 57.6947 14.4926 57.7154L14.2305 58.4252C14.211 58.4704 14.2091 58.5213 14.2253 58.5679C14.2414 58.6144 14.2745 58.6531 14.3179 58.6764C15.1162 59.1545 15.9401 59.5884 16.786 59.976H16.8843L17.8017 59.7467C17.9546 59.7467 17.9437 59.4628 17.8017 59.3863Z" fill="#455A64"/>
<path d="M10.8558 55.4438L11.2817 56.536C11.2937 56.5713 11.3166 56.602 11.3472 56.6233C12.0924 57.2263 12.8728 57.7843 13.6844 58.2943C13.7012 58.3077 13.721 58.3167 13.7422 58.3207C13.7633 58.3246 13.7851 58.3233 13.8056 58.3168C13.8261 58.3103 13.8447 58.2989 13.8597 58.2835C13.8748 58.2682 13.8858 58.2493 13.8919 58.2287L14.154 57.5188C14.1691 57.4732 14.1687 57.4238 14.1529 57.3784C14.1371 57.333 14.1068 57.2941 14.0666 57.2677C13.0509 56.6343 12.0571 55.9571 11.0742 55.2473C10.9322 55.1381 10.7903 55.28 10.8558 55.4438Z" fill="#455A64"/>
<path d="M0.000308134 64.3118V64.8797L1.02689 65.8407V65.5896C6.60756 72.2514 14.3724 76.3031 23.6007 78.6293V76.3359C14.3724 74.0097 6.60756 69.958 1.02689 63.2961V62.619H0.961335C0.664185 62.7892 0.418238 63.0361 0.249172 63.3339C0.0801061 63.6317 -0.00583964 63.9694 0.000308134 64.3118Z" fill="#455A64"/>
<path d="M23.6006 76.336V78.6294L26.8005 77.7448V75.364L25.9705 74.9708L23.6006 76.336Z" fill="#37474F"/>
<path d="M0.000297967 64.3118V64.9889C-0.00735371 65.3889 0.132595 65.7777 0.393441 66.081C5.96319 72.5026 13.6735 77.0021 22.5741 79.3502C23.9174 79.8635 26.8006 77.7775 26.8006 77.7775V75.364C26.8006 75.364 23.9502 77.4499 22.5741 76.9475C13.5643 74.5012 5.86492 70.0673 0.207801 63.4491C0.0726676 63.7167 0.00162652 64.012 0.000297967 64.3118Z" fill="#37474F"/>
<path d="M23.6006 76.9583C24.7488 76.6092 25.8303 76.0702 26.8005 75.3638V77.7446C25.8287 78.4482 24.7476 78.9869 23.6006 79.3391V76.9583Z" fill="#263238"/>
<path d="M20.9578 69.6958C21.7114 69.7722 22.3666 70.0235 22.2683 70.7115C22.195 71.4401 21.9396 72.1386 21.5257 72.7428C21.4389 72.9025 21.3056 73.032 21.1435 73.1141C21.0266 73.1643 20.8986 73.1831 20.7722 73.1687C19.9938 73.1274 19.2286 72.9499 18.5115 72.6445C18.2427 72.5471 17.9972 72.3946 17.7907 72.1967C17.4958 71.8254 17.7907 70.7333 17.9982 70.1654C18.2057 69.5975 18.5006 69.674 19.1449 69.6303C19.75 69.6084 20.3559 69.6303 20.9578 69.6958Z" fill="#F59E0B"/>
<path opacity="0.7" d="M20.9578 69.6958C21.7114 69.7722 22.3666 70.0235 22.2683 70.7115C22.195 71.4401 21.9396 72.1386 21.5257 72.7428C21.4389 72.9025 21.3056 73.032 21.1435 73.1141C21.0266 73.1643 20.8986 73.1831 20.7722 73.1687C19.9938 73.1274 19.2286 72.9499 18.5115 72.6445C18.2427 72.5471 17.9972 72.3946 17.7907 72.1967C17.4958 71.8254 17.7907 70.7333 17.9982 70.1654C18.2057 69.5975 18.5006 69.674 19.1449 69.6303C19.75 69.6084 20.3559 69.6303 20.9578 69.6958Z" fill="white"/>
<path d="M21.078 70.0672C21.2089 70.0948 21.3312 70.1539 21.434 70.2396C21.5368 70.3253 21.617 70.4348 21.6677 70.5587C21.6948 70.692 21.6948 70.8294 21.6677 70.9627C21.6801 71.3882 21.5451 71.8049 21.2855 72.1422C21.1492 72.3061 20.9596 72.4167 20.7499 72.4547C20.5402 72.4926 20.3238 72.4555 20.1388 72.3497C20.0154 72.2553 19.9178 72.1313 19.8548 71.9893C19.6897 71.6899 19.6356 71.3419 19.7019 71.0064C19.7294 70.8538 19.787 70.7082 19.8714 70.5781C19.9557 70.448 20.0651 70.336 20.1932 70.2486C20.3212 70.1611 20.4654 70.1001 20.6173 70.0689C20.7692 70.0378 20.9258 70.0373 21.078 70.0672Z" fill="white"/>
<path d="M19.2651 71.9674C19.1887 72.3606 18.588 72.1531 18.3259 71.9674C18.2809 71.9369 18.2404 71.9002 18.2058 71.8582C18.1996 71.8184 18.1996 71.7779 18.2058 71.7381C18.1402 71.4323 18.3696 71.0391 18.7081 71.0719C18.8707 71.1202 19.0155 71.2154 19.1242 71.3456C19.233 71.4757 19.301 71.635 19.3197 71.8036C19.3098 71.8606 19.2914 71.9158 19.2651 71.9674Z" fill="white"/>
<path d="M3.98645 61.0355C4.21345 61.2667 4.34588 61.5745 4.35776 61.8983C4.37776 62.5257 4.34853 63.1538 4.27037 63.7767C4.16116 64.432 3.34209 64.0061 2.94893 63.7221C2.63092 63.5295 2.34987 63.2817 2.11895 62.9904C1.78868 62.0599 1.67292 61.0668 1.78037 60.0854C1.75918 59.8929 1.79729 59.6986 1.88959 59.5284C2.19538 59.0697 2.98171 59.9325 3.23289 60.1837C3.51362 60.44 3.76624 60.7256 3.98645 61.0355Z" fill="#F59E0B"/>
<path opacity="0.7" d="M3.98645 61.0355C4.21345 61.2667 4.34588 61.5745 4.35776 61.8983C4.37776 62.5257 4.34853 63.1538 4.27037 63.7767C4.16116 64.432 3.34209 64.0061 2.94893 63.7221C2.63092 63.5295 2.34987 63.2817 2.11895 62.9904C1.78868 62.0599 1.67292 61.0668 1.78037 60.0854C1.75918 59.8929 1.79729 59.6986 1.88959 59.5284C2.19538 59.0697 2.98171 59.9325 3.23289 60.1837C3.51362 60.44 3.76624 60.7256 3.98645 61.0355Z" fill="white"/>
<path d="M2.87242 63.0229C2.91437 63.1437 2.99021 63.2499 3.09085 63.3287C3.2286 63.4231 3.37947 63.4967 3.53862 63.5472C4.11744 63.7547 3.97547 62.5424 3.44033 62.4551C3.37119 62.4443 3.30056 62.4478 3.23283 62.4654C3.1651 62.4829 3.10169 62.5141 3.04646 62.5571C2.99123 62.6 2.94536 62.6538 2.91168 62.7152C2.878 62.7765 2.8572 62.8441 2.85059 62.9137C2.85413 62.9508 2.86143 62.9874 2.87242 63.0229Z" fill="white"/>
<path d="M3.13468 60.8389C3.31301 61.0641 3.3954 61.3506 3.36401 61.6361C3.32942 61.7455 3.27784 61.8487 3.21114 61.9419C2.43574 63.034 1.94429 61.2867 2.11903 60.6314C2.29377 59.9761 2.81797 60.3256 3.13468 60.8389Z" fill="white"/>
<path d="M36.8917 56.8635L35.2426 55.9134C35.1845 55.8798 35.1186 55.8622 35.0515 55.8622C34.9844 55.8622 34.9185 55.8798 34.8604 55.9134L34.4781 56.1427C34.4231 56.182 34.3791 56.2348 34.3504 56.296C34.3217 56.3572 34.3093 56.4248 34.3143 56.4922V60.4456C34.3239 60.6316 34.3774 60.8127 34.4704 60.974C34.5634 61.1354 34.6933 61.2724 34.8495 61.3739L36.4985 62.335C36.5558 62.3708 36.6221 62.3898 36.6897 62.3898C36.7573 62.3898 36.8235 62.3708 36.8808 62.335L37.2739 62.1056C37.3286 62.0667 37.3718 62.0136 37.3987 61.952C37.4256 61.8905 37.4354 61.8228 37.4268 61.7562V57.8137C37.4189 57.6243 37.3663 57.4395 37.2733 57.2744C37.1803 57.1092 37.0495 56.9684 36.8917 56.8635Z" fill="#FAFAFA"/>
<path d="M37.4596 57.8027V61.7452C37.4681 61.8118 37.4584 61.8795 37.4315 61.9411C37.4046 62.0026 37.3614 62.0557 37.3067 62.0947L36.9245 62.324C36.9741 62.2811 37.0128 62.2271 37.0375 62.1664C37.0622 62.1056 37.0721 62.0399 37.0665 61.9746V58.032C37.0626 57.8434 37.0099 57.6591 36.9136 57.4969L37.3067 57.2676C37.403 57.4298 37.4557 57.6141 37.4596 57.8027Z" fill="#E0E0E0"/>
<path d="M34.8496 61.3303L36.4987 62.2913C36.7935 62.4661 37.0447 62.2913 37.0447 61.9746V58.0321C37.033 57.8439 36.9776 57.661 36.8828 57.4979C36.788 57.3349 36.6565 57.1962 36.4987 57.0929L34.8496 56.1428C34.5547 55.968 34.3145 56.1428 34.3145 56.4486V60.402C34.324 60.588 34.3775 60.7691 34.4705 60.9304C34.5635 61.0918 34.6934 61.2288 34.8496 61.3303Z" fill="#F5F5F5"/>
<path d="M33.3861 61.9964C33.2233 62.1007 33.0879 62.2422 32.991 62.4094C32.8941 62.5766 32.8386 62.7645 32.8291 62.9575C32.8291 63.307 33.0803 63.449 33.3861 63.2742C33.5475 63.1687 33.6821 63.0268 33.7788 62.8599C33.8755 62.693 33.9318 62.5057 33.943 62.3132C33.943 61.9309 33.6918 61.8108 33.3861 61.9964Z" fill="#37474F"/>
<path d="M35.3301 63.853C35.4026 63.8519 35.4739 63.8331 35.5376 63.7984C35.6016 63.7628 35.6547 63.7104 35.6913 63.6469C35.7278 63.5835 35.7464 63.5113 35.7451 63.438V59.43C35.7451 59.4118 35.7414 59.3938 35.7342 59.3772C35.7269 59.3605 35.7163 59.3455 35.7029 59.3332C35.6896 59.3209 35.6738 59.3115 35.6566 59.3056C35.6394 59.2997 35.6212 59.2974 35.6031 59.2989C35.5683 59.2989 35.535 59.3127 35.5104 59.3373C35.4859 59.3619 35.4721 59.3952 35.4721 59.43V63.438C35.4722 63.4633 35.4652 63.4881 35.4516 63.5094C35.438 63.5307 35.4186 63.5476 35.3956 63.5581C35.3757 63.5696 35.3531 63.5757 35.3301 63.5757C35.3071 63.5757 35.2845 63.5696 35.2645 63.5581L33.4516 62.466C33.4195 62.45 33.3825 62.4467 33.3481 62.4568C33.3136 62.4669 33.2843 62.4898 33.266 62.5206C33.2437 62.5464 33.2314 62.5794 33.2314 62.6135C33.2314 62.6476 33.2437 62.6805 33.266 62.7063L35.0789 63.7984C35.1545 63.8435 35.2426 63.8626 35.3301 63.853Z" fill="#263238"/>
<path d="M6.116 73.1687L12.6141 76.9146C12.7997 77.0238 12.9417 76.9146 12.9417 76.6744V74.643C12.94 74.5208 12.9095 74.4007 12.8525 74.2925C12.7956 74.1843 12.7139 74.0911 12.6141 74.0205L6.116 70.2746C5.94127 70.1654 5.79932 70.2746 5.79932 70.5148V72.5462C5.8014 72.6672 5.831 72.7861 5.88587 72.894C5.94074 73.0018 6.01943 73.0958 6.116 73.1687Z" fill="#F5F5F5"/>
<path d="M12.5597 77.0239L6.06162 73.267C5.94407 73.1871 5.8478 73.0796 5.78119 72.954C5.71458 72.8284 5.67963 72.6884 5.67937 72.5462V70.5149C5.67467 70.4448 5.68833 70.3747 5.71897 70.3115C5.74961 70.2483 5.79618 70.1942 5.85412 70.1545C5.9031 70.1234 5.95991 70.1069 6.01793 70.1069C6.07594 70.1069 6.13275 70.1234 6.18173 70.1545L12.6798 73.9004C12.796 73.9817 12.8913 74.0895 12.9577 74.2148C13.0242 74.3401 13.06 74.4794 13.062 74.6212V76.6526C13.0667 76.7227 13.0531 76.7928 13.0224 76.8559C12.9918 76.9191 12.9452 76.9733 12.8873 77.013C12.8406 77.0241 12.792 77.0241 12.7453 77.013C12.6849 77.0296 12.6216 77.0333 12.5597 77.0239ZM6.00703 70.362C5.98694 70.3817 5.97156 70.4057 5.9621 70.4322C5.95264 70.4587 5.94933 70.487 5.9524 70.5149V72.5462C5.9561 72.6484 5.98253 72.7485 6.02976 72.8392C6.07699 72.9298 6.14383 73.0089 6.22543 73.0705L12.7235 76.8164C12.7516 76.8274 12.7827 76.8274 12.8108 76.8164C12.8108 76.8164 12.8655 76.7509 12.8655 76.6526V74.6212C12.8631 74.52 12.8383 74.4205 12.793 74.3299C12.7477 74.2392 12.6829 74.1597 12.6033 74.0971L6.10531 70.3511H6.03979L6.00703 70.362Z" fill="#E0E0E0"/>
<path d="M6.9461 58.8622C6.9461 58.8622 6.9461 58.8622 6.9461 58.7966V58.1304L6.53109 59.2225H6.4765L6.13795 59.026C6.13215 59.0141 6.12915 59.001 6.12915 58.9877C6.12915 58.9745 6.13215 58.9614 6.13795 58.9495L6.9461 56.8745H6.88057L7.17543 57.0493C7.20588 57.0659 7.22919 57.0931 7.24095 57.1257C7.24462 57.1474 7.24462 57.1695 7.24095 57.1912L7.30651 58.2833L8.07097 57.6281H8.12559C8.13887 57.6204 8.15392 57.6164 8.16925 57.6164C8.18459 57.6164 8.19966 57.6204 8.21295 57.6281L8.5078 57.8028C8.51453 57.8204 8.51453 57.8398 8.5078 57.8574C8.51291 57.8789 8.51291 57.9014 8.5078 57.9229L7.69965 59.998H7.64506L7.30651 59.8014C7.30232 59.7834 7.30232 59.7647 7.30651 59.7468C7.30076 59.7368 7.29771 59.7255 7.29771 59.714C7.29771 59.7025 7.30076 59.6912 7.30651 59.6812L7.72148 58.5891L7.27372 58.9714C7.26542 58.9762 7.25601 58.9787 7.24642 58.9787C7.23684 58.9787 7.22743 58.9762 7.21912 58.9714C7.20916 58.9771 7.19787 58.9801 7.18636 58.9801C7.17486 58.9801 7.16356 58.9771 7.1536 58.9714L6.98979 58.8731C6.97463 58.8725 6.95974 58.8688 6.9461 58.8622Z" fill="#F59E0B"/>
<path d="M8.18015 60.2711C8.17499 60.2532 8.17499 60.2343 8.18015 60.2164C8.1744 60.2065 8.17139 60.1952 8.17139 60.1837C8.17139 60.1722 8.1744 60.1609 8.18015 60.1509L8.9883 58.0759H9.06476L9.88384 58.5455C9.99058 58.601 10.0838 58.6793 10.1569 58.7749C10.2102 58.8555 10.2507 58.944 10.277 59.037C10.2936 59.1272 10.2936 59.2198 10.277 59.31C10.2669 59.3964 10.2448 59.4809 10.2115 59.5612C10.1799 59.6578 10.1234 59.7445 10.0476 59.8124L9.97119 59.867C9.99194 59.9605 9.99194 60.0574 9.97119 60.1509C9.96807 60.2525 9.94585 60.3525 9.90567 60.4458C9.8729 60.5314 9.82883 60.6122 9.77462 60.686C9.72351 60.7518 9.66056 60.8074 9.58898 60.8499C9.51039 60.8718 9.42731 60.8718 9.34872 60.8499C9.23965 60.8461 9.1338 60.812 9.04293 60.7516L8.18015 60.2711ZM9.74186 59.2554C9.75271 59.2314 9.75832 59.2053 9.75832 59.179C9.75832 59.1526 9.75271 59.1265 9.74186 59.1025C9.72687 59.0539 9.69615 59.0116 9.6545 58.9824L9.25043 58.764L9.10845 59.1243L9.51252 59.3537C9.53202 59.3664 9.55478 59.3731 9.57805 59.3731C9.60131 59.3731 9.62407 59.3664 9.64357 59.3537C9.64357 59.3537 9.72002 59.31 9.74186 59.2554ZM8.7808 60.0089L9.1958 60.2492C9.22 60.2594 9.246 60.2647 9.27226 60.2647C9.29852 60.2647 9.32452 60.2594 9.34872 60.2492C9.39508 60.2226 9.43005 60.1798 9.447 60.1291C9.46309 60.0757 9.46309 60.0187 9.447 59.9653C9.427 59.9102 9.38836 59.8638 9.33778 59.8342L8.92278 59.5939L8.7808 60.0089Z" fill="#F59E0B"/>
<path d="M12.2646 59.8779C12.2693 59.8958 12.2693 59.9146 12.2646 59.9325C12.2707 59.9577 12.2707 59.9838 12.2646 60.009L11.7732 61.2867C11.7203 61.4155 11.6505 61.5367 11.5657 61.6471C11.4878 61.7291 11.3952 61.7958 11.2927 61.8437C11.1883 61.8658 11.0804 61.8658 10.976 61.8437C10.8571 61.8174 10.743 61.7732 10.6374 61.7126C10.5286 61.6509 10.4323 61.5694 10.3534 61.4724C10.269 61.3818 10.2056 61.2736 10.1678 61.1557C10.1452 61.0329 10.1452 60.9071 10.1678 60.7844C10.182 60.6387 10.2151 60.4956 10.2661 60.3584L10.7575 59.0807H10.823L11.1507 59.2663C11.1553 59.2842 11.1553 59.303 11.1507 59.3209C11.1563 59.3461 11.1563 59.3722 11.1507 59.3974L10.6483 60.6642C10.6176 60.775 10.6176 60.892 10.6483 61.0028C10.6567 61.0552 10.6781 61.1046 10.7105 61.1466C10.7429 61.1886 10.7854 61.2217 10.834 61.243C10.873 61.2684 10.9185 61.2819 10.965 61.2819C11.0116 61.2819 11.0571 61.2684 11.0961 61.243C11.1909 61.1821 11.2607 61.0891 11.2927 60.9809L11.7841 59.7141H11.8496L12.2646 59.8779Z" fill="#F59E0B"/>
<path d="M13.2475 62.5645C13.2521 62.5824 13.2521 62.6012 13.2475 62.6191C13.2535 62.6442 13.2535 62.6704 13.2475 62.6956L13.1165 63.0341C13.1211 63.052 13.1211 63.0708 13.1165 63.0887H13.0619L11.8824 62.4116C11.8778 62.3937 11.8778 62.3749 11.8824 62.357C11.8779 62.3317 11.8779 62.3058 11.8824 62.2806L12.6796 60.2165V60.1619H12.7451L13.0728 60.3475C13.0774 60.3654 13.0774 60.3842 13.0728 60.4021C13.0781 60.4273 13.0781 60.4534 13.0728 60.4786L12.4394 62.1167L13.2475 62.5645Z" fill="#F59E0B"/>
<path d="M15.1479 61.5487C15.1479 61.5487 15.2135 61.5487 15.2135 61.6252C15.2188 61.6577 15.2188 61.6909 15.2135 61.7234L14.9841 64.0606C14.9908 64.0782 14.9908 64.0976 14.9841 64.1152L14.6565 63.9295C14.641 63.9269 14.6271 63.9188 14.617 63.9068C14.607 63.8948 14.6017 63.8796 14.6019 63.864C14.5968 63.8424 14.5968 63.82 14.6019 63.7984V63.4927L13.9248 63.0995L13.75 63.3288C13.7218 63.3388 13.6909 63.3388 13.6626 63.3288L13.346 63.1432C13.3402 63.1332 13.3372 63.1219 13.3372 63.1104C13.3372 63.0989 13.3402 63.0876 13.346 63.0776L14.6783 61.3849L14.7439 61.3303C14.7591 61.3226 14.7759 61.3186 14.793 61.3186C14.81 61.3186 14.8269 61.3226 14.8421 61.3303L15.1479 61.5487ZM14.1978 62.7063L14.6128 62.9466L14.7002 62.062L14.1978 62.7063Z" fill="#F59E0B"/>
<path d="M16.3272 64.9779C16.3196 64.953 16.3196 64.9264 16.3272 64.9015C16.3225 64.8799 16.3225 64.8575 16.3272 64.836L16.1744 63.4053L15.7484 64.4974C15.753 64.5153 15.753 64.5341 15.7484 64.552H15.6174L15.2788 64.3554C15.273 64.3435 15.27 64.3304 15.27 64.3172C15.27 64.304 15.273 64.2909 15.2788 64.279L16.087 62.2149C16.0802 62.1973 16.0802 62.1779 16.087 62.1603H16.1416L16.4037 62.3132C16.4192 62.3179 16.4332 62.3263 16.4446 62.3378C16.4561 62.3492 16.4645 62.3632 16.4692 62.3787C16.4729 62.4004 16.4729 62.4225 16.4692 62.4442L16.633 63.8749L17.048 62.7828C17.0434 62.7649 17.0434 62.7461 17.048 62.7282H17.1136L17.4412 62.9138C17.4458 62.9317 17.4458 62.9506 17.4412 62.9685C17.4465 62.9937 17.4465 63.0197 17.4412 63.0449L16.644 65.109C16.6481 65.1269 16.6481 65.1456 16.644 65.1636H16.5784L16.3272 64.9779Z" fill="#F59E0B"/>
<path d="M17.9656 64.2244V64.3336L17.9001 64.4865L17.8455 64.6394V64.7595V64.9124C17.84 64.9632 17.84 65.0144 17.8455 65.0653C17.8584 65.1129 17.8807 65.1574 17.911 65.1963C17.9466 65.2443 17.9911 65.2851 18.042 65.3165C18.0924 65.3271 18.1445 65.3271 18.1949 65.3165H18.3151H18.4024L18.4679 65.24H18.5226H18.5881L18.9157 65.4257C18.9215 65.4356 18.9245 65.4469 18.9245 65.4584C18.9245 65.4699 18.9215 65.4812 18.9157 65.4912C18.8761 65.5924 18.8124 65.6824 18.7301 65.7533C18.6593 65.8285 18.5682 65.8816 18.4679 65.9062C18.3635 65.9283 18.2557 65.9283 18.1512 65.9062C18.0325 65.8851 17.9181 65.8445 17.8127 65.7861C17.7 65.7164 17.6002 65.6277 17.5178 65.524C17.4346 65.43 17.3747 65.3178 17.3431 65.1963C17.3036 65.0766 17.2851 64.951 17.2885 64.825C17.2996 64.6996 17.3215 64.5753 17.354 64.4537C17.354 64.3663 17.4195 64.268 17.4632 64.1697C17.5069 64.0714 17.5396 63.9732 17.5833 63.8858C17.6256 63.7764 17.6886 63.6763 17.769 63.5909C17.8405 63.5092 17.9303 63.4456 18.0311 63.4053C18.1353 63.3643 18.2469 63.3456 18.3588 63.3506C18.4838 63.3669 18.6033 63.4117 18.7082 63.4817C18.8226 63.5398 18.9231 63.6217 19.0031 63.722C19.079 63.8147 19.1415 63.9177 19.1887 64.0278C19.2314 64.1394 19.2536 64.2577 19.2543 64.3772C19.2584 64.4961 19.2398 64.6147 19.1997 64.7267H19.1451L18.8174 64.5411H18.7628V64.4428C18.7685 64.4102 18.7685 64.377 18.7628 64.3445C18.7731 64.3088 18.7731 64.2709 18.7628 64.2353C18.7497 64.191 18.7274 64.1501 18.6973 64.1151L18.5663 64.0059C18.5162 63.9925 18.4634 63.9925 18.4133 64.0059C18.3713 63.9889 18.3243 63.9889 18.2823 64.0059C18.2389 64.0251 18.2013 64.0552 18.1731 64.0933C18.0966 64.1242 18.0263 64.1686 17.9656 64.2244Z" fill="#F59E0B"/>
<path d="M20.2807 66.6271C20.2853 66.645 20.2853 66.6638 20.2807 66.6817C20.286 66.7069 20.286 66.733 20.2807 66.7582L20.1496 67.0967H20.095L18.8828 66.3978C18.8789 66.3892 18.8769 66.3799 18.8769 66.3705C18.8769 66.3611 18.8789 66.3518 18.8828 66.3432C18.877 66.3332 18.874 66.3219 18.874 66.3104C18.874 66.2989 18.877 66.2876 18.8828 66.2777L19.691 64.2026L20.8814 64.8907C20.8881 64.9083 20.8881 64.9277 20.8814 64.9453C20.8865 64.9668 20.8865 64.9893 20.8814 65.0108L20.7503 65.3494C20.757 65.367 20.757 65.3864 20.7503 65.404H20.6957L19.9094 64.9453L19.7783 65.2947L20.4991 65.7098C20.5037 65.7277 20.5037 65.7465 20.4991 65.7644V65.8408L20.3571 66.1794C20.3639 66.197 20.3639 66.2164 20.3571 66.234H20.3025L19.5708 65.819L19.4288 66.1794L20.2807 66.6271Z" fill="#F59E0B"/>
<path d="M27.2812 18.5744L58.4172 0.631075C59.1287 0.217718 59.9369 0 60.7598 0C61.5827 0 62.3909 0.217718 63.1024 0.631075L80.9911 10.9515C81.6967 11.3601 82.2834 11.9458 82.6933 12.6506C83.1032 13.3555 83.322 14.1551 83.3282 14.9705L83.8306 41.181C83.832 42.0051 83.6156 42.8149 83.2033 43.5284C82.7909 44.2418 82.1973 44.8336 81.4825 45.2437L49.8114 63.4819V31.6033L27.2812 18.5744Z" fill="#FAFAFA"/>
<path d="M50.3791 11.3445C51.6896 10.5691 53.0002 9.8156 54.3107 9.02928L56.2656 7.86072L58.1986 6.65942L56.1891 7.75153L54.2015 8.84364C52.8691 9.58627 51.5586 10.3507 50.2372 11.1043C48.9157 11.8578 47.6052 12.6223 46.3056 13.4086C45.006 14.195 43.6954 14.9703 42.4067 15.7785C43.75 15.0686 45.0824 14.326 46.4148 13.5943L50.3791 11.3445ZM67.4706 14.2496L65.483 15.3417C64.1506 16.0734 62.8401 16.8378 61.5186 17.5914C60.1972 18.345 58.8866 19.1204 57.587 19.8958C56.2874 20.6712 54.9332 21.523 53.6882 22.2875C55.0315 21.5776 56.3639 20.8459 57.6962 20.1033L61.6497 17.8535L65.5922 15.5492L67.5361 14.3697C68.1914 13.9765 68.8357 13.5834 69.4801 13.1684L67.4706 14.2496ZM57.6417 10.9732L59.5965 9.80467L61.5296 8.60337C60.8524 8.95285 60.1972 9.32416 59.5201 9.69548L57.5324 10.7876C56.2001 11.5302 54.8895 12.2947 53.5681 13.0373C52.2466 13.78 50.9361 14.5663 49.6365 15.3526C48.3369 16.1389 47.0263 16.9143 45.7377 17.7224C47.0809 17.0126 48.4133 16.2699 49.7457 15.5382C51.0781 14.8065 52.3886 14.0311 53.7101 13.2776C55.0315 12.524 56.3857 11.7705 57.6962 10.9842L57.6417 10.9732ZM58.2205 15.8877L62.152 13.5834L64.1069 12.4039L66.04 11.2135C65.3738 11.563 64.7076 11.9343 64.0305 12.3056L62.0428 13.3977C60.7105 14.1403 59.3999 14.8939 58.0785 15.6474C56.757 16.401 55.4465 17.1764 54.1469 17.9518C52.8473 18.7272 51.5367 19.5135 50.2481 20.3217C51.5914 19.6118 52.9237 18.8801 54.2561 18.1375L58.2205 15.8877Z" fill="#E0E0E0"/>
<path d="M79.5057 46.3795L74.8643 44.1953C74.8643 44.1953 75.2247 39.8268 78.2935 40.9189C81.3623 42.011 79.5057 46.3795 79.5057 46.3795Z" fill="#37474F"/>
<path d="M76.9611 45.8224L77.9549 43.8347L75.5741 42.4587C75.1185 42.2401 74.6125 42.1481 74.1091 42.1923C73.6057 42.2365 73.1234 42.4153 72.7128 42.7099C71.439 43.5849 70.3894 44.7481 69.6494 46.1048C68.9093 47.4616 68.4997 48.9737 68.4536 50.5184C68.3894 51.1149 68.4803 51.7179 68.7176 52.2689C68.9548 52.82 69.3304 53.3004 69.8078 53.6637L72.2432 55.0725L73.3353 52.9757C74.3907 52.0893 75.2559 50.9987 75.879 49.7694C76.5021 48.5402 76.8702 47.1976 76.9611 45.8224Z" fill="#263238"/>
<path d="M79.4292 47.0346C79.383 48.3828 79.0696 49.7083 78.5072 50.9344C77.9448 52.1604 77.1445 53.2626 76.1528 54.177C75.8604 54.43 75.5461 54.6566 75.2136 54.8541C72.8656 56.2083 70.9653 54.9087 70.9653 51.9491C71.0543 49.5482 71.9862 47.2553 73.5973 45.4729C74.0601 44.9513 74.6018 44.5054 75.2027 44.1515C77.5289 42.7864 79.4292 44.086 79.4292 47.0346Z" fill="#37474F"/>
<path d="M75.1811 45.9206C76.6773 45.0578 77.8895 45.9206 77.8895 47.9301C77.8718 48.938 77.6175 49.9278 77.1471 50.8194C76.6766 51.711 76.0032 52.4795 75.1811 53.063C73.6849 53.9258 72.4727 53.063 72.4727 51.0535C72.4912 50.0457 72.7459 49.0563 73.2162 48.1649C73.6866 47.2734 74.3596 46.5047 75.1811 45.9206Z" fill="#455A64"/>
<path d="M75.1811 47.6463C75.9565 47.1985 76.5899 47.6463 76.5899 48.6838C76.5802 49.2073 76.4477 49.7212 76.203 50.184C75.9583 50.6469 75.6083 51.0458 75.1811 51.3485C74.4057 51.7963 73.7832 51.3485 73.7832 50.2564C73.795 49.7422 73.9276 49.2379 74.1705 48.7844C74.4133 48.331 74.7595 47.9411 75.1811 47.6463Z" fill="#E0E0E0"/>
<path d="M75.6835 47.6243C75.78 47.5689 75.8826 47.5249 75.9893 47.4933C76.3824 47.6025 76.6446 48.0284 76.6446 48.6837C76.6179 49.4563 76.3421 50.1995 75.8582 50.8024L75.6835 50.9116C74.9955 51.3157 74.4385 50.9116 74.4385 49.9942C74.4452 49.5292 74.5614 49.0722 74.7777 48.6605C74.994 48.2487 75.3044 47.8937 75.6835 47.6243Z" fill="#F5F5F5"/>
<path d="M79.4293 47.0345C79.3832 48.3826 79.0698 49.7082 78.5074 50.9342C77.945 52.1603 77.1447 53.2625 76.153 54.1769C77.4704 52.6869 78.3973 50.8932 78.8505 48.9566C79.2109 47.2529 79.0798 44.8066 77.6164 44.1841C76.153 43.5616 74.22 44.8722 73.6084 45.4619C74.0712 44.9402 74.6129 44.4943 75.2138 44.1404C77.5291 42.7862 79.4293 44.0858 79.4293 47.0345Z" fill="#455A64"/>
<path d="M83.3281 15.0796C83.3281 15.0796 83.8304 30.0305 83.8304 41.181C83.8289 42.0017 83.6123 42.8076 83.2022 43.5185C82.7922 44.2294 82.203 44.8204 81.4933 45.2327L79.5057 46.3794V45.9425C79.5057 43.1577 77.8457 41.8035 75.6069 42.4806L75.2465 42.6007C74.9595 42.7131 74.6819 42.8482 74.4165 43.0048C72.9256 43.9683 71.6842 45.2712 70.7939 46.8069C69.9036 48.3426 69.3898 50.0674 69.2945 51.8399C69.2813 51.9707 69.2813 52.1024 69.2945 52.2331L49.8113 63.4709V31.6032L80.8818 13.6926C81.1257 13.5383 81.407 13.4531 81.6956 13.4461C81.9842 13.4392 82.2693 13.5107 82.5205 13.6531C82.7716 13.7955 82.9794 14.0034 83.1216 14.2546C83.2639 14.5059 83.3352 14.791 83.3281 15.0796Z" fill="#E0E0E0"/>
<path d="M57.1175 33.2195L48.6646 38.1012C48.3641 38.2912 48.1145 38.5517 47.9375 38.86C47.7605 39.1683 47.6615 39.5152 47.6489 39.8704V47.3186C47.6489 47.963 48.0967 48.2251 48.6646 47.9084L57.1175 43.0376C57.418 42.8476 57.6676 42.5871 57.8446 42.2788C58.0216 41.9705 58.1206 41.6236 58.1332 41.2683V33.8093C58.1113 33.1649 57.6526 32.9028 57.1175 33.2195Z" fill="#37474F"/>
<path d="M84.8242 41.039L83.8303 40.4602V41.1155L81.9956 42.2076V44.9379L82.498 45.2218L84.8242 43.8785C84.9364 43.815 85.0298 43.723 85.095 43.6117C85.1602 43.5005 85.1949 43.374 85.1955 43.2451V41.7052C85.2021 41.5706 85.1708 41.4367 85.1052 41.319C85.0395 41.2012 84.9422 41.1042 84.8242 41.039Z" fill="#263238"/>
<path d="M82.498 45.189L81.9956 44.9051V42.1748L82.498 42.4697V45.189Z" fill="#37474F"/>
<path d="M81.9956 42.1748L82.498 42.4697L84.6276 41.2138C84.6524 41.198 84.6728 41.1762 84.687 41.1504C84.7011 41.1247 84.7085 41.0957 84.7085 41.0663C84.7085 41.0369 84.7011 41.008 84.687 40.9822C84.6728 40.9565 84.6524 40.9347 84.6276 40.9189L83.8413 40.4602V41.1155L81.9956 42.1748Z" fill="#455A64"/>
<path d="M26.9427 71.5633L30.3501 69.6084C31.7152 67.6973 33.954 65.5021 36.4877 66.07L71.315 46.0408C72.6802 44.1077 74.9081 41.8798 77.4745 42.404C77.5619 42.5133 78.1298 42.0983 78.2062 42.0764C78.2827 42.0546 83.4921 39.0404 83.8524 38.8001C83.8524 37.293 83.8524 35.7422 83.8524 34.1914L29.2471 65.6004C28.5886 65.973 28.0504 66.5263 27.6963 67.1949L25.9271 70.4712C25.8292 70.6144 25.7829 70.7867 25.7958 70.9597C25.8088 71.1327 25.8802 71.2962 25.9984 71.4232C26.1165 71.5503 26.2744 71.6333 26.446 71.6588C26.6176 71.6842 26.7928 71.6506 26.9427 71.5633Z" fill="#F59E0B"/>
<path opacity="0.2" d="M26.9427 71.5633L30.3501 69.6084C31.7152 67.6973 33.954 65.5021 36.4877 66.07L71.315 46.0408C72.6911 44.0859 74.9736 41.8034 77.5728 42.4368L78.2062 42.0764C78.3919 41.9563 83.4921 39.0404 83.8524 38.8001C83.8524 37.293 83.8524 35.7422 83.8524 34.1914L29.2471 65.6004C28.5886 65.973 28.0504 66.5263 27.6963 67.1949L25.9271 70.4712C25.8292 70.6144 25.7829 70.7867 25.7958 70.9597C25.8088 71.1327 25.8802 71.2962 25.9984 71.4232C26.1165 71.5503 26.2744 71.6333 26.446 71.6588C26.6176 71.6842 26.7928 71.6506 26.9427 71.5633Z" fill="black"/>
<path opacity="0.2" d="M46.1963 65.5897L45.5083 65.9829V34.3117C45.7267 34.137 45.9561 33.9841 46.1963 33.8203V65.5897Z" fill="black"/>
<path d="M79.8333 42.1311V42.6663C79.8333 42.7755 79.9097 42.8192 80.008 42.7646L80.9581 42.2185C81.0071 42.1852 81.0481 42.1415 81.0783 42.0905C81.1085 42.0396 81.1271 41.9826 81.1329 41.9236V41.3885C81.1351 41.3673 81.1311 41.3459 81.1213 41.327C81.1115 41.3081 81.0964 41.2924 81.0778 41.282C81.0592 41.2715 81.038 41.2667 81.0167 41.2682C80.9955 41.2697 80.9751 41.2773 80.9581 41.2902L80.008 41.8363C79.9573 41.8678 79.915 41.911 79.8846 41.9623C79.8542 42.0137 79.8365 42.0716 79.8333 42.1311Z" fill="white"/>
<path d="M46.1965 36.2774V37.0419L49.8551 34.9341L83.3282 15.6257C83.3282 15.2653 83.3282 15.0796 83.3282 15.0796C83.3336 15.0142 83.3336 14.9485 83.3282 14.8831L49.866 34.1696L46.1965 36.2774Z" fill="#F59E0B"/>
<path opacity="0.2" d="M46.1965 36.2774V37.0419L49.8551 34.9341L83.3282 15.6257C83.3282 15.2653 83.3282 15.0796 83.3282 15.0796C83.3336 15.0142 83.3336 14.9485 83.3282 14.8831L49.866 34.1696L46.1965 36.2774Z" fill="black"/>
<path d="M66.4658 31.756L68.0057 28.4906L69.8404 29.3752V26.2627L72.0246 24.9958V28.1084L73.8485 25.116L75.3993 26.6012L72.8219 30.8277L75.3993 32.0727L73.8485 35.349L72.0246 34.4644V37.566L69.8404 38.8329V35.7204L68.0057 38.7236L66.4658 37.2384L69.0323 33.0119L66.4658 31.756Z" fill="#F59E0B"/>
<path opacity="0.2" d="M66.4658 31.756L68.0057 28.4906L69.8404 29.3752V26.2627L72.0246 24.9958V28.1084L73.8485 25.116L75.3993 26.6012L72.8219 30.8277L75.3993 32.0727L73.8485 35.349L72.0246 34.4644V37.566L69.8404 38.8329V35.7204L68.0057 38.7236L66.4658 37.2384L69.0323 33.0119L66.4658 31.756Z" fill="black"/>
<path d="M44.1979 60.4893L43.5426 60.8606C43.3898 60.948 43.2805 60.8607 43.2805 60.6641V58.742C43.2805 58.6418 43.3043 58.543 43.3498 58.4538C43.3954 58.3646 43.4615 58.2874 43.5426 58.2287L44.1979 57.8573C44.3399 57.77 44.46 57.8574 44.46 58.054V59.987C44.4567 60.085 44.4314 60.181 44.3861 60.268C44.3407 60.3549 44.2764 60.4305 44.1979 60.4893Z" fill="#263238"/>
<path d="M48.3149 58.1304L47.6597 58.5127C47.5068 58.5891 47.3976 58.5127 47.3976 58.3052V56.3831C47.3956 56.2841 47.4185 56.1862 47.4643 56.0984C47.5101 56.0106 47.5773 55.9357 47.6597 55.8807L48.3149 55.4985C48.4569 55.4111 48.577 55.4985 48.577 55.6951V57.6281C48.5745 57.7263 48.5496 57.8226 48.5042 57.9096C48.4588 57.9967 48.394 58.0722 48.3149 58.1304Z" fill="#263238"/>
<path d="M45.847 29.7792L26.4949 18.6069L30.3609 16.379L49.724 27.5513L45.847 29.7792Z" fill="#F59E0B"/>
<path opacity="0.6" d="M45.847 29.7792L26.4949 18.6069L30.3609 16.379L49.724 27.5513L45.847 29.7792Z" fill="white"/>
<path d="M26.4948 18.6071L25.3481 20.7257L45.847 32.5642V29.7793L26.4948 18.6071Z" fill="#F59E0B"/>
<path opacity="0.4" d="M26.4948 18.6071L25.3481 20.7257L45.847 32.5642V29.7793L26.4948 18.6071Z" fill="white"/>
<path d="M49.7239 27.5514L50.8488 29.6701L45.8469 32.5642V29.7793L49.7239 27.5514Z" fill="#F59E0B"/>
<path opacity="0.25" d="M49.7239 27.5514L50.8488 29.6701L45.8469 32.5642V29.7793L49.7239 27.5514Z" fill="white"/>
<path d="M38.1039 25.3127L41.9809 23.0848L38.1039 20.8459L34.2378 23.0848L38.1039 25.3127Z" fill="#FAFAFA"/>
<path d="M38.1038 25.3126L37.2302 27.5951L33.2112 25.2689L34.2378 23.0847L38.1038 25.3126Z" fill="#EBEBEB"/>
</svg>
