<svg width="865" height="53" viewBox="0 0 865 53" fill="none" xmlns="http://www.w3.org/2000/svg">
<path d="M573.987 55C573.987 55 553.338 30.1099 515.071 30.1099C476.805 30.1099 470.13 39.8174 449.468 24.1416C428.806 8.46593 422.742 -1.32368 403.303 0.145273C383.864 1.61423 362.603 25.1278 336.489 24.1416C310.375 23.1555 313.407 6.38063 269.676 5.21985C225.944 4.05906 191.321 36.8794 159.742 36.8794C128.163 36.8794 123.297 23.6588 95.3609 24.1416C67.4253 24.6244 0 55 0 55H574H573.987Z" fill="#96CABC"/>
<path d="M1081 53.6156C1081 53.6156 1057.31 28.8631 1011.53 31.2713C965.739 33.6795 955.739 33.6795 937.846 20.9608C919.953 8.24205 909.422 1.0391 885.216 9.9725C861.009 18.9059 845.743 31.5309 826.272 26.5919C806.8 21.653 787.329 8.95586 759.424 9.9725C731.52 10.9891 706.794 19.5909 696.264 24.7461C685.733 29.9014 663.105 38.4959 636.26 37.811C609.415 37.126 606.788 27.1615 575.738 27.5004C544.687 27.8393 531 35.7488 531 35.7488L585.209 55L1081 53.6229V53.6156Z" fill="#96CABC"/>
</svg>
