<svg width="95" height="120" viewBox="0 0 95 120" fill="none" xmlns="http://www.w3.org/2000/svg">
<path d="M20.4193 118.3C17.5207 119.909 12.8203 119.909 9.92172 118.3C7.02316 116.692 7.02316 114.086 9.92172 112.477C12.8203 110.868 17.5207 110.868 20.4193 112.477C23.3179 114.086 23.3179 116.692 20.4193 118.3Z" fill="#E9EBF2"/>
<path d="M85.2831 82.094C82.3845 83.7027 77.6841 83.7027 74.7855 82.094C71.8869 80.4853 71.8869 77.8793 74.7855 76.2705C77.6841 74.6618 82.3845 74.6618 85.2831 76.2705C88.1816 77.8793 88.1816 80.4853 85.2831 82.094Z" fill="#E9EBF2"/>
<path d="M67.2753 45.0787C62.6973 47.6188 55.2795 47.6188 50.7015 45.0787C46.1236 42.5386 46.1236 38.4227 50.7015 35.8873C55.2795 33.3471 62.6973 33.3471 67.2753 35.8873C71.8533 38.4274 71.8533 42.5433 67.2753 45.0787Z" fill="#E9EBF2"/>
<path d="M28.0648 36.1132C27.4773 37.6138 26.7428 39.0579 25.979 40.4879C26.0867 40.4174 26.1993 40.342 26.3217 40.2621C26.6351 40.0598 26.8506 39.6223 27.2325 39.5047C27.5067 39.4201 27.8395 39.7117 28.0207 39.6412C28.7747 39.3354 28.8335 39.1378 28.76 38.2159C28.7258 37.7784 28.4663 36.8894 28.055 36.1085L28.0648 36.1132Z" fill="#ED7A7F"/>
<path d="M52.0132 70.2402L47.7486 62.3376C47.2492 61.4109 46.6372 60.5266 45.9223 59.7034L44.4192 57.9723L42.5538 55.8226C41.6333 56.0908 40.7177 56.3871 39.8119 56.7117C38.3724 57.2903 36.9672 57.9347 35.5718 58.612L35.7284 59.3647L48.3557 71.4021L49.0266 72.1923C50.1135 71.7125 51.2103 71.2468 52.2874 70.7529L52.0083 70.2402H52.0132Z" fill="#55608F"/>
<path d="M53.3165 71.9711L51.2356 68.7113C51.0887 68.8665 50.9321 69.017 50.7705 69.1582C50.4474 69.8873 49.6394 70.353 48.7238 70.3341C48.3468 70.4611 47.9601 70.5552 47.5684 70.6069L48.3566 71.7735C49.0714 72.8272 49.3212 74.1067 49.0617 75.3391L48.7434 76.8585L48.1265 77.5358C47.7593 77.9404 47.9306 78.5613 48.4839 78.8106C48.807 78.9565 49.1841 78.9423 49.468 78.7683L51.8722 77.2772L53.4585 73.2177C53.6152 72.8131 53.5662 72.3568 53.3165 71.9664V71.9711Z" fill="#DADEF0"/>
<path d="M52.4611 34.0996L52.4121 34.0197C50.7768 34.0103 49.1414 34.0385 47.5159 34.189C46.4338 34.3678 45.3959 34.6218 44.3677 34.9981C43.3541 35.4591 42.3552 35.953 41.3564 36.4469L43.7507 38.6107L34.4038 53.842L34.443 53.6962C33.3022 55.733 34.443 59.6796 36.6071 59.8631C37.8018 59.9666 39.2952 59.562 41.1753 58.0897C41.7139 57.6663 42.1937 57.1771 42.6148 56.6315L51.0461 45.7513C51.0461 45.7513 51.0559 45.7419 51.0559 45.7372C52.7891 43.7333 53.5382 40.9909 53.1122 38.2579L52.4611 34.1043V34.0996Z" fill="#55608F"/>
<path d="M54.8146 79.0412L54.0361 72.8649C53.9724 72.3663 53.4877 72.0182 52.9687 72.1123L49.1887 72.7802C49.1887 72.7802 50.6184 74.2855 49.6783 76.3458L51.8622 75.4897L53.7129 79.3423C53.8011 79.5257 53.9822 79.648 54.1879 79.6621C54.5551 79.6903 54.8538 79.3893 54.8097 79.0412H54.8146Z" fill="#DADEF0"/>
<path d="M64.127 38.8132C62.947 37.8206 60.4108 37.3456 58.7069 37.7078C56.4155 38.197 51.6417 41.1181 54.0555 42.9291C55.0544 43.677 56.7974 43.4607 58.2124 43.1879C58.8685 43.0609 59.5246 42.9338 60.1758 42.8068C61.7426 42.5011 63.466 42.1153 64.2886 41.1369C65.0622 40.2196 64.8467 39.4247 64.127 38.8179V38.8132Z" fill="#633750"/>
<path d="M72.4265 82.2492C71.4375 82.2492 70.4728 82.1081 69.5328 81.8211C65.5619 80.6028 62.6927 76.929 61.454 71.4771C58.9569 60.4887 63.9756 45.3844 72.6321 37.8158C76.931 34.0574 81.4796 32.6603 85.4553 33.8786C89.4261 35.0969 92.2953 38.7707 93.5341 44.2226C96.0311 55.211 91.0126 70.3153 82.3561 77.884C79.0707 80.7534 75.6335 82.2492 72.4265 82.2492ZM82.5715 34.6218C79.6631 34.6218 76.5099 36.0095 73.4595 38.6813C65.087 46.0006 60.2398 60.6017 62.6488 71.2279C63.7896 76.2564 66.3698 79.6197 69.9049 80.7063C73.4449 81.7929 77.5773 80.4805 81.5383 77.0184C89.9109 69.6991 94.7581 55.0981 92.3492 44.4719C91.2084 39.4434 88.628 36.0801 85.0881 34.9934C84.2753 34.7441 83.4332 34.6218 82.5715 34.6218Z" fill="white"/>
<path d="M72.4248 82.2539C71.4358 82.2539 70.4662 82.1127 69.5262 81.8258C65.5504 80.6075 62.6812 76.9337 61.4425 71.4819C58.9454 60.4888 63.9641 45.3797 72.6255 37.8064C76.9195 34.0527 81.473 32.6556 85.4487 33.8739C89.4244 35.0922 92.2936 38.766 93.5324 44.2179C96.0294 55.211 91.0109 70.32 82.3495 77.8933C79.069 80.7627 75.6318 82.2539 72.4199 82.2539H72.4248ZM62.6324 71.2326C63.7732 76.2564 66.3534 79.6244 69.8983 80.711C73.4383 81.7976 77.5756 80.4899 81.5317 77.0278C89.9091 69.7038 94.7613 55.0981 92.3475 44.4672C91.2067 39.4434 88.6263 36.0754 85.0815 34.9887C81.5366 33.9021 77.4042 35.2098 73.448 38.6719C65.0706 45.9959 60.2185 60.6017 62.6324 71.2326Z" fill="#DADEF0"/>
<path d="M72.1868 83.4485C71.1488 83.4485 70.1303 83.298 69.1461 82.997C64.9746 81.7175 61.9684 77.8697 60.6709 72.1638C58.0514 60.6203 63.3197 44.7634 72.412 36.809C76.9067 32.8765 81.6805 31.4183 85.8521 32.6931C90.0237 33.9725 93.03 37.8204 94.3275 43.5262C96.947 55.0697 91.6786 70.9267 82.5864 78.881C79.1492 81.8821 75.5554 83.4438 72.1868 83.4438V83.4485ZM73.2296 37.6792C64.4213 45.3796 59.3195 60.7379 61.8606 71.9192C63.0602 77.2017 65.7776 80.739 69.5183 81.8868C73.2541 83.0346 77.6068 81.661 81.7686 78.0202C90.5769 70.3198 95.6788 54.9615 93.1376 43.7803C91.9381 38.4977 89.2207 34.9604 85.48 33.8126C81.7393 32.6648 77.3914 34.0384 73.2296 37.6792Z" fill="#633750"/>
<path d="M48.3529 94.3523C48.0885 94.3523 47.8339 94.23 47.6724 94.0089C47.4178 93.6514 47.5157 93.1623 47.8878 92.9176L52.9015 89.6437C53.2736 89.3991 53.7829 89.4932 54.0375 89.8507C54.2921 90.2082 54.1942 90.6974 53.822 90.942L48.8083 94.2159C48.6663 94.31 48.5096 94.3523 48.348 94.3523H48.3529Z" fill="#748BC9"/>
<path d="M51.6516 75.1557C51.5879 75.1557 51.5243 75.151 51.4607 75.1322C51.0249 75.0334 50.7556 74.6101 50.8633 74.1914L59.7205 38.7943C59.8233 38.3757 60.264 38.1169 60.6998 38.2204C61.1355 38.3192 61.4049 38.7426 61.2972 39.1612L52.4399 74.5583C52.3518 74.9158 52.0188 75.1557 51.6516 75.1557Z" fill="#EDB373"/>
<path d="M14.0007 92.7153C13.6628 92.7153 13.3494 92.513 13.2319 92.1884C13.085 91.7792 13.3103 91.337 13.7362 91.1959C14.1426 91.0595 14.4266 90.9843 14.6323 90.9325C15.068 90.8149 15.1806 90.7867 16.0178 90.1893C17.0607 84.8926 18.7891 78.7635 20.4685 72.8271C22.099 67.0554 23.7833 61.0908 24.7968 56.0058C24.8066 55.9447 24.8212 55.8835 24.831 55.8223C24.8555 55.7095 24.8996 55.606 24.9681 55.5166V55.5119V55.5025C24.9926 55.4789 25.0172 55.4554 25.0417 55.4366C25.0417 55.4366 25.0417 55.4366 25.0466 55.4366C25.0906 55.4084 25.1347 55.3848 25.1886 55.3707C25.4481 55.272 25.7369 55.3096 25.9621 55.4696C26.3244 55.7236 51.6282 73.6173 51.9905 73.8713C52.3528 74.1254 52.4262 74.6145 52.1618 74.9626C51.8974 75.3107 51.3881 75.386 51.0258 75.1273C50.7076 74.9015 30.829 60.8461 26.0307 57.4546C24.9927 62.3608 23.4161 67.9491 21.8885 73.3633C20.1895 79.3796 18.4317 85.5982 17.4133 90.8996C17.3741 91.0924 17.2665 91.2618 17.1 91.3794C15.8906 92.2543 15.6408 92.3672 14.9211 92.5554C14.7252 92.6071 14.4805 92.673 14.1182 92.7906C14.03 92.8188 13.9419 92.8329 13.8537 92.8329L14.0007 92.7153Z" fill="#EDB373"/>
<path d="M52.0237 75.3578C51.3627 75.3578 50.7654 75.0003 50.2953 74.7181C50.1093 74.6052 49.938 74.5017 49.7764 74.4264C49.7226 74.4029 49.6736 74.37 49.6295 74.3324C46.6379 71.9663 43.5142 69.8683 40.4883 67.8409C36.8357 65.3902 33.0558 62.8547 29.5158 59.8442C29.1926 59.5714 29.1633 59.0963 29.4473 58.7858C29.7313 58.4754 30.2258 58.4471 30.5489 58.72C34.0204 61.674 37.761 64.1859 41.3793 66.6085C44.4052 68.6406 47.5339 70.7386 50.5548 73.1188C50.7507 73.2176 50.9417 73.3304 51.1229 73.4433C51.5586 73.702 51.8818 73.8902 52.0727 73.8431C57.9139 69.5673 74.135 59.3268 77.5967 57.1677L61.258 44.5517C57.0767 46.6779 51.0299 49.1287 45.1397 51.4477C38.5739 54.0349 33.2369 56.2693 29.0213 58.5836C28.6492 58.7906 28.1694 58.6635 27.9539 58.306C27.7385 57.9438 27.8707 57.4876 28.2428 57.2806C32.5515 54.9145 37.9324 52.6613 44.5423 50.0554C50.6527 47.6516 56.9347 45.1068 61.0475 42.9524C61.3658 42.7878 61.7574 42.8489 61.9974 43.1076L79.3691 56.8102C79.5258 56.9748 79.5943 57.1912 79.5649 57.4123C79.5356 57.6334 79.4083 57.8263 79.2124 57.9486C79.0362 58.0568 59.4709 70.2917 52.9345 75.0944C52.8953 75.1226 52.8512 75.1462 52.8071 75.1697C52.5379 75.3014 52.2685 75.3531 52.0139 75.3531L52.0237 75.3578Z" fill="#EDB373"/>
<path d="M61.0828 67.6576L62.4537 68.0716C62.0718 67.747 61.5822 67.6247 61.0828 67.6576Z" fill="#FAA0A0"/>
<path d="M61.0509 67.6621C61.0509 67.6621 61.0704 67.6621 61.0753 67.6621L61.0068 67.6436C61.0068 67.6436 61.0363 67.6528 61.046 67.6621H61.0509Z" fill="#FAA0A0"/>
<path d="M27.3023 57.5113C27.2141 57.5113 27.1309 57.5019 27.0428 57.4784C26.4356 57.3185 26.0881 56.627 26.2643 55.9402L29.7113 42.454C29.8876 41.7672 30.5289 41.3391 31.1312 41.4991C31.7383 41.659 32.086 42.3505 31.9097 43.0373L28.4627 56.5235C28.311 57.1115 27.8213 57.5113 27.3023 57.5113Z" fill="#EDB373"/>
<path d="M40.875 52.3227C40.875 52.3227 40.826 52.3227 40.8016 52.3227C40.3756 52.285 40.0623 51.9228 40.1014 51.5136L40.3315 49.1475C40.4001 48.4231 40.0231 47.7222 39.367 47.3553L23.0185 38.2438C22.4358 37.9192 21.7308 37.9051 21.1335 38.2061C20.5361 38.5072 20.1493 39.0764 20.1003 39.7209V39.8102C20.0612 40.2194 19.6793 40.5252 19.2631 40.497C18.8371 40.464 18.5189 40.1066 18.5483 39.6973V39.6079C18.6462 38.446 19.3415 37.43 20.4138 36.8891C21.486 36.3481 22.7492 36.3717 23.8019 36.9549L40.1503 46.0665C41.3254 46.7203 42.0011 47.9857 41.8787 49.2839L41.6486 51.65C41.6094 52.0358 41.2716 52.3274 40.875 52.3274V52.3227Z" fill="#3A172D"/>
<path d="M56.5865 74.2994C56.2878 72.9682 55.5925 72.0792 54.6329 71.7875C53.6732 71.4959 52.5764 71.8393 51.5286 72.7519C49.389 74.6287 48.1454 78.3589 48.7672 81.0778C49.0659 82.4043 49.7611 83.2934 50.7159 83.5897C50.9411 83.6556 51.1712 83.6932 51.4062 83.6932C52.1847 83.6932 53.0221 83.3263 53.8201 82.6254C55.9598 80.7533 57.2034 77.023 56.5865 74.3041V74.2994Z" fill="#8DC0EF"/>
<path d="M12.4277 116.386C11.4387 116.386 10.4741 116.245 9.53399 115.958C5.56316 114.739 2.69397 111.066 1.45523 105.614C-1.04185 94.6253 3.97682 79.5209 12.6333 71.9523C16.9322 68.1938 21.4808 66.7968 25.4565 68.0151C29.4273 69.2334 32.2965 72.9072 33.5353 78.359C36.0323 89.3474 31.0138 104.452 22.3573 112.02C19.0719 114.89 15.6348 116.386 12.4277 116.386ZM22.5727 68.7584C19.6643 68.7584 16.5111 70.146 13.4608 72.8178C5.08823 80.1372 0.241054 94.7382 2.64999 105.364C3.79081 110.393 6.37104 113.756 9.90611 114.843C13.4461 115.929 17.5785 114.617 21.5395 111.155C29.9121 103.836 34.7594 89.2346 32.3504 78.6084C31.2096 73.5799 28.6293 70.2165 25.0893 69.1299C24.2765 68.8806 23.4344 68.7584 22.5727 68.7584Z" fill="white"/>
<path d="M12.4338 116.39C11.4448 116.39 10.4753 116.249 9.5352 115.962C5.55947 114.744 2.69028 111.07 1.45154 105.618C-1.04553 94.6253 3.97313 79.5163 12.6345 71.9429C16.9285 68.1892 21.482 66.7921 25.4577 68.0104C29.4335 69.2287 32.3026 72.9025 33.5414 78.3544C36.0385 89.3475 31.0199 104.457 22.3585 112.03C19.078 114.899 15.6409 116.39 12.4289 116.39H12.4338ZM2.64141 105.369C3.78222 110.393 6.36246 113.761 9.90732 114.848C13.4522 115.934 17.5846 114.626 21.5407 111.164C29.9182 103.84 34.7704 89.2346 32.3565 78.6037C31.2157 73.5799 28.6354 70.2118 25.0905 69.1252C21.5456 68.0386 17.4132 69.3463 13.4571 72.8084C5.07965 80.1325 0.227569 94.7382 2.64141 105.369Z" fill="#DADEF0"/>
<path d="M12.1883 117.585C11.1503 117.585 10.1319 117.435 9.14773 117.134C4.97615 115.854 1.96984 112.006 0.672343 106.3C-1.94713 94.7569 3.32119 78.9 12.4135 70.9456C16.9082 67.0131 21.682 65.5549 25.8536 66.8297C30.0252 68.1091 33.0315 71.9569 34.329 77.6628C36.9484 89.2062 31.6801 105.063 22.5878 113.018C19.1507 116.019 15.5569 117.58 12.1883 117.58V117.585ZM13.2311 71.8158C4.4228 79.5162 -0.679047 94.8745 1.86209 106.056C3.06167 111.338 5.77913 114.876 9.51985 116.023C13.2557 117.171 17.6083 115.798 21.7701 112.157C30.5784 104.456 35.6804 89.0981 33.1392 77.9168C31.9396 72.6343 29.2222 69.0969 25.4815 67.9491C21.7407 66.8014 17.3929 68.175 13.2311 71.8158Z" fill="#633750"/>
<path d="M16.5492 94.4419C16.2114 94.4419 15.898 94.2396 15.7805 93.915C15.6336 93.5105 15.8589 93.0636 16.2848 92.9225C16.6912 92.7861 16.9752 92.7108 17.1809 92.6591C17.6166 92.5415 17.7293 92.5133 18.5665 91.9159C19.6094 86.6192 21.3377 80.49 23.0171 74.5536C24.6476 68.7819 26.3319 62.8173 27.3454 57.7323C27.3552 57.6712 27.3699 57.61 27.3797 57.5536C27.3797 57.5442 27.3797 57.5395 27.3797 57.5301C27.4189 57.3514 27.5216 57.1961 27.6636 57.0879C27.6979 57.0597 27.7371 57.0361 27.7762 57.0173C27.9329 56.9327 28.119 56.8998 28.3051 56.928C28.3198 56.928 28.3345 56.9327 28.3541 56.9374C28.4765 56.9656 28.5842 57.0173 28.6772 57.0879C29.299 57.5536 29.0835 58.4615 28.8779 58.8331C28.8338 58.9178 28.78 58.9883 28.7213 59.0495C27.6833 63.9557 26.1067 69.5486 24.5742 74.9676C22.8752 80.9839 21.1174 87.2025 20.099 92.5038C20.0598 92.6967 19.9522 92.8661 19.7857 92.9837C18.5763 93.8586 18.3265 93.9715 17.6117 94.1596C17.4158 94.2114 17.1711 94.2772 16.8088 94.3948C16.7206 94.4231 16.6325 94.4372 16.5443 94.4372L16.5492 94.4419Z" fill="#EDB373"/>
<path d="M46.3925 81.7551C46.1722 81.7551 45.9568 81.6563 45.8246 81.4682C45.6092 81.1671 45.6923 80.7579 46.0057 80.5509L50.2067 77.8085C50.52 77.6062 50.946 77.6815 51.1614 77.9826C51.372 78.2836 51.2937 78.6928 50.9803 78.8998L46.7793 81.6422C46.6618 81.7175 46.5247 81.7551 46.3925 81.7551Z" fill="#748BC9"/>
<path d="M27.0916 38.7849C26.6607 38.9025 26.4404 38.9637 26.0144 39.086C26.0144 39.086 26.0144 39.0954 26.0095 39.1001C25.8186 39.4435 25.9507 39.8716 26.2983 40.0691L29.9901 42.1248C30.3426 42.3223 30.7882 42.2141 31.0085 41.8848C31.0134 41.8754 31.0233 41.866 31.0282 41.8566C31.2632 41.5085 31.1408 41.0476 30.7686 40.8406L27.0916 38.7896V38.7849Z" fill="#3A172D"/>
<path d="M57.6802 54.5806L63.3891 42.0493L63.492 39.3586C63.5802 37.1007 61.4062 35.3603 59.1245 35.8871C58.5027 36.0329 57.9152 36.1129 57.4108 36.0423C55.7461 35.8354 52.4804 39.0576 50.8058 38.9353L48.3479 51.1232C47.5107 55.0368 47.0553 59.0351 46.9917 63.0711L46.9771 63.979C46.9771 63.979 47.0162 63.9978 47.0897 64.0307L49.6846 83.0535L49.9539 85.0197L49.8756 86.1863L46.3845 90.9702C46.2621 91.0784 46.1838 91.2054 46.1446 91.3371C46.1299 91.3842 46.1202 91.4359 46.1202 91.4829C46.1105 91.6758 46.1839 91.8686 46.3504 92.005C46.5609 92.1838 46.8791 92.2355 47.1729 92.1368L52.9259 89.0369C53.7338 88.7641 54.3066 88.082 54.3507 87.3341L54.5319 84.2859H54.5025C54.6102 83.4957 54.7033 82.7148 54.7767 81.948C55.6042 73.4433 54.429 66.2698 53.8611 63.471C54.2381 63.1605 55.2418 58.4895 57.6851 54.5758L57.6802 54.5806Z" fill="#647ABE"/>
<path d="M54.3468 87.339C54.3027 88.0869 53.7299 88.769 52.922 89.0418L47.1689 92.1417C46.8752 92.2405 46.5618 92.1887 46.3464 92.01C46.1848 91.8736 46.1065 91.6807 46.1163 91.4878C46.1163 91.4408 46.126 91.3891 46.1407 91.342C46.175 91.2103 46.2582 91.0786 46.3806 90.9704L49.8717 86.1865L49.95 85.0199L49.6806 83.0537C50.0919 83.176 52.5548 83.8016 54.7679 81.9482C54.6944 82.715 54.6014 83.4959 54.4937 84.2814H54.5231L54.3419 87.3343L54.3468 87.339Z" fill="#DADEF0"/>
<path d="M34.5151 15.7639L31.9985 22.8481C31.8467 23.1162 31.7145 23.3937 31.6067 23.6853C31.5872 23.7371 31.5676 23.7888 31.548 23.8359C31.548 23.8359 25.1339 35.6851 25.0849 35.7792C25.0115 35.9156 24.9234 36.0473 24.8303 36.1743C25.7851 36.7529 26.7742 37.2844 27.6751 37.9618C27.6995 37.9806 27.7241 37.9994 27.7486 38.0229C27.8269 37.6983 27.9003 37.3644 27.9689 37.0868C29.1146 36.0049 34.7061 30.5154 36.6744 24.278L37.1493 23.3514C37.2815 23.1444 37.4088 22.9327 37.5361 22.7163C37.8005 22.2601 38.0159 21.7755 38.2166 21.2722L39.7492 18.2852C37.8103 17.9324 35.8224 17.2786 34.5249 15.7686L34.5151 15.7639Z" fill="#ED7A7F"/>
<path d="M34.5 14.4607L32.5024 19.7856C32.5024 19.7856 33.609 21.3426 37.6778 21.2626C41.7465 21.1826 38.1233 13.868 38.1233 13.868C37.0902 12.645 35.0582 12.9743 34.5049 14.4607H34.5Z" fill="#B1BFDD"/>
<path d="M37.2959 14.8089C37.2714 14.8748 37.2469 14.9454 37.2224 15.0159L37.2616 14.8042C37.2616 14.8042 37.2861 14.8042 37.2959 14.8089Z" fill="#ED7A7F"/>
<path d="M45.8425 14.4656C45.8425 14.4656 44.359 18.6003 45.2452 25.5857C45.2452 25.5857 49.0152 28.1635 53.2406 26.55L53.3337 18.4828C53.3337 18.4828 51.4291 10.2603 45.8425 14.4656Z" fill="#8DC0EF"/>
<path d="M39.899 23.6947C39.899 23.6947 39.8695 23.6994 39.8547 23.7041C39.8547 23.6666 39.899 23.6947 39.899 23.6947Z" fill="#DCEAFF"/>
<path d="M40.1248 9.96866C40.1248 9.96866 40.1393 9.97332 40.1491 9.98273C40.1491 9.9545 40.1491 9.9169 40.1491 9.88867C40.1491 9.9169 40.1491 9.94979 40.1295 9.97331L40.1248 9.96866Z" fill="#715154"/>
<path d="M43.1159 40.6476C44.6876 41.2027 46.2985 41.6119 47.9436 41.8989C50.9842 42.2658 54.0492 42.3081 57.1143 42.2517C58.2649 42.2281 59.391 41.9506 60.429 41.4567C60.5318 41.4096 60.6346 41.3626 60.7325 41.3155C61.4474 41.0004 62.4903 40.2195 62.4903 40.2195L63.1757 39.9749C64.1207 38.8413 63.8318 37.5477 63.4548 36.1741C62.7841 33.7375 62.2307 31.2162 61.5795 28.7325C60.4093 24.2685 58.9209 19.9126 55.8755 16.3376C52.6195 12.5133 49.0697 9.92617 43.8503 10.0485C43.3901 10.0579 42.9495 10.0861 42.5382 10.1426C41.6226 10.2696 40.0704 10.406 39.4045 10.4718C36.1143 10.787 34.2049 14.2397 34.4839 16.1965L38.8317 25.5244L41.1868 30.6611C42.6165 33.7752 43.2726 37.209 43.1012 40.6476H43.1159Z" fill="#DADEF0"/>
<path d="M45.7302 10.3872C45.5148 9.99211 45.1573 9.70048 44.7314 9.52173L41.0102 5.57983L38.2292 7.58372L38.1215 7.3391C38.0578 7.75305 40.2709 12.6922 40.4717 13.0638C41.0837 14.1739 42.7582 14.475 44.2074 13.7318C45.6616 12.9933 46.3422 11.4927 45.7253 10.3826L45.7302 10.3872Z" fill="#ED7A7F"/>
<path d="M45.4464 23.022L43.958 27.8906C43.816 28.1634 43.6887 28.4362 43.5957 28.7279C43.581 28.7796 43.5614 28.8266 43.5468 28.8784C43.5468 28.8784 37.5047 40.8075 37.4607 40.9016C37.2991 41.2168 37.0691 41.5131 36.8047 41.7954L36.7654 41.7719C36.7018 41.8565 36.6382 41.9459 36.5696 42.0353C36.2661 42.3316 35.9429 42.6092 35.6491 42.8679C35.1742 43.2865 34.6748 43.7381 34.4888 44.312C34.4006 44.5895 34.3957 44.8671 34.4544 45.1258C34.4398 45.2951 34.4299 45.4597 34.4201 45.615C35.5659 46.6827 37.1327 47.1579 38.8855 47.3507C39.0275 47.2331 39.1549 47.1061 39.2675 46.9603C39.0667 46.297 39.7472 45.2293 40.2858 44.3496C40.3103 44.2226 40.325 44.0909 40.3152 43.9639C40.3495 43.8933 40.3837 43.8181 40.4131 43.7475C40.5649 43.3853 40.7069 42.4351 40.8146 41.7859C41.9946 40.6335 47.7329 34.7959 49.334 28.6808L49.7747 27.7494C49.902 27.5377 50.0244 27.3214 50.1469 27.105C50.3966 26.644 50.5924 26.1595 50.7687 25.6609L51.1408 24.88C49.1285 24.579 47.1405 23.9863 45.4366 23.0126L45.4464 23.022Z" fill="#F68A8B"/>
<path d="M27.9323 35.8828L27.2224 40.2904C27.0951 41.09 26.2137 41.5557 25.4401 41.2311L23.3348 40.3421C22.5612 40.0175 22.3213 39.0767 22.8501 38.4417L25.7928 34.9279L27.9274 35.8781L27.9323 35.8828Z" fill="#ED7A7F"/>
<path d="M44.62 2.29165C44.2478 2.03764 43.6701 2.04235 43.4302 2.41867C43.4988 1.59078 42.9601 0.786394 42.2207 0.410079C40.5462 -0.43663 38.1227 0.0385002 37.1434 1.73662C35.8263 4.01803 36.5216 4.55898 38.3381 5.79141C39.758 6.75572 41.1828 8.22334 43.0385 8.19982C45.2516 8.1716 45.6775 5.39157 45.3054 3.61349C45.2075 3.14309 45.0557 2.65385 44.6934 2.3481C44.6689 2.32928 44.6493 2.31047 44.6249 2.29636L44.62 2.29165Z" fill="#3B172D"/>
<path d="M41.3257 4.99642C39.6855 5.10932 37.9718 4.66713 36.782 3.62756C35.9692 8.85364 36.4637 10.5894 38.0795 11.4502C39.6658 12.2969 42.7162 8.76899 42.7162 8.76899L42.579 7.66358C41.5215 7.30137 41.2669 6.1677 41.3208 4.99172L41.3257 4.99642Z" fill="#FFA897"/>
<path d="M41.9991 8.6327C42.3516 9.08427 43.1498 9.08427 43.7814 8.6327C44.413 8.17641 44.6382 7.4426 44.2857 6.99103C43.9332 6.53945 43.135 6.53945 42.5034 6.99103C41.8718 7.4426 41.6465 8.18112 41.9991 8.6327Z" fill="#FFA897"/>
<path d="M41.6901 3.97099C40.657 6.12069 37.2248 8.16215 34.8452 6.56281C35.5601 5.79136 35.5943 4.66714 35.7705 3.64639C36.0007 2.33399 37.8563 -0.243767 39.6924 0.762875L42.493 2.30107C42.493 2.30107 41.695 3.96158 41.695 3.96628L41.6901 3.97099Z" fill="#3B172D"/>
</svg>
