<svg width="78" height="109" viewBox="0 0 78 109" fill="none" xmlns="http://www.w3.org/2000/svg">
<path d="M54.3239 93.9541C60.924 91.5468 69.3669 84.4375 73.1769 78.0729C76.987 71.7082 74.7241 68.5001 68.124 70.9074C61.5239 73.3146 53.081 80.4239 49.271 86.7886C45.4609 93.1532 47.7238 96.3613 54.3239 93.9541Z" fill="#E9EBF2"/>
<path d="M15.6653 108.959C20.7425 108.959 24.8584 106.361 24.8584 103.157C24.8584 99.9519 20.7425 97.354 15.6653 97.354C10.5882 97.354 6.47241 99.9519 6.47241 103.157C6.47241 106.361 10.5882 108.959 15.6653 108.959Z" fill="#E9EBF2"/>
<path d="M44.7256 37.3182C44.7256 37.3182 46.2256 40.8354 45.8399 40.9338C45.0042 41.1539 43.8684 39.5053 43.8684 39.5053L44.7299 37.3182H44.7256Z" fill="#F5888B"/>
<path d="M10.8105 81.6085C11.2862 80.9997 11.9033 80.5594 12.5033 80.1098C13.0991 79.6696 13.6219 79.1872 14.299 78.9015C15.9191 78.2177 17.1663 76.8596 18.6148 75.8573C18.9363 75.6325 19.2792 75.4827 19.6263 75.3094C20.0463 75.0986 20.3891 74.8083 20.7448 74.4945C21.0363 74.2369 21.3663 74.0308 21.6535 73.7686C21.9578 73.4923 22.2235 73.1691 22.4806 72.8413C22.9606 72.2184 23.4191 71.6096 24.0277 71.1319C24.7691 70.5511 25.4121 69.8486 26.0464 69.1321C27.2078 67.8207 27.9792 66.1769 29.1064 64.8234C29.6721 64.1443 30.3063 63.5449 30.8849 62.8845C31.4464 62.2429 31.8835 61.4935 32.4064 60.8144C32.9464 60.1166 33.5208 59.4984 33.9836 58.7304C34.4508 57.9623 34.9264 57.2176 35.4364 56.4824C36.4993 54.9556 37.5964 53.4382 38.4921 51.7803C39.4564 50.0006 40.1594 48.0804 40.8408 46.1603C41.1666 45.233 41.5008 44.2448 42.0194 43.4205C42.2894 42.9897 42.6365 42.6337 42.7908 42.1279C42.9493 41.6081 42.9151 41.0508 42.9108 40.5075C42.9108 40.3061 43.1937 40.3061 43.1937 40.5075C43.2066 41.3411 43.2151 42.1513 42.7608 42.8679C42.538 43.2238 42.2722 43.5329 42.0794 43.9123C41.8522 44.3478 41.6594 44.8068 41.4751 45.2704C40.8108 46.9564 40.2708 48.6893 39.5251 50.3378C38.7408 52.08 37.7421 53.6677 36.675 55.2132C36.1436 55.9859 35.5993 56.7446 35.0764 57.5221C34.5964 58.2339 34.1978 59.0067 33.7007 59.7045C33.1821 60.4351 32.565 61.0673 32.055 61.8073C31.5665 62.5145 31.0521 63.1468 30.4649 63.7556C29.8521 64.3878 29.2736 65.0622 28.7293 65.7694C28.1721 66.4907 27.7307 67.3056 27.2293 68.069C26.7235 68.8417 26.1235 69.5114 25.5021 70.1718C25.2192 70.4715 24.9449 70.7853 24.6278 71.0476C24.2678 71.3473 23.8821 71.6049 23.5606 71.9608C23.0292 72.5416 22.6092 73.2347 22.0606 73.7967C21.8077 74.0543 21.5334 74.251 21.2548 74.4617C20.912 74.724 20.612 75.0471 20.2606 75.2954C19.8706 75.567 19.4205 75.7168 19.0134 75.9604C18.5977 76.2086 18.2119 76.5271 17.8348 76.8362C17.0548 77.4684 16.2834 78.1147 15.4434 78.6533C15.0834 78.8828 14.7105 79.0607 14.3248 79.2247C13.8962 79.4026 13.5747 79.6649 13.2104 79.9599C12.4604 80.5594 11.6333 81.0512 11.0205 81.8286C10.9005 81.9785 10.7034 81.7584 10.8191 81.6085H10.8105Z" fill="#616FA4"/>
<path d="M40.8603 42.2872C41.1474 41.4911 41.8803 40.9572 42.6261 40.4561C42.6775 40.3202 42.7717 40.1891 42.9089 40.0767C43.2903 39.7629 43.4275 39.3695 43.9204 39.126C44.4947 38.845 45.0518 38.9059 45.5533 39.332C46.0161 39.7254 46.0975 40.2594 45.8618 40.7277C45.7547 40.9384 45.5232 41.0977 45.4247 41.2991C45.309 41.5426 45.3646 41.9173 45.3517 42.1889C45.3003 43.1911 45.3132 44.273 44.3146 44.924C44.1132 45.0551 43.869 45.1113 43.6204 45.1019C42.9518 45.589 41.9489 45.4532 41.2974 44.7319C40.6846 44.0575 40.586 43.0412 40.8603 42.2825V42.2872Z" fill="#DA6566"/>
<path d="M67.9918 73.8296C68.3433 73.0053 68.9604 72.1904 69.2818 71.5534C69.4961 71.1272 69.6633 70.8135 69.7447 70.6636C70.0147 70.1578 70.6919 68.2283 70.8847 67.7225C71.2962 66.6453 72.5176 67.685 72.7876 68.4016C72.8861 68.6638 72.8905 68.9917 72.8433 69.3523C72.7533 70.0688 72.7619 70.3826 72.7491 70.8791C72.7405 71.146 72.7319 71.6424 72.7319 71.6424L72.1833 72.3543L71.9091 72.2278C71.1376 74.1105 69.8904 75.5858 67.769 75.272C67.6704 74.8084 67.7861 74.3119 68.0004 73.8155L67.9918 73.8296Z" fill="#DA6566"/>
<path d="M70.2637 73.1833C69.7152 73.5767 68.6694 74.0403 68.8709 73.2629C69.068 72.4995 69.3337 71.6424 69.6123 71.132C70.0623 70.3124 70.3666 69.4787 70.4009 68.514C70.4181 68.0363 69.998 65.7742 71.2538 66.5095C71.4123 66.5095 71.5666 66.8654 71.6609 66.9872C71.8538 67.2354 72.0938 67.4087 72.3123 67.6195C72.5395 67.8349 72.6594 68.1112 72.6894 68.4578C72.6937 68.514 72.6937 68.5795 72.6894 68.6451C72.6294 69.6099 71.8366 71.0196 71.4337 71.8626C71.2709 72.1998 70.7823 72.8133 70.2637 73.1833Z" fill="#F78C8B"/>
<path d="M62.1234 52.2815C62.7148 52.5953 63.3192 53.0823 63.8763 53.5413C65.3892 54.7871 66.7091 56.2904 67.742 58.028C69.1005 60.3181 71.1363 65.1185 72.2635 67.5492C72.692 68.4671 71.9421 67.6194 71.4578 68.336C71.0378 68.4671 71.7621 69.1837 71.3635 69.3897C71.2992 69.4225 71.8777 70.214 71.8134 70.2515C70.0477 69.4085 59.2562 56.267 58.6733 54.5248C57.9105 52.2487 61.6391 54.5857 62.1234 52.2815Z" fill="#F78C8B"/>
<path d="M51.5378 42.3292C51.2807 40.2592 51.1007 38.0814 52.1464 36.3814C52.2964 36.1378 52.3092 35.8803 52.2407 35.6602C52.4549 35.3557 52.6949 35.1028 52.9606 34.9155C53.8306 34.302 56.4407 34.7516 57.255 35.4447C59.0421 36.9574 62.4493 48.2771 57.9021 53.2461C56.3035 54.993 52.9393 47.1952 51.7393 43.5001C51.7264 43.4579 51.5507 42.3714 51.5378 42.3292Z" fill="#F78C8B"/>
<path d="M50.324 95.1762C49.9768 95.5227 49.4154 95.3495 49.2826 94.8577C49.0683 94.0428 49.3297 93.0499 49.514 92.1039C49.8397 90.4413 50.4054 88.3151 50.9197 86.7134C51.9182 83.6083 54.0312 83.805 53.954 87.341C53.8897 90.1978 52.2569 93.256 50.324 95.1762Z" fill="#DA6566"/>
<path d="M50.1538 89.8466C50.2138 89.5375 50.2738 89.2237 50.3209 88.9099C50.3766 88.5399 50.4538 88.2027 50.5438 87.8749L50.771 87.0881C51.0838 85.9782 51.3238 85.0274 51.3195 83.6974C51.3195 82.6015 51.4267 81.4775 51.5381 80.3862C51.5938 79.8477 51.6495 79.2857 51.6881 78.7471L51.7138 78.4286C51.9924 74.6585 52.2709 70.8931 52.5495 67.123C52.5881 66.5798 52.6267 66.0412 52.6652 65.4979C52.7724 63.9524 52.8839 62.3507 53.0553 60.7583C53.0896 60.4258 53.1581 60.0933 53.2567 59.7795C53.4839 58.3137 53.9938 55.5318 55.1038 49.4762C55.6052 46.7505 56.2267 43.3457 57.0068 39.0745C57.281 37.5805 57.731 35.9882 59.0125 35.4824C59.6382 35.2388 60.3196 35.3465 60.8425 35.4683C62.2525 35.7961 63.6154 36.4565 64.7811 37.3838L66.534 39.1166L66.5725 39.1635C66.6282 39.2525 66.6454 39.3602 66.6111 39.4585C66.5554 39.6271 66.3968 39.6739 66.2811 39.7067C66.1054 40.8963 64.3483 51.8694 59.1411 59.1988L58.0224 62.0556C58.1639 63.6667 58.3053 65.3293 58.0525 67.0715C57.9753 68.1065 57.8853 69.2071 57.731 70.3171C57.2082 74.0825 56.1024 77.8245 55.031 81.44C54.7053 82.5406 54.371 83.6739 54.0581 84.7839C53.8995 85.3506 53.7196 85.9922 53.6724 86.6198C53.6553 86.8446 53.6338 87.06 53.6038 87.2567C53.4066 88.7273 52.9396 89.5469 52.2967 90.6802C52.1296 90.9706 51.958 91.275 51.7738 91.6169C51.6195 91.9026 51.431 92.2538 51.1267 92.488C50.951 92.6191 50.7452 92.6941 50.5395 92.7034C50.5309 92.7034 50.5266 92.7034 50.5181 92.7034C50.3509 92.7034 50.188 92.6332 50.068 92.4974C49.9395 92.3569 49.8666 92.1555 49.8752 91.9541C49.8966 91.2329 50.0338 90.5303 50.1624 89.8513L50.1538 89.8466Z" fill="#FFA897"/>
<path d="M49.4827 28.3821C51.4027 24.8837 53.2756 21.1604 54.8013 17.292C55.1527 16.3975 55.4999 15.4561 55.6028 14.4914C55.7657 12.9505 55.5042 11.6205 54.4499 11.9904C53.4514 12.3417 51.8999 14.9222 51.3856 16.2476C49.1955 21.8676 48.3384 23.2211 47.1513 26.9584C46.6456 28.5461 46.3884 30.6676 47.7899 30.5599C48.4284 30.5131 49.0884 29.1127 49.487 28.3821H49.4827Z" fill="#F68A8B"/>
<path d="M42.2264 38.9715C42.2392 38.9153 42.252 38.8591 42.2692 38.8076C42.5263 37.9833 42.7492 37.1544 43.032 36.3348C44.0006 33.4967 45.1706 30.7382 46.3578 28.0031C46.9878 26.5559 48.1107 23.3994 49.6535 24.7013C51.235 26.0314 48.7664 29.9748 47.9864 31.5109C47.7078 32.0542 47.4336 32.6022 47.155 33.1454C46.1007 35.2201 45.0635 37.2199 43.8978 39.2103C43.7349 39.4866 43.5678 39.7723 43.3406 39.955C42.672 40.4983 42.0421 39.8473 42.2307 38.9715H42.2264Z" fill="#F5888B"/>
<path d="M44.4338 37.2668C45.2309 38.0489 44.2924 40.339 43.9238 41.1774C43.6881 41.716 43.8766 42.306 43.778 42.868C43.5552 44.1185 42.068 42.203 41.8752 41.7815C41.5238 41.0041 41.3909 40.0721 41.7852 39.2431C42.0895 38.5968 42.3509 37.8428 42.7923 37.2762C42.8994 37.1403 43.0666 37.0748 43.238 37.0467C43.8252 36.9436 44.2024 37.0467 44.4381 37.2715L44.4338 37.2668Z" fill="#F68A8B"/>
<path d="M57.3246 12.6604C56.4888 12.1452 55.7559 11.5364 55.2288 10.9182C52.8716 8.15032 53.0173 0.914547 57.0631 0.0809123C58.366 -0.186038 59.7674 0.216747 60.7831 1.15342C62.5274 2.7598 64.3617 6.4128 67.216 5.53702C68.0946 5.26538 68.7118 4.15073 69.6889 3.85568C70.8418 3.50443 71.9647 3.95404 73.1047 3.36394C74.129 2.8394 74.8447 1.73882 75.8047 1.20024C76.7304 0.680387 78.0419 0.151178 77.9991 1.91211C77.9776 2.85347 77.1676 3.30774 76.6619 4.03834C75.1704 6.20204 76.1091 8.92306 73.5205 10.1173C72.4019 10.6325 71.4075 10.3374 70.2332 10.4967C68.0303 10.7964 66.2303 12.1358 64.4603 13.3956C62.5317 14.7725 59.5489 14.0373 57.3203 12.6604H57.3246Z" fill="#643750"/>
<path d="M65.462 48.1788C65.0635 49.6119 64.6005 51.0356 64.0991 52.3938C64.0305 52.5858 63.9577 52.7732 63.8848 52.9652C63.7477 53.3164 63.6063 53.6817 63.3449 53.93C62.9806 54.2765 62.4662 54.3374 61.9862 54.3795C61.9048 54.3889 61.8235 54.3936 61.7377 54.4029C61.0477 54.4732 60.1691 54.6278 59.2434 54.7402C59.1063 54.7308 58.9691 54.7261 58.8363 54.7167C57.7091 54.6278 56.5819 54.4826 55.4719 54.2343C55.1805 54.1688 54.889 54.0986 54.6019 54.0189C54.5805 54.0143 54.5376 54.0002 54.4819 53.9815C54.2333 53.7473 54.0319 53.4569 53.8819 53.101C53.4105 51.9536 52.7204 49.6213 52.3647 48.3053C51.2161 44.0621 50.7618 40.6386 51.6918 36.3206C52.0733 34.5409 52.7162 31.1455 53.0205 29.6234C53.6633 26.3966 52.9733 24.1158 52.3776 21.0388C51.9319 18.744 52.3862 16.4304 52.9305 14.3229C53.0762 13.7516 53.2476 13.1849 53.5648 12.7165C54.2076 11.7705 55.3433 11.4052 56.4362 11.5035C56.5691 11.5129 56.7019 11.5316 56.8305 11.5551C56.9033 11.5691 56.9719 11.5832 57.0447 11.5972C57.0833 11.6066 57.1176 11.6113 57.1562 11.6206C58.4162 11.8829 59.6548 12.1358 60.842 12.5245C61.0177 12.5807 61.1934 12.6416 61.3691 12.7025C61.5405 12.7634 61.712 12.8242 61.8834 12.8945C61.9477 12.9179 62.0119 12.946 62.0762 12.9741C62.7962 13.2785 63.4863 13.5689 64.1248 13.9623C64.592 14.2527 65.0291 14.6039 65.432 15.0582C66.3792 16.1401 66.0749 17.6341 65.7363 18.8939C65.7191 18.9501 65.7063 19.0063 65.6892 19.0672C65.0763 21.2355 63.9834 23.2025 63.7048 25.3475C63.6877 25.488 63.6749 25.6238 63.662 25.7643C63.6235 26.2701 63.632 26.7853 63.7091 27.3192C63.7263 27.4363 63.7435 27.5487 63.7606 27.6611C64.3306 31.3328 66.3234 34.836 66.3577 38.5873C66.3748 40.5075 66.6363 42.9053 66.2677 44.774C66.0449 45.8933 65.7706 47.036 65.4578 48.1694L65.462 48.1788Z" fill="#708DC9"/>
<path d="M56.1464 11.9578C55.6278 12.2528 55.3578 12.8945 55.4864 13.5174C55.7306 14.735 55.9191 16.0791 56.9177 16.3836C58.6749 16.9128 60.415 14.2901 60.9207 12.5947C60.9078 12.5713 60.9035 12.562 60.8906 12.5386C59.6863 12.1452 58.4349 11.8876 57.162 11.6206C57.102 11.6206 57.0035 11.6206 56.9435 11.6253C56.6606 11.7049 56.3907 11.8126 56.1464 11.9531V11.9578Z" fill="#F5888B"/>
<path d="M55.0795 24.6355C55.7952 26.2794 58.0152 26.1201 59.361 27.1926C62.5153 29.7123 63.1709 36.742 63.1538 40.601C63.1495 42.1091 62.8709 54.2811 61.7395 54.4028C61.8252 54.3935 61.9066 54.3841 61.9881 54.3794C62.4681 54.3373 62.9823 54.2764 63.3466 53.9298C63.6081 53.6816 63.7495 53.3163 63.8866 52.9651C63.9595 52.773 64.0281 52.5857 64.1009 52.3937C64.6066 51.0074 65.0439 49.5977 65.4639 48.1787C65.781 47.0406 66.0553 45.8979 66.2738 44.7832C66.6424 42.9146 66.3767 40.5214 66.3638 38.5965C66.3338 34.8452 64.341 31.3421 63.7667 27.6703C63.7496 27.5579 63.7324 27.4455 63.7153 27.3284C63.6381 26.7945 63.6295 26.2794 63.6681 25.7736C63.6552 25.3614 63.6767 24.9212 63.7324 24.4482C63.951 22.6779 65.1682 20.8467 65.691 19.0764C65.7082 19.0202 65.7253 18.964 65.7381 18.9031C66.0767 17.6433 66.381 16.1446 65.4338 15.0674C65.0353 14.6132 64.5938 14.2619 64.1267 13.9716C63.2867 16.4865 63.8653 19.9241 62.2538 22.3454C60.6767 24.7151 57.5738 25.7127 55.0752 24.6449L55.0795 24.6355Z" fill="#616FA4"/>
<path d="M59.4631 6.38489V13.2881H55.9573L56.5187 6.38489H59.4631Z" fill="#F5888B"/>
<path d="M58.2639 6.23489C58.7954 6.08034 59.2968 5.79935 59.7296 5.42468C59.7296 5.84618 59.7296 6.2302 59.7296 6.28171C59.7296 8.49693 58.4139 11.1946 56.4511 10.6653C55.0539 10.2907 54.5225 8.49693 54.5225 6.28171C54.5225 6.2583 54.5225 6.1787 54.5225 6.0663C55.6839 6.60957 57.0768 6.57678 58.2639 6.23489Z" fill="#FFA697"/>
<path d="M57.9254 4.18811V6.81546H57.004L56.9397 6.47358C57.1626 6.40802 57.7197 4.29583 57.9297 4.18811H57.9254Z" fill="#FFA697"/>
<path d="M73.9713 37.3882C73.9413 37.3507 73.9113 37.3133 73.8856 37.2711C73.4827 36.667 73.0541 36.0769 72.6727 35.4587C71.3527 33.309 70.2427 31.0563 69.167 28.7989C68.597 27.6047 67.1655 25.1787 69.2827 24.7197C71.447 24.2467 72.4285 28.0543 72.9471 29.3984C73.1313 29.8761 73.3156 30.3585 73.4999 30.8362C74.2028 32.658 74.8628 34.433 75.4157 36.297C75.4928 36.5546 75.57 36.8215 75.5314 37.0838C75.4157 37.8472 74.4642 37.9736 73.9713 37.3929V37.3882Z" fill="#FFA897"/>
<path d="M68.3661 26.6027C66.4847 24.1674 64.6503 21.5306 63.176 18.6972C62.8332 18.0415 62.6318 17.4233 62.5503 16.6506C62.4175 15.4142 62.8331 13.7703 63.9003 13.8219C64.9117 13.8734 66.1975 16.0418 66.6946 17.0159C68.8075 21.1419 69.6518 22.0599 70.7832 24.8652C71.2633 26.0548 71.4818 27.7501 70.0504 27.9937C69.399 28.1061 68.7561 27.1085 68.3618 26.598L68.3661 26.6027Z" fill="#FFA897"/>
<path d="M73.2194 36.1661C73.2194 36.1661 73.0395 37.8756 73.6995 39.585C73.8881 40.0767 74.0381 40.4608 74.1495 40.7558C74.1967 40.8776 74.3681 40.8073 74.3509 40.6715L74.1109 39.0042L75.358 41.7346C75.4866 42.0156 75.8509 41.9922 76.0052 41.7018L76.6566 40.4748C76.9052 39.8004 76.9052 39.0651 76.648 38.4516L76.2709 37.5477C75.9067 36.6719 75.3238 35.9507 74.591 35.459C74.1538 35.1686 73.5494 35.4027 73.3094 35.9647L73.2194 36.1755V36.1661Z" fill="#FFA897"/>
<path d="M21.4116 96.4358C21.4502 96.3281 21.4844 96.2344 21.5102 96.1595C21.5487 96.0424 21.5744 95.9721 21.5744 95.9721C21.5744 95.9721 21.3644 95.8925 21.0601 95.7426C20.593 95.5178 19.9116 95.1338 19.4744 94.6655C18.5144 93.6398 18.4887 93.518 18.0429 91.8086C17.5972 90.0992 17.5029 85.7109 17.5029 85.7109L21.8273 86.8349L22.573 87.027C22.573 87.027 22.3544 89.8463 22.0287 91.5042C21.9344 91.9913 22.0244 92.4222 22.2087 92.8109C22.6458 93.7475 23.5973 94.45 23.7216 95.1619C23.8373 95.8223 22.8559 97.1758 22.2988 98.2389C22.2688 98.2951 22.243 98.3513 22.213 98.4028C22.2087 98.4168 22.2002 98.4262 22.1959 98.4403C22.1831 98.4215 22.1702 98.4075 22.1573 98.3934C22.1016 97.6066 21.8187 96.951 21.3987 96.4311L21.4116 96.4358Z" fill="#512E30"/>
<path d="M6.64082 99.0821C6.59368 99.2601 6.5508 99.4287 6.50794 99.5926C6.46937 99.7331 6.43508 99.8689 6.4008 100C6.14365 99.9579 5.88647 99.9579 5.61647 100L4.73368 100.23C4.62225 100.29 4.5151 100.356 4.40796 100.422C4.47653 100.005 4.54938 99.5692 4.61796 99.1383C4.68653 98.7121 4.75079 98.286 4.80651 97.8832C4.96079 96.8154 5.07218 95.874 5.08504 95.3729C5.12361 93.996 4.93931 89.8653 5.29075 89.5422L6.78647 89.2705L8.41937 88.9755C8.41937 88.9755 8.34652 90.9706 7.88365 93.4949C7.54079 95.3682 7.0394 97.4992 6.64082 99.0868V99.0821Z" fill="#512E30"/>
<path d="M23.7719 83.14C23.0391 82.8169 22.2376 82.8684 21.3805 82.9667C19.8633 83.1447 17.8233 83.4304 16.6233 83.5381C15.8519 83.6083 13.8589 83.3227 12.7832 83.3086C11.6003 83.2899 11.1247 82.8777 10.3661 82.3719C9.62464 81.8755 9.27324 80.8545 8.90037 79.6603C8.54466 78.5222 3.83887 82.1097 3.83887 82.1097C3.83887 82.1097 4.40886 84.648 4.46886 86.5869C4.52886 88.5352 4.43884 91.4576 5.416 94.3051C6.43172 97.2696 10.0232 98.0658 12.9332 96.258C15.5304 94.6423 19.8161 92.2678 21.479 91.9353C23.1462 91.6028 27.2905 89.4578 27.7234 89.3454C26.862 87.4487 26.802 86.7368 25.1863 84.8494C24.7405 84.3296 24.402 83.4163 23.7762 83.1353L23.7719 83.14Z" fill="#6E4243"/>
<path d="M11.4771 94.3659C12.0514 93.4761 13.9242 93.6869 14.7857 93.2794C16.3886 92.5207 17.9486 91.5981 19.5857 90.9331C21.2314 90.2633 21.9986 90.9471 22.5514 92.694C22.38 92.6846 22.3757 92.5863 22.2429 92.4786L21.8786 92.5254C22.0286 92.6799 22.1271 92.783 22.1271 92.783C22.1271 92.783 21.6429 92.6893 21.09 92.6284L18.9343 92.9094C18.4671 93.1249 17.9357 93.4293 17.34 93.7431C16.1828 94.3519 15.0985 95.045 14.6614 95.3073C12.5442 96.5765 11.177 97.0214 11.177 97.0214C11.2499 96.3938 11.1514 94.8577 11.4685 94.3659H11.4771Z" fill="#512E30"/>
<path d="M4.84921 85.2427C4.95207 85.1537 5.07642 85.06 5.235 84.9617C6.11358 84.409 7.24075 84.3528 7.71647 83.182C7.43361 83.8751 7.70362 84.5121 7.19362 85.2614C6.73504 85.9358 6.04496 86.3386 5.83067 87.1535C5.45352 88.5866 6.105 91.1343 6.72643 92.4129C7.24501 93.4807 8.11928 93.1622 8.84357 93.6914C9.66644 94.2956 9.0365 94.6187 8.91221 95.7053C8.82221 96.4827 8.96788 97.2273 8.96788 97.2273C8.96788 97.2273 7.75929 97.0306 6.50356 96.2579C5.24784 95.4851 5.14073 93.8741 4.93501 92.3286C4.69073 90.5255 4.59643 88.6756 4.50215 86.8584C4.45929 85.9873 4.40778 85.6314 4.84492 85.2427H4.84921Z" fill="#512E30"/>
<path d="M21.253 88.6149C20.9659 89.1769 19.9331 90.6194 19.9331 90.6194C19.9331 90.6194 20.5117 90.4882 21.4245 89.4532C22.3417 88.4182 22.2474 87.7063 22.2645 87.3035C22.2817 86.8493 21.5402 88.0435 21.253 88.6102V88.6149Z" fill="#512E30"/>
<path d="M21.831 86.8445C23.7338 86.3574 25.8252 86.142 26.7124 87.1957C26.7895 87.2894 26.8624 87.3878 26.9224 87.5002C27.9381 89.4672 27.8396 90.0479 28.2853 90.8675C28.7225 91.6777 29.3224 92.1086 29.511 92.8251C29.6139 93.2138 29.5925 93.8882 29.5625 94.6095C29.5582 94.7593 29.5496 94.9092 29.5453 95.0544C28.9153 94.9982 28.2896 95.1246 27.7153 95.4337C27.5739 94.8671 27.3681 94.394 27.0596 94.1224C26.8924 93.9772 26.7038 93.8555 26.5067 93.7665C25.2767 93.1811 23.5452 93.4667 22.2123 92.8298C22.1823 92.8158 22.1567 92.8017 22.1309 92.7876C19.7866 91.584 18.1152 88.1511 18.1152 88.1511C18.1152 88.1511 19.8681 87.355 21.831 86.8492V86.8445Z" fill="#6E4243"/>
<path d="M5.50561 74.9255C5.15847 73.4502 4.55854 72.626 4.51997 73.0756C4.51569 73.1458 4.51997 73.2254 4.51997 73.3051C4.63569 73.38 4.78987 73.5299 4.84559 73.7874C4.93988 74.2183 5.24848 75.5296 5.41563 75.8949C5.5442 76.1806 5.87856 76.8597 6.01999 77.1407L6.69707 77.0236C6.69707 77.0236 5.85705 76.4007 5.51419 74.9255H5.50561Z" fill="#6E4243"/>
<path d="M4.8471 73.7875C4.79139 73.53 4.63291 73.3801 4.52148 73.3052C4.53006 73.7267 4.62429 74.2512 4.57715 74.8975C4.52572 75.6656 4.54283 77.3937 4.54283 77.3937L6.01292 77.1408C5.87578 76.8598 5.54142 76.1854 5.40856 75.895C5.24142 75.5297 4.9372 74.2184 4.83863 73.7875H4.8471Z" fill="#512E30"/>
<path d="M8.5418 75.2721C8.31037 74.7288 8.08325 74.1949 7.81753 74.0123C7.4661 73.7781 7.47888 74.6914 7.41888 75.6046C7.34173 76.8316 7.26465 78.2039 7.26465 78.2039L9.22756 80.9155C9.22756 80.9155 9.5489 80.391 9.56605 79.4496C9.57462 79.0094 9.39039 78.4802 9.30896 77.862C9.16753 76.7614 8.85037 75.9887 8.5418 75.2674V75.2721Z" fill="#6E4243"/>
<path d="M0.887073 83.7394C1.00279 83.6598 1.14432 83.538 1.41432 83.4163C2.5329 82.8964 3.72004 83.0791 4.71433 82.8121C5.70863 82.5499 6.69007 82.6248 7.06721 82.7934C7.44865 82.9667 7.56865 83.2524 7.28579 83.4725C7.16579 83.5802 7.04146 83.6598 6.92146 83.73C6.24859 84.1141 5.58 84.0251 4.97571 84.2124C3.89998 84.5543 2.87145 84.6339 2.02715 84.7838C1.26429 84.9196 0.535662 84.5777 0.372803 83.73C0.634234 83.8612 0.741357 83.8331 0.887073 83.7394Z" fill="#EA8C5E"/>
<path d="M0.641717 84.0018C0.778862 84.0486 0.933078 84.0767 1.10451 84.1002C2.57881 84.2781 3.28175 83.3274 4.61034 82.9715C5.60463 82.7045 6.55603 82.461 6.92889 82.6296C7.31461 82.8029 7.99176 82.7841 7.78176 83.4726C8.09462 83.1963 8.38602 82.845 8.61317 82.3907C9.41889 80.7984 10.2332 79.2576 7.12602 77.2297C5.13743 75.9277 3.98027 77.5201 3.04597 79.0843C2.9174 80.4893 1.94029 81.8568 0.740282 82.7654C0.504565 82.948 0.256003 83.1073 0.0031433 83.2478C-0.0311428 83.6225 0.217419 83.866 0.633138 83.9971L0.641717 84.0018Z" fill="#6E4243"/>
<path d="M8.31698 76.2414C8.11555 75.7637 7.80271 75.183 7.80271 75.183C7.67414 75.4453 7.66127 76.1899 7.68269 76.6208C7.70412 77.0516 7.72127 77.3982 7.68698 77.609C7.6527 77.8244 7.68695 78.1007 7.96981 78.3068C8.03409 78.3536 8.32123 78.6018 8.49695 78.8781C8.72409 79.2247 8.84412 79.6041 8.84412 79.6041C8.84412 79.6041 9.12271 79.0514 8.96842 78.3911C8.79699 77.6652 8.5227 76.7191 8.32127 76.2414H8.31698Z" fill="#512E30"/>
<path d="M22.3602 83.14C25.1159 83.2102 25.866 82.489 25.7074 79.4917C27.9617 79.0655 27.4131 83.1306 26.0802 84.0345C24.833 84.8775 22.0344 83.9923 20.9287 83.4163L22.3602 83.1447V83.14Z" fill="#6E4243"/>
<path d="M11.0972 90.8861L11.0843 97.1197L9.39147 97.5224L8.56006 92.6518L8.68436 88.1183L11.0972 90.8861Z" fill="#6E4243"/>
<path d="M12.0597 101.171C11.9826 101.11 11.9054 101.054 11.8326 100.988C11.5197 100.726 11.1855 100.464 10.8341 100.272C10.6969 100.201 10.564 100.145 10.4354 100.108C9.80111 99.6534 9.24401 99.1804 8.98687 98.7168C8.15114 97.2087 8.30539 95.3214 9.26969 92.2678C9.41969 92.6097 10.804 95.2839 10.6797 95.4384C10.6926 95.4244 10.7055 95.4057 10.7183 95.3916C10.7483 95.3635 10.7826 95.3354 10.8126 95.3073C10.834 95.3026 10.8597 95.2933 10.8811 95.2839C10.9283 95.2652 10.9798 95.2417 11.0355 95.2043C11.2669 96.361 11.1426 97.1479 11.6869 98.1969C11.8669 98.5435 12.1755 98.8901 12.5269 99.2366C12.6898 99.4006 12.8483 99.5551 13.0026 99.7003C12.4154 100.084 12.5826 100.656 12.0683 101.171H12.0597Z" fill="#6E4243"/>
<path d="M26.5088 93.757C26.7059 93.8507 26.8945 93.9678 27.0617 94.113C27.8588 94.8108 27.9788 96.82 28.0131 98.3514C28.0345 99.1897 26.9717 99.8782 27.6317 100.454C27.6703 100.487 27.7174 100.51 27.7646 100.534C28.326 100.848 29.2474 100.384 29.6203 99.5597C29.8303 99.0914 29.6632 97.9018 29.5775 96.6794C29.5646 96.5062 29.556 96.3329 29.5474 96.1596C29.526 95.6819 29.5475 95.1293 29.5732 94.6C28.7074 94.1551 27.816 93.6587 27.0745 93.6447C26.856 93.6447 26.6717 93.6774 26.5131 93.7524L26.5088 93.757Z" fill="#EA8C5E"/>
<path d="M18.7 101.902C19.0257 102.651 19.973 102.487 20.5858 101.855C20.7573 101.682 21.0957 100.834 21.6743 99.5694C21.8372 99.2135 22.0172 98.8294 22.2229 98.4126C22.2486 98.3564 22.2787 98.3049 22.3087 98.2487C22.4073 97.0216 22.75 95.6448 22.2143 95.2982C21.9615 95.1343 21.5329 95.3591 21.0615 95.7478C21.3615 95.893 21.5758 95.9773 21.5758 95.9773C21.5758 95.9773 21.5501 96.0475 21.5115 96.1646C21.2929 96.7735 20.5644 98.7685 19.9215 99.7239C19.5615 100.263 18.3786 101.152 18.7043 101.902H18.7Z" fill="#C16246"/>
<path d="M3.94218 102.988C4.06218 102.417 4.24213 101.452 4.42213 100.384C5.12928 100.084 5.81503 99.7518 6.47932 99.3724C6.50075 99.4052 6.52224 99.4427 6.53938 99.4801C6.53081 99.5176 6.51792 99.5551 6.50935 99.5926C6.31649 100.347 6.15362 100.932 6.0679 101.236C5.5579 102.993 5.37362 104.149 5.00504 105.166C4.81647 105.686 4.77359 106.173 3.69358 106.81C3.33786 107.02 3.03783 107.048 2.81068 106.964C2.34782 106.791 2.1979 106.135 2.57076 105.526C2.88362 105.016 3.59932 104.59 3.94218 102.993V102.988Z" fill="#C16246"/>
<path d="M11.5438 99.6581C11.6724 99.6675 11.8009 99.6768 11.9295 99.6768C12.2981 99.6768 12.641 99.5972 12.9581 99.452C14.021 100.328 15.161 102.332 14.3081 103.48C14.1667 103.672 14.0425 103.798 13.931 103.873C13.181 104.393 13.1467 102.435 12.6795 101.709C12.3109 101.143 10.6695 100.028 10.0181 99.9719C10.1338 99.9813 10.2452 99.9859 10.3609 99.9859C10.7938 99.9859 11.1924 99.8642 11.5481 99.6581H11.5438Z" fill="#EA8C5E"/>
<path d="M0.643147 84.0017C1.02029 83.8753 1.36744 83.7067 1.5003 83.6271C1.32887 83.2946 1.06744 82.9714 0.750291 82.77C0.514575 82.9527 0.266013 83.1119 0.0131531 83.2524C-0.021133 83.6271 0.227429 83.8706 0.643147 84.0017Z" fill="#3A2323"/>
<path d="M4.82019 85.0461C4.90591 85.0789 5.23164 85.1164 5.15449 85.1445C5.37735 85.1023 5.65589 84.9852 5.87018 84.929C6.47019 84.7792 7.09157 84.6246 7.63157 84.2921C8.50587 83.7488 9.06731 82.7419 9.4616 81.7724C9.89018 80.714 11.3088 81.6319 10.8845 82.681C10.3616 83.9736 9.51307 85.2569 8.3302 85.9219C7.64877 86.3059 6.9116 86.5073 6.17016 86.6993C5.8573 86.7789 5.53588 86.9663 5.21874 87.0038C4.90159 87.0365 4.67447 86.8913 4.38304 86.7836C3.38445 86.4183 3.81304 84.6808 4.82019 85.0461Z" fill="#DA6566"/>
</svg>
