<svg width="135" height="169" viewBox="0 0 135 169" fill="none" xmlns="http://www.w3.org/2000/svg">
<path d="M27.7865 153.564C26.3994 153.676 25.2605 153.616 23.6194 153.53C22.5461 153.474 22.3698 153.43 20.0848 153.266C18.8967 153.18 17.8094 153.102 17.0712 153.067C16.2776 153.03 15.2726 153.015 14.0723 153.072C14.0968 153.669 14.1685 154.028 14.4295 154.292C14.9475 154.816 15.7569 154.556 18.0013 154.557C18.3032 154.557 19.3808 154.623 21.5359 154.755C22.7288 154.829 23.3477 154.877 25.5913 155.02C25.8011 155.034 28.0774 155.167 29.9445 154.722C30.0956 154.686 31.0121 154.46 31.0607 154.06C31.078 153.918 30.9906 153.202 30.918 153.047C29.6557 153.361 28.5839 153.499 27.7865 153.564Z" fill="#04041C"/>
<path d="M30.4689 152.769C29.772 152.594 27.8873 152.27 26.7854 151.908C25.4222 151.461 24.4478 151.008 24.181 150.882C23.4965 150.559 22.9944 150.322 22.3951 149.922C21.1518 149.092 21.2279 148.719 20.4976 148.3C19.1364 147.518 16.8504 147.651 15.5119 148.73C14.6485 149.426 14.3528 150.376 14.2469 150.716C14.0497 151.35 14.0556 151.87 14.0608 152.338C14.0729 153.402 14.0789 153.934 14.4329 154.292C14.951 154.815 15.7604 154.556 18.0047 154.557C18.3067 154.557 19.3842 154.623 21.5393 154.755C22.7323 154.828 23.3511 154.877 25.5948 155.02C25.8046 155.033 28.0809 155.167 29.948 154.722C30.099 154.686 31.0156 154.46 31.0642 154.06C31.0819 153.914 30.989 153.16 30.9153 153.034C30.8129 152.858 30.58 152.797 30.4689 152.769Z" fill="#17253F"/>
<path d="M17.5602 152.386C17.4498 152.189 16.9295 151.258 17.3426 150.789C17.6652 150.422 18.3353 150.588 19.1381 150.498C19.7818 150.426 20.658 150.173 21.6606 149.363C21.1378 148.897 21.0396 148.611 20.4976 148.3C19.1364 147.518 16.8504 147.651 15.5119 148.73C14.6485 149.426 14.3528 150.376 14.2469 150.716C14.0497 151.35 14.0556 151.87 14.0608 152.338C14.0729 153.402 14.0789 153.934 14.4329 154.292C14.951 154.815 15.7604 154.556 18.0047 154.557C18.3067 154.557 19.3842 154.623 21.5393 154.755C22.7323 154.828 23.3511 154.877 25.5948 155.02C25.8046 155.033 28.0809 155.167 29.948 154.722C30.099 154.686 31.0156 154.46 31.0642 154.06C31.071 154.003 31.0612 153.855 31.0424 153.688C26.2173 154.013 18.597 154.241 17.5602 152.386Z" fill="#0C1628"/>
<path d="M16.9772 155.693C16.5383 155.774 15.3049 155.982 12.7729 155.891C10.126 155.796 8.08783 155.448 6.07581 155.097C4.79369 154.873 3.70765 154.649 2.88891 154.47C2.83809 155.147 2.83214 155.796 2.95043 155.924C3.23379 156.231 15.3029 158.506 18.8375 156.719C18.9641 156.655 19.2495 156.598 19.3584 156.388C19.3805 156.345 19.1498 155.24 19.1019 155.137C18.5124 155.338 17.799 155.54 16.9772 155.693Z" fill="#04041C"/>
<path d="M16.4564 154.17C16.07 154.049 15.0245 153.712 13.9636 153.243C12.5936 152.636 11.6434 152.006 11.322 151.786C10.0906 150.945 10.215 150.758 9.42442 150.263C9.26883 150.166 6.60826 148.544 4.84807 149.436C3.89353 149.919 3.61861 150.932 3.09935 152.846C2.97795 153.293 2.7121 155.666 2.9505 155.924C3.23386 156.231 15.303 158.506 18.8376 156.719C18.9641 156.655 19.2495 156.599 19.3585 156.388C19.3812 156.344 19.1355 155.171 19.0981 155.13C18.9038 154.914 17.1346 154.381 16.4564 154.17Z" fill="#1E2F47"/>
<path d="M9.4244 150.263C9.26882 150.166 6.60824 148.544 4.84805 149.436C3.89351 149.919 3.6186 150.932 3.09933 152.846C2.97793 153.293 2.71209 155.666 2.95052 155.924C3.05346 156.036 4.71299 156.407 6.95359 156.749C5.9967 155.714 5.22816 154.608 5.16763 153.679C5.14982 153.406 5.11511 152.872 5.49411 152.517C6.10191 151.948 7.16031 152.411 8.54104 152.178C9.07609 152.088 9.80972 151.867 10.6366 151.279C10.0979 150.837 10.0244 150.638 9.4244 150.263Z" fill="#131E35"/>
<path d="M25.8682 90.8619C19.661 94.5399 23.6841 95.6808 22.771 94.0165C20.6461 90.1437 20.0345 89.6608 16.549 93.5519C14.8065 95.4972 16.2303 97.2565 16.4698 106.745C16.5125 108.436 15.6654 108.308 15.2696 112.738C14.5835 120.418 14.237 124.184 13.6533 131.436C12.9281 140.449 13.6323 143.974 14.1493 149.065C14.2241 149.801 22.3785 149.542 21.9843 147.903C21.3947 145.451 21.8131 136.782 22.5292 131.947C22.788 130.2 23.0264 129.026 23.1683 128.364C23.231 128.072 24.0322 124.422 24.6291 122.425C25.6818 118.904 29.4585 88.7346 25.8682 90.8619Z" fill="#121251"/>
<path d="M13.6534 131.436C14.237 124.184 14.5835 120.418 15.2696 112.738C15.6654 108.308 16.5126 108.436 16.4698 106.745C16.2303 97.2564 14.8065 95.4973 16.549 93.5519C19.9101 89.7997 20.599 90.1153 22.5493 93.6154C21.7404 94.9833 23.3902 95.1451 22.771 94.0165C22.6952 93.8783 22.6214 93.745 22.5493 93.6154C22.9332 92.9663 23.8704 92.0457 25.8682 90.8619C27.4951 89.8979 27.6093 95.5657 27.1497 102.381C26.2851 102.553 25.2848 102.881 24.3325 103.505C23.4314 104.095 22.6568 104.895 21.6869 106.643C20.2994 109.145 19.8334 111.206 19.3352 113.269C17.9275 119.1 17.9943 117.779 17.1794 121.552C16.7564 123.511 16.0348 126.892 15.6117 130.794C15.003 136.405 15.2794 140.627 15.6117 145.354C15.7004 146.617 15.8164 147.985 15.9684 149.449C14.931 149.418 14.1719 149.287 14.1493 149.065C13.6323 143.974 12.9281 140.449 13.6534 131.436Z" fill="#0D0D47"/>
<path d="M6.00975 95.161C4.23825 97.0854 5.63546 98.8614 5.73266 108.352C5.74997 110.043 5.77925 113.913 5.31699 118.337C4.51564 126.008 3.23831 125.763 2.54594 133.008C1.6855 142.011 2.33672 145.544 2.77732 150.64C2.84106 151.378 10.9986 151.216 10.6291 149.572C10.0763 147.113 10.6247 138.45 11.4133 133.624C11.6983 131.88 11.9542 130.709 12.1061 130.049C12.1733 129.757 12.5878 127.97 13.2145 125.981C14.32 122.472 15.6132 119.834 16.5398 117.598C18.8345 112.061 17.6336 112.002 20.0036 105.27C22.2328 98.9377 23.6628 97.9455 22.7747 96.2705C20.7081 92.3728 9.55329 91.3116 6.00975 95.161Z" fill="#191960"/>
<path d="M6.00975 95.1608C4.23825 97.0852 5.03637 98.5116 5.13354 108.002C5.15088 109.694 5.77925 113.913 5.31699 118.337C4.51564 126.008 3.23831 125.763 2.54594 133.007C1.6855 142.011 2.33672 145.544 2.77732 150.64C2.79875 150.888 3.73358 151.034 4.9512 151.056C4.33069 144.178 4.35051 138.782 4.72319 135.542C5.11101 132.171 5.78201 129.322 5.78201 129.322C6.42857 126.576 7.02642 125.07 7.65557 123.006C8.7083 119.554 9.1006 116.996 9.66312 113.328C10.9187 105.14 10.6769 96.9968 10.4575 93.0278C8.61862 93.3783 7.01053 94.0736 6.00975 95.1608Z" fill="#121251"/>
<path d="M37.7035 65.9571C37.8034 65.8773 38.3408 65.4496 38.5032 64.7909C38.6111 64.3535 38.4715 64.1471 38.4366 64.0991C38.2326 63.8191 37.8333 63.7749 37.7257 63.7631C37.3632 63.7231 37.0842 63.8484 36.5261 64.0991C36.0752 64.3016 35.8498 64.4029 35.6153 64.613C35.2648 64.927 35.2559 65.144 34.9266 65.2653C34.8116 65.3077 34.6278 65.3133 34.2601 65.3246C33.7657 65.3398 33.6647 65.2969 33.4382 65.3641C33.3381 65.3939 33.2989 65.4197 32.9272 65.6606C32.2013 66.1311 32.1665 66.152 32.1052 66.2339C31.9328 66.4645 31.9113 66.6979 31.8831 67.0048C31.8528 67.3341 31.9165 67.3898 31.9275 67.8744C31.9395 68.401 31.8665 68.4307 31.9053 68.6651C31.9721 69.0687 32.2787 69.5252 32.6162 69.6732C33.6683 70.1346 35.4272 67.7762 37.7035 65.9571Z" fill="#E28569"/>
<path d="M34.6378 65.4231C34.9505 65.4132 35.2852 65.3768 35.4598 65.5614C35.6024 65.7123 35.5655 65.934 35.5486 66.0358C35.4835 66.4275 35.1404 66.6653 34.9932 66.7672C34.9069 66.8269 34.577 67.0498 34.1268 67.0834C33.9606 67.0958 33.9254 67.0714 33.7936 67.1032C33.5186 67.1694 33.4476 67.3296 33.1938 67.4985C33.0985 67.5619 32.7885 67.7682 32.4607 67.7555C32.233 67.7466 32.0446 67.6339 31.9048 67.5111C31.8848 67.3238 31.8627 67.2256 31.8831 67.0044C31.9113 66.6975 31.9328 66.4642 32.1052 66.2335C32.1665 66.1516 32.2013 66.1307 32.9272 65.6603C33.2989 65.4194 33.3381 65.3935 33.4382 65.3638C33.4592 65.3575 33.4789 65.3525 33.4982 65.348C33.9608 65.421 34.3441 65.4323 34.6378 65.4231Z" fill="#EB8E6C"/>
<path d="M36.126 65.7001C36.0142 65.543 36.075 65.3444 36.126 65.1862C36.2527 64.7937 36.5077 64.6329 36.8592 64.2177C36.9412 64.1206 37.0417 63.9943 37.1491 63.8386C37.3554 63.7688 37.5282 63.7412 37.7255 63.763C37.8331 63.7749 38.2325 63.819 38.4364 64.0991C38.4713 64.147 38.6109 64.3535 38.5031 64.7909C38.4455 65.0242 38.3407 65.2279 38.2252 65.398C37.8504 65.6739 37.3927 65.9063 36.9036 65.9175C36.7229 65.9217 36.2908 65.9316 36.126 65.7001Z" fill="#EB8E6C"/>
<path d="M35.3109 65.6891C35.2876 65.6677 35.2615 65.6814 34.9777 65.7089C34.6387 65.7417 34.648 65.7248 34.5778 65.7484C34.3267 65.8327 34.2083 66.0484 34.1668 66.124C34.1111 66.2256 34.0721 66.2966 34.1002 66.371C34.1515 66.5071 34.3949 66.5701 34.5667 66.5588C35.0776 66.5252 35.434 65.8022 35.3109 65.6891Z" fill="#EDDBD6"/>
<path d="M37.6045 65.2535C37.6091 65.2281 37.6372 65.0606 37.5156 64.9373C37.3939 64.8139 37.2036 64.817 37.1046 64.8187C37.0461 64.8196 36.9044 64.8237 36.7603 64.9076C36.7107 64.9365 36.582 65.014 36.527 65.1646C36.5119 65.2061 36.4478 65.4025 36.5826 65.5501C36.7145 65.6944 36.9368 65.6822 37.0046 65.6785C37.267 65.6642 37.5597 65.496 37.6045 65.2535Z" fill="#EDDBD6"/>
<path d="M36.8065 73.8038C36.8837 73.8718 36.8683 74.0506 36.14 75.2269C35.4505 76.3408 35.1057 76.8977 34.6738 77.3617C34.2044 77.866 33.6349 78.4778 32.6745 78.943C32.4738 79.0402 30.893 79.788 29.6087 79.536C27.7726 79.1757 26.8394 76.8302 26.232 74.7526C23.9187 66.8391 24.7675 57.456 26.3209 57.3583C27.0647 57.3115 28.1173 59.3844 28.4536 60.0465C28.8367 60.801 29.0158 61.4021 29.12 61.7464C29.6148 63.3807 30.2602 64.9767 30.7639 66.6089C33.1038 74.1899 33.9062 74.6518 34.4517 74.713C35.4998 74.8307 36.5467 73.5752 36.8065 73.8038Z" fill="#E8E6FF"/>
<path d="M27.128 57.7541C26.5651 57.0334 25.5285 56.7262 25.5285 56.7262C24.6422 56.2781 23.8889 56.074 23.0404 55.8565C20.9431 55.319 20.4438 55.2579 19.3971 54.9868C16.1093 54.1355 16.3112 53.5154 14.4209 53.4055C13.0603 53.3264 12.5966 53.6268 10.9553 53.4055C10.5917 53.3565 10.1247 53.2757 9.53353 53.4055C8.90294 53.544 8.49955 53.8412 7.8452 54.3543C6.24416 55.6098 5.62368 56.1728 5.62368 56.1728C4.38346 57.2981 3.76333 57.8608 3.57986 58.0704C2.34198 59.4842 2.32164 61.2017 2.33582 63.2096C2.36925 67.9412 2.38592 70.307 2.6024 71.9067C3.01224 74.9355 3.44631 75.9776 3.93531 80.2085C4.02822 81.0122 4.11979 81.8046 4.20189 82.8967C4.4363 86.0144 2.07664 117.39 2.07664 117.39C1.76725 120.428 31.1624 121.006 31.131 119.029C31.0694 115.152 30.716 106.473 30.4158 103.137C29.88 97.1823 30.4826 97.826 29.8827 93.0961C29.5553 90.5149 29.1572 88.5993 28.9052 84.9524C28.8389 83.9923 28.7736 82.7819 28.7275 80.2876C28.574 71.9993 28.4973 67.8551 28.6386 65.5815C28.6939 64.6911 27.833 58.6568 27.128 57.7541Z" fill="#F7F7F7"/>
<path d="M8.48083 81.4225C8.41565 79.2863 5.49082 74.0797 2.50564 70.9797C2.53256 71.3173 2.56431 71.6233 2.6024 71.9047C3.01224 74.9335 3.44631 75.9756 3.93531 80.2065C4.02822 81.0102 4.11979 81.8026 4.20189 82.8947C4.4363 86.0125 2.07664 117.388 2.07664 117.388C1.99764 118.164 3.8557 118.779 6.66529 119.232C7.08531 111.604 7.51243 105.766 7.87585 101.393C8.14814 98.1179 8.67424 87.7612 8.48083 81.4225Z" fill="#EDF1F7"/>
<path d="M12.747 59.9813L14.6174 59.8652L14.0085 61.2972C14.0085 61.2972 20.1114 64.2051 22.4907 66.2384C23.2331 66.8728 24.2508 67.6211 24.2837 67.5962C24.3414 67.5525 22.7625 65.9518 20.7507 64.1226C18.5063 62.0818 17.4317 61.8202 16.5748 60.1361C16.0199 59.0454 16.3047 58.8288 15.7049 58.0074C14.6868 56.613 13.2686 56.4186 11.6595 55.5304C10.9275 55.1263 10.03 54.5088 9.12773 53.5261C8.78089 53.6612 8.47969 53.8642 8.10645 54.1496C8.55876 54.9106 12.747 59.9813 12.747 59.9813Z" fill="#97BFFF"/>
<path d="M23.0726 62.9992C22.65 64.2465 22.0097 65.0618 22.1157 65.115C22.2423 65.1786 23.1566 64.0131 23.8266 62.896C23.8941 62.7835 24.1906 62.1415 24.7836 60.8576C25.13 60.1076 25.1025 59.4385 25.1025 59.4385C25.1025 59.4385 23.9892 59.04 24.0006 58.9482C24.013 58.8484 25.2476 58.6902 25.2476 58.6902C25.2476 58.6902 25.0855 57.7523 24.5516 56.9615C24.3232 56.6232 24.1 56.3315 23.8992 56.0864C23.6185 56.0035 23.3358 55.9295 23.0416 55.8541C22.9237 55.8239 22.8116 55.7954 22.7034 55.7681C22.7587 55.9868 22.8148 56.2217 22.8696 56.4712C23.3723 58.7581 23.8198 60.7942 23.0726 62.9992Z" fill="#97BFFF"/>
<path d="M21.4389 44.814C21.465 44.7854 21.9682 44.249 22.4832 44.4129C22.9791 44.5708 23.178 45.2802 23.1881 45.7185C23.2122 46.7662 22.0323 47.7877 21.4876 47.6093C20.8819 47.4109 20.6957 45.6283 21.4389 44.814Z" fill="#EB8E6C"/>
<path d="M21.7946 46.965C21.9599 46.9761 22.1324 46.7961 22.226 46.6797C22.4505 46.4 22.6436 45.9613 22.4488 45.6452C22.3372 45.4644 22.0717 45.3013 21.8001 45.3548C21.6102 45.3922 21.457 45.529 21.384 45.7171C21.3574 45.7858 21.404 45.8654 21.4793 45.8814C21.5365 45.8936 21.5889 45.8622 21.6094 45.8101C21.6555 45.6929 21.7474 45.6088 21.86 45.5866C22.0137 45.5562 22.1799 45.6526 22.2458 45.7593C22.3172 45.8751 22.2982 46.0638 22.1937 46.2769C22.0643 46.5407 21.8081 46.7232 21.8078 46.7313C21.8078 46.7317 22.1865 46.3928 21.808 46.7317C21.5859 46.9306 21.7768 46.9637 21.7946 46.965Z" fill="#C36252"/>
<path d="M21.0953 47.5589C21.0862 47.49 21.138 47.4315 21.2079 47.4318L21.2084 47.4318C21.2715 47.4321 21.3256 47.4811 21.3336 47.5433C21.3528 47.6928 21.3958 47.7199 21.5008 47.727L21.501 47.727C21.7113 47.7411 21.8158 47.5784 21.8975 47.4006C21.9275 47.3351 21.9535 47.2786 22.0282 47.2726C22.2701 47.2529 22.7438 46.738 22.9024 46.067C22.9876 45.7065 22.9669 45.3723 22.8411 45.0738C22.7914 44.9559 22.7233 44.7943 22.5601 44.6994C22.3864 44.5983 22.2021 44.628 22.1235 44.6408C21.8459 44.6856 21.6674 44.8713 21.573 45.0037C21.5387 45.0517 21.4712 45.0632 21.4173 45.0314C21.3552 44.9947 21.3352 44.9151 21.3748 44.8598C21.4922 44.696 21.7163 44.4649 22.0716 44.4076C22.167 44.3921 22.4208 44.3511 22.673 44.4977C22.9108 44.636 23.0053 44.8602 23.0618 44.9941C23.1621 45.2322 23.2565 45.623 23.1361 46.1329C22.9681 46.8438 22.4791 47.4141 22.1213 47.4984C22.1198 47.5015 22.1184 47.5047 22.1169 47.508C22.0565 47.6397 21.8959 47.9893 21.4985 47.9627L21.4982 47.9627C21.1934 47.942 21.1181 47.7329 21.0953 47.5589Z" fill="#C36252"/>
<path d="M21.4034 45.8298C21.3869 45.8631 21.5064 45.9157 21.5941 46.0524C21.7637 46.3165 21.6398 46.6223 21.6875 46.6353C21.723 46.6449 21.8128 46.4814 21.8246 46.2973C21.83 46.213 21.841 46.0414 21.7223 45.9234C21.6092 45.8111 21.4226 45.7912 21.4034 45.8298Z" fill="#C36252"/>
<path d="M20.1345 51.0728C20.2753 51.3241 19.6755 51.7256 19.8444 52.4191C19.922 52.7376 20.4665 54.0268 20.5342 54.2839C20.7096 54.9495 21.3376 57.9465 20.7063 58.3299C19.4605 59.0867 16.1202 55.2676 15.5216 55.1227C13.3609 54.5999 11.3649 52.8984 11.5622 51.6557C11.6017 51.4074 10.9716 51.2475 11.1903 50.71C11.3814 50.2401 11.9129 49.6596 11.9036 49.1387C11.8752 47.5456 11.7056 47.021 11.8401 46.9793C12.1917 46.8701 12.8473 50.6105 15.3325 51.386C17.3061 52.0019 19.8508 50.5663 20.1345 51.0728Z" fill="#EB8E6C"/>
<path d="M14.9462 52.5523C13.4976 51.699 12.3952 49.9724 11.8434 47.7586C11.7989 47.2182 11.7649 47.0052 11.8486 46.9793C12.2002 46.8701 12.8558 50.6105 15.341 51.386C17.3146 52.0019 19.8593 50.5663 20.143 51.0728C20.2838 51.3241 19.8217 51.5355 19.9906 52.229C20.044 52.4484 19.9437 52.6863 20.0171 52.8026C19.5982 53.0228 18.9453 53.3981 18.241 53.4598C16.7145 53.5937 15.5553 52.911 14.9462 52.5523Z" fill="#C36252"/>
<path d="M21.4141 49.2104C21.177 50.0368 21.0643 50.2974 20.8911 50.5768C20.7701 50.7721 20.1093 51.8388 18.8971 52.2894C17.0203 52.9871 15.0042 51.7683 14.6003 51.5242C13.0136 50.565 12.4129 49.2035 11.6376 47.4461C11.4046 46.9178 10.7678 45.3822 10.5736 43.2592C10.3943 41.2974 10.3046 40.3165 10.9099 39.392C12.3425 37.2041 16.0634 37.2444 16.5731 37.2499C17.5555 37.2605 19.4548 37.2811 20.8131 38.5476C20.8804 38.6103 21.5218 39.9427 22.1614 41.4822C22.6921 42.7597 22.0036 47.1554 21.4141 49.2104Z" fill="#EB8E6C"/>
<path d="M13.4918 44.502C13.4678 44.3543 13.5705 44.2153 13.7173 44.1941C14.3059 44.1095 14.9002 44.0918 15.4886 44.1416C15.8584 44.1729 16.2281 44.2313 16.5909 44.3156C16.7343 44.349 16.8206 44.4965 16.7811 44.6409C16.7437 44.7773 16.6072 44.862 16.4719 44.8305C16.1319 44.7513 15.7855 44.6965 15.4388 44.6671C14.8883 44.6204 14.3311 44.6373 13.7796 44.7169C13.6414 44.7369 13.5144 44.641 13.4918 44.502Z" fill="#49302A"/>
<path d="M21.5984 44.4522C21.6171 44.3048 21.5345 44.1645 21.4168 44.1414C20.9452 44.0491 20.4692 44.0235 19.9981 44.0655C19.702 44.0919 19.4061 44.1454 19.1158 44.2249C19.0011 44.2563 18.9324 44.4026 18.9644 44.5476C18.9948 44.6844 19.1044 44.7708 19.2127 44.7411C19.4847 44.6665 19.762 44.6163 20.0395 44.5915C20.4803 44.5521 20.9266 44.5763 21.3685 44.6632C21.4792 44.685 21.5807 44.5909 21.5984 44.4522Z" fill="#49302A"/>
<path d="M18.2761 46.1346C18.1901 45.5982 18.1379 45.0548 18.1207 44.5174C18.1183 44.4418 18.0418 44.3803 17.9484 44.3794C17.8538 44.3785 17.7778 44.44 17.7803 44.5166C17.7977 45.0634 17.8508 45.6163 17.9384 46.1622C17.9802 46.4234 18.0235 46.6437 18.0618 46.8381C18.1679 47.3788 18.2212 47.6502 18.0571 47.8209C17.9415 47.941 17.7232 48.0014 17.4199 48.0025C17.4372 48.0952 17.4604 48.1867 17.4939 48.2766C17.8748 48.2664 18.1555 48.1735 18.3282 47.994C18.5805 47.7316 18.5156 47.4017 18.398 46.8027C18.3602 46.6101 18.3173 46.3919 18.2761 46.1346Z" fill="#C36252"/>
<path d="M16.0024 45.4056C15.9868 45.6984 15.7584 45.9265 15.4922 45.9153C15.2259 45.9041 15.0228 45.6577 15.0384 45.365C15.054 45.0722 15.2825 44.844 15.5487 44.8553C15.8149 44.8665 16.018 45.1129 16.0024 45.4056Z" fill="#49302A"/>
<path d="M20.3569 45.343C20.3413 45.6358 20.1128 45.8639 19.8466 45.8527C19.5805 45.8415 19.3773 45.5951 19.3929 45.3023C19.4085 45.0096 19.637 44.7814 19.9032 44.7926C20.1694 44.8039 20.3725 45.0503 20.3569 45.343Z" fill="#49302A"/>
<path d="M17.9985 49.9354C18.7366 49.9045 19.1704 49.4697 19.3704 49.1245C19.4386 49.0068 19.3069 48.8803 19.1438 48.9062L18.7671 48.9662C18.2234 49.0526 17.6679 49.0815 17.1161 49.0522L16.3996 49.014C16.2364 49.0054 16.1249 49.1401 16.2024 49.2506C16.4342 49.581 17.2556 49.9665 17.9985 49.9354Z" fill="white"/>
<path d="M15.8705 46.9774C15.8057 47.2804 15.2327 47.4502 14.5907 47.3566C13.9486 47.2631 13.4807 46.9417 13.5455 46.6387C13.6104 46.3357 14.1834 46.1659 14.8254 46.2595C15.4674 46.353 15.9353 46.6745 15.8705 46.9774Z" fill="#DD8064"/>
<path d="M21.694 46.5152C21.7276 46.7828 21.2971 47.0273 20.7326 47.0613C20.1681 47.0953 19.6833 46.9059 19.6498 46.6383C19.6162 46.3707 20.0467 46.1262 20.6112 46.0922C21.1757 46.0582 21.6605 46.2476 21.694 46.5152Z" fill="#DD8064"/>
<path d="M9.66137 42.3343C9.49364 41.3641 9.66793 37.8086 13.6756 36.9744C16.4996 36.3865 16.0991 35.8862 17.0892 35.5493C18.7012 35.0007 20.0344 35.5844 20.7189 35.8924C24.0115 37.374 22.681 39.6994 22.681 39.6994C22.8097 40.1691 22.8164 40.1328 22.9353 40.4971C23.7498 42.9915 22.1813 45.1742 22.1747 45.0011C22.1173 43.5144 22.2783 41.8879 21.8706 41.0334C21.5486 40.3587 21.1699 40.1689 21.0607 40.1192C20.6489 39.9318 20.2639 40.0033 19.5376 40.1067C18.6044 40.2396 17.8379 40.3487 17.1883 40.3813C16.4511 40.4182 15.8538 40.3544 14.6593 40.2269C13.4191 40.0944 12.9626 39.97 12.5831 40.2518C12.2483 40.5003 12.1764 40.9145 12.114 41.2736C12.0005 41.9277 12.1554 42.4462 12.2038 42.6275C12.6331 44.2347 11.8616 46.1544 11.6341 46.145C11.529 46.1407 10.7182 46.2615 10.3957 44.5005C10.2802 43.87 9.77415 42.9866 9.66137 42.3343Z" fill="#06111E"/>
<path d="M11.3929 45.0993C11.3629 45.0738 10.7878 44.598 10.3002 44.8183C9.83052 45.0305 9.73354 45.7565 9.78557 46.1925C9.90986 47.2346 11.2239 48.2351 11.739 47.9971C12.3118 47.7325 12.2453 45.8238 11.3929 45.0993Z" fill="#EB8E6C"/>
<path d="M11.3445 47.2731C11.1821 47.3027 10.9856 47.1435 10.8763 47.0384C10.614 46.7862 10.3603 46.3725 10.5089 46.0371C10.5939 45.8453 10.8343 45.6537 11.1112 45.6764C11.305 45.6923 11.4763 45.8107 11.5753 45.9892C11.6115 46.0544 11.5765 46.1385 11.5041 46.1629C11.4491 46.1814 11.3926 46.1561 11.3649 46.1067C11.3026 45.9956 11.1995 45.9224 11.0847 45.913C10.9279 45.9002 10.7766 46.0144 10.7264 46.1275C10.6719 46.2505 10.7175 46.4355 10.8513 46.6352C11.017 46.8824 11.297 47.0347 11.2984 47.0427C11.2985 47.0432 10.8749 46.7494 11.2983 47.0432C11.5467 47.2156 11.362 47.2699 11.3445 47.2731Z" fill="#C36252"/>
<path d="M11.7724 48.2308C11.7724 48.2308 11.7723 48.2309 11.7722 48.2309C11.3817 48.3018 11.1729 47.9729 11.0944 47.8491C11.0924 47.846 11.0905 47.843 11.0886 47.84C10.7217 47.7965 10.156 47.2855 9.88866 46.5991C9.69717 46.1068 9.73543 45.7085 9.80124 45.461C9.83836 45.3219 9.90038 45.0889 10.1168 44.925C10.3462 44.7514 10.6038 44.7636 10.7006 44.7683C11.0613 44.7853 11.3162 44.9895 11.4558 45.1388C11.503 45.1892 11.4944 45.2704 11.438 45.3138C11.389 45.3514 11.3204 45.3476 11.2796 45.3038C11.1672 45.183 10.9639 45.0188 10.6822 45.0054C10.6024 45.0016 10.4153 44.9927 10.2573 45.1125C10.1088 45.2249 10.0641 45.3928 10.0315 45.5154C9.94892 45.8256 9.97575 46.1594 10.1112 46.5076C10.3635 47.1555 10.9063 47.6132 11.149 47.6056C11.224 47.6032 11.2578 47.6564 11.2968 47.7179C11.403 47.8853 11.5297 48.0349 11.7363 47.9974L11.7365 47.9973C11.8397 47.9785 11.8785 47.9469 11.8764 47.7963C11.8755 47.7338 11.9223 47.6791 11.9849 47.6717L11.9853 47.6717C12.0547 47.6635 12.1143 47.7158 12.115 47.7852C12.117 47.9603 12.0719 48.1762 11.7724 48.2308Z" fill="#C36252"/>
<path d="M11.5668 46.1033C11.5879 46.1344 11.4767 46.2001 11.409 46.3454C11.2781 46.6265 11.4444 46.9159 11.399 46.9341C11.3651 46.9476 11.2528 46.7955 11.215 46.6142C11.1978 46.5312 11.1626 46.3622 11.2637 46.2319C11.36 46.1078 11.5422 46.0671 11.5668 46.1033Z" fill="#C36252"/>
<path d="M48.6232 64.7499L36.8358 65.4211L24.2681 76.2934C24.2681 76.2934 25.8197 77.3317 27.9186 77.3607C28.1852 77.3644 33.4864 77.0147 33.4864 77.0147L48.6232 64.7499Z" fill="#2C4A8C"/>
<path d="M16.5439 57.6077C16.8074 58.0749 17.1185 58.623 17.617 59.3364C18.7927 61.0193 19.2639 61.1212 20.4299 62.6907C21.5301 64.1718 21.7721 64.9718 22.1118 64.9097C22.5338 64.8326 22.5681 63.5235 22.6048 62.1231C22.6674 59.7335 22.2231 59.9056 22.4308 58.3817C22.5233 57.7031 22.6856 57.1244 22.2858 56.7046C21.9846 56.3883 21.4084 56.2086 21.0098 56.3692C20.4783 56.5833 21.2294 58.0158 20.8607 58.2272C20.5911 58.3817 18.6199 53.7722 18.0998 54.1075C17.7656 54.3229 15.9685 56.5871 16.5439 57.6077Z" fill="#31C6F4"/>
<path d="M9.93061 51.4668C9.93061 51.4668 11.3854 52.1473 14.9957 55.6572C17.0999 57.7029 16.9219 57.4464 17.5727 58.1478C18.3771 59.0148 19.0664 59.8564 21.5269 63.3661C24.2245 67.2138 24.345 67.5558 24.2816 67.5961C24.1507 67.6792 23.3538 66.3966 21.4381 64.9869C19.7227 63.7246 15.2623 61.2313 15.2623 61.2313L15.4844 58.8989C15.4844 58.8989 14.4272 59.3795 13.485 59.2152C13.1919 59.164 8.47803 53.877 8.47803 53.877L9.93061 51.4668Z" fill="white"/>
<path d="M22.1064 64.7896C21.8548 64.6976 22.2294 63.9926 22.2841 61.9828C22.3167 60.7845 22.3566 59.3198 21.8398 57.6737C21.236 55.7507 20.2946 54.9246 20.6846 54.5507C21.0706 54.1806 21.8309 54.5928 22.638 55.1437C23.9269 56.0232 24.6833 58.3853 24.6833 58.3853L23.2171 58.9783L24.6833 59.6899C24.6833 59.6899 22.7326 65.0185 22.1064 64.7896Z" fill="white"/>
<path d="M18.2416 54.1563C18.2416 54.1563 16.972 53.7353 15.3981 53.0098C12.8456 51.8333 11.3994 50.0449 11.3994 50.0449C11.3994 50.0449 10.0532 51.401 10.2216 52.2933C10.4017 53.2475 11.4232 53.4008 13.2654 54.9865C15.3268 56.7607 16.2423 57.3979 16.2423 57.3979L18.2416 54.1563Z" fill="#50CEFF"/>
<path d="M20.861 58.2276C20.861 58.2276 21.2881 57.6961 21.8385 56.6463C22.2701 55.8231 22.3266 55.6252 22.2828 55.3813C22.179 54.8029 21.6086 54.5094 21.7497 54.2743C21.8855 54.048 22.4906 54.1938 22.5494 54.0371C22.6113 53.8722 21.9906 53.5772 21.5719 53.3256C20.0301 52.3986 20.3542 51.6425 20.0565 51.8563C19.932 51.9458 20.0585 53.5906 20.1112 53.97C20.3581 55.7456 20.861 58.2276 20.861 58.2276Z" fill="#00AAED"/>
<path d="M23.1011 120.206C22.981 120.206 22.8844 120.118 22.8853 120.011L22.8879 119.691C22.9039 117.757 22.9307 114.52 22.9707 111.186C23.0749 102.506 23.2065 95.7277 23.4057 85.4682C23.5201 79.574 23.6349 73.6799 23.7499 67.7857C23.752 67.6789 23.851 67.5937 23.9711 67.5956C24.0912 67.5974 24.1869 67.6856 24.1848 67.7924C24.0698 73.6866 23.955 79.5808 23.8406 85.4749C23.6414 95.7337 23.5098 102.511 23.4057 111.19C23.3656 114.524 23.3389 117.76 23.3229 119.694L23.3202 120.014C23.3194 120.121 23.2213 120.207 23.1011 120.206Z" fill="#97BFFF"/>
<path d="M25.1021 81.8148C25.0909 81.4405 23.686 80.8125 13.5001 80.2019C10.8656 80.044 7.63463 79.8768 3.88037 79.7423C3.89864 79.8931 3.917 80.0475 3.93543 80.2071C4.02835 81.0108 4.11991 81.8032 4.20202 82.8953C4.22368 83.1838 4.22313 83.7147 4.20434 84.4397C16.3862 84.3751 25.1125 82.1621 25.1021 81.8148Z" fill="#B8D5FF"/>
<path d="M8.96633 77.6499C9.80705 76.2163 10.0995 74.902 10.6843 72.2735C11.1961 69.9732 11.564 68.2518 11.336 65.9483C11.0844 63.4085 10.2861 61.9567 10.0327 61.5207C9.5741 60.7319 8.88878 59.5879 7.4261 58.7798C6.86069 58.4674 5.65396 57.8007 4.28633 58.0945C3.58124 58.2461 3.13336 58.5885 2.68684 58.9379C1.02721 60.237 0.543431 62.012 0.317245 62.8912C0.11058 63.6943 0.0551508 64.3444 0.0210332 65.6321C-0.0439565 68.0843 0.0547301 69.5887 0.139503 71.8518C0.2133 73.8214 0.39749 75.7866 0.494968 77.7554C0.550695 78.8812 0.616628 80.3659 1.79823 81.4978C2.13537 81.8207 2.49231 82.1626 3.04231 82.2884C5.07238 82.7528 7.70056 79.8085 8.96633 77.6499Z" fill="white"/>
<path d="M23.3087 74.1991C23.4676 73.8885 23.7997 73.4913 24.4639 72.6968C25.336 71.6538 25.7755 71.3135 26.2855 71.076C26.621 70.9199 26.5643 71.0049 27.2186 70.7598C28.2239 70.3831 29.0327 69.9294 29.3068 69.7714C30.2002 69.2568 30.5282 68.9393 30.8619 69.0599C31.1268 69.1556 31.2208 69.4781 31.2617 69.6133C31.3893 70.0342 31.1998 70.389 31.1285 70.5226C30.956 70.8454 30.7037 71.0258 30.462 71.1946C30.3101 71.3007 30.098 71.4298 29.3957 71.7085C28.4984 72.0647 28.1385 72.1343 28.1516 72.2225C28.1677 72.3309 28.7365 72.3887 29.2624 72.3411C29.7555 72.2964 30.3132 72.1499 31.1729 71.669C32.1735 71.1093 31.993 70.9863 32.9501 70.4435C33.7992 69.962 33.6188 70.2417 35.0383 69.5738C35.2687 69.4654 35.6672 69.2728 36.1491 69.3366C36.2222 69.3463 36.6404 69.4117 36.7267 69.6133C36.9044 70.0284 36.3268 70.3644 36.3268 70.3644C36.3268 70.3644 36.6211 70.4854 36.7267 70.6807C36.87 70.9456 36.5863 71.3055 36.549 71.3528C36.3611 71.5911 36.1951 71.6029 35.8381 71.8271C35.6681 71.9339 35.6907 71.9407 34.905 72.6573C34.2974 73.2115 34.2685 73.2216 34.1497 73.3689C33.9351 73.6352 33.9693 73.6773 33.6166 74.2386C33.3384 74.6811 33.1994 74.9025 32.9945 75.1083C32.6538 75.4508 32.5489 75.3883 32.1948 75.7408C31.8429 76.0911 31.8632 76.2358 31.5728 76.5315C31.4724 76.6337 31.2079 76.8833 30.5509 77.164C29.0989 77.7844 27.0843 77.9781 26.9076 77.9942C24.8755 78.1795 23.8595 78.2722 23.442 77.9546C22.4179 77.1758 22.7592 75.2734 23.3087 74.1991Z" fill="#EB8E6C"/>
<path d="M30.2602 70.3034C30.0982 70.2034 30.0573 70.0429 30.038 69.9673C30.0247 69.915 29.9765 69.7118 30.1047 69.5127C30.2132 69.3441 30.4615 69.1576 30.6823 69.2162C30.8491 69.2605 30.9225 69.4241 30.9711 69.5325C30.9985 69.5935 31.2078 70.0606 30.9044 70.2836C30.7337 70.4091 30.4504 70.4208 30.2602 70.3034Z" fill="#FFF0EB"/>
<path d="M34.6128 71.7283C33.9906 72.2064 33.503 72.5103 32.9467 72.855C32.2447 73.2899 31.6047 73.6864 31.5249 73.6061C31.4588 73.5397 31.8034 73.1738 31.9692 73.0132C32.0676 72.9178 32.2647 72.7378 32.9244 72.3213C33.4662 71.9793 33.5099 71.9891 33.8131 71.7679C34.1884 71.4939 34.1364 71.468 34.4573 71.254C34.7416 71.0643 35.004 70.935 35.3682 70.7598C35.626 70.6357 35.7338 70.5964 35.9235 70.5028C36.117 70.4074 36.3662 70.2701 36.6464 70.0741C36.5179 70.2506 36.3234 70.3645 36.3234 70.3645C36.3234 70.3645 36.3894 70.3918 36.4699 70.441C36.1759 70.5826 35.853 70.7641 35.5236 70.997C35.1693 71.2475 35.1528 71.3135 34.6128 71.7283Z" fill="#D16D52"/>
<path d="M33.2496 74.2778C33.1404 74.4897 33.0686 74.7883 32.7387 75.029C32.541 75.1733 32.372 75.208 32.1389 75.444C32.0154 75.5691 32.0017 75.6213 31.8501 75.7603C31.6863 75.9106 31.4745 76.1048 31.3391 76.0568C31.2205 76.0147 31.1525 75.7836 31.2281 75.6022C31.3449 75.3218 31.7083 75.3911 32.05 75.029C32.2077 74.8619 32.1376 74.8395 32.3389 74.6139C32.3847 74.5624 32.5331 74.4013 32.9164 74.1395C33.1832 73.9572 33.3986 73.8391 33.4274 73.8232C33.5886 73.7346 33.8057 73.6073 34.0992 73.4182C34.049 73.4835 34.0141 73.5359 33.9817 73.5901C33.5658 73.8232 33.3585 74.0669 33.2496 74.2778Z" fill="#D16D52"/>
<path d="M36.3987 70.1272C36.2503 70.2197 36.1082 70.2414 36.0766 70.2458C35.9583 70.2623 35.8322 70.2799 35.7545 70.2162C35.6208 70.1065 35.7387 69.8448 35.7545 69.811C35.7776 69.7615 35.8634 69.5776 36.0877 69.5046C36.1312 69.4904 36.3462 69.4263 36.5209 69.5342C36.5413 69.5468 36.6688 69.6256 36.6764 69.7516C36.6806 69.8202 36.6474 69.8714 36.6098 69.9296C36.5393 70.0383 36.4456 70.098 36.3987 70.1272Z" fill="#FFF0EB"/>
<path d="M36.1692 71.4209C36.1419 71.4206 36.0267 71.4162 35.9582 71.3418C35.8706 71.2465 35.9221 71.1044 35.9471 71.0354C36.01 70.862 36.1569 70.775 36.2026 70.7488C36.2799 70.7045 36.3828 70.6455 36.4803 70.6796C36.567 70.71 36.6015 70.7973 36.6136 70.8278C36.6503 70.9208 36.6264 71.0035 36.6136 71.0453C36.5617 71.2151 36.3863 71.4228 36.1692 71.4209Z" fill="#FFF0EB"/>
<path d="M23.6725 73.4182C23.6725 73.4182 22.6899 73.6071 20.9946 74.067C18.6347 74.7072 16.6925 74.6782 14.5966 74.6468C11.206 74.5962 11.4971 73.9131 9.44265 74.1197C6.66528 74.399 4.18284 75.8434 2.92622 77.704C2.55369 78.2555 1.83225 79.3589 2.15607 80.603C2.21536 80.8308 1.53182 81.3359 2.12976 81.8019C2.8673 82.3766 4.68855 82.5027 5.11809 82.5006C10.1071 82.4763 12.6016 82.4642 13.9449 82.3952C16.4733 82.2653 18.9953 81.9965 21.5277 81.9735C23.0397 81.9597 25.0999 81.8154 25.0999 81.8154C25.0999 81.8154 25.2704 80.2187 24.9637 77.9148C24.5125 74.5256 23.6725 73.4182 23.6725 73.4182Z" fill="white"/>
<path d="M15.3213 74.834C14.551 74.834 13.7382 74.8049 12.8851 74.7378C12.3248 74.6938 10.1516 74.2866 10.0594 74.2693C9.93912 74.2467 9.86373 74.14 9.89305 74.0339C9.91109 73.9685 11.6485 67.6166 11.0241 65.0477C10.9996 64.947 11.0665 64.8472 11.1781 64.8197C11.298 64.7902 11.4223 64.8554 11.4486 64.9635C12.01 67.2787 10.7937 72.2949 10.4186 73.7389C10.3911 73.8448 10.4666 73.9494 10.5863 73.9713C11.2655 74.0954 12.5361 74.3219 12.9234 74.3523C18.2398 74.7704 21.9983 73.6883 23.2332 73.3327C23.2982 73.314 23.3531 73.2982 23.3998 73.285C23.528 73.2488 23.6615 73.3241 23.6803 73.4425C23.6951 73.5359 23.6322 73.6254 23.5312 73.654C23.4811 73.6681 23.4247 73.6843 23.3671 73.7009C22.3096 74.0054 19.4315 74.834 15.3213 74.834Z" fill="#97BFFF"/>
<path d="M6.52918 76.8181C6.42045 76.7655 6.38399 76.6433 6.44659 76.5483C6.96554 75.7603 7.66811 75.0785 8.48936 74.568C8.93783 74.2892 9.42417 74.058 9.93785 73.8794C10.0532 73.8393 10.1832 73.8904 10.2246 73.9943C10.2635 74.0919 10.2096 74.2005 10.1012 74.2381C9.61776 74.4059 9.16019 74.6231 8.73846 74.8853C7.96715 75.3648 7.30694 76.0061 6.81935 76.7478C6.76052 76.8373 6.63149 76.8677 6.52918 76.8181Z" fill="#97BFFF"/>
<path d="M53.1607 29.1227H41.9055L36.2778 39.8653V18.3801C36.2778 12.4468 40.6873 7.63745 46.1261 7.63745H53.1607C58.6 7.63745 63.009 12.4474 63.009 18.3801C63.0095 24.3134 58.6 29.1227 53.1607 29.1227Z" fill="#A1DEF6"/>
<path d="M44.5431 21.4337C45.3121 21.4337 45.9354 20.7537 45.9354 19.9149C45.9354 19.0762 45.3121 18.3962 44.5431 18.3962C43.7742 18.3962 43.1509 19.0762 43.1509 19.9149C43.1509 20.7537 43.7742 21.4337 44.5431 21.4337Z" fill="#FFF8ED"/>
<path d="M49.9841 21.4337C50.753 21.4337 51.3763 20.7537 51.3763 19.9149C51.3763 19.0762 50.753 18.3962 49.9841 18.3962C49.2151 18.3962 48.5918 19.0762 48.5918 19.9149C48.5918 20.7537 49.2151 21.4337 49.9841 21.4337Z" fill="#FFF8ED"/>
<path d="M55.4621 21.4337C56.231 21.4337 56.8544 20.7537 56.8544 19.9149C56.8544 19.0762 56.231 18.3962 55.4621 18.3962C54.6932 18.3962 54.0698 19.0762 54.0698 19.9149C54.0698 20.7537 54.6932 21.4337 55.4621 21.4337Z" fill="#FFF8ED"/>
<path d="M93.6648 158.375C93.5585 158.665 93.5317 158.978 93.5873 159.281C93.6429 159.584 93.7788 159.867 93.9809 160.1C95.5218 161.174 97.4201 161.607 99.2744 161.307C101.901 160.968 103.326 160.157 104.378 159.272C105.43 158.387 106.901 157.151 108.091 156.887C109.04 156.708 109.943 156.34 110.747 155.806C111.097 155.461 111.051 153.944 111.051 153.944L93.6648 158.375Z" fill="#455A64"/>
<path d="M109.999 148.082C110.097 148.084 110.19 148.121 110.263 148.185C110.337 148.249 110.386 148.336 110.402 148.432C110.482 148.852 110.568 150.07 110.741 150.731C111.012 151.939 111.099 153.181 110.999 154.415C110.856 155.191 109.057 155.732 107.907 156.174C106.552 156.762 105.296 157.555 104.183 158.525C102.569 159.728 100.644 160.445 98.6364 160.588C96.6133 160.588 94.3315 159.922 93.8085 158.979C93.159 157.829 93.6648 157.145 96.6823 155.755C97.257 155.49 99.2514 154.306 99.9296 153.881C101.769 152.731 103.597 151.105 104.441 149.053C104.51 148.801 104.662 148.58 104.873 148.426C105.054 148.351 105.255 148.333 105.447 148.375C105.948 148.445 106.435 148.592 106.89 148.811C107.298 149.001 107.867 149.225 107.861 149.743C107.848 149.922 107.81 150.098 107.746 150.266C107.712 150.369 107.683 150.513 107.775 150.576C107.867 150.639 107.976 150.576 108.057 150.496C108.35 150.191 108.62 149.867 108.867 149.524C109.003 149.344 109.162 149.182 109.338 149.041C109.518 148.942 109.691 148.83 109.856 148.708C110.04 148.547 109.994 148.323 109.999 148.082Z" fill="#9FC7F0"/>
<path opacity="0.9" d="M109.999 148.082C110.097 148.084 110.19 148.121 110.263 148.185C110.337 148.249 110.386 148.336 110.402 148.432C110.482 148.852 110.568 150.07 110.741 150.731C111.012 151.939 111.099 153.181 110.999 154.415C110.856 155.191 109.057 155.732 107.907 156.174C106.552 156.762 105.296 157.555 104.183 158.525C102.569 159.728 100.644 160.445 98.6364 160.588C96.6133 160.588 94.3315 159.922 93.8085 158.979C93.159 157.829 93.6648 157.145 96.6823 155.755C97.257 155.49 99.2514 154.306 99.9296 153.881C101.769 152.731 103.597 151.105 104.441 149.053C104.51 148.801 104.662 148.58 104.873 148.426C105.054 148.351 105.255 148.333 105.447 148.375C105.948 148.445 106.435 148.592 106.89 148.811C107.298 149.001 107.867 149.225 107.861 149.743C107.848 149.922 107.81 150.098 107.746 150.266C107.712 150.369 107.683 150.513 107.775 150.576C107.867 150.639 107.976 150.576 108.057 150.496C108.35 150.191 108.62 149.867 108.867 149.524C109.003 149.344 109.162 149.182 109.338 149.041C109.518 148.942 109.691 148.83 109.856 148.708C110.04 148.547 109.994 148.323 109.999 148.082Z" fill="white"/>
<path d="M104.183 158.548C104.706 158.117 105.263 157.697 105.821 157.324C105.821 157.324 102.286 159.468 100.861 158.473C100.597 158.304 100.405 158.043 100.32 157.741C100.235 157.44 100.264 157.117 100.401 156.835C100.401 156.594 98.1536 155.548 97.257 155.444C97.0098 155.582 96.8029 155.691 96.6822 155.755C93.6762 157.146 93.1705 157.818 93.8084 158.979C94.3315 159.922 95.981 160.652 98.6019 160.652C100.315 160.675 102.947 159.565 104.183 158.548Z" fill="#9FC7F0"/>
<path opacity="0.8" d="M104.183 158.548C104.706 158.117 105.263 157.697 105.821 157.324C105.821 157.324 102.286 159.468 100.861 158.473C100.597 158.304 100.405 158.043 100.32 157.741C100.235 157.44 100.264 157.117 100.401 156.835C100.401 156.594 98.1536 155.548 97.257 155.444C97.0098 155.582 96.8029 155.691 96.6822 155.755C93.6762 157.146 93.1705 157.818 93.8084 158.979C94.3315 159.922 95.981 160.652 98.6019 160.652C100.315 160.675 102.947 159.565 104.183 158.548Z" fill="white"/>
<path d="M100.648 156.151C98.78 156.898 99.5731 157.243 100.073 157.301C100.573 157.358 103.74 155.542 105.66 154.025C107.58 152.507 108.919 150.714 109.683 150.128C109.977 149.899 110.259 149.655 110.528 149.398C110.476 148.99 110.436 148.616 110.402 148.415C110.386 148.319 110.337 148.231 110.263 148.167C110.19 148.103 110.097 148.067 109.999 148.064C109.999 148.306 110.039 148.53 109.856 148.714C109.691 148.836 109.518 148.947 109.338 149.047C109.161 149.188 109.003 149.35 108.867 149.53C108.62 149.873 108.35 150.197 108.057 150.501C106.424 152.588 102.516 155.404 100.648 156.151Z" fill="#9FC7F0"/>
<path d="M100.228 157.065C100.272 157.065 100.315 157.049 100.349 157.019C100.383 156.985 100.402 156.938 100.402 156.89C100.402 156.841 100.383 156.795 100.349 156.761C99.9076 156.305 99.3744 155.949 98.7846 155.716C98.1948 155.483 97.5621 155.379 96.9288 155.41C96.8795 155.416 96.8344 155.441 96.8032 155.479C96.772 155.518 96.7573 155.567 96.7621 155.617C96.7642 155.641 96.7713 155.665 96.783 155.687C96.7948 155.708 96.8109 155.727 96.8303 155.743C96.8498 155.758 96.8721 155.769 96.896 155.775C96.9199 155.781 96.9448 155.782 96.9691 155.778C97.541 155.754 98.1115 155.85 98.644 156.06C99.1766 156.27 99.6593 156.589 100.061 156.996C100.081 157.021 100.107 157.04 100.136 157.052C100.165 157.064 100.197 157.068 100.228 157.065Z" fill="#FAFAFA"/>
<path d="M101.861 156.042C101.903 156.042 101.943 156.028 101.976 156.002C101.995 155.987 102.01 155.968 102.022 155.947C102.034 155.926 102.041 155.902 102.044 155.878C102.046 155.854 102.044 155.83 102.038 155.807C102.031 155.784 102.02 155.762 102.004 155.743C101.561 155.283 101.023 154.924 100.428 154.691C99.8325 154.458 99.1941 154.356 98.5559 154.392C98.5081 154.398 98.4645 154.422 98.4344 154.46C98.4043 154.498 98.3901 154.546 98.395 154.594C98.3971 154.618 98.4041 154.641 98.4154 154.663C98.4267 154.684 98.4421 154.703 98.4608 154.719C98.4795 154.734 98.5011 154.746 98.5244 154.753C98.5476 154.76 98.572 154.763 98.5962 154.76C99.1685 154.736 99.7397 154.831 100.273 155.04C100.807 155.248 101.291 155.566 101.694 155.973C101.713 155.999 101.738 156.019 101.768 156.031C101.797 156.043 101.829 156.047 101.861 156.042Z" fill="#FAFAFA"/>
<path d="M103.487 155.094C103.531 155.095 103.574 155.081 103.608 155.053C103.642 155.018 103.661 154.97 103.661 154.921C103.661 154.872 103.642 154.824 103.608 154.789C103.164 154.329 102.626 153.971 102.031 153.739C101.435 153.506 100.797 153.406 100.159 153.444C100.11 153.449 100.066 153.474 100.035 153.512C100.004 153.55 99.9899 153.599 99.9952 153.648C100.001 153.697 100.025 153.741 100.063 153.772C100.102 153.803 100.151 153.817 100.199 153.812C100.771 153.787 101.341 153.883 101.874 154.091C102.406 154.3 102.889 154.618 103.291 155.025C103.314 155.054 103.344 155.076 103.379 155.088C103.414 155.1 103.451 155.102 103.487 155.094Z" fill="#FAFAFA"/>
<path d="M104.999 154.007C105.04 154.008 105.081 153.994 105.114 153.967C105.132 153.952 105.148 153.933 105.16 153.912C105.171 153.891 105.179 153.868 105.181 153.844C105.184 153.82 105.182 153.795 105.175 153.772C105.169 153.749 105.157 153.727 105.142 153.709C104.698 153.249 104.161 152.89 103.565 152.657C102.97 152.424 102.332 152.322 101.694 152.358C101.645 152.363 101.6 152.388 101.57 152.426C101.539 152.464 101.525 152.513 101.53 152.562C101.535 152.611 101.56 152.655 101.598 152.686C101.636 152.717 101.685 152.731 101.734 152.726C102.305 152.701 102.876 152.796 103.408 153.005C103.941 153.214 104.424 153.532 104.826 153.938C104.847 153.964 104.873 153.983 104.903 153.995C104.934 154.008 104.966 154.012 104.999 154.007Z" fill="#FAFAFA"/>
<path d="M106.476 152.921C106.518 152.923 106.559 152.908 106.591 152.881C106.611 152.866 106.627 152.848 106.639 152.827C106.651 152.806 106.659 152.783 106.662 152.759C106.665 152.735 106.664 152.71 106.658 152.687C106.651 152.663 106.64 152.641 106.626 152.622C106.148 152.126 105.563 151.744 104.916 151.507C104.268 151.27 103.575 151.184 102.89 151.254C102.84 151.26 102.795 151.285 102.764 151.324C102.733 151.362 102.718 151.412 102.723 151.461C102.729 151.509 102.753 151.553 102.791 151.583C102.828 151.613 102.876 151.627 102.924 151.622C103.548 151.561 104.178 151.639 104.767 151.852C105.357 152.065 105.892 152.406 106.333 152.852C106.35 152.873 106.372 152.891 106.397 152.902C106.422 152.914 106.449 152.921 106.476 152.921Z" fill="#FAFAFA"/>
<path d="M122.075 163.008C121.93 164.404 122.139 165.813 122.684 167.106C122.95 167.624 123.381 168.04 123.908 168.287C124.435 168.535 125.03 168.601 125.598 168.474C126.834 168.29 128.472 167.629 128.961 166.129C129.409 164.769 129.554 163.327 129.386 161.905L122.075 163.008Z" fill="#455A64"/>
<path d="M128.162 150.628C128.65 150.72 128.558 153.117 128.604 155.536C128.656 158.123 129.311 159.261 129.374 161.387C129.449 163.813 129.214 164.87 128.225 166.238C127.236 167.606 124.127 168.727 122.868 166.503C121.845 164.692 121.983 162.807 122.334 160.427C122.696 157.962 122.966 156.232 123.058 154.341C123.138 152.536 123.19 150.789 123.633 150.628C123.633 150.898 123.633 151.237 123.633 151.496C123.633 151.754 123.592 152.674 123.868 152.714C123.916 152.491 123.941 152.264 123.943 152.036C123.936 151.932 123.95 151.828 123.983 151.729C124.017 151.63 124.069 151.539 124.138 151.461C124.303 151.334 124.506 151.267 124.713 151.272C125.211 151.216 125.712 151.189 126.213 151.191C126.461 151.19 126.709 151.204 126.955 151.231C127.169 151.248 127.379 151.301 127.575 151.386C127.634 151.411 127.686 151.448 127.728 151.495C127.771 151.541 127.803 151.597 127.823 151.657C127.84 151.748 127.84 151.841 127.823 151.933C127.803 152.099 127.803 152.266 127.823 152.433C127.823 152.502 127.874 152.593 127.949 152.588C127.977 152.577 128.002 152.559 128.019 152.534C128.037 152.509 128.046 152.48 128.047 152.45C128.076 152.157 128.047 151.944 128.081 151.605C128.081 151.45 128.081 151.237 128.081 151.082C128.081 150.927 128.156 150.783 128.162 150.628Z" fill="#9FC7F0"/>
<path opacity="0.9" d="M128.162 150.628C128.65 150.72 128.558 153.117 128.604 155.536C128.656 158.123 129.311 159.261 129.374 161.387C129.449 163.813 129.214 164.87 128.225 166.238C127.236 167.606 124.127 168.727 122.868 166.503C121.845 164.692 121.983 162.807 122.334 160.427C122.696 157.962 122.966 156.232 123.058 154.341C123.138 152.536 123.19 150.789 123.633 150.628C123.633 150.898 123.633 151.237 123.633 151.496C123.633 151.754 123.592 152.674 123.868 152.714C123.916 152.491 123.941 152.264 123.943 152.036C123.936 151.932 123.95 151.828 123.983 151.729C124.017 151.63 124.069 151.539 124.138 151.461C124.303 151.334 124.506 151.267 124.713 151.272C125.211 151.216 125.712 151.189 126.213 151.191C126.461 151.19 126.709 151.204 126.955 151.231C127.169 151.248 127.379 151.301 127.575 151.386C127.634 151.411 127.686 151.448 127.728 151.495C127.771 151.541 127.803 151.597 127.823 151.657C127.84 151.748 127.84 151.841 127.823 151.933C127.803 152.099 127.803 152.266 127.823 152.433C127.823 152.502 127.874 152.593 127.949 152.588C127.977 152.577 128.002 152.559 128.019 152.534C128.037 152.509 128.046 152.48 128.047 152.45C128.076 152.157 128.047 151.944 128.081 151.605C128.081 151.45 128.081 151.237 128.081 151.082C128.081 150.927 128.156 150.783 128.162 150.628Z" fill="white"/>
<path d="M129.328 160.692C129.328 161.042 129.409 163.359 128.753 163.709C128.098 164.06 127.845 162.255 127.845 162.255C127.845 162.255 126.311 161.611 123.902 162.387C123.983 162.767 123.506 163.956 122.902 163.634C122.299 163.313 122.328 160.663 122.328 160.628C122 162.927 121.897 164.744 122.902 166.502C124.161 168.727 127.276 167.6 128.259 166.238C129.242 164.876 129.483 163.813 129.409 161.387C129.368 161.14 129.351 160.91 129.328 160.692Z" fill="#9FC7F0"/>
<path opacity="0.8" d="M129.328 160.692C129.328 161.042 129.409 163.359 128.753 163.709C128.098 164.06 127.845 162.255 127.845 162.255C127.845 162.255 126.311 161.611 123.902 162.387C123.983 162.767 123.506 163.956 122.902 163.634C122.299 163.313 122.328 160.663 122.328 160.628C122 162.927 121.897 164.744 122.902 166.502C124.161 168.727 127.276 167.6 128.259 166.238C129.242 164.876 129.483 163.813 129.409 161.387C129.368 161.14 129.351 160.91 129.328 160.692Z" fill="white"/>
<path d="M127.638 162.387C127.558 163.255 128.443 163.048 128.604 161.813C128.765 160.577 128.386 157.623 128.604 155.49C128.558 153.07 128.65 150.674 128.161 150.582C128.161 150.611 128.161 150.645 128.161 150.674L128.104 151.892C128.104 152.07 128.104 152.226 128.104 152.415C127.937 154.18 127.84 157.623 127.834 159.255C127.824 160.302 127.759 161.347 127.638 162.387Z" fill="#9FC7F0"/>
<path d="M124.161 162.387C124.052 161.362 123.996 160.332 123.995 159.301C123.995 157.68 123.891 154.283 123.73 152.502C123.668 152.17 123.643 151.833 123.656 151.496C123.656 151.254 123.656 150.921 123.656 150.685C123.656 150.685 123.656 150.651 123.656 150.634C123.328 150.748 123.213 151.708 123.144 152.933C123.144 153.634 123.144 154.502 123.213 155.559C123.431 157.663 123.046 160.652 123.213 161.882C123.38 163.112 124.242 163.255 124.161 162.387Z" fill="#9FC7F0"/>
<path d="M123.839 162.45H123.908C125.157 162.014 126.516 162.014 127.765 162.45C127.811 162.467 127.863 162.465 127.908 162.445C127.953 162.425 127.988 162.387 128.006 162.341C128.015 162.319 128.02 162.295 128.019 162.27C128.018 162.246 128.013 162.222 128.002 162.2C127.992 162.178 127.978 162.158 127.959 162.142C127.941 162.126 127.92 162.113 127.897 162.106C126.562 161.63 125.105 161.63 123.77 162.106C123.747 162.114 123.727 162.128 123.709 162.145C123.691 162.162 123.677 162.182 123.668 162.205C123.658 162.227 123.653 162.251 123.653 162.276C123.653 162.3 123.657 162.324 123.667 162.347C123.683 162.379 123.708 162.405 123.738 162.423C123.769 162.442 123.804 162.451 123.839 162.45Z" fill="#FAFAFA"/>
<path d="M123.615 160.514H123.672C125.082 160.074 126.591 160.074 128 160.514C128.046 160.527 128.095 160.522 128.138 160.501C128.18 160.48 128.213 160.443 128.23 160.399C128.238 160.376 128.242 160.351 128.24 160.327C128.239 160.302 128.233 160.279 128.222 160.257C128.211 160.235 128.196 160.215 128.178 160.199C128.16 160.183 128.138 160.171 128.115 160.163C126.63 159.694 125.037 159.694 123.552 160.163C123.529 160.171 123.507 160.183 123.489 160.199C123.471 160.215 123.456 160.235 123.445 160.257C123.434 160.279 123.428 160.302 123.427 160.327C123.425 160.351 123.429 160.376 123.437 160.399C123.452 160.433 123.477 160.463 123.508 160.483C123.54 160.504 123.577 160.514 123.615 160.514Z" fill="#FAFAFA"/>
<path d="M128.058 158.709C128.093 158.709 128.128 158.699 128.158 158.68C128.188 158.66 128.211 158.632 128.225 158.6C128.244 158.555 128.246 158.504 128.229 158.458C128.211 158.411 128.177 158.374 128.133 158.353C126.669 157.782 125.046 157.771 123.575 158.324C123.552 158.333 123.532 158.347 123.515 158.364C123.498 158.381 123.485 158.402 123.476 158.424C123.467 158.447 123.462 158.471 123.462 158.495C123.463 158.519 123.468 158.543 123.477 158.565C123.485 158.588 123.498 158.608 123.515 158.626C123.531 158.644 123.551 158.658 123.573 158.667C123.595 158.677 123.619 158.682 123.643 158.682C123.667 158.683 123.691 158.678 123.713 158.669C123.713 158.669 125.983 157.778 127.977 158.669C128.001 158.688 128.028 158.702 128.058 158.709Z" fill="#FAFAFA"/>
<path d="M128.11 157.008C128.145 157.008 128.179 156.999 128.209 156.981C128.238 156.962 128.262 156.936 128.277 156.904C128.287 156.882 128.294 156.858 128.295 156.834C128.297 156.81 128.293 156.785 128.285 156.763C128.277 156.74 128.265 156.718 128.248 156.7C128.232 156.682 128.212 156.667 128.19 156.657C127.463 156.326 126.673 156.15 125.874 156.141C125.074 156.132 124.281 156.29 123.546 156.605C123.502 156.626 123.468 156.664 123.45 156.71C123.433 156.756 123.435 156.807 123.454 156.852C123.465 156.874 123.48 156.894 123.498 156.91C123.516 156.927 123.537 156.939 123.56 156.947C123.583 156.955 123.607 156.959 123.632 156.957C123.656 156.956 123.68 156.949 123.702 156.939C124.389 156.654 125.127 156.511 125.871 156.52C126.615 156.529 127.349 156.689 128.029 156.99L128.11 157.008Z" fill="#FAFAFA"/>
<path d="M128.139 155.099C128.173 155.1 128.206 155.091 128.236 155.074C128.265 155.057 128.289 155.032 128.305 155.002C128.327 154.957 128.33 154.905 128.314 154.857C128.298 154.81 128.264 154.771 128.219 154.749C126.018 153.662 123.621 154.703 123.535 154.749C123.491 154.769 123.457 154.805 123.439 154.851C123.422 154.896 123.423 154.946 123.443 154.99C123.452 155.013 123.466 155.034 123.484 155.051C123.501 155.069 123.522 155.083 123.546 155.092C123.569 155.101 123.593 155.105 123.618 155.105C123.643 155.104 123.667 155.098 123.69 155.088C123.69 155.088 125.989 154.07 128.058 155.088C128.084 155.098 128.111 155.101 128.139 155.099Z" fill="#EBEBEB"/>
<path d="M125.115 76.8462C126.473 79.9732 127.355 83.2861 127.73 86.6745C128.684 98.9973 128.167 116.688 128.167 116.688C128.276 117.976 129.092 120.901 129.644 126.568C130.294 133.264 129.478 155.962 129.478 155.962C129.478 155.962 125.454 158.353 122.356 155.634C122.356 155.634 118.73 124.436 117.89 117.775C117.16 111.964 115.109 99.3824 115.109 99.3824L112.712 117.982C112.712 117.982 112.93 123.206 112.775 126.603C112.597 130.534 111.499 150.565 111.499 150.565C111.499 150.565 105.993 152.427 103.533 149.783C103.533 149.783 102.958 121.999 102.866 117.269C102.705 107.992 102.866 91.0829 104.372 81.3523L125.115 76.8462Z" fill="#9FC7F0"/>
<path opacity="0.2" d="M125.115 76.8462C126.473 79.9732 127.355 83.2861 127.73 86.6745C128.684 98.9973 128.167 116.688 128.167 116.688C128.276 117.976 129.092 120.901 129.644 126.568C130.294 133.264 129.478 155.962 129.478 155.962C129.478 155.962 125.454 158.353 122.356 155.634C122.356 155.634 118.73 124.436 117.89 117.775C117.16 111.964 115.109 99.3824 115.109 99.3824L112.712 117.982C112.712 117.982 112.93 123.206 112.775 126.603C112.597 130.534 111.499 150.565 111.499 150.565C111.499 150.565 105.993 152.427 103.533 149.783C103.533 149.783 102.958 121.999 102.866 117.269C102.705 107.992 102.866 91.0829 104.372 81.3523L125.115 76.8462Z" fill="black"/>
<path opacity="0.2" d="M115.109 99.3939L114.448 94.8418C114.448 94.8418 110.138 94.905 107.879 92.7784C107.879 92.7784 108.758 95.6177 113.138 95.9683L113.759 99.7503L113 115.757L115.109 99.3939Z" fill="black"/>
<path d="M109.77 53.0339C107.85 52.9476 105.258 53.212 103.844 54.8903C102.16 56.8905 101.7 58.1837 100.16 64.0864C99.1425 67.9948 97.4643 76.6736 98.9241 78.076C100.384 79.4785 104.039 78.9612 104.039 78.9612L109.77 53.0339Z" fill="#F28F8F"/>
<path d="M110.741 52.9076C108.637 52.5685 104.861 52.5397 102.976 55.5342C101.091 58.5287 97.6133 69.0468 97.6133 69.0468C99.6444 70.1777 101.993 70.6022 104.292 70.2537C108.16 69.702 110.741 52.9076 110.741 52.9076Z" fill="#9FC7F0"/>
<path opacity="0.1" d="M110.741 52.9076C108.637 52.5685 104.861 52.5397 102.976 55.5342C101.091 58.5287 97.6133 69.0468 97.6133 69.0468C99.6444 70.1777 101.993 70.6022 104.292 70.2537C108.16 69.702 110.741 52.9076 110.741 52.9076Z" fill="black"/>
<path d="M119.034 52.6948C121.241 52.9075 126.253 53.465 127.995 53.8099C129.512 54.4306 129.144 55.4766 129.144 57.3044C129.294 63.5865 126.799 76.7024 126.799 76.7024L128.558 88.9907C125.529 92.014 109.482 93.7038 102.171 88.8643C102.171 88.8643 103.412 70.9261 104.809 61.9829C105.803 55.5801 108.108 53.0052 110.447 52.9075L119.034 52.6948Z" fill="#9FC7F0"/>
<path opacity="0.2" d="M117.017 65.0177L123.202 65.2648V66.4546L116.931 66.1902L117.017 65.0177Z" fill="black"/>
<path d="M119.011 65.0982L119.155 63.351H123.201L123.029 65.2592L119.011 65.0982Z" fill="#FAFAFA"/>
<path d="M117.292 65.0292C117.39 63.0118 117.609 62.0117 117.77 61.8852C117.837 61.8296 117.921 61.7992 118.008 61.7992C118.095 61.7992 118.18 61.8296 118.247 61.8852C118.396 62.0807 118.511 63.121 118.499 65.0752L117.292 65.0292Z" fill="#455A64"/>
<path d="M117.764 64.8511C117.764 65.6212 117.706 67.0926 117.977 67.1156C118.247 67.1386 118.224 65.6902 118.229 64.8511H117.764Z" fill="#455A64"/>
<path opacity="0.1" d="M122.483 53.0627C121.15 52.9075 119.885 52.7753 119.035 52.6948L113.08 52.8443C112.276 54.6088 111.413 57.1607 112.965 60.3563C115.346 59.5807 117.546 58.3314 119.431 56.6836C121.403 54.8904 122.213 53.8041 122.483 53.0627Z" fill="black"/>
<path d="M121.948 33.9807C121.948 33.9807 123.673 34.1704 124.316 35.4406C124.891 36.5384 124.765 39.2397 124.121 42.194C123.763 44.1052 123.2 45.9724 122.443 47.7634C122.17 48.271 121.713 48.6554 121.167 48.8382V45.3552L121.224 42.9239C121.224 42.9239 119.609 40.8376 119.391 39.0961C119.109 36.8602 119.557 35.9291 119.557 35.9291L121.948 33.9807Z" fill="#455A64"/>
<path d="M119.764 37.9869C119.8 39.2742 119.454 40.5433 118.768 41.6334C118.082 42.7235 117.088 43.5855 115.912 44.1103C114.736 44.6352 113.431 44.7992 112.161 44.5816C110.892 44.364 109.716 43.7746 108.782 42.888C107.848 42.0015 107.198 40.8576 106.914 39.6014C106.631 38.3451 106.726 37.033 107.189 35.8312C107.652 34.6293 108.461 33.5918 109.513 32.8501C110.566 32.1084 111.815 31.6958 113.103 31.6645C114.824 31.6213 116.492 32.2627 117.741 33.448C118.99 34.6333 119.718 36.2657 119.764 37.9869Z" fill="#455A64"/>
<path d="M121.282 42.4814C121.673 42.7113 122.224 41.9584 122.702 41.4526C123.179 40.9468 124.742 40.2399 125.541 41.8837C126.34 43.5275 124.88 45.7978 123.65 46.2001C121.523 46.884 121.19 45.5219 121.19 45.5219L121.104 53.4478C119.638 55.356 116.586 57.8677 113.632 58.8045C113.288 57.8683 113.155 56.8677 113.242 55.8742C113.33 54.8807 113.636 53.9187 114.138 53.0569V50.7177C113.189 50.8779 112.225 50.9358 111.264 50.8901C109.695 50.6602 108.695 49.4302 108.206 47.7404C107.419 45.0218 107.108 42.8205 107.712 37.458C108.367 31.5725 115.184 31.4518 118.914 33.7451C119.696 34.2279 119.155 35.1647 119.546 35.9177C119.27 37.0699 119.284 38.2728 119.587 39.4183C119.89 40.5639 120.472 41.6163 121.282 42.4814Z" fill="#F28F8F"/>
<path d="M114.144 50.735C114.144 50.735 117.638 49.9993 118.857 49.3383C119.572 48.9564 120.155 48.3675 120.529 47.6486C120.351 48.3662 120.031 49.0406 119.587 49.6315C118.701 50.781 114.149 51.6661 114.149 51.6661L114.144 50.735Z" fill="#B16668"/>
<path d="M114.891 41.6653C114.899 41.8022 114.946 41.9338 115.028 42.0439C115.11 42.1539 115.223 42.2374 115.352 42.2842C115.481 42.331 115.62 42.3389 115.754 42.307C115.887 42.2751 116.008 42.2048 116.102 42.1047C116.196 42.0047 116.258 41.8793 116.282 41.7442C116.305 41.609 116.288 41.4699 116.233 41.3443C116.178 41.2186 116.088 41.1117 115.973 41.037C115.858 40.9623 115.723 40.9229 115.586 40.9238C115.397 40.9328 115.218 41.0152 115.088 41.1536C114.958 41.292 114.888 41.4755 114.891 41.6653Z" fill="black"/>
<path d="M115.626 39.0098L117.132 39.8145C117.237 39.607 117.259 39.3668 117.191 39.144C117.124 38.9212 116.973 38.7331 116.77 38.619C116.67 38.5666 116.56 38.5351 116.447 38.5265C116.334 38.5179 116.221 38.5323 116.114 38.5688C116.007 38.6054 115.909 38.6633 115.825 38.7392C115.741 38.815 115.673 38.9071 115.626 39.0098Z" fill="black"/>
<path d="M114.96 45.9357L112.661 46.8323C112.713 46.9885 112.796 47.1326 112.905 47.2559C113.014 47.3793 113.147 47.4793 113.295 47.5502C113.444 47.621 113.605 47.6611 113.77 47.6681C113.934 47.6751 114.099 47.6489 114.253 47.591C114.56 47.4575 114.804 47.2117 114.935 46.9039C115.067 46.5961 115.076 46.2497 114.96 45.9357Z" fill="#B16668"/>
<path d="M108.631 39.6536L109.988 38.5903C109.923 38.4983 109.84 38.4206 109.744 38.3617C109.648 38.3029 109.541 38.2642 109.43 38.2481C109.319 38.2319 109.205 38.2387 109.097 38.2679C108.988 38.2971 108.886 38.3481 108.798 38.4179C108.618 38.5637 108.5 38.7729 108.469 39.0026C108.438 39.2324 108.496 39.4653 108.631 39.6536Z" fill="black"/>
<path d="M109.068 41.5388C109.075 41.6761 109.122 41.8083 109.203 41.9191C109.285 42.0299 109.397 42.1144 109.526 42.162C109.654 42.2097 109.794 42.2184 109.928 42.1871C110.062 42.1558 110.184 42.0859 110.278 41.986C110.373 41.8861 110.436 41.7607 110.459 41.6254C110.483 41.49 110.466 41.3507 110.412 41.2246C110.357 41.0986 110.266 40.9915 110.151 40.9165C110.036 40.8416 109.901 40.8022 109.764 40.8031C109.67 40.8053 109.577 40.8262 109.491 40.8644C109.405 40.9027 109.327 40.9576 109.263 41.026C109.198 41.0944 109.148 41.175 109.114 41.263C109.081 41.351 109.065 41.4447 109.068 41.5388Z" fill="black"/>
<path d="M112.637 40.8203L112.442 45.039L110.235 44.3091L112.637 40.8203Z" fill="#B16668"/>
<path d="M106.764 31.1932C106.781 31.144 106.811 31.1006 106.852 31.068C106.893 31.0355 106.942 31.0151 106.993 31.0093C107.074 31.0121 107.151 31.0425 107.212 31.0955C107.669 31.4442 108.155 31.7519 108.666 32.0151C108.513 31.379 108.486 30.719 108.586 30.0724C108.649 29.6758 108.735 28.762 109.218 28.6528C109.505 28.5838 109.793 28.8194 109.988 29.0149C111.994 30.7966 114.523 29.877 116.885 29.8885C118.856 29.8885 121.253 30.6357 122.196 32.5266C122.627 33.3945 122.725 34.3141 121.937 34.9406C121.23 35.444 120.415 35.7747 119.558 35.9062C115.655 36.6936 110.408 38.2052 107.407 34.6015C106.959 34.1002 106.668 33.4789 106.568 32.814C106.478 32.2742 106.544 31.7199 106.758 31.2162C106.758 31.2162 106.758 31.2219 106.764 31.1932Z" fill="#37474F"/>
<path d="M107.418 34.6418C106.971 34.1405 106.679 33.5192 106.579 32.8543C106.489 32.3145 106.555 31.7602 106.769 31.2565C106.355 32.36 106.585 34.1303 109.114 35.1476C111.643 36.1649 114.804 35.5327 116.523 35.343C117.573 35.2298 118.632 35.4298 119.569 35.9178C115.649 36.7167 110.401 38.2053 107.418 34.6418Z" fill="#263238"/>
<path d="M125.943 73.0586L125.069 64.851C124.133 58.2873 126.282 54.2927 127.185 53.6663C129.748 54.1146 131.3 54.2065 132.766 59.8219C133.306 61.9025 133.34 64.42 133.645 68.3456C133.886 71.4435 133.892 74.6277 133.835 78.2544C133.8 80.8638 132.685 81.3638 129.42 81.5305C126.719 81.6684 118.224 80.6626 113.477 79.7602C111.557 79.3981 108.741 78.651 107.252 78.2486C106.166 77.9555 102.022 77.0646 102.2 75.4323C102.239 75.2045 102.331 74.9891 102.469 74.8034C102.607 74.6177 102.786 74.467 102.993 74.3633C103.406 74.1612 103.852 74.0347 104.309 73.9897C106.316 73.7023 108.354 73.7023 110.361 73.9897C111.867 74.1966 113.31 74.4667 114.827 74.5644C116.345 74.6621 119.425 72.7769 120.862 72.8402C123.604 72.9436 125.943 73.0586 125.943 73.0586Z" fill="#F28F8F"/>
<path d="M126.523 53.5685C128.782 53.4995 130.339 54.034 131.305 55.5801C132.271 57.1262 133.029 58.4539 133.644 62.8623C134.501 69.0582 134.61 71.9894 134.61 71.9894C134.61 71.9894 129.702 73.9953 125.581 71.9894L124.661 63.7302C124.661 63.7302 123.988 57.2182 126.523 53.5685Z" fill="#9FC7F0"/>
<path opacity="0.1" d="M126.523 53.5685C128.782 53.4995 130.339 54.034 131.305 55.5801C132.271 57.1262 133.029 58.4539 133.644 62.8623C134.501 69.0582 134.61 71.9894 134.61 71.9894C134.61 71.9894 129.702 73.9953 125.581 71.9894L124.661 63.7302C124.661 63.7302 123.988 57.2182 126.523 53.5685Z" fill="black"/>
<path d="M130.03 76.3807C130.03 76.3807 129.828 74.0816 125.943 73.0586C125.943 73.0586 123.604 72.9436 120.862 72.8344C119.402 72.7769 116.264 74.6794 114.827 74.5587C113.39 74.438 111.867 74.1678 110.361 73.9839C108.354 73.6966 106.316 73.6966 104.309 73.9839C103.852 74.0289 103.406 74.1554 102.993 74.3575C102.786 74.4612 102.607 74.612 102.469 74.7976C102.331 74.9833 102.239 75.1987 102.2 75.4266C102.022 77.0589 106.166 77.9497 107.252 78.2429C108.034 78.4555 109.195 78.7602 110.39 79.059C114.753 77.5474 124.265 73.5241 125.943 73.8345C127.846 74.1966 129.466 75.1852 130.03 76.3807Z" fill="#B16668"/>
<path d="M124.202 73.2596C120.621 73.9091 108.539 78.829 102.97 79.0417C101.246 78.5934 101.016 77.7313 100.412 75.4265C99.8089 73.1217 102.372 70.4893 104.022 70.2537C120.529 70.2537 125.863 72.5067 125.863 72.5067L125.937 73.0815C125.937 73.0815 125.236 73.1102 124.202 73.2596Z" fill="#F28F8F"/>
<path d="M125.868 72.5067L125.943 73.0585L125.219 73.1274L125.276 72.3055L125.868 72.5067Z" fill="#B16668"/>
<path d="M103.734 70.3228C101.832 70.7711 100.584 72.9494 100.584 72.9494C100.832 71.9392 101.391 71.0324 102.182 70.3572C102.7 70.3854 103.219 70.3738 103.734 70.3228Z" fill="#B16668"/>
<path d="M85.4429 19.688H96.5816L102.151 29.5321V9.84402C102.151 4.40704 97.7871 0 92.4047 0H85.4429C80.06 0 75.6968 4.40759 75.6968 9.84402C75.6968 15.2804 80.0606 19.688 85.4429 19.688Z" fill="#FFA86E"/>
<path d="M84.5442 10.3709C84.5442 9.60257 83.9271 8.97925 83.1664 8.97925C82.4057 8.97925 81.7886 9.60257 81.7886 10.3709C81.7886 11.1393 82.4057 11.7626 83.1664 11.7626C83.9271 11.7626 84.5442 11.1398 84.5442 10.3709Z" fill="#FFF8ED"/>
<path d="M89.9275 10.3709C89.9275 9.60257 89.3104 8.97925 88.5497 8.97925C87.789 8.97925 87.1719 9.60257 87.1719 10.3709C87.1719 11.1393 87.789 11.7626 88.5497 11.7626C89.311 11.7626 89.9275 11.1398 89.9275 10.3709Z" fill="#FFF8ED"/>
<path d="M95.3494 10.3709C95.3494 9.60257 94.7328 8.97925 93.9716 8.97925C93.2109 8.97925 92.5938 9.60257 92.5938 10.3709C92.5938 11.1393 93.2109 11.7626 93.9716 11.7626C94.7328 11.7626 95.3494 11.1398 95.3494 10.3709Z" fill="#FFF8ED"/>
</svg>
