<svg width="184" height="172" viewBox="0 0 184 172" fill="none" xmlns="http://www.w3.org/2000/svg">
<path d="M161.64 0.0914307H39.2598V77.1609H161.64V0.0914307Z" fill="white"/>
<path d="M151.578 48.8446H46.4512V51.4293H151.578V48.8446Z" fill="#62C7F5"/>
<path d="M151.525 45.4175H46.3989V48.0022H151.525V45.4175Z" fill="#62C7F5"/>
<path d="M151.525 41.9451H46.3989V44.5298H151.525V41.9451Z" fill="#62C7F5"/>
<path d="M151.525 38.4724H46.3989V41.0571H151.525V38.4724Z" fill="#62C7F5"/>
<path d="M151.578 52.3933H46.4512V54.978H151.578V52.3933Z" fill="#62C7F5"/>
<path d="M151.578 55.7412H46.4512V58.3259H151.578V55.7412Z" fill="#62C7F5"/>
<path d="M151.578 59.2258H46.4512V61.8105H151.578V59.2258Z" fill="#62C7F5"/>
<path d="M151.578 62.5374H46.4512V65.122H151.578V62.5374Z" fill="#62C7F5"/>
<path d="M151.578 65.7212H46.4512V68.3059H151.578V65.7212Z" fill="#62C7F5"/>
<path d="M151.578 69.3397H46.4512V71.9244H151.578V69.3397Z" fill="#62C7F5"/>
<path d="M161.763 0.0151367H39.2598V5.75011H161.763V0.0151367Z" fill="white"/>
<path d="M47.8215 11.686H47.0767V11.4609H48.9052V11.686H48.1604V13.2672H47.8476L47.8215 11.686Z" fill="#94C8E0"/>
<path d="M48.8646 12.583C48.8616 12.4417 48.9102 12.303 49.0042 12.1844C49.0981 12.0658 49.2331 11.9727 49.3921 11.917C49.5511 11.8612 49.7267 11.8454 49.8967 11.8715C50.0668 11.8975 50.2234 11.9643 50.3468 12.0633C50.4702 12.1624 50.5547 12.2891 50.5895 12.4275C50.6244 12.5658 50.608 12.7095 50.5425 12.8402C50.477 12.9709 50.3653 13.0828 50.2217 13.1615C50.0781 13.2403 49.909 13.2823 49.736 13.2824C49.6215 13.2866 49.5071 13.2715 49.4 13.238C49.2929 13.2045 49.1955 13.1533 49.1137 13.0877C49.0319 13.022 48.9676 12.9434 48.9247 12.8565C48.8819 12.7697 48.8614 12.6766 48.8646 12.583ZM50.2984 12.583C50.294 12.4925 50.2572 12.4052 50.1926 12.3317C50.1279 12.2581 50.0383 12.2017 49.9348 12.1695C49.8312 12.1372 49.7184 12.1304 49.6102 12.15C49.502 12.1696 49.4032 12.2147 49.3261 12.2797C49.249 12.3447 49.197 12.4268 49.1765 12.5157C49.1559 12.6046 49.1679 12.6965 49.2107 12.78C49.2536 12.8634 49.3255 12.9348 49.4176 12.9851C49.5096 13.0355 49.6178 13.0627 49.7286 13.0634C49.8058 13.0657 49.8827 13.0547 49.9543 13.0312C50.026 13.0076 50.0907 12.972 50.1445 12.9267C50.1982 12.8814 50.2396 12.8274 50.2662 12.7682C50.2927 12.709 50.3037 12.6459 50.2984 12.583Z" fill="#94C8E0"/>
<path d="M51.7281 12.0628C51.7276 12.0398 51.7327 12.017 51.7431 11.9956C51.7536 11.9742 51.7691 11.9547 51.7889 11.9383C51.8087 11.9219 51.8322 11.9089 51.8582 11.9C51.8842 11.8911 51.9121 11.8865 51.9403 11.8865C51.9976 11.8865 52.0526 11.9051 52.0931 11.9381C52.1336 11.9712 52.1563 12.0161 52.1563 12.0628C52.1563 12.1096 52.1336 12.1545 52.0931 12.1876C52.0526 12.2206 51.9976 12.2392 51.9403 12.2392C51.9121 12.2392 51.8842 12.2346 51.8582 12.2257C51.8322 12.2168 51.8087 12.2038 51.7889 12.1874C51.7691 12.171 51.7536 12.1515 51.7431 12.1301C51.7327 12.1087 51.7276 12.0859 51.7281 12.0628ZM51.7281 13.1028C51.7276 13.0798 51.7327 13.0569 51.7431 13.0355C51.7536 13.0142 51.7691 12.9947 51.7889 12.9783C51.8087 12.9619 51.8322 12.9488 51.8582 12.9399C51.8842 12.931 51.9121 12.9264 51.9403 12.9264C51.9684 12.9264 51.9961 12.931 52.0219 12.94C52.0477 12.9489 52.071 12.962 52.0905 12.9784C52.11 12.9949 52.1252 13.0144 52.1352 13.0358C52.1452 13.0571 52.1499 13.0799 52.1489 13.1028C52.1499 13.1258 52.1453 13.1488 52.1353 13.1703C52.1253 13.1918 52.1101 13.2115 52.0907 13.2282C52.0713 13.2449 52.048 13.2583 52.0222 13.2676C51.9964 13.2768 51.9685 13.2818 51.9403 13.2822C51.8853 13.2822 51.8324 13.2648 51.7928 13.2336C51.7532 13.2024 51.73 13.1599 51.7281 13.115V13.1028Z" fill="#94C8E0"/>
<path d="M46.4512 22.2708L46.5666 22.0732C46.7712 22.2079 47.0263 22.2809 47.2891 22.28C47.6615 22.28 47.8291 22.1583 47.8291 22.0032C47.8291 21.5684 46.507 21.8421 46.507 21.1792C46.507 20.9055 46.7677 20.6683 47.3413 20.6683C47.5895 20.6654 47.8337 20.7202 48.0451 20.8264L47.9408 21.0332C47.7621 20.9389 47.5541 20.8883 47.3413 20.8873C46.9688 20.8873 46.8124 21.015 46.8124 21.1701C46.8124 21.6049 48.1345 21.3343 48.1345 21.988C48.1345 22.2617 47.8664 22.4959 47.2891 22.4959C46.9861 22.5034 46.6895 22.4238 46.4512 22.2708Z" fill="#94C8E0"/>
<path d="M50.1009 21.1246V22.4748H49.8178V22.271C49.7526 22.3418 49.6674 22.3986 49.5695 22.4367C49.4716 22.4748 49.3639 22.4931 49.2555 22.49C49.1588 22.4981 49.0611 22.4885 48.9695 22.4619C48.878 22.4353 48.7949 22.3922 48.7263 22.336C48.6578 22.2797 48.6055 22.2116 48.5733 22.1367C48.5412 22.0618 48.5299 21.982 48.5404 21.9031V21.1246H48.8421V21.8727C48.8421 22.1403 49.006 22.271 49.289 22.271C49.3604 22.2747 49.432 22.2654 49.4985 22.2438C49.565 22.2221 49.6247 22.1888 49.6735 22.146C49.7223 22.1033 49.7589 22.0522 49.7806 21.9965C49.8024 21.9409 49.8087 21.8819 49.7992 21.824V21.1246H50.1009Z" fill="#94C8E0"/>
<path d="M52.3723 21.7996C52.3781 21.8907 52.3605 21.9818 52.3208 22.0671C52.2811 22.1523 52.22 22.2299 52.1415 22.2949C52.0631 22.3598 51.9689 22.4107 51.865 22.4442C51.7611 22.4778 51.6497 22.4933 51.5381 22.4898C51.4241 22.4941 51.3106 22.4756 51.2074 22.4358C51.1042 22.3961 51.0144 22.3363 50.9459 22.2618V22.4746H50.6592V20.5833H50.9571V21.3252C51.0265 21.2546 51.1152 21.1982 51.2161 21.1607C51.317 21.1232 51.4273 21.1056 51.5381 21.1093C51.6499 21.1053 51.7615 21.1205 51.8656 21.154C51.9698 21.1874 52.0642 21.2382 52.1428 21.3033C52.2214 21.3683 52.2825 21.4461 52.322 21.5316C52.3615 21.6171 52.3787 21.7084 52.3723 21.7996ZM52.0706 21.7996C52.0655 21.7104 52.0285 21.6244 51.9641 21.5522C51.8997 21.4801 51.8108 21.4249 51.7084 21.3937C51.6059 21.3624 51.4945 21.3563 51.3879 21.3763C51.2813 21.3962 51.1843 21.4412 51.1087 21.5058C51.0332 21.5703 50.9825 21.6516 50.963 21.7394C50.9435 21.8273 50.9559 21.9179 50.9989 22C51.0418 22.0821 51.1133 22.1521 51.2045 22.2013C51.2958 22.2506 51.4027 22.2769 51.512 22.277C51.5882 22.2789 51.6641 22.2676 51.7347 22.244C51.8052 22.2204 51.8689 22.1849 51.9216 22.1399C51.9743 22.0949 52.0148 22.0413 52.0405 21.9827C52.0661 21.9241 52.0764 21.8617 52.0706 21.7996Z" fill="#94C8E0"/>
<path d="M52.2158 22.9033L52.3127 22.7147C52.3817 22.7586 52.4674 22.7812 52.5547 22.7786C52.7149 22.7786 52.8042 22.6965 52.8042 22.5414V21.1244H53.1022V22.5414C53.1107 22.6005 53.103 22.6604 53.0798 22.7167C53.0565 22.7731 53.0181 22.8245 52.9675 22.8673C52.9169 22.9101 52.8553 22.9431 52.7871 22.9641C52.719 22.985 52.6459 22.9933 52.5733 22.9884C52.4459 22.9933 52.3201 22.9633 52.2158 22.9033ZM52.7484 20.7048C52.7489 20.6832 52.7545 20.6619 52.7651 20.6422C52.7757 20.6224 52.7909 20.6045 52.8099 20.5895C52.8289 20.5746 52.8514 20.5628 52.876 20.5549C52.9006 20.5471 52.9268 20.5432 52.9532 20.5436C52.9919 20.5448 53.0293 20.5553 53.0608 20.5737C53.0922 20.5921 53.1164 20.6177 53.1302 20.6472C53.144 20.6767 53.1468 20.7089 53.1384 20.7398C53.13 20.7706 53.1106 20.7988 53.0827 20.8207C53.0548 20.8426 53.0197 20.8574 52.9816 20.8631C52.9435 20.8689 52.9042 20.8654 52.8686 20.853C52.833 20.8406 52.8026 20.82 52.7812 20.7936C52.7598 20.7673 52.7484 20.7364 52.7484 20.7048Z" fill="#94C8E0"/>
<path d="M55.1655 21.8818H53.8248C53.8443 21.9977 53.9172 22.1031 54.0287 22.1765C54.1401 22.25 54.2816 22.2859 54.4244 22.2771C54.5137 22.2797 54.6026 22.2663 54.685 22.238C54.7673 22.2096 54.8411 22.1669 54.9011 22.1129L55.0687 22.271C54.9857 22.3444 54.8839 22.402 54.7707 22.4398C54.6575 22.4776 54.5355 22.4948 54.4133 22.49C54.2979 22.4972 54.1819 22.4847 54.0729 22.453C53.9639 22.4214 53.8642 22.3714 53.7803 22.3064C53.6964 22.2413 53.6302 22.1626 53.5859 22.0753C53.5416 21.9881 53.5202 21.8942 53.5232 21.7997C53.5185 21.7092 53.5367 21.6189 53.5767 21.5344C53.6166 21.4499 53.6774 21.3731 53.7554 21.3086C53.8333 21.2441 53.9266 21.1935 54.0295 21.1597C54.1325 21.126 54.2428 21.1099 54.3537 21.1125C54.4651 21.1097 54.5759 21.126 54.6791 21.1604C54.7823 21.1948 54.8755 21.2465 54.9527 21.3121C55.0299 21.3777 55.0894 21.4558 55.1274 21.5414C55.1653 21.627 55.1809 21.7181 55.173 21.8088C55.1693 21.8271 55.1655 21.8575 55.1655 21.8818ZM53.8211 21.7054H54.8825C54.8713 21.5968 54.8106 21.4955 54.7123 21.4217C54.614 21.3479 54.4853 21.3069 54.3518 21.3069C54.2183 21.3069 54.0896 21.3479 53.9913 21.4217C53.893 21.4955 53.8323 21.5968 53.8211 21.7054Z" fill="#94C8E0"/>
<path d="M55.4301 21.7995C55.4273 21.7063 55.4483 21.6136 55.4917 21.5274C55.5351 21.4412 55.6001 21.3632 55.6824 21.2986C55.7647 21.234 55.8626 21.184 55.9698 21.152C56.0771 21.1199 56.1913 21.1064 56.3053 21.1123C56.4387 21.1062 56.5717 21.1295 56.6903 21.1798C56.8089 21.2301 56.9088 21.3055 56.9794 21.3982L56.7522 21.5198C56.7046 21.4579 56.6379 21.4074 56.5588 21.3732C56.4797 21.3391 56.391 21.3225 56.3016 21.3252C56.155 21.3348 56.0183 21.389 55.9186 21.4772C55.8189 21.5654 55.7635 21.681 55.7635 21.8011C55.7635 21.9211 55.8189 22.0367 55.9186 22.1249C56.0183 22.2131 56.155 22.2674 56.3016 22.277C56.391 22.2796 56.4797 22.2631 56.5588 22.2289C56.6379 22.1947 56.7046 22.1442 56.7522 22.0823L56.9794 22.2009C56.9116 22.297 56.813 22.376 56.6942 22.4296C56.5754 22.4832 56.4409 22.5093 56.3053 22.505C56.1895 22.5107 56.0736 22.4964 55.965 22.463C55.8564 22.4297 55.7577 22.3781 55.6751 22.3116C55.5926 22.245 55.5281 22.165 55.4859 22.0768C55.4437 21.9886 55.4247 21.8941 55.4301 21.7995Z" fill="#94C8E0"/>
<path d="M58.3204 22.3956C58.2134 22.4613 58.0818 22.4946 57.948 22.4898C57.8777 22.4965 57.8065 22.4902 57.7396 22.4714C57.6727 22.4526 57.6118 22.4218 57.5614 22.3813C57.511 22.3407 57.4724 22.2914 57.4484 22.2371C57.4244 22.1827 57.4157 22.1246 57.4229 22.0672V21.3252H57.1436V21.1245H57.4229V20.8204H57.7245V21.1245H58.1975V21.3252H57.7245V22.058C57.7193 22.0875 57.7224 22.1176 57.7334 22.146C57.7445 22.1744 57.7632 22.2004 57.7883 22.222C57.8133 22.2436 57.8441 22.2604 57.8782 22.2709C57.9123 22.2815 57.9489 22.2857 57.9852 22.2831C58.0701 22.2842 58.1528 22.2617 58.2198 22.2192L58.3204 22.3956Z" fill="#94C8E0"/>
<path d="M59.3443 21.2919C59.3438 21.269 59.3489 21.2463 59.3594 21.2251C59.3699 21.2039 59.3855 21.1846 59.4053 21.1684C59.4251 21.1522 59.4487 21.1395 59.4747 21.1309C59.5007 21.1223 59.5285 21.1181 59.5566 21.1186C59.5841 21.1185 59.6113 21.1231 59.6367 21.1318C59.662 21.1406 59.685 21.1535 59.7041 21.1697C59.7232 21.1859 59.7381 21.205 59.748 21.226C59.7578 21.247 59.7624 21.2694 59.7614 21.2919C59.7624 21.3145 59.7578 21.337 59.748 21.3582C59.7382 21.3794 59.7234 21.3987 59.7043 21.4152C59.6852 21.4316 59.6623 21.4447 59.637 21.4539C59.6116 21.463 59.5843 21.4679 59.5566 21.4683C59.5284 21.4683 59.5004 21.4637 59.4744 21.4548C59.4484 21.4459 59.4249 21.4328 59.4051 21.4164C59.3854 21.4 59.3698 21.3805 59.3593 21.3591C59.3489 21.3378 59.3438 21.3149 59.3443 21.2919ZM59.3443 22.3227C59.3438 22.2998 59.3489 22.2771 59.3594 22.2559C59.3699 22.2347 59.3855 22.2154 59.4053 22.1992C59.4251 22.1831 59.4487 22.1703 59.4747 22.1617C59.5007 22.1532 59.5285 22.149 59.5566 22.1494C59.5841 22.1494 59.6113 22.1539 59.6367 22.1627C59.662 22.1715 59.685 22.1843 59.7041 22.2005C59.7232 22.2167 59.7381 22.2359 59.748 22.2568C59.7578 22.2778 59.7624 22.3003 59.7614 22.3227C59.7624 22.3452 59.7578 22.3676 59.748 22.3886C59.7381 22.4096 59.7232 22.4288 59.7041 22.4449C59.685 22.4611 59.662 22.474 59.6367 22.4828C59.6113 22.4915 59.5841 22.4961 59.5566 22.496C59.5285 22.4965 59.5007 22.4923 59.4747 22.4837C59.4487 22.4751 59.4251 22.4624 59.4053 22.4462C59.3855 22.43 59.3699 22.4107 59.3594 22.3895C59.3489 22.3683 59.3438 22.3456 59.3443 22.3227Z" fill="#94C8E0"/>
<path d="M43.5688 2.8827C43.5688 3.00298 43.5251 3.12056 43.4433 3.22058C43.3614 3.32059 43.2451 3.39854 43.109 3.44457C42.9729 3.4906 42.8231 3.50264 42.6786 3.47918C42.5341 3.45571 42.4014 3.39779 42.2973 3.31274C42.1931 3.22768 42.1222 3.11932 42.0934 3.00135C42.0647 2.88337 42.0794 2.76109 42.1358 2.64997C42.1922 2.53884 42.2876 2.44386 42.4101 2.37703C42.5326 2.3102 42.6766 2.27454 42.8239 2.27454C43.0215 2.27454 43.2109 2.33861 43.3506 2.45266C43.4903 2.56672 43.5688 2.7214 43.5688 2.8827Z" fill="white"/>
<path d="M46.2758 2.8827C46.2758 3.00298 46.2321 3.12056 46.1503 3.22058C46.0684 3.32059 45.9521 3.39854 45.816 3.44457C45.6799 3.4906 45.5301 3.50264 45.3857 3.47918C45.2412 3.45571 45.1085 3.39779 45.0043 3.31274C44.9001 3.22768 44.8292 3.11932 44.8004 3.00135C44.7717 2.88337 44.7865 2.76109 44.8428 2.64997C44.8992 2.53884 44.9947 2.44386 45.1172 2.37703C45.2396 2.3102 45.3837 2.27454 45.531 2.27454C45.7285 2.27454 45.918 2.33861 46.0577 2.45266C46.1973 2.56672 46.2758 2.7214 46.2758 2.8827Z" fill="white"/>
<path d="M48.9833 2.8827C48.9833 3.00298 48.9396 3.12056 48.8578 3.22058C48.776 3.32059 48.6596 3.39854 48.5235 3.44457C48.3874 3.4906 48.2377 3.50264 48.0932 3.47918C47.9487 3.45571 47.816 3.39779 47.7118 3.31274C47.6076 3.22768 47.5367 3.11932 47.508 3.00135C47.4792 2.88337 47.494 2.76109 47.5504 2.64997C47.6067 2.53884 47.7022 2.44386 47.8247 2.37703C47.9472 2.3102 48.0912 2.27454 48.2385 2.27454C48.436 2.27454 48.6255 2.33861 48.7652 2.45266C48.9049 2.56672 48.9833 2.7214 48.9833 2.8827Z" fill="white"/>
<path d="M67.8504 33.2605C67.8504 33.2605 67.8504 33.2332 67.8504 33.1876V32.9838C67.8504 32.7953 67.8504 32.5338 67.8504 32.1993C67.8504 31.5121 67.8504 30.5238 67.8169 29.2771L67.8728 29.3196L45.9001 29.3561L45.9969 29.2771V31.2931C45.9969 31.956 45.9969 32.6129 45.9969 33.2545L45.8926 33.1845L61.5342 33.221L66.1634 33.2423H67.4147H67.7424H67.8579H67.7536H67.4408H66.2081L61.6012 33.2636L45.9001 33.297H45.8032V29.2832L45.9001 29.2041L67.8728 29.2376H67.9286V29.2832C67.9286 30.539 67.9063 31.5394 67.8989 32.2327C67.8989 32.5642 67.8989 32.8227 67.8989 33.0051V33.1845C67.888 33.2119 67.8716 33.2376 67.8504 33.2605Z" fill="#94C8E0"/>
<path d="M81.4062 33.2604C81.4012 33.2352 81.4012 33.2095 81.4062 33.1844C81.4062 33.1266 81.4062 33.0567 81.4062 32.9746C81.4062 32.7769 81.4062 32.5123 81.3876 32.1748C81.3876 31.4785 81.369 30.4902 81.3504 29.2769L81.4211 29.3317L69.3994 29.356L69.4963 29.2769V31.3173C69.4963 31.9863 69.4963 32.6309 69.4963 33.2543L69.4032 33.1783L77.9949 33.2148L80.505 33.2361H81.1828H81.4249C81.3517 33.2404 81.2783 33.2404 81.2051 33.2361H80.5459L78.0582 33.2574L69.4032 33.2938H69.3101V31.2808C69.3101 30.9494 69.3101 30.6118 69.3101 30.2682V29.2404L69.4069 29.1614L81.4286 29.1827H81.4956V29.2404C81.4956 30.4568 81.4658 31.4663 81.4584 32.1718C81.4584 32.5032 81.4584 32.7799 81.4584 32.9594C81.4584 33.1388 81.41 33.2634 81.4062 33.2604Z" fill="#94C8E0"/>
<path d="M48.1455 30.7517H47.356V30.5176H49.2627V30.7517H48.4732V32.3968H48.1455V30.7517Z" fill="#94C8E0"/>
<path d="M49.4751 30.5359C49.4751 30.513 49.4807 30.4903 49.4917 30.4693C49.5026 30.4482 49.5186 30.4292 49.5388 30.4133C49.559 30.3974 49.5828 30.385 49.609 30.3768C49.6352 30.3686 49.6631 30.3648 49.6911 30.3656C49.7183 30.3648 49.7454 30.3684 49.7709 30.3763C49.7964 30.3841 49.8197 30.396 49.8395 30.4113C49.8592 30.4266 49.8751 30.445 49.886 30.4653C49.897 30.4856 49.9029 30.5076 49.9034 30.5298C49.8965 30.5722 49.871 30.6111 49.8316 30.6393C49.7922 30.6675 49.7416 30.6831 49.6892 30.6831C49.6369 30.6831 49.5863 30.6675 49.5469 30.6393C49.5075 30.6111 49.482 30.5722 49.4751 30.5298V30.5359ZM49.531 30.9768H49.8475V32.3999H49.531V30.9768Z" fill="#94C8E0"/>
<path d="M51.4305 32.3178C51.3235 32.3842 51.1925 32.4195 51.0581 32.4182C50.9838 32.4253 50.9084 32.4188 50.8376 32.3989C50.7668 32.3791 50.7023 32.3465 50.6491 32.3036C50.5958 32.2606 50.555 32.2085 50.5297 32.1509C50.5045 32.0934 50.4954 32.0319 50.5032 31.9712V31.1897H50.209V30.9768H50.5032V30.6727H50.8198V30.9768H51.3188V31.1897H50.8198V31.9681C50.8198 32.1232 50.9166 32.2083 51.0916 32.2083C51.1815 32.209 51.2692 32.1855 51.3411 32.1414L51.4305 32.3178Z" fill="#94C8E0"/>
<path d="M51.8101 30.4081H52.1266V32.3998H51.8101V30.4081Z" fill="#94C8E0"/>
<path d="M54.2982 31.7736H52.883C52.9026 31.8962 52.9793 32.0079 53.0973 32.0855C53.2152 32.1631 53.3652 32.2006 53.5161 32.1902C53.6101 32.1935 53.7037 32.1799 53.7906 32.1505C53.8775 32.1211 53.9554 32.0765 54.0189 32.0199L54.1939 32.1871C54.1068 32.2645 53.9999 32.3253 53.8809 32.3652C53.7618 32.4052 53.6335 32.4232 53.5049 32.4182C53.3834 32.4255 53.2613 32.4119 53.1466 32.3782C53.0319 32.3446 52.9271 32.2916 52.839 32.2229C52.7509 32.1541 52.6815 32.071 52.6352 31.9789C52.5889 31.8869 52.5667 31.7879 52.5702 31.6884C52.565 31.5929 52.584 31.4975 52.626 31.4083C52.6679 31.319 52.732 31.2377 52.8141 31.1696C52.8962 31.1014 52.9946 31.0477 53.1032 31.012C53.2118 30.9762 53.3283 30.9591 53.4454 30.9617C53.5626 30.9593 53.6792 30.977 53.7876 31.0136C53.8961 31.0502 53.9939 31.1049 54.0749 31.1742C54.1559 31.2435 54.2183 31.3258 54.258 31.416C54.2978 31.5061 54.314 31.602 54.3056 31.6976C54.3049 31.723 54.3024 31.7484 54.2982 31.7736ZM52.883 31.5881H54.0003C53.9785 31.4799 53.9104 31.3815 53.8081 31.3106C53.7058 31.2396 53.5759 31.2006 53.4416 31.2006C53.3074 31.2006 53.1775 31.2396 53.0751 31.3106C52.9728 31.3815 52.9047 31.4799 52.883 31.5881Z" fill="#94C8E0"/>
<path d="M64.3535 31.0955H66.4428L65.4 31.9499L64.3535 31.0955Z" fill="#94C8E0"/>
<path d="M77.626 31.0955H79.7152L78.6688 31.9499L77.626 31.0955Z" fill="#94C8E0"/>
<path d="M157.663 73.682C157.663 73.2167 157.633 55.9236 157.588 27.3886L157.663 27.4464L43.7473 27.4677L43.8441 27.3886C43.8441 43.7056 43.8441 59.3689 43.8441 73.682L43.751 73.606L157.674 73.682L43.751 73.755H43.6616V73.682C43.6616 59.3689 43.6616 43.7056 43.6616 27.3886V27.3096H43.7659L157.682 27.3309H157.73V27.3886C157.689 55.9236 157.663 73.2167 157.663 73.682Z" fill="#E0E0E0"/>
<path d="M157.663 25.622C157.663 25.622 157.663 25.4395 157.663 25.0959C157.663 24.7523 157.663 24.2384 157.663 23.5755C157.663 22.2345 157.663 20.258 157.641 17.7128L157.681 17.7432L43.5909 17.7919L43.6877 17.7128V25.6189L43.5909 25.5399L124.577 25.5733L148.822 25.5946H155.391H157.097C157.469 25.5946 157.685 25.5946 157.685 25.5946H157.112H155.417H148.87L124.663 25.6189L43.6058 25.6524H43.4717V17.6246H43.5722L157.663 17.6763H157.7V17.7067C157.7 20.261 157.681 22.2406 157.678 23.5877C157.678 24.2536 157.678 24.7645 157.678 25.1081C157.678 25.4517 157.663 25.622 157.663 25.622Z" fill="#E0E0E0"/>
<path d="M157.663 16.0312C157.663 16.0312 157.663 15.8517 157.663 15.5051C157.663 15.1584 157.663 14.6476 157.663 13.9847C157.663 12.6437 157.663 10.6702 157.641 8.12504L157.681 8.15545L43.5909 8.2041L43.6877 8.12504V16.0312L43.5909 15.9521L124.577 15.9855L148.822 16.0099H155.391H157.097H157.685H157.112H155.417H148.87L124.663 16.0342L43.6058 16.0676H43.4717V8.03381H43.5722L157.663 8.08247H157.7V8.11591C157.7 10.6672 157.681 12.6498 157.678 13.9938C157.678 14.6628 157.678 15.1706 157.678 15.5142C157.678 15.8578 157.663 16.0312 157.663 16.0312Z" fill="#E0E0E0"/>
<path d="M128.003 29.6297C127.824 29.6246 127.648 29.6765 127.514 29.7746C127.38 29.8727 127.298 30.0093 127.285 30.1558V32.2175C127.326 32.4102 127.448 32.585 127.632 32.711C127.815 32.837 128.047 32.906 128.286 32.906C128.526 32.906 128.758 32.837 128.941 32.711C129.125 32.585 129.247 32.4102 129.288 32.2175V30.5542H129.091V32.1475C129.072 32.3124 128.978 32.4654 128.828 32.5768C128.677 32.6882 128.482 32.7499 128.279 32.7499C128.076 32.7499 127.881 32.6882 127.731 32.5768C127.58 32.4654 127.487 32.3124 127.467 32.1475V30.174C127.467 30.0603 127.522 29.9513 127.621 29.8709C127.719 29.7905 127.853 29.7453 127.992 29.7453C128.132 29.7453 128.265 29.7905 128.364 29.8709C128.462 29.9513 128.517 30.0603 128.517 30.174V31.8465C128.498 31.8978 128.46 31.9427 128.407 31.9746C128.354 32.0065 128.291 32.0238 128.225 32.0238C128.159 32.0238 128.096 32.0065 128.043 31.9746C127.99 31.9427 127.952 31.8978 127.933 31.8465V30.5572H127.739V31.7887V31.8465C127.763 31.9361 127.823 32.0163 127.911 32.0739C127.998 32.1314 128.107 32.1628 128.219 32.1628C128.332 32.1628 128.441 32.1314 128.528 32.0739C128.615 32.0163 128.676 31.9361 128.7 31.8465V31.813C128.7 31.813 128.7 31.7948 128.7 31.7857V30.1436C128.682 30.0028 128.601 29.8722 128.473 29.7773C128.344 29.6823 128.177 29.6298 128.003 29.6297Z" fill="#94C8E0"/>
<path d="M101.424 30.5389H98.5527V30.9099H101.424V30.5389Z" fill="#94C8E0"/>
<path d="M101.424 31.8922H98.5527V32.2632H101.424V31.8922Z" fill="#94C8E0"/>
<path d="M99.9903 31.2384H98.5527V31.6094H99.9903V31.2384Z" fill="#94C8E0"/>
<path d="M112.205 30.5389H109.334V30.9099H112.205V30.5389Z" fill="#94C8E0"/>
<path d="M112.205 31.8922H109.334V32.2632H112.205V31.8922Z" fill="#94C8E0"/>
<path d="M112.205 31.2384H110.768V31.6094H112.205V31.2384Z" fill="#94C8E0"/>
<path d="M106.887 30.5389H104.016V30.9099H106.887V30.5389Z" fill="#94C8E0"/>
<path d="M106.887 31.8922H104.016V32.2632H106.887V31.8922Z" fill="#94C8E0"/>
<path d="M106.887 31.2384H104.016V31.6094H106.887V31.2384Z" fill="#94C8E0"/>
<path d="M119.397 32.1414H117.047V30.5663H118.265V30.8977H117.457V31.8069H118.991V31.4785H119.397V32.1414Z" fill="#94C8E0"/>
<path d="M120.749 32.1414H119.75V31.8069H120.343V30.8977H118.808V31.3234H118.402V30.5663H120.749V32.1414Z" fill="#94C8E0"/>
<path d="M121.702 31.2292H122.953L122.328 31.7036L121.702 31.2292Z" fill="#94C8E0"/>
<path d="M93.4204 31.3905V30.5056H93.7928V31.3783C93.7928 31.7007 93.9716 31.8405 94.2807 31.8405C94.5898 31.8405 94.7648 31.7007 94.7648 31.3783V30.5056H95.1149V31.3905C95.1226 31.4844 95.1065 31.5785 95.0678 31.6672C95.0291 31.7558 94.9685 31.837 94.8897 31.9057C94.811 31.9744 94.7158 32.0292 94.6101 32.0666C94.5044 32.1041 94.3904 32.1234 94.2751 32.1234C94.1599 32.1234 94.0459 32.1041 93.9401 32.0666C93.8344 32.0292 93.7392 31.9744 93.6605 31.9057C93.5818 31.837 93.5211 31.7558 93.4824 31.6672C93.4437 31.5785 93.4276 31.4844 93.4353 31.3905H93.4204Z" fill="#94C8E0"/>
<path d="M90.1992 30.3291H90.5194L90.0688 32.1536H89.7485L90.1992 30.3291Z" fill="#94C8E0"/>
<path d="M87.1864 31.6641C87.1864 31.9681 86.8661 32.1658 86.2628 32.1658H85.0562V30.3413H86.1995C86.7879 30.3413 87.0784 30.539 87.0784 30.8218C87.0796 30.9043 87.0519 30.9854 86.9984 31.0555C86.945 31.1255 86.868 31.1816 86.7767 31.2171C86.8954 31.2449 86.9996 31.3037 87.0736 31.3844C87.1475 31.4651 87.1871 31.5633 87.1864 31.6641ZM85.6967 30.7092V31.0559H86.1324C86.3447 31.0559 86.4527 30.9981 86.4527 30.8795C86.4527 30.7609 86.3447 30.7032 86.1324 30.7032L85.6967 30.7092ZM86.5607 31.6063C86.5607 31.4816 86.4453 31.4208 86.2293 31.4208H85.6967V31.7918H86.2255C86.4304 31.7857 86.5458 31.7249 86.5458 31.6002L86.5607 31.6063Z" fill="#94C8E0"/>
<path d="M96.8135 33.37C96.7177 32.6725 96.6854 31.9702 96.7166 31.2688C96.6853 30.5664 96.7177 29.8631 96.8135 29.1646C96.9115 29.8629 96.9438 30.5664 96.9103 31.2688C96.9438 31.9702 96.9114 32.6726 96.8135 33.37Z" fill="#E0E0E0"/>
<path d="M113.881 33.37C113.783 32.6726 113.751 31.9702 113.784 31.2688C113.751 30.5664 113.783 29.8629 113.881 29.1646C113.977 29.8631 114.009 30.5664 113.978 31.2688C114.009 31.9702 113.977 32.6725 113.881 33.37Z" fill="#E0E0E0"/>
<path d="M124.212 33.455C124.116 32.7575 124.084 32.0552 124.115 31.3538C124.084 30.6524 124.116 29.95 124.212 29.2526C124.308 29.95 124.34 30.6524 124.309 31.3538C124.34 32.0552 124.308 32.7575 124.212 33.455Z" fill="#E0E0E0"/>
<path d="M132.033 33.3306C131.937 32.6331 131.905 31.9308 131.936 31.2294C131.905 30.527 131.937 29.8236 132.033 29.1251C132.134 29.8233 132.167 30.5269 132.134 31.2294C132.167 31.9308 132.134 32.6334 132.033 33.3306Z" fill="#E0E0E0"/>
<path d="M95.4911 32.3056C94.7269 32.411 93.9464 32.411 93.1821 32.3056C93.9464 32.2002 94.7269 32.2002 95.4911 32.3056Z" fill="#94C8E0"/>
<path d="M72.9148 30.3293V32.1538H72.5983V30.5513H72.0918V30.3232L72.9148 30.3293Z" fill="#94C8E0"/>
<path d="M74.9783 31.9316V32.1597H73.3694V31.9681L74.2818 31.2505C74.5202 31.0619 74.5649 30.9464 74.5649 30.8339C74.5649 30.6453 74.401 30.5298 74.0882 30.5298C73.9805 30.5251 73.8729 30.5404 73.7735 30.5747C73.6742 30.6089 73.5856 30.6611 73.5146 30.7274L73.2949 30.5754C73.3979 30.4826 73.5248 30.4097 73.6665 30.3618C73.8082 30.3139 73.9611 30.2924 74.1142 30.2987C74.5835 30.2987 74.8814 30.4933 74.8814 30.8065C74.8771 30.9191 74.8413 31.0295 74.7768 31.1291C74.7122 31.2287 74.6206 31.3149 74.509 31.3812L73.8238 31.9194L74.9783 31.9316Z" fill="#94C8E0"/>
<path d="M157.663 35.3464C157.663 35.389 132.115 35.4255 100.608 35.4255C69.1015 35.4255 43.5498 35.389 43.5498 35.3464C43.5498 35.3038 69.0903 35.2673 100.608 35.2673C132.126 35.2673 157.663 35.3129 157.663 35.3464Z" fill="#E0E0E0"/>
<path d="M150.624 39.9593C150.624 40.0019 127.426 40.0383 98.8132 40.0383C70.2003 40.0383 46.9985 40.0019 46.9985 39.9593C46.9985 39.9167 70.2114 39.8741 98.8132 39.8741C127.415 39.8741 150.624 39.9137 150.624 39.9593Z" fill="#94C8E0"/>
<path d="M150.624 43.3863C150.624 43.4319 127.426 43.4654 98.8132 43.4654C70.2003 43.4654 46.9985 43.4319 46.9985 43.3863C46.9985 43.3407 70.1928 43.3073 98.8132 43.3073C127.434 43.3073 150.624 43.3437 150.624 43.3863Z" fill="#94C8E0"/>
<path d="M150.624 46.8164C150.624 46.8589 127.426 46.8954 98.8132 46.8954C70.2003 46.8954 46.9985 46.8681 46.9985 46.8164C46.9985 46.7647 70.1928 46.7373 98.8132 46.7373C127.434 46.7373 150.624 46.7708 150.624 46.8164Z" fill="#94C8E0"/>
<path d="M150.624 50.2435C150.624 50.2891 127.426 50.3226 98.8132 50.3226C70.2003 50.3226 46.9985 50.2891 46.9985 50.2435C46.9985 50.1979 70.1928 50.1644 98.8132 50.1644C127.434 50.1644 150.624 50.2131 150.624 50.2435Z" fill="#94C8E0"/>
<path d="M150.624 53.6735C150.624 53.7161 127.426 53.7526 98.8132 53.7526C70.2003 53.7526 46.9985 53.7161 46.9985 53.6735C46.9985 53.631 70.1928 53.5945 98.8132 53.5945C127.434 53.5945 150.624 53.6279 150.624 53.6735Z" fill="#94C8E0"/>
<path d="M150.624 57.1004C150.624 57.146 127.426 57.1795 98.8132 57.1795C70.2003 57.1795 46.9985 57.146 46.9985 57.1004C46.9985 57.0548 70.1928 57.0214 98.8132 57.0214C127.434 57.0214 150.624 57.0579 150.624 57.1004Z" fill="#94C8E0"/>
<path d="M150.624 60.5306C150.624 60.5732 127.426 60.6097 98.8132 60.6097C70.2003 60.6097 46.9985 60.5732 46.9985 60.5306C46.9985 60.488 70.1928 60.4515 98.8132 60.4515C127.434 60.4515 150.624 60.485 150.624 60.5306Z" fill="#94C8E0"/>
<path d="M150.699 63.8359C150.699 63.8785 127.501 63.915 98.8879 63.915C70.275 63.915 47.0732 63.8785 47.0732 63.8359C47.0732 63.7933 70.2675 63.7568 98.8879 63.7568C127.508 63.7568 150.699 63.7933 150.699 63.8359Z" fill="#94C8E0"/>
<path d="M150.773 67.1413C150.773 67.1869 127.575 67.2204 98.9659 67.2204C70.3566 67.2204 47.1475 67.1869 47.1475 67.1413C47.1475 67.0957 70.3417 67.0623 98.9659 67.0623C127.59 67.0623 150.773 67.0987 150.773 67.1413Z" fill="#94C8E0"/>
<path d="M47.2256 70.4466C47.2256 70.404 70.4236 70.3676 99.0328 70.3676C127.642 70.3676 150.848 70.404 150.848 70.4466C150.848 70.4892 127.653 70.5257 99.0328 70.5257C70.4124 70.5257 47.2256 70.4922 47.2256 70.4466Z" fill="#94C8E0"/>
<path d="M161.64 77.1606C161.64 76.6194 161.61 46.6461 161.562 0.0912242L161.64 0.158122H39.2706L39.3674 0.0790618C39.3674 27.8417 39.3674 54.1082 39.3674 77.1485L39.2818 77.0785L161.662 77.1485L39.2818 77.2215H39.1924V77.1485C39.1924 54.1082 39.1924 27.8417 39.1924 0.0790618V0H39.3004L161.64 0.0395309H161.722V0.103388C161.674 46.6461 161.64 76.6194 161.64 77.1606Z" fill="#94C8E0"/>
<path d="M113.784 24.0225V30.6515C113.784 31.2386 114.07 31.8017 114.578 32.2168C115.087 32.632 115.776 32.8652 116.495 32.8652H126.446C126.591 32.8652 126.734 32.8927 126.863 32.9455C126.992 32.9983 127.105 33.0749 127.191 33.1693L129.627 37.5025L132.562 33.2453C132.65 33.1644 132.759 33.0996 132.88 33.0551C133.001 33.0105 133.132 32.9873 133.265 32.9869H143.693C144.411 32.9796 145.096 32.7403 145.598 32.3213C146.1 31.9023 146.378 31.3379 146.371 30.7519V23.98C146.371 23.6891 146.301 23.4012 146.164 23.1326C146.028 22.864 145.827 22.62 145.575 22.4146C145.323 22.2093 145.024 22.0466 144.694 21.9358C144.365 21.8251 144.012 21.7685 143.656 21.7693L116.507 21.8088C116.15 21.8076 115.796 21.864 115.466 21.9747C115.135 22.0854 114.835 22.2483 114.582 22.454C114.329 22.6597 114.129 22.9041 113.992 23.1733C113.855 23.4425 113.784 23.7311 113.784 24.0225Z" fill="white"/>
<path d="M120.614 29.7482H118.916V28.4407L122.826 24.9528L122.905 24.9376C123.113 24.869 123.339 24.8463 123.562 24.8719C123.784 24.8976 123.994 24.9706 124.171 25.0836C124.666 25.4546 124.543 26.1327 124.513 26.2087V26.2756L120.614 29.7482ZM119.497 29.289H120.383L123.992 26.0658C124.017 25.9539 124.014 25.8389 123.983 25.728C123.951 25.6172 123.892 25.5127 123.81 25.4211C123.713 25.3685 123.602 25.3358 123.487 25.3257C123.371 25.3156 123.255 25.3286 123.147 25.3634L119.497 28.617V29.289Z" fill="white"/>
<path d="M131.661 28.8666V29.3197H128.432V25.689H131.571V26.139H129.068V27.255H131.303V27.7111H129.068V28.8818L131.661 28.8666Z" fill="white"/>
<path d="M135.757 25.4698V29.3195H135.173V28.8816C135.035 29.0339 134.854 29.1562 134.645 29.2379C134.436 29.3195 134.205 29.358 133.974 29.3499C133.532 29.3331 133.114 29.1779 132.809 28.9166C132.503 28.6552 132.333 28.3078 132.333 27.9466C132.333 27.5853 132.503 27.2379 132.809 26.9766C133.114 26.7152 133.532 26.56 133.974 26.5432C134.198 26.5367 134.422 26.5732 134.626 26.6497C134.83 26.7263 135.01 26.8408 135.15 26.9842V25.4637L135.757 25.4698ZM135.154 27.945C135.14 27.7675 135.063 27.5972 134.932 27.4549C134.802 27.3127 134.623 27.2048 134.418 27.1445C134.213 27.0843 133.991 27.0742 133.779 27.1157C133.567 27.1572 133.374 27.2483 133.225 27.3779C133.076 27.5075 132.976 27.6698 132.939 27.845C132.901 28.0202 132.927 28.2006 133.013 28.364C133.099 28.5273 133.242 28.6665 133.424 28.7644C133.606 28.8624 133.819 28.9147 134.037 28.9151C134.189 28.9145 134.34 28.8885 134.479 28.8387C134.619 28.7889 134.744 28.7164 134.848 28.6256C134.952 28.5347 135.032 28.4275 135.083 28.3105C135.135 28.1935 135.156 28.0691 135.147 27.945H135.154Z" fill="white"/>
<path d="M136.804 25.7193C136.803 25.6755 136.814 25.6321 136.834 25.5917C136.855 25.5513 136.885 25.5146 136.923 25.484C136.961 25.4533 137.007 25.4292 137.057 25.4133C137.106 25.3973 137.16 25.3897 137.213 25.3909C137.318 25.3867 137.419 25.4164 137.497 25.4734C137.574 25.5303 137.621 25.61 137.627 25.695C137.628 25.7395 137.619 25.7838 137.598 25.8252C137.578 25.8665 137.548 25.9041 137.509 25.9354C137.47 25.9668 137.424 25.9913 137.373 26.0075C137.322 26.0237 137.268 26.0311 137.213 26.0295C137.162 26.0311 137.11 26.0243 137.061 26.0096C137.012 25.9949 136.968 25.9725 136.93 25.9437C136.892 25.9149 136.861 25.8803 136.839 25.8418C136.818 25.8032 136.806 25.7616 136.804 25.7193ZM136.912 26.5677H137.519V29.3044H136.912V26.5677Z" fill="white"/>
<path d="M140.576 29.1584C140.363 29.2907 140.099 29.3584 139.832 29.3499C139.689 29.3633 139.544 29.3503 139.408 29.312C139.272 29.2736 139.148 29.2108 139.046 29.1282C138.944 29.0456 138.866 28.9453 138.817 28.8348C138.769 28.7242 138.752 28.6062 138.766 28.4894V26.969H138.193V26.5585H138.766V25.9503H139.373V26.5585H140.342V26.969H139.373V28.459C139.363 28.519 139.37 28.5801 139.392 28.6379C139.415 28.6956 139.452 28.7486 139.503 28.7929C139.554 28.8371 139.616 28.8716 139.685 28.8938C139.754 28.916 139.828 28.9254 139.902 28.9212C140.075 28.9221 140.242 28.8761 140.379 28.7904L140.576 29.1584Z" fill="white"/>
<path d="M177.792 103.57C177.792 103.57 169.383 106.702 161.204 106.702C153.633 106.702 145.161 103.588 145.161 103.588L177.792 103.57Z" fill="#E0E0E0"/>
<path d="M160.348 131.606H163.591V103.868H160.348V131.606Z" fill="#E0E0E0"/>
<path d="M147.428 132.084H176.216V130.457H147.428V132.084Z" fill="#E0E0E0"/>
<path d="M172.842 132.783C172.842 133.138 172.97 133.485 173.211 133.781C173.452 134.076 173.795 134.307 174.196 134.443C174.598 134.579 175.039 134.615 175.466 134.546C175.892 134.477 176.284 134.307 176.592 134.056C176.9 133.805 177.109 133.485 177.194 133.137C177.279 132.789 177.236 132.428 177.07 132.1C176.904 131.772 176.622 131.492 176.261 131.295C175.899 131.097 175.474 130.992 175.04 130.992C174.457 130.992 173.899 131.181 173.487 131.516C173.075 131.852 172.843 132.308 172.842 132.783Z" fill="#263238"/>
<path d="M160.05 132.783C160.049 133.138 160.177 133.485 160.418 133.781C160.659 134.076 161.002 134.307 161.404 134.443C161.805 134.579 162.247 134.615 162.673 134.546C163.1 134.477 163.492 134.307 163.799 134.056C164.107 133.805 164.317 133.485 164.402 133.137C164.487 132.789 164.444 132.428 164.277 132.1C164.111 131.772 163.83 131.492 163.468 131.295C163.107 131.097 162.682 130.992 162.247 130.992C161.665 130.992 161.107 131.181 160.695 131.516C160.283 131.852 160.051 132.308 160.05 132.783Z" fill="#263238"/>
<path d="M145.235 132.783C145.234 133.138 145.362 133.485 145.603 133.781C145.844 134.076 146.187 134.307 146.589 134.443C146.99 134.579 147.432 134.615 147.859 134.546C148.285 134.477 148.677 134.307 148.985 134.056C149.292 133.805 149.502 133.485 149.587 133.137C149.672 132.789 149.629 132.428 149.463 132.1C149.296 131.772 149.015 131.492 148.653 131.295C148.292 131.097 147.867 130.992 147.432 130.992C146.85 130.992 146.292 131.181 145.88 131.516C145.468 131.852 145.236 132.308 145.235 132.783Z" fill="#263238"/>
<path d="M161.208 115.341H165.621V113.851H161.208V115.341Z" fill="#E0E0E0"/>
<path d="M164.817 116.384H166.422V112.805H164.817V116.384Z" fill="#E0E0E0"/>
<path d="M143.716 103.57H180.447C181.094 103.57 181.715 103.36 182.172 102.987C182.63 102.613 182.887 102.106 182.887 101.578C182.887 101.05 182.63 100.543 182.172 100.17C181.715 99.7963 181.094 99.5864 180.447 99.5864H143.716C143.069 99.5864 142.448 99.7963 141.991 100.17C141.533 100.543 141.276 101.05 141.276 101.578C141.276 102.106 141.533 102.613 141.991 102.987C142.448 103.36 143.069 103.57 143.716 103.57Z" fill="#94C8E0"/>
<path d="M177.557 51.1465C177.557 51.1465 180.514 50.2039 180.391 48.1453C180.268 46.0866 176.872 44.0493 177.073 40.9598C177.263 38.0589 172.175 29.4443 164.91 32.4455C163.691 32.3166 162.454 32.3722 161.26 32.6097C158.917 33.1571 158.187 34.9877 156.791 36.8C154.657 39.5975 153.201 41.8021 154.232 43.7513C155.264 45.7004 155.696 46.2721 154.895 47.9354C153.852 50.1066 152.784 49.4771 153.134 51.3746L159.465 51.4567L160.064 50.1917L160.131 51.5601L163.856 51.5206L177.557 51.1465Z" fill="#263238"/>
<path d="M159.484 35.4893C159.562 36.289 158.922 37.0097 158.274 37.6178C157.626 38.226 156.907 38.8342 156.784 39.64C156.546 41.0448 158.236 42.3432 157.901 43.7359C157.722 44.4809 156.978 45.083 156.847 45.8371C156.717 46.5913 157.22 47.2755 157.804 47.8289C158.389 48.3823 159.123 48.8384 159.666 49.4375C159.666 49.4375 160.765 50.894 164.135 49.9453" fill="#263238"/>
<path d="M162.366 34.4738L170.72 35.9212C171.11 35.9418 171.476 36.0814 171.746 36.3124C172.016 36.5434 172.169 36.8488 172.176 37.1679L172.075 51.9311C172.068 52.9399 171.655 53.9188 170.898 54.7165L170.101 55.5557C168.284 57.4684 164.604 57.2738 163.215 55.1361C163.131 55.0151 163.067 54.8851 163.025 54.7499C162.991 54.6398 162.965 54.5281 162.947 54.4154L162.787 52.9771C162.705 51.6635 162.694 50.3255 162.694 50.3377C162.694 50.3499 159.275 49.985 158.396 46.3846C157.96 44.5966 157.934 41.641 158.005 39.2235C158.068 37.0463 159.703 34.3278 162.366 34.4738Z" fill="#F3A890"/>
<path d="M159.275 42.0027C159.28 42.1237 159.342 42.2385 159.448 42.3229C159.554 42.4074 159.696 42.455 159.845 42.4557C159.919 42.4578 159.993 42.4476 160.062 42.4256C160.131 42.4037 160.194 42.3706 160.247 42.3282C160.3 42.2858 160.341 42.2351 160.37 42.1792C160.398 42.1232 160.412 42.0632 160.411 42.0027C160.406 41.8816 160.344 41.7668 160.238 41.6824C160.132 41.5979 159.989 41.5503 159.841 41.5496C159.767 41.5475 159.693 41.5578 159.624 41.5797C159.555 41.6016 159.492 41.6347 159.439 41.6771C159.386 41.7195 159.344 41.7702 159.316 41.8261C159.288 41.8821 159.274 41.9421 159.275 42.0027Z" fill="#263238"/>
<path d="M158.847 40.7348C158.921 40.7925 159.338 40.5189 159.964 40.5006C160.59 40.4824 161.037 40.7196 161.1 40.6557C161.163 40.5919 161.055 40.5189 160.854 40.4094C160.582 40.2689 160.263 40.1999 159.942 40.2117C159.623 40.219 159.316 40.3108 159.066 40.4733C158.884 40.5979 158.824 40.7074 158.847 40.7348Z" fill="#263238"/>
<path d="M164.757 41.8811C164.762 42.0022 164.824 42.117 164.93 42.2014C165.037 42.2859 165.179 42.3335 165.327 42.3342C165.4 42.3367 165.473 42.3272 165.541 42.3064C165.609 42.2856 165.672 42.2539 165.725 42.2131C165.778 42.1723 165.82 42.1233 165.85 42.0689C165.88 42.0145 165.896 41.9558 165.897 41.8963C165.892 41.7751 165.829 41.6602 165.722 41.5761C165.615 41.492 165.472 41.4454 165.323 41.4463C165.251 41.4439 165.179 41.4532 165.111 41.4739C165.043 41.4945 164.981 41.526 164.928 41.5665C164.876 41.607 164.833 41.6557 164.804 41.7097C164.775 41.7638 164.759 41.822 164.757 41.8811Z" fill="#263238"/>
<path d="M164.672 40.6129C164.742 40.6707 165.163 40.397 165.789 40.3788C166.415 40.3605 166.862 40.5977 166.906 40.5338C166.951 40.47 166.862 40.397 166.66 40.2875C166.389 40.1461 166.07 40.0771 165.748 40.0899C165.429 40.0971 165.122 40.1889 164.873 40.3514C164.694 40.4822 164.634 40.5855 164.672 40.6129Z" fill="#263238"/>
<path d="M162.836 44.411C162.509 44.3398 162.172 44.301 161.834 44.2954C161.677 44.2954 161.529 44.2681 161.499 44.1829C161.48 44.0511 161.51 43.9177 161.584 43.7998C161.718 43.4957 161.856 43.1582 162.001 42.8146C162.575 41.4097 162.985 40.2603 162.918 40.242C162.851 40.2238 162.325 41.3459 161.748 42.7477L161.353 43.739C161.263 43.8966 161.242 44.0749 161.294 44.2437C161.32 44.2874 161.358 44.3258 161.404 44.3563C161.45 44.3868 161.504 44.4086 161.562 44.4201C161.649 44.4367 161.738 44.4439 161.826 44.4414C162.163 44.4682 162.502 44.4579 162.836 44.411Z" fill="#263238"/>
<path d="M162.694 50.3344C164.782 50.2951 166.815 49.7824 168.567 48.8535C168.567 48.8535 167.196 51.4078 162.742 51.2101L162.694 50.3344Z" fill="#AE7461"/>
<path d="M163.152 45.6062C163.264 45.4838 163.411 45.3863 163.581 45.3225C163.751 45.2588 163.937 45.2308 164.124 45.2413C164.259 45.2473 164.391 45.2754 164.513 45.324C164.634 45.3725 164.743 45.4406 164.832 45.5241C164.917 45.6044 164.971 45.7044 164.985 45.8105C164.999 45.9165 164.973 46.0236 164.91 46.117C164.816 46.2094 164.69 46.2769 164.549 46.311C164.407 46.3451 164.257 46.3443 164.116 46.3086C163.823 46.2362 163.551 46.1162 163.316 45.9559C163.245 45.9171 163.184 45.8687 163.133 45.8129C163.11 45.7856 163.098 45.7533 163.098 45.7202C163.098 45.6871 163.11 45.6548 163.133 45.6274" fill="#AE7461"/>
<path d="M164.653 44.6999C164.552 44.6999 164.575 45.2411 164.027 45.6425C163.48 46.0439 162.768 46.0105 162.765 46.0835C162.761 46.1564 162.929 46.1868 163.227 46.1838C163.616 46.1742 163.989 46.0537 164.28 45.8432C164.559 45.641 164.733 45.3591 164.765 45.0557C164.776 44.8276 164.698 44.6968 164.653 44.6999Z" fill="#263238"/>
<path d="M164.705 39.1291C164.772 39.2629 165.379 39.1808 166.102 39.2264C166.824 39.272 167.409 39.418 167.499 39.2933C167.539 39.2325 167.431 39.1078 167.193 38.9892C166.873 38.8355 166.513 38.7459 166.143 38.7277C165.774 38.7026 165.404 38.7505 165.063 38.8676C164.806 38.9618 164.676 39.0652 164.705 39.1291Z" fill="#263238"/>
<path d="M158.936 38.5453C159.048 38.6548 159.465 38.5241 159.972 38.5028C160.478 38.4815 160.91 38.5484 161.003 38.4267C161.044 38.369 160.97 38.2565 160.78 38.1531C160.522 38.0311 160.225 37.9751 159.927 37.9925C159.63 38.0098 159.346 38.0997 159.111 38.2504C158.936 38.372 158.884 38.4906 158.936 38.5453Z" fill="#263238"/>
<path d="M174.414 35.9209C173.796 34.434 171.301 32.8041 168.951 32.0713C168.288 31.87 167.576 31.8 166.873 31.8672C166.171 31.9343 165.498 32.1366 164.91 32.4574L161.931 34.0691C162.086 34.6628 162.434 35.2115 162.938 35.6573C163.443 36.103 164.086 36.4294 164.798 36.6021C165.543 36.7784 166.47 36.8149 166.932 37.341C167.394 37.867 167.156 38.6698 167.599 39.2233C168.21 39.9895 169.833 39.9257 170.295 40.7437C170.5 41.1086 170.407 41.5464 170.619 41.9083C170.899 42.3887 172.418 42.9787 173.036 42.8205C173.654 42.6624 173.632 41.7836 173.826 41.3275C174.068 40.813 174.087 40.2462 173.878 39.7219C173.576 38.6941 174.828 36.9031 174.414 35.9209Z" fill="#263238"/>
<path d="M171.208 43.2677C171.208 42.9971 171.546 42.3555 171.87 42.2977C172.738 42.1609 174.31 42.1669 174.41 43.9732C174.548 46.4393 171.483 46.044 171.476 45.974C171.468 45.9041 171.248 44.1982 171.208 43.2677Z" fill="#F3A890"/>
<path d="M172.347 45.004C172.347 45.004 172.399 45.0314 172.492 45.0618C172.619 45.1044 172.761 45.1044 172.887 45.0618C173.2 44.9553 173.446 44.5327 173.435 44.0857C173.431 43.8743 173.369 43.6663 173.252 43.4775C173.218 43.4036 173.162 43.3374 173.091 43.2845C173.019 43.2316 172.932 43.1935 172.839 43.1734C172.777 43.1624 172.713 43.1695 172.657 43.1934C172.601 43.2173 172.557 43.2566 172.533 43.3042C172.5 43.3741 172.533 43.4228 172.504 43.4258C172.474 43.4289 172.437 43.3893 172.455 43.2859C172.469 43.2236 172.509 43.1669 172.567 43.1248C172.648 43.0717 172.75 43.0456 172.854 43.0518C172.978 43.0677 173.096 43.1093 173.196 43.1726C173.295 43.2359 173.374 43.3189 173.423 43.4137C173.565 43.6223 173.642 43.8562 173.647 44.0948C173.647 44.5935 173.368 45.0709 172.936 45.1895C172.855 45.2111 172.77 45.218 172.687 45.2096C172.603 45.2012 172.523 45.1777 172.451 45.1408C172.355 45.0648 172.336 45.0101 172.347 45.004Z" fill="#AE7461"/>
<path d="M151.648 61.8865L146.304 73.2682L136.249 73.7913L134.696 77.3581L147.969 79.4593C147.969 79.4593 151.961 80.4081 154.237 76.2695L158.128 64.9486L151.648 61.8865Z" fill="#F3A890"/>
<path d="M126.703 75.5702C126.761 75.667 126.853 75.7475 126.967 75.8016C127.081 75.8557 127.212 75.881 127.344 75.8743C127.4 75.8708 127.455 75.8616 127.508 75.8469C127.88 75.7466 127.854 75.1141 127.854 75.1141L129.675 74.8708C129.675 74.8708 132.044 76.1176 132.889 76.9447C133.735 77.7718 135.869 77.1028 135.869 77.1028L136.613 73.9312L133.262 71.456C133.262 71.456 133.47 71.602 133.236 71.1519C133.001 70.7019 131.951 70.863 131.951 70.863C131.787 70.635 131.098 70.559 131.098 70.559L128.159 70.8357C127.857 70.8618 127.566 70.9435 127.308 71.0746C127.05 71.2057 126.832 71.3829 126.67 71.5928L125.426 73.1984C125.426 73.1984 124.767 74.3569 124.875 74.6276C124.924 74.7374 125.021 74.8288 125.147 74.8847C125.273 74.9407 125.42 74.9573 125.56 74.9317C125.56 74.9317 125.705 75.6919 125.932 75.7192C126.189 75.7096 126.442 75.6612 126.677 75.5763L126.703 75.5702Z" fill="#F3A890"/>
<path d="M132.245 76.4338C132.183 76.4021 132.124 76.3655 132.07 76.3244L131.579 76.002C130.96 75.6097 130.315 75.2463 129.646 74.9134H129.687L127.866 75.1658L127.929 75.102C127.934 75.2242 127.923 75.3466 127.895 75.4668C127.871 75.5999 127.799 75.724 127.687 75.8226C127.619 75.8723 127.535 75.9041 127.445 75.9138C127.361 75.9292 127.275 75.9292 127.192 75.9138C127.015 75.8925 126.854 75.8203 126.737 75.7101C126.708 75.6828 126.682 75.6532 126.659 75.6219L126.64 75.5976C126.618 75.5976 126.841 75.6584 126.748 75.628L126.689 75.6463C126.614 75.6706 126.536 75.6949 126.454 75.7162C126.372 75.7363 126.289 75.7525 126.205 75.7649C126.16 75.7681 126.115 75.7681 126.071 75.7649C126.013 75.77 125.955 75.7616 125.903 75.7405C125.821 75.6903 125.759 75.6216 125.724 75.5429C125.688 75.4765 125.657 75.4085 125.631 75.3391C125.583 75.2001 125.544 75.059 125.516 74.9165L125.624 74.9773C125.5 74.9995 125.371 74.9937 125.251 74.9605C125.131 74.9272 125.024 74.8679 124.942 74.7888C124.858 74.7026 124.814 74.5947 124.819 74.4847C124.826 74.3877 124.847 74.2917 124.882 74.1988C125.019 73.8328 125.187 73.4751 125.385 73.1285C125.594 72.8548 125.821 72.5659 126.048 72.271C126.19 72.0885 126.327 71.9061 126.469 71.7266C126.598 71.5385 126.752 71.3622 126.927 71.2006C127.117 71.0463 127.342 70.9244 127.59 70.8418C127.829 70.7694 128.08 70.7264 128.335 70.7141L131.109 70.4617H131.132C131.297 70.4836 131.459 70.5182 131.616 70.5651C131.786 70.6069 131.934 70.6922 132.04 70.8083L131.936 70.781C132.086 70.7251 132.251 70.6998 132.416 70.7072C132.58 70.7146 132.74 70.7545 132.882 70.8235C133.128 70.9701 133.295 71.1876 133.351 71.4317L133.329 71.4013L135.638 73.0981L136.26 73.5663C136.336 73.6179 136.405 73.6749 136.468 73.7366C136.384 73.6948 136.306 73.6459 136.234 73.5907L135.586 73.1467L133.228 71.4986V71.4803C133.177 71.2677 133.03 71.0786 132.815 70.9512C132.695 70.8942 132.56 70.862 132.421 70.8572C132.282 70.8524 132.144 70.8753 132.018 70.9239L131.955 70.9452L131.918 70.8965C131.828 70.8095 131.709 70.746 131.575 70.7141C131.427 70.6713 131.275 70.6397 131.121 70.6198H131.143L128.372 70.8874C128.132 70.8983 127.894 70.9383 127.668 71.006C127.445 71.0811 127.243 71.1917 127.072 71.3313C126.906 71.486 126.76 71.6541 126.637 71.8331L126.216 72.3774L125.553 73.2349C125.36 73.574 125.196 73.9235 125.061 74.2809C125.03 74.3629 125.01 74.4476 125.002 74.5333C124.999 74.6075 125.029 74.68 125.087 74.7371C125.148 74.7945 125.226 74.8375 125.314 74.8616C125.402 74.8857 125.496 74.8899 125.586 74.8739H125.676V74.9469C125.703 75.0824 125.74 75.2165 125.787 75.3483C125.814 75.4676 125.88 75.579 125.977 75.6706C126.002 75.6757 126.027 75.6757 126.052 75.6706H126.164C126.241 75.6597 126.316 75.6445 126.391 75.625L126.614 75.5611L126.67 75.5459L126.778 75.5794V75.6006C126.796 75.6259 126.817 75.6493 126.841 75.6706C126.931 75.7568 127.055 75.814 127.192 75.8317C127.258 75.8423 127.326 75.8423 127.393 75.8317C127.453 75.8272 127.511 75.807 127.556 75.774C127.71 75.5972 127.781 75.3816 127.758 75.1658V75.1111H127.821L129.646 74.88H129.668H129.687C130.354 75.2216 130.992 75.5995 131.597 76.0112C131.809 76.1571 131.97 76.2727 132.07 76.3548C132.131 76.3767 132.19 76.4032 132.245 76.4338Z" fill="#AE7461"/>
<path d="M131.463 71.6993C131.163 71.8095 130.846 71.8862 130.521 71.9274C129.722 72.0608 128.906 72.1088 128.093 72.0703L128.189 72.0186C128.141 72.1372 128.089 72.2619 128.026 72.3835C127.681 73.0857 127.175 73.7276 126.536 74.2749C126.343 74.4382 126.136 74.5906 125.918 74.731C125.758 74.8283 125.668 74.877 125.657 74.8679C125.646 74.8587 125.977 74.6246 126.435 74.1989C127.031 73.643 127.509 73.0099 127.851 72.3257C127.91 72.2041 127.962 72.0825 128.011 71.97L128.037 71.9122H128.108C128.907 71.9515 129.71 71.9209 130.502 71.821C131.098 71.751 131.456 71.675 131.463 71.6993Z" fill="#AE7461"/>
<path d="M128.681 73.0981C128.571 73.59 128.315 74.0524 127.936 74.4451C127.617 74.8697 127.171 75.2212 126.64 75.4668C126.603 75.4304 127.221 75.0107 127.78 74.3539C128.339 73.6971 128.618 73.0829 128.681 73.0981Z" fill="#AE7461"/>
<path d="M136.461 76.1388C136.461 76.1388 136.431 76.1571 136.368 76.1814C136.274 76.2184 136.177 76.2489 136.077 76.2726C135.703 76.3681 135.31 76.4052 134.919 76.3821C134.317 76.3495 133.739 76.1787 133.251 75.8895C132.629 75.5161 132.185 74.9791 131.992 74.3691L132.1 74.4269C131.399 74.5347 130.683 74.5623 129.973 74.509C129.709 74.4878 129.447 74.4554 129.187 74.4116C128.928 74.3779 128.676 74.3102 128.443 74.211C128.313 74.154 128.213 74.0613 128.16 73.9494C128.138 73.8915 128.132 73.8307 128.14 73.7706C128.149 73.7105 128.172 73.6524 128.208 73.5998C128.281 73.4973 128.4 73.4221 128.539 73.3899L128.878 73.323C129.772 73.1467 130.588 73.019 131.273 72.9308C131.958 72.8426 132.517 72.7909 132.904 72.7635C133.104 72.7419 133.306 72.7337 133.508 72.7392C133.314 72.7816 133.115 72.8101 132.915 72.8243C132.543 72.87 131.977 72.9399 131.295 73.0402C130.614 73.1406 129.806 73.2805 128.923 73.4629L128.588 73.5359C128.542 73.5452 128.498 73.5625 128.461 73.5866C128.424 73.6108 128.393 73.6412 128.372 73.6758C128.347 73.7093 128.332 73.7466 128.326 73.7854C128.32 73.8241 128.324 73.8635 128.338 73.9008C128.377 73.9785 128.45 74.0414 128.543 74.0772C128.76 74.1667 128.992 74.2272 129.232 74.2566C129.486 74.2991 129.742 74.3305 129.999 74.3508C130.692 74.403 131.39 74.3774 132.074 74.2748H132.159L132.182 74.3447C132.341 74.861 132.69 75.3248 133.183 75.673C133.677 76.0212 134.289 76.2369 134.938 76.2909C135.312 76.3196 135.689 76.298 136.055 76.227C136.188 76.1915 136.324 76.162 136.461 76.1388Z" fill="#AE7461"/>
<path d="M133.008 116.843C132.983 116.754 132.983 116.662 133.008 116.573C133.058 116.325 133.173 116.088 133.344 115.879C133.4 115.807 133.468 115.741 133.545 115.682C133.593 115.644 133.653 115.617 133.719 115.605C133.785 115.592 133.853 115.595 133.917 115.612C133.956 115.623 133.991 115.641 134.02 115.665C134.049 115.688 134.071 115.717 134.085 115.749C134.108 115.809 134.108 115.874 134.085 115.934C134.034 116.029 133.975 116.122 133.91 116.211C133.779 116.39 133.671 116.57 133.504 116.77C133.454 116.828 133.386 116.873 133.308 116.902C133.229 116.931 133.142 116.942 133.057 116.935C132.899 116.913 132.751 116.859 132.625 116.779C132.39 116.641 132.177 116.481 131.988 116.302C131.899 116.214 131.817 116.126 131.738 116.034C131.652 115.945 131.588 115.841 131.552 115.73C131.535 115.665 131.544 115.597 131.578 115.537C131.612 115.477 131.67 115.427 131.742 115.396C131.812 115.38 131.885 115.378 131.955 115.392C132.026 115.405 132.091 115.433 132.144 115.472C132.305 115.588 132.448 115.72 132.569 115.864C132.745 116.065 132.884 116.287 132.982 116.521C133.029 116.604 133.054 116.694 133.057 116.786C132.89 116.486 132.688 116.199 132.453 115.931C132.335 115.802 132.199 115.685 132.048 115.581C132.016 115.558 131.977 115.541 131.936 115.532C131.895 115.523 131.851 115.522 131.809 115.53C131.774 115.546 131.747 115.572 131.733 115.603C131.718 115.634 131.718 115.669 131.731 115.7C131.765 115.79 131.821 115.874 131.895 115.946C131.97 116.033 132.051 116.116 132.137 116.196C132.316 116.364 132.519 116.515 132.74 116.646C132.837 116.712 132.954 116.756 133.079 116.773C133.131 116.779 133.185 116.773 133.233 116.755C133.281 116.737 133.322 116.709 133.351 116.673C133.489 116.509 133.623 116.305 133.749 116.135C133.814 116.057 133.87 115.974 133.917 115.888C133.951 115.809 133.917 115.761 133.865 115.736C133.716 115.688 133.567 115.828 133.463 115.946C133.245 116.22 133.091 116.524 133.008 116.843Z" fill="#263238"/>
<path d="M141.641 117.087L145.928 124.67L152.843 122.061L148.408 112.674L141.641 117.087Z" fill="#F3A890"/>
<path d="M145.116 124.163L147.619 128.058C147.619 128.058 141.209 133.47 141.813 134.681L156.881 128.782L152.739 120.964L145.116 124.163Z" fill="#455A64"/>
<path d="M151.969 125.704C152.132 125.687 152.298 125.719 152.435 125.794C152.572 125.869 152.671 125.982 152.713 126.112C152.741 126.245 152.706 126.381 152.615 126.494C152.525 126.607 152.386 126.687 152.225 126.72C152.049 126.742 151.869 126.709 151.721 126.629C151.572 126.549 151.465 126.426 151.421 126.285C151.404 126.14 151.457 125.996 151.568 125.882C151.679 125.769 151.84 125.695 152.017 125.677" fill="#E0E0E0"/>
<g opacity="0.6">
<path d="M156.881 128.784L156.24 127.802L142.04 133.835C142.04 133.835 141.511 134.337 141.813 134.693L156.881 128.784Z" fill="white"/>
</g>
<path d="M147.339 128.094C147.377 128.155 147.76 128.036 148.237 128.094C148.714 128.152 149.052 128.322 149.108 128.274C149.164 128.225 148.848 127.918 148.27 127.863C147.693 127.808 147.302 128.058 147.339 128.094Z" fill="#263238"/>
<path d="M146.073 129.247C146.073 129.311 146.468 129.289 146.866 129.444C147.265 129.6 147.496 129.843 147.566 129.812C147.637 129.782 147.488 129.423 146.985 129.235C146.483 129.046 146.04 129.189 146.073 129.247Z" fill="#263238"/>
<path d="M146.08 131.144C146.155 131.144 146.08 130.788 145.708 130.536C145.335 130.283 144.903 130.287 144.903 130.347C144.903 130.408 145.216 130.502 145.525 130.715C145.834 130.928 146.006 131.165 146.08 131.144Z" fill="#263238"/>
<path d="M146.62 126.592C146.684 126.635 146.974 126.422 147.403 126.288C147.831 126.154 148.218 126.127 148.226 126.06C148.233 125.993 147.797 125.902 147.295 126.06C146.792 126.218 146.557 126.559 146.62 126.592Z" fill="#263238"/>
<path d="M143.704 123.15L132.405 100.082C132.405 100.082 132.659 96.1291 133.545 94.8976C134.431 93.6661 161.35 86.3985 161.35 86.3985C161.35 86.3985 168.206 85.0514 172.776 86.3985C177.345 87.7456 182.131 89.1018 181.62 91.7108C180.868 95.5209 176.824 99.474 176.824 99.474L157.033 99.9544L146.233 103.166L153.495 120.164L143.704 123.15Z" fill="#263238"/>
<path d="M133.657 107.377L133.403 115.727L141.019 115.879L142.114 105.857L133.657 107.377Z" fill="#F3A890"/>
<path d="M132.949 114.982L133.087 119.385C133.087 119.385 124.41 121.931 124.298 123.232L141.005 123.369L141.519 114.855L132.949 114.982Z" fill="#455A64"/>
<path d="M138.259 118.832C138.42 118.873 138.556 118.962 138.642 119.08C138.728 119.198 138.758 119.339 138.725 119.473C138.679 119.604 138.573 119.716 138.43 119.785C138.287 119.854 138.117 119.877 137.954 119.848C137.784 119.804 137.639 119.71 137.549 119.584C137.459 119.458 137.429 119.309 137.466 119.166C137.531 119.033 137.656 118.925 137.815 118.865C137.975 118.805 138.157 118.797 138.323 118.844" fill="#E0E0E0"/>
<g opacity="0.6">
<path d="M141.004 123.366L140.974 122.262L124.96 122.542C124.96 122.542 124.216 122.8 124.294 123.229L141.004 123.366Z" fill="white"/>
</g>
<path d="M132.818 119.309C132.818 119.376 133.228 119.41 133.627 119.613C134.025 119.817 134.234 120.115 134.312 120.088C134.39 120.06 134.267 119.677 133.779 119.422C133.291 119.166 132.8 119.239 132.818 119.309Z" fill="#263238"/>
<path d="M131.057 119.887C131.038 119.951 131.388 120.067 131.664 120.352C131.94 120.638 132.014 120.933 132.096 120.933C132.178 120.933 132.234 120.553 131.884 120.206C131.534 119.86 131.061 119.823 131.057 119.887Z" fill="#263238"/>
<path d="M130.04 121.59C130.115 121.59 130.234 121.286 130.04 120.909C129.847 120.532 129.456 120.392 129.418 120.446C129.381 120.501 129.616 120.699 129.791 121.003C129.966 121.307 129.958 121.584 130.04 121.59Z" fill="#263238"/>
<path d="M132.986 117.719C133.019 117.78 133.392 117.688 133.854 117.719C134.315 117.749 134.673 117.871 134.718 117.813C134.762 117.755 134.416 117.509 133.872 117.488C133.329 117.467 132.945 117.649 132.986 117.719Z" fill="#263238"/>
<path d="M138.103 84.1939C138.103 84.1939 133.541 83.8898 133.035 87.9401C132.528 91.9905 132.033 110.847 132.033 110.847L142.699 111.57L144.349 92.2915L161.35 86.3984C161.35 86.3984 141.15 83.6769 138.103 84.1939Z" fill="#263238"/>
<path d="M156.91 78.7388C156.91 78.7388 154.143 85.0789 154.676 85.7843C155.209 86.4898 162.325 89.3999 162.325 89.3999L180.146 94.9858C180.146 94.9858 181.974 92.611 181.974 88.9589C181.974 85.3069 175.777 78.7388 175.777 78.7388H156.91Z" fill="#263238"/>
<path d="M162.199 86.0609L162.113 86.0974L161.86 86.1947L160.873 86.5505L157.171 87.8702L144.382 92.3645L144.438 92.2976C144.278 94.2012 144.103 96.2507 143.921 98.3792C143.489 103.354 143.09 107.94 142.773 111.57V111.634H142.695L134.927 111.078L132.789 110.917L132.227 110.868C132.163 110.864 132.099 110.857 132.037 110.847C132.101 110.842 132.166 110.842 132.23 110.847L132.793 110.874L134.934 111.002L142.706 111.503L142.621 111.564C142.926 107.933 143.313 103.354 143.738 98.3732C143.921 96.2446 144.11 94.189 144.263 92.2915V92.2459L144.319 92.2277L157.134 87.785L160.858 86.5079L161.86 86.1734L162.117 86.0913C162.142 86.0781 162.17 86.0678 162.199 86.0609Z" fill="#94C8E0"/>
<path d="M176.351 86.7028C176.181 86.6779 176.013 86.6402 175.852 86.5903L174.507 86.2376C173.05 85.8322 171.556 85.5221 170.038 85.3101C168.513 85.1063 166.957 85.1227 165.439 85.3588C164.817 85.4771 164.203 85.6223 163.599 85.7936C163.743 85.7147 163.898 85.6504 164.061 85.602C164.497 85.4529 164.948 85.3339 165.409 85.2462C166.94 84.9724 168.522 84.9394 170.068 85.1489C171.603 85.3598 173.11 85.6876 174.571 86.1281C175.133 86.2892 175.584 86.4322 175.896 86.5295C176.055 86.5738 176.207 86.632 176.351 86.7028Z" fill="#94C8E0"/>
<path d="M173.848 83.3578C173.328 83.3312 172.807 83.3312 172.287 83.3578C171.807 83.3852 171.237 83.446 170.6 83.5068C169.964 83.5677 169.271 83.6376 168.548 83.7501C167.31 83.9114 166.124 84.2699 165.055 84.8053C164.631 85.0487 164.226 85.3149 163.845 85.602C163.915 85.5009 164.003 85.4087 164.105 85.3283C164.368 85.1005 164.66 84.8966 164.977 84.7201C166.044 84.1449 167.249 83.7624 168.511 83.5981C169.256 83.4856 169.945 83.4187 170.582 83.367C171.219 83.3153 171.792 83.2666 172.28 83.2514C172.666 83.2383 173.052 83.2526 173.435 83.294C173.576 83.296 173.716 83.3176 173.848 83.3578Z" fill="#94C8E0"/>
<path d="M150.315 60.7157C150.315 60.7157 153.499 56.3765 154.385 55.4977C155.096 54.8201 155.988 54.2853 156.992 53.9347C157.389 53.7931 157.806 53.691 158.233 53.6307L162.817 52.8036C162.817 52.8036 162.817 55.3578 166.106 55.516C169.394 55.6741 172.142 51.946 172.142 51.946C172.142 51.946 177.438 52.615 178.704 53.1472C179.971 53.6793 181.963 54.3635 183.062 58.8335L183.829 63.2183L174.701 63.8964L173.826 74.9772L169.297 77.5801C169.297 77.5801 156.743 80.2439 155.942 80.4202C155.142 80.5966 154.873 63.8964 154.873 63.8964C154.873 63.8964 151.648 62.2088 150.315 60.7157Z" fill="white"/>
<path d="M156.322 58.8518C156.251 58.9533 156.192 59.0602 156.147 59.1711C156.042 59.3809 155.908 59.688 155.774 60.0833C155.006 62.0963 154.689 64.206 154.839 66.3109C154.869 66.7154 154.907 67.0407 154.947 67.2627C154.958 67.379 154.983 67.4942 155.022 67.6063C155.04 67.4902 155.04 67.3727 155.022 67.2566C155.003 67.0316 154.985 66.7093 154.974 66.3079C154.896 64.2167 155.209 62.1281 155.901 60.1137C156.031 59.7276 156.147 59.4174 156.229 59.2015C156.279 59.0889 156.31 58.9712 156.322 58.8518Z" fill="#263238"/>
<path d="M175.032 58.5873C175.05 58.7004 175.05 58.8148 175.032 58.9279C175.032 59.1772 175.006 59.4843 174.987 59.8401C174.943 60.652 174.879 61.7072 174.812 62.8809C174.745 64.0547 174.671 65.1372 174.596 65.9217C174.563 66.3079 174.529 66.6211 174.5 66.834C174.495 66.9471 174.474 67.0594 174.436 67.1685C174.417 67.0565 174.417 66.9429 174.436 66.8309C174.436 66.5785 174.459 66.2714 174.474 65.9187C174.514 65.1037 174.57 64.0516 174.63 62.8779C174.69 61.7041 174.783 60.6216 174.861 59.8371C174.902 59.4478 174.939 59.1346 174.969 58.9248C174.974 58.8107 174.995 58.6974 175.032 58.5873Z" fill="#263238"/>
<path d="M156.713 76.9993L173.907 73.9585L174.701 63.9238L182.346 63.3491C182.346 63.3491 181.81 70.194 181.769 72.2465C181.657 78.164 179.222 79.1826 177.982 79.9824C176.742 80.7821 155.942 80.4202 155.942 80.4202L156.713 76.9993Z" fill="#F3A890"/>
<path d="M146.952 78.8178C147.01 78.9145 147.102 78.995 147.216 79.0492C147.33 79.1033 147.461 79.1286 147.592 79.1219C147.649 79.1161 147.706 79.1059 147.76 79.0915C148.133 78.9941 148.106 78.3617 148.106 78.3617L149.928 78.1184C149.928 78.1184 152.296 79.3651 153.138 80.1922C153.979 81.0193 156.117 80.3503 156.117 80.3503L156.862 77.1788L153.51 74.7036C153.51 74.7036 153.715 74.8495 153.484 74.3995C153.253 73.9494 152.199 74.1106 152.199 74.1106C152.035 73.8825 151.346 73.8065 151.346 73.8065L148.404 74.0832C148.103 74.1092 147.812 74.1905 147.554 74.3211C147.296 74.4517 147.077 74.6282 146.915 74.8374L145.671 76.4459C145.671 76.4459 145.015 77.6045 145.12 77.8721C145.169 77.9823 145.265 78.0741 145.392 78.1301C145.518 78.1862 145.665 78.2025 145.805 78.1762C145.805 78.1762 145.95 78.9394 146.196 78.9637C146.447 78.9543 146.693 78.9058 146.922 78.8208L146.952 78.8178Z" fill="#F3A890"/>
<path d="M153.216 76.5402C153.216 76.5676 152.821 76.5402 152.192 76.5585C151.374 76.5904 150.566 76.7142 149.79 76.9264C149.364 77.0433 148.951 77.1877 148.553 77.3582C148.199 77.5224 147.827 77.6623 147.712 77.866C147.687 77.9126 147.678 77.9635 147.683 78.0139C147.689 78.0644 147.71 78.1128 147.745 78.1549C147.799 78.2228 147.877 78.2758 147.969 78.3069C148.052 78.3285 148.138 78.3387 148.226 78.3373C148.226 78.3373 148.132 78.4042 147.942 78.3617C147.83 78.3351 147.731 78.2796 147.659 78.2035C147.609 78.1508 147.577 78.0885 147.564 78.0225C147.552 77.9565 147.56 77.8891 147.589 77.8265C147.669 77.6863 147.799 77.5689 147.961 77.489C148.121 77.4038 148.289 77.3156 148.475 77.2335C149.615 76.719 150.897 76.45 152.199 76.452C152.542 76.4401 152.884 76.4698 153.216 76.5402Z" fill="#AE7461"/>
<path d="M153.421 78.0729C153.421 78.1185 152.222 78.0729 150.751 78.1489C149.279 78.2249 148.095 78.3648 148.084 78.3192C148.331 78.2422 148.589 78.1911 148.851 78.1671C149.476 78.0821 150.107 78.0243 150.739 77.9938C151.372 77.9646 152.006 77.9646 152.639 77.9938C152.903 77.9915 153.166 78.0181 153.421 78.0729Z" fill="#AE7461"/>
<path d="M146.97 78.7571C146.945 78.6736 146.932 78.5878 146.933 78.5017C146.914 78.2678 146.914 78.0331 146.933 77.7992C146.942 77.6354 146.97 77.4725 147.015 77.3127C147.068 77.1246 147.165 76.9469 147.302 76.7897C147.597 76.4282 147.976 76.1181 148.419 75.8774C148.854 75.632 149.327 75.4366 149.827 75.2966C150.24 75.2008 150.667 75.1487 151.097 75.1416C151.469 75.1416 151.756 75.1416 151.957 75.1416C152.063 75.1375 152.168 75.1467 152.27 75.1689C151.884 75.2147 151.494 75.2411 151.104 75.248C150.689 75.2719 150.278 75.3341 149.879 75.4335C149.399 75.574 148.945 75.7663 148.527 76.0052C148.106 76.2389 147.743 76.5361 147.458 76.8809C147.231 77.1602 147.102 77.4853 147.086 77.8205C146.993 78.3892 147.011 78.7601 146.97 78.7571Z" fill="#AE7461"/>
<path d="M151.22 74.3996C151.22 74.4239 150.781 74.433 150.077 74.4999C149.373 74.5668 148.315 74.6246 147.701 75.3848C147.1 75.9544 146.599 76.5888 146.211 77.2701C146.083 77.5664 145.99 77.8718 145.932 78.1823C145.913 78.0978 145.913 78.0114 145.932 77.9269C145.948 77.6942 146.005 77.4647 146.103 77.2458C146.458 76.5379 146.951 75.8816 147.563 75.3027C147.729 75.1265 147.922 74.9681 148.136 74.8314C148.345 74.7082 148.58 74.6175 148.829 74.5638C149.237 74.4765 149.655 74.4226 150.077 74.4026C150.456 74.3621 150.84 74.3611 151.22 74.3996Z" fill="#AE7461"/>
<path d="M152.516 79.6846C152.453 79.6529 152.394 79.6162 152.341 79.5751L151.845 79.2528C151.227 78.8597 150.582 78.4963 149.912 78.1642H149.957L148.136 78.4196L148.199 78.3557C148.204 78.4771 148.191 78.5985 148.162 78.7176C148.14 78.8515 148.069 78.9767 147.957 79.0764C147.889 79.1254 147.805 79.1571 147.715 79.1676C147.63 79.1814 147.543 79.1814 147.458 79.1676C147.283 79.1456 147.123 79.0734 147.008 78.9639C146.978 78.9358 146.951 78.9064 146.926 78.8757V78.8514L147.034 78.8818L146.974 78.9C146.896 78.9244 146.818 78.9487 146.739 78.9669C146.658 78.9888 146.574 79.0061 146.49 79.0186C146.445 79.0216 146.4 79.0216 146.356 79.0186C146.297 79.0241 146.237 79.0145 146.184 78.9913C146.105 78.9404 146.043 78.8732 146.006 78.7966C145.972 78.7267 145.942 78.6598 145.916 78.5899C145.868 78.4519 145.83 78.3118 145.801 78.1702L145.905 78.2311C145.782 78.253 145.654 78.2471 145.534 78.2138C145.415 78.1806 145.309 78.1214 145.227 78.0425C145.143 77.9565 145.098 77.8488 145.101 77.7384C145.111 77.6406 145.134 77.5438 145.168 77.4496C145.302 77.0838 145.47 76.727 145.671 76.3822L146.333 75.5247L146.754 74.9804C146.884 74.7917 147.039 74.6153 147.216 74.4544C147.404 74.2998 147.628 74.1778 147.875 74.0955C148.115 74.0237 148.366 73.9807 148.62 73.9678L151.391 73.7124H151.413C151.58 73.7325 151.744 73.7671 151.901 73.8158C152.07 73.8566 152.217 73.9409 152.322 74.056L152.221 74.0317C152.371 73.975 152.536 73.9493 152.701 73.9567C152.866 73.9641 153.026 74.0045 153.167 74.0743C153.412 74.2208 153.579 74.4385 153.633 74.6824L153.611 74.652L155.867 76.364L156.489 76.8323C156.565 76.8839 156.635 76.9409 156.698 77.0026C156.614 76.9608 156.535 76.9118 156.463 76.8566L155.815 76.4096C155.242 76.0082 154.445 75.4426 153.465 74.7524V74.7311C153.413 74.5196 153.266 74.3319 153.052 74.205C152.932 74.1483 152.797 74.1159 152.658 74.1106C152.519 74.1053 152.381 74.1272 152.255 74.1746L152.192 74.1989L152.154 74.1503C152.065 74.063 151.946 73.9994 151.812 73.9678C151.664 73.9257 151.512 73.8942 151.357 73.8736H151.38L148.605 74.1412C148.366 74.1506 148.129 74.1906 147.905 74.2597C147.681 74.3338 147.478 74.4445 147.309 74.5851C147.14 74.7377 146.994 74.9061 146.873 75.0868C146.732 75.2663 146.594 75.4487 146.453 75.6312C146.225 75.9352 145.998 76.215 145.79 76.4887C145.596 76.8267 145.43 77.1752 145.294 77.5317C145.265 77.6151 145.245 77.7006 145.235 77.7871C145.233 77.8617 145.265 77.9342 145.324 77.9908C145.384 78.0483 145.461 78.0914 145.549 78.1155C145.636 78.1396 145.729 78.1438 145.819 78.1277H145.913V78.2006C145.939 78.336 145.975 78.47 146.021 78.602C146.052 78.72 146.117 78.8304 146.211 78.9244C146.235 78.9273 146.26 78.9273 146.285 78.9244H146.397C146.475 78.9244 146.549 78.897 146.628 78.8787L146.851 78.8149L146.903 78.7966C146.81 78.7662 147.037 78.8362 147.015 78.8271V78.8453C147.033 78.8698 147.053 78.8932 147.075 78.9152C147.165 79.002 147.291 79.0601 147.428 79.0794C147.494 79.0899 147.561 79.0899 147.626 79.0794C147.687 79.074 147.746 79.0539 147.793 79.0217C147.944 78.844 148.015 78.6291 147.994 78.4135V78.3588H148.054L149.879 78.1277H149.901H149.92C150.589 78.4687 151.228 78.8466 151.834 79.2588C152.046 79.4048 152.206 79.5204 152.307 79.6025C152.38 79.6237 152.45 79.6513 152.516 79.6846Z" fill="#AE7461"/>
<path d="M168.783 84.0116H165.893V84.5316L172.224 134.957H175.602L168.783 84.0116Z" fill="#94C8E0"/>
<path d="M168.783 84.0116C168.783 84.0116 168.783 84.1028 168.813 84.2761C168.842 84.4495 168.869 84.711 168.909 85.0485C168.995 85.7266 169.125 86.721 169.282 88.0011C169.617 90.5645 170.105 94.2743 170.708 98.8721C171.926 108.055 173.613 120.784 175.498 134.967L175.594 134.878H172.217L172.313 134.948C169.334 111.215 166.783 91.1332 165.915 84.5316C165.915 84.2913 165.915 84.1484 165.915 84.0116L165.889 84.0329H168.072H168.604H168.779H168.612H168.086L165.889 84.0177H165.859V84.562C166.649 91.1727 169.144 111.257 172.123 134.991V135.064H175.695V134.976C173.781 120.775 172.064 108.031 170.824 98.8325C170.194 94.247 169.706 90.5463 169.334 87.9859C169.159 86.7118 169.021 85.7266 168.928 85.0516C168.88 84.7201 168.842 84.4677 168.82 84.2914C168.798 84.115 168.783 84.0116 168.783 84.0116Z" fill="#263238"/>
<path d="M117.676 84.0116H114.782V84.5437L120.812 134.945H123.78L117.676 84.0116Z" fill="#263238"/>
<path d="M180.868 84.5315L77.7638 84.6227L77.7266 82.3999H180.868V84.5315Z" fill="#94C8E0"/>
<path d="M92.2661 84.0116H95.1598V84.5437L89.134 134.945H86.1621L92.2661 84.0116Z" fill="#94C8E0"/>
<path d="M92.1356 84.6714C92.1356 84.6714 92.1356 84.7596 92.1132 84.9329C92.0909 85.1062 92.0648 85.3586 92.0276 85.6901C91.9494 86.359 91.8376 87.3382 91.6887 88.6001C91.3945 91.127 90.9624 94.7851 90.4299 99.3159C89.3536 108.368 87.8639 120.906 86.2029 134.893L86.121 134.82H89.1003L89.0184 134.878C91.8339 111.543 94.2323 91.7747 95.0144 85.2096V84.6744L95.0367 84.6927H92.8543H92.3143H92.8432H95.0367H95.0591V84.7109C95.0591 84.8508 95.0591 84.9967 95.0591 85.2461C94.2807 91.8143 91.9419 111.586 89.1748 134.927V134.985H86.0391V134.912C87.7261 120.924 89.2419 108.365 90.3368 99.3007C90.888 94.779 91.3349 91.127 91.644 88.6062C91.8004 87.3503 91.9196 86.3742 92.0164 85.7113C92.0574 85.3829 92.0909 85.1336 92.1132 84.9633L92.1356 84.6714Z" fill="#263238"/>
<path d="M134.048 84.2032H131.154V84.7384L137.183 134.945H140.155L134.048 84.2032Z" fill="#94C8E0"/>
<path d="M134.178 84.8782C134.178 84.8782 134.178 84.9664 134.204 85.1366C134.23 85.3069 134.252 85.5624 134.29 85.8938C134.368 86.5567 134.48 87.5328 134.625 88.7917C134.923 91.3095 135.37 94.9524 135.884 99.465C136.96 108.484 138.453 120.982 140.114 134.903L140.196 134.83H137.217L137.295 134.887C134.48 111.64 132.081 91.9481 131.303 85.4073V84.8782H131.288H133.474H134.182H134.014H133.485H131.288H131.266V85.4316C132.033 91.9389 134.379 111.637 137.142 134.887V134.945H140.274V134.872C138.587 120.939 137.072 108.417 135.977 99.3981C135.422 94.8916 134.979 91.2548 134.67 88.7552C134.513 87.5024 134.394 86.5324 134.297 85.8725C134.252 85.5441 134.223 85.2948 134.2 85.1245C134.178 84.9542 134.178 84.8782 134.178 84.8782Z" fill="#263238"/>
<path d="M180.485 84.5467C180.485 84.5042 159.696 84.4707 134.059 84.4707C108.422 84.4707 87.6294 84.5042 87.6294 84.5467C87.6294 84.5893 108.414 84.6227 134.059 84.6227C159.704 84.6227 180.485 84.5893 180.485 84.5467Z" fill="#263238"/>
<path d="M115.896 66.7883L138.543 66.9373C139.288 66.9373 139.98 67.2262 140.092 67.8192L142.565 81.296H154.229C154.41 81.296 154.583 81.3547 154.711 81.459C154.839 81.5634 154.911 81.7049 154.911 81.8525C154.911 82.0001 154.839 82.1416 154.711 82.246C154.583 82.3504 154.41 82.409 154.229 82.409H116.987L114.444 68.1841C114.412 68.0125 114.426 67.8374 114.484 67.6706C114.543 67.5038 114.644 67.3491 114.782 67.217C114.919 67.0848 115.09 66.9781 115.282 66.9042C115.474 66.8303 115.684 66.7908 115.896 66.7883Z" fill="#E0E0E0"/>
<path d="M115.896 66.7883C115.771 66.782 115.645 66.7912 115.524 66.8157C115.176 66.8823 114.87 67.0484 114.66 67.284C114.504 67.4571 114.408 67.6606 114.38 67.8739C114.372 68.129 114.4 68.384 114.462 68.6341C114.559 69.1784 114.667 69.8078 114.79 70.5103L116.89 82.4151V82.4637H116.95L153.097 82.482H154.069C154.246 82.4952 154.424 82.4678 154.583 82.4029C154.744 82.3286 154.868 82.2101 154.933 82.0684C154.996 81.9272 154.994 81.7724 154.93 81.6319C154.865 81.4913 154.74 81.3744 154.579 81.3021C154.422 81.2355 154.245 81.208 154.069 81.2231H142.524L142.613 81.2839C141.72 76.4581 140.889 71.9547 140.144 67.9043C140.123 67.6332 139.971 67.3799 139.723 67.1988C139.477 67.0319 139.177 66.9263 138.859 66.8947C138.556 66.8702 138.251 66.8621 137.947 66.8704H137.057L133.646 66.8522L127.586 66.8218L118.998 66.7853H116.097H116.689L118.998 66.8126L127.623 66.8917L133.683 66.9404L137.094 66.9647H137.984C138.281 66.9574 138.579 66.9656 138.874 66.989C139.165 67.0222 139.438 67.1212 139.664 67.2748C139.774 67.355 139.864 67.4521 139.927 67.5607C139.991 67.6692 140.028 67.7871 140.036 67.9073L142.479 81.2869V81.3477H154.08C154.226 81.3342 154.373 81.3542 154.505 81.4055C154.597 81.4469 154.674 81.5079 154.728 81.582C154.782 81.6561 154.81 81.7406 154.81 81.8267C154.81 81.9128 154.782 81.9973 154.728 82.0714C154.674 82.1454 154.597 82.2064 154.505 82.2478C154.373 82.3003 154.226 82.3214 154.08 82.3086H153.108L116.961 82.3269L117.032 82.3755C116.123 77.3703 115.386 73.3017 114.872 70.4768L114.525 68.6037C114.462 68.3577 114.431 68.107 114.432 67.8556C114.465 67.6085 114.59 67.3755 114.789 67.1879C114.989 67.0004 115.254 66.8673 115.55 66.8066C115.665 66.795 115.78 66.7889 115.896 66.7883Z" fill="#263238"/>
<path d="M129.597 74.4269C129.597 74.6561 129.514 74.8802 129.358 75.0708C129.202 75.2614 128.98 75.4099 128.72 75.4975C128.461 75.5851 128.175 75.6079 127.9 75.5629C127.625 75.518 127.372 75.4073 127.174 75.245C126.975 75.0827 126.84 74.876 126.786 74.651C126.732 74.4261 126.76 74.193 126.868 73.9814C126.976 73.7698 127.159 73.589 127.393 73.4621C127.626 73.3351 127.901 73.2677 128.182 73.2683C128.558 73.2691 128.918 73.3915 129.183 73.6087C129.448 73.8259 129.597 74.1201 129.597 74.4269Z" fill="white"/>
<path d="M141.648 82.2843C141.615 82.2843 140.904 78.8542 140.036 74.6184C139.168 70.3825 138.513 66.9433 138.546 66.9373C138.58 66.9312 139.291 70.3643 140.159 74.6032C141.026 78.842 141.678 82.2782 141.648 82.2843Z" fill="#263238"/>
</svg>
