<svg width="152" height="132" viewBox="0 0 152 132" fill="none" xmlns="http://www.w3.org/2000/svg">
<path d="M64.2971 49.1664H83.5976V49.9465C83.5976 50.7526 83.2773 51.5257 82.7073 52.0957C82.1373 52.6657 81.3642 52.9859 80.5581 52.9859H67.3163C66.5102 52.9859 65.7371 52.6657 65.1671 52.0957C64.5971 51.5257 64.2769 50.7526 64.2769 49.9465V49.1664H64.2971Z" fill="#AAD0FF"/>
<path opacity="0.3" d="M64.2971 49.1664H83.5976V49.9465C83.5976 50.7526 83.2773 51.5257 82.7073 52.0957C82.1373 52.6657 81.3642 52.9859 80.5581 52.9859H67.3163C66.5102 52.9859 65.7371 52.6657 65.1671 52.0957C64.5971 51.5257 64.2769 50.7526 64.2769 49.9465V49.1664H64.2971Z" fill="white"/>
<path d="M77.5387 52.9657H70.3555V123.253H77.5387V52.9657Z" fill="#263238"/>
<path opacity="0.5" d="M77.5387 52.9657H70.3555V123.253H77.5387V52.9657Z" fill="white"/>
<path d="M91.0592 123.253H56.8301V126.328H91.0592V123.253Z" fill="#263238"/>
<path opacity="0.3" d="M91.0592 123.253H56.8301V126.328H91.0592V123.253Z" fill="white"/>
<path d="M91.0644 131.763C92.5639 131.763 93.7796 130.547 93.7796 129.048C93.7796 127.548 92.5639 126.333 91.0644 126.333C89.5648 126.333 88.3491 127.548 88.3491 129.048C88.3491 130.547 89.5648 131.763 91.0644 131.763Z" fill="#263238"/>
<path opacity="0.3" d="M91.0643 130.395C91.8085 130.395 92.4118 129.792 92.4118 129.048C92.4118 128.304 91.8085 127.7 91.0643 127.7C90.3201 127.7 89.7168 128.304 89.7168 129.048C89.7168 129.792 90.3201 130.395 91.0643 130.395Z" fill="black"/>
<path d="M88.3491 127.685L89.7523 129.048H91.0644V126.328H88.3491V127.685Z" fill="#263238"/>
<path opacity="0.2" d="M88.3491 127.685L89.7523 129.048H91.0644V126.328H88.3491V127.685Z" fill="white"/>
<path d="M56.83 131.763C58.3296 131.763 59.5452 130.547 59.5452 129.048C59.5452 127.548 58.3296 126.333 56.83 126.333C55.3304 126.333 54.1147 127.548 54.1147 129.048C54.1147 130.547 55.3304 131.763 56.83 131.763Z" fill="#263238"/>
<path opacity="0.3" d="M56.8299 130.395C57.5741 130.395 58.1774 129.792 58.1774 129.048C58.1774 128.304 57.5741 127.7 56.8299 127.7C56.0857 127.7 55.4824 128.304 55.4824 129.048C55.4824 129.792 56.0857 130.395 56.8299 130.395Z" fill="black"/>
<path d="M59.5504 127.685L58.1421 129.048H56.8301V126.328H59.5504V127.685Z" fill="#263238"/>
<path opacity="0.2" d="M59.5504 127.685L58.1421 129.048H56.8301V126.328H59.5504V127.685Z" fill="white"/>
<path d="M83.025 33.3005H64.8643C62.8919 33.3005 61.293 34.8995 61.293 36.8719V45.5951C61.293 47.5675 62.8919 49.1664 64.8643 49.1664H83.025C84.9974 49.1664 86.5963 47.5675 86.5963 45.5951V36.8719C86.5963 34.8995 84.9974 33.3005 83.025 33.3005Z" fill="#AAD0FF"/>
<path opacity="0.5" d="M83.025 33.3005H64.8643C62.8919 33.3005 61.293 34.8995 61.293 36.8719V45.5951C61.293 47.5675 62.8919 49.1664 64.8643 49.1664H83.025C84.9974 49.1664 86.5963 47.5675 86.5963 45.5951V36.8719C86.5963 34.8995 84.9974 33.3005 83.025 33.3005Z" fill="white"/>
<path d="M79.0738 34.7747H64.3325V45.3215H79.0738V34.7747Z" fill="#E0E0E0"/>
<path d="M84.8892 47.4897C85.6222 47.4897 86.2164 46.8954 86.2164 46.1624C86.2164 45.4294 85.6222 44.8352 84.8892 44.8352C84.1562 44.8352 83.562 45.4294 83.562 46.1624C83.562 46.8954 84.1562 47.4897 84.8892 47.4897Z" fill="#263238"/>
<path d="M85.1168 43.0875C85.7239 43.0875 86.2161 42.8834 86.2161 42.6316C86.2161 42.3798 85.7239 42.1757 85.1168 42.1757C84.5097 42.1757 84.0176 42.3798 84.0176 42.6316C84.0176 42.8834 84.5097 43.0875 85.1168 43.0875Z" fill="#263238"/>
<path d="M85.1168 41.7552C85.7239 41.7552 86.2161 41.5511 86.2161 41.2993C86.2161 41.0475 85.7239 40.8434 85.1168 40.8434C84.5097 40.8434 84.0176 41.0475 84.0176 41.2993C84.0176 41.5511 84.5097 41.7552 85.1168 41.7552Z" fill="#263238"/>
<path d="M85.1168 40.4279C85.7239 40.4279 86.2161 40.2238 86.2161 39.972C86.2161 39.7202 85.7239 39.5161 85.1168 39.5161C84.5097 39.5161 84.0176 39.7202 84.0176 39.972C84.0176 40.2238 84.5097 40.4279 85.1168 40.4279Z" fill="#263238"/>
<path d="M85.1168 39.0957C85.7239 39.0957 86.2161 38.8915 86.2161 38.6398C86.2161 38.388 85.7239 38.1838 85.1168 38.1838C84.5097 38.1838 84.0176 38.388 84.0176 38.6398C84.0176 38.8915 84.5097 39.0957 85.1168 39.0957Z" fill="#263238"/>
<path d="M85.1168 37.7685C85.7239 37.7685 86.2161 37.5644 86.2161 37.3126C86.2161 37.0608 85.7239 36.8567 85.1168 36.8567C84.5097 36.8567 84.0176 37.0608 84.0176 37.3126C84.0176 37.5644 84.5097 37.7685 85.1168 37.7685Z" fill="#263238"/>
<path d="M85.1168 36.4361C85.7239 36.4361 86.2161 36.232 86.2161 35.9802C86.2161 35.7284 85.7239 35.5243 85.1168 35.5243C84.5097 35.5243 84.0176 35.7284 84.0176 35.9802C84.0176 36.232 84.5097 36.4361 85.1168 36.4361Z" fill="#263238"/>
<path d="M81.5054 48.7865C81.7376 48.7865 81.9259 48.5982 81.9259 48.366C81.9259 48.1338 81.7376 47.9456 81.5054 47.9456C81.2732 47.9456 81.085 48.1338 81.085 48.366C81.085 48.5982 81.2732 48.7865 81.5054 48.7865Z" fill="#263238"/>
<path d="M79.6817 48.7865C79.9139 48.7865 80.1021 48.5982 80.1021 48.366C80.1021 48.1338 79.9139 47.9456 79.6817 47.9456C79.4495 47.9456 79.2612 48.1338 79.2612 48.366C79.2612 48.5982 79.4495 48.7865 79.6817 48.7865Z" fill="#263238"/>
<path d="M79.2054 32.6014H64.2007C62.5948 32.6014 61.293 33.9033 61.293 35.5092V44.587C61.293 46.1929 62.5948 47.4947 64.2007 47.4947H79.2054C80.8113 47.4947 82.1131 46.1929 82.1131 44.587V35.5092C82.1131 33.9033 80.8113 32.6014 79.2054 32.6014Z" fill="#AAD0FF"/>
<path opacity="0.2" d="M79.2054 32.6014H64.2007C62.5948 32.6014 61.293 33.9033 61.293 35.5092V44.587C61.293 46.1929 62.5948 47.4947 64.2007 47.4947H79.2054C80.8113 47.4947 82.1131 46.1929 82.1131 44.587V35.5092C82.1131 33.9033 80.8113 32.6014 79.2054 32.6014Z" fill="white"/>
<path d="M80.1119 34.9012H63.395V45.5798H80.1119V34.9012Z" fill="#263238"/>
<path opacity="0.7" d="M80.1119 34.9012H63.395V45.5798H80.1119V34.9012Z" fill="white"/>
<path d="M68.3446 41.0055C68.2318 40.9311 68.1409 40.8279 68.0812 40.7066C68.0126 40.5611 67.9796 40.4014 67.9849 40.2406C67.9796 40.0798 68.0126 39.92 68.0812 39.7745C68.1393 39.6523 68.2306 39.5487 68.3446 39.4757C68.4633 39.4079 68.598 39.3729 68.7347 39.3743C68.8714 39.3724 69.0062 39.4074 69.1247 39.4757C69.2401 39.5472 69.3317 39.6511 69.3881 39.7745C69.4568 39.92 69.4898 40.0798 69.4844 40.2406C69.4898 40.4014 69.4568 40.5611 69.3881 40.7066C69.3302 40.8291 69.2389 40.9327 69.1247 41.0055C69.0062 41.0738 68.8714 41.1088 68.7347 41.1068C68.598 41.1083 68.4633 41.0733 68.3446 41.0055ZM68.9221 40.2406C68.9221 39.962 68.8613 39.8201 68.7347 39.8201C68.608 39.8201 68.5472 39.962 68.5472 40.2406C68.5472 40.5192 68.608 40.661 68.7347 40.661C68.8613 40.661 68.9221 40.5192 68.9221 40.2406Z" fill="#AAD0FF"/>
<path d="M69.986 41.0055C69.8704 40.9328 69.7775 40.8293 69.7175 40.7066C69.6521 40.5601 69.6192 40.4011 69.6212 40.2406C69.6186 40.0801 69.6514 39.9209 69.7175 39.7745C69.7758 39.6508 69.8692 39.5469 69.986 39.4757C70.1026 39.4073 70.2358 39.3723 70.371 39.3744C70.5077 39.3724 70.6425 39.4074 70.761 39.4757C70.8778 39.5469 70.9712 39.6508 71.0295 39.7745C71.0956 39.9209 71.1284 40.0801 71.1258 40.2406C71.1278 40.4011 71.0949 40.5601 71.0295 40.7066C70.9695 40.8293 70.8766 40.9328 70.761 41.0055C70.6425 41.0738 70.5077 41.1088 70.371 41.1068C70.2358 41.1089 70.1026 41.0738 69.986 41.0055ZM70.5635 40.2406C70.5635 39.962 70.4976 39.8201 70.371 39.8201C70.2443 39.8201 70.1835 39.962 70.1835 40.2406C70.1835 40.5192 70.2494 40.6611 70.371 40.6611C70.4925 40.6611 70.5635 40.5192 70.5635 40.2406Z" fill="#AAD0FF"/>
<path d="M68.5419 44.1007C68.4265 44.0292 68.3349 43.9252 68.2785 43.8018C68.2098 43.6563 68.1768 43.4965 68.1822 43.3358C68.1776 43.1767 68.2106 43.0187 68.2785 42.8748C68.3336 42.7505 68.4255 42.6462 68.5419 42.5759C68.6589 42.5036 68.7944 42.4667 68.9319 42.4695C69.0694 42.4675 69.2046 42.5044 69.322 42.5759C69.4371 42.6476 69.5287 42.7515 69.5854 42.8748C69.6533 43.0187 69.6862 43.1767 69.6817 43.3358C69.687 43.4965 69.654 43.6563 69.5854 43.8018C69.5289 43.9261 69.4365 44.0307 69.32 44.102C69.2035 44.1733 69.0684 44.2082 68.9319 44.202C68.7949 44.2064 68.6595 44.1712 68.5419 44.1007ZM69.1194 43.3358C69.1194 43.0571 69.0586 42.9204 68.9319 42.9204C68.8053 42.9204 68.7394 43.0571 68.7394 43.3358C68.7394 43.6144 68.8053 43.7562 68.9319 43.7562C69.0586 43.7562 69.1194 43.6144 69.1194 43.3358Z" fill="#AAD0FF"/>
<path d="M70.1781 44.1007C70.0641 44.0276 69.9728 43.9241 69.9147 43.8018C69.8461 43.6563 69.8131 43.4965 69.8184 43.3358C69.8139 43.1767 69.8468 43.0187 69.9147 42.8748C69.9714 42.7515 70.063 42.6476 70.1781 42.5759C70.2955 42.5044 70.4307 42.4675 70.5682 42.4695C70.7057 42.4667 70.8412 42.5036 70.9582 42.5759C71.0746 42.6462 71.1665 42.7505 71.2216 42.8748C71.2895 43.0187 71.3225 43.1767 71.3179 43.3358C71.3233 43.4965 71.2903 43.6563 71.2216 43.8018C71.1652 43.9252 71.0735 44.0292 70.9582 44.1007C70.8406 44.1712 70.7052 44.2064 70.5682 44.202C70.4312 44.2058 70.2959 44.1707 70.1781 44.1007ZM70.7455 43.3358C70.7455 43.0571 70.6796 42.9204 70.553 42.9204C70.4263 42.9204 70.3655 43.0571 70.3655 43.3358C70.3655 43.6144 70.4263 43.7562 70.553 43.7562C70.6796 43.7562 70.7455 43.6144 70.7455 43.3358Z" fill="#AAD0FF"/>
<path d="M72.6906 44.1007C72.5738 44.0295 72.4804 43.9256 72.4221 43.8018C72.356 43.6554 72.3232 43.4963 72.3258 43.3358C72.3232 43.1769 72.3561 43.0194 72.4221 42.8748C72.4791 42.7502 72.5728 42.6459 72.6906 42.5759C72.8058 42.5037 72.9396 42.4668 73.0756 42.4695C73.2131 42.4667 73.3486 42.5036 73.4656 42.5759C73.5834 42.6459 73.6771 42.7502 73.7341 42.8748C73.8001 43.0194 73.8329 43.1769 73.8304 43.3358C73.833 43.4963 73.8002 43.6554 73.7341 43.8018C73.6758 43.9256 73.5824 44.0295 73.4656 44.1007C73.348 44.1712 73.2126 44.2064 73.0756 44.202C72.9401 44.2065 72.8063 44.1713 72.6906 44.1007ZM73.2782 43.3358C73.2782 43.0571 73.2123 42.9204 73.0857 42.9204C72.959 42.9204 72.8983 43.0571 72.8983 43.3358C72.8983 43.6144 72.959 43.7562 73.0857 43.7562C73.2123 43.7562 73.2782 43.6144 73.2782 43.3358Z" fill="#AAD0FF"/>
<path d="M74.327 44.1007C74.2117 44.0292 74.1201 43.9252 74.0636 43.8018C73.995 43.6563 73.962 43.4965 73.9674 43.3358C73.9628 43.1767 73.9958 43.0187 74.0636 42.8748C74.1187 42.7505 74.2107 42.6462 74.327 42.5759C74.4441 42.5036 74.5795 42.4667 74.7171 42.4695C74.8545 42.4675 74.9898 42.5044 75.1072 42.5759C75.2223 42.6476 75.3139 42.7515 75.3706 42.8748C75.4384 43.0187 75.4714 43.1767 75.4668 43.3358C75.4722 43.4965 75.4392 43.6563 75.3706 43.8018C75.3141 43.9261 75.2216 44.0307 75.1051 44.102C74.9887 44.1733 74.8535 44.2082 74.7171 44.202C74.58 44.2064 74.4446 44.1712 74.327 44.1007ZM74.9045 43.3358C74.9045 43.0571 74.8437 42.9204 74.7171 42.9204C74.5904 42.9204 74.5246 43.0571 74.5246 43.3358C74.5246 43.6144 74.5904 43.7562 74.7171 43.7562C74.8437 43.7562 74.9045 43.6144 74.9045 43.3358Z" fill="#AAD0FF"/>
<path d="M72.9645 41.0055C72.849 40.9328 72.756 40.8293 72.696 40.7066C72.6324 40.5597 72.6012 40.4007 72.6048 40.2406C72.6008 40.0804 72.6319 39.9214 72.696 39.7745C72.7544 39.6508 72.8477 39.5469 72.9645 39.4757C73.0831 39.4074 73.2178 39.3724 73.3546 39.3744C73.4898 39.3723 73.6229 39.4073 73.7396 39.4757C73.8564 39.5469 73.9497 39.6508 74.0081 39.7745C74.0741 39.9209 74.107 40.0801 74.1043 40.2406C74.1063 40.4011 74.0735 40.5601 74.0081 40.7066C73.9481 40.8293 73.8551 40.9328 73.7396 41.0055C73.6229 41.0738 73.4898 41.1089 73.3546 41.1068C73.2178 41.1088 73.0831 41.0738 72.9645 41.0055ZM73.542 40.2406C73.542 39.962 73.4812 39.8201 73.3546 39.8201C73.2279 39.8201 73.1621 39.962 73.1621 40.2406C73.1621 40.5192 73.2279 40.6611 73.3546 40.6611C73.4812 40.6611 73.542 40.5192 73.542 40.2406Z" fill="#AAD0FF"/>
<path d="M74.6005 41.0055C74.4863 40.9326 74.395 40.829 74.337 40.7066C74.2684 40.5611 74.2354 40.4013 74.2408 40.2406C74.2354 40.0798 74.2684 39.92 74.337 39.7745C74.3935 39.6511 74.4851 39.5471 74.6005 39.4756C74.7197 39.4091 74.854 39.3741 74.9905 39.3741C75.1271 39.3741 75.2614 39.4091 75.3806 39.4756C75.4959 39.5471 75.5876 39.6511 75.644 39.7745C75.7126 39.92 75.7456 40.0798 75.7403 40.2406C75.7456 40.4013 75.7126 40.5611 75.644 40.7066C75.5861 40.829 75.4948 40.9326 75.3806 41.0055C75.2614 41.072 75.1271 41.107 74.9905 41.107C74.854 41.107 74.7197 41.072 74.6005 41.0055ZM75.178 40.2406C75.178 39.9619 75.1172 39.8201 74.9905 39.8201C74.8639 39.8201 74.8031 39.9619 74.8031 40.2406C74.8031 40.5192 74.8639 40.661 74.9905 40.661C75.1172 40.661 75.178 40.5192 75.178 40.2406Z" fill="#AAD0FF"/>
<path d="M71.9003 42.7784H72.1384L71.7483 43.8929H71.5103L71.9003 42.7784Z" fill="#AAD0FF"/>
<path d="M73.1266 36.9934H63.9678V37.1099H73.1266V36.9934Z" fill="#AAD0FF"/>
<path d="M73.8 38.042V36.2234H73.7139V38.042V38.1332H73.8H79.3571V38.042H73.8Z" fill="#AAD0FF"/>
<path d="M75.4669 30.4738H69.0841C68.7818 30.4738 68.4919 30.3537 68.2782 30.14C68.0644 29.9262 67.9443 29.6363 67.9443 29.334C67.9443 29.0317 68.0644 28.7418 68.2782 28.5281C68.4919 28.3143 68.7818 28.1942 69.0841 28.1942H75.4669C75.7692 28.1942 76.0591 28.3143 76.2729 28.5281C76.4867 28.7418 76.6067 29.0317 76.6067 29.334C76.6067 29.6363 76.4867 29.9262 76.2729 30.14C76.0591 30.3537 75.7692 30.4738 75.4669 30.4738Z" fill="#AAD0FF"/>
<path opacity="0.1" d="M75.4669 30.4738H69.0841C68.7818 30.4738 68.4919 30.3537 68.2782 30.14C68.0644 29.9262 67.9443 29.6363 67.9443 29.334C67.9443 29.0317 68.0644 28.7418 68.2782 28.5281C68.4919 28.3143 68.7818 28.1942 69.0841 28.1942H75.4669C75.7692 28.1942 76.0591 28.3143 76.2729 28.5281C76.4867 28.7418 76.6067 29.0317 76.6067 29.334C76.6067 29.6363 76.4867 29.9262 76.2729 30.14C76.0591 30.3537 75.7692 30.4738 75.4669 30.4738Z" fill="white"/>
<path d="M67.9441 28.7463V32.6216H67.0322V29.6582C67.0322 29.4163 67.1283 29.1844 67.2993 29.0134C67.4703 28.8424 67.7022 28.7463 67.9441 28.7463Z" fill="#263238"/>
<path opacity="0.3" d="M67.9441 28.7463V32.6216H67.0322V29.6582C67.0322 29.4163 67.1283 29.1844 67.2993 29.0134C67.4703 28.8424 67.7022 28.7463 67.9441 28.7463Z" fill="white"/>
<path d="M76.6064 28.7463V32.6216H77.5183V29.6582C77.5183 29.5384 77.4947 29.4199 77.4489 29.3092C77.403 29.1986 77.3359 29.0981 77.2512 29.0134C77.1665 28.9287 77.066 28.8616 76.9554 28.8158C76.8448 28.7699 76.7262 28.7463 76.6064 28.7463Z" fill="#263238"/>
<path opacity="0.3" d="M76.6064 28.7463V32.6216H77.5183V29.6582C77.5183 29.5384 77.4947 29.4199 77.4489 29.3092C77.403 29.1986 77.3359 29.0981 77.2512 29.0134C77.1665 28.9287 77.066 28.8616 76.9554 28.8158C76.8448 28.7699 76.7262 28.7463 76.6064 28.7463Z" fill="white"/>
<path d="M73.9827 84.4391H22.0894V91.1259H73.9827V84.4391Z" fill="#263238"/>
<path opacity="0.2" d="M73.9827 84.4391H22.0894V91.1259H73.9827V84.4391Z" fill="white"/>
<path d="M16.3046 131.525C19.4996 131.525 22.0897 128.935 22.0897 125.74C22.0897 122.545 19.4996 119.955 16.3046 119.955C13.1096 119.955 10.5195 122.545 10.5195 125.74C10.5195 128.935 13.1096 131.525 16.3046 131.525Z" fill="#263238"/>
<path opacity="0.2" d="M18.9888 125.74C18.9888 126.271 18.8314 126.79 18.5363 127.232C18.2413 127.673 17.822 128.017 17.3314 128.22C16.8408 128.424 16.301 128.477 15.7802 128.373C15.2594 128.27 14.781 128.014 14.4055 127.638C14.03 127.263 13.7743 126.785 13.6707 126.264C13.5671 125.743 13.6203 125.203 13.8235 124.713C14.0267 124.222 14.3708 123.803 14.8124 123.508C15.2539 123.213 15.773 123.055 16.304 123.055C16.6567 123.055 17.0062 123.123 17.3322 123.258C17.6583 123.393 17.9545 123.591 18.2039 123.84C18.4534 124.089 18.6511 124.386 18.7858 124.712C18.9205 125.038 18.9895 125.387 18.9888 125.74Z" fill="black"/>
<path d="M143.203 89.8613L16.4922 109.636L17.0468 113.189L143.757 93.4149L143.203 89.8613Z" fill="#263238"/>
<path opacity="0.3" d="M143.203 89.8613L16.4922 109.636L17.0468 113.189L143.757 93.4149L143.203 89.8613Z" fill="white"/>
<path d="M16.4923 93.4154L143.203 113.19L143.757 109.636L17.0469 89.8617L16.4923 93.4154Z" fill="#263238"/>
<path opacity="0.2" d="M16.4923 93.4154L143.203 113.19L143.757 109.636L17.0469 89.8617L16.4923 93.4154Z" fill="white"/>
<path d="M60.9332 72.5599L19.0751 58.462C18.6169 58.3091 18.1168 58.3436 17.684 58.5581C17.2512 58.7726 16.9209 59.1496 16.7651 59.6069L14.3285 66.8458C14.2292 67.1401 14.1889 67.4512 14.2101 67.7611C14.2312 68.071 14.3133 68.3737 14.4517 68.6519C14.59 68.93 14.7819 69.1781 15.0163 69.3819C15.2508 69.5857 15.5231 69.7413 15.8178 69.8396L57.5037 84.3833H143.332C143.819 84.3833 144.285 84.1901 144.629 83.8462C144.973 83.5023 145.166 83.0359 145.166 82.5495V74.034C145.166 73.84 145.128 73.6479 145.053 73.4688C144.979 73.2896 144.87 73.1268 144.733 72.9899C144.595 72.8529 144.432 72.7445 144.253 72.6707C144.073 72.5969 143.881 72.5592 143.687 72.5599H60.9332Z" fill="#263238"/>
<path d="M10.6002 91.1258H7.83941C7.32525 91.1232 6.83307 90.917 6.47046 90.5525C6.10784 90.188 5.90429 89.6947 5.9043 89.1806V62.8388C5.9043 62.3229 6.10924 61.8281 6.47404 61.4633C6.83885 61.0985 7.33363 60.8936 7.84954 60.8936H8.66512C9.13739 60.8932 9.59366 61.0647 9.94879 61.376C10.3039 61.6874 10.5337 62.1173 10.5952 62.5855L12.5404 77.4433C12.5456 77.5277 12.5456 77.6122 12.5404 77.6966V89.1806C12.5404 89.6956 12.3362 90.1896 11.9724 90.5543C11.6087 90.919 11.1153 91.1245 10.6002 91.1258Z" fill="#AAD0FF"/>
<path opacity="0.5" d="M10.6002 91.1258H7.83941C7.32525 91.1232 6.83307 90.917 6.47046 90.5525C6.10784 90.188 5.90429 89.6947 5.9043 89.1806V62.8388C5.9043 62.3229 6.10924 61.8281 6.47404 61.4633C6.83885 61.0985 7.33363 60.8936 7.84954 60.8936H8.66512C9.13739 60.8932 9.59366 61.0647 9.94879 61.376C10.3039 61.6874 10.5337 62.1173 10.5952 62.5855L12.5404 77.4433C12.5456 77.5277 12.5456 77.6122 12.5404 77.6966V89.1806C12.5404 89.6956 12.3362 90.1896 11.9724 90.5543C11.6087 90.919 11.1153 91.1245 10.6002 91.1258Z" fill="white"/>
<path d="M147.294 89.1046H150.055C150.57 89.1046 151.065 88.8997 151.43 88.5348C151.795 88.17 152 87.6753 152 87.1593V60.8176C152 60.3016 151.795 59.8069 151.43 59.4421C151.065 59.0773 150.57 58.8723 150.055 58.8723H149.264C148.793 58.8732 148.338 59.0453 147.984 59.3565C147.63 59.6677 147.401 60.0969 147.339 60.5643L145.389 75.4221C145.384 75.5064 145.384 75.591 145.389 75.6753V87.1442C145.385 87.6557 145.583 88.1484 145.939 88.5153C146.296 88.8822 146.782 89.0939 147.294 89.1046Z" fill="#AAD0FF"/>
<path opacity="0.5" d="M147.294 89.1046H150.055C150.57 89.1046 151.065 88.8997 151.43 88.5348C151.795 88.17 152 87.6753 152 87.1593V60.8176C152 60.3016 151.795 59.8069 151.43 59.4421C151.065 59.0773 150.57 58.8723 150.055 58.8723H149.264C148.793 58.8732 148.338 59.0453 147.984 59.3565C147.63 59.6677 147.401 60.0969 147.339 60.5643L145.389 75.4221C145.384 75.5064 145.384 75.591 145.389 75.6753V87.1442C145.385 87.6557 145.583 88.1484 145.939 88.5153C146.296 88.8822 146.782 89.0939 147.294 89.1046Z" fill="white"/>
<path d="M64.4388 84.4391H12.5454V91.1259H64.4388V84.4391Z" fill="#AAD0FF"/>
<path opacity="0.4" d="M64.4388 84.4391H12.5454V91.1259H64.4388V84.4391Z" fill="white"/>
<path d="M145.349 84.4391H65.2344V91.1259H145.349V84.4391Z" fill="#AAD0FF"/>
<path opacity="0.4" d="M145.349 84.4391H65.2344V91.1259H145.349V84.4391Z" fill="white"/>
<path d="M145.167 111.911H15.8892V118.668H145.167V111.911Z" fill="#AAD0FF"/>
<path opacity="0.4" d="M145.167 111.911H15.8892V118.668H145.167V111.911Z" fill="white"/>
<path d="M5.65107 50.0225L0.362445 64.3078C-0.177661 65.7805 -0.11198 67.4072 0.545098 68.8315C1.20218 70.2558 2.39706 71.3615 3.86793 71.9064L55.5485 91.0549C57.9902 91.9566 72.772 84.5555 68.6333 79.8647C64.4946 75.1738 53.0156 61.2329 44.5863 58.1276L13.2649 46.5322C11.7923 45.9866 10.1634 46.0477 8.73586 46.7021C7.30832 47.3565 6.19885 48.5507 5.65107 50.0225ZM43.644 64.7739C43.7667 64.4392 43.9567 64.1333 44.2024 63.875C44.4481 63.6168 44.7442 63.4118 45.0724 63.2726C45.4005 63.1335 45.7537 63.0632 46.1102 63.0661C46.4666 63.069 46.8186 63.1451 47.1445 63.2896C51.3034 65.1589 55.0875 68.4009 58.6285 72.5498C59.0031 72.9899 59.2209 73.5421 59.2478 74.1195C59.2746 74.6968 59.1089 75.2668 58.7768 75.7398C58.4446 76.2129 57.9647 76.5622 57.4125 76.733C56.8603 76.9038 56.267 76.8863 55.7258 76.6834L43.6694 72.2205C43.0241 71.9761 42.5018 71.486 42.217 70.8575C41.9322 70.229 41.908 69.5133 42.1497 68.867L43.644 64.7739ZM9.19708 52.8998C9.33925 52.5151 9.55584 52.1623 9.83447 51.8614C10.1131 51.5605 10.4483 51.3175 10.8209 51.1462C11.1935 50.975 11.5962 50.8789 12.006 50.8634C12.4158 50.8478 12.8246 50.9133 13.2091 51.0559L31.9827 58.0061C32.6069 58.2378 33.1404 58.6633 33.505 59.2203C33.8697 59.7773 34.0463 60.4365 34.009 61.1012L33.8571 63.9431C33.8306 64.4317 33.6896 64.9072 33.4455 65.3313C33.2014 65.7553 32.8609 66.116 32.4517 66.3843C32.0424 66.6525 31.5759 66.8207 31.0896 66.8754C30.6034 66.93 30.1111 66.8695 29.6525 66.6988L10.1089 59.47C9.72426 59.3279 9.37141 59.1113 9.07052 58.8326C8.76963 58.554 8.52662 58.2188 8.35536 57.8462C8.18411 57.4736 8.08799 57.0709 8.07248 56.6611C8.05697 56.2513 8.12239 55.8425 8.26499 55.458L9.19708 52.8998Z" fill="#AAD0FF"/>
<path opacity="0.7" d="M5.65107 50.0225L0.362445 64.3078C-0.177661 65.7805 -0.11198 67.4072 0.545098 68.8315C1.20218 70.2558 2.39706 71.3615 3.86793 71.9064L55.5485 91.0549C57.9902 91.9566 72.772 84.5555 68.6333 79.8647C64.4946 75.1738 53.0156 61.2329 44.5863 58.1276L13.2649 46.5322C11.7923 45.9866 10.1634 46.0477 8.73586 46.7021C7.30832 47.3565 6.19885 48.5507 5.65107 50.0225ZM43.644 64.7739C43.7667 64.4392 43.9567 64.1333 44.2024 63.875C44.4481 63.6168 44.7442 63.4118 45.0724 63.2726C45.4005 63.1335 45.7537 63.0632 46.1102 63.0661C46.4666 63.069 46.8186 63.1451 47.1445 63.2896C51.3034 65.1589 55.0875 68.4009 58.6285 72.5498C59.0031 72.9899 59.2209 73.5421 59.2478 74.1195C59.2746 74.6968 59.1089 75.2668 58.7768 75.7398C58.4446 76.2129 57.9647 76.5622 57.4125 76.733C56.8603 76.9038 56.267 76.8863 55.7258 76.6834L43.6694 72.2205C43.0241 71.9761 42.5018 71.486 42.217 70.8575C41.9322 70.229 41.908 69.5133 42.1497 68.867L43.644 64.7739ZM9.19708 52.8998C9.33925 52.5151 9.55584 52.1623 9.83447 51.8614C10.1131 51.5605 10.4483 51.3175 10.8209 51.1462C11.1935 50.975 11.5962 50.8789 12.006 50.8634C12.4158 50.8478 12.8246 50.9133 13.2091 51.0559L31.9827 58.0061C32.6069 58.2378 33.1404 58.6633 33.505 59.2203C33.8697 59.7773 34.0463 60.4365 34.009 61.1012L33.8571 63.9431C33.8306 64.4317 33.6896 64.9072 33.4455 65.3313C33.2014 65.7553 32.8609 66.116 32.4517 66.3843C32.0424 66.6525 31.5759 66.8207 31.0896 66.8754C30.6034 66.93 30.1111 66.8695 29.6525 66.6988L10.1089 59.47C9.72426 59.3279 9.37141 59.1113 9.07052 58.8326C8.76963 58.554 8.52662 58.2188 8.35536 57.8462C8.18411 57.4736 8.08799 57.0709 8.07248 56.6611C8.05697 56.2513 8.12239 55.8425 8.26499 55.458L9.19708 52.8998Z" fill="white"/>
<path d="M18.0928 107.594H19.4048C19.9892 107.594 20.5497 107.827 20.963 108.24C21.3762 108.653 21.6084 109.214 21.6084 109.798V111.91H15.8892V109.798C15.8892 109.214 16.1213 108.653 16.5346 108.24C16.9478 107.827 17.5083 107.594 18.0928 107.594Z" fill="#263238"/>
<path opacity="0.1" d="M18.0928 107.594H19.4048C19.9892 107.594 20.5497 107.827 20.963 108.24C21.3762 108.653 21.6084 109.214 21.6084 109.798V111.91H15.8892V109.798C15.8892 109.214 16.1213 108.653 16.5346 108.24C16.9478 107.827 17.5083 107.594 18.0928 107.594Z" fill="white"/>
<path d="M19.3994 95.4418H18.0874C17.503 95.4418 16.9425 95.2096 16.5292 94.7964C16.116 94.3831 15.8838 93.8226 15.8838 93.2382V91.1258H21.603V93.2382C21.603 93.8226 21.3709 94.3831 20.9576 94.7964C20.5444 95.2096 19.9839 95.4418 19.3994 95.4418Z" fill="#263238"/>
<path opacity="0.1" d="M19.3994 95.4418H18.0874C17.503 95.4418 16.9425 95.2096 16.5292 94.7964C16.116 94.3831 15.8838 93.8226 15.8838 93.2382V91.1258H21.603V93.2382C21.603 93.8226 21.3709 94.3831 20.9576 94.7964C20.5444 95.2096 19.9839 95.4418 19.3994 95.4418Z" fill="white"/>
<path d="M143.165 95.4418H141.838C141.254 95.4418 140.693 95.2097 140.28 94.7964C139.867 94.3832 139.635 93.8227 139.635 93.2383V91.1258H145.384V93.2383C145.384 93.5289 145.327 93.8167 145.215 94.0851C145.103 94.3534 144.94 94.597 144.733 94.8018C144.527 95.0066 144.283 95.1687 144.013 95.2785C143.744 95.3883 143.456 95.4438 143.165 95.4418Z" fill="#263238"/>
<path opacity="0.1" d="M143.165 95.4418H141.838C141.254 95.4418 140.693 95.2097 140.28 94.7964C139.867 94.3832 139.635 93.8227 139.635 93.2383V91.1258H145.384V93.2383C145.384 93.5289 145.327 93.8167 145.215 94.0851C145.103 94.3534 144.94 94.597 144.733 94.8018C144.527 95.0066 144.283 95.1687 144.013 95.2785C143.744 95.3883 143.456 95.4438 143.165 95.4418Z" fill="white"/>
<path d="M141.858 107.595H143.186C143.77 107.595 144.331 107.827 144.744 108.24C145.157 108.653 145.389 109.214 145.389 109.798V111.911H139.64V109.798C139.64 109.507 139.697 109.22 139.809 108.951C139.921 108.683 140.084 108.439 140.29 108.235C140.497 108.03 140.741 107.868 141.01 107.758C141.28 107.648 141.568 107.593 141.858 107.595Z" fill="#263238"/>
<path opacity="0.1" d="M141.858 107.595H143.186C143.77 107.595 144.331 107.827 144.744 108.24C145.157 108.653 145.389 109.214 145.389 109.798V111.911H139.64V109.798C139.64 109.507 139.697 109.22 139.809 108.951C139.921 108.683 140.084 108.439 140.29 108.235C140.497 108.03 140.741 107.868 141.01 107.758C141.28 107.648 141.568 107.593 141.858 107.595Z" fill="white"/>
<path d="M80.8398 105.031C83.0096 104.135 84.0421 101.65 83.1458 99.4799C82.2496 97.3101 79.7641 96.2777 77.5943 97.1739C75.4245 98.0701 74.3921 100.556 75.2883 102.725C76.1845 104.895 78.67 105.928 80.8398 105.031Z" fill="#263238"/>
<path opacity="0.1" d="M80.8398 105.031C83.0096 104.135 84.0421 101.65 83.1458 99.4799C82.2496 97.3101 79.7641 96.2777 77.5943 97.1739C75.4245 98.0701 74.3921 100.556 75.2883 102.725C76.1845 104.895 78.67 105.928 80.8398 105.031Z" fill="white"/>
<path d="M138.12 84.8291H104.722C95.7606 84.8291 80.1531 93.912 74.6517 96.8754C69.1503 99.8389 80.4367 111.911 83.0355 111.911H138.12C138.899 111.911 139.67 111.758 140.39 111.461C141.11 111.163 141.764 110.727 142.314 110.176C142.865 109.626 143.302 108.972 143.601 108.253C143.899 107.533 144.052 106.762 144.052 105.984V90.756C144.052 89.9773 143.899 89.2061 143.601 88.4867C143.302 87.7673 142.865 87.1137 142.314 86.5633C141.764 86.0128 141.11 85.5764 140.39 85.2788C139.67 84.9813 138.899 84.8284 138.12 84.8291ZM103.283 95.761C103.282 96.4533 103.006 97.1169 102.516 97.606C102.026 98.0951 101.362 98.3698 100.669 98.3698H87.8125C87.2365 98.3687 86.6771 98.1773 86.221 97.8255C85.765 97.4737 85.438 96.9811 85.2907 96.4243C85.1434 95.8675 85.1841 95.2777 85.4065 94.7464C85.629 94.2152 86.0206 93.7722 86.5207 93.4864C91.2825 90.8269 95.9582 89.0995 100.502 88.7905C100.858 88.7677 101.215 88.818 101.551 88.9385C101.886 89.0591 102.194 89.2471 102.454 89.4912C102.714 89.7352 102.922 90.03 103.063 90.3573C103.205 90.6847 103.278 91.0376 103.278 91.3943L103.283 95.761ZM139.711 94.9352C139.712 95.3455 139.631 95.7518 139.475 96.1309C139.318 96.5101 139.089 96.8547 138.799 97.145C138.509 97.4353 138.165 97.6656 137.786 97.8228C137.407 97.9799 137.001 98.0608 136.59 98.0608H115.725C115.235 98.0606 114.752 97.9454 114.315 97.7243C113.878 97.5033 113.499 97.1827 113.209 96.7884C112.919 96.394 112.725 95.937 112.644 95.454C112.562 94.9711 112.596 94.4759 112.741 94.0082L113.582 91.293C113.779 90.6552 114.175 90.0973 114.711 89.7007C115.248 89.3042 115.898 89.09 116.566 89.0894H136.601C137.011 89.0894 137.417 89.1703 137.796 89.3274C138.175 89.4845 138.519 89.7149 138.809 90.0052C139.099 90.2955 139.328 90.64 139.485 91.0192C139.641 91.3984 139.722 91.8047 139.721 92.2149L139.711 94.9352Z" fill="#AAD0FF"/>
<path opacity="0.7" d="M138.12 84.8291H104.722C95.7606 84.8291 80.1531 93.912 74.6517 96.8754C69.1503 99.8389 80.4367 111.911 83.0355 111.911H138.12C138.899 111.911 139.67 111.758 140.39 111.461C141.11 111.163 141.764 110.727 142.314 110.176C142.865 109.626 143.302 108.972 143.601 108.253C143.899 107.533 144.052 106.762 144.052 105.984V90.756C144.052 89.9773 143.899 89.2061 143.601 88.4867C143.302 87.7673 142.865 87.1137 142.314 86.5633C141.764 86.0128 141.11 85.5764 140.39 85.2788C139.67 84.9813 138.899 84.8284 138.12 84.8291ZM103.283 95.761C103.282 96.4533 103.006 97.1169 102.516 97.606C102.026 98.0951 101.362 98.3698 100.669 98.3698H87.8125C87.2365 98.3687 86.6771 98.1773 86.221 97.8255C85.765 97.4737 85.438 96.9811 85.2907 96.4243C85.1434 95.8675 85.1841 95.2777 85.4065 94.7464C85.629 94.2152 86.0206 93.7722 86.5207 93.4864C91.2825 90.8269 95.9582 89.0995 100.502 88.7905C100.858 88.7677 101.215 88.818 101.551 88.9385C101.886 89.0591 102.194 89.2471 102.454 89.4912C102.714 89.7352 102.922 90.03 103.063 90.3573C103.205 90.6847 103.278 91.0376 103.278 91.3943L103.283 95.761ZM139.711 94.9352C139.712 95.3455 139.631 95.7518 139.475 96.1309C139.318 96.5101 139.089 96.8547 138.799 97.145C138.509 97.4353 138.165 97.6656 137.786 97.8228C137.407 97.9799 137.001 98.0608 136.59 98.0608H115.725C115.235 98.0606 114.752 97.9454 114.315 97.7243C113.878 97.5033 113.499 97.1827 113.209 96.7884C112.919 96.394 112.725 95.937 112.644 95.454C112.562 94.9711 112.596 94.4759 112.741 94.0082L113.582 91.293C113.779 90.6552 114.175 90.0973 114.711 89.7007C115.248 89.3042 115.898 89.09 116.566 89.0894H136.601C137.011 89.0894 137.417 89.1703 137.796 89.3274C138.175 89.4845 138.519 89.7149 138.809 90.0052C139.099 90.2955 139.328 90.64 139.485 91.0192C139.641 91.3984 139.722 91.8047 139.721 92.2149L139.711 94.9352Z" fill="white"/>
<path d="M127.173 83.7299H111.753V85.1432H127.173V83.7299Z" fill="#263238"/>
<path opacity="0.2" d="M127.173 83.7299H111.753V85.1432H127.173V83.7299Z" fill="white"/>
<path d="M33.9313 82.2633L19.4849 76.8706L18.9906 78.1947L33.437 83.5874L33.9313 82.2633Z" fill="#263238"/>
<path opacity="0.2" d="M33.9313 82.2633L19.4849 76.8706L18.9906 78.1947L33.437 83.5874L33.9313 82.2633Z" fill="white"/>
<path d="M22.0896 120.669L17.8496 126.485H15.8892V118.668H22.0896V120.669Z" fill="#263238"/>
<path opacity="0.1" d="M22.0896 120.669L17.8496 126.485H15.8892V118.668H22.0896V120.669Z" fill="white"/>
<path d="M144.751 131.525C147.946 131.525 150.536 128.935 150.536 125.74C150.536 122.545 147.946 119.955 144.751 119.955C141.556 119.955 138.966 122.545 138.966 125.74C138.966 128.935 141.556 131.525 144.751 131.525Z" fill="#263238"/>
<path opacity="0.2" d="M142.066 125.74C142.066 126.271 142.223 126.79 142.518 127.232C142.813 127.673 143.233 128.017 143.723 128.22C144.214 128.424 144.754 128.477 145.275 128.373C145.795 128.27 146.274 128.014 146.649 127.638C147.025 127.263 147.28 126.785 147.384 126.264C147.488 125.743 147.434 125.203 147.231 124.713C147.028 124.222 146.684 123.803 146.242 123.508C145.801 123.213 145.282 123.055 144.751 123.055C144.398 123.055 144.049 123.125 143.723 123.26C143.398 123.394 143.102 123.592 142.852 123.842C142.603 124.091 142.405 124.387 142.27 124.713C142.135 125.038 142.066 125.387 142.066 125.74Z" fill="black"/>
<path d="M138.971 120.669L143.211 126.485H145.171V118.668H138.971V120.669Z" fill="#263238"/>
<path opacity="0.1" d="M138.971 120.669L143.211 126.485H145.171V118.668H138.971V120.669Z" fill="white"/>
<path d="M113.419 23.4478C113.475 23.6301 113.571 23.9138 113.657 24.1519L113.926 24.9067C114.113 25.4133 114.316 25.9198 114.534 26.4264C114.956 27.4049 115.429 28.3603 115.952 29.2885C116.882 31.0472 118.175 32.5876 119.746 33.8072L120.005 33.9845C120.005 33.9845 120.005 33.9845 120.066 34.0199C120.356 34.0215 120.641 33.9501 120.896 33.8122C121.76 33.3514 122.556 32.7735 123.262 32.095C124.074 31.3473 124.849 30.5595 125.582 29.7343C126.337 28.9086 127.077 28.017 127.776 27.1559L129.802 28.3716C128.756 30.5946 127.441 32.6805 125.886 34.5822C125.032 35.639 124.018 36.5567 122.882 37.3025C122.138 37.7848 121.295 38.093 120.415 38.2042C119.855 38.2628 119.289 38.2112 118.748 38.0523C118.469 37.972 118.199 37.8616 117.943 37.723C117.751 37.6217 117.624 37.5457 117.462 37.4494C116.277 36.7391 115.205 35.8564 114.281 34.8305C113.397 33.8657 112.61 32.8172 111.93 31.6998C111.263 30.622 110.674 29.4979 110.167 28.3362C109.919 27.7587 109.661 27.1761 109.463 26.5885C109.357 26.2947 109.25 25.9958 109.154 25.6919C109.058 25.3879 108.967 25.1093 108.865 24.7345L113.419 23.4478Z" fill="#CE7A63"/>
<path d="M118.364 30.7728L113.409 34.4708C113.409 34.4708 113.217 34.2631 112.903 33.8984L112.036 32.8852C110.111 30.5398 107.3 26.2592 107.275 24.162C107.244 21.0365 110.486 20.5755 114.129 23.777C115.699 25.1549 116.52 27.4446 117.32 28.8428C117.583 29.3088 117.827 29.7191 117.979 30.0383L118.364 30.7728Z" fill="#AAD0FF"/>
<path opacity="0.2" d="M107.244 24.5014C108.364 23.7618 109.179 25.6766 111.393 27.2977C112.381 28.017 114.539 32.7231 114.362 33.7615L113.409 34.4708C113.409 34.4708 107.219 27.6168 107.244 24.5014Z" fill="black"/>
<path d="M127.406 27.6573L128.495 24.1873L131.296 26.2389C131.296 26.2389 129.777 29.3087 128.728 29.0301L127.406 27.6573Z" fill="#CE7A63"/>
<path d="M131.433 22.8854L133.009 24.8205L131.286 26.2592L128.485 24.2075L131.433 22.8854Z" fill="#CE7A63"/>
<path d="M123.429 37.2873C123.429 37.2873 124.265 36.3603 123.723 33.1131C123.181 29.866 122.771 25.7273 123.505 25.3018L130.283 21.386L130.531 33.0625L123.429 37.2873Z" fill="#AAD0FF"/>
<path opacity="0.7" d="M123.429 37.2873C123.429 37.2873 124.265 36.3603 123.723 33.1131C123.181 29.866 122.771 25.7273 123.505 25.3018L130.283 21.386L130.531 33.0625L123.429 37.2873Z" fill="white"/>
<path d="M124.675 37.9155L123.859 25.5703C123.853 25.4901 123.869 25.4096 123.905 25.338C123.942 25.2664 123.998 25.2065 124.067 25.1651L130.881 20.9301C130.909 20.9124 130.942 20.9024 130.976 20.9013C131.009 20.9003 131.043 20.9081 131.073 20.924C131.102 20.9399 131.128 20.9633 131.145 20.992C131.163 21.0206 131.173 21.0534 131.174 21.0872L131.681 33.0828C131.686 33.1571 131.671 33.2314 131.639 33.2981C131.606 33.3649 131.556 33.4217 131.493 33.4627L124.974 38.0624C124.945 38.0797 124.913 38.0895 124.88 38.0909C124.847 38.0924 124.814 38.0855 124.784 38.0709C124.754 38.0562 124.729 38.0343 124.71 38.0072C124.691 37.98 124.679 37.9485 124.675 37.9155Z" fill="#AAD0FF"/>
<path d="M127.806 22.6169C127.745 22.47 127.598 22.237 127.345 22.3788C127.245 22.4621 127.165 22.5669 127.112 22.6853C127.058 22.8038 127.032 22.9328 127.036 23.0627C126.681 23.2755 126.342 23.473 126.114 23.6149C126.089 23.6305 126.07 23.6525 126.058 23.6784C126.045 23.7043 126.04 23.7331 126.043 23.7618L126.164 24.5824C126.17 24.6184 126.184 24.6525 126.206 24.6817C126.228 24.7109 126.257 24.7342 126.29 24.7497C126.323 24.7652 126.359 24.7724 126.395 24.7706C126.432 24.7688 126.467 24.7581 126.499 24.7394L128.788 23.2704C128.873 23.2187 128.941 23.1431 128.984 23.053C129.026 22.9629 129.041 22.8623 129.026 22.7638L128.961 22.1205C128.96 22.1014 128.954 22.0828 128.944 22.0666C128.934 22.0504 128.919 22.037 128.903 22.0279C128.886 22.0187 128.867 22.014 128.848 22.0143C128.829 22.0145 128.81 22.0197 128.793 22.0293L127.806 22.6169ZM127.461 22.5814C127.547 22.546 127.588 22.6422 127.603 22.7334L127.324 22.8955C127.34 22.7689 127.375 22.6169 127.481 22.5814H127.461Z" fill="#263238"/>
<path d="M112.178 48.9182C112.178 48.9182 116.413 74.4394 117.664 83.3398C119.042 93.0863 121.621 128.136 121.621 128.136H115.831C115.831 128.136 111.023 95.4976 108.784 86.0247C106.353 75.7362 100.998 48.9182 100.998 48.9182H112.178Z" fill="#AAD0FF"/>
<path opacity="0.2" d="M112.178 48.9182C112.178 48.9182 116.413 74.4394 117.664 83.3398C119.042 93.0863 121.621 128.136 121.621 128.136H115.831C115.831 128.136 111.023 95.4976 108.784 86.0247C106.353 75.7362 100.998 48.9182 100.998 48.9182H112.178Z" fill="black"/>
<path opacity="0.2" d="M105.38 59.384C107.548 64.7942 107.791 73.9885 106.899 77.7523C105.572 71.567 104.053 64.166 102.882 58.4114C103.308 56.9372 104.068 56.1014 105.38 59.384Z" fill="black"/>
<path d="M112.178 48.9182H95.4105C95.294 47.4238 95.6385 42.5506 95.3801 36.3501C95.2205 31.7514 94.6628 27.1751 93.7135 22.6726C93.6375 22.3332 93.5615 21.9989 93.4805 21.6595C93.4805 21.6595 94.3315 21.4822 95.5524 21.3049C96.5655 21.158 97.8269 21.006 99.073 20.9452C101.445 20.8109 103.823 20.8109 106.195 20.9452C107.295 21.0516 108.364 21.2289 109.235 21.3961C110.329 21.6139 110.972 21.8013 110.972 21.8013C110.972 21.8013 115.081 31.2793 112.178 48.9182Z" fill="#AAD0FF"/>
<path d="M97.8218 128.501H100.957L101.363 121.242H98.2321L97.8218 128.501Z" fill="#CE7A63"/>
<path d="M101.14 128.136H97.5941C97.5344 128.135 97.4767 128.157 97.4331 128.198C97.3895 128.238 97.3637 128.294 97.361 128.354L97.1939 131.14C97.1932 131.213 97.2068 131.285 97.234 131.352C97.2611 131.419 97.3012 131.48 97.352 131.532C97.4028 131.584 97.4633 131.625 97.53 131.653C97.5968 131.682 97.6685 131.697 97.741 131.697C98.9669 131.672 99.5545 131.601 101.1 131.601C102.057 131.601 106.104 131.702 107.422 131.702C108.739 131.702 108.698 130.401 108.141 130.284C105.644 129.752 102.569 129.028 101.657 128.329C101.509 128.212 101.328 128.144 101.14 128.136Z" fill="#263238"/>
<path d="M120.349 128.136H116.844C116.814 128.135 116.784 128.139 116.757 128.15C116.729 128.16 116.703 128.176 116.681 128.196C116.66 128.216 116.642 128.241 116.63 128.268C116.618 128.295 116.611 128.324 116.611 128.354L116.439 131.14C116.438 131.213 116.451 131.285 116.479 131.352C116.506 131.419 116.546 131.48 116.597 131.532C116.647 131.584 116.708 131.625 116.775 131.653C116.841 131.682 116.913 131.697 116.986 131.697C118.211 131.672 118.799 131.601 120.349 131.601C121.302 131.601 125.349 131.702 126.666 131.702C127.983 131.702 127.948 130.4 127.386 130.284C124.888 129.752 121.813 129.028 120.901 128.329C120.744 128.204 120.55 128.136 120.349 128.136Z" fill="#263238"/>
<path opacity="0.2" d="M98.2272 121.242H101.368L101.155 124.985H98.0195L98.2272 121.242Z" fill="black"/>
<path opacity="0.2" d="M95.38 36.3451C95.2203 31.7464 94.6627 27.1701 93.7134 22.6676C94.8329 22.5714 96.7528 22.6676 97.0669 24.4913C97.4114 26.4416 96.9808 31.0159 95.38 36.3451Z" fill="black"/>
<g opacity="0.2">
<path opacity="0.2" d="M98.2272 121.242H101.368L101.155 124.985H98.0195L98.2272 121.242Z" fill="black"/>
</g>
<path d="M106.054 48.9182C106.054 48.9182 106.353 72.8285 105.846 81.7847C105.289 91.597 102.219 128.136 102.219 128.136H96.6873C96.6873 128.136 96.9304 92.3872 96.5809 82.6762C96.206 72.1344 95.2334 48.9182 95.2334 48.9182H106.054Z" fill="#AAD0FF"/>
<path opacity="0.2" d="M106.054 48.9182C106.054 48.9182 106.353 72.8285 105.846 81.7847C105.289 91.597 102.219 128.136 102.219 128.136H96.6873C96.6873 128.136 96.9304 92.3872 96.5809 82.6762C96.206 72.1344 95.2334 48.9182 95.2334 48.9182H106.054Z" fill="black"/>
<path d="M112.553 29.5975L107.614 30.4333L107.097 27.6573L112.036 26.8367L112.553 29.5975Z" fill="white"/>
<path d="M94.7572 46.3854L97.8777 45.8383L96.277 49.4552C96.277 49.4552 93.425 49.4552 93.5567 47.9659L94.7572 46.3854Z" fill="#CE7A63"/>
<path d="M100.208 47.6569L98.7388 50.5747L96.2769 49.4552L97.8776 45.8383L100.208 47.6569Z" fill="#CE7A63"/>
<path d="M96.5201 26.2135L95.7805 27.5002C95.5272 27.9359 95.2739 28.3817 95.046 28.8325C94.5664 29.7241 94.1021 30.6241 93.6529 31.5325C93.2223 32.4444 92.8069 33.3562 92.4321 34.2731C92.2548 34.7341 92.0724 35.1951 91.9255 35.651L91.6874 36.3399L91.4848 37.0238L91.4392 37.196L91.4139 37.2822C91.4139 37.2822 91.4139 37.3176 91.3885 37.3581C91.376 37.4879 91.376 37.6185 91.3885 37.7482C91.4291 38.1477 91.5124 38.5417 91.6368 38.9234C91.9291 39.8425 92.2863 40.7397 92.7056 41.6083C93.5567 43.4269 94.5901 45.2657 95.6032 47.059L93.7492 48.5078C92.2 46.9337 90.8025 45.2173 89.575 43.3813C88.9227 42.4199 88.3566 41.4028 87.883 40.3419C87.6145 39.7359 87.4075 39.1046 87.265 38.4574C87.1829 38.0658 87.1405 37.667 87.1384 37.267C87.1361 37.0279 87.1531 36.789 87.189 36.5527L87.2194 36.3754V36.269L87.265 36.0512C87.727 33.8185 88.4302 31.6427 89.3622 29.562C89.808 28.5488 90.2943 27.5357 90.811 26.5681C91.0745 26.0616 91.3176 25.5955 91.6165 25.1143C91.9154 24.633 92.1788 24.1872 92.5283 23.6807L96.5201 26.2135Z" fill="#CE7A63"/>
<path d="M97.6444 27.3736C96.8619 29.5455 95.9536 31.67 94.9241 33.7362C94.7012 34.2023 94.4935 34.6126 94.3213 34.9469C94.0275 35.5345 93.84 35.8942 93.84 35.8942L87.4927 32.3482C87.4927 32.3482 87.5687 32.0848 87.7156 31.6339C87.8219 31.2945 87.9689 30.8538 88.1462 30.3422C89.2049 27.3027 91.3629 21.9483 93.4804 21.6392C96.6515 21.2036 98.926 23.5693 97.6444 27.3736Z" fill="#AAD0FF"/>
<path d="M99.225 12.9617L101.14 14.5624L103.739 16.7204C103.661 17.0662 103.605 17.4164 103.571 17.7691C103.435 19.1773 103.799 20.459 105.871 20.9453C106.19 21.6241 105.197 24.1772 104.498 24.0404C103.354 24.1975 99.0679 21.8723 98.8096 21.001C100.35 19.4407 99.7518 15.2564 99.225 12.9617Z" fill="#CE7A63"/>
<path opacity="0.2" d="M103.729 16.7001C103.651 17.0458 103.595 17.396 103.561 17.7487C102.594 17.5512 101.302 16.5228 101.165 15.5299C101.122 15.2093 101.114 14.8849 101.14 14.5624L103.729 16.7001Z" fill="black"/>
<path d="M105.491 4.93751C107.036 5.63658 107.898 10.0032 105.927 10.9252C103.957 11.8472 102.563 3.62548 105.491 4.93751Z" fill="#263238"/>
<path d="M98.4399 9.65884C99.1035 12.6983 99.3366 14.5169 101.135 15.9099C101.715 16.3691 102.409 16.6608 103.143 16.7535C103.877 16.8462 104.622 16.7363 105.298 16.4357C105.973 16.1351 106.554 15.6553 106.977 15.0483C107.399 14.4413 107.648 13.7302 107.695 12.9921C107.933 10.1553 106.809 5.64678 103.602 4.78054C102.912 4.57555 102.181 4.5555 101.481 4.72241C100.781 4.88932 100.137 5.23731 99.6145 5.73149C99.0916 6.22567 98.7078 6.84867 98.5016 7.53798C98.2955 8.2273 98.2742 8.9587 98.4399 9.65884Z" fill="#CE7A63"/>
<path d="M94.995 6.52814C93.5108 7.18162 94.3517 9.21298 95.3598 10.5047C96.763 12.298 98.2422 13.1339 99.2502 12.3081C100.157 11.8522 100.77 9.18765 99.9645 7.54129C101.358 6.62439 106.119 8.19477 107.644 4.41573C108.328 2.72378 107.057 -0.113032 104.123 0.0034795C104.026 0.447288 103.838 0.866275 103.571 1.23446C103.363 1.53135 103.126 1.80631 102.862 2.0551C102.585 2.31722 102.283 2.55138 101.96 2.75418C101.118 3.34412 100.078 3.58218 99.0628 3.41778C95.9069 2.72885 93.5108 4.7754 94.995 6.52814Z" fill="#263238"/>
<path d="M104.808 6.78147C105.735 6.54906 106.561 6.01893 107.158 5.27232C107.756 4.52571 108.092 3.60379 108.116 2.64783C108.43 4.86155 106.712 7.08034 104.808 6.78147Z" fill="#263238"/>
<path d="M97.7358 12.8401C98.2304 13.4333 98.9134 13.8392 99.6709 13.99C100.633 14.1521 100.846 13.2657 100.36 12.4045C99.9191 11.6294 98.8908 10.6112 98.0296 10.8392C97.1684 11.0671 97.1127 12.0904 97.7358 12.8401Z" fill="#CE7A63"/>
<path d="M103.247 9.96271C103.288 10.2109 103.45 10.3984 103.617 10.3781C103.784 10.3578 103.881 10.14 103.84 9.87153C103.799 9.60305 103.637 9.43081 103.475 9.45108C103.313 9.47134 103.212 9.70943 103.247 9.96271Z" fill="#263238"/>
<path d="M106.084 9.62334C106.125 9.87156 106.287 10.059 106.454 10.0387C106.621 10.0185 106.717 9.80065 106.682 9.53216C106.646 9.26368 106.479 9.09651 106.312 9.11677C106.145 9.13703 106.049 9.37512 106.084 9.62334Z" fill="#263238"/>
<path d="M105.192 9.85645C105.609 10.5856 106.12 11.2566 106.712 11.8523C106.557 11.9951 106.372 12.1019 106.17 12.1649C105.969 12.228 105.756 12.2458 105.547 12.2171L105.192 9.85645Z" fill="#BA4D3C"/>
<path d="M104.645 13.0123C104.352 13.0163 104.06 12.961 103.789 12.8495C103.517 12.7381 103.271 12.5729 103.065 12.3639C103.052 12.3492 103.045 12.3303 103.045 12.3107C103.045 12.2912 103.052 12.2723 103.065 12.2575C103.071 12.2501 103.079 12.2441 103.087 12.24C103.096 12.2359 103.106 12.2338 103.115 12.2338C103.125 12.2338 103.135 12.2359 103.143 12.24C103.152 12.2441 103.16 12.2501 103.166 12.2575C103.395 12.4803 103.67 12.6485 103.973 12.7494C104.276 12.8503 104.597 12.8813 104.914 12.8401C104.923 12.8387 104.933 12.8391 104.942 12.8414C104.951 12.8437 104.96 12.8478 104.967 12.8535C104.975 12.8591 104.981 12.8662 104.986 12.8744C104.991 12.8825 104.994 12.8915 104.995 12.9009C104.996 12.9208 104.991 12.9407 104.978 12.9566C104.966 12.9725 104.949 12.9833 104.929 12.987L104.645 13.0123Z" fill="#263238"/>
<path d="M102.229 9.15218C102.206 9.15955 102.181 9.15955 102.158 9.15218C102.124 9.1339 102.098 9.10289 102.087 9.0659C102.076 9.02891 102.079 8.98891 102.097 8.95461C102.206 8.74635 102.365 8.56835 102.559 8.43661C102.754 8.30486 102.978 8.2235 103.212 8.19983C103.231 8.19843 103.251 8.20107 103.269 8.20757C103.288 8.21407 103.304 8.2243 103.319 8.23761C103.333 8.25092 103.344 8.26703 103.352 8.28494C103.36 8.30284 103.364 8.32215 103.364 8.34166C103.365 8.36097 103.363 8.38035 103.357 8.3987C103.35 8.41705 103.341 8.43401 103.328 8.44861C103.315 8.4632 103.3 8.47513 103.282 8.48373C103.265 8.49233 103.246 8.49742 103.227 8.4987C103.045 8.5197 102.87 8.5852 102.719 8.68944C102.568 8.79368 102.445 8.93345 102.361 9.09646C102.345 9.11584 102.325 9.13107 102.302 9.14078C102.279 9.1505 102.254 9.15442 102.229 9.15218Z" fill="#263238"/>
<path d="M107.158 8.50887C107.133 8.50868 107.109 8.50261 107.087 8.49117C107.065 8.47972 107.046 8.46322 107.031 8.44302C106.929 8.2833 106.791 8.14916 106.628 8.05083C106.466 7.9525 106.283 7.89259 106.094 7.87566C106.055 7.87434 106.017 7.85776 105.99 7.8294C105.963 7.80104 105.947 7.76313 105.947 7.72368C105.947 7.68472 105.963 7.64736 105.99 7.61981C106.018 7.59226 106.055 7.57678 106.094 7.57678C106.332 7.59261 106.563 7.66412 106.768 7.78556C106.973 7.907 107.146 8.07494 107.274 8.27585C107.296 8.30815 107.303 8.34756 107.296 8.38549C107.288 8.42343 107.266 8.45685 107.234 8.47848C107.212 8.49613 107.186 8.50674 107.158 8.50887Z" fill="#263238"/>
<path d="M109.306 36.6237C109.88 36.6237 110.345 36.1588 110.345 35.5852C110.345 35.0117 109.88 34.5468 109.306 34.5468C108.733 34.5468 108.268 35.0117 108.268 35.5852C108.268 36.1588 108.733 36.6237 109.306 36.6237Z" fill="#263238"/>
<g opacity="0.6">
<path d="M109.306 36.6237C109.88 36.6237 110.345 36.1588 110.345 35.5852C110.345 35.0117 109.88 34.5468 109.306 34.5468C108.733 34.5468 108.268 35.0117 108.268 35.5852C108.268 36.1588 108.733 36.6237 109.306 36.6237Z" fill="white"/>
</g>
<path d="M105.344 27.0039C105.374 26.3614 105.446 25.7217 105.562 25.0891C105.937 22.7234 106.358 20.0487 102.827 18.5036C102.393 18.2746 101.908 18.1575 101.417 18.1628C100.926 18.1681 100.444 18.2957 100.015 18.534C98.2119 19.6181 97.7459 22.7639 97.6547 23.5997C97.3398 23.5626 97.0206 23.5986 96.7218 23.7049C96.4231 23.8112 96.153 23.985 95.9323 24.2127C94.6406 25.5906 95.2333 28.7718 95.2586 28.8985C95.2696 28.9497 95.3 28.9947 95.3435 29.024C95.3869 29.0532 95.44 29.0646 95.4916 29.0555C95.5173 29.0507 95.5418 29.0408 95.5636 29.0264C95.5854 29.012 95.6042 28.9935 95.6188 28.9718C95.6334 28.9501 95.6435 28.9258 95.6487 28.9001C95.6538 28.8745 95.6538 28.8481 95.6487 28.8225C95.6487 28.7921 95.0661 25.7172 96.2211 24.4862C96.4241 24.2801 96.6758 24.1284 96.9529 24.0452C97.23 23.9619 97.5236 23.9499 97.8067 24.0101C98.1055 24.0289 98.3956 24.1187 98.6528 24.272C98.9101 24.4252 99.1271 24.6376 99.2858 24.8915C100.299 26.5125 99.1491 29.7293 99.1389 29.7647C99.1301 29.7893 99.1263 29.8154 99.1277 29.8415C99.129 29.8676 99.1355 29.8932 99.1469 29.9168C99.1582 29.9403 99.174 29.9614 99.1935 29.9788C99.2131 29.9962 99.2358 30.0095 99.2605 30.018C99.2822 30.0228 99.3047 30.0228 99.3264 30.018C99.3673 30.0175 99.407 30.0047 99.4405 29.9812C99.4739 29.9577 99.4995 29.9246 99.5138 29.8863C99.5645 29.7495 100.719 26.4568 99.6252 24.6737C99.4483 24.4057 99.2162 24.1786 98.9446 24.0074C98.6729 23.8362 98.3679 23.7248 98.0498 23.6808C98.141 22.9159 98.5918 19.8967 100.223 18.919C100.599 18.7155 101.019 18.6089 101.446 18.6089C101.874 18.6089 102.294 18.7155 102.67 18.919C105.917 20.3222 105.537 22.7284 105.172 25.0536C105.052 25.7044 104.977 26.3629 104.949 27.0242C104.899 30.2257 105.922 35.337 108.88 35.4434V35.0432C106.12 34.9166 105.304 29.5722 105.344 27.0039Z" fill="#263238"/>
<path opacity="0.2" d="M105.344 27.0039C105.374 26.3614 105.446 25.7217 105.562 25.0891C105.937 22.7234 106.358 20.0487 102.827 18.5036C102.393 18.2746 101.908 18.1575 101.417 18.1628C100.926 18.1681 100.444 18.2957 100.015 18.534C98.2119 19.6181 97.7459 22.7639 97.6547 23.5997C97.3398 23.5626 97.0206 23.5986 96.7218 23.7049C96.4231 23.8112 96.153 23.985 95.9323 24.2127C94.6406 25.5906 95.2333 28.7718 95.2586 28.8985C95.2696 28.9497 95.3 28.9947 95.3435 29.024C95.3869 29.0532 95.44 29.0646 95.4916 29.0555C95.5173 29.0507 95.5418 29.0408 95.5636 29.0264C95.5854 29.012 95.6042 28.9935 95.6188 28.9718C95.6334 28.9501 95.6435 28.9258 95.6487 28.9001C95.6538 28.8745 95.6538 28.8481 95.6487 28.8225C95.6487 28.7921 95.0661 25.7172 96.2211 24.4862C96.4241 24.2801 96.6758 24.1284 96.9529 24.0452C97.23 23.9619 97.5236 23.9499 97.8067 24.0101C98.1055 24.0289 98.3956 24.1187 98.6528 24.272C98.9101 24.4252 99.1271 24.6376 99.2858 24.8915C100.299 26.5125 99.1491 29.7293 99.1389 29.7647C99.1301 29.7893 99.1263 29.8154 99.1277 29.8415C99.129 29.8676 99.1355 29.8932 99.1469 29.9168C99.1582 29.9403 99.174 29.9614 99.1935 29.9788C99.2131 29.9962 99.2358 30.0095 99.2605 30.018C99.2822 30.0228 99.3047 30.0228 99.3264 30.018C99.3673 30.0175 99.407 30.0047 99.4405 29.9812C99.4739 29.9577 99.4995 29.9246 99.5138 29.8863C99.5645 29.7495 100.719 26.4568 99.6252 24.6737C99.4483 24.4057 99.2162 24.1786 98.9446 24.0074C98.6729 23.8362 98.3679 23.7248 98.0498 23.6808C98.141 22.9159 98.5918 19.8967 100.223 18.919C100.599 18.7155 101.019 18.6089 101.446 18.6089C101.874 18.6089 102.294 18.7155 102.67 18.919C105.917 20.3222 105.537 22.7284 105.172 25.0536C105.052 25.7044 104.977 26.3629 104.949 27.0242C104.899 30.2257 105.922 35.337 108.88 35.4434V35.0432C106.12 34.9166 105.304 29.5722 105.344 27.0039Z" fill="white"/>
<path d="M99.5393 29.5317L98.9922 29.4203C98.9922 29.4203 98.5768 30.2967 98.9213 30.4334C99.2658 30.5702 99.7268 29.9927 99.5393 29.5317Z" fill="#263238"/>
<g opacity="0.6">
<path d="M99.5393 29.5317L98.9922 29.4203C98.9922 29.4203 98.5768 30.2967 98.9213 30.4334C99.2658 30.5702 99.7268 29.9927 99.5393 29.5317Z" fill="white"/>
</g>
<path d="M95.3651 28.554H95.9223C95.9223 28.554 96.1604 29.4962 95.7956 29.5671C95.4309 29.638 95.0915 28.9643 95.3651 28.554Z" fill="#263238"/>
<g opacity="0.6">
<path d="M95.3651 28.554H95.9223C95.9223 28.554 96.1604 29.4962 95.7956 29.5671C95.4309 29.638 95.0915 28.9643 95.3651 28.554Z" fill="white"/>
</g>
<path d="M109.66 35.1293C109.66 35.2445 109.626 35.3572 109.562 35.453C109.498 35.5488 109.407 35.6234 109.301 35.6675C109.194 35.7116 109.077 35.7232 108.964 35.7007C108.851 35.6782 108.747 35.6227 108.666 35.5412C108.584 35.4598 108.529 35.356 108.506 35.243C108.484 35.13 108.495 35.0128 108.539 34.9064C108.584 34.7999 108.658 34.7089 108.754 34.6449C108.85 34.5809 108.962 34.5468 109.078 34.5468C109.232 34.5468 109.38 34.6081 109.49 34.7174C109.599 34.8266 109.66 34.9748 109.66 35.1293Z" fill="#263238"/>
<g opacity="0.7">
<path d="M109.66 35.1293C109.66 35.2445 109.626 35.3572 109.562 35.453C109.498 35.5488 109.407 35.6234 109.301 35.6675C109.194 35.7116 109.077 35.7232 108.964 35.7007C108.851 35.6782 108.747 35.6227 108.666 35.5412C108.584 35.4598 108.529 35.356 108.506 35.243C108.484 35.13 108.495 35.0128 108.539 34.9064C108.584 34.7999 108.658 34.7089 108.754 34.6449C108.85 34.5809 108.962 34.5468 109.078 34.5468C109.232 34.5468 109.38 34.6081 109.49 34.7174C109.599 34.8266 109.66 34.9748 109.66 35.1293Z" fill="white"/>
</g>
<path d="M103.541 18.0071H99.7772C99.7558 18.6033 99.657 19.1941 99.4834 19.7649H103.936C103.62 19.2364 103.481 18.6202 103.541 18.0071Z" fill="#CE7A63"/>
</svg>
