<svg width="43" height="119" viewBox="0 0 43 119" fill="none" xmlns="http://www.w3.org/2000/svg">
<path d="M10.3578 100.461C10.4118 98.9889 9.33715 84.4397 9.33715 84.4397L16.413 89.5724C14.9409 98.243 14.6514 100.284 14.6269 101.702C14.6563 101.821 14.6695 101.943 14.6661 102.066C14.6661 103.749 12.7573 104.656 11.2754 105.78C10.0168 106.767 8.67549 107.644 7.26641 108.4C6.19178 108.94 4.00328 108.989 3.7334 108.297C5.53426 106.919 8.14968 104.863 9.59233 103.282C10.2793 102.532 10.3087 101.938 10.3578 100.461Z" fill="#FFA8A7"/>
<path d="M0.656551 110.108C0.562601 110.355 0.538075 110.622 0.58566 110.882C0.633245 111.141 0.751112 111.383 0.926428 111.58C2.24698 112.499 3.87268 112.868 5.46047 112.611C7.70786 112.321 8.92479 111.629 9.82767 110.869C10.7306 110.108 11.9867 109.053 13.0025 108.827C13.8165 108.676 14.5913 108.361 15.2793 107.9C15.5787 107.61 15.5394 106.31 15.5394 106.31L0.656551 110.108Z" fill="#455A64"/>
<path d="M14.6418 101.29C14.7247 101.294 14.8038 101.326 14.8656 101.382C14.9273 101.437 14.9679 101.512 14.9803 101.594C15.0539 101.953 15.1275 102.993 15.2747 103.582C15.5066 104.616 15.5811 105.68 15.4956 106.737C15.3729 107.404 13.8321 107.866 12.8458 108.238C11.6864 108.745 10.6109 109.425 9.65627 110.255C8.27691 111.287 6.62966 111.9 4.91122 112.022C3.17905 112.022 1.22608 111.448 0.774641 110.643C0.225059 109.661 0.656873 109.073 3.22813 107.88C3.71883 107.655 5.42644 106.644 6.01037 106.276C7.58551 105.294 9.14594 103.901 9.87218 102.144C9.93062 101.929 10.0604 101.74 10.2402 101.609C10.395 101.543 10.5668 101.527 10.7309 101.565C11.1615 101.625 11.5802 101.75 11.9724 101.938C12.3158 102.1 12.8065 102.291 12.7967 102.733C12.791 102.888 12.7578 103.041 12.6986 103.184C12.6691 103.273 12.6446 103.395 12.7231 103.444C12.8016 103.493 12.8998 103.444 12.9636 103.381C13.2179 103.122 13.4509 102.843 13.6604 102.546C13.777 102.391 13.914 102.253 14.0676 102.134C14.2186 102.048 14.3645 101.953 14.5043 101.85C14.6712 101.693 14.6368 101.496 14.6418 101.29Z" fill="#F5BC49"/>
<path opacity="0.9" d="M14.6418 101.29C14.7247 101.294 14.8038 101.326 14.8656 101.382C14.9273 101.437 14.9679 101.512 14.9803 101.594C15.0539 101.953 15.1275 102.993 15.2747 103.582C15.5066 104.616 15.5811 105.68 15.4956 106.737C15.3729 107.404 13.8321 107.866 12.8458 108.238C11.6864 108.745 10.6109 109.425 9.65627 110.255C8.27691 111.287 6.62966 111.9 4.91122 112.022C3.17905 112.022 1.22608 111.448 0.774641 110.643C0.225059 109.661 0.656873 109.073 3.22813 107.88C3.71883 107.655 5.42644 106.644 6.01037 106.276C7.58551 105.294 9.14594 103.901 9.87218 102.144C9.93062 101.929 10.0604 101.74 10.2402 101.609C10.395 101.543 10.5668 101.527 10.7309 101.565C11.1615 101.625 11.5802 101.75 11.9724 101.938C12.3158 102.1 12.8065 102.291 12.7967 102.733C12.791 102.888 12.7578 103.041 12.6986 103.184C12.6691 103.273 12.6446 103.395 12.7231 103.444C12.8016 103.493 12.8998 103.444 12.9636 103.381C13.2179 103.122 13.4509 102.843 13.6604 102.546C13.777 102.391 13.914 102.253 14.0676 102.134C14.2186 102.048 14.3645 101.953 14.5043 101.85C14.6712 101.693 14.6368 101.496 14.6418 101.29Z" fill="white"/>
<path d="M9.66557 110.255C10.117 109.887 10.593 109.529 11.069 109.21C11.069 109.21 8.04627 111.05 6.82443 110.192C6.59807 110.047 6.43295 109.824 6.36055 109.565C6.28816 109.306 6.31355 109.03 6.43188 108.788C6.43188 108.582 4.50834 107.689 3.74285 107.596C3.52695 107.714 3.3503 107.812 3.25216 107.861C0.680901 109.053 0.244181 109.632 0.798669 110.623C1.25011 111.428 2.66332 112.056 4.9058 112.056C6.34845 112.076 8.60076 111.129 9.66557 110.255Z" fill="#F5BC49"/>
<path opacity="0.8" d="M9.66557 110.255C10.117 109.887 10.593 109.529 11.069 109.21C11.069 109.21 8.04627 111.05 6.82443 110.192C6.59807 110.047 6.43295 109.824 6.36055 109.565C6.28816 109.306 6.31355 109.03 6.43188 108.788C6.43188 108.582 4.50834 107.689 3.74285 107.596C3.52695 107.714 3.3503 107.812 3.25216 107.861C0.680901 109.053 0.244181 109.632 0.798669 110.623C1.25011 111.428 2.66332 112.056 4.9058 112.056C6.34845 112.076 8.60076 111.129 9.66557 110.255Z" fill="white"/>
<path d="M6.63344 108.199C5.03377 108.842 5.71584 109.141 6.14275 109.205C6.56965 109.269 9.2832 107.694 10.9221 106.398C12.5611 105.103 13.7142 103.562 14.357 103.062C14.5926 102.875 14.8477 102.649 15.0783 102.438C15.0342 102.085 14.9998 101.761 14.9655 101.594C14.953 101.512 14.9125 101.437 14.8507 101.382C14.789 101.326 14.7098 101.294 14.6269 101.29C14.6269 101.496 14.6563 101.693 14.4993 101.85C14.3594 101.953 14.2136 102.048 14.0626 102.134C13.9089 102.253 13.7719 102.391 13.6553 102.546C13.4459 102.843 13.2128 103.122 12.9585 103.381C11.18 105.379 9.03231 107.015 6.63344 108.199Z" fill="#F5BC49"/>
<path d="M6.27537 108.97C6.31318 108.969 6.34951 108.955 6.37841 108.93C6.40635 108.9 6.4219 108.861 6.4219 108.82C6.4219 108.779 6.40635 108.74 6.37841 108.71C5.99989 108.316 5.54078 108.01 5.03258 107.811C4.52437 107.612 3.97911 107.525 3.43423 107.556C3.41361 107.559 3.39364 107.565 3.37545 107.575C3.35727 107.585 3.34122 107.598 3.32824 107.615C3.31525 107.631 3.30558 107.649 3.29977 107.669C3.29396 107.689 3.29214 107.71 3.29439 107.731C3.29665 107.751 3.30294 107.771 3.31292 107.789C3.32289 107.808 3.33635 107.824 3.35253 107.837C3.3687 107.85 3.38727 107.859 3.40719 107.865C3.4271 107.871 3.44796 107.873 3.46858 107.871C3.95829 107.85 4.44682 107.932 4.90304 108.112C5.35926 108.291 5.77315 108.563 6.11835 108.911C6.13628 108.934 6.16055 108.953 6.18834 108.963C6.21613 108.973 6.24631 108.976 6.27537 108.97Z" fill="#FAFAFA"/>
<path d="M7.66879 108.111C7.70579 108.11 7.74167 108.098 7.77185 108.077C7.78699 108.062 7.79901 108.044 7.80724 108.025C7.81546 108.006 7.81969 107.985 7.81969 107.964C7.81969 107.943 7.81546 107.922 7.80724 107.902C7.79901 107.883 7.78699 107.866 7.77185 107.851C7.39196 107.46 6.93261 107.154 6.42475 106.955C5.91689 106.756 5.37231 106.668 4.82767 106.698C4.78683 106.703 4.74957 106.723 4.72387 106.756C4.69818 106.788 4.6861 106.829 4.69026 106.87C4.6921 106.89 4.69802 106.91 4.70767 106.929C4.71732 106.947 4.73052 106.963 4.74649 106.976C4.76245 106.99 4.78088 107 4.80071 107.006C4.82054 107.012 4.84136 107.014 4.862 107.012C5.35178 106.991 5.84048 107.073 6.29679 107.252C6.7531 107.431 7.16694 107.704 7.51177 108.052C7.53007 108.075 7.55439 108.093 7.58207 108.103C7.60975 108.114 7.63974 108.116 7.66879 108.111Z" fill="#FAFAFA"/>
<path d="M9.06725 107.296C9.10298 107.297 9.13773 107.285 9.16539 107.262C9.19477 107.232 9.2112 107.191 9.2112 107.149C9.2112 107.107 9.19477 107.067 9.16539 107.036C8.78569 106.645 8.32638 106.339 7.81847 106.14C7.31056 105.941 6.76588 105.854 6.22121 105.883C6.17908 105.888 6.14057 105.909 6.11396 105.942C6.08735 105.975 6.07476 106.018 6.0789 106.06C6.08132 106.081 6.08783 106.101 6.09805 106.119C6.10828 106.137 6.12202 106.153 6.13846 106.166C6.1549 106.178 6.17371 106.188 6.19382 106.193C6.21392 106.199 6.2349 106.2 6.25554 106.197C6.74525 106.177 7.23378 106.259 7.69 106.438C8.14622 106.617 8.56013 106.89 8.90532 107.238C8.92271 107.263 8.9477 107.283 8.97677 107.293C9.00583 107.304 9.03749 107.305 9.06725 107.296Z" fill="#FAFAFA"/>
<path d="M10.3578 106.369C10.3956 106.368 10.432 106.354 10.4609 106.33C10.4888 106.3 10.5043 106.26 10.5043 106.219C10.5043 106.178 10.4888 106.139 10.4609 106.109C10.0819 105.716 9.62276 105.41 9.11466 105.211C8.60655 105.012 8.06149 104.925 7.51667 104.956C7.4962 104.958 7.4763 104.964 7.45818 104.973C7.44006 104.983 7.42411 104.996 7.41126 105.012C7.39842 105.028 7.38897 105.047 7.38347 105.067C7.37797 105.086 7.37655 105.107 7.37928 105.128C7.38045 105.148 7.38593 105.169 7.39536 105.188C7.4048 105.206 7.41798 105.223 7.4341 105.236C7.45022 105.25 7.46893 105.259 7.48904 105.265C7.50916 105.271 7.53027 105.273 7.55103 105.27C8.04073 105.25 8.52927 105.332 8.98549 105.511C9.44171 105.69 9.8556 105.962 10.2008 106.31C10.2191 106.333 10.2434 106.351 10.2711 106.361C10.2988 106.372 10.3288 106.374 10.3578 106.369Z" fill="#FAFAFA"/>
<path d="M11.6289 105.442C11.6583 105.44 11.6866 105.43 11.7111 105.414C11.7355 105.397 11.7552 105.375 11.7682 105.349C11.7811 105.322 11.7869 105.293 11.7848 105.263C11.7828 105.234 11.773 105.206 11.7565 105.181C11.3469 104.757 10.8459 104.431 10.2916 104.228C9.73726 104.026 9.14412 103.953 8.55717 104.014C8.53626 104.015 8.51584 104.02 8.49715 104.03C8.47846 104.039 8.46191 104.052 8.44856 104.068C8.4352 104.085 8.42531 104.103 8.41952 104.123C8.41372 104.144 8.41214 104.165 8.41488 104.185C8.41982 104.228 8.44108 104.266 8.47412 104.293C8.50715 104.319 8.54931 104.332 8.59152 104.328C9.12491 104.274 9.66344 104.341 10.1677 104.523C10.6721 104.705 11.1294 104.997 11.5063 105.378C11.5207 105.397 11.5392 105.412 11.5604 105.423C11.5817 105.434 11.605 105.441 11.6289 105.442Z" fill="#FAFAFA"/>
<path d="M24.0186 89.6215L31.1582 89.4939C31.0551 94.2586 30.2946 99.5483 30.1768 104.023C30.1523 104.863 30.1768 110.564 29.8824 112.297C29.3917 114.897 26.315 114.549 26.1482 112.988C25.9813 111.428 26.3494 104.779 26.3396 104.092C26.3396 101.222 25.0196 96.3833 24.3179 91.231C24.2786 90.9807 24.0529 89.8668 24.0186 89.6215Z" fill="#FFA8A7"/>
<path d="M24.9804 114.073C24.9166 115.604 25.0491 116.634 25.5005 117.582C25.7279 118.026 26.0966 118.383 26.5487 118.595C27.0009 118.807 27.5108 118.863 27.9982 118.754C29.0532 118.592 30.4517 118.028 30.8737 116.747C31.2584 115.581 31.3823 114.345 31.2368 113.126L24.9804 114.073Z" fill="#455A64"/>
<path d="M30.1915 103.474C30.6086 103.552 30.5301 105.604 30.5694 107.674C30.6135 109.892 31.1778 110.864 31.2269 112.684C31.2907 114.765 31.0895 115.668 30.2455 116.84C29.4015 118.013 26.7321 118.97 25.6575 117.066C24.7791 115.516 24.9018 113.901 25.2012 111.86C25.4953 110.136 25.7016 108.398 25.8194 106.654C25.893 105.108 25.9323 103.611 26.3101 103.474C26.3101 103.705 26.3101 103.994 26.3101 104.22C26.3101 104.445 26.2758 105.226 26.5113 105.26C26.5473 105.069 26.5687 104.875 26.5751 104.681C26.564 104.502 26.6239 104.326 26.7419 104.19C26.8822 104.082 27.0554 104.025 27.2326 104.028C27.6581 103.983 28.0856 103.961 28.5134 103.96C28.7282 103.961 28.9428 103.974 29.1562 103.999C29.3383 104.014 29.5171 104.057 29.6861 104.127C29.7346 104.149 29.778 104.18 29.8135 104.22C29.849 104.26 29.8758 104.306 29.8922 104.357C29.9069 104.437 29.9069 104.518 29.8922 104.598C29.8751 104.739 29.8751 104.883 29.8922 105.024C29.8922 105.083 29.9364 105.162 30.0002 105.152C30.064 105.142 30.0738 105.088 30.0787 105.039C30.1081 104.789 30.0787 104.607 30.113 104.318C30.113 104.185 30.113 103.999 30.113 103.866C30.113 103.734 30.1866 103.606 30.1915 103.474Z" fill="#F5BC49"/>
<path opacity="0.9" d="M30.1915 103.474C30.6086 103.552 30.5301 105.604 30.5694 107.674C30.6135 109.892 31.1778 110.864 31.2269 112.684C31.2907 114.765 31.0895 115.668 30.2455 116.84C29.4015 118.013 26.7321 118.97 25.6575 117.066C24.7791 115.516 24.9018 113.901 25.2012 111.86C25.4953 110.136 25.7016 108.398 25.8194 106.654C25.893 105.108 25.9323 103.611 26.3101 103.474C26.3101 103.705 26.3101 103.994 26.3101 104.22C26.3101 104.445 26.2758 105.226 26.5113 105.26C26.5473 105.069 26.5687 104.875 26.5751 104.681C26.564 104.502 26.6239 104.326 26.7419 104.19C26.8822 104.082 27.0554 104.025 27.2326 104.028C27.6581 103.983 28.0856 103.961 28.5134 103.96C28.7282 103.961 28.9428 103.974 29.1562 103.999C29.3383 104.014 29.5171 104.057 29.6861 104.127C29.7346 104.149 29.778 104.18 29.8135 104.22C29.849 104.26 29.8758 104.306 29.8922 104.357C29.9069 104.437 29.9069 104.518 29.8922 104.598C29.8751 104.739 29.8751 104.883 29.8922 105.024C29.8922 105.083 29.9364 105.162 30.0002 105.152C30.064 105.142 30.0738 105.088 30.0787 105.039C30.1081 104.789 30.0787 104.607 30.113 104.318C30.113 104.185 30.113 103.999 30.113 103.866C30.113 103.734 30.1866 103.606 30.1915 103.474Z" fill="white"/>
<path d="M31.1927 112.09C31.1927 112.39 31.2565 114.377 30.702 114.676C30.1475 114.976 29.9218 113.425 29.9218 113.425C29.9218 113.425 28.6117 112.875 26.5507 113.543C26.6194 113.867 26.2122 114.887 25.692 114.613C25.1719 114.338 25.2013 112.066 25.2013 112.036C24.9216 113.999 24.8333 115.56 25.692 117.066C26.7666 118.97 29.436 118.008 30.28 116.84C31.124 115.672 31.3252 114.765 31.2614 112.684C31.2222 112.478 31.2075 112.282 31.1927 112.09Z" fill="#F5BC49"/>
<path opacity="0.8" d="M31.1927 112.09C31.1927 112.39 31.2565 114.377 30.702 114.676C30.1475 114.976 29.9218 113.425 29.9218 113.425C29.9218 113.425 28.6117 112.875 26.5507 113.543C26.6194 113.867 26.2122 114.887 25.692 114.613C25.1719 114.338 25.2013 112.066 25.2013 112.036C24.9216 113.999 24.8333 115.56 25.692 117.066C26.7666 118.97 29.436 118.008 30.28 116.84C31.124 115.672 31.3252 114.765 31.2614 112.684C31.2222 112.478 31.2075 112.282 31.1927 112.09Z" fill="white"/>
<path d="M29.7401 113.543C29.6764 114.284 30.432 114.107 30.5694 113.052C30.7068 111.997 30.383 109.46 30.5694 107.655C30.5302 105.584 30.6087 103.533 30.1916 103.454C30.1891 103.48 30.1891 103.507 30.1916 103.533L30.1425 104.573C30.1425 104.725 30.1425 104.863 30.118 105.024C29.9806 106.536 29.8972 109.485 29.8873 110.878C29.8903 111.769 29.8411 112.658 29.7401 113.543Z" fill="#F5BC49"/>
<path d="M26.767 113.543C26.6735 112.664 26.626 111.782 26.6247 110.898C26.6247 109.514 26.5364 106.6 26.3941 105.078C26.3447 104.795 26.3249 104.507 26.3352 104.22C26.3352 104.009 26.3352 103.729 26.3352 103.523V103.479C26.0555 103.577 25.9573 104.396 25.8936 105.442C25.8936 106.04 25.8936 106.781 25.9524 107.684C26.1389 109.485 25.8101 112.046 25.9524 113.082C26.0947 114.117 26.8406 114.284 26.767 113.543Z" fill="#F5BC49"/>
<path d="M26.4867 113.597H26.5456C27.6161 113.222 28.7823 113.222 29.8529 113.597C29.8906 113.605 29.93 113.599 29.9637 113.58C29.9975 113.562 30.0236 113.532 30.0372 113.496C30.0508 113.459 30.0511 113.42 30.038 113.383C30.0249 113.347 29.9992 113.317 29.9657 113.298C28.8214 112.891 27.5721 112.891 26.4278 113.298C26.3893 113.314 26.3586 113.345 26.3422 113.383C26.3257 113.421 26.3248 113.465 26.3395 113.504C26.353 113.531 26.374 113.555 26.3999 113.571C26.4259 113.588 26.4559 113.597 26.4867 113.597Z" fill="#FAFAFA"/>
<path d="M26.2956 111.948H26.3496C27.5539 111.57 28.8451 111.57 30.0494 111.948C30.0898 111.961 30.1334 111.957 30.171 111.938C30.2086 111.918 30.2371 111.885 30.2506 111.845C30.2576 111.826 30.2605 111.805 30.2593 111.784C30.2581 111.763 30.2528 111.743 30.2437 111.724C30.2346 111.705 30.2218 111.689 30.2061 111.675C30.1905 111.661 30.1722 111.651 30.1525 111.644C28.8757 111.237 27.5037 111.237 26.2269 111.644C26.1924 111.657 26.1635 111.681 26.1453 111.713C26.127 111.745 26.1205 111.782 26.1269 111.819C26.1334 111.855 26.1523 111.888 26.1804 111.911C26.2086 111.935 26.2441 111.948 26.2809 111.948H26.2956Z" fill="#FAFAFA"/>
<path d="M30.1039 110.412C30.1342 110.413 30.1639 110.404 30.1893 110.387C30.2146 110.371 30.2345 110.347 30.2462 110.319C30.263 110.281 30.2643 110.237 30.2496 110.198C30.235 110.158 30.2056 110.126 30.1677 110.108C28.9121 109.625 27.5222 109.625 26.2666 110.108C26.2472 110.116 26.2294 110.127 26.2144 110.141C26.1994 110.156 26.1874 110.173 26.1792 110.193C26.171 110.212 26.1667 110.232 26.1665 110.253C26.1664 110.274 26.1704 110.295 26.1783 110.314C26.1946 110.353 26.2252 110.383 26.2636 110.4C26.302 110.416 26.3453 110.417 26.3844 110.402C26.3844 110.402 28.3472 109.642 30.0352 110.402C30.0572 110.41 30.0806 110.414 30.1039 110.412Z" fill="#FAFAFA"/>
<path d="M30.1382 108.94C30.1685 108.941 30.1983 108.932 30.2236 108.915C30.249 108.899 30.2688 108.875 30.2805 108.847C30.2897 108.828 30.295 108.808 30.2963 108.787C30.2975 108.767 30.2946 108.746 30.2878 108.726C30.2809 108.706 30.2703 108.688 30.2564 108.673C30.2425 108.657 30.2257 108.645 30.2069 108.636C29.5834 108.351 28.9072 108.2 28.2218 108.192C27.5364 108.185 26.857 108.321 26.2274 108.592C26.2086 108.601 26.1917 108.613 26.1779 108.629C26.164 108.644 26.1533 108.662 26.1465 108.682C26.1396 108.702 26.1367 108.722 26.138 108.743C26.1392 108.764 26.1446 108.784 26.1537 108.803C26.1719 108.841 26.204 108.87 26.2434 108.885C26.2827 108.899 26.3263 108.898 26.3647 108.881C26.9521 108.634 27.5839 108.51 28.2212 108.517C28.8585 108.523 29.4875 108.661 30.0695 108.921C30.0899 108.934 30.1139 108.941 30.1382 108.94Z" fill="#FAFAFA"/>
<path d="M30.1724 107.306C30.2077 107.304 30.2414 107.291 30.2685 107.268C30.2955 107.245 30.3144 107.215 30.3221 107.18C30.3299 107.146 30.3262 107.109 30.3116 107.077C30.297 107.045 30.2722 107.019 30.2411 107.002C28.3519 106.07 26.3155 106.963 26.2321 107.002C26.1937 107.019 26.1636 107.05 26.1484 107.089C26.1332 107.128 26.1342 107.172 26.1511 107.21C26.168 107.249 26.1995 107.279 26.2386 107.294C26.2777 107.309 26.3213 107.308 26.3597 107.291C26.3597 107.291 28.347 106.423 30.1037 107.291C30.1244 107.303 30.1485 107.309 30.1724 107.306Z" fill="#EBEBEB"/>
<path d="M27.5812 40.3015C28.7439 42.9775 29.4997 45.8124 29.8236 48.7121C30.6382 59.267 30.1966 74.4148 30.1966 74.4148C30.2898 75.5189 30.9915 78.0214 31.4577 82.8744C32.0171 88.6107 31.3203 108.042 31.3203 108.042C31.3203 108.042 27.8854 110.084 25.2209 107.758C25.2209 107.758 22.1148 81.0441 21.3984 75.3717C20.7703 70.396 19.0136 59.6301 19.0136 59.6301L16.9625 75.5483C16.9625 75.5483 17.1538 80.0284 17.0213 82.9088C16.8643 86.275 15.9222 103.425 15.9222 103.425C15.9222 103.425 11.2115 105.02 9.10639 102.753C9.10639 102.753 8.6157 78.9685 8.53228 74.9153C8.39488 66.9709 8.53228 52.4953 9.82282 44.1633L27.5812 40.3015Z" fill="#F5BC49"/>
<path opacity="0.6" d="M27.5812 40.3015C28.7439 42.9775 29.4997 45.8124 29.8236 48.7121C30.6382 59.267 30.1966 74.4148 30.1966 74.4148C30.2898 75.5189 30.9915 78.0214 31.4577 82.8744C32.0171 88.6107 31.3203 108.042 31.3203 108.042C31.3203 108.042 27.8854 110.084 25.2209 107.758C25.2209 107.758 22.1148 81.0441 21.3984 75.3717C20.7703 70.396 19.0136 59.6301 19.0136 59.6301L16.9625 75.5483C16.9625 75.5483 17.1538 80.0284 17.0213 82.9088C16.8643 86.275 15.9222 103.425 15.9222 103.425C15.9222 103.425 11.2115 105.02 9.10639 102.753C9.10639 102.753 8.6157 78.9685 8.53228 74.9153C8.39488 66.9709 8.53228 52.4953 9.82282 44.1633L27.5812 40.3015Z" fill="white"/>
<path opacity="0.2" d="M19.0137 59.6056L18.2777 54.5367C18.2777 54.5367 13.9988 53.9675 12.0605 52.147C12.6168 53.0149 13.3569 53.75 14.2286 54.3003C15.1002 54.8506 16.0822 55.2027 17.1049 55.3316L17.8606 59.9098L17.208 73.6101L19.0137 59.6056Z" fill="black"/>
<path d="M22.0263 32.5582C22.878 32.6225 23.7343 32.5879 24.578 32.4551C25.1879 32.3659 25.7707 32.1439 26.2854 31.8048C26.8001 31.4656 27.234 31.0176 27.5565 30.4923C27.6907 30.1628 27.8655 29.8513 28.0766 29.5649C28.4496 29.1576 29.058 29.0399 29.5487 28.7749C29.9671 28.5285 30.3227 28.1885 30.5875 27.7815C30.8522 27.3745 31.0191 26.9117 31.0748 26.4294C31.1711 25.47 31.0137 24.5021 30.6185 23.6226C30.2603 22.7295 29.5389 21.9149 29.1071 21.0513C28.2152 19.5167 27.6802 17.801 27.5418 16.0315C27.4044 14.3091 27.4633 12.5279 27.4044 10.7908C27.3406 8.82805 27.2964 6.07033 24.9264 3.92107C24.3397 3.39077 23.5947 3.06832 22.8066 3.00347C21.8252 1.20752 19.8624 0.417498 18.2234 0.137801C16.8436 -0.0666633 15.4396 -0.0434564 14.0672 0.206498C12.6848 0.419181 11.396 1.03543 10.3625 1.97792C9.40719 2.90482 8.842 4.16158 8.78243 5.4913C8.74458 6.56805 9.11431 7.61945 9.81779 8.43549C9.47253 8.74998 9.22834 9.15983 9.1161 9.61317C8.99343 10.5946 9.24859 11.7575 10.9071 12.3905L13.3214 14.633C12.9063 16.2129 12.6515 17.8305 12.5608 19.4615C12.5608 20.5066 12.5608 21.5567 12.6589 22.597C12.919 25.708 13.7336 29.3932 16.5502 31.2971C17.3704 31.8395 18.2945 32.2054 19.2637 32.3717C19.6565 32.4519 20.0554 32.4979 20.4561 32.5091C20.9517 32.5042 21.4964 32.5336 22.0263 32.5582Z" fill="#F5BC49"/>
<g opacity="0.2">
<path d="M22.0263 32.5582C22.878 32.6225 23.7343 32.5879 24.578 32.4551C25.1879 32.3659 25.7707 32.1439 26.2854 31.8048C26.8001 31.4656 27.234 31.0176 27.5565 30.4923C27.6907 30.1628 27.8655 29.8513 28.0766 29.5649C28.4496 29.1576 29.058 29.0399 29.5487 28.7749C29.9671 28.5285 30.3227 28.1885 30.5875 27.7815C30.8522 27.3745 31.0191 26.9117 31.0748 26.4294C31.1711 25.47 31.0137 24.5021 30.6185 23.6226C30.2603 22.7295 29.5389 21.9149 29.1071 21.0513C28.2152 19.5167 27.6802 17.801 27.5418 16.0315C27.4044 14.3091 27.4633 12.5279 27.4044 10.7908C27.3406 8.82805 27.2964 6.07033 24.9264 3.92107C24.3397 3.39077 23.5947 3.06832 22.8066 3.00347C21.8252 1.20752 19.8624 0.417498 18.2234 0.137801C16.8436 -0.0666633 15.4396 -0.0434564 14.0672 0.206498C12.6848 0.419181 11.396 1.03543 10.3625 1.97792C9.40719 2.90482 8.842 4.16158 8.78243 5.4913C8.74458 6.56805 9.11431 7.61945 9.81779 8.43549C9.47253 8.74998 9.22834 9.15983 9.1161 9.61317C8.99343 10.5946 9.24859 11.7575 10.9071 12.3905L13.3214 14.633C12.9063 16.2129 12.6515 17.8305 12.5608 19.4615C12.5608 20.5066 12.5608 21.5567 12.6589 22.597C12.919 25.708 13.7336 29.3932 16.5502 31.2971C17.3704 31.8395 18.2945 32.2054 19.2637 32.3717C19.6565 32.4519 20.0554 32.4979 20.4561 32.5091C20.9517 32.5042 21.4964 32.5336 22.0263 32.5582Z" fill="black"/>
</g>
<path d="M6.75586 46.0574L10.0975 50.1989C10.0975 50.1989 12.4234 46.342 12.3302 46.342C12.2369 46.342 9.38599 41.6656 9.38599 41.6656L6.75586 46.0574Z" fill="#FFC4C3"/>
<path d="M13.5131 19.4861C10.8878 19.4468 9.47953 20.6245 7.55109 23.6472C5.91216 26.2233 2.10926 32.3914 1.03954 34.2511C-0.167572 36.3513 -0.339318 37.1953 0.607728 38.7754C1.5057 40.2475 7.23704 46.8621 7.23704 46.8621C8.54573 45.732 9.53263 44.2762 10.0978 42.6421L6.75617 37.053L13.1794 27.558L13.5131 19.4861Z" fill="#455A64"/>
<path d="M13.6794 19.3683C11.7804 19.2701 10.6027 19.6627 9.45942 20.7717C8.3161 21.8806 2.42773 31.7535 2.42773 31.7535C2.42773 31.7535 2.70744 33.5151 7.6782 36.1697L13.1004 29.8152L13.6794 19.3683Z" fill="#F5BC49"/>
<path opacity="0.6" d="M13.6794 19.3683C11.7804 19.2701 10.6027 19.6627 9.45942 20.7717C8.3161 21.8806 2.42773 31.7535 2.42773 31.7535C2.42773 31.7535 2.70744 33.5151 7.6782 36.1697L13.1004 29.8152L13.6794 19.3683Z" fill="white"/>
<path d="M10.1571 32.676C10.3436 34.7566 10.3927 38.8294 10.3927 38.8294C9.63699 44.1485 9.21498 49.3794 9.21498 49.3794C17.1594 53.6239 28.9754 50.1547 30.4818 48.398C29.736 43.1868 28.0921 39.9433 27.0175 37.0089L29.0097 28.142C29.0097 28.142 25.5748 25.291 25.8889 19.5057L21.1929 19.015L16.7128 19.1426L13.5282 19.3683C11.9321 20.9186 10.5344 22.6607 9.36711 24.555C7.80669 27.0674 7.7478 30.1686 10.1571 32.676Z" fill="#F5BC49"/>
<g opacity="0.75">
<path d="M10.1571 32.676C10.3436 34.7566 10.3927 38.8294 10.3927 38.8294C9.63699 44.1485 9.21498 49.3794 9.21498 49.3794C17.1594 53.6239 28.9754 50.1547 30.4818 48.398C29.736 43.1868 28.0921 39.9433 27.0175 37.0089L29.0097 28.142C29.0097 28.142 25.5748 25.291 25.8889 19.5057L21.1929 19.015L16.7128 19.1426L13.5282 19.3683C11.9321 20.9186 10.5344 22.6607 9.36711 24.555C7.80669 27.0674 7.7478 30.1686 10.1571 32.676Z" fill="white"/>
</g>
<path opacity="0.1" d="M16.2466 32.47C16.2466 32.47 18.3222 34.3052 20.8689 33.579C21.5816 33.4029 22.2367 33.0456 22.7706 32.5418C23.3045 32.038 23.6991 31.4048 23.9162 30.7035C23.9162 30.7035 23.9996 33.5692 20.7953 34.3347C19.9374 34.5536 19.0318 34.4905 18.2125 34.1547C17.3933 33.8189 16.7039 33.2282 16.2466 32.47Z" fill="black"/>
<path d="M12.9683 4.34314C11.9869 4.86328 10.5492 6.75737 10.7553 11.9931C10.9172 16.0953 12.1096 17.1454 12.7966 17.4546C13.4836 17.7637 14.833 17.6165 16.1431 17.4546L16.0794 19.9081C16.0794 19.9081 13.6798 23.9563 15.0293 25.6198C17.0427 25.1249 18.875 24.0701 20.3141 22.5775C21.7862 21.1054 21.7862 19.8835 21.7862 19.8835L21.8941 14.5251C21.8941 14.5251 22.64 15.2612 23.9698 14.1963C25.0689 13.318 25.4664 11.8066 24.6518 10.9676C24.4379 10.7673 24.1807 10.6188 23.9003 10.5336C23.6199 10.4484 23.3236 10.4288 23.0344 10.4762C22.7452 10.5236 22.4707 10.6368 22.2322 10.8071C21.9936 10.9773 21.7974 11.2001 21.6586 11.4583C21.6586 11.4583 20.1865 11.522 19.9411 8.79867C19.9411 8.79867 17.7575 8.6024 16.5602 7.98902C13.827 6.62489 13.2824 5.0203 12.9683 4.34314Z" fill="#FFC4C3"/>
<path d="M18.2038 21.6893C15.9809 21.6893 15.7503 21.0661 15.9956 20.0308C15.5933 20.757 13.8267 24.1183 15.0142 25.6002C17.0299 25.1111 18.8667 24.0634 20.3138 22.5775C21.0636 21.9317 21.5808 21.0577 21.7859 20.0896C21.2265 21.0269 19.9703 21.7089 18.2038 21.6893Z" fill="#455A64"/>
<path d="M16.1432 17.4203C18.0226 16.9688 20.3632 16.0414 20.8343 14.9668C20.5752 15.6587 20.1466 16.2745 19.5879 16.7578C18.7243 17.435 16.1187 18.2299 16.1187 18.2299L16.1432 17.4203Z" fill="#F28F8F"/>
<path d="M16.8449 10.1039C16.8352 10.262 16.887 10.4176 16.9894 10.5383C17.0919 10.6591 17.237 10.7355 17.3945 10.7517C17.5474 10.7742 17.7029 10.7352 17.8271 10.6432C17.9512 10.5512 18.0339 10.4138 18.0569 10.261C18.0665 10.1035 18.0146 9.9484 17.9121 9.82847C17.8095 9.70854 17.6644 9.63313 17.5073 9.61815C17.3552 9.59556 17.2003 9.63391 17.0762 9.72486C16.9522 9.81582 16.8691 9.95205 16.8449 10.1039Z" fill="black"/>
<path d="M16.668 13.9805L14.5728 14.4957C14.6049 14.6343 14.6645 14.7652 14.7478 14.8805C14.8312 14.9959 14.9368 15.0934 15.0583 15.1674C15.1799 15.2415 15.315 15.2905 15.4558 15.3116C15.5965 15.3328 15.7401 15.3257 15.878 15.2906C16.1548 15.2188 16.3924 15.0414 16.54 14.7966C16.6877 14.5517 16.7336 14.2588 16.668 13.9805Z" fill="#F28F8F"/>
<path d="M16.6338 14.584C16.4962 14.4691 16.3224 14.4066 16.1431 14.4074C15.9375 14.4074 15.7403 14.489 15.5949 14.6344C15.4495 14.7798 15.3678 14.977 15.3678 15.1827C15.3631 15.2218 15.3631 15.2613 15.3678 15.3004C15.5197 15.3346 15.6772 15.3346 15.8291 15.3004C16.0136 15.2606 16.1847 15.1737 16.3257 15.0481C16.4667 14.9226 16.5729 14.7627 16.6338 14.584Z" fill="#FFA8A7"/>
<path d="M11.7074 8.69568L12.8262 7.93019C12.7765 7.85683 12.7127 7.79403 12.6386 7.74541C12.5645 7.69679 12.4815 7.66331 12.3944 7.64689C12.3073 7.63047 12.2178 7.63144 12.131 7.64974C12.0443 7.66805 11.962 7.70332 11.889 7.75354C11.8151 7.80337 11.7517 7.8673 11.7026 7.94167C11.6534 8.01604 11.6194 8.09937 11.6026 8.18691C11.5857 8.27444 11.5863 8.36444 11.6043 8.45175C11.6223 8.53906 11.6573 8.62196 11.7074 8.69568Z" fill="black"/>
<path d="M17.1538 8.2688L18.4002 8.83801C18.442 8.76156 18.4674 8.67717 18.4746 8.59031C18.4818 8.50344 18.4708 8.41603 18.4421 8.33371C18.4134 8.2514 18.3678 8.17601 18.3082 8.11243C18.2485 8.04884 18.1762 7.99847 18.0959 7.96457C17.929 7.89018 17.7405 7.88009 17.5666 7.93624C17.3927 7.9924 17.2457 8.11084 17.1538 8.2688Z" fill="black"/>
<path d="M11.938 9.81934C11.927 9.97635 11.9779 10.1314 12.0796 10.2515C12.1814 10.3716 12.326 10.4472 12.4827 10.4622C12.5584 10.474 12.6358 10.4706 12.7103 10.4523C12.7848 10.4339 12.8548 10.401 12.9165 10.3553C12.9781 10.3097 13.0301 10.2522 13.0693 10.1863C13.1086 10.1204 13.1343 10.0474 13.1451 9.97145C13.1538 9.81652 13.1034 9.66406 13.0042 9.54477C12.9049 9.42549 12.7642 9.34826 12.6102 9.32864C12.5337 9.31468 12.455 9.31644 12.3791 9.33382C12.3032 9.3512 12.2317 9.38383 12.1688 9.42973C12.1059 9.47563 12.053 9.53384 12.0134 9.60082C11.9737 9.66779 11.948 9.74214 11.938 9.81934Z" fill="black"/>
<path d="M15.0298 9.70642L14.7305 13.0284L12.9395 12.3758L15.0298 9.70642Z" fill="#FFA8A7"/>
<path d="M32.9098 42.9906C32.5686 43.557 32.1916 44.1012 31.7812 44.6197C31.4589 45.0836 30.9766 45.4122 30.4269 45.5422C29.2964 45.6914 28.1836 45.9527 27.1049 46.3224C26.1578 46.6218 25.5592 46.5432 25.5248 46.7837C25.4856 47.0977 25.6524 47.4608 26.5062 47.6424C27.1356 47.7141 27.771 47.7141 28.4003 47.6424C27.6495 48.5325 26.7754 49.3107 25.8045 49.9536C23.8859 51.2196 23.2333 52.1765 25.2304 53.3885C26.7025 54.2766 29.2296 54.0362 32.7381 50.7632C34.4261 49.1106 35.9555 47.3035 37.3065 45.3656L32.9098 42.9906Z" fill="#FFC4C3"/>
<path d="M37.1451 45.8905C42.793 38.849 42.8863 37.6566 41.2228 35.1933C31.3402 20.5607 31.3745 20.6834 26.4332 19.6382C24.2839 23.338 26.4332 26.9447 28.2242 28.9614L35.4179 37.8627C34.4708 39.8696 33.4551 41.7883 32.7288 43.0788C32.7288 43.0788 34.5297 45.3066 37.1451 45.8905Z" fill="#455A64"/>
<path d="M25.8588 19.5155C28.5674 19.6382 30.5597 20.0062 32.4636 22.3468C34.5 24.8298 39.2205 31.6701 39.2205 31.6701C39.2205 31.6701 37.9545 35.5662 32.8708 36.8764L26.4672 28.6523C26.4672 28.6523 24.1413 24.0495 25.8588 19.5155Z" fill="#F5BC49"/>
<path opacity="0.6" d="M25.8588 19.5155C28.5674 19.6382 30.5597 20.0062 32.4636 22.3468C34.5 24.8298 39.2205 31.6701 39.2205 31.6701C39.2205 31.6701 37.9545 35.5662 32.8708 36.8764L26.4672 28.6523C26.4672 28.6523 24.1413 24.0495 25.8588 19.5155Z" fill="white"/>
<path d="M22.2724 19.1426C23.1115 19.3241 23.3372 22.8522 23.136 27.1311C23.1017 27.8377 23.0526 28.3971 23.0673 28.6768H23.558C23.558 28.4216 23.5826 27.8721 23.6267 27.2047C23.8377 23.8238 23.8622 18.9119 22.3902 18.6862C22.1947 18.637 21.9926 18.6188 21.7915 18.6322V19.1229L22.2724 19.1426Z" fill="#F5BC49"/>
<path opacity="0.2" d="M22.2724 19.1426C23.1115 19.3241 23.3372 22.8522 23.136 27.1311C23.1017 27.8377 23.0526 28.3971 23.0673 28.6768H23.558C23.558 28.4216 23.5826 27.8721 23.6267 27.2047C23.8377 23.8238 23.8622 18.9119 22.3902 18.6862C22.1947 18.637 21.9926 18.6188 21.7915 18.6322V19.1229L22.2724 19.1426Z" fill="black"/>
<path d="M22.8507 39.325C22.4138 39.6111 21.9006 39.7582 21.3786 39.747L21.4178 39.4183C21.8159 39.4201 22.2066 39.3114 22.5464 39.1042C22.2217 38.8504 21.9386 38.5474 21.7073 38.2062C21.2166 37.4702 20.4806 32.4209 20.9419 31.2972C21.3246 30.3649 22.4385 28.353 23.2825 28.353H23.307C24.1559 28.3874 25.1079 30.5268 25.4121 31.4984C25.7752 32.6564 24.5975 37.6223 24.0578 38.3142C23.799 38.6336 23.4928 38.9116 23.15 39.1386C23.469 39.3748 23.8484 39.516 24.2442 39.5458V39.8795H24.205C23.7101 39.8268 23.2404 39.6345 22.8507 39.325ZM21.2608 31.4101C20.8388 32.4405 21.5552 37.323 21.9969 38.0099C22.2366 38.3537 22.5298 38.6569 22.8654 38.9079C23.2194 38.6864 23.5358 38.4097 23.8026 38.0885C24.2933 37.4407 25.4366 32.6368 25.103 31.572C24.6957 30.2717 23.7977 28.6818 23.3021 28.6622C22.7869 28.6769 21.7711 30.1735 21.2608 31.4101Z" fill="#455A64"/>
<path d="M20.9175 39.5605C20.9175 39.6907 20.9692 39.8155 21.0612 39.9075C21.1532 39.9995 21.278 40.0512 21.4082 40.0512C21.5052 40.0512 21.6001 40.0224 21.6808 39.9685C21.7615 39.9146 21.8244 39.838 21.8615 39.7483C21.8987 39.6586 21.9084 39.56 21.8895 39.4648C21.8705 39.3696 21.8238 39.2822 21.7552 39.2135C21.6865 39.1449 21.5991 39.0982 21.5039 39.0793C21.4087 39.0603 21.3101 39.07 21.2204 39.1072C21.1307 39.1443 21.0541 39.2072 21.0002 39.2879C20.9463 39.3686 20.9175 39.4635 20.9175 39.5605Z" fill="#263238"/>
<path d="M23.7686 39.6832C23.7686 39.7803 23.7973 39.8751 23.8513 39.9558C23.9052 40.0365 23.9818 40.0994 24.0715 40.1365C24.1611 40.1737 24.2598 40.1834 24.355 40.1645C24.4502 40.1455 24.5376 40.0988 24.6062 40.0302C24.6749 39.9616 24.7216 39.8741 24.7405 39.7789C24.7595 39.6837 24.7497 39.5851 24.7126 39.4954C24.6755 39.4058 24.6126 39.3291 24.5319 39.2752C24.4512 39.2213 24.3563 39.1925 24.2593 39.1925C24.1291 39.1925 24.0043 39.2442 23.9123 39.3362C23.8203 39.4283 23.7686 39.5531 23.7686 39.6832Z" fill="#263238"/>
<path d="M20.8684 33.4857H21.1481C21.1772 33.4832 21.2041 33.4695 21.2233 33.4476C21.2426 33.4256 21.2525 33.3971 21.2511 33.3679C21.1741 32.7363 21.2023 32.0963 21.3346 31.4739C21.8253 30.2716 22.8508 28.7603 23.2973 28.7799C23.7439 28.7996 24.632 30.3894 25.0246 31.6309C25.105 32.2622 25.0785 32.9025 24.9461 33.525C24.9431 33.554 24.9509 33.5831 24.9681 33.6067C24.9854 33.6303 25.0107 33.6466 25.0393 33.6526L25.319 33.6967C25.3482 33.6995 25.3773 33.6908 25.4002 33.6725C25.4231 33.6542 25.438 33.6277 25.4417 33.5986C25.5942 32.9036 25.6142 32.1861 25.5006 31.4837C25.2896 30.8163 24.3082 28.3236 23.317 28.2794C22.3258 28.2352 21.1383 30.6397 20.8635 31.2874C20.6899 31.9784 20.6483 32.6959 20.7408 33.4023C20.7467 33.4302 20.7634 33.4547 20.7874 33.4704C20.8113 33.486 20.8404 33.4915 20.8684 33.4857Z" fill="#F5BC49"/>
<g opacity="0.2">
<path d="M20.8684 33.4857H21.1481C21.1772 33.4832 21.2041 33.4695 21.2233 33.4476C21.2426 33.4256 21.2525 33.3971 21.2511 33.3679C21.1741 32.7363 21.2023 32.0963 21.3346 31.4739C21.8253 30.2716 22.8508 28.7603 23.2973 28.7799C23.7439 28.7996 24.632 30.3894 25.0246 31.6309C25.105 32.2622 25.0785 32.9025 24.9461 33.525C24.9431 33.554 24.9509 33.5831 24.9681 33.6067C24.9854 33.6303 25.0107 33.6466 25.0393 33.6526L25.319 33.6967C25.3482 33.6995 25.3773 33.6908 25.4002 33.6725C25.4231 33.6542 25.438 33.6277 25.4417 33.5986C25.5942 32.9036 25.6142 32.1861 25.5006 31.4837C25.2896 30.8163 24.3082 28.3236 23.317 28.2794C22.3258 28.2352 21.1383 30.6397 20.8635 31.2874C20.6899 31.9784 20.6483 32.6959 20.7408 33.4023C20.7467 33.4302 20.7634 33.4547 20.7874 33.4704C20.8113 33.486 20.8404 33.4915 20.8684 33.4857Z" fill="black"/>
</g>
<path d="M16.1041 18.5046C15.3533 18.6077 13.0323 19.751 11.9332 23.1957C10.834 26.6404 10.9027 32.0283 10.9518 33.5494C11.0009 35.0706 11.0892 36.1943 11.0892 36.1943H11.7958C11.7958 36.1943 11.6731 34.5161 11.6388 33.5494C11.6044 32.5827 11.7271 25.6541 12.5662 23.4656C13.5721 20.86 14.7105 19.8541 16.1041 19.1916V18.5046Z" fill="#F5BC49"/>
<path opacity="0.2" d="M16.1041 18.5046C15.3533 18.6077 13.0323 19.751 11.9332 23.1957C10.834 26.6404 10.9027 32.0283 10.9518 33.5494C11.0009 35.0706 11.0892 36.1943 11.0892 36.1943H11.7958C11.7958 36.1943 11.6731 34.5161 11.6388 33.5494C11.6044 32.5827 11.7271 25.6541 12.5662 23.4656C13.5721 20.86 14.7105 19.8541 16.1041 19.1916V18.5046Z" fill="black"/>
<path d="M13.385 36.4495C13.385 36.8377 13.2699 37.2172 13.0543 37.5399C12.8386 37.8627 12.532 38.1143 12.1734 38.2629C11.8147 38.4114 11.4201 38.4503 11.0393 38.3746C10.6586 38.2988 10.3089 38.1119 10.0344 37.8374C9.75987 37.5629 9.57292 37.2131 9.49719 36.8324C9.42145 36.4517 9.46033 36.057 9.60888 35.6984C9.75744 35.3397 10.009 35.0332 10.3318 34.8175C10.6546 34.6018 11.0341 34.4867 11.4223 34.4867C11.9428 34.4867 12.4421 34.6935 12.8102 35.0616C13.1783 35.4297 13.385 35.9289 13.385 36.4495Z" fill="#455A64"/>
<path d="M11.4376 37.5585C12.05 37.5585 12.5466 37.062 12.5466 36.4496C12.5466 35.8371 12.05 35.3406 11.4376 35.3406C10.8251 35.3406 10.3286 35.8371 10.3286 36.4496C10.3286 37.062 10.8251 37.5585 11.4376 37.5585Z" fill="#37474F"/>
</svg>
