<svg width="116" height="115" viewBox="0 0 116 115" fill="none" xmlns="http://www.w3.org/2000/svg">
<path opacity="0.2" d="M110.893 63.1183C111.042 63.0468 111.165 62.9309 111.246 62.7866C111.327 62.6422 111.361 62.4765 111.343 62.3121C111.326 62.1477 111.259 61.9926 111.15 61.8681C111.041 61.7437 110.896 61.6559 110.736 61.6167L78.5639 47.2817C78.1308 47.1126 77.6636 47.0497 77.2012 47.0981C76.7389 47.1466 76.2949 47.305 75.9062 47.5601L11.3654 94.4501C8.66919 96.4119 8.95044 99.0961 11.9947 100.456L35.9477 111.099C37.6453 111.749 39.4725 111.989 41.2806 111.8C43.0886 111.61 44.8264 110.996 46.3523 110.008L110.893 63.1183Z" fill="black"/>
<path d="M16.0536 59.7017L13.9392 58.7545C13.8643 58.721 13.7818 58.7079 13.7001 58.7165C13.6185 58.7251 13.5406 58.755 13.4741 58.8032L13.025 59.1324C12.9631 59.1871 12.9162 59.257 12.8891 59.3351C12.862 59.4132 12.8555 59.4971 12.8702 59.5785L13.3743 64.3888C13.4144 64.6156 13.506 64.8303 13.6419 65.0163C13.7778 65.2023 13.9545 65.3548 14.1584 65.462L16.2728 66.4092C16.347 66.4455 16.4301 66.4601 16.5123 66.4515C16.5946 66.4429 16.6727 66.4114 16.7378 66.3604L17.187 66.0312C17.2512 65.9782 17.2996 65.9085 17.3269 65.8299C17.3542 65.7512 17.3593 65.6666 17.3418 65.5852L16.8391 60.7881C16.8059 60.557 16.717 60.3374 16.5802 60.1481C16.4434 59.9589 16.2627 59.8057 16.0536 59.7017Z" fill="#FAFAFA"/>
<path d="M16.8377 60.7747L17.3404 65.5717C17.3579 65.6531 17.3528 65.7378 17.3255 65.8165C17.2982 65.8951 17.2498 65.9648 17.1856 66.0178L16.763 66.3442C16.8188 66.2863 16.8597 66.2157 16.882 66.1384C16.9044 66.0612 16.9075 65.9796 16.8912 65.9009L16.3886 61.1039C16.3556 60.8741 16.2634 60.6569 16.121 60.4737L16.5702 60.1445C16.7126 60.3277 16.8048 60.545 16.8377 60.7747Z" fill="#E0E0E0"/>
<path d="M14.1666 65.4075L16.2809 66.3547C16.6753 66.5284 16.9453 66.2851 16.905 65.8997L16.4023 61.1027C16.3672 60.8741 16.2776 60.6573 16.1412 60.4705C16.0047 60.2837 15.8253 60.1325 15.6182 60.0296L13.5038 59.0824C13.1228 58.9073 12.8394 59.152 12.8784 59.524L13.3824 64.3343C13.4226 64.5612 13.5141 64.7759 13.65 64.9619C13.786 65.1479 13.9627 65.3003 14.1666 65.4075Z" fill="#F5F5F5"/>
<path d="M17.1619 69.1238C17.191 69.1208 17.219 69.1106 17.2431 69.094C17.2671 69.0774 17.2866 69.0549 17.2997 69.0287C17.3157 68.9856 17.3153 68.938 17.2984 68.8951C17.2815 68.8523 17.2494 68.8172 17.2082 68.7965L15.7295 68.1454C15.704 68.1314 15.6821 68.1117 15.6656 68.0877C15.6492 68.0638 15.6385 68.0364 15.6344 68.0076L15.0775 62.6923C15.0731 62.65 15.052 62.6113 15.019 62.5845C14.9859 62.5577 14.9436 62.5452 14.9013 62.5496C14.8791 62.5501 14.8572 62.5552 14.837 62.5645C14.8169 62.5739 14.7989 62.5873 14.7842 62.604C14.7696 62.6207 14.7585 62.6403 14.7518 62.6615C14.7451 62.6827 14.7429 62.705 14.7453 62.7271L15.3022 68.0424C15.3126 68.1309 15.3454 68.2152 15.3977 68.2873C15.4499 68.3595 15.5198 68.417 15.6006 68.4545L17.0794 69.1056L17.1619 69.1238Z" fill="#263238"/>
<path d="M55.7445 91.3042L49.8053 89.2397C49.8053 89.2397 49.7001 83.8772 53.56 84.8161C57.4199 85.7551 55.7445 91.3042 55.7445 91.3042Z" fill="#37474F"/>
<path d="M52.5658 90.966L53.5216 88.4208L50.4627 87.0487C49.8781 86.8413 49.2486 86.7942 48.6397 86.9123C48.0308 87.0305 47.4646 87.3095 46.9999 87.7204C45.5625 88.9503 44.4355 90.5019 43.7106 92.2492C42.9856 93.9965 42.6831 95.8902 42.8277 97.7764C42.8239 98.5087 43.0106 99.2295 43.3696 99.8678C43.7285 100.506 44.2473 101.04 44.875 101.417L48.0179 102.821L49.0794 100.131C50.2531 98.9203 51.1676 97.4833 51.767 95.9076C52.3665 94.3318 52.6383 92.6503 52.5658 90.966Z" fill="#263238"/>
<path d="M55.7379 92.1377C55.8509 93.7818 55.6372 95.432 55.109 96.993C54.5809 98.554 53.7487 99.9949 52.6607 101.233C52.3354 101.572 51.9815 101.884 51.6029 102.163C48.9186 104.11 46.4407 102.771 46.0634 99.1699C45.8748 96.2421 46.7161 93.3406 48.4416 90.9677C48.9454 90.2801 49.5467 89.6695 50.2265 89.1552C52.8828 87.1976 55.3606 88.5366 55.7379 92.1377Z" fill="#37474F"/>
<path d="M50.4629 91.2799C52.1733 90.0394 53.7583 90.9346 54.0131 93.3663C54.1193 94.5967 53.9358 95.835 53.4774 96.9818C53.019 98.1285 52.2985 99.1521 51.3734 99.9704C49.6762 101.209 48.0913 100.314 47.8351 97.8692C47.7288 96.6421 47.9111 95.407 48.3673 94.2629C48.8236 93.1187 49.5413 92.0972 50.4629 91.2799Z" fill="#455A64"/>
<path d="M50.6853 93.4062C51.585 92.7612 52.3995 93.2266 52.5318 94.489C52.5957 95.1297 52.5043 95.7765 52.2653 96.3745C52.0263 96.9724 51.6467 97.504 51.1587 97.9242C50.2724 98.5678 49.4578 98.1024 49.3256 96.84C49.2658 96.201 49.3578 95.5569 49.5941 94.9602C49.8304 94.3635 50.2043 93.8311 50.6853 93.4062Z" fill="#E0E0E0"/>
<path d="M51.1875 93.3266C51.2972 93.2486 51.4173 93.1862 51.5442 93.1415C52.0219 93.2123 52.3951 93.6971 52.4786 94.4944C52.5506 95.4384 52.3093 96.3797 51.792 97.1726L51.608 97.3397C50.8077 97.9071 50.0798 97.4998 49.9615 96.3703C49.9128 95.8023 49.9984 95.2309 50.2114 94.7022C50.4244 94.1735 50.7588 93.7022 51.1875 93.3266Z" fill="#F5F5F5"/>
<path d="M55.7377 92.1381C55.8507 93.7822 55.637 95.4324 55.1088 96.9934C54.5806 98.5544 53.7485 99.9953 52.6604 101.233C54.0657 99.2479 54.964 96.9492 55.2771 94.5373C55.4851 92.4198 55.0138 89.46 53.1538 88.8891C51.2938 88.3183 49.1089 90.1593 48.4399 90.9549C48.9437 90.2672 49.545 89.6566 50.2248 89.1423C52.8826 87.198 55.3604 88.537 55.7377 92.1381Z" fill="#455A64"/>
<path d="M8.95356 84.3717L9.61213 90.657C17.2517 98.0513 27.2161 101.991 38.7411 103.645L44.0726 99.7817L44.0183 99.2635C43.8491 96.1603 44.7404 93.0918 46.5458 90.5621C46.65 90.4034 46.7662 90.23 46.8851 90.0832L47.1469 89.7602C47.5169 89.3029 47.921 88.8744 48.3559 88.4782C48.6155 88.2629 48.8617 88.0491 49.1241 87.8604C49.3864 87.6717 49.4368 87.6395 49.6145 87.5403L50.0454 87.2936L50.4686 87.1016C50.8839 86.9191 51.3244 86.8005 51.7751 86.7497C52.234 86.7083 52.6964 86.7604 53.1346 86.9028C53.4585 87.0267 53.7618 87.1987 54.0344 87.413C54.9818 88.3012 55.544 89.5249 55.6007 90.8224L55.655 91.3406L60.3625 87.9322L68.6644 81.9036L64.5975 43.089L35.5628 30.1044L32.8534 32.0675L32.0824 32.6588L31.4507 33.1684L31.2771 33.3074L30.97 33.5814L30.6139 33.9008L29.5777 34.9095C29.3461 35.1353 29.1292 35.373 28.9256 35.6092L28.6002 35.9657C28.3833 36.2034 28.1943 36.4516 27.9921 36.7012L27.4001 37.4618L26.9074 38.1448L26.7451 38.3902L26.328 39.025C26.2475 39.1395 26.1748 39.2594 26.1103 39.3836C25.9942 39.557 25.8807 39.757 25.766 39.9436L25.5063 40.4142C25.412 40.5709 25.3258 40.7324 25.248 40.898L25.0569 41.2539C24.8672 41.623 24.7041 41.9894 24.5291 42.3705C24.3541 42.7515 24.312 42.8634 24.2175 43.1151L10.2863 77.4748L9.97752 78.246L9.75277 78.7935L9.76113 78.8732C9.04923 80.6132 8.77204 82.5005 8.95356 84.3717Z" fill="#F0F0F0"/>
<path d="M16.3634 91.1182C19.9836 93.0912 23.7537 94.776 27.6386 96.1567C27.7657 96.2069 27.9021 96.229 28.0386 96.2216C28.175 96.2142 28.3082 96.1773 28.4291 96.1137C28.55 96.05 28.6557 95.9609 28.739 95.8525C28.8223 95.7442 28.8812 95.6192 28.9117 95.486C29.1361 94.5872 29.2918 93.6727 29.3774 92.7504C29.3782 92.451 29.2892 92.1581 29.1219 91.9098C28.9546 91.6615 28.7166 91.4691 28.4388 91.3575C23.9392 89.6502 19.5401 87.6891 15.2625 85.4838C14.7507 85.215 14.3611 85.4707 14.4342 86.0407C14.5851 87.2423 14.8353 88.4293 15.1822 89.5895C15.3836 90.2223 15.8019 90.7636 16.3634 91.1182Z" fill="#263238"/>
<path d="M28.3992 36.2287L57.4632 49.2371C58.7942 47.6616 60.3112 46.2532 61.9808 45.0425L64.6904 43.0794L35.5627 30.1045L32.8532 32.0677C31.2021 33.265 29.7059 34.6627 28.3992 36.2287Z" fill="#FAFAFA"/>
<path d="M38.0811 97.3464L38.7411 103.645L39.1146 103.364L44.0222 99.8138L43.9679 99.2955C43.7987 96.1923 44.6899 93.1238 46.4953 90.5941C46.5996 90.4354 46.7158 90.262 46.8347 90.1152L47.0964 89.7923C47.4664 89.335 47.8706 88.9064 48.3055 88.5102C48.565 88.295 48.8113 88.0811 49.0737 87.8924C49.336 87.7037 49.3864 87.6716 49.564 87.5724L50.0453 87.2935L50.4685 87.1014C50.8838 86.919 51.3243 86.8004 51.775 86.7496C52.2339 86.7082 52.6964 86.7603 53.1345 86.9027C53.4584 87.0266 53.7617 87.1985 54.0343 87.4129C54.9818 88.3011 55.5439 89.5248 55.6006 90.8223L55.6549 91.3405L60.3624 87.9321L68.6644 81.9035L64.5974 43.0889L61.8879 45.052C59.8043 46.5598 57.965 48.3792 56.4347 50.4462C55.1401 52.1847 54.0703 54.0797 53.2507 56.0863L39.3222 90.4725L38.7873 91.7779C38.1 93.5484 37.8575 95.4604 38.0811 97.3464Z" fill="#E0E0E0"/>
<path d="M40.805 80.0131L38.8441 81.4277C38.4679 81.704 38.008 81.8424 37.5417 81.8194C31.8835 81.539 19.9606 76.7295 16.078 72.112C15.8369 71.819 15.6914 71.4592 15.661 71.081L15.4048 68.636C15.3691 68.3065 15.4174 67.9733 15.5451 67.6675L21.9698 52.0556C22.0195 51.9284 22.0948 51.8126 22.1909 51.7155C22.2871 51.6184 22.4021 51.542 22.5288 51.491C22.6556 51.4399 22.7915 51.4154 22.9281 51.4188C23.0647 51.4222 23.1992 51.4535 23.3232 51.5108L47.2803 62.1928C47.5132 62.303 47.697 62.4954 47.7964 62.7331C47.8957 62.9708 47.9035 63.2368 47.8182 63.4799L41.4747 79.0966C41.3445 79.4603 41.1119 79.7785 40.805 80.0131Z" fill="#37474F"/>
<g opacity="0.1">
<path d="M23.393 52.5654L23.7466 51.7088L32.7368 55.7106C31.9911 59.395 29.8884 62.6648 26.8454 64.8719L24.8355 66.3319L23.393 52.5654Z" fill="white"/>
<path d="M22.5811 54.558L23.8871 67.0223L18.182 71.1666C17.977 71.3163 17.7286 71.3946 17.4748 71.3898C17.221 71.385 16.9758 71.2972 16.7765 71.1399C16.5773 70.9826 16.4351 70.7644 16.3715 70.5187C16.3079 70.273 16.3266 70.0132 16.4245 69.779L22.5811 54.558Z" fill="white"/>
</g>
<path d="M16.1052 72.1094C15.8641 71.8164 15.7186 71.4566 15.6882 71.0784L15.432 68.6333C15.4146 68.4065 15.4315 68.1783 15.4819 67.9564C18.139 68.9542 22.4838 70.6753 27.7075 72.9625C33.6388 75.5921 38.719 78.1765 41.2646 79.5218C41.1362 79.707 40.9816 79.8725 40.8056 80.0132L38.8447 81.4278C38.4685 81.7042 38.0086 81.8425 37.5423 81.8195C31.9771 81.5294 19.9878 76.7269 16.1052 72.1094Z" fill="#263238"/>
<path d="M52.6299 60.6787L44.0067 81.975C43.9087 82.2092 43.8901 82.469 43.9536 82.7147C44.0172 82.9605 44.1595 83.1787 44.3587 83.336C44.5579 83.4933 44.8031 83.581 45.0569 83.5858C45.3107 83.5907 45.5591 83.5123 45.7641 83.3627L54.4292 77.0811C56.5808 75.5224 58.2805 73.4207 59.3546 70.9906C60.4287 68.5604 60.8388 65.8888 60.5431 63.2483L59.7537 55.7139C59.7418 55.579 59.6941 55.4498 59.6157 55.3395C59.5372 55.2291 59.4307 55.1417 59.3071 55.0862C59.1836 55.0307 59.0476 55.0092 58.913 55.0238C58.7783 55.0384 58.65 55.0886 58.5413 55.1693L55.0077 57.7293C53.9542 58.47 53.1303 59.492 52.6299 60.6787Z" fill="#37474F"/>
<path d="M52.4441 78.5251L51.4955 79.2156L50.1895 66.7513L51.0031 64.7719L52.4441 78.5251Z" fill="#263238"/>
<path d="M29.2315 80.9707C27.8345 80.4588 26.5542 79.9078 25.2363 79.2533C25.2141 79.2391 25.1888 79.2306 25.1626 79.2285C25.1364 79.2264 25.1101 79.2308 25.0859 79.2413C25.0618 79.2518 25.0406 79.2681 25.0243 79.2887C25.0079 79.3093 24.9969 79.3336 24.9922 79.3595L24.7638 80.2566C24.7458 80.3141 24.7499 80.3763 24.7756 80.4308C24.8012 80.4854 24.8463 80.5283 24.9021 80.5511C25.9343 81.031 26.9922 81.4539 28.0709 81.8177L28.1905 81.8052L29.2775 81.4092C29.4635 81.3897 29.414 81.0456 29.2315 80.9707Z" fill="#455A64"/>
<path d="M20.2775 77.0592L20.935 78.3337C20.954 78.3752 20.9859 78.4096 21.0258 78.4317C22.0093 79.0703 23.03 79.6497 24.0825 80.1668C24.1047 80.181 24.13 80.1895 24.1562 80.1916C24.1824 80.1937 24.2088 80.1893 24.2329 80.1788C24.257 80.1683 24.2782 80.152 24.2945 80.1314C24.3109 80.1108 24.3219 80.0865 24.3267 80.0606L24.5551 79.1635C24.5676 79.106 24.5609 79.046 24.5359 78.9928C24.5109 78.9395 24.469 78.896 24.4167 78.869C23.1002 78.2278 21.8046 77.5306 20.5182 76.7922C20.3315 76.6774 20.1769 76.8682 20.2775 77.0592Z" fill="#455A64"/>
<path d="M8.19958 89.2332L8.27199 89.9242L9.6436 90.9626L9.61157 90.657C17.2511 98.0513 27.2155 101.991 38.7406 103.645L38.4482 100.855C26.9231 99.2008 16.9587 95.2608 9.31919 87.8665L9.23286 87.0427L9.1531 87.051C8.81324 87.296 8.54546 87.6277 8.37771 88.0116C8.20997 88.3955 8.14845 88.8174 8.19958 89.2332Z" fill="#455A64"/>
<path d="M38.448 100.855L38.7404 103.645L42.521 102.161L42.2175 99.2643L41.1575 98.8917L38.448 100.855Z" fill="#37474F"/>
<path d="M8.19971 89.2334L8.28603 90.0573C8.32772 90.5449 8.54756 91.0001 8.90362 91.336C16.4993 98.4393 26.4543 102.931 37.5835 104.653C39.2834 105.107 42.5255 102.201 42.5255 102.201L42.2178 99.2642C42.2178 99.2642 39.0156 102.166 37.2772 101.73C26.0026 99.902 16.0692 95.4886 8.3422 88.1572C8.21189 88.5001 8.16311 88.8685 8.19971 89.2334Z" fill="#37474F"/>
<path d="M38.5275 101.612C39.88 101.041 41.1273 100.247 42.2176 99.2639L42.5212 102.161C41.4284 103.141 40.1817 103.934 38.831 104.509L38.5275 101.612Z" fill="#263238"/>
<path d="M34.3855 93.1122C35.3121 93.1092 36.1414 93.3313 36.1095 94.181C36.1132 95.0769 35.8915 95.9593 35.4649 96.7472C35.3797 96.9526 35.234 97.1271 35.0472 97.2477C34.9113 97.3237 34.758 97.3629 34.6023 97.3615C33.65 97.4105 32.6964 97.2921 31.7849 97.0119C31.4454 96.9276 31.1272 96.7734 30.8508 96.559C30.4446 96.1448 30.6642 94.7784 30.8443 94.061C31.0243 93.3435 31.3929 93.3989 32.1713 93.2636C32.9048 93.1598 33.6448 93.1092 34.3855 93.1122Z" fill="#F59E0B"/>
<path opacity="0.7" d="M34.3855 93.1122C35.3121 93.1092 36.1414 93.3313 36.1095 94.181C36.1132 95.0769 35.8915 95.9593 35.4649 96.7472C35.3797 96.9526 35.234 97.1271 35.0472 97.2477C34.9113 97.3237 34.758 97.3629 34.6023 97.3615C33.65 97.4105 32.6964 97.2921 31.7849 97.0119C31.4454 96.9276 31.1272 96.7734 30.8508 96.559C30.4446 96.1448 30.6642 94.7784 30.8443 94.061C31.0243 93.3435 31.3929 93.3989 32.1713 93.2636C32.9048 93.1598 33.6448 93.1092 34.3855 93.1122Z" fill="white"/>
<path d="M34.5793 93.549C34.7422 93.5657 34.8985 93.6221 35.0345 93.7133C35.1705 93.8044 35.2821 93.9275 35.3596 94.0717C35.4095 94.2305 35.427 94.3977 35.4111 94.5634C35.4804 95.0795 35.3692 95.6037 35.0964 96.0472C34.9515 96.264 34.7348 96.4228 34.4845 96.4957C34.2342 96.5686 33.9662 96.551 33.7276 96.4459C33.5655 96.3467 33.4309 96.2083 33.3361 96.0436C33.0971 95.7003 32.9868 95.2837 33.0248 94.8672C33.0388 94.678 33.0903 94.4935 33.1764 94.3244C33.2624 94.1553 33.3812 94.0051 33.5259 93.8824C33.6706 93.7597 33.8382 93.667 34.0191 93.6098C34.1999 93.5525 34.3904 93.5319 34.5793 93.549Z" fill="white"/>
<path d="M32.6167 96.0921C32.5738 96.5802 31.8165 96.4043 31.4739 96.2118C31.4152 96.1805 31.3613 96.1409 31.3138 96.0943C31.3013 96.0466 31.2961 95.9973 31.2985 95.9481C31.1798 95.5844 31.4087 95.0768 31.8248 95.0735C32.0288 95.1116 32.2171 95.2089 32.366 95.3534C32.5149 95.4979 32.618 95.6831 32.6623 95.8858C32.6575 95.9565 32.6421 96.026 32.6167 96.0921Z" fill="white"/>
<path d="M12.633 84.7385C12.9386 84.9909 13.139 85.3484 13.1947 85.7409C13.2991 86.5018 13.3436 87.2698 13.3279 88.0376C13.2785 88.8488 12.2277 88.435 11.7131 88.1397C11.3016 87.9459 10.928 87.6802 10.6099 87.3552C10.0894 86.2651 9.82198 85.0716 9.82759 83.8637C9.77727 83.6322 9.79886 83.3909 9.88947 83.1721C10.2031 82.575 11.2698 83.5245 11.6075 83.7981C11.9817 84.0742 12.3255 84.3895 12.633 84.7385Z" fill="#F59E0B"/>
<path opacity="0.7" d="M12.633 84.7385C12.9386 84.9909 13.139 85.3484 13.1947 85.7409C13.2991 86.5018 13.3436 87.2698 13.3279 88.0376C13.2785 88.8488 12.2277 88.435 11.7131 88.1397C11.3016 87.9459 10.928 87.6802 10.6099 87.3552C10.0894 86.2651 9.82198 85.0716 9.82759 83.8637C9.77727 83.6322 9.79886 83.3909 9.88947 83.1721C10.2031 82.575 11.2698 83.5245 11.6075 83.7981C11.9817 84.0742 12.3255 84.3895 12.633 84.7385Z" fill="white"/>
<path d="M11.5294 87.299C11.5959 87.4406 11.7017 87.5601 11.8342 87.6432C12.0138 87.7404 12.2068 87.8108 12.4069 87.8519C13.1376 88.0306 12.8103 86.5737 12.148 86.5356C12.0625 86.5314 11.977 86.5446 11.8969 86.5746C11.8167 86.6046 11.7435 86.6506 11.6818 86.7099C11.6201 86.7693 11.5711 86.8406 11.538 86.9195C11.5048 86.9984 11.4881 87.0833 11.4889 87.1689C11.498 87.2135 11.5115 87.2571 11.5294 87.299Z" fill="white"/>
<path d="M11.5706 84.6081C11.8163 84.8595 11.953 85.1975 11.9512 85.549C11.9231 85.6864 11.8735 85.8185 11.8042 85.9405C11 87.3682 10.1792 85.3047 10.3083 84.4851C10.4374 83.6656 11.1198 84.024 11.5706 84.6081Z" fill="white"/>
<path d="M52.1381 75.4673L50.0104 74.5214C49.9354 74.488 49.853 74.475 49.7714 74.4835C49.6897 74.4921 49.6117 74.5219 49.5453 74.5702L49.1095 74.898C49.0475 74.9528 49.0007 75.0226 48.9736 75.1007C48.9465 75.1789 48.94 75.2627 48.9547 75.3441L49.4587 80.1544C49.4941 80.3795 49.5823 80.593 49.716 80.7774C49.8497 80.9619 50.0252 81.112 50.2282 81.2156L52.3572 82.1748C52.4315 82.2111 52.5145 82.2258 52.5968 82.2171C52.679 82.2085 52.7572 82.1769 52.8223 82.126L53.2714 81.7969C53.333 81.7425 53.3788 81.6724 53.4037 81.594C53.4286 81.5157 53.4318 81.4321 53.4129 81.3521L52.9103 76.5551C52.8765 76.3257 52.7889 76.1076 52.6547 75.9185C52.5205 75.7295 52.3435 75.5748 52.1381 75.4673Z" fill="#FAFAFA"/>
<path d="M52.9494 76.5377L53.4521 81.3347C53.4709 81.4147 53.4677 81.4983 53.4428 81.5766C53.4179 81.6549 53.3722 81.725 53.3106 81.7794L52.8747 82.1072C52.9296 82.0486 52.9698 81.978 52.9921 81.9009C53.0144 81.8239 53.0181 81.7426 53.0029 81.6639L52.5003 76.8668C52.4715 76.6379 52.3839 76.4203 52.246 76.2352L52.6952 75.9061C52.833 76.0911 52.9206 76.3087 52.9494 76.5377Z" fill="#E0E0E0"/>
<path d="M50.2227 81.1626L52.3517 82.1217C52.7328 82.2967 53.0161 82.0521 52.9758 81.6667L52.4731 76.8697C52.4349 76.6421 52.3441 76.4266 52.208 76.2403C52.0719 76.054 51.8942 75.9021 51.689 75.7965L49.5613 74.8507C49.1803 74.6757 48.9102 74.9189 48.9492 75.291L49.4532 80.1013C49.4886 80.3264 49.5768 80.5399 49.7105 80.7244C49.8442 80.9088 50.0197 81.059 50.2227 81.1626Z" fill="#F5F5F5"/>
<path d="M48.5265 82.1597C48.3418 82.3073 48.1951 82.4968 48.0985 82.7126C48.0019 82.9283 47.9583 83.1641 47.9714 83.4001C48.0159 83.8253 48.3396 83.9661 48.6894 83.7145C48.8724 83.5655 49.018 83.3757 49.1144 83.1603C49.2109 82.9448 49.2554 82.7098 49.2446 82.4741C49.1959 82.009 48.8749 81.8949 48.5265 82.1597Z" fill="#37474F"/>
<path d="M51.1283 84.1708C51.2164 84.1602 51.3007 84.1283 51.3738 84.0779C51.4471 84.0264 51.5051 83.9559 51.5415 83.874C51.5779 83.7921 51.5913 83.7019 51.5803 83.6129L51.0694 78.7361C51.0671 78.714 51.0603 78.6926 51.0494 78.6733C51.0384 78.654 51.0235 78.6371 51.0057 78.6238C50.9879 78.6105 50.9675 78.6011 50.9459 78.5961C50.9242 78.5911 50.9017 78.5906 50.8799 78.5948C50.8376 78.5992 50.7988 78.6203 50.7721 78.6533C50.7453 78.6864 50.7327 78.7287 50.7371 78.771L51.2481 83.6477C51.2516 83.6784 51.2461 83.7095 51.2323 83.7372C51.2185 83.7648 51.197 83.7879 51.1704 83.8036C51.1476 83.8202 51.1209 83.8304 51.0929 83.8333C51.0649 83.8363 51.0367 83.8318 51.011 83.8203L48.6659 82.7226C48.6248 82.7072 48.5794 82.7079 48.5387 82.7246C48.4981 82.7413 48.4653 82.7728 48.447 82.8128C48.4232 82.847 48.4124 82.8886 48.4168 82.9301C48.4211 82.9716 48.4402 83.0101 48.4707 83.0386L50.8157 84.1363C50.9134 84.1815 51.0231 84.1936 51.1283 84.1708Z" fill="#263238"/>
<path d="M16.7704 99.2301L25.1545 102.96C25.3943 103.069 25.5531 102.918 25.5225 102.625L25.2635 100.154C25.2459 100.005 25.1934 99.863 25.1103 99.7387C25.0273 99.6143 24.916 99.5113 24.7855 99.4382L16.4015 95.7088C16.1749 95.5982 16.0161 95.7491 16.0468 96.0414L16.3058 98.5131C16.3237 98.66 16.3749 98.801 16.4554 98.9252C16.5359 99.0494 16.6436 99.1537 16.7704 99.2301Z" fill="#F5F5F5"/>
<path d="M25.1022 103.099L16.7167 99.3567C16.5635 99.2744 16.4327 99.1559 16.3356 99.0116C16.2386 98.8672 16.1782 98.7014 16.1597 98.5284L15.9008 96.0568C15.8861 95.9722 15.8938 95.8851 15.923 95.8043C15.9522 95.7235 16.002 95.6518 16.0674 95.5961C16.1231 95.552 16.1901 95.5247 16.2607 95.5173C16.3313 95.5099 16.4025 95.5227 16.4661 95.5543L24.8501 99.2837C25.0019 99.3678 25.1315 99.4867 25.2284 99.6307C25.3252 99.7747 25.3865 99.9397 25.4071 100.112L25.6661 102.584C25.6807 102.668 25.673 102.755 25.6438 102.836C25.6146 102.917 25.5648 102.989 25.4994 103.044C25.444 103.064 25.3848 103.07 25.3266 103.062C25.2552 103.09 25.1788 103.103 25.1022 103.099ZM16.28 95.829C16.258 95.8556 16.2424 95.8867 16.2342 95.9201C16.2261 95.9536 16.2257 95.9884 16.233 96.022L16.492 98.4936C16.5095 98.6175 16.5544 98.7359 16.6234 98.8402C16.6924 98.9445 16.7838 99.0321 16.891 99.0967L25.275 102.826C25.3106 102.836 25.3485 102.832 25.3813 102.815C25.3813 102.815 25.4394 102.728 25.4269 102.609L25.1679 100.137C25.1521 100.014 25.1093 99.8962 25.0426 99.7917C24.9759 99.6872 24.887 99.5988 24.7821 99.5326L16.3981 95.8032L16.3184 95.8116L16.28 95.829Z" fill="#E0E0E0"/>
<path d="M15.9559 81.717C15.9559 81.717 15.9559 81.717 15.9476 81.6373L15.8626 80.8267L15.4969 82.2084L15.4305 82.2154L14.9935 82.0194C14.9849 82.0056 14.9796 81.9901 14.9779 81.974C14.9762 81.9578 14.9782 81.9416 14.9837 81.9263L15.7025 79.2986L15.6228 79.3069L16.0038 79.4819C16.043 79.4983 16.0748 79.5284 16.0933 79.5666C16.1005 79.5925 16.1034 79.6195 16.1017 79.6463L16.3207 80.9668L17.1673 80.072L17.2337 80.0651C17.2489 80.054 17.2667 80.0472 17.2854 80.0453C17.304 80.0433 17.3229 80.0463 17.34 80.0539L17.7211 80.229C17.7315 80.2495 17.734 80.2731 17.728 80.2954C17.737 80.3209 17.7398 80.3482 17.7364 80.3751L17.0176 83.0029L16.9512 83.0099L16.5142 82.8138C16.5068 82.7925 16.5044 82.7698 16.5072 82.7474C16.499 82.736 16.4938 82.7227 16.4923 82.7087C16.4909 82.6947 16.4931 82.6805 16.4989 82.6677L16.8646 81.286L16.3685 81.8081C16.359 81.815 16.3478 81.8193 16.3362 81.8205C16.3245 81.8217 16.3128 81.8199 16.302 81.8151C16.2907 81.8234 16.2773 81.8285 16.2633 81.8299C16.2493 81.8314 16.2352 81.8292 16.2223 81.8234L16.0105 81.7247C15.992 81.726 15.9734 81.7233 15.9559 81.717Z" fill="#F59E0B"/>
<path d="M17.6372 83.2738C17.6287 83.2528 17.6262 83.2297 17.6302 83.2074C17.622 83.196 17.6169 83.1826 17.6154 83.1686C17.6139 83.1546 17.6162 83.1405 17.6219 83.1276L18.3407 80.4999L18.4337 80.4901L19.4902 80.9571C19.6271 81.0109 19.7505 81.0943 19.8516 81.2013C19.9267 81.2926 19.9873 81.3951 20.0312 81.5049C20.0629 81.6126 20.0747 81.7252 20.066 81.8371C20.0647 81.9435 20.0486 82.0491 20.0183 82.1511C19.9922 82.2727 19.9345 82.3854 19.851 82.4776L19.7649 82.5538C19.8021 82.6649 19.8145 82.7829 19.8011 82.8993C19.8103 83.0232 19.796 83.1478 19.759 83.2664C19.73 83.3747 19.6867 83.4786 19.6302 83.5755C19.5764 83.6619 19.5069 83.7376 19.4252 83.7985C19.3323 83.8351 19.2313 83.8457 19.1328 83.8291C18.9996 83.8383 18.8665 83.8104 18.7482 83.7485L17.6372 83.2738ZM19.4079 81.8389C19.4181 81.8083 19.4216 81.7759 19.4182 81.7438C19.4148 81.7117 19.4047 81.6807 19.3884 81.6529C19.364 81.5956 19.3212 81.5481 19.2668 81.5178L18.7473 81.3036L18.6205 81.7602L19.1414 81.9878C19.1667 82.0007 19.1953 82.006 19.2236 82.003C19.2519 82.0001 19.2787 81.989 19.3009 81.971C19.3009 81.971 19.3883 81.9081 19.4079 81.8389ZM18.3346 82.8783L18.8702 83.1177C18.9009 83.1271 18.9333 83.1302 18.9652 83.1268C18.9972 83.1235 19.0281 83.1137 19.0563 83.0982C19.1093 83.0599 19.1464 83.0034 19.1605 82.9396C19.1733 82.8725 19.166 82.8032 19.1396 82.7402C19.1083 82.6758 19.0554 82.6242 18.99 82.5947L18.4545 82.3552L18.3346 82.8783Z" fill="#F59E0B"/>
<path d="M22.5568 82.2747C22.5647 82.2959 22.5671 82.3188 22.5638 82.3412C22.5743 82.371 22.5777 82.4029 22.5735 82.4342L22.1385 84.0516C22.0905 84.215 22.0211 84.3714 21.932 84.5165C21.8476 84.6262 21.7434 84.7192 21.6248 84.7905C21.5006 84.8308 21.3693 84.8445 21.2395 84.8309C21.0915 84.8141 20.947 84.7749 20.8108 84.7146C20.6706 84.6534 20.543 84.5665 20.4347 84.4585C20.3204 84.359 20.2295 84.2355 20.1684 84.0968C20.1253 83.9503 20.1093 83.7972 20.1211 83.645C20.1198 83.466 20.1418 83.2876 20.1864 83.1142L20.6214 81.4969L20.7012 81.4885L21.1235 81.6726C21.1314 81.6938 21.1338 81.7167 21.1304 81.7391C21.1405 81.769 21.1439 81.8007 21.1402 81.8321L20.6905 83.4376C20.6672 83.5762 20.6821 83.7186 20.7336 83.8495C20.7505 83.9122 20.7828 83.9696 20.8276 84.0166C20.8724 84.0635 20.9283 84.0984 20.9901 84.1182C21.0408 84.1441 21.0979 84.1547 21.1545 84.1488C21.2112 84.1428 21.2648 84.1206 21.309 84.0847C21.4167 83.9985 21.4898 83.8764 21.5148 83.7408L21.9513 82.1367L22.031 82.1283L22.5568 82.2747Z" fill="#F59E0B"/>
<path d="M24.0951 85.4183C24.103 85.4395 24.1054 85.4624 24.102 85.4848C24.1126 85.5146 24.1159 85.5465 24.1118 85.5778L23.9955 86.0064C24.0034 86.0276 24.0058 86.0505 24.0025 86.0729L23.936 86.0798L22.4146 85.4063C22.4067 85.3851 22.4043 85.3623 22.4076 85.3399C22.3989 85.3097 22.3956 85.2782 22.3979 85.2469L23.1048 82.6338L23.0978 82.5674L23.1775 82.559L23.5999 82.7431C23.6078 82.7643 23.6102 82.7872 23.6068 82.8096C23.6165 82.8396 23.6198 82.8712 23.6166 82.9026L23.0547 84.9766L24.0951 85.4183Z" fill="#F59E0B"/>
<path d="M26.278 83.9402C26.278 83.9402 26.3577 83.9319 26.3675 84.0249C26.3781 84.0638 26.3823 84.1042 26.38 84.1445L26.3989 87.0174C26.4093 87.0379 26.4118 87.0616 26.4059 87.0838L25.9835 86.8997C25.9644 86.8985 25.9464 86.8905 25.9327 86.8771C25.9189 86.8638 25.9105 86.846 25.9088 86.8269C25.8998 86.8014 25.8969 86.7741 25.9004 86.7472L25.8614 86.3751L24.9874 85.9831L24.8041 86.2844C24.7709 86.3002 24.7334 86.3041 24.6977 86.2956L24.2887 86.11C24.2805 86.0986 24.2753 86.0853 24.2738 86.0713C24.2724 86.0573 24.2746 86.0431 24.2804 86.0303L25.6857 83.8008L25.7585 83.726C25.7761 83.7147 25.796 83.7077 25.8168 83.7055C25.8375 83.7033 25.8585 83.7061 25.8781 83.7135L26.278 83.9402ZM25.2695 85.4699L25.8051 85.7093L25.7986 84.6219L25.2695 85.4699Z" fill="#F59E0B"/>
<path d="M28.1505 87.9624C28.138 87.9331 28.1346 87.9007 28.1407 87.8694C28.1322 87.8437 28.1294 87.8165 28.1324 87.7897L27.764 86.0684L27.3849 87.4515C27.3928 87.4727 27.3952 87.4956 27.3919 87.5179L27.2324 87.5346L26.7954 87.3386C26.7869 87.3249 26.7816 87.3094 26.7799 87.2932C26.7782 87.2771 26.7802 87.2608 26.7857 87.2456L27.5059 84.6311C27.4954 84.6106 27.493 84.5869 27.4989 84.5647L27.5654 84.5577L27.9038 84.7103C27.9232 84.7141 27.9414 84.7226 27.9567 84.735C27.9721 84.7475 27.9842 84.7635 27.9918 84.7817C27.9991 84.8076 28.0019 84.8346 28.0002 84.8614L28.3819 86.5813L28.7476 85.1996C28.7397 85.1784 28.7373 85.1555 28.7407 85.1332L28.8204 85.1248L29.2427 85.3089C29.2506 85.3301 29.253 85.353 29.2497 85.3754C29.2594 85.4054 29.2627 85.437 29.2594 85.4684L28.5525 88.0815C28.5599 88.1028 28.5623 88.1255 28.5595 88.1479L28.4798 88.1563L28.1505 87.9624Z" fill="#F59E0B"/>
<path d="M30.0476 86.8364L30.0616 86.9693L30.0013 87.1637L29.9544 87.3567L29.9697 87.5029L29.9892 87.6889C29.9891 87.7514 29.9956 87.8138 30.0087 87.8749C30.0305 87.9312 30.0633 87.9826 30.1051 88.026C30.1546 88.0799 30.2139 88.1239 30.2799 88.1555C30.3426 88.162 30.4059 88.1553 30.4659 88.136L30.6121 88.1207L30.7184 88.1096L30.7884 88.0082L30.8548 88.0012L30.9346 87.9929L31.3569 88.177C31.3651 88.1884 31.3703 88.2018 31.3717 88.2157C31.3732 88.2297 31.3709 88.2439 31.3652 88.2567C31.33 88.3849 31.2639 88.5025 31.1727 88.5993C31.0962 88.6998 30.9922 88.776 30.8733 88.8188C30.7491 88.859 30.6178 88.8727 30.488 88.8591C30.3408 88.8486 30.1965 88.8138 30.0607 88.7561C29.9147 88.6857 29.782 88.5905 29.6685 88.4748C29.5553 88.3711 29.4681 88.2422 29.4141 88.0984C29.3508 87.9578 29.3123 87.8073 29.3004 87.6536C29.2979 87.4996 29.3087 87.3456 29.3327 87.1934C29.3216 87.0871 29.3888 86.9592 29.4294 86.834C29.4701 86.7089 29.4974 86.5851 29.5394 86.4732C29.5768 86.3348 29.6408 86.2049 29.7277 86.0908C29.8043 85.9822 29.9054 85.8934 30.0229 85.8315C30.1445 85.7683 30.2779 85.7314 30.4146 85.7232C30.5688 85.727 30.72 85.7664 30.8565 85.8382C31.0031 85.8942 31.1359 85.9811 31.246 86.0929C31.3502 86.1961 31.4393 86.3133 31.5108 86.4413C31.577 86.5717 31.6191 86.7129 31.6351 86.8582C31.6553 87.0023 31.6479 87.149 31.6133 87.2903L31.5468 87.2973L31.1245 87.1132L31.0581 87.1202L31.0455 87.0005C31.0483 86.9602 31.0441 86.9198 31.033 86.8809C31.041 86.8362 31.0362 86.7901 31.0191 86.7481C30.9974 86.6959 30.9651 86.649 30.924 86.6103L30.7507 86.4941C30.688 86.4841 30.6238 86.4908 30.5646 86.5136C30.5113 86.4982 30.4541 86.5042 30.4052 86.5303C30.3548 86.5591 30.3129 86.6006 30.2834 86.6505C30.1943 86.6979 30.1144 86.7608 30.0476 86.8364Z" fill="#F59E0B"/>
<path d="M33.1705 89.4648C33.1785 89.486 33.1809 89.5089 33.1775 89.5313C33.1872 89.5613 33.1905 89.593 33.1873 89.6243L33.071 90.053L33.0045 90.0599L31.4404 89.364C31.4346 89.3541 31.4309 89.343 31.4297 89.3316C31.4285 89.3201 31.4298 89.3085 31.4335 89.2976C31.4252 89.2862 31.4201 89.2729 31.4186 89.2589C31.4172 89.2449 31.4194 89.2307 31.4251 89.2179L32.1439 86.5901L33.68 87.2755C33.6905 87.296 33.6929 87.3197 33.687 87.3419C33.696 87.3675 33.6988 87.3948 33.6954 87.4216L33.5791 87.8503C33.5895 87.8708 33.592 87.8945 33.586 87.9167L33.5196 87.9237L32.5043 87.4658L32.3894 87.9077L33.3194 88.3208C33.3273 88.342 33.3297 88.3649 33.3263 88.3873L33.3361 88.4803L33.2065 88.9103C33.2169 88.9309 33.2194 88.9545 33.2134 88.9767L33.147 88.9837L32.2038 88.572L32.077 89.0287L33.1705 89.4648Z" fill="#F59E0B"/>
<path d="M35.5629 30.1045L71.1598 4.30261C71.9728 3.70895 72.9284 3.341 73.9296 3.2361C74.9308 3.13119 75.942 3.29306 76.8604 3.7053L99.9421 13.982C100.853 14.3892 101.641 15.027 102.23 15.8324C102.818 16.6377 103.187 17.5828 103.298 18.5741L107.251 50.4015C107.358 51.404 107.198 52.4169 106.787 53.3376C106.376 54.2583 105.729 55.054 104.912 55.6441L68.7016 81.873L64.6374 43.085L35.5629 30.1045Z" fill="#FAFAFA"/>
<path d="M62.7449 18.363C64.2406 17.2525 65.7391 16.1685 67.2335 15.0447L69.4631 13.3736L71.6619 11.6655L69.3561 13.2505L67.0769 14.8328C65.5504 15.9062 64.0533 17.0034 62.5416 18.0888C61.0298 19.1741 59.5326 20.2714 58.0516 21.3938C56.5706 22.5163 55.0748 23.6268 53.6099 24.7744C55.1538 23.7394 56.6803 22.666 58.2082 21.6058L62.7449 18.363ZM83.9112 19.7187L81.632 21.3009C80.1041 22.3611 78.607 23.4583 77.0952 24.5437C75.5834 25.629 74.0877 26.7396 72.6053 27.8487C71.1228 28.9579 69.5837 30.167 68.1663 31.2559C69.7103 30.2209 71.2381 29.1607 72.7646 28.0873L77.2881 24.8459L81.7914 21.5395L84.0063 19.8565C84.7534 19.2946 85.4873 18.7341 86.2184 18.147L83.9112 19.7187ZM71.5342 16.9853L73.7638 15.3143L75.9626 13.6062C75.1833 14.1177 74.4334 14.653 73.6569 15.1912L71.3776 16.7734C69.8512 17.8468 68.3541 18.9441 66.8409 20.0161C65.3277 21.0882 63.8333 22.212 62.3523 23.3345C60.8713 24.4569 59.3755 25.5674 57.9106 26.715C59.4545 25.68 60.981 24.6066 62.5089 23.5464C64.0367 22.4862 65.5325 21.3757 67.0442 20.2904C68.556 19.205 70.1077 18.1155 71.602 16.9917L71.5342 16.9853ZM72.865 22.8912L77.3549 19.5862L79.5832 17.9018L81.7834 16.207C81.0174 16.7171 80.2541 17.2539 79.4776 17.792L77.1984 19.3742C75.6719 20.4476 74.1734 21.5316 72.6616 22.617C71.1498 23.7023 69.6541 24.8129 68.1717 25.922C66.6892 27.0312 65.1949 28.155 63.7299 29.3026C65.2739 28.2676 66.8018 27.2074 68.3282 26.134L72.865 22.8912Z" fill="#E0E0E0"/>
<path d="M102.651 57.2781L96.7247 55.2122C96.7247 55.2122 96.6063 49.851 100.48 50.7885C104.353 51.7261 102.651 57.2781 102.651 57.2781Z" fill="#37474F"/>
<path d="M99.484 56.9249L100.44 54.3797L97.3676 53.009C96.7853 52.8011 96.1579 52.7537 95.551 52.8716C94.9441 52.9896 94.3801 53.2685 93.9181 53.6793C92.4797 54.9065 91.351 56.4555 90.6235 58.2007C89.8961 59.9458 89.5904 61.8379 89.7313 63.7234C89.7292 64.4573 89.9167 65.1794 90.2756 65.8196C90.6346 66.4599 91.1527 66.9965 91.78 67.3777L94.9228 68.7814L95.9843 66.0908C97.1554 64.8778 98.0692 63.4405 98.6706 61.8654C99.272 60.2902 99.5487 58.6097 99.484 56.9249Z" fill="#263238"/>
<path d="M102.642 58.0851C102.758 59.7313 102.545 61.3841 102.017 62.9476C101.489 64.5112 100.656 65.9543 99.566 67.1933C99.2424 67.5384 98.8889 67.8541 98.5095 68.1369C95.8252 70.084 93.3474 68.7449 92.9701 65.1439C92.7722 62.2112 93.6138 59.3025 95.3469 56.9284C95.8435 56.2347 96.4457 55.6231 97.1318 55.1159C99.7881 53.1583 102.266 54.4973 102.642 58.0851Z" fill="#37474F"/>
<path d="M97.3306 57.2712C99.0411 56.0307 100.626 56.9259 100.882 59.3709C100.989 60.5996 100.806 61.8362 100.347 62.9811C99.8885 64.1259 99.1671 65.1469 98.2412 65.9616C96.5307 67.2022 94.9457 66.3069 94.6896 63.8619C94.5836 62.6333 94.7673 61.397 95.226 60.2524C95.6847 59.1077 96.4056 58.0866 97.3306 57.2712Z" fill="#455A64"/>
<path d="M97.5506 59.3708C98.4369 58.7271 99.2647 59.1912 99.397 60.4536C99.452 61.0917 99.3562 61.7339 99.1175 62.3283C98.8787 62.9227 98.5037 63.4526 98.0226 63.8755C97.1362 64.5191 96.3217 64.0537 96.1825 62.7249C96.1312 62.0977 96.2283 61.4672 96.466 60.8845C96.7037 60.3018 97.0752 59.7832 97.5506 59.3708Z" fill="#E0E0E0"/>
<path d="M98.1595 59.2801C98.2698 59.2004 98.3891 59.1338 98.5149 59.0817C99.0072 59.1645 99.3804 59.6493 99.4639 60.4466C99.53 61.39 99.2891 62.3295 98.7773 63.1247L98.5786 63.2799C97.793 63.8593 97.0637 63.4386 96.9468 62.3224C96.8956 61.7557 96.9788 61.1849 97.1895 60.6563C97.4002 60.1278 97.7325 59.6563 98.1595 59.2801Z" fill="#F5F5F5"/>
<path d="M102.642 58.0849C102.758 59.7311 102.545 61.3839 102.017 62.9474C101.489 64.5109 100.656 65.954 99.5661 67.193C100.979 65.2122 101.878 62.9115 102.183 60.4974C102.404 58.3785 101.933 55.4187 100.073 54.8478C98.2128 54.277 96.0279 56.118 95.3589 56.9135C95.8555 56.2198 96.4578 55.6082 97.1438 55.101C99.7882 53.1581 102.266 54.4971 102.642 58.0849Z" fill="#455A64"/>
<path d="M103.312 18.7071C103.312 18.7071 105.829 36.8345 107.251 50.4017C107.354 51.4005 107.193 52.4087 106.784 53.326C106.376 54.2432 105.735 55.0375 104.924 55.6295L102.651 57.2782L102.596 56.7467C102.241 53.3582 100.048 51.9221 97.4105 53.0314L96.9873 53.2235C96.6525 53.3968 96.332 53.5967 96.0289 53.821C94.3378 55.1834 92.9934 56.927 92.1059 58.909C91.2185 60.8911 90.8131 63.0552 90.9232 65.2241C90.9238 65.3849 90.9406 65.5451 90.9733 65.7025L68.7 81.8599L64.6372 43.0851L100.159 17.3313C100.436 17.1125 100.767 16.973 101.117 16.9277C101.468 16.8824 101.824 16.9331 102.147 17.0744C102.471 17.2156 102.75 17.4421 102.956 17.7296C103.161 18.0172 103.284 18.355 103.312 18.7071Z" fill="#E0E0E0"/>
<path d="M73.7328 44.1202L64.0701 51.1377C63.7287 51.4071 63.4582 51.7559 63.2822 52.1536C63.1061 52.5513 63.0298 52.9859 63.0599 53.4198L64.0094 62.4824C64.0916 63.2664 64.6698 63.5282 65.3205 63.0704L74.9845 56.0663C75.3259 55.7968 75.5963 55.4481 75.7724 55.0504C75.9485 54.6527 76.0248 54.218 75.9947 53.7841L75.0438 44.7083C74.935 43.9271 74.3435 43.6666 73.7328 44.1202Z" fill="#37474F"/>
<path d="M108.442 50.1023L107.159 49.5248L107.242 50.3221L105.149 51.8848L105.497 55.2068L106.145 55.4883L108.804 53.5572C108.932 53.4657 109.034 53.3418 109.099 53.1981C109.164 53.0545 109.19 52.8962 109.175 52.7392L108.978 50.8656C108.969 50.7009 108.914 50.5421 108.819 50.4071C108.724 50.2722 108.594 50.1666 108.442 50.1023Z" fill="#263238"/>
<path d="M106.141 55.4482L105.493 55.1668L105.145 51.8447L105.794 52.1394L106.141 55.4482Z" fill="#37474F"/>
<path d="M105.145 51.8449L105.794 52.1396L108.225 50.34C108.253 50.3176 108.275 50.2885 108.289 50.2554C108.303 50.2222 108.308 50.1861 108.304 50.1503C108.301 50.1145 108.288 50.0803 108.268 50.0507C108.247 50.0212 108.219 49.9973 108.187 49.9812L107.172 49.5234L107.256 50.3207L105.145 51.8449Z" fill="#455A64"/>
<path d="M41.9062 94.6217L45.8029 91.8087C47.2203 89.3092 49.6645 86.3529 52.8197 86.7209L92.6421 57.9103C94.0567 55.3842 96.4834 52.3894 99.673 52.7C99.7932 52.8218 100.431 52.2444 100.521 52.2081C100.612 52.1718 106.566 47.8401 106.974 47.5018C106.782 45.6681 106.584 43.7812 106.386 41.8942L43.9498 87.0725C43.1961 87.6099 42.6119 88.3517 42.2662 89.2104L40.5312 93.4224C40.4304 93.6091 40.396 93.8246 40.4338 94.0335C40.4717 94.2423 40.5794 94.4321 40.7394 94.5716C40.8993 94.7111 41.102 94.7921 41.314 94.8012C41.5261 94.8103 41.7349 94.747 41.9062 94.6217Z" fill="#F59E0B"/>
<path opacity="0.2" d="M41.9062 94.6217L45.8029 91.8087C47.2203 89.3092 49.6645 86.3529 52.8197 86.7209L92.6421 57.9103C94.0672 55.3563 96.5534 52.288 99.7968 52.7274L100.521 52.2081C100.732 52.0383 106.566 47.8401 106.974 47.5018C106.782 45.6681 106.584 43.7812 106.386 41.8942L43.9498 87.0725C43.1961 87.6099 42.6119 88.3517 42.2662 89.2104L40.5312 93.4224C40.4304 93.6091 40.396 93.8246 40.4338 94.0335C40.4717 94.2423 40.5794 94.4321 40.7394 94.5716C40.8993 94.7111 41.102 94.7921 41.314 94.8012C41.5261 94.8103 41.7349 94.747 41.9062 94.6217Z" fill="black"/>
<path opacity="0.2" d="M64.571 84.8988L63.784 85.4649L59.7462 46.9292C59.9897 46.6888 60.2493 46.4735 60.5208 46.2436L64.571 84.8988Z" fill="black"/>
<path d="M102.508 52.0671L102.577 52.7182C102.591 52.8511 102.689 52.8946 102.802 52.8156L103.888 52.0301C103.944 51.9833 103.988 51.9248 104.018 51.859C104.048 51.7931 104.064 51.7214 104.063 51.649L103.995 50.9979C103.995 50.9718 103.987 50.9463 103.973 50.9245C103.959 50.9027 103.938 50.8856 103.915 50.8752C103.891 50.8649 103.864 50.8618 103.838 50.8663C103.813 50.8708 103.789 50.8827 103.77 50.9006L102.684 51.6861C102.626 51.7309 102.58 51.7889 102.549 51.8552C102.519 51.9215 102.505 51.9942 102.508 52.0671Z" fill="white"/>
<path d="M60.8345 49.2332L60.932 50.1634L65.1148 47.1324L103.381 19.3715C103.335 18.933 103.312 18.7071 103.312 18.7071C103.31 18.6268 103.302 18.5468 103.287 18.4679L65.0306 46.2008L60.8345 49.2332Z" fill="#F59E0B"/>
<path opacity="0.2" d="M60.8345 49.2332L60.932 50.1634L65.1148 47.1324L103.381 19.3715C103.335 18.933 103.312 18.7071 103.312 18.7071C103.31 18.6268 103.302 18.5468 103.287 18.4679L65.0306 46.2008L60.8345 49.2332Z" fill="black"/>
<path d="M84.9204 41.1476L86.3778 36.9781L88.7229 37.8206L88.3261 34.0334L90.8223 32.2135L91.2191 36.0007L93.0567 32.1272L95.133 33.7367L92.5358 39.2078L95.8305 40.394L94.3613 44.5782L92.0294 43.7344L92.4248 47.5082L89.9287 49.3281L89.5319 45.541L87.6824 49.4291L85.6194 47.8183L88.2033 42.3485L84.9204 41.1476Z" fill="#F59E0B"/>
<path opacity="0.2" d="M84.9204 41.1476L86.3778 36.9781L88.7229 37.8206L88.3261 34.0334L90.8223 32.2135L91.2191 36.0007L93.0567 32.1272L95.133 33.7367L92.5358 39.2078L95.8305 40.394L94.3613 44.5782L92.0294 43.7344L92.4248 47.5082L89.9287 49.3281L89.5319 45.541L87.6824 49.4291L85.6194 47.8183L88.2033 42.3485L84.9204 41.1476Z" fill="black"/>
<path d="M61.4888 78.9477L60.7389 79.4831C60.564 79.6089 60.4199 79.5165 60.3949 79.2773L60.1498 76.9386C60.137 76.8167 60.1534 76.6935 60.1974 76.5791C60.2415 76.4648 60.312 76.3624 60.4033 76.2806L61.1533 75.7453C61.3149 75.6209 61.4722 75.7119 61.4972 75.9511L61.7437 78.3031C61.7521 78.4228 61.7336 78.5428 61.6895 78.6544C61.6454 78.766 61.5768 78.8662 61.4888 78.9477Z" fill="#263238"/>
<path d="M66.1984 75.5525L65.4498 76.1011C65.2735 76.2136 65.1309 76.1345 65.1045 75.882L64.8594 73.5433C64.8444 73.4231 64.8598 73.3011 64.9044 73.1884C64.9489 73.0757 65.0211 72.9761 65.1143 72.8986L65.8629 72.35C66.0245 72.2256 66.1818 72.3166 66.2068 72.5558L66.4533 74.9078C66.4627 75.0276 66.4447 75.1479 66.4005 75.2597C66.3563 75.3714 66.2872 75.4715 66.1984 75.5525Z" fill="#263238"/>
<path d="M59.5807 41.3711L34.6097 30.2446L39.0297 27.0409L64.0139 38.1661L59.5807 41.3711Z" fill="#F59E0B"/>
<path opacity="0.6" d="M59.5807 41.3711L34.6097 30.2446L39.0297 27.0409L64.0139 38.1661L59.5807 41.3711Z" fill="white"/>
<path d="M34.6096 30.2447L33.4845 32.9688L59.9356 44.7597L59.5805 41.3713L34.6096 30.2447Z" fill="#F59E0B"/>
<path opacity="0.4" d="M34.6096 30.2447L33.4845 32.9688L59.9356 44.7597L59.5805 41.3713L34.6096 30.2447Z" fill="white"/>
<path d="M64.0137 38.1661L65.6525 40.6006L59.9355 44.7597L59.5804 41.3712L64.0137 38.1661Z" fill="#F59E0B"/>
<path opacity="0.25" d="M64.0137 38.1661L65.6525 40.6006L59.9355 44.7597L59.5804 41.3712L64.0137 38.1661Z" fill="white"/>
<path d="M49.5894 36.9237L54.0227 33.7186L49.0199 31.4888L44.6013 34.7057L49.5894 36.9237Z" fill="#FAFAFA"/>
<path d="M49.5902 36.9235L48.8181 39.8121L43.6315 37.4941L44.6021 34.7055L49.5902 36.9235Z" fill="#EBEBEB"/>
</svg>
