<svg width="1835" height="1200" viewBox="0 0 1835 1200" fill="none" xmlns="http://www.w3.org/2000/svg">
<path d="M697.821 795.863L779.924 741.425L862.027 686.987L784.387 637L699.435 693.327L614.483 749.655L614.517 749.674C614.517 749.674 430.762 871.513 313.02 949.581C195.278 1027.65 11.5235 1149.49 11.5235 1149.49L89.163 1199.48C89.163 1199.48 274.653 1076.49 393.507 997.679C512.36 918.873 697.85 795.882 697.85 795.882L697.821 795.863ZM816.145 664.242L819.862 666.637L811.986 671.857L808.269 669.463L816.145 664.242ZM800.397 674.683L802.303 675.908L803.187 676.476L804.118 677.077L796.245 682.298L794.385 681.101L793.455 680.504L792.524 679.903L800.401 674.683H800.397ZM784.648 685.124L786.765 686.485L787.439 686.917L788.369 687.518L780.497 692.738L779.566 692.137L777.706 690.94L776.776 690.339L784.652 685.119L784.648 685.124ZM768.899 695.564L769.83 696.165L771.69 697.362L772.62 697.963L764.744 703.184L762.593 701.799L761.958 701.39L761.027 700.789L768.9 695.569L768.899 695.564ZM753.151 706.005L754.081 706.606L754.14 706.644L756.872 708.404L748.995 713.624L747.089 712.399L746.205 711.831L745.274 711.23L753.147 706.01L753.151 706.005ZM737.402 716.446L738.332 717.042L740.193 718.239L741.123 718.84L733.251 724.06L732.32 723.459L731.752 723.093L729.53 721.661L737.406 716.441L737.402 716.446ZM721.653 726.886L725.37 729.281L717.498 734.501L716.568 733.9L716.509 733.863L713.777 732.102L721.653 726.882L721.653 726.886ZM705.905 737.327L707.811 738.552L708.695 739.12L709.626 739.721L701.749 744.942L700.819 744.345L698.959 743.148L698.028 742.547L705.905 737.327ZM55.214 1173.68L54.2837 1173.08L52.4232 1171.88L51.493 1171.28L59.3694 1166.06L61.3098 1167.31L62.16 1167.85L63.0903 1168.46L55.218 1173.68L55.214 1173.68ZM70.9627 1163.24L69.1022 1162.04L68.172 1161.45L67.2417 1160.85L75.1182 1155.62L76.9282 1156.79L77.9048 1157.42L78.835 1158.02L70.9628 1163.24L70.9627 1163.24ZM86.7113 1152.8L82.9946 1150.4L90.871 1145.18L94.5878 1147.58L86.7113 1152.8ZM102.46 1142.36L100.654 1141.19L99.6735 1140.56L98.7432 1139.96L106.616 1134.74L107.546 1135.34L107.622 1135.4L110.332 1137.14L102.456 1142.36L102.46 1142.36ZM118.209 1131.92L116.399 1130.75L115.422 1130.12L114.492 1129.52L122.364 1124.3L123.294 1124.9L125.155 1126.1L126.085 1126.7L118.209 1131.92ZM133.957 1121.48L133.027 1120.88L131.167 1119.68L130.236 1119.08L138.113 1113.86L139.919 1115.03L140.899 1115.66L141.83 1116.26L133.957 1121.48ZM149.706 1111.04L148.776 1110.44L147.298 1109.49L145.985 1108.64L153.862 1103.42L157.578 1105.82L149.706 1111.04ZM165.455 1100.6L161.738 1098.2L169.614 1092.98L170.545 1093.58L172.359 1094.75L173.335 1095.38L165.459 1100.6H165.455ZM181.203 1090.15L180.273 1089.56L178.413 1088.36L177.482 1087.76L185.355 1082.54L186.285 1083.14L187.464 1083.9L189.072 1084.94L181.195 1090.16L181.203 1090.15ZM196.952 1079.71L193.235 1077.32L201.108 1072.1L202.038 1072.7L202.21 1072.81L204.829 1074.49L196.952 1079.71ZM212.701 1069.27L211.737 1068.65L209.91 1067.48L208.98 1066.88L216.856 1061.66L217.786 1062.26L219.647 1063.45L220.577 1064.05L212.705 1069.27H212.701ZM228.449 1058.83L227.519 1058.24L225.663 1057.04L224.733 1056.44L232.609 1051.22L234.47 1052.42L235.4 1053.01L236.33 1053.61L228.458 1058.83H228.449ZM244.198 1048.39L240.481 1046L248.358 1040.78L252.075 1043.17L244.198 1048.39ZM259.947 1037.95L258.086 1036.75L257.156 1036.16L256.226 1035.56L264.098 1030.34L265.028 1030.93L266.8 1032.07L267.819 1032.73L259.943 1037.95H259.947ZM275.695 1027.51L274.765 1026.91L272.905 1025.72L271.975 1025.12L279.851 1019.9L281.711 1021.09L282.642 1021.69L283.572 1022.29L275.7 1027.51H275.695ZM291.444 1017.07L290.514 1016.47L290.468 1016.44L287.723 1014.68L295.6 1009.46L299.316 1011.85L291.444 1017.07ZM307.193 1006.63L306.263 1006.03L305.092 1005.28L303.472 1004.24L311.348 999.015L312.279 999.611L314.139 1000.81L315.069 1001.41L307.197 1006.63H307.193ZM322.941 996.189L322.011 995.593L320.151 994.396L319.221 993.795L327.093 988.574L328.023 989.175L329.311 990.006L330.81 990.973L322.933 996.194L322.941 996.189ZM338.69 985.748L334.973 983.354L342.846 978.134L343.776 978.735L343.965 978.857L346.562 980.528L338.686 985.748H338.69ZM354.439 975.308L353.509 974.707L351.648 973.51L350.718 972.909L358.594 967.688L359.524 968.285L361.385 969.482L362.315 970.083L354.443 975.303L354.439 975.308ZM370.188 964.867L369.257 964.266L368.1 963.52L366.466 962.468L374.343 957.248L376.14 958.407L377.129 959.046L378.06 959.647L370.188 964.867ZM385.936 954.426L382.219 952.032L390.096 946.812L393.813 949.206L385.936 954.426ZM401.685 943.986L399.854 942.807L398.894 942.192L397.964 941.591L405.836 936.371L406.766 936.972L407.697 937.573L409.557 938.77L401.681 943.99L401.685 943.986ZM417.434 933.545L415.548 932.329L414.647 931.747L413.717 931.146L421.589 925.926L422.519 926.527L424.38 927.724L425.31 928.325L417.434 933.545ZM433.182 923.104L431.322 921.907L430.391 921.306L429.461 920.705L437.338 915.485L439.257 916.72L440.128 917.278L441.059 917.879L433.182 923.1L433.182 923.104ZM448.931 912.664L448.001 912.063L446.14 910.866L445.21 910.265L453.086 905.044L454.016 905.641L455.877 906.838L456.807 907.439L448.935 912.659L448.931 912.664ZM464.68 902.223L463.749 901.622L463.362 901.373L460.959 899.829L468.835 894.608L472.556 897.003L464.68 902.223ZM480.428 891.782L478.159 890.322L477.642 889.989L476.716 889.393L484.588 884.172L486.874 885.642L487.379 885.966L488.305 886.562L480.432 891.782H480.428ZM496.177 881.342L494.321 880.144L493.39 879.548L492.46 878.947L500.332 873.727L501.797 874.671L503.119 875.52L504.049 876.121L496.177 881.342ZM511.93 870.901L510.999 870.3L509.922 869.605L508.213 868.507L516.085 863.286L517.015 863.887L517.954 864.493L519.802 865.681L511.93 870.901ZM527.678 860.46L525.46 859.033L524.888 858.667L523.962 858.071L531.834 852.85L534.103 854.31L534.625 854.644L535.551 855.24L527.678 860.46ZM543.427 850.02L541.571 848.823L540.641 848.226L539.71 847.625L547.583 842.405L549.043 843.344L550.373 844.198L551.304 844.799L543.431 850.02H543.427ZM559.18 839.579L558.25 838.978L557.18 838.288L555.459 837.18L563.331 831.96L564.261 832.561L565.175 833.147L567.048 834.354L559.176 839.574L559.18 839.579ZM574.929 829.138L572.651 827.669L572.142 827.34L571.216 826.744L579.088 821.524L581.366 822.993L581.875 823.322L582.801 823.918L574.929 829.138ZM590.677 818.698L588.821 817.501L587.891 816.904L586.961 816.303L594.833 811.083L596.571 812.2L597.623 812.876L598.554 813.477L590.681 818.698H590.677ZM606.43 808.257L605.5 807.656L604.557 807.05L602.709 805.863L610.581 800.642L611.512 801.243L612.455 801.849L614.302 803.037L606.43 808.257ZM622.179 797.816L618.458 795.422L626.338 790.202L628.237 791.427L629.125 792L630.055 792.596L622.183 797.816H622.179ZM637.927 787.376L636.054 786.169L635.137 785.578L634.206 784.981L642.079 779.761L643.944 780.963L644.87 781.559L645.8 782.155L637.927 787.376ZM658.437 773.738L657.587 774.301L657.616 774.32L653.676 776.93L651.795 775.719L650.89 775.137L649.959 774.541L652.943 772.564L652.914 772.546L654.72 771.348L658.656 768.738L660.626 770.006L661.443 770.532L662.373 771.132L658.437 773.743L658.437 773.738ZM670.25 765.907L666.533 763.513L674.409 758.293L678.126 760.687L670.25 765.907ZM685.998 755.467L684.087 754.237L683.212 753.673L682.281 753.073L690.154 747.852L691.084 748.448L692.843 749.58L693.875 750.242L685.998 755.462L685.998 755.467Z" fill="#EBEBEB"/>
<path d="M1658.82 158.863L1740.92 104.425L1823.03 49.9875L1745.39 0L1660.44 56.3275L1575.48 112.655L1575.52 112.674C1575.52 112.674 1391.76 234.513 1274.02 312.581C1156.28 390.65 972.523 512.489 972.523 512.489L1050.16 562.477C1050.16 562.477 1235.65 439.486 1354.51 360.679C1473.36 281.873 1658.85 158.882 1658.85 158.882L1658.82 158.863ZM1777.15 27.2424L1780.86 29.6367L1772.99 34.857L1769.27 32.4627L1777.15 27.2424ZM1761.4 37.6831L1763.3 38.9084L1764.19 39.4764L1765.12 40.0773L1757.25 45.2976L1755.38 44.1005L1754.45 43.5043L1753.52 42.9034L1761.4 37.6831H1761.4ZM1745.65 48.1238L1747.77 49.4852L1748.44 49.9171L1749.37 50.518L1741.5 55.7383L1740.57 55.1374L1738.71 53.9403L1737.78 53.3394L1745.65 48.1191L1745.65 48.1238ZM1729.9 58.5644L1730.83 59.1653L1732.69 60.3624L1733.62 60.9633L1725.74 66.1837L1723.59 64.7988L1722.96 64.3903L1722.03 63.7895L1729.9 58.5691L1729.9 58.5644ZM1714.15 69.0051L1715.08 69.606L1715.14 69.6435L1717.87 71.404L1710 76.6243L1708.09 75.399L1707.2 74.831L1706.27 74.2301L1714.15 69.0098L1714.15 69.0051ZM1698.4 79.4457L1699.33 80.0419L1701.19 81.2391L1702.12 81.84L1694.25 87.0603L1693.32 86.4594L1692.75 86.0932L1690.53 84.6614L1698.41 79.441L1698.4 79.4457ZM1682.65 89.8864L1686.37 92.2807L1678.5 97.501L1677.57 96.9001L1677.51 96.8625L1674.78 95.1021L1682.65 89.8817L1682.65 89.8864ZM1666.9 100.327L1668.81 101.552L1669.7 102.12L1670.63 102.721L1662.75 107.942L1661.82 107.345L1659.96 106.148L1659.03 105.547L1666.9 100.327ZM1016.21 536.68L1015.28 536.079L1013.42 534.882L1012.49 534.281L1020.37 529.061L1022.31 530.31L1023.16 530.854L1024.09 531.455L1016.22 536.675L1016.21 536.68ZM1031.96 526.24L1030.1 525.042L1029.17 524.446L1028.24 523.845L1036.12 518.625L1037.93 519.794L1038.9 520.423L1039.84 521.024L1031.96 526.244L1031.96 526.24ZM1047.71 515.799L1043.99 513.405L1051.87 508.184L1055.59 510.579L1047.71 515.799ZM1063.46 505.358L1061.65 504.194L1060.67 503.565L1059.74 502.964L1067.62 497.744L1068.55 498.345L1068.62 498.396L1071.33 500.142L1063.46 505.363L1063.46 505.358ZM1079.21 494.917L1077.4 493.749L1076.42 493.119L1075.49 492.519L1083.36 487.298L1084.29 487.899L1086.15 489.096L1087.09 489.697L1079.21 494.917ZM1094.96 484.477L1094.03 483.881L1092.17 482.684L1091.24 482.083L1099.11 476.862L1100.92 478.027L1101.9 478.656L1102.83 479.256L1094.96 484.477ZM1110.71 474.036L1109.78 473.435L1108.3 472.487L1106.99 471.642L1114.86 466.422L1118.58 468.816L1110.71 474.036ZM1126.45 463.595L1122.74 461.201L1130.61 455.981L1131.54 456.577L1133.36 457.746L1134.34 458.375L1126.46 463.595H1126.45ZM1142.2 453.155L1141.27 452.559L1139.41 451.362L1138.48 450.761L1146.35 445.54L1147.29 446.141L1148.46 446.902L1150.07 447.939L1142.2 453.16L1142.2 453.155ZM1157.95 442.714L1154.24 440.32L1162.11 435.1L1163.04 435.701L1163.21 435.809L1165.83 437.494L1157.95 442.714ZM1173.7 432.274L1172.74 431.654L1170.91 430.48L1169.98 429.879L1177.86 424.659L1178.79 425.255L1180.65 426.452L1181.58 427.053L1173.7 432.274H1173.7ZM1189.45 421.833L1188.52 421.237L1186.66 420.04L1185.73 419.439L1193.61 414.218L1195.47 415.415L1196.4 416.012L1197.33 416.613L1189.46 421.833H1189.45ZM1205.2 411.392L1201.48 408.998L1209.36 403.778L1213.07 406.172L1205.2 411.392ZM1220.95 400.952L1219.09 399.754L1218.16 399.158L1217.23 398.557L1225.1 393.337L1226.03 393.933L1227.8 395.074L1228.82 395.731L1220.94 400.952H1220.95ZM1236.7 390.511L1235.77 389.915L1233.9 388.718L1232.97 388.117L1240.85 382.896L1242.71 384.093L1243.64 384.69L1244.57 385.291L1236.7 390.511H1236.7ZM1252.44 380.07L1251.51 379.469L1251.47 379.441L1248.72 377.676L1256.6 372.456L1260.32 374.85L1252.44 380.07ZM1268.19 369.63L1267.26 369.029L1266.09 368.278L1264.47 367.235L1272.35 362.015L1273.28 362.611L1275.14 363.808L1276.07 364.409L1268.2 369.63H1268.19ZM1283.94 359.189L1283.01 358.593L1281.15 357.396L1280.22 356.795L1288.09 351.574L1289.02 352.175L1290.31 353.006L1291.81 353.973L1283.93 359.194L1283.94 359.189ZM1299.69 348.748L1295.97 346.354L1303.85 341.134L1304.78 341.735L1304.97 341.857L1307.56 343.528L1299.69 348.748H1299.69ZM1315.44 338.308L1314.51 337.707L1312.65 336.51L1311.72 335.909L1319.59 330.688L1320.52 331.285L1322.38 332.482L1323.32 333.083L1315.44 338.303L1315.44 338.308ZM1331.19 327.867L1330.26 327.266L1329.1 326.52L1327.47 325.468L1335.34 320.248L1337.14 321.407L1338.13 322.046L1339.06 322.647L1331.19 327.867ZM1346.94 317.426L1343.22 315.032L1351.1 309.812L1354.81 312.206L1346.94 317.426ZM1362.68 306.986L1360.85 305.807L1359.89 305.192L1358.96 304.591L1366.84 299.371L1367.77 299.972L1368.7 300.573L1370.56 301.77L1362.68 306.99L1362.68 306.986ZM1378.43 296.545L1376.55 295.329L1375.65 294.747L1374.72 294.146L1382.59 288.926L1383.52 289.527L1385.38 290.724L1386.31 291.325L1378.43 296.545ZM1394.18 286.104L1392.32 284.907L1391.39 284.306L1390.46 283.705L1398.34 278.485L1400.26 279.72L1401.13 280.278L1402.06 280.879L1394.18 286.1L1394.18 286.104ZM1409.93 275.664L1409 275.063L1407.14 273.866L1406.21 273.265L1414.09 268.044L1415.02 268.641L1416.88 269.838L1417.81 270.439L1409.93 275.659L1409.93 275.664ZM1425.68 265.223L1424.75 264.622L1424.36 264.373L1421.96 262.829L1429.84 257.608L1433.56 260.003L1425.68 265.223ZM1441.43 254.782L1439.16 253.322L1438.64 252.989L1437.72 252.393L1445.59 247.172L1447.87 248.642L1448.38 248.966L1449.3 249.562L1441.43 254.782H1441.43ZM1457.18 244.342L1455.32 243.144L1454.39 242.548L1453.46 241.947L1461.33 236.727L1462.8 237.671L1464.12 238.52L1465.05 239.121L1457.18 244.342ZM1472.93 233.901L1472 233.3L1470.92 232.605L1469.21 231.507L1477.09 226.286L1478.02 226.887L1478.95 227.493L1480.8 228.681L1472.93 233.901ZM1488.68 223.46L1486.46 222.033L1485.89 221.667L1484.96 221.071L1492.83 215.85L1495.1 217.31L1495.62 217.644L1496.55 218.24L1488.68 223.46ZM1504.43 213.02L1502.57 211.823L1501.64 211.226L1500.71 210.625L1508.58 205.405L1510.04 206.344L1511.37 207.198L1512.3 207.799L1504.43 213.02H1504.43ZM1520.18 202.579L1519.25 201.978L1518.18 201.288L1516.46 200.18L1524.33 194.96L1525.26 195.561L1526.17 196.147L1528.05 197.354L1520.18 202.574L1520.18 202.579ZM1535.93 192.138L1533.65 190.669L1533.14 190.34L1532.22 189.744L1540.09 184.524L1542.37 185.993L1542.87 186.322L1543.8 186.918L1535.93 192.138ZM1551.68 181.698L1549.82 180.501L1548.89 179.904L1547.96 179.303L1555.83 174.083L1557.57 175.2L1558.62 175.876L1559.55 176.477L1551.68 181.698H1551.68ZM1567.43 171.257L1566.5 170.656L1565.56 170.05L1563.71 168.863L1571.58 163.642L1572.51 164.243L1573.45 164.849L1575.3 166.037L1567.43 171.257ZM1583.18 160.816L1579.46 158.422L1587.34 153.202L1589.24 154.427L1590.12 155L1591.06 155.596L1583.18 160.816H1583.18ZM1598.93 150.376L1597.05 149.169L1596.14 148.578L1595.21 147.981L1603.08 142.761L1604.94 143.963L1605.87 144.559L1606.8 145.155L1598.93 150.376ZM1619.44 136.738L1618.59 137.301L1618.62 137.32L1614.68 139.93L1612.79 138.719L1611.89 138.137L1610.96 137.541L1613.94 135.564L1613.91 135.546L1615.72 134.348L1619.66 131.738L1621.63 133.006L1622.44 133.532L1623.37 134.132L1619.44 136.743L1619.44 136.738ZM1631.25 128.907L1627.53 126.513L1635.41 121.293L1639.13 123.687L1631.25 128.907ZM1647 118.467L1645.09 117.237L1644.21 116.673L1643.28 116.073L1651.15 110.852L1652.08 111.448L1653.84 112.58L1654.87 113.242L1647 118.462L1647 118.467Z" fill="#EBEBEB"/>
<path d="M1469.82 283.863L1551.92 229.425L1634.03 174.987L1556.39 125L1471.44 181.327L1386.48 237.655L1386.52 237.674C1386.52 237.674 1202.76 359.513 1085.02 437.581C967.278 515.65 783.523 637.489 783.523 637.489L861.163 687.477C861.163 687.477 1046.65 564.486 1165.51 485.679C1284.36 406.873 1469.85 283.882 1469.85 283.882L1469.82 283.863ZM1588.15 152.242L1591.86 154.637L1583.99 159.857L1580.27 157.463L1588.15 152.242ZM1572.4 162.683L1574.3 163.908L1575.19 164.476L1576.12 165.077L1568.25 170.298L1566.38 169.101L1565.45 168.504L1564.52 167.903L1572.4 162.683H1572.4ZM1556.65 173.124L1558.77 174.485L1559.44 174.917L1560.37 175.518L1552.5 180.738L1551.57 180.137L1549.71 178.94L1548.78 178.339L1556.65 173.119L1556.65 173.124ZM1540.9 183.564L1541.83 184.165L1543.69 185.362L1544.62 185.963L1536.74 191.184L1534.59 189.799L1533.96 189.39L1533.03 188.789L1540.9 183.569L1540.9 183.564ZM1525.15 194.005L1526.08 194.606L1526.14 194.644L1528.87 196.404L1521 201.624L1519.09 200.399L1518.2 199.831L1517.27 199.23L1525.15 194.01L1525.15 194.005ZM1509.4 204.446L1510.33 205.042L1512.19 206.239L1513.12 206.84L1505.25 212.06L1504.32 211.459L1503.75 211.093L1501.53 209.661L1509.41 204.441L1509.4 204.446ZM1493.65 214.886L1497.37 217.281L1489.5 222.501L1488.57 221.9L1488.51 221.863L1485.78 220.102L1493.65 214.882L1493.65 214.886ZM1477.9 225.327L1479.81 226.552L1480.7 227.12L1481.63 227.721L1473.75 232.942L1472.82 232.345L1470.96 231.148L1470.03 230.547L1477.9 225.327ZM827.214 661.68L826.284 661.079L824.423 659.882L823.493 659.281L831.369 654.061L833.31 655.31L834.16 655.854L835.09 656.455L827.218 661.675L827.214 661.68ZM842.963 651.24L841.102 650.042L840.172 649.446L839.242 648.845L847.118 643.625L848.928 644.794L849.905 645.423L850.835 646.024L842.963 651.244L842.963 651.24ZM858.711 640.799L854.995 638.405L862.871 633.184L866.588 635.579L858.711 640.799ZM874.46 630.358L872.654 629.194L871.674 628.565L870.743 627.964L878.616 622.744L879.546 623.345L879.622 623.396L882.332 625.142L874.456 630.363L874.46 630.358ZM890.209 619.917L888.399 618.749L887.422 618.119L886.492 617.519L894.364 612.298L895.294 612.899L897.155 614.096L898.085 614.697L890.209 619.917ZM905.957 609.477L905.027 608.881L903.167 607.684L902.236 607.083L910.113 601.862L911.919 603.027L912.899 603.656L913.83 604.256L905.957 609.477ZM921.706 599.036L920.776 598.435L919.298 597.487L917.985 596.642L925.862 591.422L929.578 593.816L921.706 599.036ZM937.455 588.595L933.738 586.201L941.614 580.981L942.545 581.577L944.359 582.746L945.335 583.375L937.459 588.595H937.455ZM953.203 578.155L952.273 577.559L950.413 576.362L949.482 575.761L957.355 570.54L958.285 571.141L959.464 571.902L961.072 572.939L953.195 578.16L953.203 578.155ZM968.952 567.714L965.235 565.32L973.108 560.1L974.038 560.701L974.21 560.809L976.829 562.494L968.952 567.714ZM984.701 557.274L983.737 556.654L981.91 555.48L980.98 554.879L988.856 549.659L989.786 550.255L991.647 551.452L992.577 552.053L984.705 557.274H984.701ZM1000.45 546.833L999.519 546.237L997.663 545.04L996.733 544.439L1004.61 539.218L1006.47 540.415L1007.4 541.012L1008.33 541.613L1000.46 546.833H1000.45ZM1016.2 536.392L1012.48 533.998L1020.36 528.778L1024.07 531.172L1016.2 536.392ZM1031.95 525.952L1030.09 524.754L1029.16 524.158L1028.23 523.557L1036.1 518.337L1037.03 518.933L1038.8 520.074L1039.82 520.731L1031.94 525.952H1031.95ZM1047.7 515.511L1046.77 514.915L1044.9 513.718L1043.97 513.117L1051.85 507.896L1053.71 509.093L1054.64 509.69L1055.57 510.291L1047.7 515.511H1047.7ZM1063.44 505.07L1062.51 504.469L1062.47 504.441L1059.72 502.676L1067.6 497.456L1071.32 499.85L1063.44 505.07ZM1079.19 494.63L1078.26 494.029L1077.09 493.278L1075.47 492.235L1083.35 487.015L1084.28 487.611L1086.14 488.808L1087.07 489.409L1079.2 494.63H1079.19ZM1094.94 484.189L1094.01 483.593L1092.15 482.396L1091.22 481.795L1099.09 476.574L1100.02 477.175L1101.31 478.006L1102.81 478.973L1094.93 484.194L1094.94 484.189ZM1110.69 473.748L1106.97 471.354L1114.85 466.134L1115.78 466.735L1115.97 466.857L1118.56 468.528L1110.69 473.748H1110.69ZM1126.44 463.308L1125.51 462.707L1123.65 461.51L1122.72 460.909L1130.59 455.688L1131.52 456.285L1133.38 457.482L1134.32 458.083L1126.44 463.303L1126.44 463.308ZM1142.19 452.867L1141.26 452.266L1140.1 451.52L1138.47 450.468L1146.34 445.248L1148.14 446.407L1149.13 447.046L1150.06 447.647L1142.19 452.867ZM1157.94 442.426L1154.22 440.032L1162.1 434.812L1165.81 437.206L1157.94 442.426ZM1173.68 431.986L1171.85 430.807L1170.89 430.192L1169.96 429.591L1177.84 424.371L1178.77 424.972L1179.7 425.573L1181.56 426.77L1173.68 431.99L1173.68 431.986ZM1189.43 421.545L1187.55 420.329L1186.65 419.747L1185.72 419.146L1193.59 413.926L1194.52 414.527L1196.38 415.724L1197.31 416.325L1189.43 421.545ZM1205.18 411.104L1203.32 409.907L1202.39 409.306L1201.46 408.705L1209.34 403.485L1211.26 404.72L1212.13 405.278L1213.06 405.879L1205.18 411.1L1205.18 411.104ZM1220.93 400.664L1220 400.063L1218.14 398.866L1217.21 398.265L1225.09 393.044L1226.02 393.641L1227.88 394.838L1228.81 395.439L1220.93 400.659L1220.93 400.664ZM1236.68 390.223L1235.75 389.622L1235.36 389.373L1232.96 387.829L1240.84 382.608L1244.56 385.003L1236.68 390.223ZM1252.43 379.782L1250.16 378.322L1249.64 377.989L1248.72 377.393L1256.59 372.172L1258.87 373.642L1259.38 373.966L1260.3 374.562L1252.43 379.782H1252.43ZM1268.18 369.342L1266.32 368.144L1265.39 367.548L1264.46 366.947L1272.33 361.727L1273.8 362.671L1275.12 363.52L1276.05 364.121L1268.18 369.342ZM1283.93 358.901L1283 358.3L1281.92 357.605L1280.21 356.507L1288.09 351.286L1289.02 351.887L1289.95 352.493L1291.8 353.681L1283.93 358.901ZM1299.68 348.46L1297.46 347.033L1296.89 346.667L1295.96 346.071L1303.83 340.85L1306.1 342.31L1306.62 342.644L1307.55 343.24L1299.68 348.46ZM1315.43 338.02L1313.57 336.823L1312.64 336.226L1311.71 335.625L1319.58 330.405L1321.04 331.344L1322.37 332.198L1323.3 332.799L1315.43 338.02H1315.43ZM1331.18 327.579L1330.25 326.978L1329.18 326.288L1327.46 325.18L1335.33 319.96L1336.26 320.561L1337.17 321.147L1339.05 322.354L1331.18 327.574L1331.18 327.579ZM1346.93 317.138L1344.65 315.669L1344.14 315.34L1343.22 314.744L1351.09 309.524L1353.37 310.993L1353.87 311.322L1354.8 311.918L1346.93 317.138ZM1362.68 306.698L1360.82 305.501L1359.89 304.904L1358.96 304.303L1366.83 299.083L1368.57 300.2L1369.62 300.876L1370.55 301.477L1362.68 306.698H1362.68ZM1378.43 296.257L1377.5 295.656L1376.56 295.05L1374.71 293.863L1382.58 288.642L1383.51 289.243L1384.45 289.849L1386.3 291.037L1378.43 296.257ZM1394.18 285.816L1390.46 283.422L1398.34 278.202L1400.24 279.427L1401.12 280L1402.06 280.596L1394.18 285.816H1394.18ZM1409.93 275.376L1408.05 274.169L1407.14 273.578L1406.21 272.981L1414.08 267.761L1415.94 268.963L1416.87 269.559L1417.8 270.155L1409.93 275.376ZM1430.44 261.738L1429.59 262.301L1429.62 262.32L1425.68 264.93L1423.79 263.719L1422.89 263.137L1421.96 262.541L1424.94 260.564L1424.91 260.546L1426.72 259.348L1430.66 256.738L1432.63 258.006L1433.44 258.532L1434.37 259.132L1430.44 261.743L1430.44 261.738ZM1442.25 253.907L1438.53 251.513L1446.41 246.293L1450.13 248.687L1442.25 253.907ZM1458 243.467L1456.09 242.237L1455.21 241.673L1454.28 241.073L1462.15 235.852L1463.08 236.448L1464.84 237.58L1465.87 238.242L1458 243.462L1458 243.467Z" fill="#EBEBEB"/>
</svg>
