<svg width="60" height="60" viewBox="0 0 60 60" fill="none" xmlns="http://www.w3.org/2000/svg">
<g clip-path="url(#clip0_227_2269)">
<path d="M23.9062 26.7185V17.4673H30.5812C34.23 17.4673 36.3637 19.181 36.3637 22.106C36.3637 25.1135 34.0988 26.7185 29.7488 26.7185H23.9062ZM23.9062 40.826H31.0237C35.4637 40.826 37.8113 39.026 37.8113 35.6623C37.8113 32.3435 35.3737 30.6073 30.7387 30.6073H23.9062V40.826Z" fill="#6E2BF3"/>
<path d="M15.0076 0C11.0293 0 7.21401 1.58035 4.40097 4.3934C1.58792 7.20644 0.00756836 11.0218 0.00756836 15V45C0.00756836 48.9782 1.58792 52.7936 4.40097 55.6066C7.21401 58.4196 11.0293 60 15.0076 60H45.0076C48.9858 60 52.8011 58.4196 55.6142 55.6066C58.4272 52.7936 60.0076 48.9782 60.0076 45V15C60.0076 11.0218 58.4272 7.20644 55.6142 4.3934C52.8011 1.58035 48.9858 0 45.0076 0L15.0076 0ZM18.9826 45V13.2938H31.7288C37.6801 13.2938 41.2651 16.3275 41.2651 21.2063C41.2651 24.5213 38.8276 27.4875 35.7038 28.0163V28.3913C39.9901 28.83 42.8438 31.8825 42.8438 36.015C42.8438 41.595 38.7788 45 32.0138 45H18.9826Z" fill="#6E2BF3"/>
</g>
<defs>
<clipPath id="clip0_227_2269">
<rect width="60" height="60" fill="white"/>
</clipPath>
</defs>
</svg>
