<svg width="56" height="53" viewBox="0 0 56 53" fill="none" xmlns="http://www.w3.org/2000/svg">
<g clip-path="url(#clip0_227_2266)">
<path d="M28 15.7476C26.5081 15.7476 25.0308 16.0257 23.6524 16.566C22.274 17.1064 21.0216 17.8984 19.9666 18.8969C18.9116 19.8953 18.0748 21.0806 17.5038 22.3852C16.9329 23.6897 16.639 25.0879 16.639 26.4999C16.639 27.912 16.9329 29.3102 17.5038 30.6147C18.0748 31.9192 18.9116 33.1046 19.9666 34.103C21.0216 35.1015 22.274 35.8935 23.6524 36.4338C25.0308 36.9742 26.5081 37.2523 28 37.2523C31.0132 37.2523 33.9029 36.1195 36.0335 34.103C38.1641 32.0866 39.361 29.3516 39.361 26.4999C39.361 23.6482 38.1641 20.9133 36.0335 18.8969C33.9029 16.8804 31.0132 15.7476 28 15.7476ZM20.139 26.4999C20.139 24.5268 20.9672 22.6344 22.4415 21.2391C23.9157 19.8439 25.9152 19.0601 28 19.0601C30.0849 19.0601 32.0844 19.8439 33.5586 21.2391C35.0328 22.6344 35.861 24.5268 35.861 26.4999C35.861 28.4731 35.0328 30.3655 33.5586 31.7607C32.0844 33.156 30.0849 33.9398 28 33.9398C25.9152 33.9398 23.9157 33.156 22.4415 31.7607C20.9672 30.3655 20.139 28.4731 20.139 26.4999Z" fill="#03415F"/>
<path d="M34.2858 4.4485C32.4413 -1.48088 23.5583 -1.48088 21.7138 4.4485L21.3848 5.50518C21.256 5.91909 21.031 6.30046 20.7262 6.62136C20.4214 6.94225 20.0446 7.19453 19.6234 7.35969C19.2022 7.52486 18.7473 7.59873 18.2921 7.57589C17.8368 7.55304 17.3927 7.43407 16.9923 7.22768L15.9703 6.69768C10.2303 3.74293 3.95484 9.68556 7.08034 15.1147L7.63684 16.082C7.85491 16.4609 7.98061 16.8812 8.00475 17.3121C8.02888 17.743 7.95083 18.1735 7.77632 18.5721C7.6018 18.9708 7.33525 19.3274 6.99619 19.6158C6.65713 19.9043 6.25417 20.1173 5.81684 20.2392L4.70034 20.5506C-1.56466 22.2962 -1.56466 30.7034 4.70034 32.4491L5.81684 32.7604C6.25417 32.8823 6.65713 33.0953 6.99619 33.3838C7.33525 33.6722 7.6018 34.0289 7.77632 34.4275C7.95083 34.8261 8.02888 35.2566 8.00475 35.6875C7.98061 36.1184 7.85491 36.5387 7.63684 36.9176L7.07684 37.8849C3.95484 43.3174 10.2303 49.26 15.9703 46.2986L16.9923 45.7719C17.3927 45.5655 17.8368 45.4466 18.2921 45.4237C18.7473 45.4009 19.2022 45.4748 19.6234 45.6399C20.0446 45.8051 20.4214 46.0574 20.7262 46.3783C21.031 46.6992 21.256 47.0805 21.3848 47.4944L21.7138 48.5511C23.5583 54.4805 32.4413 54.4805 34.2858 48.5511L34.6148 47.4944C34.7437 47.0805 34.9687 46.6992 35.2735 46.3783C35.5783 46.0574 35.9551 45.8051 36.3762 45.6399C36.7974 45.4748 37.2523 45.4009 37.7076 45.4237C38.1629 45.4466 38.607 45.5655 39.0073 45.7719L40.0293 46.3019C45.7693 49.26 52.0483 43.3141 48.9193 37.8849L48.3628 36.9176C48.1448 36.5387 48.0191 36.1184 47.9949 35.6875C47.9708 35.2566 48.0488 34.8261 48.2234 34.4275C48.3979 34.0289 48.6644 33.6722 49.0035 33.3838C49.3425 33.0953 49.7455 32.8823 50.1828 32.7604L51.2993 32.4491C57.5643 30.7034 57.5643 22.2962 51.2993 20.5506L50.1828 20.2392C49.7455 20.1173 49.3425 19.9043 49.0035 19.6158C48.6644 19.3274 48.3979 18.9708 48.2234 18.5721C48.0488 18.1735 47.9708 17.743 47.9949 17.3121C48.0191 16.8812 48.1448 16.4609 48.3628 16.082L48.9228 15.1147C52.0483 9.68225 45.7658 3.74293 40.0293 6.701L39.0073 7.22768C38.607 7.43407 38.1629 7.55304 37.7076 7.57589C37.2523 7.59873 36.7974 7.52486 36.3762 7.35969C35.9551 7.19453 35.5783 6.94225 35.2735 6.62136C34.9687 6.30046 34.7437 5.91909 34.6148 5.50518L34.2858 4.4485ZM25.0703 5.38593C25.9313 2.62 30.0683 2.62 30.9293 5.38593L31.2583 6.44262C31.5349 7.33065 32.018 8.14885 32.6721 8.83722C33.3262 9.5256 34.1348 10.0667 35.0386 10.4209C35.9424 10.775 36.9185 10.9333 37.8953 10.884C38.8721 10.8347 39.8249 10.5791 40.6838 10.1361L41.7023 9.60606C44.3763 8.23137 47.3023 10.9973 45.8463 13.5314L45.2898 14.4986C44.8224 15.3116 44.553 16.2133 44.5015 17.1375C44.45 18.0618 44.6176 18.9853 44.9922 19.8403C45.3667 20.6953 45.9386 21.4602 46.6659 22.0789C47.3933 22.6976 48.2577 23.1544 49.1958 23.4159L50.3088 23.7272C53.2313 24.5421 53.2313 28.4575 50.3088 29.2724L49.1923 29.5837C48.254 29.8455 47.3895 30.3027 46.6622 30.9218C45.9348 31.5408 45.3631 32.3061 44.9889 33.1615C44.6147 34.0169 44.4475 34.9407 44.4996 35.8652C44.5516 36.7897 44.8217 37.6914 45.2898 38.5043L45.8498 39.4682C47.3023 41.999 44.3798 44.7682 41.7023 43.3902L40.6838 42.8636C39.8247 42.4205 38.8717 42.1651 37.8947 42.116C36.9177 42.0669 35.9414 42.2255 35.0376 42.58C34.1337 42.9345 33.3252 43.4759 32.6712 44.1647C32.0173 44.8534 31.5345 45.672 31.2583 46.5603L30.9293 47.6137C30.0683 50.3796 25.9313 50.3796 25.0703 47.6137L24.7413 46.557C24.4646 45.6694 23.9817 44.8517 23.3278 44.1636C22.6739 43.4756 21.8657 42.9347 20.9624 42.5806C20.059 42.2265 19.0834 42.0681 18.107 42.1171C17.1306 42.166 16.1781 42.4211 15.3193 42.8636L14.2973 43.3936C11.6233 44.7682 8.69734 42.0023 10.1533 39.4682L10.7098 38.5043C11.1787 37.6913 11.4492 36.7892 11.5016 35.8644C11.554 34.9395 11.387 34.0152 11.0127 33.1594C10.6385 32.3036 10.0665 31.5379 9.33881 30.9186C8.6111 30.2993 7.74612 29.8421 6.80734 29.5804L5.69084 29.2691C2.76834 28.4542 2.76834 24.5388 5.69084 23.7239L6.80734 23.4126C7.74466 23.1506 8.60822 22.6935 9.33484 22.0749C10.0614 21.4563 10.6327 20.6918 11.0068 19.8372C11.3809 18.9827 11.5484 18.0598 11.497 17.1361C11.4457 16.2124 11.1767 15.3112 10.7098 14.4986L10.1498 13.5314C8.69734 11.0006 11.6198 8.23137 14.2973 9.60937L15.3193 10.1361C16.1781 10.5785 17.1306 10.8336 18.107 10.8825C19.0834 10.9315 20.059 10.7731 20.9624 10.419C21.8657 10.0649 22.6739 9.524 23.3278 8.83597C23.9817 8.14794 24.4646 7.33019 24.7413 6.44262L25.0703 5.38593Z" fill="#03415F"/>
</g>
<defs>
<clipPath id="clip0_227_2266">
<rect width="56" height="53" fill="white"/>
</clipPath>
</defs>
</svg>
