<svg width="85" height="65" viewBox="0 0 85 65" fill="none" xmlns="http://www.w3.org/2000/svg">
<path d="M30.4654 25.8944L21.7759 29.571C21.4501 29.7078 21.25 29.9623 21.25 30.2372V37.5944C21.25 37.8693 21.4501 38.1225 21.7759 38.2607L30.4672 41.9399C30.7913 42.0767 31.1932 42.0767 31.5173 41.9399L40.2068 38.2607C40.5291 38.1225 40.7292 37.8693 40.7292 37.5944V30.2372C40.7292 29.9623 40.5291 29.7091 40.2032 29.571L31.5155 25.8944C31.3526 25.8254 31.1702 25.7915 30.9896 25.7915C30.8072 25.7915 30.6266 25.8254 30.4636 25.8944M75.1737 32.5177L73.7251 33.1297C73.6702 33.1528 73.6383 33.1947 73.6383 33.2408V34.4676C73.6383 34.5137 73.672 34.5557 73.7251 34.5787L75.1737 35.1921C75.2285 35.2152 75.2941 35.2152 75.349 35.1921L76.7975 34.5787C76.8506 34.5557 76.8843 34.5137 76.8843 34.4676V33.2408C76.8843 33.1947 76.8506 33.1528 76.7957 33.1297L75.3472 32.5177C75.3206 32.5055 75.2905 32.5 75.2604 32.5C75.2303 32.5 75.2002 32.5055 75.1737 32.5177Z" fill="#388E3C"/>
<path d="M63.309 18.0973L59.0785 16.2922C58.9456 16.2353 58.7827 16.2366 58.6517 16.2962C58.5206 16.3558 58.4392 16.4628 58.4392 16.5792L58.4374 27.483L54.5363 25.8323C54.3734 25.7632 54.191 25.7293 54.0103 25.7293C53.8297 25.7293 53.6473 25.7632 53.4844 25.8323H53.4862L44.7967 29.5088C44.4709 29.6456 44.2708 29.9002 44.2708 30.1737V37.5309C44.2708 37.8058 44.4709 38.059 44.7967 38.1972L53.4879 41.8764C53.812 42.0132 54.214 42.0132 54.538 41.8764L63.2275 38.1972C63.5498 38.0604 63.7499 37.8058 63.7499 37.5309V18.6714C63.7499 18.4331 63.5799 18.2137 63.309 18.0973ZM58.2001 35.8287L54.2512 37.5011C54.1042 37.5634 53.9218 37.5634 53.7748 37.5011L49.8241 35.8287C49.6736 35.7664 49.5833 35.65 49.5833 35.5254V32.1806C49.5833 32.056 49.6736 31.9409 49.8223 31.8773L53.773 30.2062C53.8474 30.1751 53.9271 30.1602 54.0103 30.1602C54.0936 30.1602 54.175 30.1764 54.2494 30.2062L58.1984 31.8773C58.3471 31.9409 58.4374 32.0574 58.4374 32.1819V35.5267C58.4374 35.65 58.3471 35.7664 58.2001 35.8287Z" fill="#37474F"/>
<path d="M30.4654 25.8944L21.25 37.5944C21.25 37.8693 21.4501 38.1225 21.7759 38.2607L30.4672 41.9399C30.7912 42.0767 31.1932 42.0767 31.5173 41.9399L40.7292 30.2372C40.7292 29.9623 40.5291 29.7091 40.2032 29.571L31.5155 25.8944C31.3526 25.8254 31.1702 25.7915 30.9896 25.7915C30.8072 25.7915 30.6266 25.8254 30.4636 25.8944" fill="#2E7D32"/>
<path d="M30.4654 25.8944L21.7759 29.571C21.4501 29.7078 21.25 29.9623 21.25 30.2372L30.4654 41.9399C30.7895 42.0767 31.1915 42.0767 31.5155 41.9399L40.205 38.2607C40.5291 38.1225 40.7292 37.8693 40.7292 37.5944L31.5155 25.8944C31.3526 25.8254 31.1702 25.7915 30.9896 25.7915C30.8072 25.7915 30.6266 25.8254 30.4636 25.8944" fill="#4CAF50"/>
<path d="M84.4741 29.5085L75.7864 25.8319C75.6234 25.7629 75.441 25.729 75.2604 25.729C75.0798 25.729 74.8974 25.7629 74.7345 25.8319L66.0468 29.5085C65.7227 29.6453 65.5208 29.9053 65.5208 30.1896V37.517C65.5208 37.8 65.7227 38.0614 66.0468 38.1982L74.738 41.8774C75.0639 42.0156 75.4623 42.0156 75.7881 41.8774L79.7955 40.1807C80.1621 40.0249 80.1603 39.6228 79.792 39.4684L71.0724 35.8297C70.9254 35.7661 70.8333 35.6483 70.8333 35.521V32.1816C70.8333 32.057 70.9219 31.9419 71.0635 31.8823L75.0214 30.2086H75.0196C75.094 30.1774 75.1754 30.1625 75.2586 30.1625C75.3419 30.1625 75.4233 30.1788 75.4977 30.2086L79.4555 31.8837C79.5972 31.9433 79.6857 32.0584 79.6857 32.183V34.9075C79.6857 35.024 79.7672 35.1323 79.9 35.1906C80.0328 35.2474 80.1957 35.2474 80.3285 35.1892L84.575 33.3029C84.8371 33.1864 85 32.9711 85 32.7382V30.1923C85 29.9066 84.7981 29.6453 84.4741 29.5085ZM18.9532 29.5085L10.2655 25.8319C10.1026 25.7629 9.92021 25.729 9.73958 25.729C9.55896 25.729 9.37656 25.7629 9.21365 25.8319L0.525937 29.5085C0.201875 29.6453 0 29.9053 0 30.1896V40.2985C0 40.4149 0.0814583 40.5233 0.214271 40.5815C0.347083 40.6384 0.51 40.6384 0.642813 40.5801L4.88927 38.6938C5.15135 38.5773 5.3125 38.362 5.3125 38.1291V32.1803C5.3125 32.0557 5.40104 31.9406 5.54271 31.881L9.50052 30.2072C9.5749 30.1761 9.65635 30.1612 9.73958 30.1612C9.82281 30.1612 9.90427 30.1774 9.97865 30.2072L13.9365 31.8823C14.0781 31.9419 14.1667 32.057 14.1667 32.1816V38.1305C14.1667 38.3634 14.3278 38.5787 14.5917 38.6952L18.8381 40.5815C18.9709 40.6397 19.1339 40.6397 19.2667 40.5829C19.3977 40.5233 19.4792 40.4149 19.4792 40.2985V30.191C19.4792 29.9066 19.2773 29.6453 18.9532 29.5085Z" fill="#37474F"/>
</svg>
